<?xml version="1.0" encoding="UTF-8" standalone="no"?>
<svg width="200" height="200" version="1.1" xmlns="http://www.w3.org/2000/svg">
    <g opacity="1.0">
        <line x1="0" y1="0" x2="12.5" y2="0.0" stroke="black" stroke_width="0.5"/>
        <line x1="12.5" y1="0.0" x2="25.0" y2="0.0" stroke="black" stroke_width="0.5"/>
        <line x1="12.5" y1="12.5" x2="12.5" y2="0.0" stroke="black" stroke_width="0.5"/>
        <line x1="12.5" y1="12.5" x2="25.0" y2="12.5" stroke="black" stroke_width="0.5"/>
        <line x1="25.0" y1="12.5" x2="25.0" y2="25.0" stroke="black" stroke_width="0.5"/>
        <line x1="12.5" y1="12.5" x2="12.5" y2="25.0" stroke="black" stroke_width="0.5"/>
        <line x1="12.5" y1="25.0" x2="12.5" y2="12.5" stroke="black" stroke_width="0.5"/>
        <line x1="0.0" y1="12.5" x2="12.5" y2="12.5" stroke="black" stroke_width="0.5"/>
        <line x1="25.0" y1="25.0" x2="37.5" y2="25.0" stroke="black" stroke_width="0.5"/>
        <line x1="37.5" y1="25.0" x2="37.5" y2="12.5" stroke="black" stroke_width="0.5"/>
        <line x1="50.0" y1="12.5" x2="50.0" y2="25.0" stroke="black" stroke_width="0.5"/>
        <line x1="37.5" y1="12.5" x2="50.0" y2="12.5" stroke="black" stroke_width="0.5"/>
        <line x1="37.5" y1="12.5" x2="37.5" y2="0.0" stroke="black" stroke_width="0.5"/>
        <line x1="37.5" y1="0.0" x2="37.5" y2="12.5" stroke="black" stroke_width="0.5"/>
        <line x1="25.0" y1="12.5" x2="37.5" y2="12.5" stroke="black" stroke_width="0.5"/>
        <line x1="25.0" y1="25.0" x2="37.5" y2="25.0" stroke="black" stroke_width="0.5"/>
        <line x1="37.5" y1="25.0" x2="37.5" y2="37.5" stroke="black" stroke_width="0.5"/>
        <line x1="25.0" y1="37.5" x2="37.5" y2="37.5" stroke="black" stroke_width="0.5"/>
        <line x1="37.5" y1="25.0" x2="50.0" y2="25.0" stroke="black" stroke_width="0.5"/>
        <line x1="37.5" y1="37.5" x2="37.5" y2="25.0" stroke="black" stroke_width="0.5"/>
        <line x1="50.0" y1="37.5" x2="50.0" y2="50.0" stroke="black" stroke_width="0.5"/>
        <line x1="37.5" y1="50.0" x2="50.0" y2="50.0" stroke="black" stroke_width="0.5"/>
        <line x1="37.5" y1="37.5" x2="37.5" y2="50.0" stroke="black" stroke_width="0.5"/>
        <line x1="37.5" y1="50.0" x2="37.5" y2="37.5" stroke="black" stroke_width="0.5"/>
        <line x1="12.5" y1="50.0" x2="12.5" y2="37.5" stroke="black" stroke_width="0.5"/>
        <line x1="0.0" y1="50.0" x2="0.0" y2="37.5" stroke="black" stroke_width="0.5"/>
        <line x1="12.5" y1="50.0" x2="25.0" y2="50.0" stroke="black" stroke_width="0.5"/>
        <line x1="12.5" y1="37.5" x2="25.0" y2="37.5" stroke="black" stroke_width="0.5"/>
        <line x1="25.0" y1="37.5" x2="25.0" y2="25.0" stroke="black" stroke_width="0.5"/>
        <line x1="12.5" y1="25.0" x2="25.0" y2="25.0" stroke="black" stroke_width="0.5"/>
        <line x1="0.0" y1="25.0" x2="12.5" y2="25.0" stroke="black" stroke_width="0.5"/>
        <line x1="0.0" y1="25.0" x2="0.0" y2="37.5" stroke="black" stroke_width="0.5"/>
        <line x1="62.5" y1="50.0" x2="62.5" y2="37.5" stroke="black" stroke_width="0.5"/>
        <line x1="50.0" y1="50.0" x2="50.0" y2="37.5" stroke="black" stroke_width="0.5"/>
        <line x1="62.5" y1="37.5" x2="75.0" y2="37.5" stroke="black" stroke_width="0.5"/>
        <line x1="75.0" y1="37.5" x2="75.0" y2="50.0" stroke="black" stroke_width="0.5"/>
        <line x1="62.5" y1="37.5" x2="62.5" y2="50.0" stroke="black" stroke_width="0.5"/>
        <line x1="62.5" y1="37.5" x2="75.0" y2="37.5" stroke="black" stroke_width="0.5"/>
        <line x1="62.5" y1="37.5" x2="62.5" y2="25.0" stroke="black" stroke_width="0.5"/>
        <line x1="50.0" y1="25.0" x2="62.5" y2="25.0" stroke="black" stroke_width="0.5"/>
        <line x1="50.0" y1="25.0" x2="50.0" y2="37.5" stroke="black" stroke_width="0.5"/>
        <line x1="75.0" y1="37.5" x2="87.5" y2="37.5" stroke="black" stroke_width="0.5"/>
        <line x1="87.5" y1="37.5" x2="87.5" y2="25.0" stroke="black" stroke_width="0.5"/>
        <line x1="87.5" y1="37.5" x2="100.0" y2="37.5" stroke="black" stroke_width="0.5"/>
        <line x1="100.0" y1="37.5" x2="100.0" y2="50.0" stroke="black" stroke_width="0.5"/>
        <line x1="87.5" y1="50.0" x2="100.0" y2="50.0" stroke="black" stroke_width="0.5"/>
        <line x1="87.5" y1="37.5" x2="87.5" y2="50.0" stroke="black" stroke_width="0.5"/>
        <line x1="75.0" y1="37.5" x2="87.5" y2="37.5" stroke="black" stroke_width="0.5"/>
        <line x1="75.0" y1="25.0" x2="87.5" y2="25.0" stroke="black" stroke_width="0.5"/>
        <line x1="87.5" y1="25.0" x2="100.0" y2="25.0" stroke="black" stroke_width="0.5"/>
        <line x1="87.5" y1="12.5" x2="87.5" y2="25.0" stroke="black" stroke_width="0.5"/>
        <line x1="87.5" y1="12.5" x2="100.0" y2="12.5" stroke="black" stroke_width="0.5"/>
        <line x1="75.0" y1="0.0" x2="75.0" y2="12.5" stroke="black" stroke_width="0.5"/>
        <line x1="62.5" y1="12.5" x2="75.0" y2="12.5" stroke="black" stroke_width="0.5"/>
        <line x1="62.5" y1="12.5" x2="62.5" y2="0.0" stroke="black" stroke_width="0.5"/>
        <line x1="62.5" y1="25.0" x2="75.0" y2="25.0" stroke="black" stroke_width="0.5"/>
        <line x1="50.0" y1="12.5" x2="62.5" y2="12.5" stroke="black" stroke_width="0.5"/>
        <line x1="50.0" y1="25.0" x2="50.0" y2="12.5" stroke="black" stroke_width="0.5"/>
        <line x1="62.5" y1="50.0" x2="62.5" y2="62.5" stroke="black" stroke_width="0.5"/>
        <line x1="50.0" y1="62.5" x2="62.5" y2="62.5" stroke="black" stroke_width="0.5"/>
        <line x1="50.0" y1="50.0" x2="50.0" y2="62.5" stroke="black" stroke_width="0.5"/>
        <line x1="62.5" y1="62.5" x2="62.5" y2="50.0" stroke="black" stroke_width="0.5"/>
        <line x1="62.5" y1="62.5" x2="75.0" y2="62.5" stroke="black" stroke_width="0.5"/>
        <line x1="50.0" y1="75.0" x2="62.5" y2="75.0" stroke="black" stroke_width="0.5"/>
        <line x1="62.5" y1="75.0" x2="62.5" y2="62.5" stroke="black" stroke_width="0.5"/>
        <line x1="50.0" y1="62.5" x2="62.5" y2="62.5" stroke="black" stroke_width="0.5"/>
        <line x1="75.0" y1="75.0" x2="87.5" y2="75.0" stroke="black" stroke_width="0.5"/>
        <line x1="87.5" y1="62.5" x2="100.0" y2="62.5" stroke="black" stroke_width="0.5"/>
        <line x1="100.0" y1="62.5" x2="100.0" y2="75.0" stroke="black" stroke_width="0.5"/>
        <line x1="87.5" y1="62.5" x2="87.5" y2="75.0" stroke="black" stroke_width="0.5"/>
        <line x1="87.5" y1="62.5" x2="100.0" y2="62.5" stroke="black" stroke_width="0.5"/>
        <line x1="75.0" y1="50.0" x2="87.5" y2="50.0" stroke="black" stroke_width="0.5"/>
        <line x1="87.5" y1="50.0" x2="87.5" y2="62.5" stroke="black" stroke_width="0.5"/>
        <line x1="87.5" y1="87.5" x2="100.0" y2="87.5" stroke="black" stroke_width="0.5"/>
        <line x1="87.5" y1="75.0" x2="100.0" y2="75.0" stroke="black" stroke_width="0.5"/>
        <line x1="87.5" y1="87.5" x2="87.5" y2="75.0" stroke="black" stroke_width="0.5"/>
        <line x1="100.0" y1="87.5" x2="100.0" y2="100.0" stroke="black" stroke_width="0.5"/>
        <line x1="87.5" y1="100.0" x2="100.0" y2="100.0" stroke="black" stroke_width="0.5"/>
        <line x1="87.5" y1="87.5" x2="87.5" y2="100.0" stroke="black" stroke_width="0.5"/>
        <line x1="75.0" y1="87.5" x2="87.5" y2="87.5" stroke="black" stroke_width="0.5"/>
        <line x1="75.0" y1="100.0" x2="75.0" y2="87.5" stroke="black" stroke_width="0.5"/>
        <line x1="62.5" y1="100.0" x2="62.5" y2="87.5" stroke="black" stroke_width="0.5"/>
        <line x1="50.0" y1="100.0" x2="50.0" y2="87.5" stroke="black" stroke_width="0.5"/>
        <line x1="62.5" y1="87.5" x2="75.0" y2="87.5" stroke="black" stroke_width="0.5"/>
        <line x1="62.5" y1="87.5" x2="62.5" y2="100.0" stroke="black" stroke_width="0.5"/>
        <line x1="75.0" y1="87.5" x2="75.0" y2="75.0" stroke="black" stroke_width="0.5"/>
        <line x1="50.0" y1="75.0" x2="62.5" y2="75.0" stroke="black" stroke_width="0.5"/>
        <line x1="62.5" y1="75.0" x2="62.5" y2="87.5" stroke="black" stroke_width="0.5"/>
        <line x1="12.5" y1="100.0" x2="12.5" y2="87.5" stroke="black" stroke_width="0.5"/>
        <line x1="0.0" y1="87.5" x2="12.5" y2="87.5" stroke="black" stroke_width="0.5"/>
        <line x1="0.0" y1="100.0" x2="0.0" y2="87.5" stroke="black" stroke_width="0.5"/>
        <line x1="12.5" y1="87.5" x2="25.0" y2="87.5" stroke="black" stroke_width="0.5"/>
        <line x1="25.0" y1="87.5" x2="25.0" y2="100.0" stroke="black" stroke_width="0.5"/>
        <line x1="12.5" y1="87.5" x2="25.0" y2="87.5" stroke="black" stroke_width="0.5"/>
        <line x1="12.5" y1="75.0" x2="12.5" y2="87.5" stroke="black" stroke_width="0.5"/>
        <line x1="0.0" y1="87.5" x2="12.5" y2="87.5" stroke="black" stroke_width="0.5"/>
        <line x1="25.0" y1="75.0" x2="25.0" y2="87.5" stroke="black" stroke_width="0.5"/>
        <line x1="37.5" y1="75.0" x2="50.0" y2="75.0" stroke="black" stroke_width="0.5"/>
        <line x1="37.5" y1="100.0" x2="50.0" y2="100.0" stroke="black" stroke_width="0.5"/>
        <line x1="25.0" y1="100.0" x2="37.5" y2="100.0" stroke="black" stroke_width="0.5"/>
        <line x1="37.5" y1="100.0" x2="37.5" y2="87.5" stroke="black" stroke_width="0.5"/>
        <line x1="25.0" y1="87.5" x2="37.5" y2="87.5" stroke="black" stroke_width="0.5"/>
        <line x1="25.0" y1="100.0" x2="25.0" y2="87.5" stroke="black" stroke_width="0.5"/>
        <line x1="37.5" y1="75.0" x2="37.5" y2="62.5" stroke="black" stroke_width="0.5"/>
        <line x1="25.0" y1="62.5" x2="37.5" y2="62.5" stroke="black" stroke_width="0.5"/>
        <line x1="37.5" y1="62.5" x2="50.0" y2="62.5" stroke="black" stroke_width="0.5"/>
        <line x1="37.5" y1="62.5" x2="37.5" y2="75.0" stroke="black" stroke_width="0.5"/>
        <line x1="37.5" y1="62.5" x2="50.0" y2="62.5" stroke="black" stroke_width="0.5"/>
        <line x1="50.0" y1="62.5" x2="50.0" y2="50.0" stroke="black" stroke_width="0.5"/>
        <line x1="25.0" y1="50.0" x2="37.5" y2="50.0" stroke="black" stroke_width="0.5"/>
        <line x1="37.5" y1="50.0" x2="37.5" y2="62.5" stroke="black" stroke_width="0.5"/>
        <line x1="25.0" y1="50.0" x2="25.0" y2="62.5" stroke="black" stroke_width="0.5"/>
        <line x1="12.5" y1="50.0" x2="12.5" y2="62.5" stroke="black" stroke_width="0.5"/>
        <line x1="0.0" y1="62.5" x2="12.5" y2="62.5" stroke="black" stroke_width="0.5"/>
        <line x1="0.0" y1="50.0" x2="0.0" y2="62.5" stroke="black" stroke_width="0.5"/>
        <line x1="25.0" y1="62.5" x2="25.0" y2="50.0" stroke="black" stroke_width="0.5"/>
        <line x1="25.0" y1="62.5" x2="25.0" y2="75.0" stroke="black" stroke_width="0.5"/>
        <line x1="112.5" y1="100.0" x2="112.5" y2="87.5" stroke="black" stroke_width="0.5"/>
        <line x1="100.0" y1="87.5" x2="112.5" y2="87.5" stroke="black" stroke_width="0.5"/>
        <line x1="100.0" y1="100.0" x2="100.0" y2="87.5" stroke="black" stroke_width="0.5"/>
        <line x1="112.5" y1="87.5" x2="125.0" y2="87.5" stroke="black" stroke_width="0.5"/>
        <line x1="112.5" y1="75.0" x2="125.0" y2="75.0" stroke="black" stroke_width="0.5"/>
        <line x1="112.5" y1="75.0" x2="112.5" y2="87.5" stroke="black" stroke_width="0.5"/>
        <line x1="100.0" y1="87.5" x2="112.5" y2="87.5" stroke="black" stroke_width="0.5"/>
        <line x1="100.0" y1="75.0" x2="100.0" y2="87.5" stroke="black" stroke_width="0.5"/>
        <line x1="137.5" y1="75.0" x2="137.5" y2="87.5" stroke="black" stroke_width="0.5"/>
        <line x1="125.0" y1="87.5" x2="137.5" y2="87.5" stroke="black" stroke_width="0.5"/>
        <line x1="125.0" y1="75.0" x2="125.0" y2="87.5" stroke="black" stroke_width="0.5"/>
        <line x1="150.0" y1="87.5" x2="150.0" y2="75.0" stroke="black" stroke_width="0.5"/>
        <line x1="137.5" y1="87.5" x2="137.5" y2="75.0" stroke="black" stroke_width="0.5"/>
        <line x1="137.5" y1="87.5" x2="150.0" y2="87.5" stroke="black" stroke_width="0.5"/>
        <line x1="125.0" y1="87.5" x2="137.5" y2="87.5" stroke="black" stroke_width="0.5"/>
        <line x1="125.0" y1="75.0" x2="137.5" y2="75.0" stroke="black" stroke_width="0.5"/>
        <line x1="125.0" y1="62.5" x2="137.5" y2="62.5" stroke="black" stroke_width="0.5"/>
        <line x1="137.5" y1="62.5" x2="150.0" y2="62.5" stroke="black" stroke_width="0.5"/>
        <line x1="150.0" y1="62.5" x2="150.0" y2="75.0" stroke="black" stroke_width="0.5"/>
        <line x1="137.5" y1="62.5" x2="150.0" y2="62.5" stroke="black" stroke_width="0.5"/>
        <line x1="150.0" y1="62.5" x2="150.0" y2="50.0" stroke="black" stroke_width="0.5"/>
        <line x1="137.5" y1="50.0" x2="150.0" y2="50.0" stroke="black" stroke_width="0.5"/>
        <line x1="125.0" y1="50.0" x2="137.5" y2="50.0" stroke="black" stroke_width="0.5"/>
        <line x1="125.0" y1="62.5" x2="137.5" y2="62.5" stroke="black" stroke_width="0.5"/>
        <line x1="125.0" y1="50.0" x2="125.0" y2="62.5" stroke="black" stroke_width="0.5"/>
        <line x1="100.0" y1="62.5" x2="112.5" y2="62.5" stroke="black" stroke_width="0.5"/>
        <line x1="125.0" y1="62.5" x2="125.0" y2="50.0" stroke="black" stroke_width="0.5"/>
        <line x1="112.5" y1="50.0" x2="125.0" y2="50.0" stroke="black" stroke_width="0.5"/>
        <line x1="112.5" y1="75.0" x2="125.0" y2="75.0" stroke="black" stroke_width="0.5"/>
        <line x1="100.0" y1="75.0" x2="112.5" y2="75.0" stroke="black" stroke_width="0.5"/>
        <line x1="112.5" y1="75.0" x2="112.5" y2="62.5" stroke="black" stroke_width="0.5"/>
        <line x1="100.0" y1="62.5" x2="112.5" y2="62.5" stroke="black" stroke_width="0.5"/>
        <line x1="150.0" y1="62.5" x2="162.5" y2="62.5" stroke="black" stroke_width="0.5"/>
        <line x1="162.5" y1="62.5" x2="175.0" y2="62.5" stroke="black" stroke_width="0.5"/>
        <line x1="175.0" y1="62.5" x2="175.0" y2="50.0" stroke="black" stroke_width="0.5"/>
        <line x1="162.5" y1="62.5" x2="162.5" y2="50.0" stroke="black" stroke_width="0.5"/>
        <line x1="162.5" y1="62.5" x2="175.0" y2="62.5" stroke="black" stroke_width="0.5"/>
        <line x1="162.5" y1="62.5" x2="162.5" y2="75.0" stroke="black" stroke_width="0.5"/>
        <line x1="162.5" y1="75.0" x2="162.5" y2="62.5" stroke="black" stroke_width="0.5"/>
        <line x1="150.0" y1="75.0" x2="150.0" y2="62.5" stroke="black" stroke_width="0.5"/>
        <line x1="175.0" y1="75.0" x2="187.5" y2="75.0" stroke="black" stroke_width="0.5"/>
        <line x1="187.5" y1="75.0" x2="187.5" y2="62.5" stroke="black" stroke_width="0.5"/>
        <line x1="175.0" y1="62.5" x2="187.5" y2="62.5" stroke="black" stroke_width="0.5"/>
        <line x1="175.0" y1="75.0" x2="175.0" y2="62.5" stroke="black" stroke_width="0.5"/>
        <line x1="200.0" y1="62.5" x2="200.0" y2="75.0" stroke="black" stroke_width="0.5"/>
        <line x1="187.5" y1="62.5" x2="187.5" y2="75.0" stroke="black" stroke_width="0.5"/>
        <line x1="187.5" y1="62.5" x2="200.0" y2="62.5" stroke="black" stroke_width="0.5"/>
        <line x1="200.0" y1="62.5" x2="200.0" y2="50.0" stroke="black" stroke_width="0.5"/>
        <line x1="187.5" y1="50.0" x2="200.0" y2="50.0" stroke="black" stroke_width="0.5"/>
        <line x1="187.5" y1="62.5" x2="187.5" y2="50.0" stroke="black" stroke_width="0.5"/>
        <line x1="175.0" y1="50.0" x2="187.5" y2="50.0" stroke="black" stroke_width="0.5"/>
        <line x1="175.0" y1="62.5" x2="187.5" y2="62.5" stroke="black" stroke_width="0.5"/>
        <line x1="175.0" y1="75.0" x2="187.5" y2="75.0" stroke="black" stroke_width="0.5"/>
        <line x1="187.5" y1="75.0" x2="187.5" y2="87.5" stroke="black" stroke_width="0.5"/>
        <line x1="175.0" y1="87.5" x2="187.5" y2="87.5" stroke="black" stroke_width="0.5"/>
        <line x1="187.5" y1="75.0" x2="200.0" y2="75.0" stroke="black" stroke_width="0.5"/>
        <line x1="187.5" y1="87.5" x2="187.5" y2="75.0" stroke="black" stroke_width="0.5"/>
        <line x1="187.5" y1="87.5" x2="200.0" y2="87.5" stroke="black" stroke_width="0.5"/>
        <line x1="187.5" y1="100.0" x2="200.0" y2="100.0" stroke="black" stroke_width="0.5"/>
        <line x1="175.0" y1="100.0" x2="187.5" y2="100.0" stroke="black" stroke_width="0.5"/>
        <line x1="175.0" y1="100.0" x2="175.0" y2="87.5" stroke="black" stroke_width="0.5"/>
        <line x1="162.5" y1="100.0" x2="162.5" y2="87.5" stroke="black" stroke_width="0.5"/>
        <line x1="150.0" y1="100.0" x2="150.0" y2="87.5" stroke="black" stroke_width="0.5"/>
        <line x1="162.5" y1="87.5" x2="175.0" y2="87.5" stroke="black" stroke_width="0.5"/>
        <line x1="175.0" y1="87.5" x2="175.0" y2="100.0" stroke="black" stroke_width="0.5"/>
        <line x1="162.5" y1="100.0" x2="175.0" y2="100.0" stroke="black" stroke_width="0.5"/>
        <line x1="162.5" y1="75.0" x2="175.0" y2="75.0" stroke="black" stroke_width="0.5"/>
        <line x1="162.5" y1="87.5" x2="162.5" y2="75.0" stroke="black" stroke_width="0.5"/>
        <line x1="162.5" y1="75.0" x2="162.5" y2="87.5" stroke="black" stroke_width="0.5"/>
        <line x1="150.0" y1="87.5" x2="162.5" y2="87.5" stroke="black" stroke_width="0.5"/>
        <line x1="150.0" y1="50.0" x2="162.5" y2="50.0" stroke="black" stroke_width="0.5"/>
        <line x1="162.5" y1="50.0" x2="162.5" y2="37.5" stroke="black" stroke_width="0.5"/>
        <line x1="162.5" y1="37.5" x2="175.0" y2="37.5" stroke="black" stroke_width="0.5"/>
        <line x1="175.0" y1="37.5" x2="175.0" y2="50.0" stroke="black" stroke_width="0.5"/>
        <line x1="162.5" y1="50.0" x2="175.0" y2="50.0" stroke="black" stroke_width="0.5"/>
        <line x1="162.5" y1="37.5" x2="162.5" y2="50.0" stroke="black" stroke_width="0.5"/>
        <line x1="175.0" y1="37.5" x2="175.0" y2="25.0" stroke="black" stroke_width="0.5"/>
        <line x1="150.0" y1="25.0" x2="162.5" y2="25.0" stroke="black" stroke_width="0.5"/>
        <line x1="175.0" y1="25.0" x2="187.5" y2="25.0" stroke="black" stroke_width="0.5"/>
        <line x1="175.0" y1="37.5" x2="187.5" y2="37.5" stroke="black" stroke_width="0.5"/>
        <line x1="175.0" y1="25.0" x2="175.0" y2="37.5" stroke="black" stroke_width="0.5"/>
        <line x1="200.0" y1="37.5" x2="200.0" y2="50.0" stroke="black" stroke_width="0.5"/>
        <line x1="187.5" y1="50.0" x2="200.0" y2="50.0" stroke="black" stroke_width="0.5"/>
        <line x1="175.0" y1="50.0" x2="187.5" y2="50.0" stroke="black" stroke_width="0.5"/>
        <line x1="187.5" y1="50.0" x2="187.5" y2="37.5" stroke="black" stroke_width="0.5"/>
        <line x1="175.0" y1="50.0" x2="175.0" y2="37.5" stroke="black" stroke_width="0.5"/>
        <line x1="175.0" y1="25.0" x2="175.0" y2="12.5" stroke="black" stroke_width="0.5"/>
        <line x1="200.0" y1="12.5" x2="200.0" y2="25.0" stroke="black" stroke_width="0.5"/>
        <line x1="187.5" y1="12.5" x2="187.5" y2="25.0" stroke="black" stroke_width="0.5"/>
        <line x1="187.5" y1="12.5" x2="200.0" y2="12.5" stroke="black" stroke_width="0.5"/>
        <line x1="200.0" y1="12.5" x2="200.0" y2="0.0" stroke="black" stroke_width="0.5"/>
        <line x1="187.5" y1="12.5" x2="187.5" y2="0.0" stroke="black" stroke_width="0.5"/>
        <line x1="175.0" y1="0.0" x2="187.5" y2="0.0" stroke="black" stroke_width="0.5"/>
        <line x1="187.5" y1="0.0" x2="187.5" y2="12.5" stroke="black" stroke_width="0.5"/>
        <line x1="175.0" y1="12.5" x2="187.5" y2="12.5" stroke="black" stroke_width="0.5"/>
        <line x1="150.0" y1="0.0" x2="162.5" y2="0.0" stroke="black" stroke_width="0.5"/>
        <line x1="150.0" y1="0.0" x2="150.0" y2="12.5" stroke="black" stroke_width="0.5"/>
        <line x1="162.5" y1="12.5" x2="175.0" y2="12.5" stroke="black" stroke_width="0.5"/>
        <line x1="175.0" y1="12.5" x2="175.0" y2="0.0" stroke="black" stroke_width="0.5"/>
        <line x1="162.5" y1="12.5" x2="162.5" y2="0.0" stroke="black" stroke_width="0.5"/>
        <line x1="175.0" y1="12.5" x2="175.0" y2="25.0" stroke="black" stroke_width="0.5"/>
        <line x1="162.5" y1="25.0" x2="175.0" y2="25.0" stroke="black" stroke_width="0.5"/>
        <line x1="150.0" y1="25.0" x2="162.5" y2="25.0" stroke="black" stroke_width="0.5"/>
        <line x1="162.5" y1="25.0" x2="162.5" y2="12.5" stroke="black" stroke_width="0.5"/>
        <line x1="100.0" y1="0.0" x2="112.5" y2="0.0" stroke="black" stroke_width="0.5"/>
        <line x1="112.5" y1="0.0" x2="112.5" y2="12.5" stroke="black" stroke_width="0.5"/>
        <line x1="100.0" y1="12.5" x2="112.5" y2="12.5" stroke="black" stroke_width="0.5"/>
        <line x1="100.0" y1="0.0" x2="100.0" y2="12.5" stroke="black" stroke_width="0.5"/>
        <line x1="112.5" y1="12.5" x2="125.0" y2="12.5" stroke="black" stroke_width="0.5"/>
        <line x1="112.5" y1="0.0" x2="125.0" y2="0.0" stroke="black" stroke_width="0.5"/>
        <line x1="112.5" y1="25.0" x2="125.0" y2="25.0" stroke="black" stroke_width="0.5"/>
        <line x1="112.5" y1="12.5" x2="112.5" y2="25.0" stroke="black" stroke_width="0.5"/>
        <line x1="112.5" y1="25.0" x2="112.5" y2="12.5" stroke="black" stroke_width="0.5"/>
        <line x1="100.0" y1="12.5" x2="112.5" y2="12.5" stroke="black" stroke_width="0.5"/>
        <line x1="125.0" y1="25.0" x2="137.5" y2="25.0" stroke="black" stroke_width="0.5"/>
        <line x1="125.0" y1="12.5" x2="137.5" y2="12.5" stroke="black" stroke_width="0.5"/>
        <line x1="125.0" y1="25.0" x2="125.0" y2="12.5" stroke="black" stroke_width="0.5"/>
        <line x1="137.5" y1="25.0" x2="150.0" y2="25.0" stroke="black" stroke_width="0.5"/>
        <line x1="137.5" y1="12.5" x2="150.0" y2="12.5" stroke="black" stroke_width="0.5"/>
        <line x1="150.0" y1="12.5" x2="150.0" y2="0.0" stroke="black" stroke_width="0.5"/>
        <line x1="137.5" y1="0.0" x2="150.0" y2="0.0" stroke="black" stroke_width="0.5"/>
        <line x1="125.0" y1="12.5" x2="137.5" y2="12.5" stroke="black" stroke_width="0.5"/>
        <line x1="125.0" y1="25.0" x2="137.5" y2="25.0" stroke="black" stroke_width="0.5"/>
        <line x1="137.5" y1="25.0" x2="137.5" y2="37.5" stroke="black" stroke_width="0.5"/>
        <line x1="125.0" y1="25.0" x2="125.0" y2="37.5" stroke="black" stroke_width="0.5"/>
        <line x1="137.5" y1="37.5" x2="137.5" y2="25.0" stroke="black" stroke_width="0.5"/>
        <line x1="125.0" y1="50.0" x2="137.5" y2="50.0" stroke="black" stroke_width="0.5"/>
        <line x1="125.0" y1="37.5" x2="137.5" y2="37.5" stroke="black" stroke_width="0.5"/>
        <line x1="125.0" y1="50.0" x2="125.0" y2="37.5" stroke="black" stroke_width="0.5"/>
        <line x1="100.0" y1="37.5" x2="112.5" y2="37.5" stroke="black" stroke_width="0.5"/>
        <line x1="112.5" y1="37.5" x2="125.0" y2="37.5" stroke="black" stroke_width="0.5"/>
        <line x1="125.0" y1="37.5" x2="125.0" y2="50.0" stroke="black" stroke_width="0.5"/>
        <line x1="112.5" y1="50.0" x2="125.0" y2="50.0" stroke="black" stroke_width="0.5"/>
        <line x1="112.5" y1="37.5" x2="112.5" y2="50.0" stroke="black" stroke_width="0.5"/>
        <line x1="112.5" y1="37.5" x2="125.0" y2="37.5" stroke="black" stroke_width="0.5"/>
        <line x1="112.5" y1="25.0" x2="112.5" y2="37.5" stroke="black" stroke_width="0.5"/>
        <line x1="100.0" y1="25.0" x2="100.0" y2="37.5" stroke="black" stroke_width="0.5"/>
        <line x1="100.0" y1="100.0" x2="112.5" y2="100.0" stroke="black" stroke_width="0.5"/>
        <line x1="100.0" y1="112.5" x2="112.5" y2="112.5" stroke="black" stroke_width="0.5"/>
        <line x1="100.0" y1="100.0" x2="100.0" y2="112.5" stroke="black" stroke_width="0.5"/>
        <line x1="112.5" y1="100.0" x2="125.0" y2="100.0" stroke="black" stroke_width="0.5"/>
        <line x1="112.5" y1="112.5" x2="125.0" y2="112.5" stroke="black" stroke_width="0.5"/>
        <line x1="125.0" y1="112.5" x2="125.0" y2="125.0" stroke="black" stroke_width="0.5"/>
        <line x1="100.0" y1="112.5" x2="112.5" y2="112.5" stroke="black" stroke_width="0.5"/>
        <line x1="125.0" y1="125.0" x2="137.5" y2="125.0" stroke="black" stroke_width="0.5"/>
        <line x1="125.0" y1="125.0" x2="125.0" y2="112.5" stroke="black" stroke_width="0.5"/>
        <line x1="137.5" y1="112.5" x2="150.0" y2="112.5" stroke="black" stroke_width="0.5"/>
        <line x1="150.0" y1="112.5" x2="150.0" y2="125.0" stroke="black" stroke_width="0.5"/>
        <line x1="137.5" y1="112.5" x2="137.5" y2="125.0" stroke="black" stroke_width="0.5"/>
        <line x1="137.5" y1="112.5" x2="150.0" y2="112.5" stroke="black" stroke_width="0.5"/>
        <line x1="150.0" y1="112.5" x2="150.0" y2="100.0" stroke="black" stroke_width="0.5"/>
        <line x1="137.5" y1="100.0" x2="150.0" y2="100.0" stroke="black" stroke_width="0.5"/>
        <line x1="125.0" y1="112.5" x2="137.5" y2="112.5" stroke="black" stroke_width="0.5"/>
        <line x1="125.0" y1="125.0" x2="137.5" y2="125.0" stroke="black" stroke_width="0.5"/>
        <line x1="137.5" y1="125.0" x2="137.5" y2="137.5" stroke="black" stroke_width="0.5"/>
        <line x1="125.0" y1="125.0" x2="125.0" y2="137.5" stroke="black" stroke_width="0.5"/>
        <line x1="137.5" y1="137.5" x2="150.0" y2="137.5" stroke="black" stroke_width="0.5"/>
        <line x1="137.5" y1="125.0" x2="150.0" y2="125.0" stroke="black" stroke_width="0.5"/>
        <line x1="137.5" y1="150.0" x2="150.0" y2="150.0" stroke="black" stroke_width="0.5"/>
        <line x1="137.5" y1="137.5" x2="137.5" y2="150.0" stroke="black" stroke_width="0.5"/>
        <line x1="125.0" y1="137.5" x2="137.5" y2="137.5" stroke="black" stroke_width="0.5"/>
        <line x1="112.5" y1="150.0" x2="112.5" y2="137.5" stroke="black" stroke_width="0.5"/>
        <line x1="100.0" y1="137.5" x2="112.5" y2="137.5" stroke="black" stroke_width="0.5"/>
        <line x1="100.0" y1="150.0" x2="100.0" y2="137.5" stroke="black" stroke_width="0.5"/>
        <line x1="112.5" y1="150.0" x2="125.0" y2="150.0" stroke="black" stroke_width="0.5"/>
        <line x1="112.5" y1="137.5" x2="112.5" y2="150.0" stroke="black" stroke_width="0.5"/>
        <line x1="100.0" y1="125.0" x2="112.5" y2="125.0" stroke="black" stroke_width="0.5"/>
        <line x1="112.5" y1="125.0" x2="112.5" y2="137.5" stroke="black" stroke_width="0.5"/>
        <line x1="150.0" y1="150.0" x2="150.0" y2="137.5" stroke="black" stroke_width="0.5"/>
        <line x1="175.0" y1="137.5" x2="175.0" y2="150.0" stroke="black" stroke_width="0.5"/>
        <line x1="162.5" y1="150.0" x2="175.0" y2="150.0" stroke="black" stroke_width="0.5"/>
        <line x1="162.5" y1="137.5" x2="175.0" y2="137.5" stroke="black" stroke_width="0.5"/>
        <line x1="162.5" y1="137.5" x2="162.5" y2="125.0" stroke="black" stroke_width="0.5"/>
        <line x1="162.5" y1="125.0" x2="162.5" y2="137.5" stroke="black" stroke_width="0.5"/>
        <line x1="175.0" y1="125.0" x2="187.5" y2="125.0" stroke="black" stroke_width="0.5"/>
        <line x1="175.0" y1="137.5" x2="187.5" y2="137.5" stroke="black" stroke_width="0.5"/>
        <line x1="175.0" y1="125.0" x2="175.0" y2="137.5" stroke="black" stroke_width="0.5"/>
        <line x1="187.5" y1="137.5" x2="200.0" y2="137.5" stroke="black" stroke_width="0.5"/>
        <line x1="200.0" y1="137.5" x2="200.0" y2="125.0" stroke="black" stroke_width="0.5"/>
        <line x1="187.5" y1="125.0" x2="200.0" y2="125.0" stroke="black" stroke_width="0.5"/>
        <line x1="187.5" y1="137.5" x2="187.5" y2="125.0" stroke="black" stroke_width="0.5"/>
        <line x1="187.5" y1="150.0" x2="187.5" y2="137.5" stroke="black" stroke_width="0.5"/>
        <line x1="175.0" y1="137.5" x2="187.5" y2="137.5" stroke="black" stroke_width="0.5"/>
        <line x1="175.0" y1="150.0" x2="175.0" y2="137.5" stroke="black" stroke_width="0.5"/>
        <line x1="175.0" y1="125.0" x2="187.5" y2="125.0" stroke="black" stroke_width="0.5"/>
        <line x1="187.5" y1="125.0" x2="187.5" y2="112.5" stroke="black" stroke_width="0.5"/>
        <line x1="175.0" y1="112.5" x2="187.5" y2="112.5" stroke="black" stroke_width="0.5"/>
        <line x1="187.5" y1="112.5" x2="187.5" y2="125.0" stroke="black" stroke_width="0.5"/>
        <line x1="187.5" y1="100.0" x2="200.0" y2="100.0" stroke="black" stroke_width="0.5"/>
        <line x1="187.5" y1="112.5" x2="187.5" y2="100.0" stroke="black" stroke_width="0.5"/>
        <line x1="175.0" y1="100.0" x2="187.5" y2="100.0" stroke="black" stroke_width="0.5"/>
        <line x1="187.5" y1="100.0" x2="187.5" y2="112.5" stroke="black" stroke_width="0.5"/>
        <line x1="175.0" y1="100.0" x2="175.0" y2="112.5" stroke="black" stroke_width="0.5"/>
        <line x1="150.0" y1="100.0" x2="162.5" y2="100.0" stroke="black" stroke_width="0.5"/>
        <line x1="162.5" y1="100.0" x2="162.5" y2="112.5" stroke="black" stroke_width="0.5"/>
        <line x1="150.0" y1="100.0" x2="150.0" y2="112.5" stroke="black" stroke_width="0.5"/>
        <line x1="162.5" y1="112.5" x2="175.0" y2="112.5" stroke="black" stroke_width="0.5"/>
        <line x1="162.5" y1="112.5" x2="175.0" y2="112.5" stroke="black" stroke_width="0.5"/>
        <line x1="150.0" y1="125.0" x2="162.5" y2="125.0" stroke="black" stroke_width="0.5"/>
        <line x1="150.0" y1="112.5" x2="162.5" y2="112.5" stroke="black" stroke_width="0.5"/>
        <line x1="175.0" y1="162.5" x2="175.0" y2="150.0" stroke="black" stroke_width="0.5"/>
        <line x1="150.0" y1="175.0" x2="162.5" y2="175.0" stroke="black" stroke_width="0.5"/>
        <line x1="187.5" y1="162.5" x2="200.0" y2="162.5" stroke="black" stroke_width="0.5"/>
        <line x1="200.0" y1="162.5" x2="200.0" y2="175.0" stroke="black" stroke_width="0.5"/>
        <line x1="187.5" y1="162.5" x2="187.5" y2="175.0" stroke="black" stroke_width="0.5"/>
        <line x1="187.5" y1="162.5" x2="200.0" y2="162.5" stroke="black" stroke_width="0.5"/>
        <line x1="200.0" y1="162.5" x2="200.0" y2="150.0" stroke="black" stroke_width="0.5"/>
        <line x1="187.5" y1="162.5" x2="187.5" y2="150.0" stroke="black" stroke_width="0.5"/>
        <line x1="175.0" y1="150.0" x2="187.5" y2="150.0" stroke="black" stroke_width="0.5"/>
        <line x1="187.5" y1="150.0" x2="187.5" y2="162.5" stroke="black" stroke_width="0.5"/>
        <line x1="175.0" y1="175.0" x2="187.5" y2="175.0" stroke="black" stroke_width="0.5"/>
        <line x1="187.5" y1="175.0" x2="187.5" y2="187.5" stroke="black" stroke_width="0.5"/>
        <line x1="175.0" y1="175.0" x2="175.0" y2="187.5" stroke="black" stroke_width="0.5"/>
        <line x1="187.5" y1="187.5" x2="200.0" y2="187.5" stroke="black" stroke_width="0.5"/>
        <line x1="200.0" y1="187.5" x2="200.0" y2="175.0" stroke="black" stroke_width="0.5"/>
        <line x1="187.5" y1="187.5" x2="200.0" y2="187.5" stroke="black" stroke_width="0.5"/>
        <line x1="175.0" y1="187.5" x2="187.5" y2="187.5" stroke="black" stroke_width="0.5"/>
        <line x1="150.0" y1="200.0" x2="162.5" y2="200.0" stroke="black" stroke_width="0.5"/>
        <line x1="150.0" y1="200.0" x2="150.0" y2="187.5" stroke="black" stroke_width="0.5"/>
        <line x1="162.5" y1="187.5" x2="175.0" y2="187.5" stroke="black" stroke_width="0.5"/>
        <line x1="162.5" y1="187.5" x2="175.0" y2="187.5" stroke="black" stroke_width="0.5"/>
        <line x1="175.0" y1="187.5" x2="175.0" y2="175.0" stroke="black" stroke_width="0.5"/>
        <line x1="150.0" y1="175.0" x2="162.5" y2="175.0" stroke="black" stroke_width="0.5"/>
        <line x1="112.5" y1="187.5" x2="112.5" y2="200.0" stroke="black" stroke_width="0.5"/>
        <line x1="112.5" y1="187.5" x2="125.0" y2="187.5" stroke="black" stroke_width="0.5"/>
        <line x1="112.5" y1="187.5" x2="112.5" y2="175.0" stroke="black" stroke_width="0.5"/>
        <line x1="100.0" y1="175.0" x2="112.5" y2="175.0" stroke="black" stroke_width="0.5"/>
        <line x1="112.5" y1="175.0" x2="112.5" y2="187.5" stroke="black" stroke_width="0.5"/>
        <line x1="100.0" y1="187.5" x2="112.5" y2="187.5" stroke="black" stroke_width="0.5"/>
        <line x1="137.5" y1="175.0" x2="137.5" y2="187.5" stroke="black" stroke_width="0.5"/>
        <line x1="150.0" y1="187.5" x2="150.0" y2="175.0" stroke="black" stroke_width="0.5"/>
        <line x1="137.5" y1="175.0" x2="150.0" y2="175.0" stroke="black" stroke_width="0.5"/>
        <line x1="150.0" y1="187.5" x2="150.0" y2="200.0" stroke="black" stroke_width="0.5"/>
        <line x1="137.5" y1="200.0" x2="137.5" y2="187.5" stroke="black" stroke_width="0.5"/>
        <line x1="125.0" y1="200.0" x2="125.0" y2="187.5" stroke="black" stroke_width="0.5"/>
        <line x1="125.0" y1="175.0" x2="137.5" y2="175.0" stroke="black" stroke_width="0.5"/>
        <line x1="137.5" y1="175.0" x2="137.5" y2="162.5" stroke="black" stroke_width="0.5"/>
        <line x1="125.0" y1="175.0" x2="125.0" y2="162.5" stroke="black" stroke_width="0.5"/>
        <line x1="150.0" y1="162.5" x2="150.0" y2="175.0" stroke="black" stroke_width="0.5"/>
        <line x1="137.5" y1="175.0" x2="150.0" y2="175.0" stroke="black" stroke_width="0.5"/>
        <line x1="125.0" y1="162.5" x2="137.5" y2="162.5" stroke="black" stroke_width="0.5"/>
        <line x1="100.0" y1="150.0" x2="112.5" y2="150.0" stroke="black" stroke_width="0.5"/>
        <line x1="125.0" y1="162.5" x2="125.0" y2="150.0" stroke="black" stroke_width="0.5"/>
        <line x1="112.5" y1="162.5" x2="112.5" y2="150.0" stroke="black" stroke_width="0.5"/>
        <line x1="112.5" y1="162.5" x2="125.0" y2="162.5" stroke="black" stroke_width="0.5"/>
        <line x1="125.0" y1="162.5" x2="125.0" y2="175.0" stroke="black" stroke_width="0.5"/>
        <line x1="112.5" y1="175.0" x2="125.0" y2="175.0" stroke="black" stroke_width="0.5"/>
        <line x1="100.0" y1="175.0" x2="112.5" y2="175.0" stroke="black" stroke_width="0.5"/>
        <line x1="100.0" y1="175.0" x2="100.0" y2="162.5" stroke="black" stroke_width="0.5"/>
        <line x1="0" y1="200" x2="12.5" y2="200.0" stroke="black" stroke_width="0.5"/>
        <line x1="0.0" y1="187.5" x2="12.5" y2="187.5" stroke="black" stroke_width="0.5"/>
        <line x1="0" y1="200" x2="0.0" y2="187.5" stroke="black" stroke_width="0.5"/>
        <line x1="12.5" y1="187.5" x2="25.0" y2="187.5" stroke="black" stroke_width="0.5"/>
        <line x1="12.5" y1="200.0" x2="25.0" y2="200.0" stroke="black" stroke_width="0.5"/>
        <line x1="12.5" y1="187.5" x2="12.5" y2="200.0" stroke="black" stroke_width="0.5"/>
        <line x1="25.0" y1="187.5" x2="25.0" y2="175.0" stroke="black" stroke_width="0.5"/>
        <line x1="12.5" y1="175.0" x2="25.0" y2="175.0" stroke="black" stroke_width="0.5"/>
        <line x1="12.5" y1="187.5" x2="12.5" y2="175.0" stroke="black" stroke_width="0.5"/>
        <line x1="0.0" y1="175.0" x2="0.0" y2="187.5" stroke="black" stroke_width="0.5"/>
        <line x1="25.0" y1="187.5" x2="37.5" y2="187.5" stroke="black" stroke_width="0.5"/>
        <line x1="25.0" y1="175.0" x2="25.0" y2="187.5" stroke="black" stroke_width="0.5"/>
        <line x1="50.0" y1="187.5" x2="50.0" y2="175.0" stroke="black" stroke_width="0.5"/>
        <line x1="37.5" y1="175.0" x2="50.0" y2="175.0" stroke="black" stroke_width="0.5"/>
        <line x1="37.5" y1="187.5" x2="37.5" y2="175.0" stroke="black" stroke_width="0.5"/>
        <line x1="50.0" y1="187.5" x2="50.0" y2="200.0" stroke="black" stroke_width="0.5"/>
        <line x1="37.5" y1="200.0" x2="50.0" y2="200.0" stroke="black" stroke_width="0.5"/>
        <line x1="25.0" y1="200.0" x2="37.5" y2="200.0" stroke="black" stroke_width="0.5"/>
        <line x1="37.5" y1="200.0" x2="37.5" y2="187.5" stroke="black" stroke_width="0.5"/>
        <line x1="25.0" y1="187.5" x2="37.5" y2="187.5" stroke="black" stroke_width="0.5"/>
        <line x1="37.5" y1="175.0" x2="37.5" y2="162.5" stroke="black" stroke_width="0.5"/>
        <line x1="25.0" y1="162.5" x2="37.5" y2="162.5" stroke="black" stroke_width="0.5"/>
        <line x1="25.0" y1="175.0" x2="25.0" y2="162.5" stroke="black" stroke_width="0.5"/>
        <line x1="50.0" y1="162.5" x2="50.0" y2="175.0" stroke="black" stroke_width="0.5"/>
        <line x1="37.5" y1="175.0" x2="50.0" y2="175.0" stroke="black" stroke_width="0.5"/>
        <line x1="37.5" y1="162.5" x2="37.5" y2="175.0" stroke="black" stroke_width="0.5"/>
        <line x1="50.0" y1="162.5" x2="50.0" y2="150.0" stroke="black" stroke_width="0.5"/>
        <line x1="37.5" y1="162.5" x2="37.5" y2="150.0" stroke="black" stroke_width="0.5"/>
        <line x1="25.0" y1="150.0" x2="37.5" y2="150.0" stroke="black" stroke_width="0.5"/>
        <line x1="37.5" y1="150.0" x2="37.5" y2="162.5" stroke="black" stroke_width="0.5"/>
        <line x1="12.5" y1="150.0" x2="12.5" y2="162.5" stroke="black" stroke_width="0.5"/>
        <line x1="0.0" y1="162.5" x2="12.5" y2="162.5" stroke="black" stroke_width="0.5"/>
        <line x1="12.5" y1="150.0" x2="25.0" y2="150.0" stroke="black" stroke_width="0.5"/>
        <line x1="12.5" y1="162.5" x2="25.0" y2="162.5" stroke="black" stroke_width="0.5"/>
        <line x1="25.0" y1="162.5" x2="25.0" y2="175.0" stroke="black" stroke_width="0.5"/>
        <line x1="0.0" y1="162.5" x2="12.5" y2="162.5" stroke="black" stroke_width="0.5"/>
        <line x1="0.0" y1="175.0" x2="0.0" y2="162.5" stroke="black" stroke_width="0.5"/>
        <line x1="62.5" y1="150.0" x2="62.5" y2="162.5" stroke="black" stroke_width="0.5"/>
        <line x1="62.5" y1="162.5" x2="75.0" y2="162.5" stroke="black" stroke_width="0.5"/>
        <line x1="75.0" y1="162.5" x2="75.0" y2="150.0" stroke="black" stroke_width="0.5"/>
        <line x1="62.5" y1="162.5" x2="62.5" y2="150.0" stroke="black" stroke_width="0.5"/>
        <line x1="62.5" y1="175.0" x2="75.0" y2="175.0" stroke="black" stroke_width="0.5"/>
        <line x1="62.5" y1="175.0" x2="62.5" y2="162.5" stroke="black" stroke_width="0.5"/>
        <line x1="50.0" y1="162.5" x2="62.5" y2="162.5" stroke="black" stroke_width="0.5"/>
        <line x1="100.0" y1="162.5" x2="100.0" y2="175.0" stroke="black" stroke_width="0.5"/>
        <line x1="87.5" y1="175.0" x2="100.0" y2="175.0" stroke="black" stroke_width="0.5"/>
        <line x1="87.5" y1="162.5" x2="87.5" y2="175.0" stroke="black" stroke_width="0.5"/>
        <line x1="87.5" y1="162.5" x2="100.0" y2="162.5" stroke="black" stroke_width="0.5"/>
        <line x1="100.0" y1="162.5" x2="100.0" y2="150.0" stroke="black" stroke_width="0.5"/>
        <line x1="87.5" y1="150.0" x2="100.0" y2="150.0" stroke="black" stroke_width="0.5"/>
        <line x1="87.5" y1="162.5" x2="87.5" y2="150.0" stroke="black" stroke_width="0.5"/>
        <line x1="87.5" y1="150.0" x2="87.5" y2="162.5" stroke="black" stroke_width="0.5"/>
        <line x1="75.0" y1="162.5" x2="87.5" y2="162.5" stroke="black" stroke_width="0.5"/>
        <line x1="75.0" y1="175.0" x2="87.5" y2="175.0" stroke="black" stroke_width="0.5"/>
        <line x1="87.5" y1="175.0" x2="87.5" y2="187.5" stroke="black" stroke_width="0.5"/>
        <line x1="75.0" y1="187.5" x2="87.5" y2="187.5" stroke="black" stroke_width="0.5"/>
        <line x1="87.5" y1="187.5" x2="100.0" y2="187.5" stroke="black" stroke_width="0.5"/>
        <line x1="87.5" y1="175.0" x2="100.0" y2="175.0" stroke="black" stroke_width="0.5"/>
        <line x1="87.5" y1="187.5" x2="87.5" y2="175.0" stroke="black" stroke_width="0.5"/>
        <line x1="87.5" y1="187.5" x2="100.0" y2="187.5" stroke="black" stroke_width="0.5"/>
        <line x1="100.0" y1="187.5" x2="100.0" y2="200.0" stroke="black" stroke_width="0.5"/>
        <line x1="87.5" y1="200.0" x2="100.0" y2="200.0" stroke="black" stroke_width="0.5"/>
        <line x1="87.5" y1="200.0" x2="87.5" y2="187.5" stroke="black" stroke_width="0.5"/>
        <line x1="75.0" y1="187.5" x2="87.5" y2="187.5" stroke="black" stroke_width="0.5"/>
        <line x1="75.0" y1="200.0" x2="75.0" y2="187.5" stroke="black" stroke_width="0.5"/>
        <line x1="50.0" y1="187.5" x2="62.5" y2="187.5" stroke="black" stroke_width="0.5"/>
        <line x1="50.0" y1="200.0" x2="50.0" y2="187.5" stroke="black" stroke_width="0.5"/>
        <line x1="62.5" y1="200.0" x2="75.0" y2="200.0" stroke="black" stroke_width="0.5"/>
        <line x1="62.5" y1="187.5" x2="75.0" y2="187.5" stroke="black" stroke_width="0.5"/>
        <line x1="75.0" y1="187.5" x2="75.0" y2="175.0" stroke="black" stroke_width="0.5"/>
        <line x1="62.5" y1="175.0" x2="75.0" y2="175.0" stroke="black" stroke_width="0.5"/>
        <line x1="50.0" y1="175.0" x2="50.0" y2="187.5" stroke="black" stroke_width="0.5"/>
        <line x1="50.0" y1="137.5" x2="62.5" y2="137.5" stroke="black" stroke_width="0.5"/>
        <line x1="62.5" y1="137.5" x2="75.0" y2="137.5" stroke="black" stroke_width="0.5"/>
        <line x1="75.0" y1="137.5" x2="75.0" y2="150.0" stroke="black" stroke_width="0.5"/>
        <line x1="62.5" y1="137.5" x2="62.5" y2="150.0" stroke="black" stroke_width="0.5"/>
        <line x1="62.5" y1="125.0" x2="75.0" y2="125.0" stroke="black" stroke_width="0.5"/>
        <line x1="50.0" y1="125.0" x2="62.5" y2="125.0" stroke="black" stroke_width="0.5"/>
        <line x1="62.5" y1="125.0" x2="62.5" y2="137.5" stroke="black" stroke_width="0.5"/>
        <line x1="87.5" y1="125.0" x2="87.5" y2="137.5" stroke="black" stroke_width="0.5"/>
        <line x1="100.0" y1="137.5" x2="100.0" y2="125.0" stroke="black" stroke_width="0.5"/>
        <line x1="87.5" y1="137.5" x2="100.0" y2="137.5" stroke="black" stroke_width="0.5"/>
        <line x1="87.5" y1="150.0" x2="100.0" y2="150.0" stroke="black" stroke_width="0.5"/>
        <line x1="87.5" y1="137.5" x2="87.5" y2="150.0" stroke="black" stroke_width="0.5"/>
        <line x1="75.0" y1="150.0" x2="87.5" y2="150.0" stroke="black" stroke_width="0.5"/>
        <line x1="87.5" y1="150.0" x2="87.5" y2="137.5" stroke="black" stroke_width="0.5"/>
        <line x1="75.0" y1="150.0" x2="75.0" y2="137.5" stroke="black" stroke_width="0.5"/>
        <line x1="87.5" y1="125.0" x2="100.0" y2="125.0" stroke="black" stroke_width="0.5"/>
        <line x1="87.5" y1="112.5" x2="87.5" y2="125.0" stroke="black" stroke_width="0.5"/>
        <line x1="87.5" y1="100.0" x2="87.5" y2="112.5" stroke="black" stroke_width="0.5"/>
        <line x1="75.0" y1="112.5" x2="87.5" y2="112.5" stroke="black" stroke_width="0.5"/>
        <line x1="75.0" y1="100.0" x2="75.0" y2="112.5" stroke="black" stroke_width="0.5"/>
        <line x1="50.0" y1="100.0" x2="62.5" y2="100.0" stroke="black" stroke_width="0.5"/>
        <line x1="62.5" y1="100.0" x2="62.5" y2="112.5" stroke="black" stroke_width="0.5"/>
        <line x1="50.0" y1="112.5" x2="62.5" y2="112.5" stroke="black" stroke_width="0.5"/>
        <line x1="75.0" y1="112.5" x2="75.0" y2="100.0" stroke="black" stroke_width="0.5"/>
        <line x1="62.5" y1="100.0" x2="75.0" y2="100.0" stroke="black" stroke_width="0.5"/>
        <line x1="62.5" y1="112.5" x2="62.5" y2="125.0" stroke="black" stroke_width="0.5"/>
        <line x1="50.0" y1="125.0" x2="50.0" y2="112.5" stroke="black" stroke_width="0.5"/>
        <line x1="12.5" y1="100.0" x2="12.5" y2="112.5" stroke="black" stroke_width="0.5"/>
        <line x1="0.0" y1="112.5" x2="12.5" y2="112.5" stroke="black" stroke_width="0.5"/>
        <line x1="0.0" y1="100.0" x2="0.0" y2="112.5" stroke="black" stroke_width="0.5"/>
        <line x1="12.5" y1="100.0" x2="25.0" y2="100.0" stroke="black" stroke_width="0.5"/>
        <line x1="12.5" y1="112.5" x2="12.5" y2="100.0" stroke="black" stroke_width="0.5"/>
        <line x1="12.5" y1="112.5" x2="25.0" y2="112.5" stroke="black" stroke_width="0.5"/>
        <line x1="25.0" y1="112.5" x2="25.0" y2="125.0" stroke="black" stroke_width="0.5"/>
        <line x1="12.5" y1="112.5" x2="12.5" y2="125.0" stroke="black" stroke_width="0.5"/>
        <line x1="0.0" y1="125.0" x2="12.5" y2="125.0" stroke="black" stroke_width="0.5"/>
        <line x1="12.5" y1="125.0" x2="12.5" y2="112.5" stroke="black" stroke_width="0.5"/>
        <line x1="0.0" y1="125.0" x2="0.0" y2="112.5" stroke="black" stroke_width="0.5"/>
        <line x1="37.5" y1="125.0" x2="50.0" y2="125.0" stroke="black" stroke_width="0.5"/>
        <line x1="37.5" y1="112.5" x2="37.5" y2="125.0" stroke="black" stroke_width="0.5"/>
        <line x1="37.5" y1="112.5" x2="37.5" y2="100.0" stroke="black" stroke_width="0.5"/>
        <line x1="37.5" y1="100.0" x2="37.5" y2="112.5" stroke="black" stroke_width="0.5"/>
        <line x1="25.0" y1="100.0" x2="25.0" y2="112.5" stroke="black" stroke_width="0.5"/>
        <line x1="25.0" y1="125.0" x2="37.5" y2="125.0" stroke="black" stroke_width="0.5"/>
        <line x1="50.0" y1="137.5" x2="50.0" y2="125.0" stroke="black" stroke_width="0.5"/>
        <line x1="37.5" y1="137.5" x2="37.5" y2="125.0" stroke="black" stroke_width="0.5"/>
        <line x1="50.0" y1="137.5" x2="50.0" y2="150.0" stroke="black" stroke_width="0.5"/>
        <line x1="37.5" y1="137.5" x2="37.5" y2="150.0" stroke="black" stroke_width="0.5"/>
        <line x1="25.0" y1="150.0" x2="25.0" y2="137.5" stroke="black" stroke_width="0.5"/>
        <line x1="0.0" y1="150.0" x2="12.5" y2="150.0" stroke="black" stroke_width="0.5"/>
        <line x1="0.0" y1="137.5" x2="12.5" y2="137.5" stroke="black" stroke_width="0.5"/>
        <line x1="12.5" y1="137.5" x2="25.0" y2="137.5" stroke="black" stroke_width="0.5"/>
        <line x1="25.0" y1="137.5" x2="25.0" y2="150.0" stroke="black" stroke_width="0.5"/>
        <line x1="12.5" y1="150.0" x2="25.0" y2="150.0" stroke="black" stroke_width="0.5"/>
        <line x1="12.5" y1="137.5" x2="12.5" y2="150.0" stroke="black" stroke_width="0.5"/>
        <line x1="12.5" y1="137.5" x2="25.0" y2="137.5" stroke="black" stroke_width="0.5"/>
        <line x1="25.0" y1="137.5" x2="25.0" y2="125.0" stroke="black" stroke_width="0.5"/>
        <line x1="12.5" y1="125.0" x2="25.0" y2="125.0" stroke="black" stroke_width="0.5"/>
        <line x1="0.0" y1="137.5" x2="12.5" y2="137.5" stroke="black" stroke_width="0.5"/>
        <line x1="0.0" y1="125.0" x2="0.0" y2="137.5" stroke="black" stroke_width="0.5"/>
    </g> 
</svg>