<?xml version="1.0" encoding="UTF-8" standalone="no"?>
<svg width="200" height="200" version="1.1" xmlns="http://www.w3.org/2000/svg">
    <g opacity="1.0">
        <rect x="0" y="0" width="12.5" height="12.5"  fill="#6E7C8F" stroke="#6E7C8F" stroke_width="0.5"  />
        <rect x="12.5" y="0.0" width="12.5" height="12.5"  fill="#F306C1" stroke="#F306C1" stroke_width="0.5"  />
        <rect x="12.5" y="12.5" width="12.5" height="12.5"  fill="#F48B6D" stroke="#F48B6D" stroke_width="0.5"  />
        <rect x="0.0" y="12.5" width="12.5" height="12.5"  fill="#5A22EB" stroke="#5A22EB" stroke_width="0.5"  />
        <rect x="25.0" y="0.0" width="12.5" height="12.5"  fill="#5B6DF5" stroke="#5B6DF5" stroke_width="0.5"  />
        <rect x="37.5" y="0.0" width="12.5" height="12.5"  fill="#8947C5" stroke="#8947C5" stroke_width="0.5"  />
        <rect x="37.5" y="12.5" width="12.5" height="12.5"  fill="#F2D619" stroke="#F2D619" stroke_width="0.5"  />
        <rect x="25.0" y="12.5" width="12.5" height="12.5"  fill="#8B5E1B" stroke="#8B5E1B" stroke_width="0.5"  />
        <rect x="25.0" y="25.0" width="12.5" height="12.5"  fill="#4E747F" stroke="#4E747F" stroke_width="0.5"  />
        <rect x="37.5" y="25.0" width="12.5" height="12.5"  fill="#418450" stroke="#418450" stroke_width="0.5"  />
        <rect x="37.5" y="37.5" width="12.5" height="12.5"  fill="#0A2CED" stroke="#0A2CED" stroke_width="0.5"  />
        <rect x="25.0" y="37.5" width="12.5" height="12.5"  fill="#2FD972" stroke="#2FD972" stroke_width="0.5"  />
        <rect x="0.0" y="25.0" width="12.5" height="12.5"  fill="#3A1C04" stroke="#3A1C04" stroke_width="0.5"  />
        <rect x="12.5" y="25.0" width="12.5" height="12.5"  fill="#1776DE" stroke="#1776DE" stroke_width="0.5"  />
        <rect x="12.5" y="37.5" width="12.5" height="12.5"  fill="#D4CD8F" stroke="#D4CD8F" stroke_width="0.5"  />
        <rect x="0.0" y="37.5" width="12.5" height="12.5"  fill="#06A300" stroke="#06A300" stroke_width="0.5"  />
        <rect x="50.0" y="0.0" width="12.5" height="12.5"  fill="#F054B6" stroke="#F054B6" stroke_width="0.5"  />
        <rect x="62.5" y="0.0" width="12.5" height="12.5"  fill="#0B119A" stroke="#0B119A" stroke_width="0.5"  />
        <rect x="62.5" y="12.5" width="12.5" height="12.5"  fill="#707675" stroke="#707675" stroke_width="0.5"  />
        <rect x="50.0" y="12.5" width="12.5" height="12.5"  fill="#5F90C7" stroke="#5F90C7" stroke_width="0.5"  />
        <rect x="75.0" y="0.0" width="12.5" height="12.5"  fill="#4B86F3" stroke="#4B86F3" stroke_width="0.5"  />
        <rect x="87.5" y="0.0" width="12.5" height="12.5"  fill="#485C22" stroke="#485C22" stroke_width="0.5"  />
        <rect x="87.5" y="12.5" width="12.5" height="12.5"  fill="#93299F" stroke="#93299F" stroke_width="0.5"  />
        <rect x="75.0" y="12.5" width="12.5" height="12.5"  fill="#F1EE9F" stroke="#F1EE9F" stroke_width="0.5"  />
        <rect x="75.0" y="25.0" width="12.5" height="12.5"  fill="#8C6E0B" stroke="#8C6E0B" stroke_width="0.5"  />
        <rect x="87.5" y="25.0" width="12.5" height="12.5"  fill="#2F09D3" stroke="#2F09D3" stroke_width="0.5"  />
        <rect x="87.5" y="37.5" width="12.5" height="12.5"  fill="#BA6AF1" stroke="#BA6AF1" stroke_width="0.5"  />
        <rect x="75.0" y="37.5" width="12.5" height="12.5"  fill="#4A11AD" stroke="#4A11AD" stroke_width="0.5"  />
        <rect x="50.0" y="25.0" width="12.5" height="12.5"  fill="#8667BA" stroke="#8667BA" stroke_width="0.5"  />
        <rect x="62.5" y="25.0" width="12.5" height="12.5"  fill="#3C68A3" stroke="#3C68A3" stroke_width="0.5"  />
        <rect x="62.5" y="37.5" width="12.5" height="12.5"  fill="#D1E95A" stroke="#D1E95A" stroke_width="0.5"  />
        <rect x="50.0" y="37.5" width="12.5" height="12.5"  fill="#8105D3" stroke="#8105D3" stroke_width="0.5"  />
        <rect x="50.0" y="50.0" width="12.5" height="12.5"  fill="#C19F22" stroke="#C19F22" stroke_width="0.5"  />
        <rect x="62.5" y="50.0" width="12.5" height="12.5"  fill="#E8E393" stroke="#E8E393" stroke_width="0.5"  />
        <rect x="62.5" y="62.5" width="12.5" height="12.5"  fill="#B67A5E" stroke="#B67A5E" stroke_width="0.5"  />
        <rect x="50.0" y="62.5" width="12.5" height="12.5"  fill="#761162" stroke="#761162" stroke_width="0.5"  />
        <rect x="75.0" y="50.0" width="12.5" height="12.5"  fill="#90417F" stroke="#90417F" stroke_width="0.5"  />
        <rect x="87.5" y="50.0" width="12.5" height="12.5"  fill="#0843C2" stroke="#0843C2" stroke_width="0.5"  />
        <rect x="87.5" y="62.5" width="12.5" height="12.5"  fill="#3028B9" stroke="#3028B9" stroke_width="0.5"  />
        <rect x="75.0" y="62.5" width="12.5" height="12.5"  fill="#94AE99" stroke="#94AE99" stroke_width="0.5"  />
        <rect x="75.0" y="75.0" width="12.5" height="12.5"  fill="#BFC4A3" stroke="#BFC4A3" stroke_width="0.5"  />
        <rect x="87.5" y="75.0" width="12.5" height="12.5"  fill="#3B92BC" stroke="#3B92BC" stroke_width="0.5"  />
        <rect x="87.5" y="87.5" width="12.5" height="12.5"  fill="#2C97BA" stroke="#2C97BA" stroke_width="0.5"  />
        <rect x="75.0" y="87.5" width="12.5" height="12.5"  fill="#57ED54" stroke="#57ED54" stroke_width="0.5"  />
        <rect x="50.0" y="75.0" width="12.5" height="12.5"  fill="#3EB863" stroke="#3EB863" stroke_width="0.5"  />
        <rect x="62.5" y="75.0" width="12.5" height="12.5"  fill="#48CCDD" stroke="#48CCDD" stroke_width="0.5"  />
        <rect x="62.5" y="87.5" width="12.5" height="12.5"  fill="#2D4588" stroke="#2D4588" stroke_width="0.5"  />
        <rect x="50.0" y="87.5" width="12.5" height="12.5"  fill="#EFA178" stroke="#EFA178" stroke_width="0.5"  />
        <rect x="0.0" y="50.0" width="12.5" height="12.5"  fill="#C8A932" stroke="#C8A932" stroke_width="0.5"  />
        <rect x="12.5" y="50.0" width="12.5" height="12.5"  fill="#A08370" stroke="#A08370" stroke_width="0.5"  />
        <rect x="12.5" y="62.5" width="12.5" height="12.5"  fill="#898115" stroke="#898115" stroke_width="0.5"  />
        <rect x="0.0" y="62.5" width="12.5" height="12.5"  fill="#8C1589" stroke="#8C1589" stroke_width="0.5"  />
        <rect x="25.0" y="50.0" width="12.5" height="12.5"  fill="#747933" stroke="#747933" stroke_width="0.5"  />
        <rect x="37.5" y="50.0" width="12.5" height="12.5"  fill="#4201D1" stroke="#4201D1" stroke_width="0.5"  />
        <rect x="37.5" y="62.5" width="12.5" height="12.5"  fill="#36A83D" stroke="#36A83D" stroke_width="0.5"  />
        <rect x="25.0" y="62.5" width="12.5" height="12.5"  fill="#484174" stroke="#484174" stroke_width="0.5"  />
        <rect x="25.0" y="75.0" width="12.5" height="12.5"  fill="#0E09EA" stroke="#0E09EA" stroke_width="0.5"  />
        <rect x="37.5" y="75.0" width="12.5" height="12.5"  fill="#442006" stroke="#442006" stroke_width="0.5"  />
        <rect x="37.5" y="87.5" width="12.5" height="12.5"  fill="#39640A" stroke="#39640A" stroke_width="0.5"  />
        <rect x="25.0" y="87.5" width="12.5" height="12.5"  fill="#1F6DD6" stroke="#1F6DD6" stroke_width="0.5"  />
        <rect x="0.0" y="75.0" width="12.5" height="12.5"  fill="#F11A62" stroke="#F11A62" stroke_width="0.5"  />
        <rect x="12.5" y="75.0" width="12.5" height="12.5"  fill="#8CC029" stroke="#8CC029" stroke_width="0.5"  />
        <rect x="12.5" y="87.5" width="12.5" height="12.5"  fill="#AB950E" stroke="#AB950E" stroke_width="0.5"  />
        <rect x="0.0" y="87.5" width="12.5" height="12.5"  fill="#C85D1B" stroke="#C85D1B" stroke_width="0.5"  />
        <rect x="100.0" y="0.0" width="12.5" height="12.5"  fill="#8AA345" stroke="#8AA345" stroke_width="0.5"  />
        <rect x="112.5" y="0.0" width="12.5" height="12.5"  fill="#00DED4" stroke="#00DED4" stroke_width="0.5"  />
        <rect x="112.5" y="12.5" width="12.5" height="12.5"  fill="#D02DB3" stroke="#D02DB3" stroke_width="0.5"  />
        <rect x="100.0" y="12.5" width="12.5" height="12.5"  fill="#95A9E0" stroke="#95A9E0" stroke_width="0.5"  />
        <rect x="125.0" y="0.0" width="12.5" height="12.5"  fill="#3F4E0E" stroke="#3F4E0E" stroke_width="0.5"  />
        <rect x="137.5" y="0.0" width="12.5" height="12.5"  fill="#852C60" stroke="#852C60" stroke_width="0.5"  />
        <rect x="137.5" y="12.5" width="12.5" height="12.5"  fill="#6C3AED" stroke="#6C3AED" stroke_width="0.5"  />
        <rect x="125.0" y="12.5" width="12.5" height="12.5"  fill="#E92F1D" stroke="#E92F1D" stroke_width="0.5"  />
        <rect x="125.0" y="25.0" width="12.5" height="12.5"  fill="#F85C8F" stroke="#F85C8F" stroke_width="0.5"  />
        <rect x="137.5" y="25.0" width="12.5" height="12.5"  fill="#520642" stroke="#520642" stroke_width="0.5"  />
        <rect x="137.5" y="37.5" width="12.5" height="12.5"  fill="#D94377" stroke="#D94377" stroke_width="0.5"  />
        <rect x="125.0" y="37.5" width="12.5" height="12.5"  fill="#AADE7C" stroke="#AADE7C" stroke_width="0.5"  />
        <rect x="100.0" y="25.0" width="12.5" height="12.5"  fill="#3928B2" stroke="#3928B2" stroke_width="0.5"  />
        <rect x="112.5" y="25.0" width="12.5" height="12.5"  fill="#50094D" stroke="#50094D" stroke_width="0.5"  />
        <rect x="112.5" y="37.5" width="12.5" height="12.5"  fill="#5FF07E" stroke="#5FF07E" stroke_width="0.5"  />
        <rect x="100.0" y="37.5" width="12.5" height="12.5"  fill="#9F110F" stroke="#9F110F" stroke_width="0.5"  />
        <rect x="150.0" y="0.0" width="12.5" height="12.5"  fill="#EBA776" stroke="#EBA776" stroke_width="0.5"  />
        <rect x="162.5" y="0.0" width="12.5" height="12.5"  fill="#97FFC3" stroke="#97FFC3" stroke_width="0.5"  />
        <rect x="162.5" y="12.5" width="12.5" height="12.5"  fill="#0751E2" stroke="#0751E2" stroke_width="0.5"  />
        <rect x="150.0" y="12.5" width="12.5" height="12.5"  fill="#5D10B5" stroke="#5D10B5" stroke_width="0.5"  />
        <rect x="175.0" y="0.0" width="12.5" height="12.5"  fill="#13C432" stroke="#13C432" stroke_width="0.5"  />
        <rect x="187.5" y="0.0" width="12.5" height="12.5"  fill="#08CA51" stroke="#08CA51" stroke_width="0.5"  />
        <rect x="187.5" y="12.5" width="12.5" height="12.5"  fill="#B68639" stroke="#B68639" stroke_width="0.5"  />
        <rect x="175.0" y="12.5" width="12.5" height="12.5"  fill="#ED4839" stroke="#ED4839" stroke_width="0.5"  />
        <rect x="175.0" y="25.0" width="12.5" height="12.5"  fill="#169684" stroke="#169684" stroke_width="0.5"  />
        <rect x="187.5" y="25.0" width="12.5" height="12.5"  fill="#FB20C6" stroke="#FB20C6" stroke_width="0.5"  />
        <rect x="187.5" y="37.5" width="12.5" height="12.5"  fill="#BED50E" stroke="#BED50E" stroke_width="0.5"  />
        <rect x="175.0" y="37.5" width="12.5" height="12.5"  fill="#ED1B2A" stroke="#ED1B2A" stroke_width="0.5"  />
        <rect x="150.0" y="25.0" width="12.5" height="12.5"  fill="#F453B9" stroke="#F453B9" stroke_width="0.5"  />
        <rect x="162.5" y="25.0" width="12.5" height="12.5"  fill="#73C6EF" stroke="#73C6EF" stroke_width="0.5"  />
        <rect x="162.5" y="37.5" width="12.5" height="12.5"  fill="#FF7F7D" stroke="#FF7F7D" stroke_width="0.5"  />
        <rect x="150.0" y="37.5" width="12.5" height="12.5"  fill="#40931B" stroke="#40931B" stroke_width="0.5"  />
        <rect x="150.0" y="50.0" width="12.5" height="12.5"  fill="#835E7C" stroke="#835E7C" stroke_width="0.5"  />
        <rect x="162.5" y="50.0" width="12.5" height="12.5"  fill="#549FFB" stroke="#549FFB" stroke_width="0.5"  />
        <rect x="162.5" y="62.5" width="12.5" height="12.5"  fill="#2647D7" stroke="#2647D7" stroke_width="0.5"  />
        <rect x="150.0" y="62.5" width="12.5" height="12.5"  fill="#6075FC" stroke="#6075FC" stroke_width="0.5"  />
        <rect x="175.0" y="50.0" width="12.5" height="12.5"  fill="#3F0EA1" stroke="#3F0EA1" stroke_width="0.5"  />
        <rect x="187.5" y="50.0" width="12.5" height="12.5"  fill="#F36F97" stroke="#F36F97" stroke_width="0.5"  />
        <rect x="187.5" y="62.5" width="12.5" height="12.5"  fill="#B3C20A" stroke="#B3C20A" stroke_width="0.5"  />
        <rect x="175.0" y="62.5" width="12.5" height="12.5"  fill="#7FB7B6" stroke="#7FB7B6" stroke_width="0.5"  />
        <rect x="175.0" y="75.0" width="12.5" height="12.5"  fill="#125222" stroke="#125222" stroke_width="0.5"  />
        <rect x="187.5" y="75.0" width="12.5" height="12.5"  fill="#1700D8" stroke="#1700D8" stroke_width="0.5"  />
        <rect x="187.5" y="87.5" width="12.5" height="12.5"  fill="#5951FF" stroke="#5951FF" stroke_width="0.5"  />
        <rect x="175.0" y="87.5" width="12.5" height="12.5"  fill="#80805A" stroke="#80805A" stroke_width="0.5"  />
        <rect x="150.0" y="75.0" width="12.5" height="12.5"  fill="#66CA01" stroke="#66CA01" stroke_width="0.5"  />
        <rect x="162.5" y="75.0" width="12.5" height="12.5"  fill="#758778" stroke="#758778" stroke_width="0.5"  />
        <rect x="162.5" y="87.5" width="12.5" height="12.5"  fill="#2C16A5" stroke="#2C16A5" stroke_width="0.5"  />
        <rect x="150.0" y="87.5" width="12.5" height="12.5"  fill="#B2C329" stroke="#B2C329" stroke_width="0.5"  />
        <rect x="100.0" y="50.0" width="12.5" height="12.5"  fill="#4FF4F4" stroke="#4FF4F4" stroke_width="0.5"  />
        <rect x="112.5" y="50.0" width="12.5" height="12.5"  fill="#E86057" stroke="#E86057" stroke_width="0.5"  />
        <rect x="112.5" y="62.5" width="12.5" height="12.5"  fill="#DA87D4" stroke="#DA87D4" stroke_width="0.5"  />
        <rect x="100.0" y="62.5" width="12.5" height="12.5"  fill="#0AE1DA" stroke="#0AE1DA" stroke_width="0.5"  />
        <rect x="125.0" y="50.0" width="12.5" height="12.5"  fill="#9FBDD5" stroke="#9FBDD5" stroke_width="0.5"  />
        <rect x="137.5" y="50.0" width="12.5" height="12.5"  fill="#CDC824" stroke="#CDC824" stroke_width="0.5"  />
        <rect x="137.5" y="62.5" width="12.5" height="12.5"  fill="#79C07D" stroke="#79C07D" stroke_width="0.5"  />
        <rect x="125.0" y="62.5" width="12.5" height="12.5"  fill="#3F9868" stroke="#3F9868" stroke_width="0.5"  />
        <rect x="125.0" y="75.0" width="12.5" height="12.5"  fill="#5CEF36" stroke="#5CEF36" stroke_width="0.5"  />
        <rect x="137.5" y="75.0" width="12.5" height="12.5"  fill="#57F7AB" stroke="#57F7AB" stroke_width="0.5"  />
        <rect x="137.5" y="87.5" width="12.5" height="12.5"  fill="#09FEAA" stroke="#09FEAA" stroke_width="0.5"  />
        <rect x="125.0" y="87.5" width="12.5" height="12.5"  fill="#27E277" stroke="#27E277" stroke_width="0.5"  />
        <rect x="100.0" y="75.0" width="12.5" height="12.5"  fill="#06A0A8" stroke="#06A0A8" stroke_width="0.5"  />
        <rect x="112.5" y="75.0" width="12.5" height="12.5"  fill="#D7140C" stroke="#D7140C" stroke_width="0.5"  />
        <rect x="112.5" y="87.5" width="12.5" height="12.5"  fill="#0F5DAE" stroke="#0F5DAE" stroke_width="0.5"  />
        <rect x="100.0" y="87.5" width="12.5" height="12.5"  fill="#87505F" stroke="#87505F" stroke_width="0.5"  />
        <rect x="100.0" y="100.0" width="12.5" height="12.5"  fill="#982FD8" stroke="#982FD8" stroke_width="0.5"  />
        <rect x="112.5" y="100.0" width="12.5" height="12.5"  fill="#69113C" stroke="#69113C" stroke_width="0.5"  />
        <rect x="112.5" y="112.5" width="12.5" height="12.5"  fill="#19EC6E" stroke="#19EC6E" stroke_width="0.5"  />
        <rect x="100.0" y="112.5" width="12.5" height="12.5"  fill="#CB3E35" stroke="#CB3E35" stroke_width="0.5"  />
        <rect x="125.0" y="100.0" width="12.5" height="12.5"  fill="#FE960C" stroke="#FE960C" stroke_width="0.5"  />
        <rect x="137.5" y="100.0" width="12.5" height="12.5"  fill="#D45D27" stroke="#D45D27" stroke_width="0.5"  />
        <rect x="137.5" y="112.5" width="12.5" height="12.5"  fill="#9B4222" stroke="#9B4222" stroke_width="0.5"  />
        <rect x="125.0" y="112.5" width="12.5" height="12.5"  fill="#DE37FE" stroke="#DE37FE" stroke_width="0.5"  />
        <rect x="125.0" y="125.0" width="12.5" height="12.5"  fill="#35D33B" stroke="#35D33B" stroke_width="0.5"  />
        <rect x="137.5" y="125.0" width="12.5" height="12.5"  fill="#8A1779" stroke="#8A1779" stroke_width="0.5"  />
        <rect x="137.5" y="137.5" width="12.5" height="12.5"  fill="#F399F1" stroke="#F399F1" stroke_width="0.5"  />
        <rect x="125.0" y="137.5" width="12.5" height="12.5"  fill="#1C3BC6" stroke="#1C3BC6" stroke_width="0.5"  />
        <rect x="100.0" y="125.0" width="12.5" height="12.5"  fill="#4B82F4" stroke="#4B82F4" stroke_width="0.5"  />
        <rect x="112.5" y="125.0" width="12.5" height="12.5"  fill="#4CA35C" stroke="#4CA35C" stroke_width="0.5"  />
        <rect x="112.5" y="137.5" width="12.5" height="12.5"  fill="#275468" stroke="#275468" stroke_width="0.5"  />
        <rect x="100.0" y="137.5" width="12.5" height="12.5"  fill="#9511AF" stroke="#9511AF" stroke_width="0.5"  />
        <rect x="150.0" y="100.0" width="12.5" height="12.5"  fill="#47C48E" stroke="#47C48E" stroke_width="0.5"  />
        <rect x="162.5" y="100.0" width="12.5" height="12.5"  fill="#A8F023" stroke="#A8F023" stroke_width="0.5"  />
        <rect x="162.5" y="112.5" width="12.5" height="12.5"  fill="#6A110C" stroke="#6A110C" stroke_width="0.5"  />
        <rect x="150.0" y="112.5" width="12.5" height="12.5"  fill="#5FFBC4" stroke="#5FFBC4" stroke_width="0.5"  />
        <rect x="175.0" y="100.0" width="12.5" height="12.5"  fill="#42A441" stroke="#42A441" stroke_width="0.5"  />
        <rect x="187.5" y="100.0" width="12.5" height="12.5"  fill="#894225" stroke="#894225" stroke_width="0.5"  />
        <rect x="187.5" y="112.5" width="12.5" height="12.5"  fill="#4F2242" stroke="#4F2242" stroke_width="0.5"  />
        <rect x="175.0" y="112.5" width="12.5" height="12.5"  fill="#663DF9" stroke="#663DF9" stroke_width="0.5"  />
        <rect x="175.0" y="125.0" width="12.5" height="12.5"  fill="#091288" stroke="#091288" stroke_width="0.5"  />
        <rect x="187.5" y="125.0" width="12.5" height="12.5"  fill="#FBD4BB" stroke="#FBD4BB" stroke_width="0.5"  />
        <rect x="187.5" y="137.5" width="12.5" height="12.5"  fill="#AA9EC2" stroke="#AA9EC2" stroke_width="0.5"  />
        <rect x="175.0" y="137.5" width="12.5" height="12.5"  fill="#34B17B" stroke="#34B17B" stroke_width="0.5"  />
        <rect x="150.0" y="125.0" width="12.5" height="12.5"  fill="#5C5F3F" stroke="#5C5F3F" stroke_width="0.5"  />
        <rect x="162.5" y="125.0" width="12.5" height="12.5"  fill="#70EBE2" stroke="#70EBE2" stroke_width="0.5"  />
        <rect x="162.5" y="137.5" width="12.5" height="12.5"  fill="#9FDFF4" stroke="#9FDFF4" stroke_width="0.5"  />
        <rect x="150.0" y="137.5" width="12.5" height="12.5"  fill="#2E2D41" stroke="#2E2D41" stroke_width="0.5"  />
        <rect x="150.0" y="150.0" width="12.5" height="12.5"  fill="#0D17C4" stroke="#0D17C4" stroke_width="0.5"  />
        <rect x="162.5" y="150.0" width="12.5" height="12.5"  fill="#F95FB2" stroke="#F95FB2" stroke_width="0.5"  />
        <rect x="162.5" y="162.5" width="12.5" height="12.5"  fill="#A8191A" stroke="#A8191A" stroke_width="0.5"  />
        <rect x="150.0" y="162.5" width="12.5" height="12.5"  fill="#2966A8" stroke="#2966A8" stroke_width="0.5"  />
        <rect x="175.0" y="150.0" width="12.5" height="12.5"  fill="#18F0CC" stroke="#18F0CC" stroke_width="0.5"  />
        <rect x="187.5" y="150.0" width="12.5" height="12.5"  fill="#FA344E" stroke="#FA344E" stroke_width="0.5"  />
        <rect x="187.5" y="162.5" width="12.5" height="12.5"  fill="#8D4C41" stroke="#8D4C41" stroke_width="0.5"  />
        <rect x="175.0" y="162.5" width="12.5" height="12.5"  fill="#4D0032" stroke="#4D0032" stroke_width="0.5"  />
        <rect x="175.0" y="175.0" width="12.5" height="12.5"  fill="#64AD21" stroke="#64AD21" stroke_width="0.5"  />
        <rect x="187.5" y="175.0" width="12.5" height="12.5"  fill="#2E73CE" stroke="#2E73CE" stroke_width="0.5"  />
        <rect x="187.5" y="187.5" width="12.5" height="12.5"  fill="#D5CC37" stroke="#D5CC37" stroke_width="0.5"  />
        <rect x="175.0" y="187.5" width="12.5" height="12.5"  fill="#F83A4D" stroke="#F83A4D" stroke_width="0.5"  />
        <rect x="150.0" y="175.0" width="12.5" height="12.5"  fill="#205540" stroke="#205540" stroke_width="0.5"  />
        <rect x="162.5" y="175.0" width="12.5" height="12.5"  fill="#49C284" stroke="#49C284" stroke_width="0.5"  />
        <rect x="162.5" y="187.5" width="12.5" height="12.5"  fill="#3E5ADA" stroke="#3E5ADA" stroke_width="0.5"  />
        <rect x="150.0" y="187.5" width="12.5" height="12.5"  fill="#FA0E16" stroke="#FA0E16" stroke_width="0.5"  />
        <rect x="100.0" y="150.0" width="12.5" height="12.5"  fill="#8528BB" stroke="#8528BB" stroke_width="0.5"  />
        <rect x="112.5" y="150.0" width="12.5" height="12.5"  fill="#8791CC" stroke="#8791CC" stroke_width="0.5"  />
        <rect x="112.5" y="162.5" width="12.5" height="12.5"  fill="#D99383" stroke="#D99383" stroke_width="0.5"  />
        <rect x="100.0" y="162.5" width="12.5" height="12.5"  fill="#1B8494" stroke="#1B8494" stroke_width="0.5"  />
        <rect x="125.0" y="150.0" width="12.5" height="12.5"  fill="#8A0E0F" stroke="#8A0E0F" stroke_width="0.5"  />
        <rect x="137.5" y="150.0" width="12.5" height="12.5"  fill="#8A58C5" stroke="#8A58C5" stroke_width="0.5"  />
        <rect x="137.5" y="162.5" width="12.5" height="12.5"  fill="#BD9B60" stroke="#BD9B60" stroke_width="0.5"  />
        <rect x="125.0" y="162.5" width="12.5" height="12.5"  fill="#C1CABF" stroke="#C1CABF" stroke_width="0.5"  />
        <rect x="125.0" y="175.0" width="12.5" height="12.5"  fill="#39F9EF" stroke="#39F9EF" stroke_width="0.5"  />
        <rect x="137.5" y="175.0" width="12.5" height="12.5"  fill="#32E371" stroke="#32E371" stroke_width="0.5"  />
        <rect x="137.5" y="187.5" width="12.5" height="12.5"  fill="#144579" stroke="#144579" stroke_width="0.5"  />
        <rect x="125.0" y="187.5" width="12.5" height="12.5"  fill="#023272" stroke="#023272" stroke_width="0.5"  />
        <rect x="100.0" y="175.0" width="12.5" height="12.5"  fill="#B0C3B5" stroke="#B0C3B5" stroke_width="0.5"  />
        <rect x="112.5" y="175.0" width="12.5" height="12.5"  fill="#E9423D" stroke="#E9423D" stroke_width="0.5"  />
        <rect x="112.5" y="187.5" width="12.5" height="12.5"  fill="#C17CBA" stroke="#C17CBA" stroke_width="0.5"  />
        <rect x="100.0" y="187.5" width="12.5" height="12.5"  fill="#3F46F3" stroke="#3F46F3" stroke_width="0.5"  />
        <rect x="0.0" y="100.0" width="12.5" height="12.5"  fill="#9A3FEB" stroke="#9A3FEB" stroke_width="0.5"  />
        <rect x="12.5" y="100.0" width="12.5" height="12.5"  fill="#E594A7" stroke="#E594A7" stroke_width="0.5"  />
        <rect x="12.5" y="112.5" width="12.5" height="12.5"  fill="#554AF1" stroke="#554AF1" stroke_width="0.5"  />
        <rect x="0.0" y="112.5" width="12.5" height="12.5"  fill="#3D7956" stroke="#3D7956" stroke_width="0.5"  />
        <rect x="25.0" y="100.0" width="12.5" height="12.5"  fill="#A9970C" stroke="#A9970C" stroke_width="0.5"  />
        <rect x="37.5" y="100.0" width="12.5" height="12.5"  fill="#18DCAA" stroke="#18DCAA" stroke_width="0.5"  />
        <rect x="37.5" y="112.5" width="12.5" height="12.5"  fill="#D75254" stroke="#D75254" stroke_width="0.5"  />
        <rect x="25.0" y="112.5" width="12.5" height="12.5"  fill="#26D0B5" stroke="#26D0B5" stroke_width="0.5"  />
        <rect x="25.0" y="125.0" width="12.5" height="12.5"  fill="#D3F7A6" stroke="#D3F7A6" stroke_width="0.5"  />
        <rect x="37.5" y="125.0" width="12.5" height="12.5"  fill="#A632B2" stroke="#A632B2" stroke_width="0.5"  />
        <rect x="37.5" y="137.5" width="12.5" height="12.5"  fill="#FC2AED" stroke="#FC2AED" stroke_width="0.5"  />
        <rect x="25.0" y="137.5" width="12.5" height="12.5"  fill="#5CC567" stroke="#5CC567" stroke_width="0.5"  />
        <rect x="0.0" y="125.0" width="12.5" height="12.5"  fill="#7C85AF" stroke="#7C85AF" stroke_width="0.5"  />
        <rect x="12.5" y="125.0" width="12.5" height="12.5"  fill="#F9D852" stroke="#F9D852" stroke_width="0.5"  />
        <rect x="12.5" y="137.5" width="12.5" height="12.5"  fill="#B3DE21" stroke="#B3DE21" stroke_width="0.5"  />
        <rect x="0.0" y="137.5" width="12.5" height="12.5"  fill="#0B7AA8" stroke="#0B7AA8" stroke_width="0.5"  />
        <rect x="50.0" y="100.0" width="12.5" height="12.5"  fill="#24E9A5" stroke="#24E9A5" stroke_width="0.5"  />
        <rect x="62.5" y="100.0" width="12.5" height="12.5"  fill="#35A13B" stroke="#35A13B" stroke_width="0.5"  />
        <rect x="62.5" y="112.5" width="12.5" height="12.5"  fill="#C02BC0" stroke="#C02BC0" stroke_width="0.5"  />
        <rect x="50.0" y="112.5" width="12.5" height="12.5"  fill="#5D1ABB" stroke="#5D1ABB" stroke_width="0.5"  />
        <rect x="75.0" y="100.0" width="12.5" height="12.5"  fill="#654986" stroke="#654986" stroke_width="0.5"  />
        <rect x="87.5" y="100.0" width="12.5" height="12.5"  fill="#1C0D0F" stroke="#1C0D0F" stroke_width="0.5"  />
        <rect x="87.5" y="112.5" width="12.5" height="12.5"  fill="#F9616A" stroke="#F9616A" stroke_width="0.5"  />
        <rect x="75.0" y="112.5" width="12.5" height="12.5"  fill="#2B38AD" stroke="#2B38AD" stroke_width="0.5"  />
        <rect x="75.0" y="125.0" width="12.5" height="12.5"  fill="#795619" stroke="#795619" stroke_width="0.5"  />
        <rect x="87.5" y="125.0" width="12.5" height="12.5"  fill="#4CA1F1" stroke="#4CA1F1" stroke_width="0.5"  />
        <rect x="87.5" y="137.5" width="12.5" height="12.5"  fill="#E62AA9" stroke="#E62AA9" stroke_width="0.5"  />
        <rect x="75.0" y="137.5" width="12.5" height="12.5"  fill="#F5A613" stroke="#F5A613" stroke_width="0.5"  />
        <rect x="50.0" y="125.0" width="12.5" height="12.5"  fill="#0EA07E" stroke="#0EA07E" stroke_width="0.5"  />
        <rect x="62.5" y="125.0" width="12.5" height="12.5"  fill="#651205" stroke="#651205" stroke_width="0.5"  />
        <rect x="62.5" y="137.5" width="12.5" height="12.5"  fill="#F480B3" stroke="#F480B3" stroke_width="0.5"  />
        <rect x="50.0" y="137.5" width="12.5" height="12.5"  fill="#E99AF3" stroke="#E99AF3" stroke_width="0.5"  />
        <rect x="50.0" y="150.0" width="12.5" height="12.5"  fill="#4F2BAD" stroke="#4F2BAD" stroke_width="0.5"  />
        <rect x="62.5" y="150.0" width="12.5" height="12.5"  fill="#B09F56" stroke="#B09F56" stroke_width="0.5"  />
        <rect x="62.5" y="162.5" width="12.5" height="12.5"  fill="#C36BB9" stroke="#C36BB9" stroke_width="0.5"  />
        <rect x="50.0" y="162.5" width="12.5" height="12.5"  fill="#15AB09" stroke="#15AB09" stroke_width="0.5"  />
        <rect x="75.0" y="150.0" width="12.5" height="12.5"  fill="#186C73" stroke="#186C73" stroke_width="0.5"  />
        <rect x="87.5" y="150.0" width="12.5" height="12.5"  fill="#C21FF6" stroke="#C21FF6" stroke_width="0.5"  />
        <rect x="87.5" y="162.5" width="12.5" height="12.5"  fill="#2CF489" stroke="#2CF489" stroke_width="0.5"  />
        <rect x="75.0" y="162.5" width="12.5" height="12.5"  fill="#2C955E" stroke="#2C955E" stroke_width="0.5"  />
        <rect x="75.0" y="175.0" width="12.5" height="12.5"  fill="#0791C2" stroke="#0791C2" stroke_width="0.5"  />
        <rect x="87.5" y="175.0" width="12.5" height="12.5"  fill="#B2DABC" stroke="#B2DABC" stroke_width="0.5"  />
        <rect x="87.5" y="187.5" width="12.5" height="12.5"  fill="#5762D8" stroke="#5762D8" stroke_width="0.5"  />
        <rect x="75.0" y="187.5" width="12.5" height="12.5"  fill="#3A0552" stroke="#3A0552" stroke_width="0.5"  />
        <rect x="50.0" y="175.0" width="12.5" height="12.5"  fill="#295CC0" stroke="#295CC0" stroke_width="0.5"  />
        <rect x="62.5" y="175.0" width="12.5" height="12.5"  fill="#938EE7" stroke="#938EE7" stroke_width="0.5"  />
        <rect x="62.5" y="187.5" width="12.5" height="12.5"  fill="#35F5E8" stroke="#35F5E8" stroke_width="0.5"  />
        <rect x="50.0" y="187.5" width="12.5" height="12.5"  fill="#91E066" stroke="#91E066" stroke_width="0.5"  />
        <rect x="0.0" y="150.0" width="12.5" height="12.5"  fill="#11C4D6" stroke="#11C4D6" stroke_width="0.5"  />
        <rect x="12.5" y="150.0" width="12.5" height="12.5"  fill="#B6237B" stroke="#B6237B" stroke_width="0.5"  />
        <rect x="12.5" y="162.5" width="12.5" height="12.5"  fill="#613D8D" stroke="#613D8D" stroke_width="0.5"  />
        <rect x="0.0" y="162.5" width="12.5" height="12.5"  fill="#D1E679" stroke="#D1E679" stroke_width="0.5"  />
        <rect x="25.0" y="150.0" width="12.5" height="12.5"  fill="#0AE94A" stroke="#0AE94A" stroke_width="0.5"  />
        <rect x="37.5" y="150.0" width="12.5" height="12.5"  fill="#0AEDB7" stroke="#0AEDB7" stroke_width="0.5"  />
        <rect x="37.5" y="162.5" width="12.5" height="12.5"  fill="#F5033A" stroke="#F5033A" stroke_width="0.5"  />
        <rect x="25.0" y="162.5" width="12.5" height="12.5"  fill="#779E8A" stroke="#779E8A" stroke_width="0.5"  />
        <rect x="25.0" y="175.0" width="12.5" height="12.5"  fill="#34E974" stroke="#34E974" stroke_width="0.5"  />
        <rect x="37.5" y="175.0" width="12.5" height="12.5"  fill="#9C12A9" stroke="#9C12A9" stroke_width="0.5"  />
        <rect x="37.5" y="187.5" width="12.5" height="12.5"  fill="#B7B065" stroke="#B7B065" stroke_width="0.5"  />
        <rect x="25.0" y="187.5" width="12.5" height="12.5"  fill="#231499" stroke="#231499" stroke_width="0.5"  />
        <rect x="0.0" y="175.0" width="12.5" height="12.5"  fill="#50E707" stroke="#50E707" stroke_width="0.5"  />
        <rect x="12.5" y="175.0" width="12.5" height="12.5"  fill="#ED0E61" stroke="#ED0E61" stroke_width="0.5"  />
        <rect x="12.5" y="187.5" width="12.5" height="12.5"  fill="#8459AA" stroke="#8459AA" stroke_width="0.5"  />
        <rect x="0.0" y="187.5" width="12.5" height="12.5"  fill="#2DB87B" stroke="#2DB87B" stroke_width="0.5"  />
    </g> 
</svg>