<?xml version="1.0" encoding="UTF-8" standalone="no"?>
<svg width="200" height="200" version="1.1" xmlns="http://www.w3.org/2000/svg">
    <g opacity="1.0">
        <circle cx="12.5" cy="12.5" r="3.125" fill="black" />
        <circle cx="37.5" cy="12.5" r="6.25" fill="black" />
        <circle cx="37.5" cy="37.5" r="6.25" fill="black" />
        <circle cx="12.5" cy="37.5" r="6.25" fill="black" />
        <circle cx="62.5" cy="12.5" r="9.375" fill="black" />
        <circle cx="87.5" cy="12.5" r="9.375" fill="black" />
        <circle cx="87.5" cy="37.5" r="9.375" fill="black" />
        <circle cx="62.5" cy="37.5" r="3.125" fill="black" />
        <circle cx="62.5" cy="62.5" r="9.375" fill="black" />
        <circle cx="87.5" cy="62.5" r="3.125" fill="black" />
        <circle cx="87.5" cy="87.5" r="9.375" fill="black" />
        <circle cx="62.5" cy="87.5" r="6.25" fill="black" />
        <circle cx="12.5" cy="62.5" r="6.25" fill="black" />
        <circle cx="37.5" cy="62.5" r="6.25" fill="black" />
        <circle cx="37.5" cy="87.5" r="3.125" fill="black" />
        <circle cx="12.5" cy="87.5" r="9.375" fill="black" />
        <circle cx="112.5" cy="12.5" r="9.375" fill="black" />
        <circle cx="137.5" cy="12.5" r="9.375" fill="black" />
        <circle cx="137.5" cy="37.5" r="6.25" fill="black" />
        <circle cx="112.5" cy="37.5" r="6.25" fill="black" />
        <circle cx="162.5" cy="12.5" r="6.25" fill="black" />
        <circle cx="187.5" cy="12.5" r="9.375" fill="black" />
        <circle cx="187.5" cy="37.5" r="9.375" fill="black" />
        <circle cx="162.5" cy="37.5" r="3.125" fill="black" />
        <circle cx="162.5" cy="62.5" r="9.375" fill="black" />
        <circle cx="187.5" cy="62.5" r="3.125" fill="black" />
        <circle cx="187.5" cy="87.5" r="6.25" fill="black" />
        <circle cx="162.5" cy="87.5" r="9.375" fill="black" />
        <circle cx="112.5" cy="62.5" r="9.375" fill="black" />
        <circle cx="137.5" cy="62.5" r="3.125" fill="black" />
        <circle cx="137.5" cy="87.5" r="9.375" fill="black" />
        <circle cx="112.5" cy="87.5" r="6.25" fill="black" />
        <circle cx="112.5" cy="112.5" r="3.125" fill="black" />
        <circle cx="137.5" cy="112.5" r="3.125" fill="black" />
        <circle cx="137.5" cy="137.5" r="3.125" fill="black" />
        <circle cx="112.5" cy="137.5" r="9.375" fill="black" />
        <circle cx="162.5" cy="112.5" r="6.25" fill="black" />
        <circle cx="187.5" cy="112.5" r="3.125" fill="black" />
        <circle cx="187.5" cy="137.5" r="3.125" fill="black" />
        <circle cx="162.5" cy="137.5" r="6.25" fill="black" />
        <circle cx="162.5" cy="162.5" r="6.25" fill="black" />
        <circle cx="187.5" cy="162.5" r="9.375" fill="black" />
        <circle cx="187.5" cy="187.5" r="9.375" fill="black" />
        <circle cx="162.5" cy="187.5" r="9.375" fill="black" />
        <circle cx="112.5" cy="162.5" r="3.125" fill="black" />
        <circle cx="137.5" cy="162.5" r="9.375" fill="black" />
        <circle cx="137.5" cy="187.5" r="3.125" fill="black" />
        <circle cx="112.5" cy="187.5" r="6.25" fill="black" />
        <circle cx="12.5" cy="112.5" r="9.375" fill="black" />
        <circle cx="37.5" cy="112.5" r="9.375" fill="black" />
        <circle cx="37.5" cy="137.5" r="9.375" fill="black" />
        <circle cx="12.5" cy="137.5" r="3.125" fill="black" />
        <circle cx="62.5" cy="112.5" r="6.25" fill="black" />
        <circle cx="87.5" cy="112.5" r="3.125" fill="black" />
        <circle cx="87.5" cy="137.5" r="6.25" fill="black" />
        <circle cx="62.5" cy="137.5" r="3.125" fill="black" />
        <circle cx="62.5" cy="162.5" r="6.25" fill="black" />
        <circle cx="87.5" cy="162.5" r="6.25" fill="black" />
        <circle cx="87.5" cy="187.5" r="6.25" fill="black" />
        <circle cx="62.5" cy="187.5" r="3.125" fill="black" />
        <circle cx="12.5" cy="162.5" r="3.125" fill="black" />
        <circle cx="37.5" cy="162.5" r="3.125" fill="black" />
        <circle cx="37.5" cy="187.5" r="6.25" fill="black" />
        <circle cx="12.5" cy="187.5" r="6.25" fill="black" />
    </g> 
</svg>