<?xml version="1.0" encoding="UTF-8" standalone="no"?>
<svg width="200" height="200" version="1.1" xmlns="http://www.w3.org/2000/svg">
    <g opacity="1.0">
        <circle cx="6.25" cy="6.25" r="1.5625" fill="black" />
        <circle cx="18.75" cy="6.25" r="4.6875" fill="black" />
        <circle cx="18.75" cy="18.75" r="3.125" fill="black" />
        <circle cx="6.25" cy="18.75" r="1.5625" fill="black" />
        <circle cx="31.25" cy="6.25" r="1.5625" fill="black" />
        <circle cx="43.75" cy="6.25" r="1.5625" fill="black" />
        <circle cx="43.75" cy="18.75" r="1.5625" fill="black" />
        <circle cx="31.25" cy="18.75" r="4.6875" fill="black" />
        <circle cx="31.25" cy="31.25" r="1.5625" fill="black" />
        <circle cx="43.75" cy="31.25" r="3.125" fill="black" />
        <circle cx="43.75" cy="43.75" r="4.6875" fill="black" />
        <circle cx="31.25" cy="43.75" r="1.5625" fill="black" />
        <circle cx="6.25" cy="31.25" r="1.5625" fill="black" />
        <circle cx="18.75" cy="31.25" r="3.125" fill="black" />
        <circle cx="18.75" cy="43.75" r="4.6875" fill="black" />
        <circle cx="6.25" cy="43.75" r="3.125" fill="black" />
        <circle cx="56.25" cy="6.25" r="3.125" fill="black" />
        <circle cx="68.75" cy="6.25" r="1.5625" fill="black" />
        <circle cx="68.75" cy="18.75" r="3.125" fill="black" />
        <circle cx="56.25" cy="18.75" r="4.6875" fill="black" />
        <circle cx="81.25" cy="6.25" r="3.125" fill="black" />
        <circle cx="93.75" cy="6.25" r="3.125" fill="black" />
        <circle cx="93.75" cy="18.75" r="4.6875" fill="black" />
        <circle cx="81.25" cy="18.75" r="1.5625" fill="black" />
        <circle cx="81.25" cy="31.25" r="3.125" fill="black" />
        <circle cx="93.75" cy="31.25" r="1.5625" fill="black" />
        <circle cx="93.75" cy="43.75" r="4.6875" fill="black" />
        <circle cx="81.25" cy="43.75" r="4.6875" fill="black" />
        <circle cx="56.25" cy="31.25" r="4.6875" fill="black" />
        <circle cx="68.75" cy="31.25" r="1.5625" fill="black" />
        <circle cx="68.75" cy="43.75" r="3.125" fill="black" />
        <circle cx="56.25" cy="43.75" r="4.6875" fill="black" />
        <circle cx="56.25" cy="56.25" r="4.6875" fill="black" />
        <circle cx="68.75" cy="56.25" r="1.5625" fill="black" />
        <circle cx="68.75" cy="68.75" r="3.125" fill="black" />
        <circle cx="56.25" cy="68.75" r="4.6875" fill="black" />
        <circle cx="81.25" cy="56.25" r="3.125" fill="black" />
        <circle cx="93.75" cy="56.25" r="3.125" fill="black" />
        <circle cx="93.75" cy="68.75" r="1.5625" fill="black" />
        <circle cx="81.25" cy="68.75" r="3.125" fill="black" />
        <circle cx="81.25" cy="81.25" r="1.5625" fill="black" />
        <circle cx="93.75" cy="81.25" r="4.6875" fill="black" />
        <circle cx="93.75" cy="93.75" r="1.5625" fill="black" />
        <circle cx="81.25" cy="93.75" r="3.125" fill="black" />
        <circle cx="56.25" cy="81.25" r="4.6875" fill="black" />
        <circle cx="68.75" cy="81.25" r="4.6875" fill="black" />
        <circle cx="68.75" cy="93.75" r="4.6875" fill="black" />
        <circle cx="56.25" cy="93.75" r="3.125" fill="black" />
        <circle cx="6.25" cy="56.25" r="1.5625" fill="black" />
        <circle cx="18.75" cy="56.25" r="1.5625" fill="black" />
        <circle cx="18.75" cy="68.75" r="4.6875" fill="black" />
        <circle cx="6.25" cy="68.75" r="3.125" fill="black" />
        <circle cx="31.25" cy="56.25" r="1.5625" fill="black" />
        <circle cx="43.75" cy="56.25" r="1.5625" fill="black" />
        <circle cx="43.75" cy="68.75" r="4.6875" fill="black" />
        <circle cx="31.25" cy="68.75" r="1.5625" fill="black" />
        <circle cx="31.25" cy="81.25" r="1.5625" fill="black" />
        <circle cx="43.75" cy="81.25" r="3.125" fill="black" />
        <circle cx="43.75" cy="93.75" r="1.5625" fill="black" />
        <circle cx="31.25" cy="93.75" r="3.125" fill="black" />
        <circle cx="6.25" cy="81.25" r="4.6875" fill="black" />
        <circle cx="18.75" cy="81.25" r="1.5625" fill="black" />
        <circle cx="18.75" cy="93.75" r="4.6875" fill="black" />
        <circle cx="6.25" cy="93.75" r="1.5625" fill="black" />
        <circle cx="106.25" cy="6.25" r="3.125" fill="black" />
        <circle cx="118.75" cy="6.25" r="3.125" fill="black" />
        <circle cx="118.75" cy="18.75" r="4.6875" fill="black" />
        <circle cx="106.25" cy="18.75" r="1.5625" fill="black" />
        <circle cx="131.25" cy="6.25" r="4.6875" fill="black" />
        <circle cx="143.75" cy="6.25" r="3.125" fill="black" />
        <circle cx="143.75" cy="18.75" r="1.5625" fill="black" />
        <circle cx="131.25" cy="18.75" r="3.125" fill="black" />
        <circle cx="131.25" cy="31.25" r="4.6875" fill="black" />
        <circle cx="143.75" cy="31.25" r="1.5625" fill="black" />
        <circle cx="143.75" cy="43.75" r="3.125" fill="black" />
        <circle cx="131.25" cy="43.75" r="4.6875" fill="black" />
        <circle cx="106.25" cy="31.25" r="1.5625" fill="black" />
        <circle cx="118.75" cy="31.25" r="1.5625" fill="black" />
        <circle cx="118.75" cy="43.75" r="1.5625" fill="black" />
        <circle cx="106.25" cy="43.75" r="1.5625" fill="black" />
        <circle cx="156.25" cy="6.25" r="3.125" fill="black" />
        <circle cx="168.75" cy="6.25" r="1.5625" fill="black" />
        <circle cx="168.75" cy="18.75" r="1.5625" fill="black" />
        <circle cx="156.25" cy="18.75" r="4.6875" fill="black" />
        <circle cx="181.25" cy="6.25" r="1.5625" fill="black" />
        <circle cx="193.75" cy="6.25" r="1.5625" fill="black" />
        <circle cx="193.75" cy="18.75" r="4.6875" fill="black" />
        <circle cx="181.25" cy="18.75" r="4.6875" fill="black" />
        <circle cx="181.25" cy="31.25" r="3.125" fill="black" />
        <circle cx="193.75" cy="31.25" r="1.5625" fill="black" />
        <circle cx="193.75" cy="43.75" r="1.5625" fill="black" />
        <circle cx="181.25" cy="43.75" r="3.125" fill="black" />
        <circle cx="156.25" cy="31.25" r="1.5625" fill="black" />
        <circle cx="168.75" cy="31.25" r="3.125" fill="black" />
        <circle cx="168.75" cy="43.75" r="3.125" fill="black" />
        <circle cx="156.25" cy="43.75" r="3.125" fill="black" />
        <circle cx="156.25" cy="56.25" r="3.125" fill="black" />
        <circle cx="168.75" cy="56.25" r="3.125" fill="black" />
        <circle cx="168.75" cy="68.75" r="4.6875" fill="black" />
        <circle cx="156.25" cy="68.75" r="4.6875" fill="black" />
        <circle cx="181.25" cy="56.25" r="1.5625" fill="black" />
        <circle cx="193.75" cy="56.25" r="3.125" fill="black" />
        <circle cx="193.75" cy="68.75" r="4.6875" fill="black" />
        <circle cx="181.25" cy="68.75" r="4.6875" fill="black" />
        <circle cx="181.25" cy="81.25" r="1.5625" fill="black" />
        <circle cx="193.75" cy="81.25" r="3.125" fill="black" />
        <circle cx="193.75" cy="93.75" r="4.6875" fill="black" />
        <circle cx="181.25" cy="93.75" r="4.6875" fill="black" />
        <circle cx="156.25" cy="81.25" r="1.5625" fill="black" />
        <circle cx="168.75" cy="81.25" r="1.5625" fill="black" />
        <circle cx="168.75" cy="93.75" r="4.6875" fill="black" />
        <circle cx="156.25" cy="93.75" r="1.5625" fill="black" />
        <circle cx="106.25" cy="56.25" r="4.6875" fill="black" />
        <circle cx="118.75" cy="56.25" r="4.6875" fill="black" />
        <circle cx="118.75" cy="68.75" r="3.125" fill="black" />
        <circle cx="106.25" cy="68.75" r="3.125" fill="black" />
        <circle cx="131.25" cy="56.25" r="3.125" fill="black" />
        <circle cx="143.75" cy="56.25" r="3.125" fill="black" />
        <circle cx="143.75" cy="68.75" r="1.5625" fill="black" />
        <circle cx="131.25" cy="68.75" r="4.6875" fill="black" />
        <circle cx="131.25" cy="81.25" r="4.6875" fill="black" />
        <circle cx="143.75" cy="81.25" r="4.6875" fill="black" />
        <circle cx="143.75" cy="93.75" r="4.6875" fill="black" />
        <circle cx="131.25" cy="93.75" r="3.125" fill="black" />
        <circle cx="106.25" cy="81.25" r="4.6875" fill="black" />
        <circle cx="118.75" cy="81.25" r="4.6875" fill="black" />
        <circle cx="118.75" cy="93.75" r="3.125" fill="black" />
        <circle cx="106.25" cy="93.75" r="3.125" fill="black" />
        <circle cx="106.25" cy="106.25" r="3.125" fill="black" />
        <circle cx="118.75" cy="106.25" r="4.6875" fill="black" />
        <circle cx="118.75" cy="118.75" r="3.125" fill="black" />
        <circle cx="106.25" cy="118.75" r="1.5625" fill="black" />
        <circle cx="131.25" cy="106.25" r="3.125" fill="black" />
        <circle cx="143.75" cy="106.25" r="1.5625" fill="black" />
        <circle cx="143.75" cy="118.75" r="3.125" fill="black" />
        <circle cx="131.25" cy="118.75" r="1.5625" fill="black" />
        <circle cx="131.25" cy="131.25" r="1.5625" fill="black" />
        <circle cx="143.75" cy="131.25" r="1.5625" fill="black" />
        <circle cx="143.75" cy="143.75" r="3.125" fill="black" />
        <circle cx="131.25" cy="143.75" r="4.6875" fill="black" />
        <circle cx="106.25" cy="131.25" r="3.125" fill="black" />
        <circle cx="118.75" cy="131.25" r="1.5625" fill="black" />
        <circle cx="118.75" cy="143.75" r="4.6875" fill="black" />
        <circle cx="106.25" cy="143.75" r="1.5625" fill="black" />
        <circle cx="156.25" cy="106.25" r="1.5625" fill="black" />
        <circle cx="168.75" cy="106.25" r="1.5625" fill="black" />
        <circle cx="168.75" cy="118.75" r="3.125" fill="black" />
        <circle cx="156.25" cy="118.75" r="3.125" fill="black" />
        <circle cx="181.25" cy="106.25" r="3.125" fill="black" />
        <circle cx="193.75" cy="106.25" r="4.6875" fill="black" />
        <circle cx="193.75" cy="118.75" r="3.125" fill="black" />
        <circle cx="181.25" cy="118.75" r="1.5625" fill="black" />
        <circle cx="181.25" cy="131.25" r="1.5625" fill="black" />
        <circle cx="193.75" cy="131.25" r="4.6875" fill="black" />
        <circle cx="193.75" cy="143.75" r="1.5625" fill="black" />
        <circle cx="181.25" cy="143.75" r="3.125" fill="black" />
        <circle cx="156.25" cy="131.25" r="3.125" fill="black" />
        <circle cx="168.75" cy="131.25" r="4.6875" fill="black" />
        <circle cx="168.75" cy="143.75" r="1.5625" fill="black" />
        <circle cx="156.25" cy="143.75" r="1.5625" fill="black" />
        <circle cx="156.25" cy="156.25" r="1.5625" fill="black" />
        <circle cx="168.75" cy="156.25" r="1.5625" fill="black" />
        <circle cx="168.75" cy="168.75" r="3.125" fill="black" />
        <circle cx="156.25" cy="168.75" r="3.125" fill="black" />
        <circle cx="181.25" cy="156.25" r="3.125" fill="black" />
        <circle cx="193.75" cy="156.25" r="4.6875" fill="black" />
        <circle cx="193.75" cy="168.75" r="1.5625" fill="black" />
        <circle cx="181.25" cy="168.75" r="3.125" fill="black" />
        <circle cx="181.25" cy="181.25" r="4.6875" fill="black" />
        <circle cx="193.75" cy="181.25" r="4.6875" fill="black" />
        <circle cx="193.75" cy="193.75" r="3.125" fill="black" />
        <circle cx="181.25" cy="193.75" r="3.125" fill="black" />
        <circle cx="156.25" cy="181.25" r="4.6875" fill="black" />
        <circle cx="168.75" cy="181.25" r="4.6875" fill="black" />
        <circle cx="168.75" cy="193.75" r="1.5625" fill="black" />
        <circle cx="156.25" cy="193.75" r="1.5625" fill="black" />
        <circle cx="106.25" cy="156.25" r="1.5625" fill="black" />
        <circle cx="118.75" cy="156.25" r="1.5625" fill="black" />
        <circle cx="118.75" cy="168.75" r="3.125" fill="black" />
        <circle cx="106.25" cy="168.75" r="1.5625" fill="black" />
        <circle cx="131.25" cy="156.25" r="1.5625" fill="black" />
        <circle cx="143.75" cy="156.25" r="3.125" fill="black" />
        <circle cx="143.75" cy="168.75" r="1.5625" fill="black" />
        <circle cx="131.25" cy="168.75" r="4.6875" fill="black" />
        <circle cx="131.25" cy="181.25" r="3.125" fill="black" />
        <circle cx="143.75" cy="181.25" r="3.125" fill="black" />
        <circle cx="143.75" cy="193.75" r="4.6875" fill="black" />
        <circle cx="131.25" cy="193.75" r="4.6875" fill="black" />
        <circle cx="106.25" cy="181.25" r="1.5625" fill="black" />
        <circle cx="118.75" cy="181.25" r="3.125" fill="black" />
        <circle cx="118.75" cy="193.75" r="4.6875" fill="black" />
        <circle cx="106.25" cy="193.75" r="4.6875" fill="black" />
        <circle cx="6.25" cy="106.25" r="4.6875" fill="black" />
        <circle cx="18.75" cy="106.25" r="1.5625" fill="black" />
        <circle cx="18.75" cy="118.75" r="1.5625" fill="black" />
        <circle cx="6.25" cy="118.75" r="3.125" fill="black" />
        <circle cx="31.25" cy="106.25" r="3.125" fill="black" />
        <circle cx="43.75" cy="106.25" r="1.5625" fill="black" />
        <circle cx="43.75" cy="118.75" r="1.5625" fill="black" />
        <circle cx="31.25" cy="118.75" r="3.125" fill="black" />
        <circle cx="31.25" cy="131.25" r="4.6875" fill="black" />
        <circle cx="43.75" cy="131.25" r="1.5625" fill="black" />
        <circle cx="43.75" cy="143.75" r="1.5625" fill="black" />
        <circle cx="31.25" cy="143.75" r="3.125" fill="black" />
        <circle cx="6.25" cy="131.25" r="1.5625" fill="black" />
        <circle cx="18.75" cy="131.25" r="4.6875" fill="black" />
        <circle cx="18.75" cy="143.75" r="4.6875" fill="black" />
        <circle cx="6.25" cy="143.75" r="1.5625" fill="black" />
        <circle cx="56.25" cy="106.25" r="3.125" fill="black" />
        <circle cx="68.75" cy="106.25" r="3.125" fill="black" />
        <circle cx="68.75" cy="118.75" r="3.125" fill="black" />
        <circle cx="56.25" cy="118.75" r="3.125" fill="black" />
        <circle cx="81.25" cy="106.25" r="4.6875" fill="black" />
        <circle cx="93.75" cy="106.25" r="3.125" fill="black" />
        <circle cx="93.75" cy="118.75" r="4.6875" fill="black" />
        <circle cx="81.25" cy="118.75" r="3.125" fill="black" />
        <circle cx="81.25" cy="131.25" r="3.125" fill="black" />
        <circle cx="93.75" cy="131.25" r="3.125" fill="black" />
        <circle cx="93.75" cy="143.75" r="4.6875" fill="black" />
        <circle cx="81.25" cy="143.75" r="1.5625" fill="black" />
        <circle cx="56.25" cy="131.25" r="1.5625" fill="black" />
        <circle cx="68.75" cy="131.25" r="3.125" fill="black" />
        <circle cx="68.75" cy="143.75" r="4.6875" fill="black" />
        <circle cx="56.25" cy="143.75" r="1.5625" fill="black" />
        <circle cx="56.25" cy="156.25" r="1.5625" fill="black" />
        <circle cx="68.75" cy="156.25" r="1.5625" fill="black" />
        <circle cx="68.75" cy="168.75" r="4.6875" fill="black" />
        <circle cx="56.25" cy="168.75" r="4.6875" fill="black" />
        <circle cx="81.25" cy="156.25" r="1.5625" fill="black" />
        <circle cx="93.75" cy="156.25" r="3.125" fill="black" />
        <circle cx="93.75" cy="168.75" r="4.6875" fill="black" />
        <circle cx="81.25" cy="168.75" r="3.125" fill="black" />
        <circle cx="81.25" cy="181.25" r="3.125" fill="black" />
        <circle cx="93.75" cy="181.25" r="4.6875" fill="black" />
        <circle cx="93.75" cy="193.75" r="4.6875" fill="black" />
        <circle cx="81.25" cy="193.75" r="3.125" fill="black" />
        <circle cx="56.25" cy="181.25" r="4.6875" fill="black" />
        <circle cx="68.75" cy="181.25" r="3.125" fill="black" />
        <circle cx="68.75" cy="193.75" r="3.125" fill="black" />
        <circle cx="56.25" cy="193.75" r="4.6875" fill="black" />
        <circle cx="6.25" cy="156.25" r="4.6875" fill="black" />
        <circle cx="18.75" cy="156.25" r="3.125" fill="black" />
        <circle cx="18.75" cy="168.75" r="4.6875" fill="black" />
        <circle cx="6.25" cy="168.75" r="1.5625" fill="black" />
        <circle cx="31.25" cy="156.25" r="3.125" fill="black" />
        <circle cx="43.75" cy="156.25" r="1.5625" fill="black" />
        <circle cx="43.75" cy="168.75" r="1.5625" fill="black" />
        <circle cx="31.25" cy="168.75" r="1.5625" fill="black" />
        <circle cx="31.25" cy="181.25" r="3.125" fill="black" />
        <circle cx="43.75" cy="181.25" r="4.6875" fill="black" />
        <circle cx="43.75" cy="193.75" r="4.6875" fill="black" />
        <circle cx="31.25" cy="193.75" r="3.125" fill="black" />
        <circle cx="6.25" cy="181.25" r="1.5625" fill="black" />
        <circle cx="18.75" cy="181.25" r="1.5625" fill="black" />
        <circle cx="18.75" cy="193.75" r="3.125" fill="black" />
        <circle cx="6.25" cy="193.75" r="4.6875" fill="black" />
    </g> 
</svg>