<?xml version='1.0' encoding='UTF-8' standalone='no'?>
<svg xmlns="http://www.w3.org/2000/svg" xmlns:xlink="http://www.w3.org/1999/xlink" version="1.1" width="200" height="200" viewBox="0 0 200 200" style="border:1px solid black">
  <title>Cardioid Curve, parameters: divisions=100, multiplier=0.2</title>
  <circle cx="100" cy="100" r="90" stroke-width="1" stroke="black" fill="transparent"/>
  <style> .points{fill: red; r: 0.5; } line{stroke: green; stroke-width: 0.5; stroke-dasharray: None; }</style>
  <circle class="points" cx="190.0" cy="100.0"/>
  <circle class="points" cx="189.8" cy="105.7"/>
  <circle class="points" cx="189.3" cy="111.3"/>
  <circle class="points" cx="188.4" cy="116.9"/>
  <circle class="points" cx="187.2" cy="122.4"/>
  <circle class="points" cx="185.6" cy="127.8"/>
  <circle class="points" cx="183.7" cy="133.1"/>
  <circle class="points" cx="181.4" cy="138.3"/>
  <circle class="points" cx="178.9" cy="143.4"/>
  <circle class="points" cx="176.0" cy="148.2"/>
  <circle class="points" cx="172.8" cy="152.9"/>
  <circle class="points" cx="169.3" cy="157.4"/>
  <circle class="points" cx="165.6" cy="161.6"/>
  <circle class="points" cx="161.6" cy="165.6"/>
  <circle class="points" cx="157.4" cy="169.3"/>
  <circle class="points" cx="152.9" cy="172.8"/>
  <circle class="points" cx="148.2" cy="176.0"/>
  <circle class="points" cx="143.4" cy="178.9"/>
  <circle class="points" cx="138.3" cy="181.4"/>
  <circle class="points" cx="133.1" cy="183.7"/>
  <circle class="points" cx="127.8" cy="185.6"/>
  <circle class="points" cx="122.4" cy="187.2"/>
  <circle class="points" cx="116.9" cy="188.4"/>
  <circle class="points" cx="111.3" cy="189.3"/>
  <circle class="points" cx="105.7" cy="189.8"/>
  <circle class="points" cx="100.0" cy="190.0"/>
  <circle class="points" cx="94.3" cy="189.8"/>
  <circle class="points" cx="88.7" cy="189.3"/>
  <circle class="points" cx="83.1" cy="188.4"/>
  <circle class="points" cx="77.6" cy="187.2"/>
  <circle class="points" cx="72.2" cy="185.6"/>
  <circle class="points" cx="66.9" cy="183.7"/>
  <circle class="points" cx="61.7" cy="181.4"/>
  <circle class="points" cx="56.6" cy="178.9"/>
  <circle class="points" cx="51.8" cy="176.0"/>
  <circle class="points" cx="47.1" cy="172.8"/>
  <circle class="points" cx="42.6" cy="169.3"/>
  <circle class="points" cx="38.4" cy="165.6"/>
  <circle class="points" cx="34.4" cy="161.6"/>
  <circle class="points" cx="30.7" cy="157.4"/>
  <circle class="points" cx="27.2" cy="152.9"/>
  <circle class="points" cx="24.0" cy="148.2"/>
  <circle class="points" cx="21.1" cy="143.4"/>
  <circle class="points" cx="18.6" cy="138.3"/>
  <circle class="points" cx="16.3" cy="133.1"/>
  <circle class="points" cx="14.4" cy="127.8"/>
  <circle class="points" cx="12.8" cy="122.4"/>
  <circle class="points" cx="11.6" cy="116.9"/>
  <circle class="points" cx="10.7" cy="111.3"/>
  <circle class="points" cx="10.2" cy="105.7"/>
  <circle class="points" cx="10.0" cy="100.0"/>
  <circle class="points" cx="10.2" cy="94.3"/>
  <circle class="points" cx="10.7" cy="88.7"/>
  <circle class="points" cx="11.6" cy="83.1"/>
  <circle class="points" cx="12.8" cy="77.6"/>
  <circle class="points" cx="14.4" cy="72.2"/>
  <circle class="points" cx="16.3" cy="66.9"/>
  <circle class="points" cx="18.6" cy="61.7"/>
  <circle class="points" cx="21.1" cy="56.6"/>
  <circle class="points" cx="24.0" cy="51.8"/>
  <circle class="points" cx="27.2" cy="47.1"/>
  <circle class="points" cx="30.7" cy="42.6"/>
  <circle class="points" cx="34.4" cy="38.4"/>
  <circle class="points" cx="38.4" cy="34.4"/>
  <circle class="points" cx="42.6" cy="30.7"/>
  <circle class="points" cx="47.1" cy="27.2"/>
  <circle class="points" cx="51.8" cy="24.0"/>
  <circle class="points" cx="56.6" cy="21.1"/>
  <circle class="points" cx="61.7" cy="18.6"/>
  <circle class="points" cx="66.9" cy="16.3"/>
  <circle class="points" cx="72.2" cy="14.4"/>
  <circle class="points" cx="77.6" cy="12.8"/>
  <circle class="points" cx="83.1" cy="11.6"/>
  <circle class="points" cx="88.7" cy="10.7"/>
  <circle class="points" cx="94.3" cy="10.2"/>
  <circle class="points" cx="100.0" cy="10.0"/>
  <circle class="points" cx="105.7" cy="10.2"/>
  <circle class="points" cx="111.3" cy="10.7"/>
  <circle class="points" cx="116.9" cy="11.6"/>
  <circle class="points" cx="122.4" cy="12.8"/>
  <circle class="points" cx="127.8" cy="14.4"/>
  <circle class="points" cx="133.1" cy="16.3"/>
  <circle class="points" cx="138.3" cy="18.6"/>
  <circle class="points" cx="143.4" cy="21.1"/>
  <circle class="points" cx="148.2" cy="24.0"/>
  <circle class="points" cx="152.9" cy="27.2"/>
  <circle class="points" cx="157.4" cy="30.7"/>
  <circle class="points" cx="161.6" cy="34.4"/>
  <circle class="points" cx="165.6" cy="38.4"/>
  <circle class="points" cx="169.3" cy="42.6"/>
  <circle class="points" cx="172.8" cy="47.1"/>
  <circle class="points" cx="176.0" cy="51.8"/>
  <circle class="points" cx="178.9" cy="56.6"/>
  <circle class="points" cx="181.4" cy="61.7"/>
  <circle class="points" cx="183.7" cy="66.9"/>
  <circle class="points" cx="185.6" cy="72.2"/>
  <circle class="points" cx="187.2" cy="77.6"/>
  <circle class="points" cx="188.4" cy="83.1"/>
  <circle class="points" cx="189.3" cy="88.7"/>
  <circle class="points" cx="189.8" cy="94.3"/>
  <line x1="189.8" y1="105.7" x2="190.0" y2="100.0"/>
  <line x1="189.3" y1="111.3" x2="190.0" y2="100.0"/>
  <line x1="188.4" y1="116.9" x2="190.0" y2="100.0"/>
  <line x1="187.2" y1="122.4" x2="190.0" y2="100.0"/>
  <line x1="185.6" y1="127.8" x2="189.8" y2="105.7"/>
  <line x1="183.7" y1="133.1" x2="189.8" y2="105.7"/>
  <line x1="181.4" y1="138.3" x2="189.8" y2="105.7"/>
  <line x1="178.9" y1="143.4" x2="189.8" y2="105.7"/>
  <line x1="176.0" y1="148.2" x2="189.8" y2="105.7"/>
  <line x1="172.8" y1="152.9" x2="189.3" y2="111.3"/>
  <line x1="169.3" y1="157.4" x2="189.3" y2="111.3"/>
  <line x1="165.6" y1="161.6" x2="189.3" y2="111.3"/>
  <line x1="161.6" y1="165.6" x2="189.3" y2="111.3"/>
  <line x1="157.4" y1="169.3" x2="189.3" y2="111.3"/>
  <line x1="152.9" y1="172.8" x2="188.4" y2="116.9"/>
  <line x1="148.2" y1="176.0" x2="188.4" y2="116.9"/>
  <line x1="143.4" y1="178.9" x2="188.4" y2="116.9"/>
  <line x1="138.3" y1="181.4" x2="188.4" y2="116.9"/>
  <line x1="133.1" y1="183.7" x2="188.4" y2="116.9"/>
  <line x1="127.8" y1="185.6" x2="187.2" y2="122.4"/>
  <line x1="122.4" y1="187.2" x2="187.2" y2="122.4"/>
  <line x1="116.9" y1="188.4" x2="187.2" y2="122.4"/>
  <line x1="111.3" y1="189.3" x2="187.2" y2="122.4"/>
  <line x1="105.7" y1="189.8" x2="187.2" y2="122.4"/>
  <line x1="100.0" y1="190.0" x2="185.6" y2="127.8"/>
  <line x1="94.3" y1="189.8" x2="185.6" y2="127.8"/>
  <line x1="88.7" y1="189.3" x2="185.6" y2="127.8"/>
  <line x1="83.1" y1="188.4" x2="185.6" y2="127.8"/>
  <line x1="77.6" y1="187.2" x2="185.6" y2="127.8"/>
  <line x1="72.2" y1="185.6" x2="183.7" y2="133.1"/>
  <line x1="66.9" y1="183.7" x2="183.7" y2="133.1"/>
  <line x1="61.7" y1="181.4" x2="183.7" y2="133.1"/>
  <line x1="56.6" y1="178.9" x2="183.7" y2="133.1"/>
  <line x1="51.8" y1="176.0" x2="183.7" y2="133.1"/>
  <line x1="47.1" y1="172.8" x2="181.4" y2="138.3"/>
  <line x1="42.6" y1="169.3" x2="181.4" y2="138.3"/>
  <line x1="38.4" y1="165.6" x2="181.4" y2="138.3"/>
  <line x1="34.4" y1="161.6" x2="181.4" y2="138.3"/>
  <line x1="30.7" y1="157.4" x2="181.4" y2="138.3"/>
  <line x1="27.2" y1="152.9" x2="178.9" y2="143.4"/>
  <line x1="24.0" y1="148.2" x2="178.9" y2="143.4"/>
  <line x1="21.1" y1="143.4" x2="178.9" y2="143.4"/>
  <line x1="18.6" y1="138.3" x2="178.9" y2="143.4"/>
  <line x1="16.3" y1="133.1" x2="178.9" y2="143.4"/>
  <line x1="14.4" y1="127.8" x2="176.0" y2="148.2"/>
  <line x1="12.8" y1="122.4" x2="176.0" y2="148.2"/>
  <line x1="11.6" y1="116.9" x2="176.0" y2="148.2"/>
  <line x1="10.7" y1="111.3" x2="176.0" y2="148.2"/>
  <line x1="10.2" y1="105.7" x2="176.0" y2="148.2"/>
  <line x1="10.0" y1="100.0" x2="172.8" y2="152.9"/>
  <line x1="10.2" y1="94.3" x2="172.8" y2="152.9"/>
  <line x1="10.7" y1="88.7" x2="172.8" y2="152.9"/>
  <line x1="11.6" y1="83.1" x2="172.8" y2="152.9"/>
  <line x1="12.8" y1="77.6" x2="172.8" y2="152.9"/>
  <line x1="14.4" y1="72.2" x2="169.3" y2="157.4"/>
  <line x1="16.3" y1="66.9" x2="169.3" y2="157.4"/>
  <line x1="18.6" y1="61.7" x2="169.3" y2="157.4"/>
  <line x1="21.1" y1="56.6" x2="169.3" y2="157.4"/>
  <line x1="24.0" y1="51.8" x2="169.3" y2="157.4"/>
  <line x1="27.2" y1="47.1" x2="165.6" y2="161.6"/>
  <line x1="30.7" y1="42.6" x2="165.6" y2="161.6"/>
  <line x1="34.4" y1="38.4" x2="165.6" y2="161.6"/>
  <line x1="38.4" y1="34.4" x2="165.6" y2="161.6"/>
  <line x1="42.6" y1="30.7" x2="165.6" y2="161.6"/>
  <line x1="47.1" y1="27.2" x2="161.6" y2="165.6"/>
  <line x1="51.8" y1="24.0" x2="161.6" y2="165.6"/>
  <line x1="56.6" y1="21.1" x2="161.6" y2="165.6"/>
  <line x1="61.7" y1="18.6" x2="161.6" y2="165.6"/>
  <line x1="66.9" y1="16.3" x2="161.6" y2="165.6"/>
  <line x1="72.2" y1="14.4" x2="157.4" y2="169.3"/>
  <line x1="77.6" y1="12.8" x2="157.4" y2="169.3"/>
  <line x1="83.1" y1="11.6" x2="157.4" y2="169.3"/>
  <line x1="88.7" y1="10.7" x2="157.4" y2="169.3"/>
  <line x1="94.3" y1="10.2" x2="157.4" y2="169.3"/>
  <line x1="100.0" y1="10.0" x2="152.9" y2="172.8"/>
  <line x1="105.7" y1="10.2" x2="152.9" y2="172.8"/>
  <line x1="111.3" y1="10.7" x2="152.9" y2="172.8"/>
  <line x1="116.9" y1="11.6" x2="152.9" y2="172.8"/>
  <line x1="122.4" y1="12.8" x2="152.9" y2="172.8"/>
  <line x1="127.8" y1="14.4" x2="148.2" y2="176.0"/>
  <line x1="133.1" y1="16.3" x2="148.2" y2="176.0"/>
  <line x1="138.3" y1="18.6" x2="148.2" y2="176.0"/>
  <line x1="143.4" y1="21.1" x2="148.2" y2="176.0"/>
  <line x1="148.2" y1="24.0" x2="148.2" y2="176.0"/>
  <line x1="152.9" y1="27.2" x2="143.4" y2="178.9"/>
  <line x1="157.4" y1="30.7" x2="143.4" y2="178.9"/>
  <line x1="161.6" y1="34.4" x2="143.4" y2="178.9"/>
  <line x1="165.6" y1="38.4" x2="143.4" y2="178.9"/>
  <line x1="169.3" y1="42.6" x2="143.4" y2="178.9"/>
  <line x1="172.8" y1="47.1" x2="138.3" y2="181.4"/>
  <line x1="176.0" y1="51.8" x2="138.3" y2="181.4"/>
  <line x1="178.9" y1="56.6" x2="138.3" y2="181.4"/>
  <line x1="181.4" y1="61.7" x2="138.3" y2="181.4"/>
  <line x1="183.7" y1="66.9" x2="138.3" y2="181.4"/>
  <line x1="185.6" y1="72.2" x2="133.1" y2="183.7"/>
  <line x1="187.2" y1="77.6" x2="133.1" y2="183.7"/>
  <line x1="188.4" y1="83.1" x2="133.1" y2="183.7"/>
  <line x1="189.3" y1="88.7" x2="133.1" y2="183.7"/>
  <line x1="189.8" y1="94.3" x2="133.1" y2="183.7"/>
  <line x1="190.0" y1="100.0" x2="127.8" y2="185.6"/>
  <line x1="189.8" y1="105.7" x2="127.8" y2="185.6"/>
  <line x1="189.3" y1="111.3" x2="127.8" y2="185.6"/>
  <line x1="188.4" y1="116.9" x2="127.8" y2="185.6"/>
  <line x1="187.2" y1="122.4" x2="127.8" y2="185.6"/>
  <line x1="185.6" y1="127.8" x2="122.4" y2="187.2"/>
  <line x1="183.7" y1="133.1" x2="122.4" y2="187.2"/>
  <line x1="181.4" y1="138.3" x2="122.4" y2="187.2"/>
  <line x1="178.9" y1="143.4" x2="122.4" y2="187.2"/>
  <line x1="176.0" y1="148.2" x2="122.4" y2="187.2"/>
  <line x1="172.8" y1="152.9" x2="116.9" y2="188.4"/>
  <line x1="169.3" y1="157.4" x2="116.9" y2="188.4"/>
  <line x1="165.6" y1="161.6" x2="116.9" y2="188.4"/>
  <line x1="161.6" y1="165.6" x2="116.9" y2="188.4"/>
  <line x1="157.4" y1="169.3" x2="116.9" y2="188.4"/>
  <line x1="152.9" y1="172.8" x2="111.3" y2="189.3"/>
  <line x1="148.2" y1="176.0" x2="111.3" y2="189.3"/>
  <line x1="143.4" y1="178.9" x2="111.3" y2="189.3"/>
  <line x1="138.3" y1="181.4" x2="111.3" y2="189.3"/>
  <line x1="133.1" y1="183.7" x2="111.3" y2="189.3"/>
  <line x1="127.8" y1="185.6" x2="105.7" y2="189.8"/>
  <line x1="122.4" y1="187.2" x2="105.7" y2="189.8"/>
  <line x1="116.9" y1="188.4" x2="105.7" y2="189.8"/>
  <line x1="111.3" y1="189.3" x2="105.7" y2="189.8"/>
  <line x1="94.3" y1="189.8" x2="100.0" y2="190.0"/>
  <line x1="88.7" y1="189.3" x2="100.0" y2="190.0"/>
  <line x1="83.1" y1="188.4" x2="100.0" y2="190.0"/>
  <line x1="77.6" y1="187.2" x2="100.0" y2="190.0"/>
  <line x1="72.2" y1="185.6" x2="94.3" y2="189.8"/>
  <line x1="66.9" y1="183.7" x2="94.3" y2="189.8"/>
  <line x1="61.7" y1="181.4" x2="94.3" y2="189.8"/>
  <line x1="56.6" y1="178.9" x2="94.3" y2="189.8"/>
  <line x1="51.8" y1="176.0" x2="94.3" y2="189.8"/>
  <line x1="47.1" y1="172.8" x2="88.7" y2="189.3"/>
  <line x1="42.6" y1="169.3" x2="88.7" y2="189.3"/>
  <line x1="38.4" y1="165.6" x2="88.7" y2="189.3"/>
  <line x1="34.4" y1="161.6" x2="88.7" y2="189.3"/>
  <line x1="30.7" y1="157.4" x2="88.7" y2="189.3"/>
  <line x1="27.2" y1="152.9" x2="83.1" y2="188.4"/>
  <line x1="24.0" y1="148.2" x2="83.1" y2="188.4"/>
  <line x1="21.1" y1="143.4" x2="83.1" y2="188.4"/>
  <line x1="18.6" y1="138.3" x2="83.1" y2="188.4"/>
  <line x1="16.3" y1="133.1" x2="83.1" y2="188.4"/>
  <line x1="14.4" y1="127.8" x2="77.6" y2="187.2"/>
  <line x1="12.8" y1="122.4" x2="77.6" y2="187.2"/>
  <line x1="11.6" y1="116.9" x2="77.6" y2="187.2"/>
  <line x1="10.7" y1="111.3" x2="77.6" y2="187.2"/>
  <line x1="10.2" y1="105.7" x2="77.6" y2="187.2"/>
  <line x1="10.0" y1="100.0" x2="72.2" y2="185.6"/>
  <line x1="10.2" y1="94.3" x2="72.2" y2="185.6"/>
  <line x1="10.7" y1="88.7" x2="72.2" y2="185.6"/>
  <line x1="11.6" y1="83.1" x2="72.2" y2="185.6"/>
  <line x1="12.8" y1="77.6" x2="72.2" y2="185.6"/>
  <line x1="14.4" y1="72.2" x2="66.9" y2="183.7"/>
  <line x1="16.3" y1="66.9" x2="66.9" y2="183.7"/>
  <line x1="18.6" y1="61.7" x2="66.9" y2="183.7"/>
  <line x1="21.1" y1="56.6" x2="66.9" y2="183.7"/>
  <line x1="24.0" y1="51.8" x2="66.9" y2="183.7"/>
  <line x1="27.2" y1="47.1" x2="61.7" y2="181.4"/>
  <line x1="30.7" y1="42.6" x2="61.7" y2="181.4"/>
  <line x1="34.4" y1="38.4" x2="61.7" y2="181.4"/>
  <line x1="38.4" y1="34.4" x2="61.7" y2="181.4"/>
  <line x1="42.6" y1="30.7" x2="61.7" y2="181.4"/>
  <line x1="47.1" y1="27.2" x2="56.6" y2="178.9"/>
  <line x1="51.8" y1="24.0" x2="56.6" y2="178.9"/>
  <line x1="56.6" y1="21.1" x2="56.6" y2="178.9"/>
  <line x1="61.7" y1="18.6" x2="56.6" y2="178.9"/>
  <line x1="66.9" y1="16.3" x2="56.6" y2="178.9"/>
  <line x1="72.2" y1="14.4" x2="51.8" y2="176.0"/>
  <line x1="77.6" y1="12.8" x2="51.8" y2="176.0"/>
  <line x1="83.1" y1="11.6" x2="51.8" y2="176.0"/>
  <line x1="88.7" y1="10.7" x2="51.8" y2="176.0"/>
  <line x1="94.3" y1="10.2" x2="51.8" y2="176.0"/>
  <line x1="100.0" y1="10.0" x2="47.1" y2="172.8"/>
  <line x1="105.7" y1="10.2" x2="47.1" y2="172.8"/>
  <line x1="111.3" y1="10.7" x2="47.1" y2="172.8"/>
  <line x1="116.9" y1="11.6" x2="47.1" y2="172.8"/>
  <line x1="122.4" y1="12.8" x2="47.1" y2="172.8"/>
  <line x1="127.8" y1="14.4" x2="42.6" y2="169.3"/>
  <line x1="133.1" y1="16.3" x2="42.6" y2="169.3"/>
  <line x1="138.3" y1="18.6" x2="42.6" y2="169.3"/>
  <line x1="143.4" y1="21.1" x2="42.6" y2="169.3"/>
  <line x1="148.2" y1="24.0" x2="42.6" y2="169.3"/>
  <line x1="152.9" y1="27.2" x2="38.4" y2="165.6"/>
  <line x1="157.4" y1="30.7" x2="38.4" y2="165.6"/>
  <line x1="161.6" y1="34.4" x2="38.4" y2="165.6"/>
  <line x1="165.6" y1="38.4" x2="38.4" y2="165.6"/>
  <line x1="169.3" y1="42.6" x2="38.4" y2="165.6"/>
  <line x1="172.8" y1="47.1" x2="34.4" y2="161.6"/>
  <line x1="176.0" y1="51.8" x2="34.4" y2="161.6"/>
  <line x1="178.9" y1="56.6" x2="34.4" y2="161.6"/>
  <line x1="181.4" y1="61.7" x2="34.4" y2="161.6"/>
  <line x1="183.7" y1="66.9" x2="34.4" y2="161.6"/>
  <line x1="185.6" y1="72.2" x2="30.7" y2="157.4"/>
  <line x1="187.2" y1="77.6" x2="30.7" y2="157.4"/>
  <line x1="188.4" y1="83.1" x2="30.7" y2="157.4"/>
  <line x1="189.3" y1="88.7" x2="30.7" y2="157.4"/>
  <line x1="189.8" y1="94.3" x2="30.7" y2="157.4"/>
  <line x1="190.0" y1="100.0" x2="27.2" y2="152.9"/>
  <line x1="189.8" y1="105.7" x2="27.2" y2="152.9"/>
  <line x1="189.3" y1="111.3" x2="27.2" y2="152.9"/>
  <line x1="188.4" y1="116.9" x2="27.2" y2="152.9"/>
  <line x1="187.2" y1="122.4" x2="27.2" y2="152.9"/>
  <line x1="185.6" y1="127.8" x2="24.0" y2="148.2"/>
  <line x1="183.7" y1="133.1" x2="24.0" y2="148.2"/>
  <line x1="181.4" y1="138.3" x2="24.0" y2="148.2"/>
  <line x1="178.9" y1="143.4" x2="24.0" y2="148.2"/>
  <line x1="176.0" y1="148.2" x2="24.0" y2="148.2"/>
  <line x1="172.8" y1="152.9" x2="21.1" y2="143.4"/>
  <line x1="169.3" y1="157.4" x2="21.1" y2="143.4"/>
  <line x1="165.6" y1="161.6" x2="21.1" y2="143.4"/>
  <line x1="161.6" y1="165.6" x2="21.1" y2="143.4"/>
  <line x1="157.4" y1="169.3" x2="21.1" y2="143.4"/>
  <line x1="152.9" y1="172.8" x2="18.6" y2="138.3"/>
  <line x1="148.2" y1="176.0" x2="18.6" y2="138.3"/>
  <line x1="143.4" y1="178.9" x2="18.6" y2="138.3"/>
  <line x1="138.3" y1="181.4" x2="18.6" y2="138.3"/>
  <line x1="133.1" y1="183.7" x2="18.6" y2="138.3"/>
  <line x1="127.8" y1="185.6" x2="16.3" y2="133.1"/>
  <line x1="122.4" y1="187.2" x2="16.3" y2="133.1"/>
  <line x1="116.9" y1="188.4" x2="16.3" y2="133.1"/>
  <line x1="111.3" y1="189.3" x2="16.3" y2="133.1"/>
  <line x1="105.7" y1="189.8" x2="16.3" y2="133.1"/>
  <line x1="100.0" y1="190.0" x2="14.4" y2="127.8"/>
  <line x1="94.3" y1="189.8" x2="14.4" y2="127.8"/>
  <line x1="88.7" y1="189.3" x2="14.4" y2="127.8"/>
  <line x1="83.1" y1="188.4" x2="14.4" y2="127.8"/>
  <line x1="77.6" y1="187.2" x2="14.4" y2="127.8"/>
  <line x1="72.2" y1="185.6" x2="12.8" y2="122.4"/>
  <line x1="66.9" y1="183.7" x2="12.8" y2="122.4"/>
  <line x1="61.7" y1="181.4" x2="12.8" y2="122.4"/>
  <line x1="56.6" y1="178.9" x2="12.8" y2="122.4"/>
  <line x1="51.8" y1="176.0" x2="12.8" y2="122.4"/>
  <line x1="47.1" y1="172.8" x2="11.6" y2="116.9"/>
  <line x1="42.6" y1="169.3" x2="11.6" y2="116.9"/>
  <line x1="38.4" y1="165.6" x2="11.6" y2="116.9"/>
  <line x1="34.4" y1="161.6" x2="11.6" y2="116.9"/>
  <line x1="30.7" y1="157.4" x2="11.6" y2="116.9"/>
  <line x1="27.2" y1="152.9" x2="10.7" y2="111.3"/>
  <line x1="24.0" y1="148.2" x2="10.7" y2="111.3"/>
  <line x1="21.1" y1="143.4" x2="10.7" y2="111.3"/>
  <line x1="18.6" y1="138.3" x2="10.7" y2="111.3"/>
  <line x1="16.3" y1="133.1" x2="10.7" y2="111.3"/>
  <line x1="14.4" y1="127.8" x2="10.2" y2="105.7"/>
  <line x1="12.8" y1="122.4" x2="10.2" y2="105.7"/>
  <line x1="11.6" y1="116.9" x2="10.2" y2="105.7"/>
  <line x1="10.7" y1="111.3" x2="10.2" y2="105.7"/>
  <line x1="10.2" y1="94.3" x2="10.0" y2="100.0"/>
  <line x1="10.7" y1="88.7" x2="10.0" y2="100.0"/>
  <line x1="11.6" y1="83.1" x2="10.0" y2="100.0"/>
  <line x1="12.8" y1="77.6" x2="10.0" y2="100.0"/>
  <line x1="14.4" y1="72.2" x2="10.2" y2="94.3"/>
  <line x1="16.3" y1="66.9" x2="10.2" y2="94.3"/>
  <line x1="18.6" y1="61.7" x2="10.2" y2="94.3"/>
  <line x1="21.1" y1="56.6" x2="10.2" y2="94.3"/>
  <line x1="24.0" y1="51.8" x2="10.2" y2="94.3"/>
  <line x1="27.2" y1="47.1" x2="10.7" y2="88.7"/>
  <line x1="30.7" y1="42.6" x2="10.7" y2="88.7"/>
  <line x1="34.4" y1="38.4" x2="10.7" y2="88.7"/>
  <line x1="38.4" y1="34.4" x2="10.7" y2="88.7"/>
  <line x1="42.6" y1="30.7" x2="10.7" y2="88.7"/>
  <line x1="47.1" y1="27.2" x2="11.6" y2="83.1"/>
  <line x1="51.8" y1="24.0" x2="11.6" y2="83.1"/>
  <line x1="56.6" y1="21.1" x2="11.6" y2="83.1"/>
  <line x1="61.7" y1="18.6" x2="11.6" y2="83.1"/>
  <line x1="66.9" y1="16.3" x2="11.6" y2="83.1"/>
  <line x1="72.2" y1="14.4" x2="12.8" y2="77.6"/>
  <line x1="77.6" y1="12.8" x2="12.8" y2="77.6"/>
  <line x1="83.1" y1="11.6" x2="12.8" y2="77.6"/>
  <line x1="88.7" y1="10.7" x2="12.8" y2="77.6"/>
  <line x1="94.3" y1="10.2" x2="12.8" y2="77.6"/>
  <line x1="100.0" y1="10.0" x2="14.4" y2="72.2"/>
  <line x1="105.7" y1="10.2" x2="14.4" y2="72.2"/>
  <line x1="111.3" y1="10.7" x2="14.4" y2="72.2"/>
  <line x1="116.9" y1="11.6" x2="14.4" y2="72.2"/>
  <line x1="122.4" y1="12.8" x2="14.4" y2="72.2"/>
  <line x1="127.8" y1="14.4" x2="16.3" y2="66.9"/>
  <line x1="133.1" y1="16.3" x2="16.3" y2="66.9"/>
  <line x1="138.3" y1="18.6" x2="16.3" y2="66.9"/>
  <line x1="143.4" y1="21.1" x2="16.3" y2="66.9"/>
  <line x1="148.2" y1="24.0" x2="16.3" y2="66.9"/>
  <line x1="152.9" y1="27.2" x2="18.6" y2="61.7"/>
  <line x1="157.4" y1="30.7" x2="18.6" y2="61.7"/>
  <line x1="161.6" y1="34.4" x2="18.6" y2="61.7"/>
  <line x1="165.6" y1="38.4" x2="18.6" y2="61.7"/>
  <line x1="169.3" y1="42.6" x2="18.6" y2="61.7"/>
  <line x1="172.8" y1="47.1" x2="21.1" y2="56.6"/>
  <line x1="176.0" y1="51.8" x2="21.1" y2="56.6"/>
  <line x1="178.9" y1="56.6" x2="21.1" y2="56.6"/>
  <line x1="181.4" y1="61.7" x2="21.1" y2="56.6"/>
  <line x1="183.7" y1="66.9" x2="21.1" y2="56.6"/>
  <line x1="185.6" y1="72.2" x2="24.0" y2="51.8"/>
  <line x1="187.2" y1="77.6" x2="24.0" y2="51.8"/>
  <line x1="188.4" y1="83.1" x2="24.0" y2="51.8"/>
  <line x1="189.3" y1="88.7" x2="24.0" y2="51.8"/>
  <line x1="189.8" y1="94.3" x2="24.0" y2="51.8"/>
  <line x1="190.0" y1="100.0" x2="27.2" y2="47.1"/>
  <line x1="189.8" y1="105.7" x2="27.2" y2="47.1"/>
  <line x1="189.3" y1="111.3" x2="27.2" y2="47.1"/>
  <line x1="188.4" y1="116.9" x2="27.2" y2="47.1"/>
  <line x1="187.2" y1="122.4" x2="27.2" y2="47.1"/>
  <line x1="185.6" y1="127.8" x2="30.7" y2="42.6"/>
  <line x1="183.7" y1="133.1" x2="30.7" y2="42.6"/>
  <line x1="181.4" y1="138.3" x2="30.7" y2="42.6"/>
  <line x1="178.9" y1="143.4" x2="30.7" y2="42.6"/>
  <line x1="176.0" y1="148.2" x2="30.7" y2="42.6"/>
  <line x1="172.8" y1="152.9" x2="34.4" y2="38.4"/>
  <line x1="169.3" y1="157.4" x2="34.4" y2="38.4"/>
  <line x1="165.6" y1="161.6" x2="34.4" y2="38.4"/>
  <line x1="161.6" y1="165.6" x2="34.4" y2="38.4"/>
  <line x1="157.4" y1="169.3" x2="34.4" y2="38.4"/>
  <line x1="152.9" y1="172.8" x2="38.4" y2="34.4"/>
  <line x1="148.2" y1="176.0" x2="38.4" y2="34.4"/>
  <line x1="143.4" y1="178.9" x2="38.4" y2="34.4"/>
  <line x1="138.3" y1="181.4" x2="38.4" y2="34.4"/>
  <line x1="133.1" y1="183.7" x2="38.4" y2="34.4"/>
  <line x1="127.8" y1="185.6" x2="42.6" y2="30.7"/>
  <line x1="122.4" y1="187.2" x2="42.6" y2="30.7"/>
  <line x1="116.9" y1="188.4" x2="42.6" y2="30.7"/>
  <line x1="111.3" y1="189.3" x2="42.6" y2="30.7"/>
  <line x1="105.7" y1="189.8" x2="42.6" y2="30.7"/>
  <line x1="100.0" y1="190.0" x2="47.1" y2="27.2"/>
  <line x1="94.3" y1="189.8" x2="47.1" y2="27.2"/>
  <line x1="88.7" y1="189.3" x2="47.1" y2="27.2"/>
  <line x1="83.1" y1="188.4" x2="47.1" y2="27.2"/>
  <line x1="77.6" y1="187.2" x2="47.1" y2="27.2"/>
  <line x1="72.2" y1="185.6" x2="51.8" y2="24.0"/>
  <line x1="66.9" y1="183.7" x2="51.8" y2="24.0"/>
  <line x1="61.7" y1="181.4" x2="51.8" y2="24.0"/>
  <line x1="56.6" y1="178.9" x2="51.8" y2="24.0"/>
  <line x1="51.8" y1="176.0" x2="51.8" y2="24.0"/>
  <line x1="47.1" y1="172.8" x2="56.6" y2="21.1"/>
  <line x1="42.6" y1="169.3" x2="56.6" y2="21.1"/>
  <line x1="38.4" y1="165.6" x2="56.6" y2="21.1"/>
  <line x1="34.4" y1="161.6" x2="56.6" y2="21.1"/>
  <line x1="30.7" y1="157.4" x2="56.6" y2="21.1"/>
  <line x1="27.2" y1="152.9" x2="61.7" y2="18.6"/>
  <line x1="24.0" y1="148.2" x2="61.7" y2="18.6"/>
  <line x1="21.1" y1="143.4" x2="61.7" y2="18.6"/>
  <line x1="18.6" y1="138.3" x2="61.7" y2="18.6"/>
  <line x1="16.3" y1="133.1" x2="61.7" y2="18.6"/>
  <line x1="14.4" y1="127.8" x2="66.9" y2="16.3"/>
  <line x1="12.8" y1="122.4" x2="66.9" y2="16.3"/>
  <line x1="11.6" y1="116.9" x2="66.9" y2="16.3"/>
  <line x1="10.7" y1="111.3" x2="66.9" y2="16.3"/>
  <line x1="10.2" y1="105.7" x2="66.9" y2="16.3"/>
  <line x1="10.0" y1="100.0" x2="72.2" y2="14.4"/>
  <line x1="10.2" y1="94.3" x2="72.2" y2="14.4"/>
  <line x1="10.7" y1="88.7" x2="72.2" y2="14.4"/>
  <line x1="11.6" y1="83.1" x2="72.2" y2="14.4"/>
  <line x1="12.8" y1="77.6" x2="72.2" y2="14.4"/>
  <line x1="14.4" y1="72.2" x2="77.6" y2="12.8"/>
  <line x1="16.3" y1="66.9" x2="77.6" y2="12.8"/>
  <line x1="18.6" y1="61.7" x2="77.6" y2="12.8"/>
  <line x1="21.1" y1="56.6" x2="77.6" y2="12.8"/>
  <line x1="24.0" y1="51.8" x2="77.6" y2="12.8"/>
  <line x1="27.2" y1="47.1" x2="83.1" y2="11.6"/>
  <line x1="30.7" y1="42.6" x2="83.1" y2="11.6"/>
  <line x1="34.4" y1="38.4" x2="83.1" y2="11.6"/>
  <line x1="38.4" y1="34.4" x2="83.1" y2="11.6"/>
  <line x1="42.6" y1="30.7" x2="83.1" y2="11.6"/>
  <line x1="47.1" y1="27.2" x2="88.7" y2="10.7"/>
  <line x1="51.8" y1="24.0" x2="88.7" y2="10.7"/>
  <line x1="56.6" y1="21.1" x2="88.7" y2="10.7"/>
  <line x1="61.7" y1="18.6" x2="88.7" y2="10.7"/>
  <line x1="66.9" y1="16.3" x2="88.7" y2="10.7"/>
  <line x1="72.2" y1="14.4" x2="94.3" y2="10.2"/>
  <line x1="77.6" y1="12.8" x2="94.3" y2="10.2"/>
  <line x1="83.1" y1="11.6" x2="94.3" y2="10.2"/>
  <line x1="88.7" y1="10.7" x2="94.3" y2="10.2"/>
  <line x1="105.7" y1="10.2" x2="100.0" y2="10.0"/>
  <line x1="111.3" y1="10.7" x2="100.0" y2="10.0"/>
  <line x1="116.9" y1="11.6" x2="100.0" y2="10.0"/>
  <line x1="122.4" y1="12.8" x2="100.0" y2="10.0"/>
  <line x1="127.8" y1="14.4" x2="105.7" y2="10.2"/>
  <line x1="133.1" y1="16.3" x2="105.7" y2="10.2"/>
  <line x1="138.3" y1="18.6" x2="105.7" y2="10.2"/>
  <line x1="143.4" y1="21.1" x2="105.7" y2="10.2"/>
  <line x1="148.2" y1="24.0" x2="105.7" y2="10.2"/>
  <line x1="152.9" y1="27.2" x2="111.3" y2="10.7"/>
  <line x1="157.4" y1="30.7" x2="111.3" y2="10.7"/>
  <line x1="161.6" y1="34.4" x2="111.3" y2="10.7"/>
  <line x1="165.6" y1="38.4" x2="111.3" y2="10.7"/>
  <line x1="169.3" y1="42.6" x2="111.3" y2="10.7"/>
  <line x1="172.8" y1="47.1" x2="116.9" y2="11.6"/>
  <line x1="176.0" y1="51.8" x2="116.9" y2="11.6"/>
  <line x1="178.9" y1="56.6" x2="116.9" y2="11.6"/>
  <line x1="181.4" y1="61.7" x2="116.9" y2="11.6"/>
  <line x1="183.7" y1="66.9" x2="116.9" y2="11.6"/>
  <line x1="185.6" y1="72.2" x2="122.4" y2="12.8"/>
  <line x1="187.2" y1="77.6" x2="122.4" y2="12.8"/>
  <line x1="188.4" y1="83.1" x2="122.4" y2="12.8"/>
  <line x1="189.3" y1="88.7" x2="122.4" y2="12.8"/>
  <line x1="189.8" y1="94.3" x2="122.4" y2="12.8"/>
  <line x1="190.0" y1="100.0" x2="127.8" y2="14.4"/>
  <line x1="189.8" y1="105.7" x2="127.8" y2="14.4"/>
  <line x1="189.3" y1="111.3" x2="127.8" y2="14.4"/>
  <line x1="188.4" y1="116.9" x2="127.8" y2="14.4"/>
  <line x1="187.2" y1="122.4" x2="127.8" y2="14.4"/>
  <line x1="185.6" y1="127.8" x2="133.1" y2="16.3"/>
  <line x1="183.7" y1="133.1" x2="133.1" y2="16.3"/>
  <line x1="181.4" y1="138.3" x2="133.1" y2="16.3"/>
  <line x1="178.9" y1="143.4" x2="133.1" y2="16.3"/>
  <line x1="176.0" y1="148.2" x2="133.1" y2="16.3"/>
  <line x1="172.8" y1="152.9" x2="138.3" y2="18.6"/>
  <line x1="169.3" y1="157.4" x2="138.3" y2="18.6"/>
  <line x1="165.6" y1="161.6" x2="138.3" y2="18.6"/>
  <line x1="161.6" y1="165.6" x2="138.3" y2="18.6"/>
  <line x1="157.4" y1="169.3" x2="138.3" y2="18.6"/>
  <line x1="152.9" y1="172.8" x2="143.4" y2="21.1"/>
  <line x1="148.2" y1="176.0" x2="143.4" y2="21.1"/>
  <line x1="143.4" y1="178.9" x2="143.4" y2="21.1"/>
  <line x1="138.3" y1="181.4" x2="143.4" y2="21.1"/>
  <line x1="133.1" y1="183.7" x2="143.4" y2="21.1"/>
  <line x1="127.8" y1="185.6" x2="148.2" y2="24.0"/>
  <line x1="122.4" y1="187.2" x2="148.2" y2="24.0"/>
  <line x1="116.9" y1="188.4" x2="148.2" y2="24.0"/>
  <line x1="111.3" y1="189.3" x2="148.2" y2="24.0"/>
  <line x1="105.7" y1="189.8" x2="148.2" y2="24.0"/>
  <line x1="100.0" y1="190.0" x2="152.9" y2="27.2"/>
  <line x1="94.3" y1="189.8" x2="152.9" y2="27.2"/>
  <line x1="88.7" y1="189.3" x2="152.9" y2="27.2"/>
  <line x1="83.1" y1="188.4" x2="152.9" y2="27.2"/>
  <line x1="77.6" y1="187.2" x2="152.9" y2="27.2"/>
  <line x1="72.2" y1="185.6" x2="157.4" y2="30.7"/>
  <line x1="66.9" y1="183.7" x2="157.4" y2="30.7"/>
  <line x1="61.7" y1="181.4" x2="157.4" y2="30.7"/>
  <line x1="56.6" y1="178.9" x2="157.4" y2="30.7"/>
  <line x1="51.8" y1="176.0" x2="157.4" y2="30.7"/>
  <line x1="47.1" y1="172.8" x2="161.6" y2="34.4"/>
  <line x1="42.6" y1="169.3" x2="161.6" y2="34.4"/>
  <line x1="38.4" y1="165.6" x2="161.6" y2="34.4"/>
  <line x1="34.4" y1="161.6" x2="161.6" y2="34.4"/>
  <line x1="30.7" y1="157.4" x2="161.6" y2="34.4"/>
  <line x1="27.2" y1="152.9" x2="165.6" y2="38.4"/>
  <line x1="24.0" y1="148.2" x2="165.6" y2="38.4"/>
  <line x1="21.1" y1="143.4" x2="165.6" y2="38.4"/>
  <line x1="18.6" y1="138.3" x2="165.6" y2="38.4"/>
  <line x1="16.3" y1="133.1" x2="165.6" y2="38.4"/>
  <line x1="14.4" y1="127.8" x2="169.3" y2="42.6"/>
  <line x1="12.8" y1="122.4" x2="169.3" y2="42.6"/>
  <line x1="11.6" y1="116.9" x2="169.3" y2="42.6"/>
  <line x1="10.7" y1="111.3" x2="169.3" y2="42.6"/>
  <line x1="10.2" y1="105.7" x2="169.3" y2="42.6"/>
  <line x1="10.0" y1="100.0" x2="172.8" y2="47.1"/>
  <line x1="10.2" y1="94.3" x2="172.8" y2="47.1"/>
  <line x1="10.7" y1="88.7" x2="172.8" y2="47.1"/>
  <line x1="11.6" y1="83.1" x2="172.8" y2="47.1"/>
  <line x1="12.8" y1="77.6" x2="172.8" y2="47.1"/>
  <line x1="14.4" y1="72.2" x2="176.0" y2="51.8"/>
  <line x1="16.3" y1="66.9" x2="176.0" y2="51.8"/>
  <line x1="18.6" y1="61.7" x2="176.0" y2="51.8"/>
  <line x1="21.1" y1="56.6" x2="176.0" y2="51.8"/>
  <line x1="24.0" y1="51.8" x2="176.0" y2="51.8"/>
  <line x1="27.2" y1="47.1" x2="178.9" y2="56.6"/>
  <line x1="30.7" y1="42.6" x2="178.9" y2="56.6"/>
  <line x1="34.4" y1="38.4" x2="178.9" y2="56.6"/>
  <line x1="38.4" y1="34.4" x2="178.9" y2="56.6"/>
  <line x1="42.6" y1="30.7" x2="178.9" y2="56.6"/>
  <line x1="47.1" y1="27.2" x2="181.4" y2="61.7"/>
  <line x1="51.8" y1="24.0" x2="181.4" y2="61.7"/>
  <line x1="56.6" y1="21.1" x2="181.4" y2="61.7"/>
  <line x1="61.7" y1="18.6" x2="181.4" y2="61.7"/>
  <line x1="66.9" y1="16.3" x2="181.4" y2="61.7"/>
  <line x1="72.2" y1="14.4" x2="183.7" y2="66.9"/>
  <line x1="77.6" y1="12.8" x2="183.7" y2="66.9"/>
  <line x1="83.1" y1="11.6" x2="183.7" y2="66.9"/>
  <line x1="88.7" y1="10.7" x2="183.7" y2="66.9"/>
  <line x1="94.3" y1="10.2" x2="183.7" y2="66.9"/>
  <line x1="100.0" y1="10.0" x2="185.6" y2="72.2"/>
  <line x1="105.7" y1="10.2" x2="185.6" y2="72.2"/>
  <line x1="111.3" y1="10.7" x2="185.6" y2="72.2"/>
  <line x1="116.9" y1="11.6" x2="185.6" y2="72.2"/>
  <line x1="122.4" y1="12.8" x2="185.6" y2="72.2"/>
  <line x1="127.8" y1="14.4" x2="187.2" y2="77.6"/>
  <line x1="133.1" y1="16.3" x2="187.2" y2="77.6"/>
  <line x1="138.3" y1="18.6" x2="187.2" y2="77.6"/>
  <line x1="143.4" y1="21.1" x2="187.2" y2="77.6"/>
  <line x1="148.2" y1="24.0" x2="187.2" y2="77.6"/>
  <line x1="152.9" y1="27.2" x2="188.4" y2="83.1"/>
  <line x1="157.4" y1="30.7" x2="188.4" y2="83.1"/>
  <line x1="161.6" y1="34.4" x2="188.4" y2="83.1"/>
  <line x1="165.6" y1="38.4" x2="188.4" y2="83.1"/>
  <line x1="169.3" y1="42.6" x2="188.4" y2="83.1"/>
  <line x1="172.8" y1="47.1" x2="189.3" y2="88.7"/>
  <line x1="176.0" y1="51.8" x2="189.3" y2="88.7"/>
  <line x1="178.9" y1="56.6" x2="189.3" y2="88.7"/>
  <line x1="181.4" y1="61.7" x2="189.3" y2="88.7"/>
  <line x1="183.7" y1="66.9" x2="189.3" y2="88.7"/>
  <line x1="185.6" y1="72.2" x2="189.8" y2="94.3"/>
  <line x1="187.2" y1="77.6" x2="189.8" y2="94.3"/>
  <line x1="188.4" y1="83.1" x2="189.8" y2="94.3"/>
  <line x1="189.3" y1="88.7" x2="189.8" y2="94.3"/>
</svg>
