<?xml version='1.0' encoding='UTF-8' standalone='no'?>
<svg xmlns="http://www.w3.org/2000/svg" xmlns:xlink="http://www.w3.org/1999/xlink" version="1.1" width="200" height="200" viewBox="0 0 200 200" style="border:1px solid black">
  <title>Cardioid Curve, parameters: divisions=200, multiplier=2</title>
  <circle cx="100" cy="100" r="90" stroke-width="1" stroke="black" fill="transparent"/>
  <style> .points{fill: red; r: 0.5; } line{stroke: green; stroke-width: 0.5; stroke-dasharray: None; }</style>
  <circle class="points" cx="190.0" cy="100.0"/>
  <circle class="points" cx="190.0" cy="102.8"/>
  <circle class="points" cx="189.8" cy="105.7"/>
  <circle class="points" cx="189.6" cy="108.5"/>
  <circle class="points" cx="189.3" cy="111.3"/>
  <circle class="points" cx="188.9" cy="114.1"/>
  <circle class="points" cx="188.4" cy="116.9"/>
  <circle class="points" cx="187.8" cy="119.6"/>
  <circle class="points" cx="187.2" cy="122.4"/>
  <circle class="points" cx="186.4" cy="125.1"/>
  <circle class="points" cx="185.6" cy="127.8"/>
  <circle class="points" cx="184.7" cy="130.5"/>
  <circle class="points" cx="183.7" cy="133.1"/>
  <circle class="points" cx="182.6" cy="135.7"/>
  <circle class="points" cx="181.4" cy="138.3"/>
  <circle class="points" cx="180.2" cy="140.9"/>
  <circle class="points" cx="178.9" cy="143.4"/>
  <circle class="points" cx="177.5" cy="145.8"/>
  <circle class="points" cx="176.0" cy="148.2"/>
  <circle class="points" cx="174.4" cy="150.6"/>
  <circle class="points" cx="172.8" cy="152.9"/>
  <circle class="points" cx="171.1" cy="155.2"/>
  <circle class="points" cx="169.3" cy="157.4"/>
  <circle class="points" cx="167.5" cy="159.5"/>
  <circle class="points" cx="165.6" cy="161.6"/>
  <circle class="points" cx="163.6" cy="163.6"/>
  <circle class="points" cx="161.6" cy="165.6"/>
  <circle class="points" cx="159.5" cy="167.5"/>
  <circle class="points" cx="157.4" cy="169.3"/>
  <circle class="points" cx="155.2" cy="171.1"/>
  <circle class="points" cx="152.9" cy="172.8"/>
  <circle class="points" cx="150.6" cy="174.4"/>
  <circle class="points" cx="148.2" cy="176.0"/>
  <circle class="points" cx="145.8" cy="177.5"/>
  <circle class="points" cx="143.4" cy="178.9"/>
  <circle class="points" cx="140.9" cy="180.2"/>
  <circle class="points" cx="138.3" cy="181.4"/>
  <circle class="points" cx="135.7" cy="182.6"/>
  <circle class="points" cx="133.1" cy="183.7"/>
  <circle class="points" cx="130.5" cy="184.7"/>
  <circle class="points" cx="127.8" cy="185.6"/>
  <circle class="points" cx="125.1" cy="186.4"/>
  <circle class="points" cx="122.4" cy="187.2"/>
  <circle class="points" cx="119.6" cy="187.8"/>
  <circle class="points" cx="116.9" cy="188.4"/>
  <circle class="points" cx="114.1" cy="188.9"/>
  <circle class="points" cx="111.3" cy="189.3"/>
  <circle class="points" cx="108.5" cy="189.6"/>
  <circle class="points" cx="105.7" cy="189.8"/>
  <circle class="points" cx="102.8" cy="190.0"/>
  <circle class="points" cx="100.0" cy="190.0"/>
  <circle class="points" cx="97.2" cy="190.0"/>
  <circle class="points" cx="94.3" cy="189.8"/>
  <circle class="points" cx="91.5" cy="189.6"/>
  <circle class="points" cx="88.7" cy="189.3"/>
  <circle class="points" cx="85.9" cy="188.9"/>
  <circle class="points" cx="83.1" cy="188.4"/>
  <circle class="points" cx="80.4" cy="187.8"/>
  <circle class="points" cx="77.6" cy="187.2"/>
  <circle class="points" cx="74.9" cy="186.4"/>
  <circle class="points" cx="72.2" cy="185.6"/>
  <circle class="points" cx="69.5" cy="184.7"/>
  <circle class="points" cx="66.9" cy="183.7"/>
  <circle class="points" cx="64.3" cy="182.6"/>
  <circle class="points" cx="61.7" cy="181.4"/>
  <circle class="points" cx="59.1" cy="180.2"/>
  <circle class="points" cx="56.6" cy="178.9"/>
  <circle class="points" cx="54.2" cy="177.5"/>
  <circle class="points" cx="51.8" cy="176.0"/>
  <circle class="points" cx="49.4" cy="174.4"/>
  <circle class="points" cx="47.1" cy="172.8"/>
  <circle class="points" cx="44.8" cy="171.1"/>
  <circle class="points" cx="42.6" cy="169.3"/>
  <circle class="points" cx="40.5" cy="167.5"/>
  <circle class="points" cx="38.4" cy="165.6"/>
  <circle class="points" cx="36.4" cy="163.6"/>
  <circle class="points" cx="34.4" cy="161.6"/>
  <circle class="points" cx="32.5" cy="159.5"/>
  <circle class="points" cx="30.7" cy="157.4"/>
  <circle class="points" cx="28.9" cy="155.2"/>
  <circle class="points" cx="27.2" cy="152.9"/>
  <circle class="points" cx="25.6" cy="150.6"/>
  <circle class="points" cx="24.0" cy="148.2"/>
  <circle class="points" cx="22.5" cy="145.8"/>
  <circle class="points" cx="21.1" cy="143.4"/>
  <circle class="points" cx="19.8" cy="140.9"/>
  <circle class="points" cx="18.6" cy="138.3"/>
  <circle class="points" cx="17.4" cy="135.7"/>
  <circle class="points" cx="16.3" cy="133.1"/>
  <circle class="points" cx="15.3" cy="130.5"/>
  <circle class="points" cx="14.4" cy="127.8"/>
  <circle class="points" cx="13.6" cy="125.1"/>
  <circle class="points" cx="12.8" cy="122.4"/>
  <circle class="points" cx="12.2" cy="119.6"/>
  <circle class="points" cx="11.6" cy="116.9"/>
  <circle class="points" cx="11.1" cy="114.1"/>
  <circle class="points" cx="10.7" cy="111.3"/>
  <circle class="points" cx="10.4" cy="108.5"/>
  <circle class="points" cx="10.2" cy="105.7"/>
  <circle class="points" cx="10.0" cy="102.8"/>
  <circle class="points" cx="10.0" cy="100.0"/>
  <circle class="points" cx="10.0" cy="97.2"/>
  <circle class="points" cx="10.2" cy="94.3"/>
  <circle class="points" cx="10.4" cy="91.5"/>
  <circle class="points" cx="10.7" cy="88.7"/>
  <circle class="points" cx="11.1" cy="85.9"/>
  <circle class="points" cx="11.6" cy="83.1"/>
  <circle class="points" cx="12.2" cy="80.4"/>
  <circle class="points" cx="12.8" cy="77.6"/>
  <circle class="points" cx="13.6" cy="74.9"/>
  <circle class="points" cx="14.4" cy="72.2"/>
  <circle class="points" cx="15.3" cy="69.5"/>
  <circle class="points" cx="16.3" cy="66.9"/>
  <circle class="points" cx="17.4" cy="64.3"/>
  <circle class="points" cx="18.6" cy="61.7"/>
  <circle class="points" cx="19.8" cy="59.1"/>
  <circle class="points" cx="21.1" cy="56.6"/>
  <circle class="points" cx="22.5" cy="54.2"/>
  <circle class="points" cx="24.0" cy="51.8"/>
  <circle class="points" cx="25.6" cy="49.4"/>
  <circle class="points" cx="27.2" cy="47.1"/>
  <circle class="points" cx="28.9" cy="44.8"/>
  <circle class="points" cx="30.7" cy="42.6"/>
  <circle class="points" cx="32.5" cy="40.5"/>
  <circle class="points" cx="34.4" cy="38.4"/>
  <circle class="points" cx="36.4" cy="36.4"/>
  <circle class="points" cx="38.4" cy="34.4"/>
  <circle class="points" cx="40.5" cy="32.5"/>
  <circle class="points" cx="42.6" cy="30.7"/>
  <circle class="points" cx="44.8" cy="28.9"/>
  <circle class="points" cx="47.1" cy="27.2"/>
  <circle class="points" cx="49.4" cy="25.6"/>
  <circle class="points" cx="51.8" cy="24.0"/>
  <circle class="points" cx="54.2" cy="22.5"/>
  <circle class="points" cx="56.6" cy="21.1"/>
  <circle class="points" cx="59.1" cy="19.8"/>
  <circle class="points" cx="61.7" cy="18.6"/>
  <circle class="points" cx="64.3" cy="17.4"/>
  <circle class="points" cx="66.9" cy="16.3"/>
  <circle class="points" cx="69.5" cy="15.3"/>
  <circle class="points" cx="72.2" cy="14.4"/>
  <circle class="points" cx="74.9" cy="13.6"/>
  <circle class="points" cx="77.6" cy="12.8"/>
  <circle class="points" cx="80.4" cy="12.2"/>
  <circle class="points" cx="83.1" cy="11.6"/>
  <circle class="points" cx="85.9" cy="11.1"/>
  <circle class="points" cx="88.7" cy="10.7"/>
  <circle class="points" cx="91.5" cy="10.4"/>
  <circle class="points" cx="94.3" cy="10.2"/>
  <circle class="points" cx="97.2" cy="10.0"/>
  <circle class="points" cx="100.0" cy="10.0"/>
  <circle class="points" cx="102.8" cy="10.0"/>
  <circle class="points" cx="105.7" cy="10.2"/>
  <circle class="points" cx="108.5" cy="10.4"/>
  <circle class="points" cx="111.3" cy="10.7"/>
  <circle class="points" cx="114.1" cy="11.1"/>
  <circle class="points" cx="116.9" cy="11.6"/>
  <circle class="points" cx="119.6" cy="12.2"/>
  <circle class="points" cx="122.4" cy="12.8"/>
  <circle class="points" cx="125.1" cy="13.6"/>
  <circle class="points" cx="127.8" cy="14.4"/>
  <circle class="points" cx="130.5" cy="15.3"/>
  <circle class="points" cx="133.1" cy="16.3"/>
  <circle class="points" cx="135.7" cy="17.4"/>
  <circle class="points" cx="138.3" cy="18.6"/>
  <circle class="points" cx="140.9" cy="19.8"/>
  <circle class="points" cx="143.4" cy="21.1"/>
  <circle class="points" cx="145.8" cy="22.5"/>
  <circle class="points" cx="148.2" cy="24.0"/>
  <circle class="points" cx="150.6" cy="25.6"/>
  <circle class="points" cx="152.9" cy="27.2"/>
  <circle class="points" cx="155.2" cy="28.9"/>
  <circle class="points" cx="157.4" cy="30.7"/>
  <circle class="points" cx="159.5" cy="32.5"/>
  <circle class="points" cx="161.6" cy="34.4"/>
  <circle class="points" cx="163.6" cy="36.4"/>
  <circle class="points" cx="165.6" cy="38.4"/>
  <circle class="points" cx="167.5" cy="40.5"/>
  <circle class="points" cx="169.3" cy="42.6"/>
  <circle class="points" cx="171.1" cy="44.8"/>
  <circle class="points" cx="172.8" cy="47.1"/>
  <circle class="points" cx="174.4" cy="49.4"/>
  <circle class="points" cx="176.0" cy="51.8"/>
  <circle class="points" cx="177.5" cy="54.2"/>
  <circle class="points" cx="178.9" cy="56.6"/>
  <circle class="points" cx="180.2" cy="59.1"/>
  <circle class="points" cx="181.4" cy="61.7"/>
  <circle class="points" cx="182.6" cy="64.3"/>
  <circle class="points" cx="183.7" cy="66.9"/>
  <circle class="points" cx="184.7" cy="69.5"/>
  <circle class="points" cx="185.6" cy="72.2"/>
  <circle class="points" cx="186.4" cy="74.9"/>
  <circle class="points" cx="187.2" cy="77.6"/>
  <circle class="points" cx="187.8" cy="80.4"/>
  <circle class="points" cx="188.4" cy="83.1"/>
  <circle class="points" cx="188.9" cy="85.9"/>
  <circle class="points" cx="189.3" cy="88.7"/>
  <circle class="points" cx="189.6" cy="91.5"/>
  <circle class="points" cx="189.8" cy="94.3"/>
  <circle class="points" cx="190.0" cy="97.2"/>
  <line x1="190.0" y1="102.8" x2="189.8" y2="105.7"/>
  <line x1="189.8" y1="105.7" x2="189.3" y2="111.3"/>
  <line x1="189.6" y1="108.5" x2="188.4" y2="116.9"/>
  <line x1="189.3" y1="111.3" x2="187.2" y2="122.4"/>
  <line x1="188.9" y1="114.1" x2="185.6" y2="127.8"/>
  <line x1="188.4" y1="116.9" x2="183.7" y2="133.1"/>
  <line x1="187.8" y1="119.6" x2="181.4" y2="138.3"/>
  <line x1="187.2" y1="122.4" x2="178.9" y2="143.4"/>
  <line x1="186.4" y1="125.1" x2="176.0" y2="148.2"/>
  <line x1="185.6" y1="127.8" x2="172.8" y2="152.9"/>
  <line x1="184.7" y1="130.5" x2="169.3" y2="157.4"/>
  <line x1="183.7" y1="133.1" x2="165.6" y2="161.6"/>
  <line x1="182.6" y1="135.7" x2="161.6" y2="165.6"/>
  <line x1="181.4" y1="138.3" x2="157.4" y2="169.3"/>
  <line x1="180.2" y1="140.9" x2="152.9" y2="172.8"/>
  <line x1="178.9" y1="143.4" x2="148.2" y2="176.0"/>
  <line x1="177.5" y1="145.8" x2="143.4" y2="178.9"/>
  <line x1="176.0" y1="148.2" x2="138.3" y2="181.4"/>
  <line x1="174.4" y1="150.6" x2="133.1" y2="183.7"/>
  <line x1="172.8" y1="152.9" x2="127.8" y2="185.6"/>
  <line x1="171.1" y1="155.2" x2="122.4" y2="187.2"/>
  <line x1="169.3" y1="157.4" x2="116.9" y2="188.4"/>
  <line x1="167.5" y1="159.5" x2="111.3" y2="189.3"/>
  <line x1="165.6" y1="161.6" x2="105.7" y2="189.8"/>
  <line x1="163.6" y1="163.6" x2="100.0" y2="190.0"/>
  <line x1="161.6" y1="165.6" x2="94.3" y2="189.8"/>
  <line x1="159.5" y1="167.5" x2="88.7" y2="189.3"/>
  <line x1="157.4" y1="169.3" x2="83.1" y2="188.4"/>
  <line x1="155.2" y1="171.1" x2="77.6" y2="187.2"/>
  <line x1="152.9" y1="172.8" x2="72.2" y2="185.6"/>
  <line x1="150.6" y1="174.4" x2="66.9" y2="183.7"/>
  <line x1="148.2" y1="176.0" x2="61.7" y2="181.4"/>
  <line x1="145.8" y1="177.5" x2="56.6" y2="178.9"/>
  <line x1="143.4" y1="178.9" x2="51.8" y2="176.0"/>
  <line x1="140.9" y1="180.2" x2="47.1" y2="172.8"/>
  <line x1="138.3" y1="181.4" x2="42.6" y2="169.3"/>
  <line x1="135.7" y1="182.6" x2="38.4" y2="165.6"/>
  <line x1="133.1" y1="183.7" x2="34.4" y2="161.6"/>
  <line x1="130.5" y1="184.7" x2="30.7" y2="157.4"/>
  <line x1="127.8" y1="185.6" x2="27.2" y2="152.9"/>
  <line x1="125.1" y1="186.4" x2="24.0" y2="148.2"/>
  <line x1="122.4" y1="187.2" x2="21.1" y2="143.4"/>
  <line x1="119.6" y1="187.8" x2="18.6" y2="138.3"/>
  <line x1="116.9" y1="188.4" x2="16.3" y2="133.1"/>
  <line x1="114.1" y1="188.9" x2="14.4" y2="127.8"/>
  <line x1="111.3" y1="189.3" x2="12.8" y2="122.4"/>
  <line x1="108.5" y1="189.6" x2="11.6" y2="116.9"/>
  <line x1="105.7" y1="189.8" x2="10.7" y2="111.3"/>
  <line x1="102.8" y1="190.0" x2="10.2" y2="105.7"/>
  <line x1="100.0" y1="190.0" x2="10.0" y2="100.0"/>
  <line x1="97.2" y1="190.0" x2="10.2" y2="94.3"/>
  <line x1="94.3" y1="189.8" x2="10.7" y2="88.7"/>
  <line x1="91.5" y1="189.6" x2="11.6" y2="83.1"/>
  <line x1="88.7" y1="189.3" x2="12.8" y2="77.6"/>
  <line x1="85.9" y1="188.9" x2="14.4" y2="72.2"/>
  <line x1="83.1" y1="188.4" x2="16.3" y2="66.9"/>
  <line x1="80.4" y1="187.8" x2="18.6" y2="61.7"/>
  <line x1="77.6" y1="187.2" x2="21.1" y2="56.6"/>
  <line x1="74.9" y1="186.4" x2="24.0" y2="51.8"/>
  <line x1="72.2" y1="185.6" x2="27.2" y2="47.1"/>
  <line x1="69.5" y1="184.7" x2="30.7" y2="42.6"/>
  <line x1="66.9" y1="183.7" x2="34.4" y2="38.4"/>
  <line x1="64.3" y1="182.6" x2="38.4" y2="34.4"/>
  <line x1="61.7" y1="181.4" x2="42.6" y2="30.7"/>
  <line x1="59.1" y1="180.2" x2="47.1" y2="27.2"/>
  <line x1="56.6" y1="178.9" x2="51.8" y2="24.0"/>
  <line x1="54.2" y1="177.5" x2="56.6" y2="21.1"/>
  <line x1="51.8" y1="176.0" x2="61.7" y2="18.6"/>
  <line x1="49.4" y1="174.4" x2="66.9" y2="16.3"/>
  <line x1="47.1" y1="172.8" x2="72.2" y2="14.4"/>
  <line x1="44.8" y1="171.1" x2="77.6" y2="12.8"/>
  <line x1="42.6" y1="169.3" x2="83.1" y2="11.6"/>
  <line x1="40.5" y1="167.5" x2="88.7" y2="10.7"/>
  <line x1="38.4" y1="165.6" x2="94.3" y2="10.2"/>
  <line x1="36.4" y1="163.6" x2="100.0" y2="10.0"/>
  <line x1="34.4" y1="161.6" x2="105.7" y2="10.2"/>
  <line x1="32.5" y1="159.5" x2="111.3" y2="10.7"/>
  <line x1="30.7" y1="157.4" x2="116.9" y2="11.6"/>
  <line x1="28.9" y1="155.2" x2="122.4" y2="12.8"/>
  <line x1="27.2" y1="152.9" x2="127.8" y2="14.4"/>
  <line x1="25.6" y1="150.6" x2="133.1" y2="16.3"/>
  <line x1="24.0" y1="148.2" x2="138.3" y2="18.6"/>
  <line x1="22.5" y1="145.8" x2="143.4" y2="21.1"/>
  <line x1="21.1" y1="143.4" x2="148.2" y2="24.0"/>
  <line x1="19.8" y1="140.9" x2="152.9" y2="27.2"/>
  <line x1="18.6" y1="138.3" x2="157.4" y2="30.7"/>
  <line x1="17.4" y1="135.7" x2="161.6" y2="34.4"/>
  <line x1="16.3" y1="133.1" x2="165.6" y2="38.4"/>
  <line x1="15.3" y1="130.5" x2="169.3" y2="42.6"/>
  <line x1="14.4" y1="127.8" x2="172.8" y2="47.1"/>
  <line x1="13.6" y1="125.1" x2="176.0" y2="51.8"/>
  <line x1="12.8" y1="122.4" x2="178.9" y2="56.6"/>
  <line x1="12.2" y1="119.6" x2="181.4" y2="61.7"/>
  <line x1="11.6" y1="116.9" x2="183.7" y2="66.9"/>
  <line x1="11.1" y1="114.1" x2="185.6" y2="72.2"/>
  <line x1="10.7" y1="111.3" x2="187.2" y2="77.6"/>
  <line x1="10.4" y1="108.5" x2="188.4" y2="83.1"/>
  <line x1="10.2" y1="105.7" x2="189.3" y2="88.7"/>
  <line x1="10.0" y1="102.8" x2="189.8" y2="94.3"/>
  <line x1="10.0" y1="100.0" x2="190.0" y2="100.0"/>
  <line x1="10.0" y1="97.2" x2="189.8" y2="105.7"/>
  <line x1="10.2" y1="94.3" x2="189.3" y2="111.3"/>
  <line x1="10.4" y1="91.5" x2="188.4" y2="116.9"/>
  <line x1="10.7" y1="88.7" x2="187.2" y2="122.4"/>
  <line x1="11.1" y1="85.9" x2="185.6" y2="127.8"/>
  <line x1="11.6" y1="83.1" x2="183.7" y2="133.1"/>
  <line x1="12.2" y1="80.4" x2="181.4" y2="138.3"/>
  <line x1="12.8" y1="77.6" x2="178.9" y2="143.4"/>
  <line x1="13.6" y1="74.9" x2="176.0" y2="148.2"/>
  <line x1="14.4" y1="72.2" x2="172.8" y2="152.9"/>
  <line x1="15.3" y1="69.5" x2="169.3" y2="157.4"/>
  <line x1="16.3" y1="66.9" x2="165.6" y2="161.6"/>
  <line x1="17.4" y1="64.3" x2="161.6" y2="165.6"/>
  <line x1="18.6" y1="61.7" x2="157.4" y2="169.3"/>
  <line x1="19.8" y1="59.1" x2="152.9" y2="172.8"/>
  <line x1="21.1" y1="56.6" x2="148.2" y2="176.0"/>
  <line x1="22.5" y1="54.2" x2="143.4" y2="178.9"/>
  <line x1="24.0" y1="51.8" x2="138.3" y2="181.4"/>
  <line x1="25.6" y1="49.4" x2="133.1" y2="183.7"/>
  <line x1="27.2" y1="47.1" x2="127.8" y2="185.6"/>
  <line x1="28.9" y1="44.8" x2="122.4" y2="187.2"/>
  <line x1="30.7" y1="42.6" x2="116.9" y2="188.4"/>
  <line x1="32.5" y1="40.5" x2="111.3" y2="189.3"/>
  <line x1="34.4" y1="38.4" x2="105.7" y2="189.8"/>
  <line x1="36.4" y1="36.4" x2="100.0" y2="190.0"/>
  <line x1="38.4" y1="34.4" x2="94.3" y2="189.8"/>
  <line x1="40.5" y1="32.5" x2="88.7" y2="189.3"/>
  <line x1="42.6" y1="30.7" x2="83.1" y2="188.4"/>
  <line x1="44.8" y1="28.9" x2="77.6" y2="187.2"/>
  <line x1="47.1" y1="27.2" x2="72.2" y2="185.6"/>
  <line x1="49.4" y1="25.6" x2="66.9" y2="183.7"/>
  <line x1="51.8" y1="24.0" x2="61.7" y2="181.4"/>
  <line x1="54.2" y1="22.5" x2="56.6" y2="178.9"/>
  <line x1="56.6" y1="21.1" x2="51.8" y2="176.0"/>
  <line x1="59.1" y1="19.8" x2="47.1" y2="172.8"/>
  <line x1="61.7" y1="18.6" x2="42.6" y2="169.3"/>
  <line x1="64.3" y1="17.4" x2="38.4" y2="165.6"/>
  <line x1="66.9" y1="16.3" x2="34.4" y2="161.6"/>
  <line x1="69.5" y1="15.3" x2="30.7" y2="157.4"/>
  <line x1="72.2" y1="14.4" x2="27.2" y2="152.9"/>
  <line x1="74.9" y1="13.6" x2="24.0" y2="148.2"/>
  <line x1="77.6" y1="12.8" x2="21.1" y2="143.4"/>
  <line x1="80.4" y1="12.2" x2="18.6" y2="138.3"/>
  <line x1="83.1" y1="11.6" x2="16.3" y2="133.1"/>
  <line x1="85.9" y1="11.1" x2="14.4" y2="127.8"/>
  <line x1="88.7" y1="10.7" x2="12.8" y2="122.4"/>
  <line x1="91.5" y1="10.4" x2="11.6" y2="116.9"/>
  <line x1="94.3" y1="10.2" x2="10.7" y2="111.3"/>
  <line x1="97.2" y1="10.0" x2="10.2" y2="105.7"/>
  <line x1="100.0" y1="10.0" x2="10.0" y2="100.0"/>
  <line x1="102.8" y1="10.0" x2="10.2" y2="94.3"/>
  <line x1="105.7" y1="10.2" x2="10.7" y2="88.7"/>
  <line x1="108.5" y1="10.4" x2="11.6" y2="83.1"/>
  <line x1="111.3" y1="10.7" x2="12.8" y2="77.6"/>
  <line x1="114.1" y1="11.1" x2="14.4" y2="72.2"/>
  <line x1="116.9" y1="11.6" x2="16.3" y2="66.9"/>
  <line x1="119.6" y1="12.2" x2="18.6" y2="61.7"/>
  <line x1="122.4" y1="12.8" x2="21.1" y2="56.6"/>
  <line x1="125.1" y1="13.6" x2="24.0" y2="51.8"/>
  <line x1="127.8" y1="14.4" x2="27.2" y2="47.1"/>
  <line x1="130.5" y1="15.3" x2="30.7" y2="42.6"/>
  <line x1="133.1" y1="16.3" x2="34.4" y2="38.4"/>
  <line x1="135.7" y1="17.4" x2="38.4" y2="34.4"/>
  <line x1="138.3" y1="18.6" x2="42.6" y2="30.7"/>
  <line x1="140.9" y1="19.8" x2="47.1" y2="27.2"/>
  <line x1="143.4" y1="21.1" x2="51.8" y2="24.0"/>
  <line x1="145.8" y1="22.5" x2="56.6" y2="21.1"/>
  <line x1="148.2" y1="24.0" x2="61.7" y2="18.6"/>
  <line x1="150.6" y1="25.6" x2="66.9" y2="16.3"/>
  <line x1="152.9" y1="27.2" x2="72.2" y2="14.4"/>
  <line x1="155.2" y1="28.9" x2="77.6" y2="12.8"/>
  <line x1="157.4" y1="30.7" x2="83.1" y2="11.6"/>
  <line x1="159.5" y1="32.5" x2="88.7" y2="10.7"/>
  <line x1="161.6" y1="34.4" x2="94.3" y2="10.2"/>
  <line x1="163.6" y1="36.4" x2="100.0" y2="10.0"/>
  <line x1="165.6" y1="38.4" x2="105.7" y2="10.2"/>
  <line x1="167.5" y1="40.5" x2="111.3" y2="10.7"/>
  <line x1="169.3" y1="42.6" x2="116.9" y2="11.6"/>
  <line x1="171.1" y1="44.8" x2="122.4" y2="12.8"/>
  <line x1="172.8" y1="47.1" x2="127.8" y2="14.4"/>
  <line x1="174.4" y1="49.4" x2="133.1" y2="16.3"/>
  <line x1="176.0" y1="51.8" x2="138.3" y2="18.6"/>
  <line x1="177.5" y1="54.2" x2="143.4" y2="21.1"/>
  <line x1="178.9" y1="56.6" x2="148.2" y2="24.0"/>
  <line x1="180.2" y1="59.1" x2="152.9" y2="27.2"/>
  <line x1="181.4" y1="61.7" x2="157.4" y2="30.7"/>
  <line x1="182.6" y1="64.3" x2="161.6" y2="34.4"/>
  <line x1="183.7" y1="66.9" x2="165.6" y2="38.4"/>
  <line x1="184.7" y1="69.5" x2="169.3" y2="42.6"/>
  <line x1="185.6" y1="72.2" x2="172.8" y2="47.1"/>
  <line x1="186.4" y1="74.9" x2="176.0" y2="51.8"/>
  <line x1="187.2" y1="77.6" x2="178.9" y2="56.6"/>
  <line x1="187.8" y1="80.4" x2="181.4" y2="61.7"/>
  <line x1="188.4" y1="83.1" x2="183.7" y2="66.9"/>
  <line x1="188.9" y1="85.9" x2="185.6" y2="72.2"/>
  <line x1="189.3" y1="88.7" x2="187.2" y2="77.6"/>
  <line x1="189.6" y1="91.5" x2="188.4" y2="83.1"/>
  <line x1="189.8" y1="94.3" x2="189.3" y2="88.7"/>
  <line x1="190.0" y1="97.2" x2="189.8" y2="94.3"/>
</svg>
