<?xml version='1.0' encoding='UTF-8' standalone='no'?>
<svg xmlns="http://www.w3.org/2000/svg" xmlns:xlink="http://www.w3.org/1999/xlink" version="1.1" width="200" height="200" viewBox="0 0 200 200" style="border:1px solid black">
  <title>Draw color text</title>
  <style> text{font-family: Consolas; font-size: 12px; font-style: normal; font-variant: normal; white-space: pre; dominant-baseline: middle; text-anchor: middle; }</style>
  <text x="10" y="12" fill="#31ce0aff">3</text>
  <text x="16" y="12" fill="black">.</text>
  <text x="22" y="12" fill="#f2b963ff">1</text>
  <text x="28" y="12" fill="#00afb3ff">4</text>
  <text x="34" y="12" fill="#f2b963ff">1</text>
  <text x="40" y="12" fill="#230795ff">5</text>
  <text x="46" y="12" fill="#000000ff">9</text>
  <text x="52" y="12" fill="#e3952cff">2</text>
  <text x="58" y="12" fill="#73164bff">6</text>
  <text x="64" y="12" fill="#230795ff">5</text>
  <text x="70" y="12" fill="#31ce0aff">3</text>
  <text x="76" y="12" fill="#230795ff">5</text>
  <text x="82" y="12" fill="#271b1bff">8</text>
  <text x="88" y="12" fill="#000000ff">9</text>
  <text x="94" y="12" fill="#4e2020ff">7</text>
  <text x="100" y="12" fill="#000000ff">9</text>
  <text x="106" y="12" fill="#31ce0aff">3</text>
  <text x="112" y="12" fill="#e3952cff">2</text>
  <text x="118" y="12" fill="#31ce0aff">3</text>
  <text x="124" y="12" fill="#271b1bff">8</text>
  <text x="130" y="12" fill="#00afb3ff">4</text>
  <text x="136" y="12" fill="#73164bff">6</text>
  <text x="142" y="12" fill="#e3952cff">2</text>
  <text x="148" y="12" fill="#73164bff">6</text>
  <text x="154" y="12" fill="#00afb3ff">4</text>
  <text x="160" y="12" fill="#31ce0aff">3</text>
  <text x="166" y="12" fill="#31ce0aff">3</text>
  <text x="172" y="12" fill="#271b1bff">8</text>
  <text x="178" y="12" fill="#31ce0aff">3</text>
  <text x="184" y="12" fill="#e3952cff">2</text>
  <text x="10" y="28" fill="#4e2020ff">7</text>
  <text x="16" y="28" fill="#000000ff">9</text>
  <text x="22" y="28" fill="#230795ff">5</text>
  <text x="28" y="28" fill="#bdfbafff">0</text>
  <text x="34" y="28" fill="#e3952cff">2</text>
  <text x="40" y="28" fill="#271b1bff">8</text>
  <text x="46" y="28" fill="#271b1bff">8</text>
  <text x="52" y="28" fill="#00afb3ff">4</text>
  <text x="58" y="28" fill="#f2b963ff">1</text>
  <text x="64" y="28" fill="#000000ff">9</text>
  <text x="70" y="28" fill="#4e2020ff">7</text>
  <text x="76" y="28" fill="#f2b963ff">1</text>
  <text x="82" y="28" fill="#73164bff">6</text>
  <text x="88" y="28" fill="#000000ff">9</text>
  <text x="94" y="28" fill="#31ce0aff">3</text>
  <text x="100" y="28" fill="#000000ff">9</text>
  <text x="106" y="28" fill="#000000ff">9</text>
  <text x="112" y="28" fill="#31ce0aff">3</text>
  <text x="118" y="28" fill="#4e2020ff">7</text>
  <text x="124" y="28" fill="#230795ff">5</text>
  <text x="130" y="28" fill="#f2b963ff">1</text>
  <text x="136" y="28" fill="#bdfbafff">0</text>
  <text x="142" y="28" fill="#230795ff">5</text>
  <text x="148" y="28" fill="#271b1bff">8</text>
  <text x="154" y="28" fill="#e3952cff">2</text>
  <text x="160" y="28" fill="#bdfbafff">0</text>
  <text x="166" y="28" fill="#000000ff">9</text>
  <text x="172" y="28" fill="#4e2020ff">7</text>
  <text x="178" y="28" fill="#00afb3ff">4</text>
  <text x="184" y="28" fill="#000000ff">9</text>
  <text x="10" y="44" fill="#00afb3ff">4</text>
  <text x="16" y="44" fill="#00afb3ff">4</text>
  <text x="22" y="44" fill="#230795ff">5</text>
  <text x="28" y="44" fill="#000000ff">9</text>
  <text x="34" y="44" fill="#e3952cff">2</text>
  <text x="40" y="44" fill="#31ce0aff">3</text>
  <text x="46" y="44" fill="#bdfbafff">0</text>
  <text x="52" y="44" fill="#4e2020ff">7</text>
  <text x="58" y="44" fill="#271b1bff">8</text>
  <text x="64" y="44" fill="#f2b963ff">1</text>
  <text x="70" y="44" fill="#73164bff">6</text>
  <text x="76" y="44" fill="#00afb3ff">4</text>
  <text x="82" y="44" fill="#bdfbafff">0</text>
  <text x="88" y="44" fill="#73164bff">6</text>
  <text x="94" y="44" fill="#e3952cff">2</text>
  <text x="100" y="44" fill="#271b1bff">8</text>
  <text x="106" y="44" fill="#73164bff">6</text>
  <text x="112" y="44" fill="#e3952cff">2</text>
  <text x="118" y="44" fill="#bdfbafff">0</text>
  <text x="124" y="44" fill="#271b1bff">8</text>
  <text x="130" y="44" fill="#000000ff">9</text>
  <text x="136" y="44" fill="#000000ff">9</text>
  <text x="142" y="44" fill="#271b1bff">8</text>
  <text x="148" y="44" fill="#73164bff">6</text>
  <text x="154" y="44" fill="#e3952cff">2</text>
  <text x="160" y="44" fill="#271b1bff">8</text>
  <text x="166" y="44" fill="#bdfbafff">0</text>
  <text x="172" y="44" fill="#31ce0aff">3</text>
  <text x="178" y="44" fill="#00afb3ff">4</text>
  <text x="184" y="44" fill="#271b1bff">8</text>
  <text x="10" y="60" fill="#e3952cff">2</text>
  <text x="16" y="60" fill="#230795ff">5</text>
  <text x="22" y="60" fill="#31ce0aff">3</text>
  <text x="28" y="60" fill="#00afb3ff">4</text>
  <text x="34" y="60" fill="#e3952cff">2</text>
  <text x="40" y="60" fill="#f2b963ff">1</text>
  <text x="46" y="60" fill="#f2b963ff">1</text>
  <text x="52" y="60" fill="#4e2020ff">7</text>
  <text x="58" y="60" fill="#bdfbafff">0</text>
  <text x="64" y="60" fill="#73164bff">6</text>
  <text x="70" y="60" fill="#4e2020ff">7</text>
  <text x="76" y="60" fill="#000000ff">9</text>
  <text x="82" y="60" fill="#271b1bff">8</text>
  <text x="88" y="60" fill="#e3952cff">2</text>
  <text x="94" y="60" fill="#f2b963ff">1</text>
  <text x="100" y="60" fill="#00afb3ff">4</text>
  <text x="106" y="60" fill="#271b1bff">8</text>
  <text x="112" y="60" fill="#bdfbafff">0</text>
  <text x="118" y="60" fill="#271b1bff">8</text>
  <text x="124" y="60" fill="#73164bff">6</text>
  <text x="130" y="60" fill="#230795ff">5</text>
  <text x="136" y="60" fill="#f2b963ff">1</text>
  <text x="142" y="60" fill="#31ce0aff">3</text>
  <text x="148" y="60" fill="#e3952cff">2</text>
  <text x="154" y="60" fill="#271b1bff">8</text>
  <text x="160" y="60" fill="#e3952cff">2</text>
  <text x="166" y="60" fill="#31ce0aff">3</text>
  <text x="172" y="60" fill="#bdfbafff">0</text>
  <text x="178" y="60" fill="#73164bff">6</text>
  <text x="184" y="60" fill="#73164bff">6</text>
  <text x="10" y="76" fill="#00afb3ff">4</text>
  <text x="16" y="76" fill="#4e2020ff">7</text>
  <text x="22" y="76" fill="#bdfbafff">0</text>
  <text x="28" y="76" fill="#000000ff">9</text>
  <text x="34" y="76" fill="#31ce0aff">3</text>
  <text x="40" y="76" fill="#271b1bff">8</text>
  <text x="46" y="76" fill="#00afb3ff">4</text>
  <text x="52" y="76" fill="#00afb3ff">4</text>
  <text x="58" y="76" fill="#73164bff">6</text>
  <text x="64" y="76" fill="#bdfbafff">0</text>
  <text x="70" y="76" fill="#000000ff">9</text>
  <text x="76" y="76" fill="#230795ff">5</text>
  <text x="82" y="76" fill="#230795ff">5</text>
  <text x="88" y="76" fill="#bdfbafff">0</text>
  <text x="94" y="76" fill="#230795ff">5</text>
  <text x="100" y="76" fill="#271b1bff">8</text>
  <text x="106" y="76" fill="#e3952cff">2</text>
  <text x="112" y="76" fill="#e3952cff">2</text>
  <text x="118" y="76" fill="#31ce0aff">3</text>
  <text x="124" y="76" fill="#f2b963ff">1</text>
  <text x="130" y="76" fill="#4e2020ff">7</text>
  <text x="136" y="76" fill="#e3952cff">2</text>
  <text x="142" y="76" fill="#230795ff">5</text>
  <text x="148" y="76" fill="#31ce0aff">3</text>
  <text x="154" y="76" fill="#230795ff">5</text>
  <text x="160" y="76" fill="#000000ff">9</text>
  <text x="166" y="76" fill="#00afb3ff">4</text>
  <text x="172" y="76" fill="#bdfbafff">0</text>
  <text x="178" y="76" fill="#271b1bff">8</text>
  <text x="184" y="76" fill="#f2b963ff">1</text>
  <text x="10" y="92" fill="#e3952cff">2</text>
  <text x="16" y="92" fill="#271b1bff">8</text>
  <text x="22" y="92" fill="#00afb3ff">4</text>
  <text x="28" y="92" fill="#271b1bff">8</text>
  <text x="34" y="92" fill="#f2b963ff">1</text>
  <text x="40" y="92" fill="#f2b963ff">1</text>
  <text x="46" y="92" fill="#f2b963ff">1</text>
  <text x="52" y="92" fill="#4e2020ff">7</text>
  <text x="58" y="92" fill="#00afb3ff">4</text>
  <text x="64" y="92" fill="#230795ff">5</text>
  <text x="70" y="92" fill="#bdfbafff">0</text>
  <text x="76" y="92" fill="#e3952cff">2</text>
  <text x="82" y="92" fill="#271b1bff">8</text>
  <text x="88" y="92" fill="#00afb3ff">4</text>
  <text x="94" y="92" fill="#f2b963ff">1</text>
  <text x="100" y="92" fill="#bdfbafff">0</text>
  <text x="106" y="92" fill="#e3952cff">2</text>
  <text x="112" y="92" fill="#4e2020ff">7</text>
  <text x="118" y="92" fill="#bdfbafff">0</text>
  <text x="124" y="92" fill="#f2b963ff">1</text>
  <text x="130" y="92" fill="#000000ff">9</text>
  <text x="136" y="92" fill="#31ce0aff">3</text>
  <text x="142" y="92" fill="#271b1bff">8</text>
  <text x="148" y="92" fill="#230795ff">5</text>
  <text x="154" y="92" fill="#e3952cff">2</text>
  <text x="160" y="92" fill="#f2b963ff">1</text>
  <text x="166" y="92" fill="#f2b963ff">1</text>
  <text x="172" y="92" fill="#bdfbafff">0</text>
  <text x="178" y="92" fill="#230795ff">5</text>
  <text x="184" y="92" fill="#230795ff">5</text>
  <text x="10" y="108" fill="#230795ff">5</text>
  <text x="16" y="108" fill="#000000ff">9</text>
  <text x="22" y="108" fill="#73164bff">6</text>
  <text x="28" y="108" fill="#00afb3ff">4</text>
  <text x="34" y="108" fill="#00afb3ff">4</text>
  <text x="40" y="108" fill="#73164bff">6</text>
  <text x="46" y="108" fill="#e3952cff">2</text>
  <text x="52" y="108" fill="#e3952cff">2</text>
  <text x="58" y="108" fill="#000000ff">9</text>
  <text x="64" y="108" fill="#00afb3ff">4</text>
  <text x="70" y="108" fill="#271b1bff">8</text>
  <text x="76" y="108" fill="#000000ff">9</text>
  <text x="82" y="108" fill="#230795ff">5</text>
  <text x="88" y="108" fill="#00afb3ff">4</text>
  <text x="94" y="108" fill="#000000ff">9</text>
  <text x="100" y="108" fill="#31ce0aff">3</text>
  <text x="106" y="108" fill="#bdfbafff">0</text>
  <text x="112" y="108" fill="#31ce0aff">3</text>
  <text x="118" y="108" fill="#271b1bff">8</text>
  <text x="124" y="108" fill="#f2b963ff">1</text>
  <text x="130" y="108" fill="#000000ff">9</text>
  <text x="136" y="108" fill="#73164bff">6</text>
  <text x="142" y="108" fill="#00afb3ff">4</text>
  <text x="148" y="108" fill="#00afb3ff">4</text>
  <text x="154" y="108" fill="#e3952cff">2</text>
  <text x="160" y="108" fill="#271b1bff">8</text>
  <text x="166" y="108" fill="#271b1bff">8</text>
  <text x="172" y="108" fill="#f2b963ff">1</text>
  <text x="178" y="108" fill="#bdfbafff">0</text>
  <text x="184" y="108" fill="#000000ff">9</text>
  <text x="10" y="124" fill="#4e2020ff">7</text>
  <text x="16" y="124" fill="#230795ff">5</text>
  <text x="22" y="124" fill="#73164bff">6</text>
  <text x="28" y="124" fill="#73164bff">6</text>
  <text x="34" y="124" fill="#230795ff">5</text>
  <text x="40" y="124" fill="#000000ff">9</text>
  <text x="46" y="124" fill="#31ce0aff">3</text>
  <text x="52" y="124" fill="#31ce0aff">3</text>
  <text x="58" y="124" fill="#00afb3ff">4</text>
  <text x="64" y="124" fill="#00afb3ff">4</text>
  <text x="70" y="124" fill="#73164bff">6</text>
  <text x="76" y="124" fill="#f2b963ff">1</text>
  <text x="82" y="124" fill="#e3952cff">2</text>
  <text x="88" y="124" fill="#271b1bff">8</text>
  <text x="94" y="124" fill="#00afb3ff">4</text>
  <text x="100" y="124" fill="#4e2020ff">7</text>
  <text x="106" y="124" fill="#230795ff">5</text>
  <text x="112" y="124" fill="#73164bff">6</text>
  <text x="118" y="124" fill="#00afb3ff">4</text>
  <text x="124" y="124" fill="#271b1bff">8</text>
  <text x="130" y="124" fill="#e3952cff">2</text>
  <text x="136" y="124" fill="#31ce0aff">3</text>
  <text x="142" y="124" fill="#31ce0aff">3</text>
  <text x="148" y="124" fill="#4e2020ff">7</text>
  <text x="154" y="124" fill="#271b1bff">8</text>
  <text x="160" y="124" fill="#73164bff">6</text>
  <text x="166" y="124" fill="#4e2020ff">7</text>
  <text x="172" y="124" fill="#271b1bff">8</text>
  <text x="178" y="124" fill="#31ce0aff">3</text>
  <text x="184" y="124" fill="#f2b963ff">1</text>
  <text x="10" y="140" fill="#73164bff">6</text>
  <text x="16" y="140" fill="#230795ff">5</text>
  <text x="22" y="140" fill="#e3952cff">2</text>
  <text x="28" y="140" fill="#4e2020ff">7</text>
  <text x="34" y="140" fill="#f2b963ff">1</text>
  <text x="40" y="140" fill="#e3952cff">2</text>
  <text x="46" y="140" fill="#bdfbafff">0</text>
  <text x="52" y="140" fill="#f2b963ff">1</text>
  <text x="58" y="140" fill="#000000ff">9</text>
  <text x="64" y="140" fill="#bdfbafff">0</text>
  <text x="70" y="140" fill="#000000ff">9</text>
  <text x="76" y="140" fill="#f2b963ff">1</text>
  <text x="82" y="140" fill="#00afb3ff">4</text>
  <text x="88" y="140" fill="#230795ff">5</text>
  <text x="94" y="140" fill="#73164bff">6</text>
  <text x="100" y="140" fill="#00afb3ff">4</text>
  <text x="106" y="140" fill="#271b1bff">8</text>
  <text x="112" y="140" fill="#230795ff">5</text>
  <text x="118" y="140" fill="#73164bff">6</text>
  <text x="124" y="140" fill="#73164bff">6</text>
  <text x="130" y="140" fill="#000000ff">9</text>
  <text x="136" y="140" fill="#e3952cff">2</text>
  <text x="142" y="140" fill="#31ce0aff">3</text>
  <text x="148" y="140" fill="#00afb3ff">4</text>
  <text x="154" y="140" fill="#73164bff">6</text>
  <text x="160" y="140" fill="#bdfbafff">0</text>
  <text x="166" y="140" fill="#31ce0aff">3</text>
  <text x="172" y="140" fill="#00afb3ff">4</text>
  <text x="178" y="140" fill="#271b1bff">8</text>
  <text x="184" y="140" fill="#73164bff">6</text>
  <text x="10" y="156" fill="#f2b963ff">1</text>
  <text x="16" y="156" fill="#bdfbafff">0</text>
  <text x="22" y="156" fill="#00afb3ff">4</text>
  <text x="28" y="156" fill="#230795ff">5</text>
  <text x="34" y="156" fill="#00afb3ff">4</text>
  <text x="40" y="156" fill="#31ce0aff">3</text>
  <text x="46" y="156" fill="#e3952cff">2</text>
  <text x="52" y="156" fill="#73164bff">6</text>
  <text x="58" y="156" fill="#73164bff">6</text>
  <text x="64" y="156" fill="#00afb3ff">4</text>
  <text x="70" y="156" fill="#271b1bff">8</text>
  <text x="76" y="156" fill="#e3952cff">2</text>
  <text x="82" y="156" fill="#f2b963ff">1</text>
  <text x="88" y="156" fill="#31ce0aff">3</text>
  <text x="94" y="156" fill="#31ce0aff">3</text>
  <text x="100" y="156" fill="#000000ff">9</text>
  <text x="106" y="156" fill="#31ce0aff">3</text>
  <text x="112" y="156" fill="#73164bff">6</text>
  <text x="118" y="156" fill="#bdfbafff">0</text>
  <text x="124" y="156" fill="#4e2020ff">7</text>
  <text x="130" y="156" fill="#e3952cff">2</text>
  <text x="136" y="156" fill="#73164bff">6</text>
  <text x="142" y="156" fill="#bdfbafff">0</text>
  <text x="148" y="156" fill="#e3952cff">2</text>
  <text x="154" y="156" fill="#00afb3ff">4</text>
  <text x="160" y="156" fill="#000000ff">9</text>
  <text x="166" y="156" fill="#f2b963ff">1</text>
  <text x="172" y="156" fill="#00afb3ff">4</text>
  <text x="178" y="156" fill="#f2b963ff">1</text>
  <text x="184" y="156" fill="#e3952cff">2</text>
  <text x="10" y="172" fill="#4e2020ff">7</text>
  <text x="16" y="172" fill="#31ce0aff">3</text>
  <text x="22" y="172" fill="#4e2020ff">7</text>
  <text x="28" y="172" fill="#e3952cff">2</text>
  <text x="34" y="172" fill="#00afb3ff">4</text>
  <text x="40" y="172" fill="#230795ff">5</text>
  <text x="46" y="172" fill="#271b1bff">8</text>
  <text x="52" y="172" fill="#4e2020ff">7</text>
  <text x="58" y="172" fill="#bdfbafff">0</text>
  <text x="64" y="172" fill="#bdfbafff">0</text>
  <text x="70" y="172" fill="#73164bff">6</text>
  <text x="76" y="172" fill="#73164bff">6</text>
  <text x="82" y="172" fill="#bdfbafff">0</text>
  <text x="88" y="172" fill="#73164bff">6</text>
  <text x="94" y="172" fill="#31ce0aff">3</text>
  <text x="100" y="172" fill="#f2b963ff">1</text>
  <text x="106" y="172" fill="#230795ff">5</text>
  <text x="112" y="172" fill="#230795ff">5</text>
  <text x="118" y="172" fill="#271b1bff">8</text>
  <text x="124" y="172" fill="#271b1bff">8</text>
  <text x="130" y="172" fill="#f2b963ff">1</text>
  <text x="136" y="172" fill="#4e2020ff">7</text>
  <text x="142" y="172" fill="#00afb3ff">4</text>
  <text x="148" y="172" fill="#271b1bff">8</text>
  <text x="154" y="172" fill="#271b1bff">8</text>
  <text x="160" y="172" fill="#f2b963ff">1</text>
  <text x="166" y="172" fill="#230795ff">5</text>
  <text x="172" y="172" fill="#e3952cff">2</text>
  <text x="178" y="172" fill="#bdfbafff">0</text>
  <text x="184" y="172" fill="#000000ff">9</text>
  <text x="10" y="188" fill="#e3952cff">2</text>
  <text x="16" y="188" fill="#bdfbafff">0</text>
  <text x="22" y="188" fill="#000000ff">9</text>
  <text x="28" y="188" fill="#73164bff">6</text>
  <text x="34" y="188" fill="#e3952cff">2</text>
  <text x="40" y="188" fill="#271b1bff">8</text>
  <text x="46" y="188" fill="#e3952cff">2</text>
  <text x="52" y="188" fill="#000000ff">9</text>
  <text x="58" y="188" fill="#e3952cff">2</text>
  <text x="64" y="188" fill="#230795ff">5</text>
  <text x="70" y="188" fill="#00afb3ff">4</text>
  <text x="76" y="188" fill="#bdfbafff">0</text>
  <text x="82" y="188" fill="#000000ff">9</text>
  <text x="88" y="188" fill="#f2b963ff">1</text>
  <text x="94" y="188" fill="#4e2020ff">7</text>
  <text x="100" y="188" fill="#f2b963ff">1</text>
  <text x="106" y="188" fill="#230795ff">5</text>
  <text x="112" y="188" fill="#31ce0aff">3</text>
  <text x="118" y="188" fill="#73164bff">6</text>
  <text x="124" y="188" fill="#00afb3ff">4</text>
  <text x="130" y="188" fill="#31ce0aff">3</text>
  <text x="136" y="188" fill="#73164bff">6</text>
  <text x="142" y="188" fill="#4e2020ff">7</text>
  <text x="148" y="188" fill="#271b1bff">8</text>
  <text x="154" y="188" fill="#000000ff">9</text>
  <text x="160" y="188" fill="#e3952cff">2</text>
  <text x="166" y="188" fill="#230795ff">5</text>
  <text x="172" y="188" fill="#000000ff">9</text>
  <text x="178" y="188" fill="#bdfbafff">0</text>
  <text x="184" y="188" fill="#31ce0aff">3</text>
</svg>
