<?xml version='1.0' encoding='UTF-8' standalone='no'?>
<svg xmlns="http://www.w3.org/2000/svg" xmlns:xlink="http://www.w3.org/1999/xlink" width="200" height="120" version="1.1">
  <rect x="0" y="0" width="200" height="120" fill="none" stroke="black" stroke-width="1" opacity="0.8"/>
  <title>draw Datafrane data</title>
  <g opacity="1.0">
    <style> line { stroke: black; stroke-width: 0.5;  } </style>
    <line x1="5" y1="5.0" x2="195.0" y2="5.0"/>
    <line x1="5" y1="23.333333333333332" x2="195.0" y2="23.333333333333332"/>
    <line x1="5" y1="41.666666666666664" x2="195.0" y2="41.666666666666664"/>
    <line x1="5" y1="60.0" x2="195.0" y2="60.0"/>
    <line x1="5" y1="78.33333333333333" x2="195.0" y2="78.33333333333333"/>
    <line x1="5" y1="96.66666666666666" x2="195.0" y2="96.66666666666666"/>
    <line x1="5" y1="115.0" x2="195.0" y2="115.0"/>
    <line x1="5.0" y1="5" x2="5.0" y2="115.0"/>
    <line x1="52.5" y1="5" x2="52.5" y2="115.0"/>
    <line x1="100.0" y1="5" x2="100.0" y2="115.0"/>
    <line x1="147.5" y1="5" x2="147.5" y2="115.0"/>
    <line x1="195.0" y1="5" x2="195.0" y2="115.0"/>
    <style> text { font-family: Consolas; dominant-baseline: middle; text-anchor: middle;  } </style>
    <text font-size="14px" fill="red" x="28.75" y="32.5">0</text>
    <text font-size="14px" fill="red" x="28.75" y="50.83333333333333">1</text>
    <text font-size="14px" fill="red" x="28.75" y="69.16666666666667">2</text>
    <text font-size="14px" fill="red" x="28.75" y="87.5">3</text>
    <text font-size="14px" fill="red" x="28.75" y="105.83333333333333">4</text>
    <text font-size="14px" fill="red" x="76.25" y="14.166666666666666">A</text>
    <text font-size="14px" fill="red" x="123.75" y="14.166666666666666">B</text>
    <text font-size="14px" fill="red" x="171.25" y="14.166666666666666">C</text>
    <text font-size="12px" fill="black" x="76.25" y="32.5">55</text>
    <text font-size="12px" fill="black" x="123.75" y="32.5">52</text>
    <text font-size="12px" fill="black" x="171.25" y="32.5">127</text>
    <text font-size="12px" fill="black" x="76.25" y="50.83333333333333">76</text>
    <text font-size="12px" fill="black" x="123.75" y="50.83333333333333">87</text>
    <text font-size="12px" fill="black" x="171.25" y="50.83333333333333">134</text>
    <text font-size="12px" fill="black" x="76.25" y="69.16666666666667">40</text>
    <text font-size="12px" fill="black" x="123.75" y="69.16666666666667">94</text>
    <text font-size="12px" fill="black" x="171.25" y="69.16666666666667">86</text>
    <text font-size="12px" fill="black" x="76.25" y="87.5">104</text>
    <text font-size="12px" fill="black" x="123.75" y="87.5">104</text>
    <text font-size="12px" fill="black" x="171.25" y="87.5">1</text>
    <text font-size="12px" fill="black" x="76.25" y="105.83333333333333">123</text>
    <text font-size="12px" fill="black" x="123.75" y="105.83333333333333">31</text>
    <text font-size="12px" fill="black" x="171.25" y="105.83333333333333">75</text>
  </g>
</svg>
