<?xml version='1.0' encoding='UTF-8' standalone='no'?>
<svg xmlns="http://www.w3.org/2000/svg" xmlns:xlink="http://www.w3.org/1999/xlink" width="200" height="120" version="1.1">
  <rect x="0" y="0" width="200" height="120" fill="none" stroke="black" stroke-width="1" opacity="0.8"/>
  <title>draw Datafrane data</title>
  <g opacity="1.0">
    <style> line { stroke: black; stroke-width: 0.5;  } </style>
    <line x1="5" y1="5.0" x2="195.0" y2="5.0"/>
    <line x1="5" y1="23.333333333333332" x2="195.0" y2="23.333333333333332"/>
    <line x1="5" y1="41.666666666666664" x2="195.0" y2="41.666666666666664"/>
    <line x1="5" y1="60.0" x2="195.0" y2="60.0"/>
    <line x1="5" y1="78.33333333333333" x2="195.0" y2="78.33333333333333"/>
    <line x1="5" y1="96.66666666666666" x2="195.0" y2="96.66666666666666"/>
    <line x1="5" y1="115.0" x2="195.0" y2="115.0"/>
    <line x1="5.0" y1="5" x2="5.0" y2="115.0"/>
    <line x1="52.5" y1="5" x2="52.5" y2="115.0"/>
    <line x1="100.0" y1="5" x2="100.0" y2="115.0"/>
    <line x1="147.5" y1="5" x2="147.5" y2="115.0"/>
    <line x1="195.0" y1="5" x2="195.0" y2="115.0"/>
    <style> text { font-family: Consolas; dominant-baseline: middle; text-anchor: middle;  } </style>
    <text font-size="14px" fill="red" x="28.75" y="32.5">0</text>
    <text font-size="14px" fill="red" x="28.75" y="50.83333333333333">1</text>
    <text font-size="14px" fill="red" x="28.75" y="69.16666666666667">2</text>
    <text font-size="14px" fill="red" x="28.75" y="87.5">3</text>
    <text font-size="14px" fill="red" x="28.75" y="105.83333333333333">4</text>
    <text font-size="14px" fill="red" x="76.25" y="14.166666666666666">A</text>
    <text font-size="14px" fill="red" x="123.75" y="14.166666666666666">B</text>
    <text font-size="14px" fill="red" x="171.25" y="14.166666666666666">C</text>
    <rect font-size="14px" fill="#796984" x="52.5" y="23.333333333333332" width="47.5" height="18.333333333333332">83</rect>
    <rect font-size="14px" fill="#687499" x="100.0" y="23.333333333333332" width="47.5" height="18.333333333333332">98</rect>
    <rect font-size="14px" fill="#67759a" x="147.5" y="23.333333333333332" width="47.5" height="18.333333333333332">99</rect>
    <rect font-size="14px" fill="#687499" x="52.5" y="41.666666666666664" width="47.5" height="18.333333333333332">98</rect>
    <rect font-size="14px" fill="#846277" x="100.0" y="41.666666666666664" width="47.5" height="18.333333333333332">73</rect>
    <rect font-size="14px" fill="#9d5157" x="147.5" y="41.666666666666664" width="47.5" height="18.333333333333332">50</rect>
    <rect font-size="14px" fill="#3498db" x="52.5" y="60.0" width="47.5" height="18.333333333333332">146</rect>
    <rect font-size="14px" fill="#3895d5" x="100.0" y="60.0" width="47.5" height="18.333333333333332">142</rect>
    <rect font-size="14px" fill="#945762" x="147.5" y="60.0" width="47.5" height="18.333333333333332">58</rect>
    <rect font-size="14px" fill="#796984" x="52.5" y="78.33333333333333" width="47.5" height="18.333333333333332">83</rect>
    <rect font-size="14px" fill="#c0392b" x="100.0" y="78.33333333333333" width="47.5" height="18.333333333333332">18</rect>
    <rect font-size="14px" fill="#3796d7" x="147.5" y="78.33333333333333" width="47.5" height="18.333333333333332">143</rect>
    <rect font-size="14px" fill="#8d5c6c" x="52.5" y="96.66666666666666" width="47.5" height="18.333333333333332">65</rect>
    <rect font-size="14px" fill="#a14e52" x="100.0" y="96.66666666666666" width="47.5" height="18.333333333333332">46</rect>
    <rect font-size="14px" fill="#885f71" x="147.5" y="96.66666666666666" width="47.5" height="18.333333333333332">69</rect>
  </g>
</svg>
