<?xml version='1.0' encoding='UTF-8' standalone='no'?>
<svg xmlns="http://www.w3.org/2000/svg" xmlns:xlink="http://www.w3.org/1999/xlink" width="200" height="120" version="1.1">
  <rect x="0" y="0" width="200" height="120" fill="none" stroke="black" stroke-width="1" opacity="0.8"/>
  <title>draw Datafrane data</title>
  <g opacity="1.0">
    <style> line { stroke: black; stroke-width: 0.5;  } </style>
    <line x1="5" y1="5.0" x2="195.0" y2="5.0"/>
    <line x1="5" y1="23.333333333333332" x2="195.0" y2="23.333333333333332"/>
    <line x1="5" y1="41.666666666666664" x2="195.0" y2="41.666666666666664"/>
    <line x1="5" y1="60.0" x2="195.0" y2="60.0"/>
    <line x1="5" y1="78.33333333333333" x2="195.0" y2="78.33333333333333"/>
    <line x1="5" y1="96.66666666666666" x2="195.0" y2="96.66666666666666"/>
    <line x1="5" y1="115.0" x2="195.0" y2="115.0"/>
    <line x1="5.0" y1="5" x2="5.0" y2="115.0"/>
    <line x1="52.5" y1="5" x2="52.5" y2="115.0"/>
    <line x1="100.0" y1="5" x2="100.0" y2="115.0"/>
    <line x1="147.5" y1="5" x2="147.5" y2="115.0"/>
    <line x1="195.0" y1="5" x2="195.0" y2="115.0"/>
    <style> text { font-family: Consolas; dominant-baseline: middle; text-anchor: middle;  } </style>
    <text font-size="14px" fill="red" x="28.75" y="32.5">0</text>
    <text font-size="14px" fill="red" x="28.75" y="50.83333333333333">1</text>
    <text font-size="14px" fill="red" x="28.75" y="69.16666666666667">2</text>
    <text font-size="14px" fill="red" x="28.75" y="87.5">3</text>
    <text font-size="14px" fill="red" x="28.75" y="105.83333333333333">4</text>
    <text font-size="14px" fill="red" x="76.25" y="14.166666666666666">A</text>
    <text font-size="14px" fill="red" x="123.75" y="14.166666666666666">B</text>
    <text font-size="14px" fill="red" x="171.25" y="14.166666666666666">C</text>
    <circle cx="76.25" cy="32.5" r="8.0" fill="#FFC10E"/>
    <circle cx="73.61" cy="29.78" r="1.28" fill="#333333"/>
    <circle cx="78.89" cy="29.78" r="1.28" fill="#333333"/>
    <path d="M 71.45 32.9 C 73.05 38.74, 79.45 38.74, 81.05 32.9" stroke="black" stroke-width="0.88" fill="transparent"/>
    <circle cx="71.45" cy="32.9" r="0.44" fill="black"/>
    <circle cx="81.05" cy="32.9" r="0.44" fill="black"/>
    <circle cx="123.75" cy="32.5" r="8.0" fill="#FFC10E"/>
    <circle cx="121.11" cy="29.78" r="1.28" fill="#333333"/>
    <circle cx="126.39" cy="29.78" r="1.28" fill="#333333"/>
    <path d="M 118.95 32.9 C 120.55 38.74, 126.95 38.74, 128.55 32.9" stroke="black" stroke-width="0.88" fill="transparent"/>
    <circle cx="118.95" cy="32.9" r="0.44" fill="black"/>
    <circle cx="128.55" cy="32.9" r="0.44" fill="black"/>
    <circle cx="171.25" cy="32.5" r="8.0" fill="#FFC10E"/>
    <circle cx="168.61" cy="29.78" r="1.28" fill="#333333"/>
    <circle cx="173.89" cy="29.78" r="1.28" fill="#333333"/>
    <path d="M 166.45 32.9 C 168.05 38.74, 174.45 38.74, 176.05 32.9" stroke="black" stroke-width="0.88" fill="transparent"/>
    <circle cx="166.45" cy="32.9" r="0.44" fill="black"/>
    <circle cx="176.05" cy="32.9" r="0.44" fill="black"/>
    <circle cx="76.25" cy="50.83333333333333" r="8.0" fill="#FFC10E"/>
    <circle cx="73.61" cy="48.11333333333333" r="1.28" fill="#333333"/>
    <circle cx="78.89" cy="48.11333333333333" r="1.28" fill="#333333"/>
    <path d="M 71.45 51.23333333333333 C 73.05 57.07333333333333, 79.45 57.07333333333333, 81.05 51.23333333333333" stroke="black" stroke-width="0.88" fill="transparent"/>
    <circle cx="71.45" cy="51.23333333333333" r="0.44" fill="black"/>
    <circle cx="81.05" cy="51.23333333333333" r="0.44" fill="black"/>
    <circle cx="123.75" cy="50.83333333333333" r="8.0" fill="#FFC10E"/>
    <circle cx="121.11" cy="48.11333333333333" r="1.28" fill="#333333"/>
    <circle cx="126.39" cy="48.11333333333333" r="1.28" fill="#333333"/>
    <path d="M 118.95 51.23333333333333 C 120.55 57.07333333333333, 126.95 57.07333333333333, 128.55 51.23333333333333" stroke="black" stroke-width="0.88" fill="transparent"/>
    <circle cx="118.95" cy="51.23333333333333" r="0.44" fill="black"/>
    <circle cx="128.55" cy="51.23333333333333" r="0.44" fill="black"/>
    <circle cx="171.25" cy="50.83333333333333" r="8.0" fill="#FFC10E"/>
    <circle cx="168.61" cy="48.11333333333333" r="1.28" fill="#333333"/>
    <circle cx="173.89" cy="48.11333333333333" r="1.28" fill="#333333"/>
    <path d="M 166.45 51.23333333333333 C 168.05 57.07333333333333, 174.45 57.07333333333333, 176.05 51.23333333333333" stroke="black" stroke-width="0.88" fill="transparent"/>
    <circle cx="166.45" cy="51.23333333333333" r="0.44" fill="black"/>
    <circle cx="176.05" cy="51.23333333333333" r="0.44" fill="black"/>
    <circle cx="76.25" cy="69.16666666666667" r="8.0" fill="#FFC10E"/>
    <circle cx="73.61" cy="66.44666666666667" r="1.28" fill="#333333"/>
    <circle cx="78.89" cy="66.44666666666667" r="1.28" fill="#333333"/>
    <path d="M 71.45 69.56666666666668 C 73.05 75.40666666666667, 79.45 75.40666666666667, 81.05 69.56666666666668" stroke="black" stroke-width="0.88" fill="transparent"/>
    <circle cx="71.45" cy="69.56666666666668" r="0.44" fill="black"/>
    <circle cx="81.05" cy="69.56666666666668" r="0.44" fill="black"/>
    <circle cx="123.75" cy="69.16666666666667" r="8.0" fill="#FFC10E"/>
    <circle cx="121.11" cy="66.44666666666667" r="1.28" fill="#333333"/>
    <circle cx="126.39" cy="66.44666666666667" r="1.28" fill="#333333"/>
    <path d="M 118.95 69.56666666666668 C 120.55 75.40666666666667, 126.95 75.40666666666667, 128.55 69.56666666666668" stroke="black" stroke-width="0.88" fill="transparent"/>
    <circle cx="118.95" cy="69.56666666666668" r="0.44" fill="black"/>
    <circle cx="128.55" cy="69.56666666666668" r="0.44" fill="black"/>
    <circle cx="171.25" cy="69.16666666666667" r="8.0" fill="#FFC10E"/>
    <circle cx="168.61" cy="66.44666666666667" r="1.28" fill="#333333"/>
    <circle cx="173.89" cy="66.44666666666667" r="1.28" fill="#333333"/>
    <path d="M 166.45 69.56666666666668 C 168.05 75.40666666666667, 174.45 75.40666666666667, 176.05 69.56666666666668" stroke="black" stroke-width="0.88" fill="transparent"/>
    <circle cx="166.45" cy="69.56666666666668" r="0.44" fill="black"/>
    <circle cx="176.05" cy="69.56666666666668" r="0.44" fill="black"/>
    <circle cx="76.25" cy="87.5" r="8.0" fill="#FFC10E"/>
    <circle cx="73.61" cy="84.78" r="1.28" fill="#333333"/>
    <circle cx="78.89" cy="84.78" r="1.28" fill="#333333"/>
    <path d="M 71.45 87.9 C 73.05 93.74, 79.45 93.74, 81.05 87.9" stroke="black" stroke-width="0.88" fill="transparent"/>
    <circle cx="71.45" cy="87.9" r="0.44" fill="black"/>
    <circle cx="81.05" cy="87.9" r="0.44" fill="black"/>
    <circle cx="123.75" cy="87.5" r="8.0" fill="#FFC10E"/>
    <circle cx="121.11" cy="84.78" r="1.28" fill="#333333"/>
    <circle cx="126.39" cy="84.78" r="1.28" fill="#333333"/>
    <path d="M 118.95 87.9 C 120.55 93.74, 126.95 93.74, 128.55 87.9" stroke="black" stroke-width="0.88" fill="transparent"/>
    <circle cx="118.95" cy="87.9" r="0.44" fill="black"/>
    <circle cx="128.55" cy="87.9" r="0.44" fill="black"/>
    <circle cx="171.25" cy="87.5" r="8.0" fill="#FFC10E"/>
    <circle cx="168.61" cy="84.78" r="1.28" fill="#333333"/>
    <circle cx="173.89" cy="84.78" r="1.28" fill="#333333"/>
    <path d="M 166.45 87.9 C 168.05 93.74, 174.45 93.74, 176.05 87.9" stroke="black" stroke-width="0.88" fill="transparent"/>
    <circle cx="166.45" cy="87.9" r="0.44" fill="black"/>
    <circle cx="176.05" cy="87.9" r="0.44" fill="black"/>
    <circle cx="76.25" cy="105.83333333333333" r="8.0" fill="#FFC10E"/>
    <circle cx="73.61" cy="103.11333333333333" r="1.28" fill="#333333"/>
    <circle cx="78.89" cy="103.11333333333333" r="1.28" fill="#333333"/>
    <path d="M 71.45 106.23333333333333 C 73.05 112.07333333333332, 79.45 112.07333333333332, 81.05 106.23333333333333" stroke="black" stroke-width="0.88" fill="transparent"/>
    <circle cx="71.45" cy="106.23333333333333" r="0.44" fill="black"/>
    <circle cx="81.05" cy="106.23333333333333" r="0.44" fill="black"/>
    <circle cx="123.75" cy="105.83333333333333" r="8.0" fill="#FFC10E"/>
    <circle cx="121.11" cy="103.11333333333333" r="1.28" fill="#333333"/>
    <circle cx="126.39" cy="103.11333333333333" r="1.28" fill="#333333"/>
    <path d="M 118.95 106.23333333333333 C 120.55 112.07333333333332, 126.95 112.07333333333332, 128.55 106.23333333333333" stroke="black" stroke-width="0.88" fill="transparent"/>
    <circle cx="118.95" cy="106.23333333333333" r="0.44" fill="black"/>
    <circle cx="128.55" cy="106.23333333333333" r="0.44" fill="black"/>
    <circle cx="171.25" cy="105.83333333333333" r="8.0" fill="#FFC10E"/>
    <circle cx="168.61" cy="103.11333333333333" r="1.28" fill="#333333"/>
    <circle cx="173.89" cy="103.11333333333333" r="1.28" fill="#333333"/>
    <path d="M 166.45 106.23333333333333 C 168.05 112.07333333333332, 174.45 112.07333333333332, 176.05 106.23333333333333" stroke="black" stroke-width="0.88" fill="transparent"/>
    <circle cx="166.45" cy="106.23333333333333" r="0.44" fill="black"/>
    <circle cx="176.05" cy="106.23333333333333" r="0.44" fill="black"/>
  </g>
</svg>
