<?xml version='1.0' encoding='UTF-8' standalone='no'?>
<svg xmlns="http://www.w3.org/2000/svg" xmlns:xlink="http://www.w3.org/1999/xlink" version="1.1" width="200" height="200" viewBox="0 0 200 200" style="border:1px solid black">
  <style> line { stroke: green; stroke-width: 0.5; stroke-dasharray: None;  } </style>
  <line x1="79.9" y1="132.0" x2="81.3" y2="146.5"/>
  <line x1="112.8" y1="185.2" x2="120.0" y2="186.0"/>
  <line x1="123.3" y1="60.7" x2="100.0" y2="0.0"/>
  <line x1="97.8" y1="93.3" x2="106.1" y2="75.5"/>
  <line x1="117.6" y1="71.2" x2="116.5" y2="71.3"/>
  <line x1="101.0" y1="13.8" x2="99.4" y2="34.2"/>
  <line x1="149.9" y1="124.1" x2="147.0" y2="135.5"/>
  <line x1="13.4" y1="183.9" x2="0.0" y2="200.0"/>
  <line x1="73.8" y1="172.7" x2="67.0" y2="181.3"/>
  <line x1="98.1" y1="174.8" x2="104.9" y2="187.9"/>
  <line x1="54.4" y1="154.5" x2="62.0" y2="167.0"/>
  <line x1="180.5" y1="177.0" x2="200.0" y2="200.0"/>
  <line x1="98.1" y1="174.8" x2="95.6" y2="176.8"/>
  <line x1="130.8" y1="151.6" x2="143.5" y2="150.6"/>
  <line x1="81.9" y1="62.2" x2="64.1" y2="87.6"/>
  <line x1="97.8" y1="93.3" x2="95.1" y2="97.8"/>
  <line x1="77.7" y1="112.6" x2="95.1" y2="97.8"/>
  <line x1="107.6" y1="166.6" x2="109.9" y2="167.4"/>
  <line x1="47.4" y1="122.6" x2="46.5" y2="140.6"/>
  <line x1="62.0" y1="167.0" x2="67.0" y2="181.3"/>
  <line x1="58.6" y1="182.9" x2="62.0" y2="167.0"/>
  <line x1="51.9" y1="105.2" x2="50.0" y2="100.0"/>
  <line x1="13.4" y1="183.9" x2="47.1" y2="186.8"/>
  <line x1="58.6" y1="182.9" x2="47.1" y2="186.8"/>
  <line x1="28.5" y1="170.2" x2="49.4" y2="148.0"/>
  <line x1="120.2" y1="154.8" x2="92.2" y2="150.6"/>
  <line x1="81.3" y1="146.5" x2="81.5" y2="132.5"/>
  <line x1="81.5" y1="132.5" x2="86.4" y2="124.4"/>
  <line x1="116.6" y1="189.2" x2="135.8" y2="188.4"/>
  <line x1="16.4" y1="180.0" x2="40.8" y2="176.4"/>
  <line x1="147.8" y1="105.8" x2="150.0" y2="100.0"/>
  <line x1="134.7" y1="117.3" x2="147.8" y2="105.8"/>
  <line x1="112.8" y1="185.2" x2="104.9" y2="187.9"/>
  <line x1="50.0" y1="100.0" x2="0.0" y2="200.0"/>
  <line x1="119.6" y1="164.2" x2="111.0" y2="166.4"/>
  <line x1="58.6" y1="182.9" x2="59.4" y2="186.3"/>
  <line x1="140.3" y1="141.9" x2="141.0" y2="146.5"/>
  <line x1="69.6" y1="148.4" x2="62.0" y2="167.0"/>
  <line x1="117.7" y1="105.5" x2="114.1" y2="120.9"/>
  <line x1="140.3" y1="141.9" x2="130.8" y2="151.6"/>
  <line x1="186.6" y1="185.2" x2="175.3" y2="188.8"/>
  <line x1="28.5" y1="170.2" x2="40.8" y2="176.4"/>
  <line x1="63.2" y1="132.4" x2="69.6" y2="148.4"/>
  <line x1="116.6" y1="189.2" x2="103.8" y2="191.7"/>
  <line x1="120.6" y1="142.4" x2="114.1" y2="135.3"/>
  <line x1="124.7" y1="121.0" x2="127.7" y2="109.2"/>
  <line x1="58.2" y1="131.5" x2="73.2" y2="117.4"/>
  <line x1="51.4" y1="147.3" x2="63.2" y2="132.4"/>
  <line x1="73.8" y1="172.7" x2="62.0" y2="167.0"/>
  <line x1="90.8" y1="80.8" x2="88.4" y2="90.8"/>
  <line x1="104.9" y1="187.9" x2="95.6" y2="176.8"/>
  <line x1="82.1" y1="92.7" x2="88.4" y2="90.8"/>
  <line x1="51.4" y1="147.3" x2="69.6" y2="148.4"/>
  <line x1="161.9" y1="182.4" x2="152.9" y2="173.9"/>
  <line x1="123.3" y1="60.7" x2="137.0" y2="85.3"/>
  <line x1="49.4" y1="148.0" x2="54.4" y2="154.5"/>
  <line x1="77.7" y1="112.6" x2="82.5" y2="120.2"/>
  <line x1="119.6" y1="164.2" x2="138.5" y2="159.0"/>
  <line x1="47.4" y1="122.6" x2="49.7" y2="122.7"/>
  <line x1="167.4" y1="189.5" x2="175.0" y2="190.6"/>
  <line x1="130.8" y1="151.6" x2="119.6" y2="164.2"/>
  <line x1="92.2" y1="150.6" x2="110.5" y2="165.7"/>
  <line x1="130.8" y1="151.6" x2="119.0" y2="160.9"/>
  <line x1="47.4" y1="122.6" x2="28.5" y2="170.2"/>
  <line x1="152.9" y1="173.9" x2="164.4" y2="174.8"/>
  <line x1="175.0" y1="190.6" x2="200.0" y2="200.0"/>
  <line x1="98.2" y1="73.4" x2="98.2" y2="77.3"/>
  <line x1="120.1" y1="88.1" x2="106.1" y2="75.5"/>
  <line x1="63.2" y1="132.4" x2="74.0" y2="119.1"/>
  <line x1="117.7" y1="105.5" x2="109.7" y2="121.6"/>
  <line x1="65.0" y1="88.4" x2="64.1" y2="87.6"/>
  <line x1="83.1" y1="186.4" x2="67.0" y2="181.3"/>
  <line x1="120.2" y1="154.8" x2="120.6" y2="142.4"/>
  <line x1="116.6" y1="189.2" x2="120.0" y2="186.0"/>
  <line x1="90.8" y1="80.8" x2="98.2" y2="77.3"/>
  <line x1="180.5" y1="177.0" x2="175.3" y2="188.8"/>
  <line x1="81.9" y1="62.2" x2="90.6" y2="33.8"/>
  <line x1="180.5" y1="177.0" x2="152.7" y2="121.2"/>
  <line x1="73.8" y1="172.7" x2="89.6" y2="164.8"/>
  <line x1="49.4" y1="148.0" x2="53.7" y2="156.1"/>
  <line x1="46.5" y1="140.6" x2="49.4" y2="148.0"/>
  <line x1="47.4" y1="122.6" x2="16.4" y2="180.0"/>
  <line x1="123.3" y1="60.7" x2="101.0" y2="13.8"/>
  <line x1="119.0" y1="160.9" x2="121.4" y2="153.7"/>
  <line x1="167.4" y1="189.5" x2="161.9" y2="182.4"/>
  <line x1="146.9" y1="159.1" x2="138.8" y2="166.1"/>
  <line x1="137.0" y1="85.3" x2="122.9" y2="87.0"/>
  <line x1="109.7" y1="121.6" x2="114.1" y2="135.3"/>
  <line x1="146.9" y1="159.1" x2="152.9" y2="173.9"/>
  <line x1="69.6" y1="148.4" x2="54.4" y2="154.5"/>
  <line x1="53.7" y1="156.1" x2="62.0" y2="167.0"/>
  <line x1="79.2" y1="157.6" x2="81.9" y2="162.8"/>
  <line x1="83.1" y1="186.4" x2="86.6" y2="190.5"/>
  <line x1="134.7" y1="117.3" x2="131.6" y2="118.6"/>
  <line x1="114.1" y1="135.3" x2="120.2" y2="133.2"/>
  <line x1="101.7" y1="125.6" x2="91.4" y2="129.3"/>
  <line x1="74.0" y1="119.1" x2="74.7" y2="124.2"/>
  <line x1="123.3" y1="60.7" x2="116.5" y2="71.3"/>
  <line x1="161.9" y1="182.4" x2="155.1" y2="188.6"/>
  <line x1="77.7" y1="112.6" x2="74.0" y2="92.0"/>
  <line x1="124.7" y1="121.0" x2="120.2" y2="133.2"/>
  <line x1="81.9" y1="62.2" x2="98.2" y2="73.4"/>
  <line x1="92.2" y1="150.6" x2="114.1" y2="135.3"/>
  <line x1="82.5" y1="120.2" x2="86.4" y2="124.4"/>
  <line x1="110.9" y1="99.0" x2="109.7" y2="121.6"/>
  <line x1="92.5" y1="160.5" x2="81.9" y2="162.8"/>
  <line x1="116.6" y1="189.2" x2="104.9" y2="187.9"/>
  <line x1="143.5" y1="150.6" x2="138.5" y2="159.0"/>
  <line x1="47.4" y1="122.6" x2="50.0" y2="100.0"/>
  <line x1="54.5" y1="187.1" x2="47.1" y2="186.8"/>
  <line x1="120.6" y1="142.4" x2="121.4" y2="153.7"/>
  <line x1="64.1" y1="87.6" x2="79.6" y2="79.2"/>
  <line x1="86.6" y1="190.5" x2="100.0" y2="200.0"/>
  <line x1="16.4" y1="180.0" x2="28.5" y2="170.2"/>
  <line x1="95.6" y1="176.8" x2="86.6" y2="190.5"/>
  <line x1="55.4" y1="131.4" x2="47.4" y2="122.6"/>
  <line x1="82.5" y1="120.2" x2="74.7" y2="124.2"/>
  <line x1="108.7" y1="75.0" x2="98.6" y2="68.6"/>
  <line x1="146.9" y1="159.1" x2="175.7" y2="171.7"/>
  <line x1="175.0" y1="190.6" x2="175.3" y2="188.8"/>
  <line x1="79.9" y1="132.0" x2="86.4" y2="124.4"/>
  <line x1="83.1" y1="186.4" x2="59.4" y2="186.3"/>
  <line x1="54.5" y1="187.1" x2="59.4" y2="186.3"/>
  <line x1="53.7" y1="156.1" x2="54.4" y2="154.5"/>
  <line x1="134.7" y1="117.3" x2="131.8" y2="101.4"/>
  <line x1="147.0" y1="135.5" x2="138.5" y2="119.3"/>
  <line x1="88.0" y1="34.2" x2="64.1" y2="87.6"/>
  <line x1="109.9" y1="167.4" x2="120.0" y2="186.0"/>
  <line x1="109.9" y1="167.4" x2="111.0" y2="166.4"/>
  <line x1="47.1" y1="186.8" x2="50.8" y2="188.8"/>
  <line x1="77.7" y1="112.6" x2="74.0" y2="119.1"/>
  <line x1="90.6" y1="33.8" x2="101.0" y2="13.8"/>
  <line x1="79.2" y1="157.6" x2="81.3" y2="146.5"/>
  <line x1="55.4" y1="131.4" x2="58.2" y2="131.5"/>
  <line x1="138.8" y1="166.1" x2="138.5" y2="159.0"/>
  <line x1="186.6" y1="185.2" x2="175.0" y2="190.6"/>
  <line x1="135.5" y1="88.1" x2="131.8" y2="101.4"/>
  <line x1="152.7" y1="121.2" x2="147.8" y2="105.8"/>
  <line x1="101.7" y1="125.6" x2="109.7" y2="121.6"/>
  <line x1="152.7" y1="121.2" x2="150.0" y2="100.0"/>
  <line x1="74.0" y1="92.0" x2="79.6" y2="79.2"/>
  <line x1="16.4" y1="180.0" x2="50.0" y2="100.0"/>
  <line x1="49.7" y1="122.7" x2="73.2" y2="117.4"/>
  <line x1="99.4" y1="34.2" x2="98.6" y2="68.6"/>
  <line x1="92.2" y1="150.6" x2="99.8" y2="134.5"/>
  <line x1="110.9" y1="99.0" x2="95.1" y2="97.8"/>
  <line x1="186.6" y1="185.2" x2="180.5" y2="177.0"/>
  <line x1="81.9" y1="62.2" x2="79.6" y2="79.2"/>
  <line x1="143.5" y1="150.6" x2="147.0" y2="135.5"/>
  <line x1="65.0" y1="88.4" x2="74.0" y2="92.0"/>
  <line x1="120.6" y1="142.4" x2="126.1" y2="146.3"/>
  <line x1="82.1" y1="92.7" x2="77.7" y2="112.6"/>
  <line x1="151.5" y1="123.7" x2="175.7" y2="171.7"/>
  <line x1="127.7" y1="109.2" x2="131.6" y2="118.6"/>
  <line x1="49.7" y1="122.7" x2="58.2" y2="131.5"/>
  <line x1="46.5" y1="140.6" x2="28.5" y2="170.2"/>
  <line x1="114.1" y1="120.9" x2="114.1" y2="135.3"/>
  <line x1="51.4" y1="147.3" x2="49.4" y2="148.0"/>
  <line x1="141.2" y1="159.6" x2="138.5" y2="159.0"/>
  <line x1="137.0" y1="168.7" x2="120.0" y2="186.0"/>
  <line x1="155.1" y1="188.6" x2="100.0" y2="200.0"/>
  <line x1="50.8" y1="188.8" x2="100.0" y2="200.0"/>
  <line x1="141.0" y1="146.5" x2="147.0" y2="135.5"/>
  <line x1="98.2" y1="73.4" x2="98.6" y2="68.6"/>
  <line x1="152.7" y1="121.2" x2="138.5" y2="119.3"/>
  <line x1="167.4" y1="189.5" x2="169.9" y2="183.6"/>
  <line x1="124.7" y1="121.0" x2="131.6" y2="118.6"/>
  <line x1="81.3" y1="146.5" x2="89.3" y2="131.4"/>
  <line x1="131.6" y1="118.6" x2="138.5" y2="119.3"/>
  <line x1="137.0" y1="168.7" x2="138.5" y2="159.0"/>
  <line x1="50.8" y1="188.8" x2="0.0" y2="200.0"/>
  <line x1="103.8" y1="191.7" x2="100.0" y2="200.0"/>
  <line x1="126.1" y1="146.3" x2="121.4" y2="153.7"/>
  <line x1="140.3" y1="141.9" x2="131.6" y2="118.6"/>
  <line x1="83.1" y1="186.4" x2="95.6" y2="176.8"/>
  <line x1="127.7" y1="109.2" x2="131.8" y2="101.4"/>
  <line x1="63.2" y1="132.4" x2="74.7" y2="124.2"/>
  <line x1="89.4" y1="116.3" x2="91.4" y2="129.3"/>
  <line x1="123.3" y1="60.7" x2="117.6" y2="71.2"/>
  <line x1="74.0" y1="119.1" x2="82.5" y2="120.2"/>
  <line x1="65.0" y1="88.4" x2="79.6" y2="79.2"/>
  <line x1="99.3" y1="95.2" x2="106.1" y2="75.5"/>
  <line x1="151.5" y1="123.7" x2="149.9" y2="124.1"/>
  <line x1="135.5" y1="88.1" x2="150.0" y2="100.0"/>
  <line x1="92.2" y1="150.6" x2="92.5" y2="160.5"/>
  <line x1="91.4" y1="129.3" x2="89.3" y2="131.4"/>
  <line x1="90.6" y1="33.8" x2="88.0" y2="34.2"/>
  <line x1="119.6" y1="164.2" x2="119.0" y2="160.9"/>
  <line x1="161.9" y1="182.4" x2="164.4" y2="174.8"/>
  <line x1="110.9" y1="99.0" x2="120.1" y2="88.1"/>
  <line x1="102.1" y1="74.5" x2="98.2" y2="77.3"/>
  <line x1="123.3" y1="60.7" x2="98.6" y2="68.6"/>
  <line x1="108.7" y1="75.0" x2="106.1" y2="75.5"/>
  <line x1="77.7" y1="112.6" x2="66.4" y2="102.5"/>
  <line x1="103.8" y1="191.7" x2="86.6" y2="190.5"/>
  <line x1="119.0" y1="160.9" x2="111.0" y2="166.4"/>
  <line x1="101.0" y1="13.8" x2="106.1" y2="34.8"/>
  <line x1="169.9" y1="183.6" x2="180.5" y2="177.0"/>
  <line x1="138.8" y1="166.1" x2="148.5" y2="174.2"/>
  <line x1="169.9" y1="183.6" x2="161.9" y2="182.4"/>
  <line x1="73.8" y1="172.7" x2="79.2" y2="157.6"/>
  <line x1="63.2" y1="132.4" x2="73.2" y2="117.4"/>
  <line x1="89.4" y1="116.3" x2="86.4" y2="124.4"/>
  <line x1="134.7" y1="117.3" x2="138.5" y2="119.3"/>
  <line x1="51.4" y1="147.3" x2="46.5" y2="140.6"/>
  <line x1="92.2" y1="150.6" x2="101.5" y2="133.9"/>
  <line x1="74.0" y1="92.0" x2="66.4" y2="102.5"/>
  <line x1="92.5" y1="160.5" x2="98.1" y2="174.8"/>
  <line x1="16.4" y1="180.0" x2="47.1" y2="186.8"/>
  <line x1="88.4" y1="116.7" x2="77.7" y2="112.6"/>
  <line x1="155.1" y1="188.6" x2="135.8" y2="188.4"/>
  <line x1="97.8" y1="93.3" x2="99.3" y2="95.2"/>
  <line x1="79.9" y1="132.0" x2="81.5" y2="132.5"/>
  <line x1="88.4" y1="116.7" x2="89.4" y2="116.3"/>
  <line x1="130.8" y1="151.6" x2="121.4" y2="153.7"/>
  <line x1="106.1" y1="34.8" x2="98.6" y2="68.6"/>
  <line x1="155.1" y1="188.6" x2="200.0" y2="200.0"/>
  <line x1="141.0" y1="146.5" x2="143.5" y2="150.6"/>
  <line x1="120.1" y1="88.1" x2="122.9" y2="87.0"/>
  <line x1="95.1" y1="97.8" x2="99.3" y2="95.2"/>
  <line x1="146.9" y1="159.1" x2="164.4" y2="174.8"/>
  <line x1="149.9" y1="124.1" x2="138.5" y2="119.3"/>
  <line x1="51.4" y1="147.3" x2="58.2" y2="131.5"/>
  <line x1="92.2" y1="150.6" x2="79.2" y2="157.6"/>
  <line x1="101.5" y1="133.9" x2="114.1" y2="135.3"/>
  <line x1="97.8" y1="93.3" x2="88.4" y2="90.8"/>
  <line x1="155.1" y1="188.6" x2="152.9" y2="173.9"/>
  <line x1="131.8" y1="101.4" x2="120.1" y2="88.1"/>
  <line x1="123.3" y1="60.7" x2="106.1" y2="34.8"/>
  <line x1="90.6" y1="33.8" x2="99.4" y2="34.2"/>
  <line x1="89.4" y1="116.3" x2="109.7" y2="121.6"/>
  <line x1="51.9" y1="105.2" x2="47.4" y2="122.6"/>
  <line x1="175.7" y1="171.7" x2="164.4" y2="174.8"/>
  <line x1="135.5" y1="88.1" x2="122.9" y2="87.0"/>
  <line x1="97.8" y1="93.3" x2="98.2" y2="77.3"/>
  <line x1="50.0" y1="100.0" x2="100.0" y2="0.0"/>
  <line x1="99.8" y1="134.5" x2="89.3" y2="131.4"/>
  <line x1="137.0" y1="168.7" x2="148.5" y2="174.2"/>
  <line x1="55.4" y1="131.4" x2="46.5" y2="140.6"/>
  <line x1="169.9" y1="183.6" x2="175.7" y2="171.7"/>
  <line x1="141.0" y1="146.5" x2="130.8" y2="151.6"/>
  <line x1="116.5" y1="71.3" x2="98.6" y2="68.6"/>
  <line x1="109.9" y1="167.4" x2="112.8" y2="185.2"/>
  <line x1="140.3" y1="141.9" x2="126.1" y2="146.3"/>
  <line x1="88.4" y1="116.7" x2="86.4" y2="124.4"/>
  <line x1="120.0" y1="186.0" x2="135.8" y2="188.4"/>
  <line x1="134.7" y1="117.3" x2="147.0" y2="103.9"/>
  <line x1="65.0" y1="88.4" x2="66.4" y2="102.5"/>
  <line x1="101.5" y1="133.9" x2="101.7" y2="125.6"/>
  <line x1="141.2" y1="159.6" x2="143.5" y2="150.6"/>
  <line x1="108.7" y1="75.0" x2="120.1" y2="88.1"/>
  <line x1="74.7" y1="124.2" x2="86.4" y2="124.4"/>
  <line x1="77.7" y1="112.6" x2="73.2" y2="117.4"/>
  <line x1="88.4" y1="90.8" x2="79.6" y2="79.2"/>
  <line x1="131.8" y1="101.4" x2="117.7" y2="105.5"/>
  <line x1="167.4" y1="189.5" x2="155.1" y2="188.6"/>
  <line x1="130.8" y1="151.6" x2="126.1" y2="146.3"/>
  <line x1="117.6" y1="71.2" x2="120.1" y2="88.1"/>
  <line x1="120.1" y1="88.1" x2="99.3" y2="95.2"/>
  <line x1="79.2" y1="157.6" x2="62.0" y2="167.0"/>
  <line x1="107.6" y1="166.6" x2="110.5" y2="165.7"/>
  <line x1="28.5" y1="170.2" x2="53.7" y2="156.1"/>
  <line x1="73.8" y1="172.7" x2="83.1" y2="186.4"/>
  <line x1="73.8" y1="172.7" x2="95.6" y2="176.8"/>
  <line x1="95.6" y1="176.8" x2="89.6" y2="164.8"/>
  <line x1="135.5" y1="88.1" x2="147.0" y2="103.9"/>
  <line x1="101.5" y1="133.9" x2="99.8" y2="134.5"/>
  <line x1="175.7" y1="171.7" x2="152.7" y2="121.2"/>
  <line x1="82.1" y1="92.7" x2="95.1" y2="97.8"/>
  <line x1="141.2" y1="159.6" x2="138.8" y2="166.1"/>
  <line x1="88.0" y1="34.2" x2="100.0" y2="0.0"/>
  <line x1="79.9" y1="132.0" x2="63.2" y2="132.4"/>
  <line x1="55.4" y1="131.4" x2="49.7" y2="122.7"/>
  <line x1="99.8" y1="134.5" x2="91.4" y2="129.3"/>
  <line x1="79.9" y1="132.0" x2="69.6" y2="148.4"/>
  <line x1="58.6" y1="182.9" x2="40.8" y2="176.4"/>
  <line x1="86.4" y1="124.4" x2="89.3" y2="131.4"/>
  <line x1="92.2" y1="150.6" x2="89.3" y2="131.4"/>
  <line x1="89.4" y1="116.3" x2="101.7" y2="125.6"/>
  <line x1="16.4" y1="180.0" x2="13.4" y2="183.9"/>
  <line x1="89.4" y1="116.3" x2="95.1" y2="97.8"/>
  <line x1="135.5" y1="88.1" x2="137.0" y2="85.3"/>
  <line x1="101.7" y1="125.6" x2="114.1" y2="135.3"/>
  <line x1="120.6" y1="142.4" x2="120.2" y2="133.2"/>
  <line x1="148.5" y1="174.2" x2="135.8" y2="188.4"/>
  <line x1="141.2" y1="159.6" x2="146.9" y2="159.1"/>
  <line x1="73.8" y1="172.7" x2="81.9" y2="162.8"/>
  <line x1="88.4" y1="90.8" x2="95.1" y2="97.8"/>
  <line x1="151.5" y1="123.7" x2="152.7" y2="121.2"/>
  <line x1="100.0" y1="200.0" x2="0.0" y2="200.0"/>
  <line x1="180.5" y1="177.0" x2="150.0" y2="100.0"/>
  <line x1="120.1" y1="88.1" x2="116.5" y2="71.3"/>
  <line x1="92.5" y1="160.5" x2="89.6" y2="164.8"/>
  <line x1="146.9" y1="159.1" x2="147.0" y2="135.5"/>
  <line x1="117.7" y1="105.5" x2="120.1" y2="88.1"/>
  <line x1="102.1" y1="74.5" x2="98.6" y2="68.6"/>
  <line x1="81.9" y1="162.8" x2="89.6" y2="164.8"/>
  <line x1="51.4" y1="147.3" x2="55.4" y2="131.4"/>
  <line x1="64.1" y1="87.6" x2="50.0" y2="100.0"/>
  <line x1="148.5" y1="174.2" x2="152.9" y2="173.9"/>
  <line x1="140.3" y1="141.9" x2="138.5" y2="119.3"/>
  <line x1="138.5" y1="119.3" x2="147.8" y2="105.8"/>
  <line x1="112.8" y1="185.2" x2="98.1" y2="174.8"/>
  <line x1="137.0" y1="168.7" x2="119.6" y2="164.2"/>
  <line x1="99.4" y1="34.2" x2="106.1" y2="34.8"/>
  <line x1="120.2" y1="154.8" x2="110.5" y2="165.7"/>
  <line x1="81.9" y1="62.2" x2="88.0" y2="34.2"/>
  <line x1="88.0" y1="34.2" x2="50.0" y2="100.0"/>
  <line x1="47.1" y1="186.8" x2="0.0" y2="200.0"/>
  <line x1="58.6" y1="182.9" x2="54.5" y2="187.1"/>
  <line x1="86.4" y1="124.4" x2="91.4" y2="129.3"/>
  <line x1="51.9" y1="105.2" x2="66.4" y2="102.5"/>
  <line x1="137.0" y1="85.3" x2="150.0" y2="100.0"/>
  <line x1="66.4" y1="102.5" x2="50.0" y2="100.0"/>
  <line x1="131.8" y1="101.4" x2="122.9" y2="87.0"/>
  <line x1="146.9" y1="159.1" x2="148.5" y2="174.2"/>
  <line x1="98.2" y1="73.4" x2="102.1" y2="74.5"/>
  <line x1="150.0" y1="100.0" x2="200.0" y2="200.0"/>
  <line x1="58.2" y1="131.5" x2="63.2" y2="132.4"/>
  <line x1="54.5" y1="187.1" x2="50.8" y2="188.8"/>
  <line x1="175.7" y1="171.7" x2="147.0" y2="135.5"/>
  <line x1="90.8" y1="80.8" x2="98.2" y2="73.4"/>
  <line x1="77.7" y1="112.6" x2="89.4" y2="116.3"/>
  <line x1="100.0" y1="200.0" x2="200.0" y2="200.0"/>
  <line x1="69.6" y1="148.4" x2="81.3" y2="146.5"/>
  <line x1="119.6" y1="164.2" x2="120.0" y2="186.0"/>
  <line x1="110.9" y1="99.0" x2="99.3" y2="95.2"/>
  <line x1="116.6" y1="189.2" x2="112.8" y2="185.2"/>
  <line x1="101.7" y1="125.6" x2="99.8" y2="134.5"/>
  <line x1="148.5" y1="174.2" x2="155.1" y2="188.6"/>
  <line x1="151.5" y1="123.7" x2="147.0" y2="135.5"/>
  <line x1="82.1" y1="92.7" x2="74.0" y2="92.0"/>
  <line x1="109.9" y1="167.4" x2="110.5" y2="165.7"/>
  <line x1="88.0" y1="34.2" x2="101.0" y2="13.8"/>
  <line x1="120.2" y1="154.8" x2="114.1" y2="135.3"/>
  <line x1="59.4" y1="186.3" x2="50.8" y2="188.8"/>
  <line x1="146.9" y1="159.1" x2="143.5" y2="150.6"/>
  <line x1="107.6" y1="166.6" x2="98.1" y2="174.8"/>
  <line x1="131.8" y1="101.4" x2="147.0" y2="103.9"/>
  <line x1="81.9" y1="62.2" x2="99.4" y2="34.2"/>
  <line x1="167.4" y1="189.5" x2="200.0" y2="200.0"/>
  <line x1="130.8" y1="151.6" x2="138.5" y2="159.0"/>
  <line x1="111.0" y1="166.4" x2="110.5" y2="165.7"/>
  <line x1="150.0" y1="100.0" x2="100.0" y2="0.0"/>
  <line x1="135.8" y1="188.4" x2="100.0" y2="200.0"/>
  <line x1="117.6" y1="71.2" x2="122.9" y2="87.0"/>
  <line x1="169.9" y1="183.6" x2="164.4" y2="174.8"/>
  <line x1="86.6" y1="190.5" x2="50.8" y2="188.8"/>
  <line x1="92.2" y1="150.6" x2="81.3" y2="146.5"/>
  <line x1="110.9" y1="99.0" x2="117.7" y2="105.5"/>
  <line x1="88.4" y1="116.7" x2="82.5" y2="120.2"/>
  <line x1="81.9" y1="62.2" x2="98.6" y2="68.6"/>
  <line x1="98.2" y1="77.3" x2="106.1" y2="75.5"/>
  <line x1="175.7" y1="171.7" x2="180.5" y2="177.0"/>
  <line x1="127.7" y1="109.2" x2="117.7" y2="105.5"/>
  <line x1="126.1" y1="146.3" x2="120.2" y2="133.2"/>
  <line x1="40.8" y1="176.4" x2="62.0" y2="167.0"/>
  <line x1="90.8" y1="80.8" x2="97.8" y2="93.3"/>
  <line x1="120.2" y1="154.8" x2="119.0" y2="160.9"/>
  <line x1="40.8" y1="176.4" x2="47.1" y2="186.8"/>
  <line x1="104.9" y1="187.9" x2="86.6" y2="190.5"/>
  <line x1="81.9" y1="62.2" x2="90.8" y2="80.8"/>
  <line x1="90.8" y1="80.8" x2="79.6" y2="79.2"/>
  <line x1="82.1" y1="92.7" x2="79.6" y2="79.2"/>
  <line x1="59.4" y1="186.3" x2="67.0" y2="181.3"/>
  <line x1="51.4" y1="147.3" x2="54.4" y2="154.5"/>
  <line x1="98.1" y1="174.8" x2="89.6" y2="164.8"/>
  <line x1="123.3" y1="60.7" x2="150.0" y2="100.0"/>
  <line x1="51.9" y1="105.2" x2="73.2" y2="117.4"/>
  <line x1="79.2" y1="157.6" x2="92.5" y2="160.5"/>
  <line x1="134.7" y1="117.3" x2="127.7" y2="109.2"/>
  <line x1="13.4" y1="183.9" x2="50.0" y2="100.0"/>
  <line x1="102.1" y1="74.5" x2="106.1" y2="75.5"/>
  <line x1="147.0" y1="103.9" x2="147.8" y2="105.8"/>
  <line x1="149.9" y1="124.1" x2="152.7" y2="121.2"/>
  <line x1="169.9" y1="183.6" x2="175.3" y2="188.8"/>
  <line x1="147.0" y1="103.9" x2="150.0" y2="100.0"/>
  <line x1="140.3" y1="141.9" x2="147.0" y2="135.5"/>
  <line x1="140.3" y1="141.9" x2="120.2" y2="133.2"/>
  <line x1="124.7" y1="121.0" x2="117.7" y2="105.5"/>
  <line x1="65.0" y1="88.4" x2="50.0" y2="100.0"/>
  <line x1="120.2" y1="154.8" x2="121.4" y2="153.7"/>
  <line x1="74.0" y1="119.1" x2="73.2" y2="117.4"/>
  <line x1="106.1" y1="75.5" x2="98.6" y2="68.6"/>
  <line x1="124.7" y1="121.0" x2="114.1" y2="120.9"/>
  <line x1="59.4" y1="186.3" x2="86.6" y2="190.5"/>
  <line x1="114.1" y1="120.9" x2="120.2" y2="133.2"/>
  <line x1="131.6" y1="118.6" x2="120.2" y2="133.2"/>
  <line x1="79.2" y1="157.6" x2="69.6" y2="148.4"/>
  <line x1="167.4" y1="189.5" x2="175.3" y2="188.8"/>
  <line x1="107.6" y1="166.6" x2="92.5" y2="160.5"/>
  <line x1="117.6" y1="71.2" x2="137.0" y2="85.3"/>
  <line x1="101.0" y1="13.8" x2="100.0" y2="0.0"/>
  <line x1="95.1" y1="97.8" x2="109.7" y2="121.6"/>
  <line x1="109.9" y1="167.4" x2="119.6" y2="164.2"/>
  <line x1="81.5" y1="132.5" x2="89.3" y2="131.4"/>
  <line x1="116.6" y1="189.2" x2="100.0" y2="200.0"/>
  <line x1="51.9" y1="105.2" x2="49.7" y2="122.7"/>
  <line x1="107.6" y1="166.6" x2="92.2" y2="150.6"/>
  <line x1="137.0" y1="168.7" x2="135.8" y2="188.4"/>
  <line x1="119.0" y1="160.9" x2="110.5" y2="165.7"/>
  <line x1="58.6" y1="182.9" x2="67.0" y2="181.3"/>
  <line x1="79.9" y1="132.0" x2="74.7" y2="124.2"/>
  <line x1="109.9" y1="167.4" x2="98.1" y2="174.8"/>
  <line x1="73.2" y1="117.4" x2="66.4" y2="102.5"/>
  <line x1="186.6" y1="185.2" x2="200.0" y2="200.0"/>
  <line x1="104.9" y1="187.9" x2="103.8" y2="191.7"/>
  <line x1="40.8" y1="176.4" x2="53.7" y2="156.1"/>
  <line x1="108.7" y1="75.0" x2="116.5" y2="71.3"/>
  <line x1="137.0" y1="168.7" x2="138.8" y2="166.1"/>
  <line x1="114.1" y1="120.9" x2="109.7" y2="121.6"/>
  <style> circle { fill: black; r: 0.8;  } </style>
  <circle cx="135.5" cy="88.1"/>
  <circle cx="167.4" cy="189.5"/>
  <circle cx="51.4" cy="147.3"/>
  <circle cx="110.9" cy="99.0"/>
  <circle cx="123.3" cy="60.7"/>
  <circle cx="55.4" cy="131.4"/>
  <circle cx="140.3" cy="141.9"/>
  <circle cx="88.4" cy="116.7"/>
  <circle cx="65.0" cy="88.4"/>
  <circle cx="169.9" cy="183.6"/>
  <circle cx="120.2" cy="154.8"/>
  <circle cx="73.8" cy="172.7"/>
  <circle cx="82.1" cy="92.7"/>
  <circle cx="137.0" cy="168.7"/>
  <circle cx="51.9" cy="105.2"/>
  <circle cx="186.6" cy="185.2"/>
  <circle cx="81.9" cy="62.2"/>
  <circle cx="47.4" cy="122.6"/>
  <circle cx="107.6" cy="166.6"/>
  <circle cx="134.7" cy="117.3"/>
  <circle cx="16.4" cy="180.0"/>
  <circle cx="109.9" cy="167.4"/>
  <circle cx="92.2" cy="150.6"/>
  <circle cx="90.8" cy="80.8"/>
  <circle cx="77.7" cy="112.6"/>
  <circle cx="124.7" cy="121.0"/>
  <circle cx="79.2" cy="157.6"/>
  <circle cx="116.6" cy="189.2"/>
  <circle cx="117.6" cy="71.2"/>
  <circle cx="141.0" cy="146.5"/>
  <circle cx="120.6" cy="142.4"/>
  <circle cx="101.5" cy="133.9"/>
  <circle cx="141.2" cy="159.6"/>
  <circle cx="127.7" cy="109.2"/>
  <circle cx="49.7" cy="122.7"/>
  <circle cx="97.8" cy="93.3"/>
  <circle cx="79.9" cy="132.0"/>
  <circle cx="90.6" cy="33.8"/>
  <circle cx="146.9" cy="159.1"/>
  <circle cx="58.2" cy="131.5"/>
  <circle cx="63.2" cy="132.4"/>
  <circle cx="151.5" cy="123.7"/>
  <circle cx="89.4" cy="116.3"/>
  <circle cx="112.8" cy="185.2"/>
  <circle cx="74.0" cy="119.1"/>
  <circle cx="92.5" cy="160.5"/>
  <circle cx="13.4" cy="183.9"/>
  <circle cx="130.8" cy="151.6"/>
  <circle cx="143.5" cy="150.6"/>
  <circle cx="69.6" cy="148.4"/>
  <circle cx="98.2" cy="73.4"/>
  <circle cx="98.1" cy="174.8"/>
  <circle cx="88.0" cy="34.2"/>
  <circle cx="46.5" cy="140.6"/>
  <circle cx="74.0" cy="92.0"/>
  <circle cx="131.8" cy="101.4"/>
  <circle cx="119.6" cy="164.2"/>
  <circle cx="58.6" cy="182.9"/>
  <circle cx="117.7" cy="105.5"/>
  <circle cx="102.1" cy="74.5"/>
  <circle cx="175.7" cy="171.7"/>
  <circle cx="28.5" cy="170.2"/>
  <circle cx="81.3" cy="146.5"/>
  <circle cx="126.1" cy="146.3"/>
  <circle cx="82.5" cy="120.2"/>
  <circle cx="119.0" cy="160.9"/>
  <circle cx="108.7" cy="75.0"/>
  <circle cx="98.2" cy="77.3"/>
  <circle cx="120.1" cy="88.1"/>
  <circle cx="81.5" cy="132.5"/>
  <circle cx="138.8" cy="166.1"/>
  <circle cx="54.5" cy="187.1"/>
  <circle cx="88.4" cy="90.8"/>
  <circle cx="104.9" cy="187.9"/>
  <circle cx="131.6" cy="118.6"/>
  <circle cx="180.5" cy="177.0"/>
  <circle cx="116.5" cy="71.3"/>
  <circle cx="149.9" cy="124.1"/>
  <circle cx="121.4" cy="153.7"/>
  <circle cx="64.1" cy="87.6"/>
  <circle cx="73.2" cy="117.4"/>
  <circle cx="40.8" cy="176.4"/>
  <circle cx="83.1" cy="186.4"/>
  <circle cx="101.7" cy="125.6"/>
  <circle cx="161.9" cy="182.4"/>
  <circle cx="114.1" cy="120.9"/>
  <circle cx="137.0" cy="85.3"/>
  <circle cx="99.8" cy="134.5"/>
  <circle cx="103.8" cy="191.7"/>
  <circle cx="175.0" cy="190.6"/>
  <circle cx="147.0" cy="135.5"/>
  <circle cx="95.6" cy="176.8"/>
  <circle cx="95.1" cy="97.8"/>
  <circle cx="59.4" cy="186.3"/>
  <circle cx="148.5" cy="174.2"/>
  <circle cx="49.4" cy="148.0"/>
  <circle cx="155.1" cy="188.6"/>
  <circle cx="152.9" cy="173.9"/>
  <circle cx="109.7" cy="121.6"/>
  <circle cx="101.0" cy="13.8"/>
  <circle cx="147.0" cy="103.9"/>
  <circle cx="53.7" cy="156.1"/>
  <circle cx="114.1" cy="135.3"/>
  <circle cx="74.7" cy="124.2"/>
  <circle cx="99.3" cy="95.2"/>
  <circle cx="138.5" cy="159.0"/>
  <circle cx="54.4" cy="154.5"/>
  <circle cx="62.0" cy="167.0"/>
  <circle cx="120.2" cy="133.2"/>
  <circle cx="66.4" cy="102.5"/>
  <circle cx="120.0" cy="186.0"/>
  <circle cx="135.8" cy="188.4"/>
  <circle cx="86.6" cy="190.5"/>
  <circle cx="81.9" cy="162.8"/>
  <circle cx="175.3" cy="188.8"/>
  <circle cx="106.1" cy="75.5"/>
  <circle cx="47.1" cy="186.8"/>
  <circle cx="86.4" cy="124.4"/>
  <circle cx="50.8" cy="188.8"/>
  <circle cx="111.0" cy="166.4"/>
  <circle cx="89.6" cy="164.8"/>
  <circle cx="110.5" cy="165.7"/>
  <circle cx="91.4" cy="129.3"/>
  <circle cx="152.7" cy="121.2"/>
  <circle cx="138.5" cy="119.3"/>
  <circle cx="147.8" cy="105.8"/>
  <circle cx="67.0" cy="181.3"/>
  <circle cx="99.4" cy="34.2"/>
  <circle cx="122.9" cy="87.0"/>
  <circle cx="79.6" cy="79.2"/>
  <circle cx="106.1" cy="34.8"/>
  <circle cx="98.6" cy="68.6"/>
  <circle cx="89.3" cy="131.4"/>
  <circle cx="164.4" cy="174.8"/>
  <circle cx="150.0" cy="100.0"/>
  <circle cx="100.0" cy="200.0"/>
  <circle cx="50.0" cy="100.0"/>
  <circle cx="100.0" cy="0.0"/>
  <circle cx="200.0" cy="200.0"/>
  <circle cx="0.0" cy="200.0"/>
</svg>
