<?xml version='1.0' encoding='UTF-8' standalone='no'?>
<svg xmlns="http://www.w3.org/2000/svg" xmlns:xlink="http://www.w3.org/1999/xlink" version="1.1" width="200" height="200" viewBox="0 0 200 200" style="border:1px solid black">
  <style> line{stroke: green; stroke-width: 0.5; stroke-dasharray: None; }</style>
  <line x1="96.5" y1="95.3" x2="100.5" y2="85.4"/>
  <line x1="100.5" y1="85.4" x2="93.1" y2="79.2"/>
  <line x1="111.1" y1="77.0" x2="117.7" y2="68.5"/>
  <line x1="116.7" y1="138.3" x2="126.5" y2="130.3"/>
  <line x1="43.3" y1="93.2" x2="58.5" y2="99.1"/>
  <line x1="89.6" y1="40.2" x2="100.0" y2="0.0"/>
  <line x1="63.3" y1="109.6" x2="58.5" y2="99.1"/>
  <line x1="125.9" y1="85.8" x2="124.1" y2="73.1"/>
  <line x1="124.1" y1="73.1" x2="117.7" y2="68.5"/>
  <line x1="100.0" y1="0.0" x2="200.0" y2="0.0"/>
  <line x1="122.2" y1="114.6" x2="125.2" y2="108.4"/>
  <line x1="136.4" y1="67.3" x2="119.6" y2="62.8"/>
  <line x1="66.4" y1="131.3" x2="67.1" y2="123.7"/>
  <line x1="87.5" y1="73.5" x2="93.1" y2="79.2"/>
  <line x1="98.1" y1="144.1" x2="113.4" y2="146.7"/>
  <line x1="116.7" y1="138.3" x2="115.0" y2="139.7"/>
  <line x1="47.6" y1="142.8" x2="0.0" y2="100.0"/>
  <line x1="126.5" y1="130.3" x2="152.3" y2="120.8"/>
  <line x1="78.7" y1="92.4" x2="76.4" y2="102.5"/>
  <line x1="89.6" y1="40.2" x2="0.0" y2="0.0"/>
  <line x1="56.1" y1="63.2" x2="0.0" y2="0.0"/>
  <line x1="114.2" y1="110.2" x2="122.2" y2="114.6"/>
  <line x1="81.4" y1="136.1" x2="89.5" y2="144.9"/>
  <line x1="101.3" y1="54.7" x2="119.6" y2="62.8"/>
  <line x1="43.3" y1="93.2" x2="43.9" y2="117.1"/>
  <line x1="81.4" y1="136.1" x2="79.8" y2="118.8"/>
  <line x1="86.7" y1="115.1" x2="90.7" y2="115.9"/>
  <line x1="131.1" y1="96.4" x2="125.2" y2="108.4"/>
  <line x1="77.2" y1="112.0" x2="75.6" y2="105.9"/>
  <line x1="94.2" y1="119.0" x2="99.0" y2="123.4"/>
  <line x1="63.3" y1="109.6" x2="76.4" y2="102.5"/>
  <line x1="119.4" y1="116.8" x2="107.6" y2="120.3"/>
  <line x1="105.9" y1="99.1" x2="112.6" y2="93.8"/>
  <line x1="77.4" y1="92.5" x2="70.9" y2="90.0"/>
  <line x1="93.1" y1="79.2" x2="85.4" y2="77.1"/>
  <line x1="111.1" y1="77.0" x2="106.1" y2="77.5"/>
  <line x1="93.1" y1="79.2" x2="101.9" y2="73.9"/>
  <line x1="76.3" y1="91.0" x2="84.5" y2="83.4"/>
  <line x1="78.1" y1="92.2" x2="84.5" y2="83.4"/>
  <line x1="47.6" y1="142.8" x2="0.0" y2="200.0"/>
  <line x1="43.3" y1="93.2" x2="21.1" y2="81.3"/>
  <line x1="56.1" y1="63.2" x2="70.9" y2="90.0"/>
  <line x1="113.4" y1="146.7" x2="115.0" y2="139.7"/>
  <line x1="113.4" y1="146.7" x2="88.2" y2="147.2"/>
  <line x1="125.9" y1="85.8" x2="111.1" y2="77.0"/>
  <line x1="81.4" y1="136.1" x2="92.4" y2="125.4"/>
  <line x1="88.2" y1="147.2" x2="89.5" y2="144.9"/>
  <line x1="97.7" y1="106.4" x2="95.7" y2="108.3"/>
  <line x1="122.2" y1="114.6" x2="119.4" y2="116.8"/>
  <line x1="47.6" y1="142.8" x2="100.0" y2="200.0"/>
  <line x1="138.7" y1="156.2" x2="100.0" y2="200.0"/>
  <line x1="126.5" y1="130.3" x2="142.5" y2="144.4"/>
  <line x1="126.5" y1="130.3" x2="117.1" y2="141.7"/>
  <line x1="135.1" y1="95.9" x2="131.1" y2="96.4"/>
  <line x1="125.9" y1="85.8" x2="132.1" y2="82.1"/>
  <line x1="162.9" y1="93.5" x2="200.0" y2="100.0"/>
  <line x1="128.5" y1="119.3" x2="122.2" y2="114.6"/>
  <line x1="93.1" y1="79.2" x2="93.8" y2="89.2"/>
  <line x1="98.1" y1="144.1" x2="99.1" y2="131.9"/>
  <line x1="66.4" y1="131.3" x2="81.4" y2="136.1"/>
  <line x1="76.3" y1="91.0" x2="73.9" y2="78.5"/>
  <line x1="73.9" y1="78.5" x2="85.4" y2="77.1"/>
  <line x1="102.8" y1="106.1" x2="107.9" y2="110.5"/>
  <line x1="87.4" y1="101.1" x2="75.6" y2="105.9"/>
  <line x1="138.7" y1="156.2" x2="200.0" y2="200.0"/>
  <line x1="89.6" y1="40.2" x2="131.2" y2="45.3"/>
  <line x1="78.7" y1="92.4" x2="93.8" y2="89.2"/>
  <line x1="63.3" y1="109.6" x2="67.1" y2="123.7"/>
  <line x1="128.5" y1="119.3" x2="152.3" y2="120.8"/>
  <line x1="73.9" y1="78.5" x2="70.9" y2="90.0"/>
  <line x1="43.9" y1="117.1" x2="0.0" y2="100.0"/>
  <line x1="87.5" y1="73.5" x2="89.0" y2="67.9"/>
  <line x1="90.2" y1="97.6" x2="93.8" y2="89.2"/>
  <line x1="142.5" y1="144.4" x2="117.1" y2="141.7"/>
  <line x1="63.3" y1="109.6" x2="57.3" y2="112.6"/>
  <line x1="102.6" y1="111.0" x2="103.6" y2="120.5"/>
  <line x1="98.6" y1="106.7" x2="95.7" y2="108.3"/>
  <line x1="93.9" y1="97.8" x2="90.2" y2="97.6"/>
  <line x1="200.0" y1="100.0" x2="200.0" y2="200.0"/>
  <line x1="78.7" y1="92.4" x2="78.1" y2="92.2"/>
  <line x1="87.4" y1="101.1" x2="96.3" y2="99.8"/>
  <line x1="102.8" y1="106.1" x2="96.3" y2="99.8"/>
  <line x1="106.0" y1="114.4" x2="103.6" y2="120.5"/>
  <line x1="66.4" y1="131.3" x2="43.9" y2="117.1"/>
  <line x1="114.2" y1="110.2" x2="106.0" y2="114.4"/>
  <line x1="135.1" y1="95.9" x2="152.3" y2="120.8"/>
  <line x1="102.6" y1="111.0" x2="95.7" y2="108.3"/>
  <line x1="105.6" y1="99.9" x2="105.9" y2="99.1"/>
  <line x1="91.3" y1="107.4" x2="90.7" y2="115.9"/>
  <line x1="67.1" y1="123.7" x2="43.9" y2="117.1"/>
  <line x1="122.7" y1="89.3" x2="112.6" y2="93.8"/>
  <line x1="73.9" y1="78.5" x2="89.0" y2="67.9"/>
  <line x1="100.5" y1="85.4" x2="105.9" y2="99.1"/>
  <line x1="86.7" y1="115.1" x2="77.2" y2="112.0"/>
  <line x1="78.7" y1="92.4" x2="77.4" y2="92.5"/>
  <line x1="132.7" y1="77.5" x2="124.1" y2="73.1"/>
  <line x1="99.0" y1="123.4" x2="103.6" y2="120.5"/>
  <line x1="99.1" y1="131.9" x2="89.5" y2="144.9"/>
  <line x1="135.1" y1="95.9" x2="162.9" y2="93.5"/>
  <line x1="128.5" y1="119.3" x2="135.1" y2="95.9"/>
  <line x1="113.6" y1="130.1" x2="109.0" y2="128.3"/>
  <line x1="200.0" y1="100.0" x2="200.0" y2="0.0"/>
  <line x1="87.4" y1="101.1" x2="77.2" y2="112.0"/>
  <line x1="111.1" y1="77.0" x2="100.5" y2="85.4"/>
  <line x1="78.7" y1="92.4" x2="87.4" y2="101.1"/>
  <line x1="58.5" y1="99.1" x2="76.4" y2="102.5"/>
  <line x1="87.5" y1="73.5" x2="73.9" y2="78.5"/>
  <line x1="100.5" y1="85.4" x2="112.6" y2="93.8"/>
  <line x1="98.1" y1="144.1" x2="109.9" y2="139.7"/>
  <line x1="96.3" y1="99.8" x2="97.7" y2="106.4"/>
  <line x1="156.1" y1="137.7" x2="159.6" y2="112.7"/>
  <line x1="119.6" y1="62.8" x2="117.7" y2="68.5"/>
  <line x1="99.1" y1="131.9" x2="92.4" y2="125.4"/>
  <line x1="136.7" y1="88.9" x2="132.1" y2="82.1"/>
  <line x1="91.3" y1="107.4" x2="97.7" y2="106.4"/>
  <line x1="113.4" y1="146.7" x2="100.0" y2="200.0"/>
  <line x1="21.1" y1="81.3" x2="0.0" y2="0.0"/>
  <line x1="107.8" y1="103.4" x2="107.9" y2="110.5"/>
  <line x1="88.2" y1="147.2" x2="100.0" y2="200.0"/>
  <line x1="131.2" y1="45.3" x2="119.6" y2="62.8"/>
  <line x1="138.7" y1="156.2" x2="113.4" y2="146.7"/>
  <line x1="138.7" y1="156.2" x2="142.5" y2="144.4"/>
  <line x1="94.2" y1="119.0" x2="90.7" y2="115.9"/>
  <line x1="66.4" y1="131.3" x2="71.2" y2="126.8"/>
  <line x1="95.4" y1="108.8" x2="90.7" y2="115.9"/>
  <line x1="123.8" y1="95.3" x2="125.2" y2="108.4"/>
  <line x1="67.1" y1="123.7" x2="71.2" y2="126.8"/>
  <line x1="137.7" y1="61.7" x2="119.6" y2="62.8"/>
  <line x1="96.5" y1="95.3" x2="93.8" y2="89.2"/>
  <line x1="94.2" y1="119.0" x2="95.4" y2="108.8"/>
  <line x1="89.6" y1="40.2" x2="56.1" y2="63.2"/>
  <line x1="117.7" y1="68.5" x2="101.9" y2="73.9"/>
  <line x1="132.7" y1="77.5" x2="132.1" y2="82.1"/>
  <line x1="113.5" y1="103.1" x2="125.2" y2="108.4"/>
  <line x1="91.3" y1="107.4" x2="87.4" y2="101.1"/>
  <line x1="85.4" y1="77.1" x2="84.5" y2="83.4"/>
  <line x1="91.3" y1="107.4" x2="96.3" y2="99.8"/>
  <line x1="100.0" y1="0.0" x2="0.0" y2="0.0"/>
  <line x1="76.3" y1="91.0" x2="78.1" y2="92.2"/>
  <line x1="137.7" y1="61.7" x2="136.4" y2="67.3"/>
  <line x1="94.2" y1="119.0" x2="103.6" y2="120.5"/>
  <line x1="106.1" y1="77.5" x2="101.9" y2="73.9"/>
  <line x1="98.6" y1="106.7" x2="102.8" y2="106.1"/>
  <line x1="79.8" y1="118.8" x2="92.4" y2="125.4"/>
  <line x1="43.3" y1="93.2" x2="70.9" y2="90.0"/>
  <line x1="99.1" y1="131.9" x2="109.0" y2="128.3"/>
  <line x1="101.3" y1="54.7" x2="101.9" y2="73.9"/>
  <line x1="109.1" y1="76.4" x2="101.9" y2="73.9"/>
  <line x1="136.7" y1="88.9" x2="132.7" y2="77.5"/>
  <line x1="77.2" y1="112.0" x2="79.8" y2="118.8"/>
  <line x1="113.6" y1="130.1" x2="116.7" y2="138.3"/>
  <line x1="125.9" y1="85.8" x2="131.1" y2="96.4"/>
  <line x1="144.1" y1="66.0" x2="136.4" y2="67.3"/>
  <line x1="132.1" y1="82.1" x2="124.1" y2="73.1"/>
  <line x1="109.0" y1="128.3" x2="109.9" y2="139.7"/>
  <line x1="102.6" y1="111.0" x2="98.6" y2="106.7"/>
  <line x1="102.6" y1="111.0" x2="102.8" y2="106.1"/>
  <line x1="89.6" y1="40.2" x2="89.0" y2="67.9"/>
  <line x1="56.1" y1="63.2" x2="89.0" y2="67.9"/>
  <line x1="101.3" y1="54.7" x2="117.7" y2="68.5"/>
  <line x1="109.1" y1="76.4" x2="117.7" y2="68.5"/>
  <line x1="43.3" y1="93.2" x2="0.0" y2="100.0"/>
  <line x1="114.2" y1="110.2" x2="125.2" y2="108.4"/>
  <line x1="91.3" y1="107.4" x2="77.2" y2="112.0"/>
  <line x1="57.3" y1="112.6" x2="58.5" y2="99.1"/>
  <line x1="122.7" y1="89.3" x2="111.1" y2="77.0"/>
  <line x1="144.1" y1="66.0" x2="145.3" y2="68.0"/>
  <line x1="93.1" y1="79.2" x2="89.0" y2="67.9"/>
  <line x1="66.4" y1="131.3" x2="88.2" y2="147.2"/>
  <line x1="102.8" y1="106.1" x2="105.6" y2="99.9"/>
  <line x1="0.0" y1="100.0" x2="0.0" y2="0.0"/>
  <line x1="113.5" y1="103.1" x2="107.9" y2="110.5"/>
  <line x1="126.5" y1="130.3" x2="119.4" y2="116.8"/>
  <line x1="102.6" y1="111.0" x2="106.0" y2="114.4"/>
  <line x1="86.7" y1="115.1" x2="79.8" y2="118.8"/>
  <line x1="114.2" y1="110.2" x2="107.6" y2="120.3"/>
  <line x1="113.4" y1="146.7" x2="109.9" y2="139.7"/>
  <line x1="96.5" y1="95.3" x2="96.3" y2="99.8"/>
  <line x1="144.1" y1="66.0" x2="137.7" y2="61.7"/>
  <line x1="93.1" y1="79.2" x2="84.5" y2="83.4"/>
  <line x1="100.0" y1="200.0" x2="0.0" y2="200.0"/>
  <line x1="109.0" y1="128.3" x2="107.6" y2="120.3"/>
  <line x1="98.1" y1="144.1" x2="88.2" y2="147.2"/>
  <line x1="111.1" y1="77.0" x2="112.6" y2="93.8"/>
  <line x1="113.5" y1="103.1" x2="123.8" y2="95.3"/>
  <line x1="109.1" y1="76.4" x2="106.1" y2="77.5"/>
  <line x1="78.7" y1="92.4" x2="84.5" y2="83.4"/>
  <line x1="101.3" y1="54.7" x2="131.2" y2="45.3"/>
  <line x1="81.4" y1="136.1" x2="71.2" y2="126.8"/>
  <line x1="57.3" y1="112.6" x2="43.3" y2="93.2"/>
  <line x1="114.2" y1="110.2" x2="119.4" y2="116.8"/>
  <line x1="86.7" y1="115.1" x2="92.4" y2="125.4"/>
  <line x1="63.3" y1="109.6" x2="75.6" y2="105.9"/>
  <line x1="124.1" y1="73.1" x2="119.6" y2="62.8"/>
  <line x1="113.6" y1="130.1" x2="109.9" y2="139.7"/>
  <line x1="145.3" y1="68.0" x2="200.0" y2="100.0"/>
  <line x1="128.5" y1="119.3" x2="125.2" y2="108.4"/>
  <line x1="47.6" y1="142.8" x2="43.9" y2="117.1"/>
  <line x1="109.1" y1="76.4" x2="111.1" y2="77.0"/>
  <line x1="99.1" y1="131.9" x2="81.4" y2="136.1"/>
  <line x1="56.1" y1="63.2" x2="73.9" y2="78.5"/>
  <line x1="114.2" y1="110.2" x2="107.9" y2="110.5"/>
  <line x1="115.0" y1="139.7" x2="109.9" y2="139.7"/>
  <line x1="124.1" y1="73.1" x2="136.4" y2="67.3"/>
  <line x1="91.3" y1="107.4" x2="95.4" y2="108.8"/>
  <line x1="87.4" y1="101.1" x2="93.9" y2="97.8"/>
  <line x1="76.3" y1="91.0" x2="70.9" y2="90.0"/>
  <line x1="73.9" y1="78.5" x2="84.5" y2="83.4"/>
  <line x1="100.0" y1="200.0" x2="200.0" y2="200.0"/>
  <line x1="87.4" y1="101.1" x2="90.2" y2="97.6"/>
  <line x1="87.4" y1="101.1" x2="76.4" y2="102.5"/>
  <line x1="103.6" y1="120.5" x2="107.6" y2="120.3"/>
  <line x1="0.0" y1="100.0" x2="0.0" y2="200.0"/>
  <line x1="93.9" y1="97.8" x2="93.8" y2="89.2"/>
  <line x1="57.3" y1="112.6" x2="67.1" y2="123.7"/>
  <line x1="77.2" y1="112.0" x2="67.1" y2="123.7"/>
  <line x1="115.0" y1="139.7" x2="117.1" y2="141.7"/>
  <line x1="136.7" y1="88.9" x2="131.1" y2="96.4"/>
  <line x1="135.1" y1="95.9" x2="125.2" y2="108.4"/>
  <line x1="156.1" y1="137.7" x2="200.0" y2="200.0"/>
  <line x1="145.3" y1="68.0" x2="136.4" y2="67.3"/>
  <line x1="131.2" y1="45.3" x2="200.0" y2="0.0"/>
  <line x1="128.5" y1="119.3" x2="119.4" y2="116.8"/>
  <line x1="77.4" y1="92.5" x2="76.4" y2="102.5"/>
  <line x1="138.7" y1="156.2" x2="117.1" y2="141.7"/>
  <line x1="113.6" y1="130.1" x2="107.6" y2="120.3"/>
  <line x1="101.9" y1="73.9" x2="89.0" y2="67.9"/>
  <line x1="96.3" y1="99.8" x2="105.6" y2="99.9"/>
  <line x1="92.4" y1="125.4" x2="90.7" y2="115.9"/>
  <line x1="93.8" y1="89.2" x2="84.5" y2="83.4"/>
  <line x1="107.8" y1="103.4" x2="105.6" y2="99.9"/>
  <line x1="156.1" y1="137.7" x2="200.0" y2="100.0"/>
  <line x1="145.3" y1="68.0" x2="162.9" y2="93.5"/>
  <line x1="91.3" y1="107.4" x2="95.7" y2="108.3"/>
  <line x1="131.2" y1="45.3" x2="100.0" y2="0.0"/>
  <line x1="56.1" y1="63.2" x2="43.3" y2="93.2"/>
  <line x1="113.6" y1="130.1" x2="119.4" y2="116.8"/>
  <line x1="111.1" y1="77.0" x2="124.1" y2="73.1"/>
  <line x1="58.5" y1="99.1" x2="70.9" y2="90.0"/>
  <line x1="100.5" y1="85.4" x2="101.9" y2="73.9"/>
  <line x1="56.1" y1="63.2" x2="21.1" y2="81.3"/>
  <line x1="78.7" y1="92.4" x2="90.2" y2="97.6"/>
  <line x1="99.0" y1="123.4" x2="92.4" y2="125.4"/>
  <line x1="114.2" y1="110.2" x2="113.5" y2="103.1"/>
  <line x1="81.4" y1="136.1" x2="88.2" y2="147.2"/>
  <line x1="99.1" y1="131.9" x2="109.9" y2="139.7"/>
  <line x1="159.6" y1="112.7" x2="200.0" y2="100.0"/>
  <line x1="63.3" y1="109.6" x2="77.2" y2="112.0"/>
  <line x1="125.9" y1="85.8" x2="136.7" y2="88.9"/>
  <line x1="21.1" y1="81.3" x2="0.0" y2="100.0"/>
  <line x1="128.5" y1="119.3" x2="126.5" y2="130.3"/>
  <line x1="107.8" y1="103.4" x2="105.9" y2="99.1"/>
  <line x1="144.1" y1="66.0" x2="200.0" y2="0.0"/>
  <line x1="87.5" y1="73.5" x2="85.4" y2="77.1"/>
  <line x1="156.1" y1="137.7" x2="152.3" y2="120.8"/>
  <line x1="125.9" y1="85.8" x2="122.7" y2="89.3"/>
  <line x1="107.8" y1="103.4" x2="113.5" y2="103.1"/>
  <line x1="113.6" y1="130.1" x2="126.5" y2="130.3"/>
  <line x1="76.4" y1="102.5" x2="70.9" y2="90.0"/>
  <line x1="76.3" y1="91.0" x2="77.4" y2="92.5"/>
  <line x1="78.1" y1="92.2" x2="77.4" y2="92.5"/>
  <line x1="100.5" y1="85.4" x2="93.8" y2="89.2"/>
  <line x1="142.5" y1="144.4" x2="152.3" y2="120.8"/>
  <line x1="159.6" y1="112.7" x2="152.3" y2="120.8"/>
  <line x1="93.9" y1="97.8" x2="96.3" y2="99.8"/>
  <line x1="136.7" y1="88.9" x2="145.3" y2="68.0"/>
  <line x1="95.4" y1="108.8" x2="95.7" y2="108.3"/>
  <line x1="136.7" y1="88.9" x2="162.9" y2="93.5"/>
  <line x1="113.6" y1="130.1" x2="115.0" y2="139.7"/>
  <line x1="96.5" y1="95.3" x2="105.6" y2="99.9"/>
  <line x1="100.5" y1="85.4" x2="106.1" y2="77.5"/>
  <line x1="89.6" y1="40.2" x2="101.3" y2="54.7"/>
  <line x1="75.6" y1="105.9" x2="76.4" y2="102.5"/>
  <line x1="86.7" y1="115.1" x2="91.3" y2="107.4"/>
  <line x1="99.0" y1="123.4" x2="109.0" y2="128.3"/>
  <line x1="116.7" y1="138.3" x2="117.1" y2="141.7"/>
  <line x1="106.0" y1="114.4" x2="107.6" y2="120.3"/>
  <line x1="98.6" y1="106.7" x2="97.7" y2="106.4"/>
  <line x1="99.1" y1="131.9" x2="99.0" y2="123.4"/>
  <line x1="159.6" y1="112.7" x2="162.9" y2="93.5"/>
  <line x1="132.7" y1="77.5" x2="136.4" y2="67.3"/>
  <line x1="71.2" y1="126.8" x2="79.8" y2="118.8"/>
  <line x1="156.1" y1="137.7" x2="142.5" y2="144.4"/>
  <line x1="102.6" y1="111.0" x2="95.4" y2="108.8"/>
  <line x1="123.8" y1="95.3" x2="131.1" y2="96.4"/>
  <line x1="57.3" y1="112.6" x2="43.9" y2="117.1"/>
  <line x1="67.1" y1="123.7" x2="79.8" y2="118.8"/>
  <line x1="94.2" y1="119.0" x2="92.4" y2="125.4"/>
  <line x1="122.7" y1="89.3" x2="123.8" y2="95.3"/>
  <line x1="47.6" y1="142.8" x2="88.2" y2="147.2"/>
  <line x1="96.5" y1="95.3" x2="105.9" y2="99.1"/>
  <line x1="122.7" y1="89.3" x2="131.1" y2="96.4"/>
  <line x1="98.1" y1="144.1" x2="89.5" y2="144.9"/>
  <line x1="132.7" y1="77.5" x2="145.3" y2="68.0"/>
  <line x1="102.6" y1="111.0" x2="94.2" y2="119.0"/>
  <line x1="102.6" y1="111.0" x2="107.9" y2="110.5"/>
  <line x1="101.3" y1="54.7" x2="89.0" y2="67.9"/>
  <line x1="113.4" y1="146.7" x2="117.1" y2="141.7"/>
  <line x1="136.7" y1="88.9" x2="135.1" y2="95.9"/>
  <line x1="138.7" y1="156.2" x2="156.1" y2="137.7"/>
  <line x1="137.7" y1="61.7" x2="131.2" y2="45.3"/>
  <line x1="106.0" y1="114.4" x2="107.9" y2="110.5"/>
  <line x1="159.6" y1="112.7" x2="135.1" y2="95.9"/>
  <line x1="113.5" y1="103.1" x2="105.9" y2="99.1"/>
  <line x1="98.6" y1="106.7" x2="96.3" y2="99.8"/>
  <line x1="107.8" y1="103.4" x2="102.8" y2="106.1"/>
  <line x1="47.6" y1="142.8" x2="66.4" y2="131.3"/>
  <line x1="96.5" y1="95.3" x2="93.9" y2="97.8"/>
  <line x1="123.8" y1="95.3" x2="112.6" y2="93.8"/>
  <line x1="144.1" y1="66.0" x2="131.2" y2="45.3"/>
  <line x1="145.3" y1="68.0" x2="200.0" y2="0.0"/>
  <line x1="109.0" y1="128.3" x2="103.6" y2="120.5"/>
  <line x1="113.5" y1="103.1" x2="112.6" y2="93.8"/>
  <style> circle{fill: black; r: 0.8; }</style>
  <circle cx="47.6" cy="142.8"/>
  <circle cx="86.7" cy="115.1"/>
  <circle cx="98.1" cy="144.1"/>
  <circle cx="99.1" cy="131.9"/>
  <circle cx="78.7" cy="92.4"/>
  <circle cx="63.3" cy="109.6"/>
  <circle cx="144.1" cy="66.0"/>
  <circle cx="91.3" cy="107.4"/>
  <circle cx="76.3" cy="91.0"/>
  <circle cx="125.9" cy="85.8"/>
  <circle cx="66.4" cy="131.3"/>
  <circle cx="138.7" cy="156.2"/>
  <circle cx="89.6" cy="40.2"/>
  <circle cx="109.1" cy="76.4"/>
  <circle cx="102.6" cy="111.0"/>
  <circle cx="156.1" cy="137.7"/>
  <circle cx="81.4" cy="136.1"/>
  <circle cx="57.3" cy="112.6"/>
  <circle cx="107.8" cy="103.4"/>
  <circle cx="113.6" cy="130.1"/>
  <circle cx="87.4" cy="101.1"/>
  <circle cx="122.7" cy="89.3"/>
  <circle cx="98.6" cy="106.7"/>
  <circle cx="56.1" cy="63.2"/>
  <circle cx="114.2" cy="110.2"/>
  <circle cx="116.7" cy="138.3"/>
  <circle cx="136.7" cy="88.9"/>
  <circle cx="128.5" cy="119.3"/>
  <circle cx="77.2" cy="112.0"/>
  <circle cx="96.5" cy="95.3"/>
  <circle cx="78.1" cy="92.2"/>
  <circle cx="102.8" cy="106.1"/>
  <circle cx="43.3" cy="93.2"/>
  <circle cx="87.5" cy="73.5"/>
  <circle cx="159.6" cy="112.7"/>
  <circle cx="101.3" cy="54.7"/>
  <circle cx="113.4" cy="146.7"/>
  <circle cx="132.7" cy="77.5"/>
  <circle cx="115.0" cy="139.7"/>
  <circle cx="111.1" cy="77.0"/>
  <circle cx="67.1" cy="123.7"/>
  <circle cx="100.5" cy="85.4"/>
  <circle cx="93.1" cy="79.2"/>
  <circle cx="126.5" cy="130.3"/>
  <circle cx="106.0" cy="114.4"/>
  <circle cx="142.5" cy="144.4"/>
  <circle cx="93.9" cy="97.8"/>
  <circle cx="88.2" cy="147.2"/>
  <circle cx="94.2" cy="119.0"/>
  <circle cx="135.1" cy="95.9"/>
  <circle cx="145.3" cy="68.0"/>
  <circle cx="113.5" cy="103.1"/>
  <circle cx="132.1" cy="82.1"/>
  <circle cx="99.0" cy="123.4"/>
  <circle cx="109.0" cy="128.3"/>
  <circle cx="152.3" cy="120.8"/>
  <circle cx="96.3" cy="99.8"/>
  <circle cx="97.7" cy="106.4"/>
  <circle cx="124.1" cy="73.1"/>
  <circle cx="21.1" cy="81.3"/>
  <circle cx="58.5" cy="99.1"/>
  <circle cx="77.4" cy="92.5"/>
  <circle cx="106.1" cy="77.5"/>
  <circle cx="137.7" cy="61.7"/>
  <circle cx="90.2" cy="97.6"/>
  <circle cx="89.5" cy="144.9"/>
  <circle cx="107.9" cy="110.5"/>
  <circle cx="71.2" cy="126.8"/>
  <circle cx="162.9" cy="93.5"/>
  <circle cx="122.2" cy="114.6"/>
  <circle cx="123.8" cy="95.3"/>
  <circle cx="131.2" cy="45.3"/>
  <circle cx="117.1" cy="141.7"/>
  <circle cx="136.4" cy="67.3"/>
  <circle cx="79.8" cy="118.8"/>
  <circle cx="75.6" cy="105.9"/>
  <circle cx="93.8" cy="89.2"/>
  <circle cx="109.9" cy="139.7"/>
  <circle cx="119.6" cy="62.8"/>
  <circle cx="105.6" cy="99.9"/>
  <circle cx="119.4" cy="116.8"/>
  <circle cx="117.7" cy="68.5"/>
  <circle cx="76.4" cy="102.5"/>
  <circle cx="73.9" cy="78.5"/>
  <circle cx="103.6" cy="120.5"/>
  <circle cx="107.6" cy="120.3"/>
  <circle cx="85.4" cy="77.1"/>
  <circle cx="92.4" cy="125.4"/>
  <circle cx="131.1" cy="96.4"/>
  <circle cx="95.4" cy="108.8"/>
  <circle cx="70.9" cy="90.0"/>
  <circle cx="43.9" cy="117.1"/>
  <circle cx="105.9" cy="99.1"/>
  <circle cx="84.5" cy="83.4"/>
  <circle cx="90.7" cy="115.9"/>
  <circle cx="101.9" cy="73.9"/>
  <circle cx="112.6" cy="93.8"/>
  <circle cx="95.7" cy="108.3"/>
  <circle cx="89.0" cy="67.9"/>
  <circle cx="125.2" cy="108.4"/>
  <circle cx="100.0" cy="0.0"/>
  <circle cx="200.0" cy="100.0"/>
  <circle cx="100.0" cy="200.0"/>
  <circle cx="0.0" cy="100.0"/>
  <circle cx="0.0" cy="0.0"/>
  <circle cx="200.0" cy="0.0"/>
  <circle cx="200.0" cy="200.0"/>
  <circle cx="0.0" cy="200.0"/>
</svg>
