<?xml version='1.0' encoding='UTF-8' standalone='no'?>
<svg xmlns="http://www.w3.org/2000/svg" xmlns:xlink="http://www.w3.org/1999/xlink" version="1.1" width="200" height="200" viewBox="0 0 200 200" style="border:1px solid black">
  <style> line { stroke: green; stroke-width: 0.5; stroke-dasharray: None;  } </style>
  <line x1="56.8" y1="190.5" x2="45.4" y2="184.0"/>
  <line x1="167.1" y1="133.5" x2="173.1" y2="123.6"/>
  <line x1="119.4" y1="130.0" x2="129.0" y2="149.6"/>
  <line x1="106.9" y1="153.1" x2="83.2" y2="153.3"/>
  <line x1="42.0" y1="88.6" x2="32.2" y2="77.5"/>
  <line x1="48.9" y1="121.1" x2="49.8" y2="126.5"/>
  <line x1="9.7" y1="33.4" x2="8.6" y2="3.9"/>
  <line x1="50.6" y1="176.4" x2="45.4" y2="184.0"/>
  <line x1="180.5" y1="12.6" x2="188.5" y2="31.8"/>
  <line x1="47.3" y1="123.8" x2="44.1" y2="119.3"/>
  <line x1="110.0" y1="107.2" x2="94.0" y2="98.0"/>
  <line x1="89.6" y1="4.6" x2="100.0" y2="0.0"/>
  <line x1="2.2" y1="114.4" x2="7.7" y2="114.1"/>
  <line x1="33.8" y1="3.3" x2="64.1" y2="9.0"/>
  <line x1="9.8" y1="94.5" x2="5.1" y2="95.7"/>
  <line x1="44.1" y1="119.3" x2="23.2" y2="128.4"/>
  <line x1="153.2" y1="38.6" x2="135.8" y2="32.3"/>
  <line x1="33.8" y1="3.3" x2="48.6" y2="21.0"/>
  <line x1="166.2" y1="168.3" x2="167.9" y2="164.7"/>
  <line x1="166.9" y1="102.8" x2="168.5" y2="59.9"/>
  <line x1="12.2" y1="185.8" x2="0.0" y2="200.0"/>
  <line x1="32.7" y1="98.3" x2="32.2" y2="77.5"/>
  <line x1="171.1" y1="43.0" x2="163.3" y2="58.2"/>
  <line x1="61.8" y1="99.0" x2="47.3" y2="77.8"/>
  <line x1="196.0" y1="34.4" x2="200.0" y2="0.0"/>
  <line x1="56.8" y1="190.5" x2="50.6" y2="176.4"/>
  <line x1="32.6" y1="139.3" x2="49.3" y2="146.1"/>
  <line x1="111.0" y1="177.6" x2="119.3" y2="173.0"/>
  <line x1="78.9" y1="196.0" x2="81.1" y2="186.8"/>
  <line x1="64.0" y1="101.8" x2="94.0" y2="98.0"/>
  <line x1="48.9" y1="121.1" x2="44.1" y2="119.3"/>
  <line x1="148.3" y1="61.7" x2="154.0" y2="99.9"/>
  <line x1="8.5" y1="137.0" x2="23.3" y2="129.7"/>
  <line x1="11.5" y1="179.5" x2="13.9" y2="186.7"/>
  <line x1="180.6" y1="54.8" x2="196.0" y2="34.4"/>
  <line x1="187.0" y1="91.7" x2="166.9" y2="102.8"/>
  <line x1="154.2" y1="162.0" x2="143.0" y2="160.1"/>
  <line x1="159.2" y1="30.8" x2="142.1" y2="22.0"/>
  <line x1="142.1" y1="22.0" x2="158.2" y2="22.3"/>
  <line x1="45.8" y1="52.5" x2="33.3" y2="62.1"/>
  <line x1="6.7" y1="48.2" x2="0.0" y2="0.0"/>
  <line x1="11.5" y1="179.5" x2="21.3" y2="164.6"/>
  <line x1="183.8" y1="112.7" x2="191.3" y2="93.9"/>
  <line x1="129.5" y1="159.8" x2="106.9" y2="153.1"/>
  <line x1="111.0" y1="177.6" x2="117.0" y2="191.8"/>
  <line x1="44.0" y1="185.8" x2="47.9" y2="193.9"/>
  <line x1="56.3" y1="60.5" x2="48.3" y2="51.2"/>
  <line x1="12.2" y1="185.8" x2="12.8" y2="187.6"/>
  <line x1="123.1" y1="193.1" x2="137.3" y2="182.3"/>
  <line x1="38.9" y1="43.8" x2="45.8" y2="52.5"/>
  <line x1="96.7" y1="21.0" x2="100.0" y2="0.0"/>
  <line x1="74.7" y1="62.8" x2="54.6" y2="69.2"/>
  <line x1="184.8" y1="186.9" x2="200.0" y2="200.0"/>
  <line x1="102.4" y1="130.3" x2="93.9" y2="141.1"/>
  <line x1="15.8" y1="50.5" x2="33.3" y2="62.1"/>
  <line x1="190.5" y1="125.8" x2="200.0" y2="100.0"/>
  <line x1="45.4" y1="184.0" x2="21.3" y2="164.6"/>
  <line x1="6.7" y1="68.9" x2="5.1" y2="95.7"/>
  <line x1="150.3" y1="138.5" x2="153.1" y2="144.4"/>
  <line x1="110.0" y1="107.2" x2="130.1" y2="106.5"/>
  <line x1="180.5" y1="12.6" x2="200.0" y2="0.0"/>
  <line x1="102.4" y1="130.3" x2="104.8" y2="116.5"/>
  <line x1="101.7" y1="70.2" x2="98.5" y2="67.1"/>
  <line x1="9.8" y1="94.5" x2="7.7" y2="114.1"/>
  <line x1="11.5" y1="179.5" x2="0.0" y2="200.0"/>
  <line x1="56.3" y1="60.5" x2="63.3" y2="44.3"/>
  <line x1="12.8" y1="187.6" x2="0.0" y2="200.0"/>
  <line x1="195.2" y1="91.1" x2="200.0" y2="100.0"/>
  <line x1="177.1" y1="157.2" x2="191.8" y2="159.5"/>
  <line x1="32.7" y1="98.3" x2="42.0" y2="88.6"/>
  <line x1="9.7" y1="33.4" x2="48.6" y2="21.0"/>
  <line x1="129.5" y1="159.8" x2="129.0" y2="149.6"/>
  <line x1="168.5" y1="59.9" x2="155.6" y2="58.8"/>
  <line x1="180.3" y1="38.4" x2="188.5" y2="31.8"/>
  <line x1="173.1" y1="123.6" x2="175.2" y2="116.1"/>
  <line x1="29.0" y1="75.2" x2="9.8" y2="94.5"/>
  <line x1="48.9" y1="121.1" x2="47.3" y2="123.8"/>
  <line x1="184.0" y1="173.1" x2="166.0" y2="169.7"/>
  <line x1="123.0" y1="64.7" x2="140.8" y2="50.7"/>
  <line x1="154.9" y1="148.3" x2="154.3" y2="141.2"/>
  <line x1="9.7" y1="33.4" x2="38.9" y2="43.8"/>
  <line x1="141.3" y1="151.5" x2="150.3" y2="138.5"/>
  <line x1="171.6" y1="4.9" x2="162.9" y2="12.2"/>
  <line x1="124.6" y1="185.5" x2="119.3" y2="173.0"/>
  <line x1="6.7" y1="68.9" x2="33.3" y2="62.1"/>
  <line x1="190.3" y1="113.2" x2="183.8" y2="112.7"/>
  <line x1="48.5" y1="109.8" x2="43.9" y2="102.6"/>
  <line x1="183.8" y1="112.7" x2="166.9" y2="102.8"/>
  <line x1="104.1" y1="79.6" x2="114.0" y2="80.0"/>
  <line x1="167.1" y1="133.5" x2="149.1" y2="111.8"/>
  <line x1="132.5" y1="114.9" x2="108.3" y2="110.8"/>
  <line x1="149.1" y1="111.8" x2="173.1" y2="123.6"/>
  <line x1="78.9" y1="196.0" x2="68.6" y2="192.3"/>
  <line x1="56.8" y1="190.5" x2="68.6" y2="192.3"/>
  <line x1="177.1" y1="157.2" x2="179.7" y2="149.7"/>
  <line x1="159.2" y1="30.8" x2="175.7" y2="19.7"/>
  <line x1="11.5" y1="179.5" x2="12.8" y2="166.6"/>
  <line x1="173.1" y1="123.6" x2="174.0" y2="135.9"/>
  <line x1="146.9" y1="57.4" x2="155.6" y2="58.8"/>
  <line x1="191.3" y1="93.9" x2="200.0" y2="100.0"/>
  <line x1="190.5" y1="125.8" x2="189.5" y2="153.5"/>
  <line x1="154.0" y1="99.9" x2="168.5" y2="59.9"/>
  <line x1="104.8" y1="116.5" x2="94.8" y2="124.6"/>
  <line x1="13.9" y1="186.7" x2="12.2" y2="185.8"/>
  <line x1="103.3" y1="54.9" x2="98.5" y2="67.1"/>
  <line x1="135.8" y1="32.3" x2="104.5" y2="51.3"/>
  <line x1="102.4" y1="130.3" x2="119.4" y2="130.0"/>
  <line x1="151.4" y1="102.0" x2="130.1" y2="106.5"/>
  <line x1="181.9" y1="121.0" x2="175.2" y2="116.1"/>
  <line x1="133.8" y1="152.7" x2="129.5" y2="159.8"/>
  <line x1="132.5" y1="114.9" x2="110.0" y2="107.2"/>
  <line x1="139.3" y1="160.3" x2="133.8" y2="152.7"/>
  <line x1="119.3" y1="173.0" x2="131.7" y2="177.5"/>
  <line x1="118.4" y1="171.2" x2="106.9" y2="153.1"/>
  <line x1="100.0" y1="0.0" x2="200.0" y2="0.0"/>
  <line x1="51.6" y1="28.2" x2="48.6" y2="21.0"/>
  <line x1="45.4" y1="184.0" x2="47.9" y2="193.9"/>
  <line x1="187.0" y1="91.7" x2="195.2" y2="91.1"/>
  <line x1="93.9" y1="141.1" x2="83.2" y2="153.3"/>
  <line x1="130.0" y1="149.2" x2="119.4" y2="130.0"/>
  <line x1="81.1" y1="186.8" x2="85.2" y2="189.3"/>
  <line x1="87.0" y1="36.4" x2="83.9" y2="15.0"/>
  <line x1="32.7" y1="98.3" x2="9.8" y2="94.5"/>
  <line x1="27.4" y1="187.9" x2="45.4" y2="184.0"/>
  <line x1="196.8" y1="68.6" x2="200.0" y2="100.0"/>
  <line x1="31.3" y1="50.2" x2="33.3" y2="62.1"/>
  <line x1="96.7" y1="21.0" x2="126.5" y2="20.4"/>
  <line x1="149.1" y1="111.8" x2="150.3" y2="138.5"/>
  <line x1="103.3" y1="54.9" x2="104.0" y2="53.3"/>
  <line x1="163.3" y1="58.2" x2="155.6" y2="58.8"/>
  <line x1="184.8" y1="186.9" x2="166.0" y2="169.7"/>
  <line x1="103.3" y1="54.9" x2="94.2" y2="58.9"/>
  <line x1="159.2" y1="30.8" x2="180.3" y2="38.4"/>
  <line x1="118.4" y1="171.2" x2="129.5" y2="159.8"/>
  <line x1="106.1" y1="113.6" x2="94.0" y2="98.0"/>
  <line x1="6.7" y1="48.2" x2="15.8" y2="50.5"/>
  <line x1="8.6" y1="3.9" x2="33.8" y2="3.3"/>
  <line x1="123.0" y1="64.7" x2="104.0" y2="53.3"/>
  <line x1="190.5" y1="125.8" x2="174.0" y2="135.9"/>
  <line x1="104.0" y1="53.3" x2="94.2" y2="58.9"/>
  <line x1="51.6" y1="28.2" x2="48.8" y2="45.5"/>
  <line x1="141.3" y1="151.5" x2="133.8" y2="152.7"/>
  <line x1="106.1" y1="113.6" x2="118.5" y2="129.2"/>
  <line x1="104.8" y1="116.5" x2="106.1" y2="113.6"/>
  <line x1="9.8" y1="94.5" x2="32.2" y2="77.5"/>
  <line x1="195.2" y1="91.1" x2="196.8" y2="68.6"/>
  <line x1="70.3" y1="10.0" x2="64.1" y2="9.0"/>
  <line x1="87.0" y1="36.4" x2="90.4" y2="17.3"/>
  <line x1="149.1" y1="111.8" x2="166.9" y2="102.8"/>
  <line x1="146.9" y1="57.4" x2="135.8" y2="69.2"/>
  <line x1="139.3" y1="160.3" x2="129.5" y2="159.8"/>
  <line x1="106.9" y1="153.1" x2="129.0" y2="149.6"/>
  <line x1="6.7" y1="68.9" x2="15.8" y2="50.5"/>
  <line x1="47.3" y1="77.8" x2="45.1" y2="83.5"/>
  <line x1="32.2" y1="77.5" x2="45.1" y2="83.5"/>
  <line x1="82.9" y1="128.2" x2="74.8" y2="150.3"/>
  <line x1="157.2" y1="175.6" x2="184.8" y2="186.9"/>
  <line x1="32.6" y1="139.3" x2="8.5" y2="137.0"/>
  <line x1="166.9" y1="102.8" x2="175.2" y2="116.1"/>
  <line x1="69.2" y1="4.7" x2="64.1" y2="9.0"/>
  <line x1="50.6" y1="176.4" x2="21.3" y2="164.6"/>
  <line x1="185.3" y1="166.4" x2="184.0" y2="173.1"/>
  <line x1="171.1" y1="43.0" x2="159.2" y2="30.8"/>
  <line x1="171.1" y1="43.0" x2="180.3" y2="38.4"/>
  <line x1="157.2" y1="175.6" x2="137.3" y2="182.3"/>
  <line x1="90.4" y1="17.3" x2="100.0" y2="0.0"/>
  <line x1="57.1" y1="135.6" x2="49.3" y2="146.1"/>
  <line x1="150.7" y1="186.0" x2="137.3" y2="182.3"/>
  <line x1="98.5" y1="67.1" x2="94.0" y2="98.0"/>
  <line x1="74.7" y1="62.8" x2="94.2" y2="58.9"/>
  <line x1="42.0" y1="88.6" x2="55.8" y2="104.5"/>
  <line x1="4.4" y1="155.9" x2="21.3" y2="164.6"/>
  <line x1="187.0" y1="91.7" x2="168.5" y2="59.9"/>
  <line x1="42.0" y1="88.6" x2="45.1" y2="83.5"/>
  <line x1="4.4" y1="155.9" x2="0.0" y2="100.0"/>
  <line x1="11.5" y1="179.5" x2="12.2" y2="185.8"/>
  <line x1="123.1" y1="193.1" x2="117.0" y2="191.8"/>
  <line x1="101.7" y1="70.2" x2="103.3" y2="54.9"/>
  <line x1="111.0" y1="177.6" x2="124.6" y2="185.5"/>
  <line x1="85.2" y1="189.3" x2="90.5" y2="166.7"/>
  <line x1="123.1" y1="193.1" x2="150.7" y2="186.0"/>
  <line x1="23.2" y1="128.4" x2="7.7" y2="114.1"/>
  <line x1="8.6" y1="3.9" x2="0.0" y2="0.0"/>
  <line x1="27.4" y1="187.9" x2="44.0" y2="185.8"/>
  <line x1="2.2" y1="114.4" x2="0.0" y2="100.0"/>
  <line x1="41.8" y1="100.4" x2="43.9" y2="102.6"/>
  <line x1="109.8" y1="92.1" x2="94.0" y2="98.0"/>
  <line x1="131.7" y1="177.5" x2="137.3" y2="182.3"/>
  <line x1="154.9" y1="148.3" x2="141.3" y2="151.5"/>
  <line x1="82.9" y1="128.2" x2="93.9" y2="141.1"/>
  <line x1="150.3" y1="138.5" x2="119.4" y2="130.0"/>
  <line x1="108.3" y1="110.8" x2="106.1" y2="113.6"/>
  <line x1="59.0" y1="134.1" x2="57.1" y2="135.6"/>
  <line x1="61.3" y1="135.0" x2="57.1" y2="135.6"/>
  <line x1="103.9" y1="196.5" x2="100.0" y2="200.0"/>
  <line x1="31.3" y1="50.2" x2="15.8" y2="50.5"/>
  <line x1="154.9" y1="148.3" x2="174.0" y2="135.9"/>
  <line x1="4.4" y1="155.9" x2="0.0" y2="200.0"/>
  <line x1="94.0" y1="98.0" x2="82.7" y2="125.8"/>
  <line x1="70.3" y1="10.0" x2="51.6" y2="28.2"/>
  <line x1="57.1" y1="135.6" x2="56.6" y2="151.6"/>
  <line x1="124.6" y1="185.5" x2="131.7" y2="177.5"/>
  <line x1="154.9" y1="148.3" x2="153.1" y2="144.4"/>
  <line x1="139.3" y1="160.3" x2="137.3" y2="182.3"/>
  <line x1="151.4" y1="102.0" x2="135.8" y2="69.2"/>
  <line x1="23.2" y1="128.4" x2="23.3" y2="129.7"/>
  <line x1="190.3" y1="113.2" x2="191.3" y2="93.9"/>
  <line x1="154.2" y1="162.0" x2="154.9" y2="148.3"/>
  <line x1="183.8" y1="112.7" x2="175.2" y2="116.1"/>
  <line x1="124.6" y1="185.5" x2="123.1" y2="193.1"/>
  <line x1="90.5" y1="166.7" x2="83.2" y2="153.3"/>
  <line x1="31.3" y1="50.2" x2="9.7" y2="33.4"/>
  <line x1="7.7" y1="114.1" x2="5.1" y2="95.7"/>
  <line x1="90.5" y1="166.7" x2="103.5" y2="186.0"/>
  <line x1="79.2" y1="185.8" x2="74.8" y2="150.3"/>
  <line x1="64.1" y1="9.0" x2="48.6" y2="21.0"/>
  <line x1="143.0" y1="160.1" x2="137.3" y2="182.3"/>
  <line x1="74.7" y1="62.8" x2="63.3" y2="44.3"/>
  <line x1="130.0" y1="149.2" x2="133.8" y2="152.7"/>
  <line x1="78.9" y1="196.0" x2="47.9" y2="193.9"/>
  <line x1="56.8" y1="190.5" x2="47.9" y2="193.9"/>
  <line x1="134.1" y1="148.2" x2="119.4" y2="130.0"/>
  <line x1="101.7" y1="70.2" x2="118.6" y2="77.6"/>
  <line x1="159.2" y1="30.8" x2="153.2" y2="38.6"/>
  <line x1="48.5" y1="139.2" x2="57.1" y2="135.6"/>
  <line x1="132.5" y1="114.9" x2="118.5" y2="129.2"/>
  <line x1="87.0" y1="36.4" x2="70.3" y2="10.0"/>
  <line x1="96.7" y1="21.0" x2="87.0" y2="36.4"/>
  <line x1="101.7" y1="70.2" x2="104.1" y2="79.6"/>
  <line x1="107.2" y1="185.8" x2="103.5" y2="186.0"/>
  <line x1="70.3" y1="10.0" x2="83.9" y2="15.0"/>
  <line x1="49.3" y1="146.1" x2="21.3" y2="164.6"/>
  <line x1="177.1" y1="157.2" x2="154.9" y2="148.3"/>
  <line x1="104.8" y1="116.5" x2="94.0" y2="98.0"/>
  <line x1="140.8" y1="50.7" x2="104.5" y2="51.3"/>
  <line x1="4.4" y1="155.9" x2="12.8" y2="166.6"/>
  <line x1="59.0" y1="134.1" x2="49.8" y2="126.5"/>
  <line x1="129.5" y1="159.8" x2="119.3" y2="173.0"/>
  <line x1="102.4" y1="130.3" x2="106.9" y2="153.1"/>
  <line x1="79.2" y1="185.8" x2="90.5" y2="166.7"/>
  <line x1="188.5" y1="31.8" x2="200.0" y2="0.0"/>
  <line x1="43.9" y1="102.6" x2="44.1" y2="119.3"/>
  <line x1="38.9" y1="43.8" x2="51.6" y2="28.2"/>
  <line x1="171.1" y1="43.0" x2="168.5" y2="59.9"/>
  <line x1="118.6" y1="77.6" x2="130.1" y2="106.5"/>
  <line x1="31.3" y1="50.2" x2="45.8" y2="52.5"/>
  <line x1="123.1" y1="193.1" x2="103.9" y2="196.5"/>
  <line x1="180.3" y1="38.4" x2="196.0" y2="34.4"/>
  <line x1="59.0" y1="134.1" x2="61.3" y2="135.0"/>
  <line x1="180.5" y1="12.6" x2="171.6" y2="4.9"/>
  <line x1="63.3" y1="44.3" x2="51.6" y2="28.2"/>
  <line x1="68.6" y1="192.3" x2="79.2" y2="185.8"/>
  <line x1="154.9" y1="148.3" x2="167.9" y2="164.7"/>
  <line x1="6.7" y1="48.2" x2="0.0" y2="100.0"/>
  <line x1="200.0" y1="100.0" x2="200.0" y2="200.0"/>
  <line x1="103.5" y1="186.0" x2="100.0" y2="200.0"/>
  <line x1="140.8" y1="50.7" x2="135.8" y2="32.3"/>
  <line x1="48.5" y1="109.8" x2="44.1" y2="119.3"/>
  <line x1="109.8" y1="92.1" x2="110.0" y2="107.2"/>
  <line x1="154.2" y1="162.0" x2="157.2" y2="175.6"/>
  <line x1="33.8" y1="3.3" x2="100.0" y2="0.0"/>
  <line x1="180.3" y1="38.4" x2="175.7" y2="19.7"/>
  <line x1="101.7" y1="70.2" x2="114.0" y2="80.0"/>
  <line x1="48.5" y1="139.2" x2="49.8" y2="126.5"/>
  <line x1="61.8" y1="99.0" x2="42.0" y2="88.6"/>
  <line x1="171.1" y1="43.0" x2="153.2" y2="38.6"/>
  <line x1="61.8" y1="99.0" x2="64.0" y2="101.8"/>
  <line x1="177.1" y1="157.2" x2="189.5" y2="153.5"/>
  <line x1="102.4" y1="130.3" x2="118.5" y2="129.2"/>
  <line x1="48.9" y1="121.1" x2="55.8" y2="104.5"/>
  <line x1="98.5" y1="67.1" x2="94.2" y2="58.9"/>
  <line x1="134.1" y1="148.2" x2="150.3" y2="138.5"/>
  <line x1="29.0" y1="75.2" x2="6.7" y2="68.9"/>
  <line x1="117.0" y1="191.8" x2="107.2" y2="185.8"/>
  <line x1="154.2" y1="162.0" x2="166.0" y2="169.7"/>
  <line x1="132.5" y1="114.9" x2="130.1" y2="106.5"/>
  <line x1="9.8" y1="94.5" x2="6.7" y2="68.9"/>
  <line x1="142.1" y1="22.0" x2="153.2" y2="38.6"/>
  <line x1="94.8" y1="124.6" x2="93.9" y2="141.1"/>
  <line x1="151.4" y1="102.0" x2="149.1" y2="111.8"/>
  <line x1="9.7" y1="33.4" x2="33.8" y2="3.3"/>
  <line x1="6.7" y1="68.9" x2="0.0" y2="100.0"/>
  <line x1="184.8" y1="186.9" x2="150.7" y2="186.0"/>
  <line x1="153.2" y1="38.6" x2="140.8" y2="50.7"/>
  <line x1="33.8" y1="3.3" x2="0.0" y2="0.0"/>
  <line x1="54.6" y1="69.2" x2="46.7" y2="54.5"/>
  <line x1="32.6" y1="139.3" x2="23.2" y2="128.4"/>
  <line x1="149.1" y1="111.8" x2="175.2" y2="116.1"/>
  <line x1="46.7" y1="54.5" x2="33.3" y2="62.1"/>
  <line x1="5.1" y1="95.7" x2="0.0" y2="100.0"/>
  <line x1="27.4" y1="187.9" x2="21.3" y2="164.6"/>
  <line x1="6.7" y1="48.2" x2="6.7" y2="68.9"/>
  <line x1="106.9" y1="153.1" x2="90.5" y2="166.7"/>
  <line x1="192.9" y1="79.4" x2="195.2" y2="91.1"/>
  <line x1="11.5" y1="179.5" x2="27.4" y2="187.9"/>
  <line x1="149.1" y1="111.8" x2="130.1" y2="106.5"/>
  <line x1="118.6" y1="77.6" x2="114.0" y2="80.0"/>
  <line x1="103.9" y1="196.5" x2="103.5" y2="186.0"/>
  <line x1="175.7" y1="19.7" x2="188.5" y2="31.8"/>
  <line x1="108.3" y1="110.8" x2="94.0" y2="98.0"/>
  <line x1="200.0" y1="100.0" x2="200.0" y2="0.0"/>
  <line x1="154.0" y1="99.9" x2="155.6" y2="58.8"/>
  <line x1="157.2" y1="175.6" x2="143.0" y2="160.1"/>
  <line x1="32.7" y1="98.3" x2="41.8" y2="100.4"/>
  <line x1="162.9" y1="12.2" x2="100.0" y2="0.0"/>
  <line x1="167.1" y1="133.5" x2="150.3" y2="138.5"/>
  <line x1="96.7" y1="21.0" x2="104.5" y2="51.3"/>
  <line x1="123.1" y1="193.1" x2="100.0" y2="200.0"/>
  <line x1="74.7" y1="62.8" x2="87.0" y2="36.4"/>
  <line x1="181.9" y1="121.0" x2="174.0" y2="135.9"/>
  <line x1="56.3" y1="60.5" x2="46.7" y2="54.5"/>
  <line x1="48.3" y1="51.2" x2="48.8" y2="45.5"/>
  <line x1="48.9" y1="121.1" x2="64.0" y2="101.8"/>
  <line x1="32.6" y1="139.3" x2="21.3" y2="164.6"/>
  <line x1="42.0" y1="88.6" x2="43.9" y2="102.6"/>
  <line x1="184.0" y1="173.1" x2="167.9" y2="164.7"/>
  <line x1="118.4" y1="171.2" x2="119.3" y2="173.0"/>
  <line x1="175.7" y1="19.7" x2="162.9" y2="12.2"/>
  <line x1="45.8" y1="52.5" x2="48.8" y2="45.5"/>
  <line x1="50.6" y1="176.4" x2="79.2" y2="185.8"/>
  <line x1="157.2" y1="175.6" x2="150.7" y2="186.0"/>
  <line x1="126.5" y1="20.4" x2="100.0" y2="0.0"/>
  <line x1="190.3" y1="113.2" x2="181.9" y2="121.0"/>
  <line x1="196.8" y1="68.6" x2="200.0" y2="0.0"/>
  <line x1="111.0" y1="177.6" x2="107.2" y2="185.8"/>
  <line x1="166.2" y1="168.3" x2="184.0" y2="173.1"/>
  <line x1="48.5" y1="139.2" x2="47.3" y2="123.8"/>
  <line x1="32.6" y1="139.3" x2="44.1" y2="119.3"/>
  <line x1="166.2" y1="168.3" x2="166.0" y2="169.7"/>
  <line x1="32.7" y1="98.3" x2="43.9" y2="102.6"/>
  <line x1="48.3" y1="51.2" x2="46.7" y2="54.5"/>
  <line x1="123.1" y1="193.1" x2="200.0" y2="200.0"/>
  <line x1="9.7" y1="33.4" x2="0.0" y2="0.0"/>
  <line x1="180.6" y1="54.8" x2="168.5" y2="59.9"/>
  <line x1="180.6" y1="54.8" x2="196.8" y2="68.6"/>
  <line x1="100.0" y1="0.0" x2="0.0" y2="0.0"/>
  <line x1="56.6" y1="151.6" x2="74.8" y2="150.3"/>
  <line x1="175.7" y1="19.7" x2="180.5" y2="12.6"/>
  <line x1="70.3" y1="10.0" x2="89.6" y2="4.6"/>
  <line x1="123.0" y1="64.7" x2="104.5" y2="51.3"/>
  <line x1="83.9" y1="15.0" x2="90.4" y2="17.3"/>
  <line x1="45.8" y1="52.5" x2="46.7" y2="54.5"/>
  <line x1="154.2" y1="162.0" x2="167.9" y2="164.7"/>
  <line x1="104.0" y1="53.3" x2="104.5" y2="51.3"/>
  <line x1="68.6" y1="192.3" x2="50.6" y2="176.4"/>
  <line x1="81.1" y1="186.8" x2="90.5" y2="166.7"/>
  <line x1="87.0" y1="36.4" x2="94.2" y2="58.9"/>
  <line x1="151.4" y1="102.0" x2="166.9" y2="102.8"/>
  <line x1="101.7" y1="70.2" x2="123.0" y2="64.7"/>
  <line x1="27.4" y1="187.9" x2="47.9" y2="193.9"/>
  <line x1="171.1" y1="43.0" x2="180.6" y2="54.8"/>
  <line x1="179.7" y1="149.7" x2="189.5" y2="153.5"/>
  <line x1="192.9" y1="79.4" x2="168.5" y2="59.9"/>
  <line x1="11.5" y1="179.5" x2="4.4" y2="155.9"/>
  <line x1="177.1" y1="157.2" x2="167.9" y2="164.7"/>
  <line x1="8.5" y1="137.0" x2="23.2" y2="128.4"/>
  <line x1="118.6" y1="77.6" x2="135.8" y2="69.2"/>
  <line x1="8.5" y1="137.0" x2="6.0" y2="115.8"/>
  <line x1="192.9" y1="79.4" x2="196.8" y2="68.6"/>
  <line x1="38.9" y1="43.8" x2="48.6" y2="21.0"/>
  <line x1="69.2" y1="4.7" x2="70.3" y2="10.0"/>
  <line x1="108.3" y1="110.8" x2="110.0" y2="107.2"/>
  <line x1="175.7" y1="19.7" x2="171.6" y2="4.9"/>
  <line x1="69.2" y1="4.7" x2="89.6" y2="4.6"/>
  <line x1="154.0" y1="99.9" x2="135.8" y2="69.2"/>
  <line x1="158.2" y1="22.3" x2="162.9" y2="12.2"/>
  <line x1="78.9" y1="196.0" x2="0.0" y2="200.0"/>
  <line x1="148.3" y1="61.7" x2="155.6" y2="58.8"/>
  <line x1="44.0" y1="185.8" x2="45.4" y2="184.0"/>
  <line x1="50.6" y1="176.4" x2="74.8" y2="150.3"/>
  <line x1="85.2" y1="189.3" x2="100.0" y2="200.0"/>
  <line x1="104.1" y1="79.6" x2="94.0" y2="98.0"/>
  <line x1="111.0" y1="177.6" x2="106.9" y2="153.1"/>
  <line x1="103.9" y1="196.5" x2="107.2" y2="185.8"/>
  <line x1="32.6" y1="139.3" x2="47.3" y2="123.8"/>
  <line x1="181.9" y1="121.0" x2="173.1" y2="123.6"/>
  <line x1="129.5" y1="159.8" x2="131.7" y2="177.5"/>
  <line x1="154.3" y1="141.2" x2="153.1" y2="144.4"/>
  <line x1="106.9" y1="153.1" x2="119.4" y2="130.0"/>
  <line x1="74.7" y1="62.8" x2="56.3" y2="60.5"/>
  <line x1="118.6" y1="77.6" x2="123.0" y2="64.7"/>
  <line x1="123.0" y1="64.7" x2="135.8" y2="69.2"/>
  <line x1="119.4" y1="130.0" x2="118.5" y2="129.2"/>
  <line x1="82.9" y1="128.2" x2="82.7" y2="125.8"/>
  <line x1="141.3" y1="151.5" x2="134.1" y2="148.2"/>
  <line x1="64.0" y1="101.8" x2="55.8" y2="104.5"/>
  <line x1="175.7" y1="19.7" x2="158.2" y2="22.3"/>
  <line x1="38.9" y1="43.8" x2="48.8" y2="45.5"/>
  <line x1="8.5" y1="137.0" x2="21.3" y2="164.6"/>
  <line x1="69.2" y1="4.7" x2="33.8" y2="3.3"/>
  <line x1="78.9" y1="196.0" x2="100.0" y2="200.0"/>
  <line x1="93.9" y1="141.1" x2="74.8" y2="150.3"/>
  <line x1="63.3" y1="44.3" x2="48.8" y2="45.5"/>
  <line x1="87.0" y1="36.4" x2="63.3" y2="44.3"/>
  <line x1="0.0" y1="100.0" x2="0.0" y2="0.0"/>
  <line x1="12.8" y1="166.6" x2="21.3" y2="164.6"/>
  <line x1="162.9" y1="12.2" x2="126.5" y2="20.4"/>
  <line x1="47.9" y1="193.9" x2="0.0" y2="200.0"/>
  <line x1="103.3" y1="54.9" x2="123.0" y2="64.7"/>
  <line x1="74.7" y1="62.8" x2="61.8" y2="99.0"/>
  <line x1="179.7" y1="149.7" x2="174.0" y2="135.9"/>
  <line x1="187.0" y1="91.7" x2="183.8" y2="112.7"/>
  <line x1="139.3" y1="160.3" x2="141.3" y2="151.5"/>
  <line x1="146.9" y1="57.4" x2="140.8" y2="50.7"/>
  <line x1="61.8" y1="99.0" x2="55.8" y2="104.5"/>
  <line x1="31.3" y1="50.2" x2="38.9" y2="43.8"/>
  <line x1="61.8" y1="99.0" x2="45.1" y2="83.5"/>
  <line x1="89.6" y1="4.6" x2="83.9" y2="15.0"/>
  <line x1="56.6" y1="151.6" x2="49.3" y2="146.1"/>
  <line x1="100.0" y1="200.0" x2="0.0" y2="200.0"/>
  <line x1="126.5" y1="20.4" x2="104.5" y2="51.3"/>
  <line x1="190.3" y1="113.2" x2="190.5" y2="125.8"/>
  <line x1="83.2" y1="153.3" x2="74.8" y2="150.3"/>
  <line x1="167.1" y1="133.5" x2="154.9" y2="148.3"/>
  <line x1="111.0" y1="177.6" x2="118.4" y2="171.2"/>
  <line x1="190.5" y1="125.8" x2="181.9" y2="121.0"/>
  <line x1="29.0" y1="75.2" x2="33.3" y2="62.1"/>
  <line x1="185.3" y1="166.4" x2="167.9" y2="164.7"/>
  <line x1="104.8" y1="116.5" x2="118.5" y2="129.2"/>
  <line x1="69.2" y1="4.7" x2="100.0" y2="0.0"/>
  <line x1="4.4" y1="155.9" x2="8.5" y2="137.0"/>
  <line x1="7.7" y1="114.1" x2="6.0" y2="115.8"/>
  <line x1="109.8" y1="92.1" x2="130.1" y2="106.5"/>
  <line x1="191.8" y1="159.5" x2="200.0" y2="200.0"/>
  <line x1="111.0" y1="177.6" x2="103.5" y2="186.0"/>
  <line x1="61.8" y1="99.0" x2="94.0" y2="98.0"/>
  <line x1="148.3" y1="61.7" x2="135.8" y2="69.2"/>
  <line x1="2.2" y1="114.4" x2="8.5" y2="137.0"/>
  <line x1="89.6" y1="4.6" x2="90.4" y2="17.3"/>
  <line x1="47.3" y1="77.8" x2="33.3" y2="62.1"/>
  <line x1="32.2" y1="77.5" x2="33.3" y2="62.1"/>
  <line x1="109.8" y1="92.1" x2="118.6" y2="77.6"/>
  <line x1="126.5" y1="20.4" x2="135.8" y2="32.3"/>
  <line x1="109.8" y1="92.1" x2="104.1" y2="79.6"/>
  <line x1="9.7" y1="33.4" x2="15.8" y2="50.5"/>
  <line x1="104.1" y1="79.6" x2="98.5" y2="67.1"/>
  <line x1="56.3" y1="60.5" x2="54.6" y2="69.2"/>
  <line x1="54.6" y1="69.2" x2="47.3" y2="77.8"/>
  <line x1="50.6" y1="176.4" x2="49.3" y2="146.1"/>
  <line x1="141.3" y1="151.5" x2="153.1" y2="144.4"/>
  <line x1="177.1" y1="157.2" x2="185.3" y2="166.4"/>
  <line x1="61.3" y1="135.0" x2="74.8" y2="150.3"/>
  <line x1="132.5" y1="114.9" x2="149.1" y2="111.8"/>
  <line x1="191.8" y1="159.5" x2="200.0" y2="100.0"/>
  <line x1="7.7" y1="114.1" x2="0.0" y2="100.0"/>
  <line x1="190.5" y1="125.8" x2="191.8" y2="159.5"/>
  <line x1="132.5" y1="114.9" x2="119.4" y2="130.0"/>
  <line x1="45.8" y1="52.5" x2="48.3" y2="51.2"/>
  <line x1="81.1" y1="186.8" x2="79.2" y2="185.8"/>
  <line x1="94.8" y1="124.6" x2="82.7" y2="125.8"/>
  <line x1="100.0" y1="200.0" x2="200.0" y2="200.0"/>
  <line x1="27.4" y1="187.9" x2="13.9" y2="186.7"/>
  <line x1="196.8" y1="68.6" x2="196.0" y2="34.4"/>
  <line x1="130.0" y1="149.2" x2="129.0" y2="149.6"/>
  <line x1="85.2" y1="189.3" x2="103.5" y2="186.0"/>
  <line x1="0.0" y1="100.0" x2="0.0" y2="200.0"/>
  <line x1="96.7" y1="21.0" x2="90.4" y2="17.3"/>
  <line x1="192.9" y1="79.4" x2="180.6" y2="54.8"/>
  <line x1="103.9" y1="196.5" x2="117.0" y2="191.8"/>
  <line x1="109.8" y1="92.1" x2="114.0" y2="80.0"/>
  <line x1="146.9" y1="57.4" x2="153.2" y2="38.6"/>
  <line x1="57.1" y1="135.6" x2="49.8" y2="126.5"/>
  <line x1="32.7" y1="98.3" x2="23.2" y2="128.4"/>
  <line x1="154.2" y1="162.0" x2="166.2" y2="168.3"/>
  <line x1="130.0" y1="149.2" x2="134.1" y2="148.2"/>
  <line x1="190.5" y1="125.8" x2="179.7" y2="149.7"/>
  <line x1="150.7" y1="186.0" x2="200.0" y2="200.0"/>
  <line x1="124.6" y1="185.5" x2="117.0" y2="191.8"/>
  <line x1="150.3" y1="138.5" x2="154.3" y2="141.2"/>
  <line x1="74.7" y1="62.8" x2="94.0" y2="98.0"/>
  <line x1="48.5" y1="109.8" x2="48.9" y2="121.1"/>
  <line x1="59.0" y1="134.1" x2="48.9" y2="121.1"/>
  <line x1="48.5" y1="139.2" x2="32.6" y2="139.3"/>
  <line x1="139.3" y1="160.3" x2="131.7" y2="177.5"/>
  <line x1="142.1" y1="22.0" x2="126.5" y2="20.4"/>
  <line x1="108.3" y1="110.8" x2="118.5" y2="129.2"/>
  <line x1="163.3" y1="58.2" x2="168.5" y2="59.9"/>
  <line x1="171.6" y1="4.9" x2="200.0" y2="0.0"/>
  <line x1="41.8" y1="100.4" x2="42.0" y2="88.6"/>
  <line x1="61.3" y1="135.0" x2="82.7" y2="125.8"/>
  <line x1="180.3" y1="38.4" x2="180.6" y2="54.8"/>
  <line x1="43.9" y1="102.6" x2="55.8" y2="104.5"/>
  <line x1="78.9" y1="196.0" x2="79.2" y2="185.8"/>
  <line x1="191.8" y1="159.5" x2="189.5" y2="153.5"/>
  <line x1="27.4" y1="187.9" x2="0.0" y2="200.0"/>
  <line x1="191.3" y1="93.9" x2="195.2" y2="91.1"/>
  <line x1="90.5" y1="166.7" x2="74.8" y2="150.3"/>
  <line x1="106.9" y1="153.1" x2="93.9" y2="141.1"/>
  <line x1="167.1" y1="133.5" x2="174.0" y2="135.9"/>
  <line x1="132.5" y1="114.9" x2="150.3" y2="138.5"/>
  <line x1="32.7" y1="98.3" x2="7.7" y2="114.1"/>
  <line x1="51.6" y1="28.2" x2="64.1" y2="9.0"/>
  <line x1="94.8" y1="124.6" x2="94.0" y2="98.0"/>
  <line x1="154.0" y1="99.9" x2="166.9" y2="102.8"/>
  <line x1="154.9" y1="148.3" x2="143.0" y2="160.1"/>
  <line x1="94.8" y1="124.6" x2="82.9" y2="128.2"/>
  <line x1="70.3" y1="10.0" x2="63.3" y2="44.3"/>
  <line x1="133.8" y1="152.7" x2="129.0" y2="149.6"/>
  <line x1="163.3" y1="58.2" x2="153.2" y2="38.6"/>
  <line x1="142.1" y1="22.0" x2="135.8" y2="32.3"/>
  <line x1="124.6" y1="185.5" x2="137.3" y2="182.3"/>
  <line x1="171.6" y1="4.9" x2="100.0" y2="0.0"/>
  <line x1="192.9" y1="79.4" x2="187.0" y2="91.7"/>
  <line x1="185.3" y1="166.4" x2="191.8" y2="159.5"/>
  <line x1="48.5" y1="109.8" x2="55.8" y2="104.5"/>
  <line x1="102.4" y1="130.3" x2="94.8" y2="124.6"/>
  <line x1="191.8" y1="159.5" x2="184.0" y2="173.1"/>
  <line x1="135.8" y1="69.2" x2="140.8" y2="50.7"/>
  <line x1="184.8" y1="186.9" x2="184.0" y2="173.1"/>
  <line x1="27.4" y1="187.9" x2="12.8" y2="187.6"/>
  <line x1="32.7" y1="98.3" x2="44.1" y2="119.3"/>
  <line x1="134.1" y1="148.2" x2="133.8" y2="152.7"/>
  <line x1="32.6" y1="139.3" x2="23.3" y2="129.7"/>
  <line x1="2.2" y1="114.4" x2="4.4" y2="155.9"/>
  <line x1="190.3" y1="113.2" x2="200.0" y2="100.0"/>
  <line x1="63.3" y1="44.3" x2="48.3" y2="51.2"/>
  <line x1="9.7" y1="33.4" x2="6.7" y2="48.2"/>
  <line x1="139.3" y1="160.3" x2="143.0" y2="160.1"/>
  <line x1="181.9" y1="121.0" x2="183.8" y2="112.7"/>
  <line x1="142.1" y1="22.0" x2="162.9" y2="12.2"/>
  <line x1="29.0" y1="75.2" x2="32.2" y2="77.5"/>
  <line x1="61.3" y1="135.0" x2="82.9" y2="128.2"/>
  <line x1="153.2" y1="38.6" x2="155.6" y2="58.8"/>
  <line x1="54.6" y1="69.2" x2="33.3" y2="62.1"/>
  <line x1="167.1" y1="133.5" x2="154.3" y2="141.2"/>
  <line x1="48.5" y1="139.2" x2="49.3" y2="146.1"/>
  <line x1="111.0" y1="177.6" x2="90.5" y2="166.7"/>
  <line x1="135.8" y1="69.2" x2="130.1" y2="106.5"/>
  <line x1="47.3" y1="77.8" x2="32.2" y2="77.5"/>
  <line x1="78.9" y1="196.0" x2="85.2" y2="189.3"/>
  <line x1="74.7" y1="62.8" x2="98.5" y2="67.1"/>
  <line x1="187.0" y1="91.7" x2="191.3" y2="93.9"/>
  <line x1="64.0" y1="101.8" x2="82.7" y2="125.8"/>
  <line x1="159.2" y1="30.8" x2="158.2" y2="22.3"/>
  <line x1="61.3" y1="135.0" x2="56.6" y2="151.6"/>
  <line x1="154.9" y1="148.3" x2="179.7" y2="149.7"/>
  <line x1="184.0" y1="173.1" x2="200.0" y2="200.0"/>
  <line x1="47.3" y1="123.8" x2="49.8" y2="126.5"/>
  <line x1="94.2" y1="58.9" x2="104.5" y2="51.3"/>
  <line x1="151.4" y1="102.0" x2="154.0" y2="99.9"/>
  <line x1="141.3" y1="151.5" x2="143.0" y2="160.1"/>
  <line x1="59.0" y1="134.1" x2="64.0" y2="101.8"/>
  <line x1="61.3" y1="135.0" x2="64.0" y2="101.8"/>
  <line x1="2.2" y1="114.4" x2="6.0" y2="115.8"/>
  <line x1="146.9" y1="57.4" x2="148.3" y2="61.7"/>
  <line x1="68.6" y1="192.3" x2="47.9" y2="193.9"/>
  <line x1="87.0" y1="36.4" x2="104.5" y2="51.3"/>
  <line x1="23.2" y1="128.4" x2="6.0" y2="115.8"/>
  <line x1="188.5" y1="31.8" x2="196.0" y2="34.4"/>
  <line x1="13.9" y1="186.7" x2="12.8" y2="187.6"/>
  <line x1="157.2" y1="175.6" x2="166.0" y2="169.7"/>
  <line x1="61.8" y1="99.0" x2="54.6" y2="69.2"/>
  <line x1="56.6" y1="151.6" x2="50.6" y2="176.4"/>
  <style> circle { fill: black; r: 0.8;  } </style>
  <circle cx="101.7" cy="70.2"/>
  <circle cx="171.1" cy="43.0"/>
  <circle cx="146.9" cy="57.4"/>
  <circle cx="132.5" cy="114.9"/>
  <circle cx="167.1" cy="133.5"/>
  <circle cx="31.3" cy="50.2"/>
  <circle cx="9.7" cy="33.4"/>
  <circle cx="2.2" cy="114.4"/>
  <circle cx="59.0" cy="134.1"/>
  <circle cx="29.0" cy="75.2"/>
  <circle cx="190.3" cy="113.2"/>
  <circle cx="48.5" cy="139.2"/>
  <circle cx="111.0" cy="177.6"/>
  <circle cx="190.5" cy="125.8"/>
  <circle cx="154.2" cy="162.0"/>
  <circle cx="124.6" cy="185.5"/>
  <circle cx="74.7" cy="62.8"/>
  <circle cx="11.5" cy="179.5"/>
  <circle cx="108.3" cy="110.8"/>
  <circle cx="48.5" cy="109.8"/>
  <circle cx="109.8" cy="92.1"/>
  <circle cx="96.7" cy="21.0"/>
  <circle cx="118.6" cy="77.6"/>
  <circle cx="32.7" cy="98.3"/>
  <circle cx="78.9" cy="196.0"/>
  <circle cx="102.4" cy="130.3"/>
  <circle cx="130.0" cy="149.2"/>
  <circle cx="157.2" cy="175.6"/>
  <circle cx="159.2" cy="30.8"/>
  <circle cx="123.1" cy="193.1"/>
  <circle cx="61.3" cy="135.0"/>
  <circle cx="57.1" cy="135.6"/>
  <circle cx="56.6" cy="151.6"/>
  <circle cx="181.9" cy="121.0"/>
  <circle cx="192.9" cy="79.4"/>
  <circle cx="56.8" cy="190.5"/>
  <circle cx="187.0" cy="91.7"/>
  <circle cx="180.3" cy="38.4"/>
  <circle cx="175.7" cy="19.7"/>
  <circle cx="183.8" cy="112.7"/>
  <circle cx="104.1" cy="79.6"/>
  <circle cx="103.3" cy="54.9"/>
  <circle cx="104.8" cy="116.5"/>
  <circle cx="61.8" cy="99.0"/>
  <circle cx="177.1" cy="157.2"/>
  <circle cx="4.4" cy="155.9"/>
  <circle cx="154.9" cy="148.3"/>
  <circle cx="12.8" cy="166.6"/>
  <circle cx="9.8" cy="94.5"/>
  <circle cx="139.3" cy="160.3"/>
  <circle cx="68.6" cy="192.3"/>
  <circle cx="38.9" cy="43.8"/>
  <circle cx="32.6" cy="139.3"/>
  <circle cx="103.9" cy="196.5"/>
  <circle cx="184.8" cy="186.9"/>
  <circle cx="148.3" cy="61.7"/>
  <circle cx="48.9" cy="121.1"/>
  <circle cx="8.6" cy="3.9"/>
  <circle cx="141.3" cy="151.5"/>
  <circle cx="134.1" cy="148.2"/>
  <circle cx="27.4" cy="187.9"/>
  <circle cx="69.2" cy="4.7"/>
  <circle cx="151.4" cy="102.0"/>
  <circle cx="87.0" cy="36.4"/>
  <circle cx="180.6" cy="54.8"/>
  <circle cx="133.8" cy="152.7"/>
  <circle cx="106.1" cy="113.6"/>
  <circle cx="6.7" cy="48.2"/>
  <circle cx="118.4" cy="171.2"/>
  <circle cx="70.3" cy="10.0"/>
  <circle cx="6.7" cy="68.9"/>
  <circle cx="13.9" cy="186.7"/>
  <circle cx="149.1" cy="111.8"/>
  <circle cx="129.5" cy="159.8"/>
  <circle cx="8.5" cy="137.0"/>
  <circle cx="56.3" cy="60.5"/>
  <circle cx="94.8" cy="124.6"/>
  <circle cx="117.0" cy="191.8"/>
  <circle cx="89.6" cy="4.6"/>
  <circle cx="154.0" cy="99.9"/>
  <circle cx="142.1" cy="22.0"/>
  <circle cx="163.3" cy="58.2"/>
  <circle cx="33.8" cy="3.3"/>
  <circle cx="54.6" cy="69.2"/>
  <circle cx="166.9" cy="102.8"/>
  <circle cx="191.3" cy="93.9"/>
  <circle cx="45.8" cy="52.5"/>
  <circle cx="106.9" cy="153.1"/>
  <circle cx="107.2" cy="185.8"/>
  <circle cx="150.3" cy="138.5"/>
  <circle cx="158.2" cy="22.3"/>
  <circle cx="44.0" cy="185.8"/>
  <circle cx="50.6" cy="176.4"/>
  <circle cx="41.8" cy="100.4"/>
  <circle cx="166.2" cy="168.3"/>
  <circle cx="150.7" cy="186.0"/>
  <circle cx="47.3" cy="77.8"/>
  <circle cx="45.4" cy="184.0"/>
  <circle cx="110.0" cy="107.2"/>
  <circle cx="42.0" cy="88.6"/>
  <circle cx="180.5" cy="12.6"/>
  <circle cx="81.1" cy="186.8"/>
  <circle cx="153.2" cy="38.6"/>
  <circle cx="79.2" cy="185.8"/>
  <circle cx="185.3" cy="166.4"/>
  <circle cx="15.8" cy="50.5"/>
  <circle cx="43.9" cy="102.6"/>
  <circle cx="98.5" cy="67.1"/>
  <circle cx="119.4" cy="130.0"/>
  <circle cx="123.0" cy="64.7"/>
  <circle cx="188.5" cy="31.8"/>
  <circle cx="85.2" cy="189.3"/>
  <circle cx="12.2" cy="185.8"/>
  <circle cx="171.6" cy="4.9"/>
  <circle cx="135.8" cy="69.2"/>
  <circle cx="154.3" cy="141.2"/>
  <circle cx="168.5" cy="59.9"/>
  <circle cx="64.0" cy="101.8"/>
  <circle cx="32.2" cy="77.5"/>
  <circle cx="63.3" cy="44.3"/>
  <circle cx="104.0" cy="53.3"/>
  <circle cx="83.9" cy="15.0"/>
  <circle cx="191.8" cy="159.5"/>
  <circle cx="162.9" cy="12.2"/>
  <circle cx="48.3" cy="51.2"/>
  <circle cx="90.4" cy="17.3"/>
  <circle cx="51.6" cy="28.2"/>
  <circle cx="119.3" cy="173.0"/>
  <circle cx="173.1" cy="123.6"/>
  <circle cx="94.2" cy="58.9"/>
  <circle cx="175.2" cy="116.1"/>
  <circle cx="195.2" cy="91.1"/>
  <circle cx="47.3" cy="123.8"/>
  <circle cx="44.1" cy="119.3"/>
  <circle cx="196.8" cy="68.6"/>
  <circle cx="179.7" cy="149.7"/>
  <circle cx="143.0" cy="160.1"/>
  <circle cx="90.5" cy="166.7"/>
  <circle cx="114.0" cy="80.0"/>
  <circle cx="184.0" cy="173.1"/>
  <circle cx="94.0" cy="98.0"/>
  <circle cx="47.9" cy="193.9"/>
  <circle cx="126.5" cy="20.4"/>
  <circle cx="174.0" cy="135.9"/>
  <circle cx="140.8" cy="50.7"/>
  <circle cx="55.8" cy="104.5"/>
  <circle cx="135.8" cy="32.3"/>
  <circle cx="49.8" cy="126.5"/>
  <circle cx="166.0" cy="169.7"/>
  <circle cx="82.9" cy="128.2"/>
  <circle cx="93.9" cy="141.1"/>
  <circle cx="167.9" cy="164.7"/>
  <circle cx="23.2" cy="128.4"/>
  <circle cx="83.2" cy="153.3"/>
  <circle cx="45.1" cy="83.5"/>
  <circle cx="196.0" cy="34.4"/>
  <circle cx="7.7" cy="114.1"/>
  <circle cx="130.1" cy="106.5"/>
  <circle cx="46.7" cy="54.5"/>
  <circle cx="64.1" cy="9.0"/>
  <circle cx="104.5" cy="51.3"/>
  <circle cx="6.0" cy="115.8"/>
  <circle cx="103.5" cy="186.0"/>
  <circle cx="49.3" cy="146.1"/>
  <circle cx="131.7" cy="177.5"/>
  <circle cx="155.6" cy="58.8"/>
  <circle cx="5.1" cy="95.7"/>
  <circle cx="118.5" cy="129.2"/>
  <circle cx="82.7" cy="125.8"/>
  <circle cx="74.8" cy="150.3"/>
  <circle cx="33.3" cy="62.1"/>
  <circle cx="189.5" cy="153.5"/>
  <circle cx="48.8" cy="45.5"/>
  <circle cx="12.8" cy="187.6"/>
  <circle cx="21.3" cy="164.6"/>
  <circle cx="137.3" cy="182.3"/>
  <circle cx="129.0" cy="149.6"/>
  <circle cx="48.6" cy="21.0"/>
  <circle cx="23.3" cy="129.7"/>
  <circle cx="153.1" cy="144.4"/>
  <circle cx="100.0" cy="0.0"/>
  <circle cx="200.0" cy="100.0"/>
  <circle cx="100.0" cy="200.0"/>
  <circle cx="0.0" cy="100.0"/>
  <circle cx="0.0" cy="0.0"/>
  <circle cx="200.0" cy="0.0"/>
  <circle cx="200.0" cy="200.0"/>
  <circle cx="0.0" cy="200.0"/>
</svg>
