<?xml version='1.0' encoding='UTF-8' standalone='no'?>
<svg xmlns="http://www.w3.org/2000/svg" xmlns:xlink="http://www.w3.org/1999/xlink" version="1.1" width="200" height="200" viewBox="0 0 200 200" style="border:1px solid black">
  <style> line{stroke: green; stroke-width: 0.5; stroke-dasharray: None; }</style>
  <line x1="69.0" y1="41.5" x2="26.3" y2="86.6"/>
  <line x1="100.9" y1="135.5" x2="93.4" y2="132.2"/>
  <line x1="139.2" y1="62.9" x2="139.8" y2="88.5"/>
  <line x1="107.7" y1="102.4" x2="111.6" y2="103.3"/>
  <line x1="94.4" y1="76.5" x2="108.1" y2="70.5"/>
  <line x1="91.9" y1="120.7" x2="95.3" y2="127.4"/>
  <line x1="111.7" y1="115.3" x2="113.4" y2="110.6"/>
  <line x1="144.0" y1="146.5" x2="153.3" y2="149.3"/>
  <line x1="120.8" y1="111.9" x2="121.3" y2="117.7"/>
  <line x1="123.5" y1="105.0" x2="120.8" y2="111.9"/>
  <line x1="139.2" y1="62.9" x2="151.6" y2="87.9"/>
  <line x1="88.7" y1="141.0" x2="81.7" y2="132.0"/>
  <line x1="151.3" y1="111.4" x2="200.0" y2="100.0"/>
  <line x1="119.7" y1="88.4" x2="113.3" y2="94.2"/>
  <line x1="136.5" y1="99.5" x2="139.8" y2="88.5"/>
  <line x1="100.0" y1="0.0" x2="200.0" y2="0.0"/>
  <line x1="83.1" y1="67.9" x2="94.4" y2="76.5"/>
  <line x1="123.5" y1="105.0" x2="113.4" y2="110.6"/>
  <line x1="104.4" y1="82.2" x2="121.2" y2="85.4"/>
  <line x1="115.2" y1="118.5" x2="121.3" y2="117.7"/>
  <line x1="101.0" y1="141.3" x2="90.2" y2="144.6"/>
  <line x1="92.0" y1="84.6" x2="98.5" y2="88.6"/>
  <line x1="98.5" y1="88.6" x2="95.7" y2="97.3"/>
  <line x1="136.5" y1="99.5" x2="151.6" y2="87.9"/>
  <line x1="87.0" y1="114.2" x2="96.7" y2="112.2"/>
  <line x1="119.7" y1="88.4" x2="126.5" y2="84.4"/>
  <line x1="131.9" y1="123.6" x2="121.3" y2="117.7"/>
  <line x1="126.5" y1="84.4" x2="121.2" y2="85.4"/>
  <line x1="83.1" y1="67.9" x2="91.9" y2="63.6"/>
  <line x1="123.5" y1="105.0" x2="133.8" y2="87.8"/>
  <line x1="87.0" y1="114.2" x2="82.7" y2="108.7"/>
  <line x1="104.4" y1="82.2" x2="96.5" y2="80.5"/>
  <line x1="151.3" y1="111.4" x2="153.3" y2="149.3"/>
  <line x1="89.5" y1="106.2" x2="92.2" y2="103.3"/>
  <line x1="100.7" y1="133.0" x2="96.2" y2="130.2"/>
  <line x1="100.4" y1="129.5" x2="95.3" y2="127.4"/>
  <line x1="126.5" y1="84.4" x2="125.1" y2="78.3"/>
  <line x1="113.2" y1="115.7" x2="115.2" y2="118.5"/>
  <line x1="121.3" y1="117.7" x2="115.2" y2="125.5"/>
  <line x1="83.9" y1="66.5" x2="91.0" y2="60.8"/>
  <line x1="91.9" y1="63.6" x2="108.1" y2="70.5"/>
  <line x1="89.7" y1="86.9" x2="83.2" y2="94.6"/>
  <line x1="100.9" y1="135.5" x2="101.0" y2="141.3"/>
  <line x1="121.2" y1="132.2" x2="121.3" y2="117.7"/>
  <line x1="90.6" y1="89.3" x2="89.7" y2="86.9"/>
  <line x1="100.7" y1="133.0" x2="93.4" y2="132.2"/>
  <line x1="131.9" y1="123.6" x2="120.8" y2="111.9"/>
  <line x1="90.6" y1="89.3" x2="95.7" y2="97.3"/>
  <line x1="55.1" y1="94.4" x2="54.5" y2="114.1"/>
  <line x1="52.3" y1="84.8" x2="54.0" y2="95.0"/>
  <line x1="83.1" y1="67.9" x2="83.9" y2="66.5"/>
  <line x1="100.1" y1="105.5" x2="100.5" y2="103.0"/>
  <line x1="98.5" y1="88.6" x2="106.8" y2="86.4"/>
  <line x1="87.0" y1="114.2" x2="91.9" y2="120.7"/>
  <line x1="87.0" y1="114.2" x2="96.1" y2="117.1"/>
  <line x1="100.9" y1="135.5" x2="100.7" y2="133.0"/>
  <line x1="66.4" y1="124.6" x2="63.2" y2="137.4"/>
  <line x1="105.4" y1="116.5" x2="100.1" y2="105.5"/>
  <line x1="92.0" y1="84.6" x2="96.5" y2="80.5"/>
  <line x1="105.4" y1="116.5" x2="111.7" y2="115.3"/>
  <line x1="100.2" y1="121.0" x2="95.3" y2="127.4"/>
  <line x1="108.1" y1="70.5" x2="121.2" y2="85.4"/>
  <line x1="90.6" y1="89.3" x2="83.2" y2="94.6"/>
  <line x1="91.9" y1="120.7" x2="96.1" y2="117.1"/>
  <line x1="94.6" y1="108.4" x2="92.4" y2="106.6"/>
  <line x1="26.3" y1="86.6" x2="0.0" y2="0.0"/>
  <line x1="15.1" y1="99.7" x2="0.0" y2="100.0"/>
  <line x1="123.5" y1="105.0" x2="113.3" y2="94.2"/>
  <line x1="102.9" y1="140.6" x2="101.0" y2="141.3"/>
  <line x1="139.1" y1="33.3" x2="100.0" y2="0.0"/>
  <line x1="125.1" y1="78.3" x2="121.2" y2="85.4"/>
  <line x1="116.1" y1="68.8" x2="139.1" y2="33.3"/>
  <line x1="119.7" y1="88.4" x2="109.0" y2="87.8"/>
  <line x1="62.4" y1="116.4" x2="55.1" y2="94.4"/>
  <line x1="200.0" y1="100.0" x2="200.0" y2="200.0"/>
  <line x1="113.4" y1="110.6" x2="120.8" y2="111.9"/>
  <line x1="56.0" y1="84.3" x2="52.3" y2="84.8"/>
  <line x1="90.2" y1="144.6" x2="88.7" y2="141.0"/>
  <line x1="123.5" y1="105.0" x2="136.5" y2="99.5"/>
  <line x1="26.3" y1="86.6" x2="54.5" y2="114.1"/>
  <line x1="111.7" y1="115.3" x2="113.2" y2="115.7"/>
  <line x1="15.1" y1="99.7" x2="0.0" y2="200.0"/>
  <line x1="82.7" y1="108.7" x2="88.4" y2="108.4"/>
  <line x1="133.8" y1="87.8" x2="125.1" y2="78.3"/>
  <line x1="100.4" y1="129.5" x2="104.1" y2="127.7"/>
  <line x1="94.6" y1="108.4" x2="87.0" y2="114.2"/>
  <line x1="52.3" y1="84.8" x2="69.0" y2="41.5"/>
  <line x1="153.3" y1="149.3" x2="200.0" y2="200.0"/>
  <line x1="125.1" y1="153.8" x2="144.0" y2="146.5"/>
  <line x1="15.1" y1="99.7" x2="26.3" y2="86.6"/>
  <line x1="123.5" y1="105.0" x2="131.9" y2="123.6"/>
  <line x1="102.9" y1="140.6" x2="100.9" y2="135.5"/>
  <line x1="96.2" y1="130.2" x2="95.3" y2="127.4"/>
  <line x1="56.0" y1="84.3" x2="55.1" y2="94.4"/>
  <line x1="108.3" y1="101.1" x2="100.5" y2="103.0"/>
  <line x1="94.0" y1="105.2" x2="100.5" y2="103.0"/>
  <line x1="78.8" y1="91.0" x2="89.7" y2="86.9"/>
  <line x1="83.1" y1="67.9" x2="89.7" y2="86.9"/>
  <line x1="108.3" y1="101.1" x2="110.9" y2="100.6"/>
  <line x1="79.1" y1="107.4" x2="83.2" y2="94.6"/>
  <line x1="139.1" y1="33.3" x2="91.0" y2="60.8"/>
  <line x1="54.0" y1="95.0" x2="54.5" y2="114.1"/>
  <line x1="66.4" y1="124.6" x2="62.4" y2="116.4"/>
  <line x1="93.4" y1="132.2" x2="81.7" y2="132.0"/>
  <line x1="135.3" y1="173.6" x2="144.0" y2="146.5"/>
  <line x1="100.5" y1="103.0" x2="95.7" y2="97.3"/>
  <line x1="200.0" y1="100.0" x2="200.0" y2="0.0"/>
  <line x1="153.3" y1="149.3" x2="200.0" y2="100.0"/>
  <line x1="105.4" y1="116.5" x2="108.5" y2="118.7"/>
  <line x1="90.2" y1="144.6" x2="111.7" y2="148.0"/>
  <line x1="92.2" y1="103.3" x2="95.7" y2="97.3"/>
  <line x1="79.2" y1="110.4" x2="62.4" y2="116.4"/>
  <line x1="79.1" y1="107.4" x2="82.7" y2="108.7"/>
  <line x1="93.4" y1="132.2" x2="96.2" y2="130.2"/>
  <line x1="79.1" y1="107.4" x2="55.1" y2="94.4"/>
  <line x1="113.3" y1="115.1" x2="113.2" y2="115.7"/>
  <line x1="78.8" y1="91.0" x2="83.2" y2="94.6"/>
  <line x1="113.3" y1="115.1" x2="115.2" y2="118.5"/>
  <line x1="94.6" y1="108.4" x2="100.1" y2="105.5"/>
  <line x1="92.2" y1="103.3" x2="83.2" y2="94.6"/>
  <line x1="79.5" y1="137.8" x2="88.7" y2="141.0"/>
  <line x1="94.0" y1="105.2" x2="92.4" y2="106.6"/>
  <line x1="115.2" y1="118.5" x2="108.5" y2="118.7"/>
  <line x1="66.4" y1="124.6" x2="72.7" y2="130.2"/>
  <line x1="66.4" y1="124.6" x2="79.2" y2="110.4"/>
  <line x1="101.0" y1="141.3" x2="88.7" y2="141.0"/>
  <line x1="131.9" y1="123.6" x2="151.3" y2="111.4"/>
  <line x1="151.6" y1="87.9" x2="139.8" y2="88.5"/>
  <line x1="109.0" y1="87.8" x2="121.2" y2="85.4"/>
  <line x1="76.6" y1="167.2" x2="73.3" y2="156.8"/>
  <line x1="78.0" y1="68.7" x2="64.2" y2="75.7"/>
  <line x1="139.2" y1="62.9" x2="200.0" y2="100.0"/>
  <line x1="100.0" y1="0.0" x2="0.0" y2="0.0"/>
  <line x1="105.4" y1="116.5" x2="113.4" y2="110.6"/>
  <line x1="109.0" y1="87.8" x2="106.8" y2="86.4"/>
  <line x1="83.9" y1="66.5" x2="91.9" y2="63.6"/>
  <line x1="105.4" y1="116.5" x2="96.7" y2="112.2"/>
  <line x1="113.2" y1="115.7" x2="108.5" y2="118.7"/>
  <line x1="56.0" y1="84.3" x2="64.2" y2="75.7"/>
  <line x1="94.6" y1="108.4" x2="88.4" y2="108.4"/>
  <line x1="115.2" y1="118.5" x2="120.8" y2="111.9"/>
  <line x1="115.2" y1="118.5" x2="115.2" y2="125.5"/>
  <line x1="87.0" y1="114.2" x2="81.7" y2="132.0"/>
  <line x1="101.0" y1="141.3" x2="111.7" y2="148.0"/>
  <line x1="90.6" y1="89.3" x2="98.5" y2="88.6"/>
  <line x1="91.9" y1="63.6" x2="91.0" y2="60.8"/>
  <line x1="92.4" y1="106.6" x2="88.4" y2="108.4"/>
  <line x1="107.7" y1="102.4" x2="100.5" y2="103.0"/>
  <line x1="63.2" y1="137.4" x2="79.5" y2="137.8"/>
  <line x1="92.2" y1="103.3" x2="94.0" y2="105.2"/>
  <line x1="94.4" y1="76.5" x2="104.4" y2="82.2"/>
  <line x1="63.2" y1="137.4" x2="73.3" y2="156.8"/>
  <line x1="91.9" y1="120.7" x2="81.7" y2="132.0"/>
  <line x1="78.8" y1="91.0" x2="79.1" y2="107.4"/>
  <line x1="108.3" y1="101.1" x2="111.6" y2="103.3"/>
  <line x1="125.1" y1="153.8" x2="100.0" y2="200.0"/>
  <line x1="78.8" y1="91.0" x2="78.0" y2="68.7"/>
  <line x1="83.1" y1="67.9" x2="78.0" y2="68.7"/>
  <line x1="139.2" y1="62.9" x2="133.8" y2="87.8"/>
  <line x1="92.0" y1="84.6" x2="94.4" y2="76.5"/>
  <line x1="98.5" y1="88.6" x2="96.5" y2="80.5"/>
  <line x1="89.5" y1="106.2" x2="92.4" y2="106.6"/>
  <line x1="135.3" y1="173.6" x2="100.0" y2="200.0"/>
  <line x1="121.2" y1="85.4" x2="116.1" y2="68.8"/>
  <line x1="109.0" y1="87.8" x2="113.3" y2="94.2"/>
  <line x1="0.0" y1="100.0" x2="0.0" y2="0.0"/>
  <line x1="126.7" y1="131.2" x2="121.3" y2="117.7"/>
  <line x1="136.5" y1="99.5" x2="133.8" y2="87.8"/>
  <line x1="102.9" y1="140.6" x2="115.2" y2="125.5"/>
  <line x1="139.2" y1="62.9" x2="125.1" y2="78.3"/>
  <line x1="107.7" y1="102.4" x2="108.3" y2="101.1"/>
  <line x1="121.2" y1="132.2" x2="115.2" y2="125.5"/>
  <line x1="105.4" y1="116.5" x2="96.1" y2="117.1"/>
  <line x1="91.9" y1="120.7" x2="100.2" y2="121.0"/>
  <line x1="135.3" y1="173.6" x2="200.0" y2="200.0"/>
  <line x1="100.0" y1="200.0" x2="0.0" y2="200.0"/>
  <line x1="91.9" y1="120.7" x2="93.4" y2="132.2"/>
  <line x1="102.9" y1="140.6" x2="121.2" y2="132.2"/>
  <line x1="102.9" y1="140.6" x2="111.7" y2="148.0"/>
  <line x1="123.5" y1="105.0" x2="110.9" y2="100.6"/>
  <line x1="116.1" y1="68.8" x2="91.0" y2="60.8"/>
  <line x1="119.7" y1="88.4" x2="133.8" y2="87.8"/>
  <line x1="100.9" y1="135.5" x2="104.1" y2="127.7"/>
  <line x1="121.2" y1="132.2" x2="111.7" y2="148.0"/>
  <line x1="119.7" y1="88.4" x2="121.2" y2="85.4"/>
  <line x1="105.4" y1="116.5" x2="100.2" y2="121.0"/>
  <line x1="108.1" y1="70.5" x2="91.0" y2="60.8"/>
  <line x1="52.3" y1="84.8" x2="55.1" y2="94.4"/>
  <line x1="73.3" y1="156.8" x2="0.0" y2="200.0"/>
  <line x1="125.1" y1="153.8" x2="121.2" y2="132.2"/>
  <line x1="26.3" y1="86.6" x2="0.0" y2="100.0"/>
  <line x1="125.1" y1="153.8" x2="111.7" y2="148.0"/>
  <line x1="83.1" y1="67.9" x2="92.0" y2="84.6"/>
  <line x1="151.3" y1="111.4" x2="151.6" y2="87.9"/>
  <line x1="94.6" y1="108.4" x2="96.7" y2="112.2"/>
  <line x1="62.4" y1="116.4" x2="54.5" y2="114.1"/>
  <line x1="105.4" y1="116.5" x2="105.0" y2="123.2"/>
  <line x1="72.7" y1="130.2" x2="81.7" y2="132.0"/>
  <line x1="105.0" y1="123.2" x2="108.5" y2="118.7"/>
  <line x1="108.1" y1="70.5" x2="116.1" y2="68.8"/>
  <line x1="100.4" y1="129.5" x2="96.2" y2="130.2"/>
  <line x1="55.1" y1="94.4" x2="54.0" y2="95.0"/>
  <line x1="100.0" y1="200.0" x2="200.0" y2="200.0"/>
  <line x1="126.7" y1="131.2" x2="144.0" y2="146.5"/>
  <line x1="126.7" y1="131.2" x2="121.2" y2="132.2"/>
  <line x1="0.0" y1="100.0" x2="0.0" y2="200.0"/>
  <line x1="102.9" y1="140.6" x2="104.1" y2="127.7"/>
  <line x1="111.6" y1="103.3" x2="110.9" y2="100.6"/>
  <line x1="125.1" y1="78.3" x2="116.1" y2="68.8"/>
  <line x1="72.7" y1="130.2" x2="63.2" y2="137.4"/>
  <line x1="105.4" y1="116.5" x2="107.7" y2="102.4"/>
  <line x1="100.2" y1="121.0" x2="104.1" y2="127.7"/>
  <line x1="91.0" y1="60.8" x2="100.0" y2="0.0"/>
  <line x1="100.4" y1="129.5" x2="100.2" y2="121.0"/>
  <line x1="135.3" y1="173.6" x2="153.3" y2="149.3"/>
  <line x1="125.1" y1="153.8" x2="135.3" y2="173.6"/>
  <line x1="56.0" y1="84.3" x2="78.8" y2="91.0"/>
  <line x1="57.6" y1="123.4" x2="63.2" y2="137.4"/>
  <line x1="57.6" y1="123.4" x2="54.5" y2="114.1"/>
  <line x1="87.0" y1="114.2" x2="72.7" y2="130.2"/>
  <line x1="98.5" y1="88.6" x2="108.3" y2="101.1"/>
  <line x1="98.5" y1="88.6" x2="104.4" y2="82.2"/>
  <line x1="87.0" y1="114.2" x2="79.2" y2="110.4"/>
  <line x1="119.7" y1="88.4" x2="123.5" y2="105.0"/>
  <line x1="133.8" y1="87.8" x2="126.5" y2="84.4"/>
  <line x1="78.8" y1="91.0" x2="55.1" y2="94.4"/>
  <line x1="136.5" y1="99.5" x2="151.3" y2="111.4"/>
  <line x1="133.8" y1="87.8" x2="139.8" y2="88.5"/>
  <line x1="72.7" y1="130.2" x2="79.5" y2="137.8"/>
  <line x1="100.2" y1="121.0" x2="96.1" y2="117.1"/>
  <line x1="105.0" y1="123.2" x2="115.2" y2="125.5"/>
  <line x1="107.7" y1="102.4" x2="100.1" y2="105.5"/>
  <line x1="96.1" y1="117.1" x2="96.7" y2="112.2"/>
  <line x1="94.6" y1="108.4" x2="94.0" y2="105.2"/>
  <line x1="26.3" y1="86.6" x2="54.0" y2="95.0"/>
  <line x1="83.9" y1="66.5" x2="69.0" y2="41.5"/>
  <line x1="151.3" y1="111.4" x2="144.0" y2="146.5"/>
  <line x1="82.7" y1="108.7" x2="83.2" y2="94.6"/>
  <line x1="108.3" y1="101.1" x2="95.7" y2="97.3"/>
  <line x1="94.0" y1="105.2" x2="95.7" y2="97.3"/>
  <line x1="91.9" y1="63.6" x2="94.4" y2="76.5"/>
  <line x1="136.5" y1="99.5" x2="131.9" y2="123.6"/>
  <line x1="92.0" y1="84.6" x2="89.7" y2="86.9"/>
  <line x1="108.1" y1="70.5" x2="104.4" y2="82.2"/>
  <line x1="113.3" y1="115.1" x2="120.8" y2="111.9"/>
  <line x1="113.3" y1="94.2" x2="110.9" y2="100.6"/>
  <line x1="100.7" y1="133.0" x2="104.1" y2="127.7"/>
  <line x1="52.3" y1="84.8" x2="64.2" y2="75.7"/>
  <line x1="89.5" y1="106.2" x2="88.4" y2="108.4"/>
  <line x1="95.7" y1="97.3" x2="83.2" y2="94.6"/>
  <line x1="100.1" y1="105.5" x2="94.0" y2="105.2"/>
  <line x1="64.2" y1="75.7" x2="69.0" y2="41.5"/>
  <line x1="123.5" y1="105.0" x2="111.6" y2="103.3"/>
  <line x1="98.5" y1="88.6" x2="109.0" y2="87.8"/>
  <line x1="69.0" y1="41.5" x2="100.0" y2="0.0"/>
  <line x1="111.7" y1="148.0" x2="100.0" y2="200.0"/>
  <line x1="113.3" y1="115.1" x2="113.4" y2="110.6"/>
  <line x1="139.2" y1="62.9" x2="200.0" y2="0.0"/>
  <line x1="76.6" y1="167.2" x2="0.0" y2="200.0"/>
  <line x1="57.6" y1="123.4" x2="62.4" y2="116.4"/>
  <line x1="126.7" y1="131.2" x2="125.1" y2="153.8"/>
  <line x1="52.3" y1="84.8" x2="26.3" y2="86.6"/>
  <line x1="90.2" y1="144.6" x2="79.5" y2="137.8"/>
  <line x1="90.2" y1="144.6" x2="73.3" y2="156.8"/>
  <line x1="79.2" y1="110.4" x2="82.7" y2="108.7"/>
  <line x1="111.6" y1="103.3" x2="113.4" y2="110.6"/>
  <line x1="93.4" y1="132.2" x2="95.3" y2="127.4"/>
  <line x1="93.4" y1="132.2" x2="88.7" y2="141.0"/>
  <line x1="105.0" y1="123.2" x2="104.1" y2="127.7"/>
  <line x1="69.0" y1="41.5" x2="0.0" y2="0.0"/>
  <line x1="76.6" y1="167.2" x2="100.0" y2="200.0"/>
  <line x1="57.6" y1="123.4" x2="15.1" y2="99.7"/>
  <line x1="151.6" y1="87.9" x2="200.0" y2="100.0"/>
  <line x1="63.2" y1="137.4" x2="0.0" y2="200.0"/>
  <line x1="83.9" y1="66.5" x2="78.0" y2="68.7"/>
  <line x1="15.1" y1="99.7" x2="63.2" y2="137.4"/>
  <line x1="79.5" y1="137.8" x2="81.7" y2="132.0"/>
  <line x1="79.1" y1="107.4" x2="62.4" y2="116.4"/>
  <line x1="78.8" y1="91.0" x2="64.2" y2="75.7"/>
  <line x1="15.1" y1="99.7" x2="54.5" y2="114.1"/>
  <line x1="113.3" y1="115.1" x2="111.7" y2="115.3"/>
  <line x1="72.7" y1="130.2" x2="79.2" y2="110.4"/>
  <line x1="69.0" y1="41.5" x2="91.0" y2="60.8"/>
  <line x1="139.1" y1="33.3" x2="200.0" y2="0.0"/>
  <line x1="139.2" y1="62.9" x2="139.1" y2="33.3"/>
  <line x1="78.0" y1="68.7" x2="89.7" y2="86.9"/>
  <line x1="100.4" y1="129.5" x2="100.7" y2="133.0"/>
  <line x1="131.9" y1="123.6" x2="144.0" y2="146.5"/>
  <line x1="126.7" y1="131.2" x2="131.9" y2="123.6"/>
  <line x1="111.7" y1="115.3" x2="108.5" y2="118.7"/>
  <line x1="87.0" y1="114.2" x2="88.4" y2="108.4"/>
  <line x1="105.0" y1="123.2" x2="100.2" y2="121.0"/>
  <line x1="104.1" y1="127.7" x2="115.2" y2="125.5"/>
  <line x1="57.6" y1="123.4" x2="66.4" y2="124.6"/>
  <line x1="106.8" y1="86.4" x2="104.4" y2="82.2"/>
  <line x1="89.5" y1="106.2" x2="83.2" y2="94.6"/>
  <line x1="90.2" y1="144.6" x2="76.6" y2="167.2"/>
  <line x1="108.3" y1="101.1" x2="113.3" y2="94.2"/>
  <line x1="79.5" y1="137.8" x2="73.3" y2="156.8"/>
  <line x1="79.1" y1="107.4" x2="79.2" y2="110.4"/>
  <line x1="101.0" y1="141.3" x2="93.4" y2="132.2"/>
  <line x1="139.2" y1="62.9" x2="116.1" y2="68.8"/>
  <line x1="76.6" y1="167.2" x2="111.7" y2="148.0"/>
  <line x1="78.0" y1="68.7" x2="69.0" y2="41.5"/>
  <line x1="115.2" y1="125.5" x2="108.5" y2="118.7"/>
  <line x1="89.5" y1="106.2" x2="82.7" y2="108.7"/>
  <line x1="107.7" y1="102.4" x2="113.4" y2="110.6"/>
  <line x1="109.0" y1="87.8" x2="108.3" y2="101.1"/>
  <line x1="109.0" y1="87.8" x2="104.4" y2="82.2"/>
  <line x1="92.2" y1="103.3" x2="92.4" y2="106.6"/>
  <line x1="94.4" y1="76.5" x2="96.5" y2="80.5"/>
  <line x1="100.1" y1="105.5" x2="96.7" y2="112.2"/>
  <line x1="92.0" y1="84.6" x2="90.6" y2="89.3"/>
  <style> circle{fill: black; r: 0.8; }</style>
  <circle cx="57.6" cy="123.4"/>
  <circle cx="102.9" cy="140.6"/>
  <circle cx="56.0" cy="84.3"/>
  <circle cx="83.1" cy="67.9"/>
  <circle cx="83.9" cy="66.5"/>
  <circle cx="91.9" cy="63.6"/>
  <circle cx="105.4" cy="116.5"/>
  <circle cx="92.0" cy="84.6"/>
  <circle cx="90.6" cy="89.3"/>
  <circle cx="119.7" cy="88.4"/>
  <circle cx="94.4" cy="76.5"/>
  <circle cx="52.3" cy="84.8"/>
  <circle cx="126.7" cy="131.2"/>
  <circle cx="123.5" cy="105.0"/>
  <circle cx="78.8" cy="91.0"/>
  <circle cx="66.4" cy="124.6"/>
  <circle cx="98.5" cy="88.6"/>
  <circle cx="136.5" cy="99.5"/>
  <circle cx="113.3" cy="115.1"/>
  <circle cx="100.4" cy="129.5"/>
  <circle cx="94.6" cy="108.4"/>
  <circle cx="107.7" cy="102.4"/>
  <circle cx="79.1" cy="107.4"/>
  <circle cx="100.1" cy="105.5"/>
  <circle cx="87.0" cy="114.2"/>
  <circle cx="15.1" cy="99.7"/>
  <circle cx="105.0" cy="123.2"/>
  <circle cx="108.1" cy="70.5"/>
  <circle cx="100.9" cy="135.5"/>
  <circle cx="89.5" cy="106.2"/>
  <circle cx="131.9" cy="123.6"/>
  <circle cx="125.1" cy="153.8"/>
  <circle cx="111.7" cy="115.3"/>
  <circle cx="109.0" cy="87.8"/>
  <circle cx="108.3" cy="101.1"/>
  <circle cx="151.3" cy="111.4"/>
  <circle cx="139.2" cy="62.9"/>
  <circle cx="111.6" cy="103.3"/>
  <circle cx="72.7" cy="130.2"/>
  <circle cx="113.2" cy="115.7"/>
  <circle cx="78.0" cy="68.7"/>
  <circle cx="106.8" cy="86.4"/>
  <circle cx="100.7" cy="133.0"/>
  <circle cx="104.4" cy="82.2"/>
  <circle cx="92.2" cy="103.3"/>
  <circle cx="94.0" cy="105.2"/>
  <circle cx="133.8" cy="87.8"/>
  <circle cx="101.0" cy="141.3"/>
  <circle cx="151.6" cy="87.9"/>
  <circle cx="113.3" cy="94.2"/>
  <circle cx="135.3" cy="173.6"/>
  <circle cx="144.0" cy="146.5"/>
  <circle cx="90.2" cy="144.6"/>
  <circle cx="64.2" cy="75.7"/>
  <circle cx="91.9" cy="120.7"/>
  <circle cx="69.0" cy="41.5"/>
  <circle cx="79.2" cy="110.4"/>
  <circle cx="62.4" cy="116.4"/>
  <circle cx="100.2" cy="121.0"/>
  <circle cx="104.1" cy="127.7"/>
  <circle cx="113.4" cy="110.6"/>
  <circle cx="92.4" cy="106.6"/>
  <circle cx="126.5" cy="84.4"/>
  <circle cx="96.1" cy="117.1"/>
  <circle cx="82.7" cy="108.7"/>
  <circle cx="89.7" cy="86.9"/>
  <circle cx="115.2" cy="118.5"/>
  <circle cx="93.4" cy="132.2"/>
  <circle cx="125.1" cy="78.3"/>
  <circle cx="121.2" cy="132.2"/>
  <circle cx="76.6" cy="167.2"/>
  <circle cx="100.5" cy="103.0"/>
  <circle cx="96.2" cy="130.2"/>
  <circle cx="121.2" cy="85.4"/>
  <circle cx="120.8" cy="111.9"/>
  <circle cx="26.3" cy="86.6"/>
  <circle cx="116.1" cy="68.8"/>
  <circle cx="96.5" cy="80.5"/>
  <circle cx="111.7" cy="148.0"/>
  <circle cx="95.3" cy="127.4"/>
  <circle cx="139.8" cy="88.5"/>
  <circle cx="63.2" cy="137.4"/>
  <circle cx="153.3" cy="149.3"/>
  <circle cx="95.7" cy="97.3"/>
  <circle cx="121.3" cy="117.7"/>
  <circle cx="79.5" cy="137.8"/>
  <circle cx="139.1" cy="33.3"/>
  <circle cx="83.2" cy="94.6"/>
  <circle cx="88.7" cy="141.0"/>
  <circle cx="110.9" cy="100.6"/>
  <circle cx="91.0" cy="60.8"/>
  <circle cx="55.1" cy="94.4"/>
  <circle cx="115.2" cy="125.5"/>
  <circle cx="108.5" cy="118.7"/>
  <circle cx="73.3" cy="156.8"/>
  <circle cx="81.7" cy="132.0"/>
  <circle cx="96.7" cy="112.2"/>
  <circle cx="54.0" cy="95.0"/>
  <circle cx="88.4" cy="108.4"/>
  <circle cx="54.5" cy="114.1"/>
  <circle cx="100.0" cy="0.0"/>
  <circle cx="200.0" cy="100.0"/>
  <circle cx="100.0" cy="200.0"/>
  <circle cx="0.0" cy="100.0"/>
  <circle cx="0.0" cy="0.0"/>
  <circle cx="200.0" cy="0.0"/>
  <circle cx="200.0" cy="200.0"/>
  <circle cx="0.0" cy="200.0"/>
</svg>
