<?xml version='1.0' encoding='UTF-8' standalone='no'?>
<svg xmlns="http://www.w3.org/2000/svg" xmlns:xlink="http://www.w3.org/1999/xlink" version="1.1" width="200" height="200" viewBox="0 0 200 200" style="border:1px solid black">
  <style> line { stroke: green; stroke-width: 0.5; stroke-dasharray: None;  } </style>
  <line x1="108.2" y1="104.7" x2="111.8" y2="103.8"/>
  <line x1="89.6" y1="92.5" x2="86.9" y2="90.9"/>
  <line x1="87.8" y1="111.9" x2="86.3" y2="110.5"/>
  <line x1="109.7" y1="87.8" x2="104.4" y2="81.3"/>
  <line x1="110.1" y1="91.5" x2="109.7" y2="87.8"/>
  <line x1="94.2" y1="108.0" x2="89.8" y2="108.8"/>
  <line x1="105.1" y1="96.5" x2="106.7" y2="102.2"/>
  <line x1="76.5" y1="86.6" x2="77.8" y2="89.3"/>
  <line x1="76.5" y1="86.6" x2="76.4" y2="85.6"/>
  <line x1="113.1" y1="88.0" x2="115.2" y2="89.0"/>
  <line x1="127.6" y1="85.5" x2="117.6" y2="75.7"/>
  <line x1="91.5" y1="95.6" x2="90.2" y2="96.1"/>
  <line x1="151.6" y1="74.0" x2="185.6" y2="72.2"/>
  <line x1="98.7" y1="86.0" x2="97.9" y2="86.4"/>
  <line x1="108.2" y1="104.7" x2="108.1" y2="103.2"/>
  <line x1="119.3" y1="121.0" x2="118.0" y2="118.1"/>
  <line x1="99.5" y1="62.8" x2="117.6" y2="75.7"/>
  <line x1="87.8" y1="111.9" x2="88.6" y2="112.1"/>
  <line x1="94.2" y1="108.0" x2="94.3" y2="108.8"/>
  <line x1="94.0" y1="102.0" x2="100.0" y2="101.9"/>
  <line x1="102.2" y1="79.0" x2="97.6" y2="78.4"/>
  <line x1="98.3" y1="71.0" x2="100.9" y2="68.7"/>
  <line x1="111.8" y1="103.8" x2="109.7" y2="110.3"/>
  <line x1="104.8" y1="102.7" x2="100.0" y2="101.9"/>
  <line x1="70.9" y1="87.0" x2="42.9" y2="90.7"/>
  <line x1="119.3" y1="121.0" x2="140.7" y2="141.0"/>
  <line x1="88.7" y1="108.2" x2="90.4" y2="102.1"/>
  <line x1="92.5" y1="111.8" x2="89.8" y2="108.8"/>
  <line x1="107.3" y1="93.8" x2="107.5" y2="92.5"/>
  <line x1="119.2" y1="89.2" x2="113.9" y2="92.6"/>
  <line x1="112.0" y1="94.9" x2="111.8" y2="91.1"/>
  <line x1="99.2" y1="64.7" x2="82.4" y2="75.7"/>
  <line x1="88.8" y1="114.6" x2="100.0" y2="130.0"/>
  <line x1="96.1" y1="73.6" x2="82.4" y2="75.7"/>
  <line x1="105.1" y1="96.5" x2="107.3" y2="93.8"/>
  <line x1="108.8" y1="42.9" x2="117.6" y2="75.7"/>
  <line x1="116.7" y1="112.4" x2="128.5" y2="109.3"/>
  <line x1="91.5" y1="95.6" x2="95.1" y2="94.6"/>
  <line x1="107.4" y1="106.0" x2="108.9" y2="113.1"/>
  <line x1="127.6" y1="85.5" x2="124.5" y2="84.9"/>
  <line x1="89.8" y1="108.8" x2="90.4" y2="102.1"/>
  <line x1="112.0" y1="94.9" x2="113.9" y2="92.6"/>
  <line x1="112.0" y1="94.9" x2="110.1" y2="91.5"/>
  <line x1="98.1" y1="108.1" x2="101.7" y2="104.8"/>
  <line x1="105.1" y1="86.8" x2="100.4" y2="90.0"/>
  <line x1="94.0" y1="102.0" x2="95.1" y2="94.6"/>
  <line x1="109.5" y1="97.0" x2="108.3" y2="95.5"/>
  <line x1="101.6" y1="71.6" x2="103.2" y2="77.6"/>
  <line x1="94.5" y1="90.5" x2="91.8" y2="89.1"/>
  <line x1="115.2" y1="89.0" x2="114.8" y2="90.0"/>
  <line x1="112.8" y1="103.4" x2="128.5" y2="109.3"/>
  <line x1="115.9" y1="89.8" x2="115.2" y2="89.0"/>
  <line x1="98.3" y1="71.0" x2="99.2" y2="64.7"/>
  <line x1="115.4" y1="110.8" x2="109.7" y2="110.3"/>
  <line x1="42.9" y1="90.7" x2="14.4" y2="72.2"/>
  <line x1="91.8" y1="89.1" x2="88.5" y2="88.2"/>
  <line x1="91.8" y1="89.1" x2="89.4" y2="86.5"/>
  <line x1="48.4" y1="74.0" x2="100.0" y2="10.0"/>
  <line x1="81.6" y1="91.4" x2="82.8" y2="89.3"/>
  <line x1="124.5" y1="84.9" x2="117.6" y2="75.7"/>
  <line x1="88.6" y1="112.1" x2="89.8" y2="108.8"/>
  <line x1="88.8" y1="112.3" x2="87.8" y2="111.9"/>
  <line x1="81.6" y1="91.4" x2="86.9" y2="90.9"/>
  <line x1="107.3" y1="93.8" x2="108.3" y2="95.5"/>
  <line x1="100.4" y1="90.0" x2="94.5" y2="90.5"/>
  <line x1="97.6" y1="74.5" x2="97.6" y2="78.4"/>
  <line x1="112.5" y1="102.1" x2="112.1" y2="103.7"/>
  <line x1="99.6" y1="87.5" x2="99.2" y2="87.2"/>
  <line x1="99.5" y1="62.8" x2="102.6" y2="69.8"/>
  <line x1="152.9" y1="172.8" x2="47.1" y2="172.8"/>
  <line x1="82.2" y1="116.6" x2="71.5" y2="109.3"/>
  <line x1="97.5" y1="83.1" x2="95.6" y2="81.6"/>
  <line x1="97.5" y1="83.1" x2="97.9" y2="86.4"/>
  <line x1="102.2" y1="79.0" x2="103.2" y2="77.6"/>
  <line x1="115.9" y1="89.8" x2="119.2" y2="89.2"/>
  <line x1="123.7" y1="88.4" x2="128.5" y2="109.3"/>
  <line x1="123.2" y1="86.1" x2="117.6" y2="75.7"/>
  <line x1="70.9" y1="87.0" x2="76.4" y2="85.6"/>
  <line x1="108.8" y1="42.9" x2="151.6" y2="74.0"/>
  <line x1="127.6" y1="85.5" x2="126.8" y2="86.3"/>
  <line x1="108.8" y1="42.9" x2="100.0" y2="10.0"/>
  <line x1="111.8" y1="91.1" x2="112.6" y2="88.1"/>
  <line x1="112.8" y1="103.4" x2="112.5" y2="102.1"/>
  <line x1="84.4" y1="114.7" x2="71.5" y2="109.3"/>
  <line x1="105.2" y1="104.7" x2="107.9" y2="102.8"/>
  <line x1="97.1" y1="107.5" x2="100.0" y2="101.9"/>
  <line x1="112.5" y1="102.1" x2="112.0" y2="94.9"/>
  <line x1="99.8" y1="86.4" x2="102.6" y2="85.9"/>
  <line x1="97.6" y1="74.5" x2="96.1" y2="73.6"/>
  <line x1="115.6" y1="115.0" x2="116.7" y2="112.4"/>
  <line x1="86.3" y1="110.5" x2="86.3" y2="107.1"/>
  <line x1="113.1" y1="88.0" x2="112.6" y2="88.1"/>
  <line x1="59.3" y1="141.0" x2="42.9" y2="90.7"/>
  <line x1="59.3" y1="141.0" x2="47.1" y2="172.8"/>
  <line x1="89.6" y1="92.5" x2="87.2" y2="94.0"/>
  <line x1="94.2" y1="108.0" x2="94.0" y2="102.0"/>
  <line x1="95.2" y1="83.5" x2="89.4" y2="86.5"/>
  <line x1="42.9" y1="90.7" x2="48.4" y2="74.0"/>
  <line x1="105.1" y1="86.8" x2="102.6" y2="85.9"/>
  <line x1="115.4" y1="110.8" x2="116.7" y2="112.4"/>
  <line x1="86.7" y1="109.2" x2="86.3" y2="107.1"/>
  <line x1="42.9" y1="90.7" x2="71.5" y2="109.3"/>
  <line x1="102.2" y1="79.0" x2="102.4" y2="83.2"/>
  <line x1="108.6" y1="91.3" x2="110.1" y2="91.5"/>
  <line x1="76.5" y1="86.6" x2="82.8" y2="89.3"/>
  <line x1="112.5" y1="102.1" x2="128.5" y2="109.3"/>
  <line x1="88.7" y1="108.2" x2="89.8" y2="108.8"/>
  <line x1="91.6" y1="94.0" x2="90.2" y2="96.1"/>
  <line x1="81.6" y1="91.4" x2="86.3" y2="107.1"/>
  <line x1="100.0" y1="10.0" x2="14.4" y2="72.2"/>
  <line x1="107.7" y1="89.4" x2="109.7" y2="87.8"/>
  <line x1="157.1" y1="90.7" x2="152.9" y2="172.8"/>
  <line x1="82.8" y1="118.4" x2="73.5" y2="151.4"/>
  <line x1="76.4" y1="85.6" x2="82.4" y2="75.7"/>
  <line x1="109.5" y1="97.0" x2="105.1" y2="96.5"/>
  <line x1="88.8" y1="114.6" x2="84.4" y2="114.7"/>
  <line x1="99.8" y1="86.4" x2="99.2" y2="87.2"/>
  <line x1="98.7" y1="86.0" x2="101.4" y2="84.4"/>
  <line x1="89.6" y1="92.5" x2="91.6" y2="94.0"/>
  <line x1="112.0" y1="94.9" x2="108.3" y2="95.5"/>
  <line x1="99.2" y1="64.7" x2="96.1" y2="73.6"/>
  <line x1="95.1" y1="94.6" x2="94.4" y2="93.8"/>
  <line x1="94.3" y1="108.8" x2="89.8" y2="108.8"/>
  <line x1="86.7" y1="109.2" x2="87.8" y2="111.9"/>
  <line x1="97.9" y1="86.4" x2="99.2" y2="87.2"/>
  <line x1="113.9" y1="92.6" x2="111.8" y2="91.1"/>
  <line x1="123.2" y1="86.1" x2="124.5" y2="84.9"/>
  <line x1="107.4" y1="106.0" x2="109.7" y2="110.3"/>
  <line x1="106.7" y1="102.2" x2="107.9" y2="102.8"/>
  <line x1="108.6" y1="91.3" x2="107.5" y2="92.5"/>
  <line x1="108.6" y1="91.3" x2="109.7" y2="87.8"/>
  <line x1="99.1" y1="94.7" x2="100.8" y2="91.8"/>
  <line x1="97.6" y1="74.5" x2="103.2" y2="77.6"/>
  <line x1="118.0" y1="118.1" x2="115.6" y2="115.0"/>
  <line x1="95.1" y1="94.6" x2="92.1" y2="100.4"/>
  <line x1="115.2" y1="89.0" x2="114.3" y2="85.8"/>
  <line x1="86.3" y1="107.1" x2="88.7" y2="108.2"/>
  <line x1="115.4" y1="110.8" x2="111.8" y2="103.8"/>
  <line x1="105.1" y1="86.8" x2="100.8" y2="91.8"/>
  <line x1="108.3" y1="95.5" x2="109.3" y2="91.7"/>
  <line x1="99.1" y1="94.7" x2="100.0" y2="101.9"/>
  <line x1="82.8" y1="118.4" x2="84.4" y2="114.7"/>
  <line x1="157.1" y1="90.7" x2="128.5" y2="109.3"/>
  <line x1="94.0" y1="102.0" x2="97.1" y2="107.5"/>
  <line x1="88.5" y1="88.2" x2="89.4" y2="86.5"/>
  <line x1="95.2" y1="81.9" x2="82.4" y2="75.7"/>
  <line x1="84.9" y1="87.8" x2="76.4" y2="85.6"/>
  <line x1="123.2" y1="86.1" x2="126.8" y2="86.3"/>
  <line x1="103.2" y1="77.6" x2="97.6" y2="78.4"/>
  <line x1="123.2" y1="86.1" x2="114.3" y2="85.8"/>
  <line x1="105.1" y1="86.8" x2="107.7" y2="89.4"/>
  <line x1="108.2" y1="104.7" x2="105.2" y2="104.7"/>
  <line x1="73.5" y1="151.4" x2="152.9" y2="172.8"/>
  <line x1="126.8" y1="86.3" x2="124.5" y2="84.9"/>
  <line x1="99.6" y1="87.5" x2="100.4" y2="90.0"/>
  <line x1="99.6" y1="87.5" x2="99.8" y2="86.4"/>
  <line x1="81.6" y1="91.4" x2="87.2" y2="94.0"/>
  <line x1="87.2" y1="94.0" x2="86.9" y2="90.9"/>
  <line x1="100.0" y1="10.0" x2="185.6" y2="72.2"/>
  <line x1="88.5" y1="88.2" x2="86.9" y2="90.9"/>
  <line x1="108.1" y1="103.2" x2="111.8" y2="103.8"/>
  <line x1="97.5" y1="83.1" x2="102.2" y2="79.0"/>
  <line x1="112.5" y1="102.1" x2="119.2" y2="89.2"/>
  <line x1="95.1" y1="94.6" x2="99.1" y2="94.7"/>
  <line x1="97.5" y1="83.1" x2="101.4" y2="84.4"/>
  <line x1="89.6" y1="92.5" x2="90.2" y2="96.1"/>
  <line x1="100.9" y1="68.7" x2="102.6" y2="69.8"/>
  <line x1="105.1" y1="86.8" x2="102.4" y2="83.2"/>
  <line x1="82.8" y1="89.3" x2="77.8" y2="89.3"/>
  <line x1="82.8" y1="89.3" x2="76.4" y2="85.6"/>
  <line x1="94.5" y1="90.5" x2="99.2" y2="87.2"/>
  <line x1="108.3" y1="95.5" x2="108.2" y2="95.9"/>
  <line x1="97.1" y1="107.5" x2="94.6" y2="110.5"/>
  <line x1="92.5" y1="111.8" x2="88.8" y2="112.3"/>
  <line x1="105.2" y1="104.7" x2="101.7" y2="104.8"/>
  <line x1="157.1" y1="90.7" x2="140.7" y2="141.0"/>
  <line x1="157.1" y1="90.7" x2="185.6" y2="72.2"/>
  <line x1="86.3" y1="110.5" x2="71.5" y2="109.3"/>
  <line x1="77.8" y1="89.3" x2="71.5" y2="109.3"/>
  <line x1="91.8" y1="89.1" x2="91.6" y2="94.0"/>
  <line x1="86.8" y1="112.7" x2="84.4" y2="114.7"/>
  <line x1="94.0" y1="102.0" x2="90.4" y2="102.1"/>
  <line x1="94.5" y1="90.5" x2="99.1" y2="94.7"/>
  <line x1="131.1" y1="85.1" x2="157.1" y2="90.7"/>
  <line x1="108.1" y1="103.2" x2="107.9" y2="102.8"/>
  <line x1="131.1" y1="85.1" x2="117.6" y2="75.7"/>
  <line x1="94.5" y1="90.5" x2="100.8" y2="91.8"/>
  <line x1="98.3" y1="71.0" x2="96.1" y2="73.6"/>
  <line x1="87.2" y1="94.0" x2="86.3" y2="107.1"/>
  <line x1="91.6" y1="94.0" x2="94.4" y2="93.8"/>
  <line x1="109.5" y1="97.0" x2="112.0" y2="94.9"/>
  <line x1="81.6" y1="91.4" x2="71.5" y2="109.3"/>
  <line x1="73.5" y1="88.4" x2="76.5" y2="86.6"/>
  <line x1="151.6" y1="74.0" x2="157.1" y2="90.7"/>
  <line x1="95.2" y1="83.5" x2="97.5" y2="83.1"/>
  <line x1="151.6" y1="74.0" x2="117.6" y2="75.7"/>
  <line x1="102.7" y1="94.9" x2="99.1" y2="94.7"/>
  <line x1="47.1" y1="172.8" x2="14.4" y2="72.2"/>
  <line x1="99.5" y1="62.8" x2="82.4" y2="75.7"/>
  <line x1="102.4" y1="83.2" x2="102.6" y2="85.9"/>
  <line x1="112.5" y1="102.1" x2="113.9" y2="92.6"/>
  <line x1="86.3" y1="107.1" x2="71.5" y2="109.3"/>
  <line x1="119.2" y1="89.2" x2="123.7" y2="88.4"/>
  <line x1="102.7" y1="94.9" x2="100.8" y2="91.8"/>
  <line x1="109.7" y1="87.8" x2="112.6" y2="88.1"/>
  <line x1="48.4" y1="74.0" x2="82.4" y2="75.7"/>
  <line x1="91.6" y1="94.0" x2="91.5" y2="95.6"/>
  <line x1="99.2" y1="64.7" x2="99.5" y2="62.8"/>
  <line x1="89.4" y1="86.5" x2="82.4" y2="75.7"/>
  <line x1="95.2" y1="81.9" x2="89.4" y2="86.5"/>
  <line x1="119.2" y1="89.2" x2="114.3" y2="85.8"/>
  <line x1="95.2" y1="81.9" x2="96.1" y2="73.6"/>
  <line x1="102.7" y1="94.9" x2="100.0" y2="101.9"/>
  <line x1="98.3" y1="71.0" x2="101.6" y2="71.6"/>
  <line x1="91.2" y1="42.9" x2="100.0" y2="10.0"/>
  <line x1="87.8" y1="111.9" x2="88.7" y2="108.2"/>
  <line x1="131.1" y1="85.1" x2="151.6" y2="74.0"/>
  <line x1="110.1" y1="91.5" x2="109.3" y2="91.7"/>
  <line x1="114.3" y1="85.8" x2="117.6" y2="75.7"/>
  <line x1="105.1" y1="96.5" x2="102.7" y2="94.9"/>
  <line x1="70.9" y1="87.0" x2="82.4" y2="75.7"/>
  <line x1="119.3" y1="121.0" x2="100.0" y2="130.0"/>
  <line x1="103.6" y1="94.5" x2="107.5" y2="92.5"/>
  <line x1="88.8" y1="114.6" x2="88.8" y2="112.3"/>
  <line x1="88.8" y1="112.3" x2="86.8" y2="112.7"/>
  <line x1="84.9" y1="87.8" x2="82.8" y2="89.3"/>
  <line x1="151.6" y1="74.0" x2="100.0" y2="10.0"/>
  <line x1="99.5" y1="62.8" x2="108.8" y2="42.9"/>
  <line x1="99.5" y1="62.8" x2="91.2" y2="42.9"/>
  <line x1="94.5" y1="90.5" x2="95.1" y2="94.6"/>
  <line x1="98.3" y1="71.0" x2="97.6" y2="74.5"/>
  <line x1="87.8" y1="111.9" x2="86.8" y2="112.7"/>
  <line x1="113.9" y1="92.6" x2="114.8" y2="90.0"/>
  <line x1="114.3" y1="85.8" x2="104.4" y2="81.3"/>
  <line x1="48.4" y1="74.0" x2="91.2" y2="42.9"/>
  <line x1="48.4" y1="74.0" x2="14.4" y2="72.2"/>
  <line x1="94.6" y1="110.5" x2="108.9" y2="113.1"/>
  <line x1="91.5" y1="95.6" x2="94.4" y2="93.8"/>
  <line x1="107.3" y1="93.8" x2="109.3" y2="91.7"/>
  <line x1="95.2" y1="83.5" x2="95.2" y2="81.9"/>
  <line x1="98.1" y1="108.1" x2="108.9" y2="113.1"/>
  <line x1="102.7" y1="94.9" x2="103.6" y2="94.5"/>
  <line x1="131.1" y1="85.1" x2="126.8" y2="86.3"/>
  <line x1="98.7" y1="86.0" x2="99.2" y2="87.2"/>
  <line x1="86.3" y1="107.1" x2="90.4" y2="102.1"/>
  <line x1="108.9" y1="113.1" x2="100.0" y2="130.0"/>
  <line x1="86.7" y1="109.2" x2="88.7" y2="108.2"/>
  <line x1="115.9" y1="89.8" x2="113.9" y2="92.6"/>
  <line x1="102.2" y1="79.0" x2="104.4" y2="81.3"/>
  <line x1="108.8" y1="42.9" x2="91.2" y2="42.9"/>
  <line x1="104.8" y1="102.7" x2="101.7" y2="104.8"/>
  <line x1="92.1" y1="100.4" x2="90.2" y2="96.1"/>
  <line x1="109.7" y1="110.3" x2="108.9" y2="113.1"/>
  <line x1="91.5" y1="95.6" x2="92.1" y2="100.4"/>
  <line x1="86.3" y1="110.5" x2="86.8" y2="112.7"/>
  <line x1="126.5" y1="151.4" x2="100.0" y2="130.0"/>
  <line x1="112.5" y1="102.1" x2="111.8" y2="103.8"/>
  <line x1="118.0" y1="118.1" x2="108.9" y2="113.1"/>
  <line x1="94.0" y1="102.0" x2="92.1" y2="100.4"/>
  <line x1="109.5" y1="97.0" x2="108.2" y2="95.9"/>
  <line x1="101.6" y1="71.6" x2="102.6" y2="69.8"/>
  <line x1="123.2" y1="86.1" x2="123.7" y2="88.4"/>
  <line x1="114.3" y1="85.8" x2="109.7" y2="87.8"/>
  <line x1="42.9" y1="90.7" x2="47.1" y2="172.8"/>
  <line x1="110.1" y1="91.5" x2="111.8" y2="91.1"/>
  <line x1="91.8" y1="89.1" x2="97.9" y2="86.4"/>
  <line x1="81.6" y1="91.4" x2="77.8" y2="89.3"/>
  <line x1="73.5" y1="88.4" x2="70.9" y2="87.0"/>
  <line x1="100.4" y1="90.0" x2="100.9" y2="87.4"/>
  <line x1="107.3" y1="93.8" x2="108.2" y2="95.9"/>
  <line x1="119.2" y1="89.2" x2="115.2" y2="89.0"/>
  <line x1="112.5" y1="102.1" x2="108.1" y2="103.2"/>
  <line x1="140.7" y1="141.0" x2="152.9" y2="172.8"/>
  <line x1="112.0" y1="94.9" x2="109.3" y2="91.7"/>
  <line x1="94.5" y1="90.5" x2="91.6" y2="94.0"/>
  <line x1="84.9" y1="87.8" x2="82.4" y2="75.7"/>
  <line x1="100.9" y1="87.4" x2="102.6" y2="85.9"/>
  <line x1="73.5" y1="88.4" x2="71.5" y2="109.3"/>
  <line x1="97.5" y1="83.1" x2="97.6" y2="78.4"/>
  <line x1="115.4" y1="110.8" x2="115.6" y2="115.0"/>
  <line x1="112.5" y1="102.1" x2="107.9" y2="102.8"/>
  <line x1="114.3" y1="85.8" x2="112.6" y2="88.1"/>
  <line x1="82.8" y1="118.4" x2="88.8" y2="114.6"/>
  <line x1="70.9" y1="87.0" x2="48.4" y2="74.0"/>
  <line x1="102.6" y1="69.8" x2="117.6" y2="75.7"/>
  <line x1="119.3" y1="121.0" x2="126.5" y2="151.4"/>
  <line x1="107.4" y1="106.0" x2="101.7" y2="104.8"/>
  <line x1="107.3" y1="93.8" x2="103.6" y2="94.5"/>
  <line x1="82.8" y1="118.4" x2="71.5" y2="109.3"/>
  <line x1="101.4" y1="84.4" x2="102.6" y2="85.9"/>
  <line x1="108.1" y1="103.2" x2="105.2" y2="104.7"/>
  <line x1="109.5" y1="97.0" x2="106.7" y2="102.2"/>
  <line x1="95.2" y1="83.5" x2="95.6" y2="81.6"/>
  <line x1="95.2" y1="83.5" x2="97.9" y2="86.4"/>
  <line x1="101.6" y1="71.6" x2="100.9" y2="68.7"/>
  <line x1="126.8" y1="86.3" x2="123.7" y2="88.4"/>
  <line x1="111.8" y1="91.1" x2="114.8" y2="90.0"/>
  <line x1="122.3" y1="87.2" x2="114.3" y2="85.8"/>
  <line x1="112.8" y1="103.4" x2="115.4" y2="110.8"/>
  <line x1="87.2" y1="94.0" x2="90.2" y2="96.1"/>
  <line x1="90.2" y1="96.1" x2="90.4" y2="102.1"/>
  <line x1="88.8" y1="112.3" x2="88.6" y2="112.1"/>
  <line x1="97.1" y1="107.5" x2="101.7" y2="104.8"/>
  <line x1="107.7" y1="89.4" x2="100.8" y2="91.8"/>
  <line x1="114.8" y1="90.0" x2="112.6" y2="88.1"/>
  <line x1="89.6" y1="92.5" x2="91.8" y2="89.1"/>
  <line x1="140.7" y1="141.0" x2="126.5" y2="151.4"/>
  <line x1="113.1" y1="88.0" x2="114.8" y2="90.0"/>
  <line x1="140.7" y1="141.0" x2="128.5" y2="109.3"/>
  <line x1="86.3" y1="110.5" x2="84.4" y2="114.7"/>
  <line x1="95.1" y1="94.6" x2="100.0" y2="101.9"/>
  <line x1="105.1" y1="86.8" x2="104.4" y2="81.3"/>
  <line x1="107.4" y1="106.0" x2="105.2" y2="104.7"/>
  <line x1="84.4" y1="114.7" x2="82.2" y2="116.6"/>
  <line x1="97.1" y1="107.5" x2="94.3" y2="108.8"/>
  <line x1="108.6" y1="91.3" x2="109.3" y2="91.7"/>
  <line x1="98.1" y1="108.1" x2="107.4" y2="106.0"/>
  <line x1="92.5" y1="111.8" x2="94.6" y2="110.5"/>
  <line x1="119.3" y1="121.0" x2="108.9" y2="113.1"/>
  <line x1="112.8" y1="103.4" x2="112.1" y2="103.7"/>
  <line x1="87.2" y1="94.0" x2="90.4" y2="102.1"/>
  <line x1="98.7" y1="86.0" x2="99.8" y2="86.4"/>
  <line x1="131.1" y1="85.1" x2="127.6" y2="85.5"/>
  <line x1="94.2" y1="108.0" x2="97.1" y2="107.5"/>
  <line x1="86.7" y1="109.2" x2="86.3" y2="110.5"/>
  <line x1="108.6" y1="91.3" x2="107.7" y2="89.4"/>
  <line x1="126.8" y1="86.3" x2="128.5" y2="109.3"/>
  <line x1="92.5" y1="111.8" x2="88.8" y2="114.6"/>
  <line x1="92.5" y1="111.8" x2="94.3" y2="108.8"/>
  <line x1="98.7" y1="86.0" x2="97.5" y2="83.1"/>
  <line x1="98.1" y1="108.1" x2="94.6" y2="110.5"/>
  <line x1="99.2" y1="64.7" x2="102.6" y2="69.8"/>
  <line x1="88.8" y1="114.6" x2="86.8" y2="112.7"/>
  <line x1="84.9" y1="87.8" x2="88.5" y2="88.2"/>
  <line x1="84.9" y1="87.8" x2="89.4" y2="86.5"/>
  <line x1="97.6" y1="78.4" x2="96.1" y2="73.6"/>
  <line x1="59.3" y1="141.0" x2="71.5" y2="109.3"/>
  <line x1="103.2" y1="77.6" x2="117.6" y2="75.7"/>
  <line x1="97.5" y1="83.1" x2="102.4" y2="83.2"/>
  <line x1="112.1" y1="103.7" x2="111.8" y2="103.8"/>
  <line x1="105.1" y1="86.8" x2="109.7" y2="87.8"/>
  <line x1="91.2" y1="42.9" x2="82.4" y2="75.7"/>
  <line x1="115.9" y1="89.8" x2="114.8" y2="90.0"/>
  <line x1="100.0" y1="101.9" x2="101.7" y2="104.8"/>
  <line x1="111.8" y1="91.1" x2="109.7" y2="87.8"/>
  <line x1="109.5" y1="97.0" x2="112.5" y2="102.1"/>
  <line x1="118.0" y1="118.1" x2="116.7" y2="112.4"/>
  <line x1="82.8" y1="118.4" x2="59.3" y2="141.0"/>
  <line x1="101.4" y1="84.4" x2="102.4" y2="83.2"/>
  <line x1="82.8" y1="118.4" x2="100.0" y2="130.0"/>
  <line x1="84.9" y1="87.8" x2="86.9" y2="90.9"/>
  <line x1="73.5" y1="88.4" x2="77.8" y2="89.3"/>
  <line x1="73.5" y1="88.4" x2="76.4" y2="85.6"/>
  <line x1="118.0" y1="118.1" x2="128.5" y2="109.3"/>
  <line x1="115.4" y1="110.8" x2="112.1" y2="103.7"/>
  <line x1="103.2" y1="77.6" x2="104.4" y2="81.3"/>
  <line x1="108.2" y1="104.7" x2="109.7" y2="110.3"/>
  <line x1="119.2" y1="89.2" x2="128.5" y2="109.3"/>
  <line x1="73.5" y1="151.4" x2="47.1" y2="172.8"/>
  <line x1="94.5" y1="90.5" x2="97.9" y2="86.4"/>
  <line x1="99.6" y1="87.5" x2="100.9" y2="87.4"/>
  <line x1="94.2" y1="108.0" x2="90.4" y2="102.1"/>
  <line x1="105.2" y1="104.7" x2="104.8" y2="102.7"/>
  <line x1="98.1" y1="108.1" x2="97.1" y2="107.5"/>
  <line x1="92.5" y1="111.8" x2="88.6" y2="112.1"/>
  <line x1="113.1" y1="88.0" x2="114.3" y2="85.8"/>
  <line x1="100.9" y1="87.4" x2="99.8" y2="86.4"/>
  <line x1="99.2" y1="64.7" x2="100.9" y2="68.7"/>
  <line x1="108.2" y1="104.7" x2="107.4" y2="106.0"/>
  <line x1="109.5" y1="97.0" x2="107.9" y2="102.8"/>
  <line x1="82.8" y1="89.3" x2="86.9" y2="90.9"/>
  <line x1="95.6" y1="81.6" x2="97.6" y2="78.4"/>
  <line x1="122.3" y1="87.2" x2="119.2" y2="89.2"/>
  <line x1="105.1" y1="96.5" x2="104.8" y2="102.7"/>
  <line x1="115.4" y1="110.8" x2="128.5" y2="109.3"/>
  <line x1="105.1" y1="96.5" x2="100.0" y2="101.9"/>
  <line x1="82.8" y1="118.4" x2="82.2" y2="116.6"/>
  <line x1="99.8" y1="86.4" x2="101.4" y2="84.4"/>
  <line x1="94.3" y1="108.8" x2="94.6" y2="110.5"/>
  <line x1="103.2" y1="77.6" x2="102.6" y2="69.8"/>
  <line x1="100.4" y1="90.0" x2="99.2" y2="87.2"/>
  <line x1="73.5" y1="151.4" x2="59.3" y2="141.0"/>
  <line x1="73.5" y1="151.4" x2="100.0" y2="130.0"/>
  <line x1="87.8" y1="111.9" x2="89.8" y2="108.8"/>
  <line x1="104.4" y1="81.3" x2="117.6" y2="75.7"/>
  <line x1="106.7" y1="102.2" x2="104.8" y2="102.7"/>
  <line x1="131.1" y1="85.1" x2="128.5" y2="109.3"/>
  <line x1="122.3" y1="87.2" x2="123.2" y2="86.1"/>
  <line x1="95.6" y1="81.6" x2="96.1" y2="73.6"/>
  <line x1="92.1" y1="100.4" x2="90.4" y2="102.1"/>
  <line x1="105.1" y1="96.5" x2="108.2" y2="95.9"/>
  <line x1="107.5" y1="92.5" x2="109.3" y2="91.7"/>
  <line x1="97.6" y1="74.5" x2="101.6" y2="71.6"/>
  <line x1="185.6" y1="72.2" x2="152.9" y2="172.8"/>
  <line x1="95.2" y1="81.9" x2="95.6" y2="81.6"/>
  <line x1="107.5" y1="92.5" x2="100.8" y2="91.8"/>
  <line x1="95.2" y1="83.5" x2="91.8" y2="89.1"/>
  <line x1="105.1" y1="86.8" x2="100.9" y2="87.4"/>
  <line x1="92.5" y1="111.8" x2="100.0" y2="130.0"/>
  <line x1="89.6" y1="92.5" x2="88.5" y2="88.2"/>
  <line x1="115.6" y1="115.0" x2="108.9" y2="113.1"/>
  <line x1="100.4" y1="90.0" x2="100.8" y2="91.8"/>
  <line x1="102.4" y1="83.2" x2="104.4" y2="81.3"/>
  <line x1="94.5" y1="90.5" x2="94.4" y2="93.8"/>
  <line x1="105.2" y1="104.7" x2="106.7" y2="102.2"/>
  <line x1="115.4" y1="110.8" x2="108.9" y2="113.1"/>
  <line x1="105.1" y1="96.5" x2="103.6" y2="94.5"/>
  <line x1="70.9" y1="87.0" x2="71.5" y2="109.3"/>
  <line x1="119.3" y1="121.0" x2="128.5" y2="109.3"/>
  <line x1="107.5" y1="92.5" x2="107.7" y2="89.4"/>
  <line x1="126.5" y1="151.4" x2="73.5" y2="151.4"/>
  <line x1="94.6" y1="110.5" x2="100.0" y2="130.0"/>
  <line x1="122.3" y1="87.2" x2="123.7" y2="88.4"/>
  <line x1="126.5" y1="151.4" x2="152.9" y2="172.8"/>
  <line x1="103.6" y1="94.5" x2="100.8" y2="91.8"/>
  <style> circle { fill: black; r: 0.8;  } </style>
  <circle cx="92.5" cy="111.8"/>
  <circle cx="109.5" cy="97.0"/>
  <circle cx="112.8" cy="103.4"/>
  <circle cx="112.5" cy="102.1"/>
  <circle cx="112.0" cy="94.9"/>
  <circle cx="115.4" cy="110.8"/>
  <circle cx="82.8" cy="118.4"/>
  <circle cx="119.3" cy="121.0"/>
  <circle cx="81.6" cy="91.4"/>
  <circle cx="112.1" cy="103.7"/>
  <circle cx="84.9" cy="87.8"/>
  <circle cx="99.6" cy="87.5"/>
  <circle cx="118.0" cy="118.1"/>
  <circle cx="89.6" cy="92.5"/>
  <circle cx="105.1" cy="86.8"/>
  <circle cx="108.2" cy="104.7"/>
  <circle cx="108.1" cy="103.2"/>
  <circle cx="94.2" cy="108.0"/>
  <circle cx="108.6" cy="91.3"/>
  <circle cx="122.3" cy="87.2"/>
  <circle cx="98.1" cy="108.1"/>
  <circle cx="111.8" cy="103.8"/>
  <circle cx="95.2" cy="83.5"/>
  <circle cx="98.7" cy="86.0"/>
  <circle cx="94.0" cy="102.0"/>
  <circle cx="73.5" cy="88.4"/>
  <circle cx="70.9" cy="87.0"/>
  <circle cx="107.4" cy="106.0"/>
  <circle cx="98.3" cy="71.0"/>
  <circle cx="105.1" cy="96.5"/>
  <circle cx="97.1" cy="107.5"/>
  <circle cx="107.3" cy="93.8"/>
  <circle cx="100.4" cy="90.0"/>
  <circle cx="113.1" cy="88.0"/>
  <circle cx="100.9" cy="87.4"/>
  <circle cx="131.1" cy="85.1"/>
  <circle cx="94.5" cy="90.5"/>
  <circle cx="123.2" cy="86.1"/>
  <circle cx="91.8" cy="89.1"/>
  <circle cx="95.2" cy="81.9"/>
  <circle cx="91.6" cy="94.0"/>
  <circle cx="99.8" cy="86.4"/>
  <circle cx="127.6" cy="85.5"/>
  <circle cx="115.6" cy="115.0"/>
  <circle cx="88.8" cy="114.6"/>
  <circle cx="97.5" cy="83.1"/>
  <circle cx="86.7" cy="109.2"/>
  <circle cx="115.9" cy="89.8"/>
  <circle cx="105.2" cy="104.7"/>
  <circle cx="116.7" cy="112.4"/>
  <circle cx="109.7" cy="110.3"/>
  <circle cx="119.2" cy="89.2"/>
  <circle cx="99.2" cy="64.7"/>
  <circle cx="94.3" cy="108.8"/>
  <circle cx="88.8" cy="112.3"/>
  <circle cx="87.8" cy="111.9"/>
  <circle cx="115.2" cy="89.0"/>
  <circle cx="102.2" cy="79.0"/>
  <circle cx="94.6" cy="110.5"/>
  <circle cx="106.7" cy="102.2"/>
  <circle cx="97.6" cy="74.5"/>
  <circle cx="88.6" cy="112.1"/>
  <circle cx="91.5" cy="95.6"/>
  <circle cx="87.2" cy="94.0"/>
  <circle cx="95.1" cy="94.6"/>
  <circle cx="101.6" cy="71.6"/>
  <circle cx="102.7" cy="94.9"/>
  <circle cx="126.8" cy="86.3"/>
  <circle cx="113.9" cy="92.6"/>
  <circle cx="76.5" cy="86.6"/>
  <circle cx="82.8" cy="89.3"/>
  <circle cx="108.3" cy="95.5"/>
  <circle cx="99.5" cy="62.8"/>
  <circle cx="103.6" cy="94.5"/>
  <circle cx="103.2" cy="77.6"/>
  <circle cx="101.4" cy="84.4"/>
  <circle cx="114.3" cy="85.8"/>
  <circle cx="110.1" cy="91.5"/>
  <circle cx="108.2" cy="95.9"/>
  <circle cx="99.1" cy="94.7"/>
  <circle cx="92.1" cy="100.4"/>
  <circle cx="107.5" cy="92.5"/>
  <circle cx="111.8" cy="91.1"/>
  <circle cx="107.7" cy="89.4"/>
  <circle cx="86.3" cy="110.5"/>
  <circle cx="94.4" cy="93.8"/>
  <circle cx="86.8" cy="112.7"/>
  <circle cx="86.3" cy="107.1"/>
  <circle cx="109.3" cy="91.7"/>
  <circle cx="100.9" cy="68.7"/>
  <circle cx="102.6" cy="69.8"/>
  <circle cx="88.7" cy="108.2"/>
  <circle cx="104.8" cy="102.7"/>
  <circle cx="88.5" cy="88.2"/>
  <circle cx="89.8" cy="108.8"/>
  <circle cx="77.8" cy="89.3"/>
  <circle cx="102.4" cy="83.2"/>
  <circle cx="86.9" cy="90.9"/>
  <circle cx="84.4" cy="114.7"/>
  <circle cx="109.7" cy="87.8"/>
  <circle cx="95.6" cy="81.6"/>
  <circle cx="100.0" cy="101.9"/>
  <circle cx="89.4" cy="86.5"/>
  <circle cx="101.7" cy="104.8"/>
  <circle cx="76.4" cy="85.6"/>
  <circle cx="114.8" cy="90.0"/>
  <circle cx="108.9" cy="113.1"/>
  <circle cx="102.6" cy="85.9"/>
  <circle cx="82.2" cy="116.6"/>
  <circle cx="97.9" cy="86.4"/>
  <circle cx="90.2" cy="96.1"/>
  <circle cx="99.2" cy="87.2"/>
  <circle cx="112.6" cy="88.1"/>
  <circle cx="124.5" cy="84.9"/>
  <circle cx="90.4" cy="102.1"/>
  <circle cx="100.8" cy="91.8"/>
  <circle cx="97.6" cy="78.4"/>
  <circle cx="123.7" cy="88.4"/>
  <circle cx="104.4" cy="81.3"/>
  <circle cx="107.9" cy="102.8"/>
  <circle cx="96.1" cy="73.6"/>
  <circle cx="108.8" cy="42.9"/>
  <circle cx="151.6" cy="74.0"/>
  <circle cx="157.1" cy="90.7"/>
  <circle cx="140.7" cy="141.0"/>
  <circle cx="126.5" cy="151.4"/>
  <circle cx="73.5" cy="151.4"/>
  <circle cx="59.3" cy="141.0"/>
  <circle cx="42.9" cy="90.7"/>
  <circle cx="48.4" cy="74.0"/>
  <circle cx="91.2" cy="42.9"/>
  <circle cx="100.0" cy="10.0"/>
  <circle cx="117.6" cy="75.7"/>
  <circle cx="185.6" cy="72.2"/>
  <circle cx="128.5" cy="109.3"/>
  <circle cx="152.9" cy="172.8"/>
  <circle cx="100.0" cy="130.0"/>
  <circle cx="47.1" cy="172.8"/>
  <circle cx="71.5" cy="109.3"/>
  <circle cx="14.4" cy="72.2"/>
  <circle cx="82.4" cy="75.7"/>
</svg>
