<?xml version='1.0' encoding='UTF-8' standalone='no'?>
<svg xmlns="http://www.w3.org/2000/svg" xmlns:xlink="http://www.w3.org/1999/xlink" version="1.1" width="100" height="100" viewBox="0 0 100 100" style="border:1px solid black">
  <path stroke="#ec00ffff" stroke-width="0.5" fill="transparent" fill-rule="nonzero" d="M 5.0 44.6 L 5.9 37.5 6.8 34.6 7.7 32.5 8.6 30.7 9.5 29.1 10.5 27.8 11.4 26.6 12.3 25.5 13.2 24.4 14.1 23.5 15.0 22.6 15.9 21.8 16.8 21.1 17.7 20.4 18.6 19.7 19.5 19.1 20.5 18.5 21.4 17.9 22.3 17.4 23.2 16.9 24.1 16.5 25.0 16.1 25.9 15.7 26.8 15.3 27.7 14.9 28.6 14.6 29.5 14.3 30.5 14.0 31.4 13.8 32.3 13.5 33.2 13.3 34.1 13.1 35.0 13.0 35.9 12.8 36.8 12.7 37.7 12.6 38.6 12.5 39.5 12.4 40.5 12.3 41.4 12.3 42.3 12.3 43.2 12.3 44.1 12.4 45.0 12.4 45.9 12.5 46.8 12.7 47.7 12.8 48.6 13.1 49.5 13.5 50.5 13.5 51.4 13.1 52.3 12.8 53.2 12.7 54.1 12.5 55.0 12.4 55.9 12.4 56.8 12.3 57.7 12.3 58.6 12.3 59.5 12.3 60.5 12.4 61.4 12.5 62.3 12.6 63.2 12.7 64.1 12.8 65.0 13.0 65.9 13.1 66.8 13.3 67.7 13.5 68.6 13.8 69.5 14.0 70.5 14.3 71.4 14.6 72.3 14.9 73.2 15.3 74.1 15.7 75.0 16.1 75.9 16.5 76.8 16.9 77.7 17.4 78.6 17.9 79.5 18.5 80.5 19.1 81.4 19.7 82.3 20.4 83.2 21.1 84.1 21.8 85.0 22.6 85.9 23.5 86.8 24.4 87.7 25.5 88.6 26.6 89.5 27.8 90.5 29.1 91.4 30.7 92.3 32.5 93.2 34.6 94.1 37.5 95.0 44.6 95.0 44.6 94.1 51.9 93.2 54.9 92.3 57.1 91.4 59.0 90.5 60.7 89.5 62.1 88.6 63.5 87.7 64.7 86.8 65.8 85.9 66.9 85.0 67.9 84.1 68.8 83.2 69.7 82.3 70.5 81.4 71.3 80.5 72.1 79.5 72.8 78.6 73.5 77.7 74.1 76.8 74.8 75.9 75.4 75.0 75.9 74.1 76.5 73.2 77.0 72.3 77.5 71.4 78.0 70.5 78.4 69.5 78.9 68.6 79.3 67.7 79.7 66.8 80.1 65.9 80.5 65.0 80.8 64.1 81.2 63.2 81.5 62.3 81.8 61.4 82.1 60.5 82.4 59.5 82.7 58.6 83.0 57.7 83.2 56.8 83.5 55.9 83.7 55.0 84.0 54.1 84.2 53.2 84.5 52.3 84.7 51.4 85.0 50.5 85.5 49.5 85.5 48.6 85.0 47.7 84.7 46.8 84.5 45.9 84.2 45.0 84.0 44.1 83.7 43.2 83.5 42.3 83.2 41.4 83.0 40.5 82.7 39.5 82.4 38.6 82.1 37.7 81.8 36.8 81.5 35.9 81.2 35.0 80.8 34.1 80.5 33.2 80.1 32.3 79.7 31.4 79.3 30.5 78.9 29.5 78.4 28.6 78.0 27.7 77.5 26.8 77.0 25.9 76.5 25.0 75.9 24.1 75.4 23.2 74.8 22.3 74.1 21.4 73.5 20.5 72.8 19.5 72.1 18.6 71.3 17.7 70.5 16.8 69.7 15.9 68.8 15.0 67.9 14.1 66.9 13.2 65.8 12.3 64.7 11.4 63.5 10.5 62.1 9.5 60.7 8.6 59.0 7.7 57.1 6.8 54.9 5.9 51.9 5.0 44.6z"/>
  <path stroke="#ffc700ff" stroke-width="0.5" fill="transparent" fill-rule="nonzero" d="M 0.0 -2410.0 L 0.5 -2360.0 1.0 -2310.5 1.5 -2261.5 2.0 -2213.0 2.5 -2165.1 3.0 -2117.6 3.5 -2070.6 4.0 -2024.2 4.5 -1978.2 5.0 -1932.7 5.5 -1887.8 6.0 -1843.3 6.5 -1799.4 7.0 -1756.0 7.5 -1713.0 8.0 -1670.6 8.5 -1628.7 9.0 -1587.3 9.5 -1546.4 10.1 -1506.0 10.6 -1466.1 11.1 -1426.7 11.6 -1387.8 12.1 -1349.4 12.6 -1311.5 13.1 -1274.2 13.6 -1237.3 14.1 -1200.9 14.6 -1165.1 15.1 -1129.7 15.6 -1094.9 16.1 -1060.5 16.6 -1026.7 17.1 -993.4 17.6 -960.5 18.1 -928.2 18.6 -896.4 19.1 -865.1 19.6 -834.3 20.1 -804.0 20.6 -774.2 21.1 -744.9 21.6 -716.1 22.1 -687.8 22.6 -660.0 23.1 -632.8 23.6 -606.0 24.1 -579.7 24.6 -554.0 25.1 -528.7 25.6 -504.0 26.1 -479.7 26.6 -456.0 27.1 -432.8 27.6 -410.1 28.1 -387.8 28.6 -366.1 29.1 -344.9 29.6 -324.2 30.2 -304.0 30.7 -284.3 31.2 -265.1 31.7 -246.4 32.2 -228.2 32.7 -210.6 33.2 -193.4 33.7 -176.7 34.2 -160.6 34.7 -144.9 35.2 -129.8 35.7 -115.1 36.2 -101.0 36.7 -87.3 37.2 -74.2 37.7 -61.6 38.2 -49.5 38.7 -37.8 39.2 -26.7 39.7 -16.1 40.2 -6.0 40.7 3.6 41.2 12.7 41.7 21.3 42.2 29.3 42.7 36.9 43.2 44.0 43.7 50.5 44.2 56.6 44.7 62.2 45.2 67.2 45.7 71.8 46.2 75.8 46.7 79.3 47.2 82.4 47.7 84.9 48.2 86.9 48.7 88.4 49.2 89.4 49.7 89.9 50.3 89.9 50.8 89.4 51.3 88.4 51.8 86.9 52.3 84.9 52.8 82.4 53.3 79.3 53.8 75.8 54.3 71.8 54.8 67.2 55.3 62.2 55.8 56.6 56.3 50.5 56.8 44.0 57.3 36.9 57.8 29.3 58.3 21.3 58.8 12.7 59.3 3.6 59.8 -6.0 60.3 -16.1 60.8 -26.7 61.3 -37.8 61.8 -49.5 62.3 -61.6 62.8 -74.2 63.3 -87.3 63.8 -101.0 64.3 -115.1 64.8 -129.8 65.3 -144.9 65.8 -160.6 66.3 -176.7 66.8 -193.4 67.3 -210.6 67.8 -228.2 68.3 -246.4 68.8 -265.1 69.3 -284.3 69.8 -304.0 70.4 -324.2 70.9 -344.9 71.4 -366.1 71.9 -387.8 72.4 -410.1 72.9 -432.8 73.4 -456.0 73.9 -479.7 74.4 -504.0 74.9 -528.7 75.4 -554.0 75.9 -579.7 76.4 -606.0 76.9 -632.8 77.4 -660.0 77.9 -687.8 78.4 -716.1 78.9 -744.9 79.4 -774.2 79.9 -804.0 80.4 -834.3 80.9 -865.1 81.4 -896.4 81.9 -928.2 82.4 -960.5 82.9 -993.4 83.4 -1026.7 83.9 -1060.5 84.4 -1094.9 84.9 -1129.7 85.4 -1165.1 85.9 -1200.9 86.4 -1237.3 86.9 -1274.2 87.4 -1311.5 87.9 -1349.4 88.4 -1387.8 88.9 -1426.7 89.4 -1466.1 89.9 -1506.0 90.5 -1546.4 91.0 -1587.3 91.5 -1628.7 92.0 -1670.6 92.5 -1713.0 93.0 -1756.0 93.5 -1799.4 94.0 -1843.3 94.5 -1887.8 95.0 -1932.7 95.5 -1978.2 96.0 -2024.2 96.5 -2070.6 97.0 -2117.6 97.5 -2165.1 98.0 -2213.0 98.5 -2261.5 99.0 -2310.5 99.5 -2360.0 100.0 -2410.0z"/>
  <path stroke="#e2ff00ff" stroke-width="0.5" fill="transparent" fill-rule="nonzero" d="M 0.0 44.8 L 0.5 36.1 1.0 30.9 1.5 30.4 2.0 34.8 2.5 42.9 3.0 52.8 3.5 62.0 4.0 68.2 4.5 69.9 5.0 66.7 5.5 59.4 6.0 49.8 6.5 40.1 7.0 33.0 7.5 30.0 8.0 32.0 8.5 38.4 9.0 47.7 9.5 57.6 10.1 65.6 10.6 69.7 11.1 69.0 11.6 63.5 12.1 54.8 12.6 44.8 13.1 36.2 13.6 30.9 14.1 30.4 14.6 34.7 15.1 42.8 15.6 52.7 16.1 61.9 16.6 68.2 17.1 69.9 17.6 66.8 18.1 59.5 18.6 49.8 19.1 40.2 19.6 33.0 20.1 30.0 20.6 32.0 21.1 38.4 21.6 47.7 22.1 57.5 22.6 65.5 23.1 69.7 23.6 69.0 24.1 63.6 24.6 54.8 25.1 44.9 25.6 36.2 26.1 30.9 26.6 30.4 27.1 34.7 27.6 42.8 28.1 52.6 28.6 61.9 29.1 68.1 29.6 70.0 30.2 66.8 30.7 59.5 31.2 49.9 31.7 40.3 32.2 33.1 32.7 30.0 33.2 31.9 33.7 38.3 34.2 47.6 34.7 57.4 35.2 65.5 35.7 69.7 36.2 69.0 36.7 63.6 37.2 54.9 37.7 45.0 38.2 36.3 38.7 31.0 39.2 30.4 39.7 34.6 40.2 42.7 40.7 52.6 41.2 61.8 41.7 68.1 42.2 70.0 42.7 66.9 43.2 59.6 43.7 50.0 44.2 40.3 44.7 33.1 45.2 30.0 45.7 31.9 46.2 38.3 46.7 47.5 47.2 57.4 47.7 65.4 48.2 69.6 48.7 69.0 49.2 63.7 49.7 55.0 50.3 45.0 50.8 36.3 51.3 31.0 51.8 30.4 52.3 34.6 52.8 42.6 53.3 52.5 53.8 61.7 54.3 68.1 54.8 70.0 55.3 66.9 55.8 59.7 56.3 50.0 56.8 40.4 57.3 33.1 57.8 30.0 58.3 31.9 58.8 38.2 59.3 47.4 59.8 57.3 60.3 65.4 60.8 69.6 61.3 69.0 61.8 63.7 62.3 55.0 62.8 45.1 63.3 36.4 63.8 31.0 64.3 30.3 64.8 34.5 65.3 42.6 65.8 52.4 66.3 61.7 66.8 68.1 67.3 70.0 67.8 66.9 68.3 59.7 68.8 50.1 69.3 40.5 69.8 33.2 70.4 30.0 70.9 31.9 71.4 38.1 71.9 47.4 72.4 57.2 72.9 65.3 73.4 69.6 73.9 69.1 74.4 63.8 74.9 55.1 75.4 45.2 75.9 36.4 76.4 31.0 76.9 30.3 77.4 34.5 77.9 42.5 78.4 52.3 78.9 61.6 79.4 68.0 79.9 70.0 80.4 67.0 80.9 59.8 81.4 50.2 81.9 40.5 82.4 33.2 82.9 30.1 83.4 31.8 83.9 38.1 84.4 47.3 84.9 57.2 85.4 65.3 85.9 69.6 86.4 69.1 86.9 63.8 87.4 55.2 87.9 45.2 88.4 36.5 88.9 31.0 89.4 30.3 89.9 34.4 90.5 42.4 91.0 52.3 91.5 61.6 92.0 68.0 92.5 70.0 93.0 67.0 93.5 59.9 94.0 50.2 94.5 40.6 95.0 33.3 95.5 30.1 96.0 31.8 96.5 38.0 97.0 47.2 97.5 57.1 98.0 65.2 98.5 69.6 99.0 69.1 99.5 63.9 100.0 55.2z"/>
  <path stroke="#ffb600ff" stroke-width="0.5" fill="transparent" fill-rule="nonzero" d="M 0.0 30.7 L 0.5 35.6 1.0 44.1 1.5 54.0 2.0 63.0 2.5 68.7 3.0 69.8 3.5 66.0 4.0 58.3 4.5 48.5 5.0 39.1 5.5 32.4 6.0 30.0 6.5 32.6 7.0 39.5 7.5 49.0 8.0 58.7 8.5 66.3 9.0 69.9 9.5 68.5 10.1 62.6 10.6 53.5 11.1 43.6 11.6 35.3 12.1 30.6 12.6 30.7 13.1 35.6 13.6 44.0 14.1 53.9 14.6 62.9 15.1 68.7 15.6 69.8 16.1 66.1 16.6 58.3 17.1 48.6 17.6 39.1 18.1 32.4 18.6 30.0 19.1 32.6 19.6 39.4 20.1 48.9 20.6 58.7 21.1 66.3 21.6 69.9 22.1 68.5 22.6 62.6 23.1 53.6 23.6 43.7 24.1 35.3 24.6 30.6 25.1 30.7 25.6 35.5 26.1 43.9 26.6 53.9 27.1 62.8 27.6 68.6 28.1 69.8 28.6 66.1 29.1 58.4 29.6 48.6 30.2 39.2 30.7 32.4 31.2 30.0 31.7 32.5 32.2 39.4 32.7 48.8 33.2 58.6 33.7 66.2 34.2 69.9 34.7 68.6 35.2 62.7 35.7 53.7 36.2 43.7 36.7 35.4 37.2 30.6 37.7 30.6 38.2 35.5 38.7 43.9 39.2 53.8 39.7 62.8 40.2 68.6 40.7 69.8 41.2 66.2 41.7 58.5 42.2 48.7 42.7 39.2 43.2 32.5 43.7 30.0 44.2 32.5 44.7 39.3 45.2 48.8 45.7 58.5 46.2 66.2 46.7 69.8 47.2 68.6 47.7 62.7 48.2 53.7 48.7 43.8 49.2 35.4 49.7 30.6 50.3 30.6 50.8 35.4 51.3 43.8 51.8 53.7 52.3 62.7 52.8 68.6 53.3 69.8 53.8 66.2 54.3 58.5 54.8 48.8 55.3 39.3 55.8 32.5 56.3 30.0 56.8 32.5 57.3 39.2 57.8 48.7 58.3 58.5 58.8 66.2 59.3 69.8 59.8 68.6 60.3 62.8 60.8 53.8 61.3 43.9 61.8 35.5 62.3 30.6 62.8 30.6 63.3 35.4 63.8 43.7 64.3 53.7 64.8 62.7 65.3 68.6 65.8 69.9 66.3 66.2 66.8 58.6 67.3 48.8 67.8 39.4 68.3 32.5 68.8 30.0 69.3 32.4 69.8 39.2 70.4 48.6 70.9 58.4 71.4 66.1 71.9 69.8 72.4 68.6 72.9 62.8 73.4 53.9 73.9 43.9 74.4 35.5 74.9 30.7 75.4 30.6 75.9 35.3 76.4 43.7 76.9 53.6 77.4 62.6 77.9 68.5 78.4 69.9 78.9 66.3 79.4 58.7 79.9 48.9 80.4 39.4 80.9 32.6 81.4 30.0 81.9 32.4 82.4 39.1 82.9 48.6 83.4 58.3 83.9 66.1 84.4 69.8 84.9 68.7 85.4 62.9 85.9 53.9 86.4 44.0 86.9 35.6 87.4 30.7 87.9 30.6 88.4 35.3 88.9 43.6 89.4 53.5 89.9 62.6 90.5 68.5 91.0 69.9 91.5 66.3 92.0 58.7 92.5 49.0 93.0 39.5 93.5 32.6 94.0 30.0 94.5 32.4 95.0 39.1 95.5 48.5 96.0 58.3 96.5 66.0 97.0 69.8 97.5 68.7 98.0 63.0 98.5 54.0 99.0 44.1 99.5 35.6 100.0 30.7z"/>
  <path stroke="#6aff00ff" stroke-width="0.5" fill="transparent" fill-rule="nonzero" d="M 0.0 50.0 L 0.5 50.0 1.0 50.0 1.5 50.0 2.0 50.0 2.5 50.0 3.0 50.0 3.5 50.0 4.0 50.0 4.5 50.0 5.0 50.0 5.5 50.0 6.0 50.0 6.5 50.0 7.0 50.0 7.5 50.0 8.0 50.0 8.5 50.0 9.0 50.0 9.5 50.0 10.1 50.0 10.6 50.0 11.1 50.0 11.6 50.0 12.1 50.0 12.6 50.0 13.1 50.0 13.6 50.0 14.1 50.0 14.6 50.0 15.1 50.0 15.6 50.0 16.1 50.0 16.6 50.0 17.1 50.0 17.6 50.0 18.1 50.0 18.6 50.0 19.1 50.0 19.6 50.0 20.1 50.0 20.6 50.0 21.1 50.0 21.6 50.0 22.1 50.0 22.6 50.0 23.1 50.0 23.6 50.0 24.1 50.0 24.6 50.0 25.1 50.0 25.6 50.0 26.1 50.0 26.6 50.0 27.1 50.0 27.6 50.0 28.1 50.0 28.6 50.0 29.1 50.0 29.6 50.0 30.2 50.0 30.7 50.0 31.2 50.0 31.7 50.0 32.2 50.0 32.7 50.0 33.2 50.0 33.7 50.0 34.2 50.0 34.7 50.0 35.2 50.0 35.7 50.0 36.2 50.0 36.7 50.0 37.2 50.0 37.7 50.0 38.2 50.0 38.7 50.0 39.2 50.0 39.7 50.0 40.2 50.0 40.7 50.0 41.2 50.0 41.7 50.0 42.2 50.0 42.7 50.0 43.2 50.0 43.7 50.0 44.2 50.0 44.7 50.0 45.2 50.0 45.7 50.0 46.2 50.0 46.7 50.0 47.2 49.9 47.7 49.9 48.2 49.9 48.7 49.8 49.2 49.7 49.7 49.6 50.3 49.4 50.8 49.3 51.3 49.2 51.8 49.1 52.3 49.1 52.8 49.1 53.3 49.0 53.8 49.0 54.3 49.0 54.8 49.0 55.3 49.0 55.8 49.0 56.3 49.0 56.8 49.0 57.3 49.0 57.8 49.0 58.3 49.0 58.8 49.0 59.3 49.0 59.8 49.0 60.3 49.0 60.8 49.0 61.3 49.0 61.8 49.0 62.3 49.0 62.8 49.0 63.3 49.0 63.8 49.0 64.3 49.0 64.8 49.0 65.3 49.0 65.8 49.0 66.3 49.0 66.8 49.0 67.3 49.0 67.8 49.0 68.3 49.0 68.8 49.0 69.3 49.0 69.8 49.0 70.4 49.0 70.9 49.0 71.4 49.0 71.9 49.0 72.4 49.0 72.9 49.0 73.4 49.0 73.9 49.0 74.4 49.0 74.9 49.0 75.4 49.0 75.9 49.0 76.4 49.0 76.9 49.0 77.4 49.0 77.9 49.0 78.4 49.0 78.9 49.0 79.4 49.0 79.9 49.0 80.4 49.0 80.9 49.0 81.4 49.0 81.9 49.0 82.4 49.0 82.9 49.0 83.4 49.0 83.9 49.0 84.4 49.0 84.9 49.0 85.4 49.0 85.9 49.0 86.4 49.0 86.9 49.0 87.4 49.0 87.9 49.0 88.4 49.0 88.9 49.0 89.4 49.0 89.9 49.0 90.5 49.0 91.0 49.0 91.5 49.0 92.0 49.0 92.5 49.0 93.0 49.0 93.5 49.0 94.0 49.0 94.5 49.0 95.0 49.0 95.5 49.0 96.0 49.0 96.5 49.0 97.0 49.0 97.5 49.0 98.0 49.0 98.5 49.0 99.0 49.0 99.5 49.0 100.0 49.0z"/>
</svg>
