<?xml version='1.0' encoding='UTF-8' standalone='no'?>
<svg xmlns="http://www.w3.org/2000/svg" xmlns:xlink="http://www.w3.org/1999/xlink" version="1.1" viewBox="0 0 512 512">
  <path stroke="none" stroke-width="1.8" fill="black" fill-rule="evenodd" d="M0.000000,462.500000C0.000000,414.021924 0.040420,413.000000 1.957846,413.000000C5.682645,413.000000 8.684962,420.314281 9.962076,432.500000C10.596140,438.550000 11.530149,447.100000 12.037650,451.500000C13.341077,462.800630 13.419423,479.021514 12.185585,482.128683C11.412287,484.076077 11.475372,485.242364 12.428992,486.628683C14.258383,489.288148 15.299878,495.287570 15.488038,504.250000L15.650744,512.000000L7.825372,512.000000L0.000000,512.000000L0.000000,462.500000zM31.989176,507.750000C31.983222,505.412500 31.289778,501.250000 30.448188,498.500000C29.606598,495.750000 28.474465,488.550000 27.932337,482.500000C27.390209,476.450000 26.506002,469.327983 25.967431,466.673296C25.428861,464.018609 24.512258,452.993609 23.930536,442.173296C23.331910,431.038565 22.222029,420.204860 21.373313,417.211879C20.032814,412.484634 19.078544,411.291823 12.376171,405.965693C8.252493,402.688757 3.780896,399.732128 2.439288,399.395406L0.000000,398.783184L0.000000,247.474925C0.000000,153.876516 0.358748,96.039531 0.940594,95.833333C1.457921,95.650000 6.303153,88.119167 11.707776,79.098149C21.117556,63.392002 24.020387,59.687053 25.644160,61.310826C26.051207,61.717874 26.497408,83.526958 26.635716,109.775457C26.832015,147.029498 26.568252,159.881934 25.433485,168.356853C24.633949,174.328122 23.595287,179.900765 23.125346,180.740503C22.646398,181.596335 22.674423,183.856535 23.189117,185.883650C23.694133,187.872642 24.257433,191.300000 24.440895,193.500000C24.624358,195.700000 25.459372,201.775000 26.296482,207.000000C28.006440,217.673066 29.608667,270.568141 29.249822,304.500000C28.986730,329.377579 28.336433,365.268363 27.945269,376.500000C27.740318,382.384856 28.254443,386.615144 29.889818,392.500000C31.884184,399.676681 32.203213,404.050562 32.989748,435.000000C34.507197,494.710260 34.509499,512.000000 33.000000,512.000000C32.450000,512.000000 31.995129,510.087500 31.989176,507.750000zM61.000000,509.700000C61.000000,508.435000 61.520928,506.879072 62.157618,506.242382C63.034443,505.365557 63.007306,504.713730 62.045743,503.555117C61.282706,502.635714 61.089407,501.322236 61.561215,500.262735C61.992947,499.293231 62.439869,492.618458 62.554377,485.429907C62.722523,474.874079 63.119577,471.700010 64.618415,468.929907C66.209909,465.988560 66.477049,463.149721 66.493856,449.000000C66.507256,437.718400 66.906660,431.809192 67.756727,430.315741C69.469600,427.306461 69.323430,426.762572 67.000000,427.500000C65.852689,427.864142 65.000000,427.679700 65.000000,427.067388C65.000000,426.480324 65.562500,426.112500 66.250000,426.250000C67.180507,426.436101 67.411321,424.710841 67.153049,419.500000C66.869711,413.783415 67.043888,412.729181 68.103049,413.750000C69.842931,415.426896 71.000000,415.327044 71.000000,413.500000C71.000000,412.675000 70.325000,412.000000 69.500000,412.000000C67.898776,412.000000 67.674272,410.816344 68.612191,407.319197C68.953843,406.045305 69.748241,405.349897 70.522440,405.646985C71.369841,405.972163 72.760683,404.248123 74.379138,400.866355C75.771368,397.957283 76.779686,395.446353 76.619843,395.286510C76.460001,395.126668 74.430371,397.021813 72.109554,399.497944C66.929235,405.024941 64.000000,405.464855 64.000000,400.715840C64.000000,398.060092 65.052405,396.392348 69.500000,392.000000C72.525000,389.012576 75.000000,386.215448 75.000000,385.784160C75.000000,384.217734 72.414900,385.120030 68.571861,388.027820C66.411384,389.662519 64.380203,391.000000 64.058126,391.000000C63.736048,391.000000 63.640925,384.362500 63.846742,376.250000L64.220954,361.500000L68.360477,356.973158C70.637215,354.483396 74.637031,349.645896 77.248957,346.223158C79.860883,342.800421 82.420091,340.000000 82.936086,340.000000C84.175587,340.000000 83.066359,347.080018 81.526053,349.000000C79.352388,351.709462 73.000000,365.118870 73.000000,366.997850C73.000000,369.539412 74.036440,372.000000 75.106989,372.000000C75.598145,372.000000 76.000000,370.600363 76.000000,368.889696C76.000000,365.917625 81.455871,356.000000 83.090862,356.000000C84.447171,356.000000 85.890709,349.615797 85.804194,344.000000C85.757591,340.975000 86.052363,337.278453 86.459241,335.785452C87.276550,332.786417 85.175490,326.774326 83.505131,327.332394C82.952309,327.517092 82.484049,329.025799 82.464554,330.685076C82.404567,335.790691 68.904643,355.000000 65.376505,355.000000C64.445922,355.000000 64.119173,346.690769 63.990347,319.750000C63.897640,300.362500 63.473910,262.000000 63.048726,234.500000C62.110715,173.831462 61.812043,7.772812 62.632802,3.250000L63.222582,0.000000L85.473609,-0.000000L107.724637,-0.000000L108.308041,5.250000C108.628914,8.137500 108.508502,12.509795 108.040460,14.966212C107.460735,18.008769 107.557727,19.958030 108.344737,21.081325C109.060262,22.102590 109.453144,26.683112 109.376902,33.115113C109.249866,43.832320 108.441343,49.000000 106.891592,49.000000C104.484049,49.000000 106.426574,57.545037 110.074182,63.000000C112.772779,67.035727 114.457066,80.245274 112.646715,83.175906C111.930618,84.335139 111.937897,85.568318 112.670328,87.175906C113.255561,88.460416 113.382920,90.436036 112.955051,91.592603C112.529267,92.743534 112.499443,96.386809 112.888776,99.688769C113.324500,103.384185 113.196415,106.326842 112.555621,107.342710C111.814373,108.517833 111.872448,109.566110 112.757295,110.982975C113.440783,112.077413 114.000000,113.623270 114.000000,114.418212C114.000000,116.992293 118.555922,115.527558 122.517958,111.679678C126.015330,108.283074 128.000000,107.158607 128.000000,108.573683C128.000000,108.889209 126.917928,112.376709 125.595395,116.323683C124.272862,120.270657 122.677240,126.425000 122.049568,130.000000C121.421896,133.575000 120.438996,138.975000 119.865346,142.000000C119.291696,145.025000 118.583072,154.925000 118.290627,164.000000C117.809229,178.938450 117.971690,181.304435 120.007255,189.000000C121.243845,193.675000 123.998091,200.705399 126.127801,204.623108C129.141837,210.167581 130.000000,212.842223 130.000000,216.691607C130.000000,219.411572 130.705614,224.013059 131.568032,226.917134C132.430449,229.821208 132.991425,232.341909 132.814643,232.518690C132.290191,233.043143 125.000000,226.057027 125.000000,225.029997C125.000000,224.511300 123.203048,222.154856 121.006773,219.793455C118.810498,217.432055 117.221375,214.937500 117.475388,214.250000C117.729401,213.562500 117.265216,213.000000 116.443864,213.000000C114.179105,213.000000 112.565089,218.046272 114.059565,220.454587C114.992502,221.957993 114.997905,222.500698 114.082975,222.805675C112.447192,223.350936 107.997304,228.250129 108.011869,229.489782C108.018397,230.045402 108.652352,232.861309 109.420658,235.747354C110.347715,239.229724 110.474831,241.206538 109.798578,241.624486C108.065315,242.695701 109.780938,249.161911 112.571117,252.074230L115.217312,254.836263L112.257156,256.367019C110.629070,257.208935 108.503041,259.109511 107.532646,260.590520C106.048072,262.856267 105.945237,263.873852 106.884146,267.007651C108.466792,272.290053 108.370301,272.608919 104.750000,274.060169C102.962500,274.776714 99.993838,276.655896 98.152974,278.236128C94.107996,281.708412 91.691500,281.483228 91.007705,277.570287C90.728467,275.972377 89.992943,274.496353 89.373207,274.290234C87.281432,273.594526 86.937669,277.269922 88.670203,281.806499C90.601431,286.863347 91.001711,286.190961 83.000000,291.331264C78.853513,293.994970 78.455730,296.378624 82.087262,296.800719C84.319694,297.060196 84.658677,297.557756 84.558979,300.428716C84.475183,302.841762 83.587236,304.476438 81.327362,306.377997C77.453505,309.637632 77.210797,309.631994 75.817859,306.250000C74.883647,303.981776 74.609682,303.820441 74.254053,305.329095C73.542485,308.347713 74.875273,311.825638 77.002324,312.500738C79.898174,313.419845 79.481633,314.509384 75.250000,317.084254C72.391686,318.823486 71.915939,319.458831 73.249240,319.756208C75.465794,320.250584 80.334860,316.498419 81.022743,313.765846C81.634448,311.335887 84.550494,309.217161 85.700464,310.367131C86.138479,310.805146 85.643290,311.787664 84.600043,312.550505C83.014374,313.709975 82.915723,314.193526 83.998637,315.498358C84.973002,316.672395 85.026355,317.646741 84.213919,319.429844C83.158347,321.746572 83.492843,323.000000 85.166667,323.000000C85.625000,323.000000 86.002772,322.212500 86.006161,321.250000C86.009549,320.287500 86.684549,318.211062 87.506161,316.635693C88.327772,315.060324 89.000000,312.668241 89.000000,311.319952C89.000000,307.721460 90.647247,305.234574 94.279644,303.349152C96.242264,302.330441 96.977629,301.501344 96.162500,301.226302C95.426875,300.978086 94.324375,301.275625 93.712500,301.887500C92.717135,302.882865 88.000000,303.515509 88.000000,302.653638C88.000000,302.463139 88.676467,300.951265 89.503261,299.293919C91.073937,296.145422 98.273212,291.757814 103.894461,290.523180C107.739160,289.678743 108.086806,287.559090 104.260643,288.290507C102.753997,288.578521 100.723389,288.387146 99.748182,287.865231C98.186167,287.029266 98.519532,286.445070 102.548358,282.958147C105.298201,280.578174 108.138158,279.000000 109.671124,279.000000C112.740847,279.000000 121.381531,273.592848 123.514954,270.336833C124.410369,268.970257 126.035139,268.000000 127.428160,268.000000C129.352946,268.000000 130.068384,267.184154 131.155107,263.750000C132.205498,260.430657 133.047446,259.426713 135.000000,259.165324C136.375000,258.981252 137.908428,258.437824 138.407618,257.957706C139.735564,256.680495 136.967741,253.775173 134.930555,254.307909C132.471836,254.950879 131.344433,253.929630 130.569856,250.357810C129.977929,247.628249 130.284387,246.933687 132.903550,245.068679C135.340550,243.333381 136.549590,243.085842 139.209326,243.777632C142.460372,244.623221 142.495882,244.695946 142.158076,249.816764C141.844757,254.566370 141.996800,255.000000 143.975464,255.000000C145.649456,255.000000 145.997859,254.568614 145.525598,253.080651C145.093117,251.718026 145.493821,250.978043 146.907058,250.529499C148.001908,250.182007 149.181906,249.002225 149.529275,247.907762C149.903195,246.729644 151.386990,245.672602 153.166376,245.316725C156.132623,244.723475 157.177072,243.441600 157.390757,240.132045C157.450841,239.201468 159.242151,236.315526 161.371447,233.718841C164.488733,229.917299 165.011401,228.718663 164.054535,227.565710C163.110559,226.428289 163.289172,225.710828 164.923072,224.076928C166.054366,222.945634 167.771976,222.086823 168.739985,222.168459C169.707993,222.250095 171.903249,222.245588 173.618331,222.158444C176.481112,222.012985 176.781960,221.662273 177.289415,217.878916C177.972174,212.788570 179.627669,210.819379 181.317321,213.087771C182.665965,214.898353 185.000000,214.508954 185.000000,212.473371C185.000000,211.725391 183.987500,210.371228 182.750000,209.464119L180.500000,207.814829L182.750000,208.474802C183.987500,208.837787 185.900000,208.849126 187.000000,208.500000C189.177098,207.809016 189.777889,205.002326 187.750000,204.996262C187.062500,204.994206 187.962500,204.100820 189.750000,203.010960C193.479434,200.737081 193.605715,200.326789 191.345012,197.828741C189.789237,196.109628 189.822187,196.000000 191.894672,196.000000C193.107228,196.000000 195.440188,196.693390 197.079028,197.540867C200.980533,199.558414 201.994269,198.769663 202.027058,193.690983C202.053898,189.533591 204.620227,185.690982 210.502869,181.000000C212.174911,179.666667 212.286337,179.666667 211.505701,181.000000C211.022683,181.825000 209.421309,184.075000 207.947092,186.000000C204.668777,190.280753 203.934789,192.276453 205.003020,194.004887C205.639069,195.034036 206.563753,194.733725 209.160500,192.654657C213.512944,189.169900 213.445263,189.242195 217.262802,184.000000C219.065178,181.525000 222.285776,178.643242 224.419687,177.596093C228.025327,175.826740 228.169424,175.597054 226.458633,174.346093C223.936420,172.501806 222.301723,172.650406 218.368034,175.081559C216.515615,176.226417 215.000000,176.731517 215.000000,176.204004C215.000000,172.593560 225.986440,170.408454 232.770221,172.669664C235.118842,173.452521 237.472638,173.825928 238.000878,173.499458C238.529118,173.172987 239.239437,174.645163 239.579365,176.770958C240.078606,179.893040 240.777499,180.854998 243.214998,181.775051C245.851427,182.770192 246.689297,182.603712 249.848424,180.457030C251.837139,179.105664 254.372308,177.982386 255.482135,177.960858C256.896613,177.933421 256.455556,177.468787 254.007140,176.407017C250.356910,174.824074 246.000000,171.242986 246.000000,169.825686C246.000000,167.982930 249.117037,169.162763 250.131631,171.389554C251.064280,173.436496 252.554145,174.030165 260.522722,175.530108C265.682859,176.501413 270.643259,176.938334 271.662530,176.511323C272.673138,176.087941 275.366678,175.830861 277.648174,175.940035C279.929669,176.049209 282.092231,175.659783 282.453867,175.074644C282.815503,174.489505 283.938232,173.568241 284.948820,173.027391C287.176118,171.835377 292.000000,175.150322 292.000000,177.872922C292.000000,179.482688 277.566428,192.747907 270.429385,197.697462C268.686631,198.906066 267.008509,200.859460 266.700225,202.038338C266.214159,203.897060 266.462486,204.100740 268.569855,203.571823C271.816397,202.756993 271.633309,204.019069 268.000000,207.500000C265.123895,210.255483 265.000000,210.283859 265.000000,208.187091C265.000000,206.949488 264.374422,206.000000 263.559017,206.000000C261.366868,206.000000 260.872993,207.535746 262.060611,210.659419C263.230113,213.735443 263.254192,213.705423 254.313895,220.317742C250.508715,223.132086 250.503492,223.132828 249.984252,220.933291C249.513490,218.939112 248.946546,219.290573 243.982192,224.654100C233.387050,236.101174 230.260681,240.988406 234.597766,239.324110C235.368995,239.028162 236.000000,239.122638 236.000000,239.534057C236.000000,240.935372 228.528497,250.085490 228.196799,249.090396C228.015145,248.545435 228.877087,246.732692 230.112225,245.062078C232.816673,241.404116 231.691025,239.471217 228.920049,243.014940C225.958975,246.801776 218.641682,257.975698 215.958947,262.807281C213.922798,266.474368 213.785273,267.250448 215.033665,268.028814C216.226589,268.772596 216.268590,269.274678 215.258921,270.721533C214.576327,271.699690 212.881246,274.637500 211.492075,277.250000C208.477894,282.918520 207.321952,283.522245 209.577389,278.250000C212.393744,271.666570 212.402865,271.632982 211.166764,272.396934C208.186333,274.238942 193.407660,302.174687 190.080785,312.255219C189.401046,314.314848 188.274539,316.000000 187.577435,316.000000C185.611780,316.000000 183.302210,319.119385 182.162398,323.313737C181.271050,326.593773 181.388427,327.352156 183.001148,328.733012C184.670018,330.161943 184.718087,330.564400 183.438140,332.391781C182.647163,333.521058 182.000000,335.157770 182.000000,336.028918C182.000000,338.744541 172.355708,351.453161 166.495599,356.459609C160.260175,361.786698 158.447100,361.902513 162.399013,356.721288C163.829556,354.845750 165.000000,352.967501 165.000000,352.547402C165.000000,352.127302 167.167450,349.019778 169.816557,345.641793C174.440478,339.745637 180.000000,330.904257 180.000000,329.446930C180.000000,328.330361 173.782610,329.887404 172.065617,331.433966C171.204528,332.209582 169.295618,333.144710 167.823596,333.512026C164.311070,334.388512 162.245358,336.798412 161.833664,340.500000C161.540423,343.136550 161.156451,343.463499 158.664263,343.198710C155.257857,342.836788 152.887202,344.542477 153.733050,346.746722C154.176374,347.902008 153.915566,348.181577 152.795464,347.751754C151.014829,347.068460 149.000000,348.716148 149.000000,350.855609C149.000000,351.656194 147.875000,353.786169 146.500000,355.588887C145.125000,357.391605 144.002965,359.459081 144.006589,360.183278C144.017173,362.298239 147.392875,366.733817 148.658359,366.295573C149.811166,365.896350 151.347033,367.593879 151.557616,369.500000C151.811727,371.800121 154.512991,376.982875 155.693893,377.436030C156.395472,377.705251 157.470272,376.989806 158.082337,375.846153C158.694401,374.702499 162.093025,370.106756 165.634832,365.633391C169.176640,361.160026 174.143362,354.350000 176.671992,350.500000C179.200623,346.650000 183.361725,340.800000 185.918887,337.500000C188.476050,334.200000 191.810014,329.647526 193.327698,327.383390C194.845382,325.119255 197.192520,322.228313 198.543562,320.959076C199.894603,319.689839 201.000000,318.045638 201.000000,317.305297C201.000000,314.503580 217.825598,291.140071 225.894375,282.737730C230.522305,277.918481 234.495982,274.162648 234.724768,274.391434C234.953554,274.620220 233.575755,277.663242 231.662992,281.153704C226.430577,290.701961 224.652444,297.734088 226.058524,303.318140C227.153829,307.667989 226.867680,320.450190 225.434824,331.178669C224.962949,334.711825 225.476481,338.139549 227.532264,345.178669C231.201168,357.741207 231.981552,359.040628 238.427612,363.320572C241.545685,365.390855 244.019993,367.786704 244.045393,368.760215C244.070359,369.717097 246.260056,372.880873 248.911386,375.790829C252.927212,380.198382 254.743856,381.366996 259.793084,382.790829C263.126688,383.730873 265.871936,384.950000 265.893635,385.500000C265.915334,386.050000 262.235643,387.067758 257.716544,387.761684C253.160388,388.461301 248.410257,389.827943 247.053833,390.829412C243.989103,393.092152 242.763181,397.386132 244.250162,400.649700C245.093191,402.499949 245.067979,404.608227 244.149652,409.054325C243.355206,412.900655 243.256010,415.609841 243.867770,416.752926C245.080292,419.018544 243.606470,439.308306 241.607153,447.874299C238.565726,460.905171 230.192672,476.711477 221.906356,485.064649C218.352800,488.646876 205.215202,496.556648 199.595896,498.497138C197.998638,499.048712 196.332514,500.175000 195.893397,501.000000C193.393175,505.697342 191.901449,510.031525 192.468931,510.949729C192.918488,511.677127 180.060224,512.000000 150.642350,512.000000C117.597476,512.000000 108.054679,511.722464 107.662281,510.750000C107.258772,509.750000 107.142105,509.750000 107.078947,510.750000C107.018222,511.711480 101.691228,512.000000 84.000000,512.000000L61.000000,512.000000L61.000000,509.700000zM382.137860,505.250000C376.471876,485.327487 371.000000,465.085422 371.000000,464.047809C371.000000,463.398120 372.175317,461.325636 373.611815,459.442290C376.557635,455.580121 376.302497,455.575829 389.000000,459.701115C393.125000,461.041284 399.849843,462.790922 403.944096,463.589199C412.568937,465.270827 421.387466,470.203506 420.540624,472.872532C420.256621,473.767640 419.950290,478.465422 419.859891,483.312050C419.611951,496.604928 422.294625,498.015660 431.934356,489.661625C434.575513,487.372731 438.346231,484.262884 440.313731,482.750854C444.377413,479.627899 458.000000,459.582068 458.000000,456.725255C458.000000,455.691750 459.350000,453.496154 461.000000,451.846154C463.668072,449.178081 464.801637,445.609903 463.969154,442.500000C462.860744,438.359316 463.345044,435.447380 466.380730,428.000000C475.040997,406.753962 475.233583,406.409257 481.606254,400.748287C484.964694,397.764918 489.344282,393.517802 491.338671,391.310252C493.968458,388.399393 497.153956,386.431462 502.931818,384.148262C507.313659,382.416718 511.146572,381.000000 511.449401,381.000000C511.752231,381.000000 512.000000,410.475000 512.000000,446.500000L512.000000,512.000000L495.420545,512.000000L478.841089,512.000000L479.517084,508.750000C479.888881,506.962500 480.824636,504.193363 481.596539,502.596362C483.234938,499.206657 483.268287,499.000000 482.176898,499.000000C480.564267,499.000000 471.000000,508.699380 471.000000,510.334792C471.000000,511.826480 469.131867,512.000000 453.072253,512.000000L435.144506,512.000000L435.712156,506.500000C436.024363,503.475000 435.973922,501.000000 435.600065,501.000000C435.226207,501.000000 433.250751,501.835041 431.210162,502.855646C429.169573,503.876252 426.070401,504.983422 424.323114,505.316024C421.538172,505.846146 420.892539,505.524678 419.089961,502.710377C417.957360,500.942088 417.009972,500.173794 416.980884,501.000000C416.946198,501.985202 416.144822,501.543028 414.645863,499.711612C413.110705,497.835968 411.813126,497.134480 410.681826,497.568601C409.756822,497.923558 409.000000,498.563349 409.000000,498.990357C409.000000,499.417366 408.102271,500.001499 407.005047,500.288429C404.192960,501.023806 403.446772,503.731209 405.447016,505.941453C406.882277,507.527399 406.939585,508.123877 405.827750,509.904208C404.637518,511.810073 403.591770,512.000000 394.288237,512.000000L384.057567,512.000000L382.137860,505.250000zM128.412538,502.842930C127.458324,501.004319 126.496790,500.035060 126.275795,500.689022C125.846814,501.958450 128.972205,507.361129 129.709195,506.624139C129.950248,506.383086 129.366752,504.681542 128.412538,502.842930zM158.942299,488.626776C157.765381,486.632049 156.428310,485.000000 155.971030,485.000000C154.590468,485.000000 156.864651,491.405577 158.734814,492.784611C161.291807,494.670105 161.386644,492.769634 158.942299,488.626776zM212.172261,480.706991C220.976342,474.007899 229.715428,459.046499 232.066918,446.647144C233.182954,440.762310 233.309614,428.685705 232.250000,429.190945C225.132893,432.584493 223.044801,435.483869 220.504440,445.500000C219.527976,449.350000 215.415015,459.273624 211.364526,467.552497C207.314037,475.831371 204.000000,482.918871 204.000000,483.302497C204.000000,485.048030 208.234742,483.703078 212.172261,480.706991zM160.000000,480.122445C160.000000,479.639789 159.325000,478.684689 158.500000,478.000000C157.675000,477.315311 157.000000,476.144711 157.000000,475.398668C157.000000,473.938223 146.344102,463.000000 144.921352,463.000000C143.893970,463.000000 144.820708,465.902701 146.517691,468.000000C147.185221,468.825000 148.026434,470.741641 148.387053,472.259202C149.355326,476.333903 160.000000,483.541518 160.000000,480.122445zM68.000000,475.881966C68.000000,474.781966 67.550000,474.160081 67.000000,474.500000C66.450000,474.839919 66.000000,476.018034 66.000000,477.118034C66.000000,478.218034 66.450000,478.839919 67.000000,478.500000C67.550000,478.160081 68.000000,476.981966 68.000000,475.881966zM175.474320,459.049660C177.442724,455.243186 177.430365,455.195074 174.622056,455.731916C172.771565,456.085660 171.530929,455.299027 169.028827,452.185496C167.260420,449.984950 164.955495,447.960118 163.906771,447.685871C161.355642,447.018736 161.421039,447.184923 165.750000,452.369844C167.812500,454.840159 170.308508,458.017528 171.296685,459.430663C172.284862,460.843799 173.285806,462.000000 173.521005,462.000000C173.756204,462.000000 174.635196,460.672347 175.474320,459.049660zM152.500000,455.000000C152.839919,454.450000 152.416476,454.000000 151.559017,454.000000C150.701558,454.000000 150.000000,454.450000 150.000000,455.000000C150.000000,455.550000 150.423442,456.000000 150.940983,456.000000C151.458524,456.000000 152.160081,455.550000 152.500000,455.000000zM367.488058,453.980678C367.130482,453.402107 365.528945,448.349160 363.929087,442.751905C356.508666,416.790855 345.422002,403.664740 322.496529,393.697601C318.098438,391.785476 313.529071,389.929152 312.342381,389.572438C309.260010,388.645889 308.948002,386.983234 310.559884,380.073713C312.080648,373.554782 314.554391,368.412759 321.179189,358.000000C329.277373,345.271395 342.315372,313.425524 344.466743,301.119153C345.674119,294.212662 345.568185,292.774174 343.414798,286.834694C343.082727,285.918776 341.763233,284.906407 340.482589,284.584986C339.201944,284.263565 336.740769,282.811307 335.013311,281.357747L331.872478,278.714910L335.686239,276.582117C339.065024,274.692578 339.535483,273.959053 339.811109,270.150757C340.130258,265.741104 338.814072,263.000000 336.377555,263.000000C335.565417,263.000000 335.000000,264.053108 335.000000,265.565741C335.000000,269.308596 333.483459,271.557104 329.980362,273.008134C327.218702,274.152051 326.570879,274.058854 323.982638,272.145285C320.247184,269.383544 319.643509,269.443492 320.410644,272.500000C320.873676,274.344865 320.640030,275.000000 319.519052,275.000000C316.975757,275.000000 317.271368,268.975038 320.034228,264.500000C321.820066,261.607455 323.677688,260.122717 328.990439,257.341582C330.360180,256.624546 331.485180,255.246621 331.490439,254.279528C331.497283,253.020814 333.346986,251.868234 338.000000,250.223313C348.932382,246.358528 349.037968,245.619069 342.458317,219.000000C341.574655,215.425000 339.477636,210.094899 337.798275,207.155332C334.815470,201.934205 334.788291,201.768454 336.622446,199.984568C338.741443,197.923647 353.262995,190.000000 354.921019,190.000000C355.514458,190.000000 355.995445,190.787500 355.989878,191.750000C355.984311,192.712500 356.965386,196.306425 358.170044,199.736501C359.374702,203.166577 360.118664,206.214669 359.823294,206.510040C358.683387,207.649946 356.122843,205.698951 352.937501,201.263442C347.812656,194.127222 348.244301,198.119665 353.511235,206.570115C361.230541,218.955234 364.553694,234.952472 366.479977,269.000000C368.270982,300.656441 368.554919,303.733618 371.508788,323.500000C372.823851,332.300000 374.433771,343.934006 375.086388,349.353346C376.673873,362.535854 375.696998,397.749956 373.154319,419.000000C372.068448,428.075000 370.855697,439.672288 370.459318,444.771751C369.771468,453.621021 368.912028,456.284710 367.488058,453.980678zM157.363830,452.505744C157.048460,451.683903 156.387584,451.260460 155.895215,451.564761C154.483292,452.437377 154.851226,454.000000 156.468615,454.000000C157.360699,454.000000 157.712132,453.413403 157.363830,452.505744zM159.000000,446.000000C160.100000,444.900000 161.000000,442.875000 161.000000,441.500000C161.000000,438.454212 162.710820,438.306816 167.215295,440.964521C169.046583,442.045007 173.234805,443.192649 176.522455,443.514835C182.330123,444.083981 182.411049,444.059377 179.370048,442.649065C177.648574,441.850705 175.990767,440.794077 175.686031,440.301005C174.780343,438.835570 176.326368,437.225995 179.000000,436.850815C180.399638,436.654410 181.500000,435.839783 181.500000,435.000000C181.500000,434.081900 180.768250,433.626129 179.613721,433.825132C178.049067,434.094826 177.856661,433.753812 178.485289,431.825132C181.020412,424.047186 179.389891,414.859758 173.789969,405.368598C170.808996,400.316224 170.457694,401.992626 173.311767,407.650566C176.587335,414.144082 177.507745,419.928267 175.665848,422.444442C174.761933,423.679260 174.426016,425.757300 174.745401,428.138490C175.369990,432.795149 172.550132,437.165204 168.652612,437.580747C165.938599,437.870107 163.009129,434.730426 164.901744,433.560726C165.400677,433.252368 165.788862,429.799902 165.764377,425.888580C165.725220,419.633787 165.315096,418.104912 162.359929,413.197371C159.420461,408.315902 157.947918,403.000000 159.535183,403.000000C159.829534,403.000000 161.237491,403.764729 162.663976,404.699398L165.257586,406.398797L163.682345,403.352617C162.058717,400.212866 162.413867,396.000000 164.302180,396.000000C164.890085,396.000000 166.412601,396.978441 167.685549,398.174314C169.069586,399.474549 170.000000,399.840727 170.000000,399.085200C170.000000,398.390315 166.777472,394.681294 162.838827,390.842930C157.044097,385.195741 155.239009,383.974181 153.378833,384.441055C150.835646,385.079354 148.736143,382.444183 148.324052,378.096595C147.954427,374.197021 147.184241,373.000000 145.044805,373.000000C142.679405,373.000000 139.624208,366.759378 140.554557,363.828108C141.081198,362.168807 140.876934,362.098950 138.570825,363.149684C135.451055,364.571146 135.343656,365.647940 138.099106,367.879168C139.532010,369.039463 140.365793,371.153271 140.726234,374.539461C141.016645,377.267757 141.882897,380.222422 142.651238,381.105382C143.419578,381.988342 143.759949,383.461989 143.407616,384.380152C142.622533,386.426046 147.597222,394.304518 149.306805,393.722765C149.963062,393.499448 150.500000,392.007968 150.500000,390.408367C150.500000,388.049980 150.878205,387.566197 152.500000,387.850061C155.732308,388.415814 157.487063,389.673051 159.006204,392.511592C160.283147,394.897583 160.252082,395.279423 158.710852,396.141939C157.519593,396.808601 157.170556,397.831369 157.578974,399.458635C158.037190,401.284311 157.679870,401.966830 155.984081,402.505052C154.769015,402.890700 153.310558,402.710558 152.699337,402.099337C150.950969,400.350969 149.719927,400.820997 150.294349,403.017591C150.584536,404.127266 150.193611,405.663532 149.425627,406.431516C148.230516,407.626627 148.242456,408.236549 149.508486,410.663925C150.322042,412.223766 150.990451,414.512500 150.993839,415.750000C150.998855,417.581964 151.557381,418.000000 154.000000,418.000000C157.011359,418.000000 158.182592,420.151084 155.929441,421.543608C155.270642,421.950768 155.113398,423.711723 155.520613,426.122006C156.563170,432.292848 155.149082,440.148253 152.889305,440.739198C150.944970,441.247653 150.551871,442.668620 151.599961,445.399899C152.059599,446.597697 152.644316,446.725540 154.099961,445.946502C155.583156,445.152721 156.000000,445.266432 156.000000,446.464816C156.000000,448.494398 156.598303,448.401697 159.000000,446.000000zM193.000000,446.000000C193.000000,445.450000 192.550000,445.000000 192.000000,445.000000C191.450000,445.000000 191.000000,445.450000 191.000000,446.000000C191.000000,446.550000 191.450000,447.000000 192.000000,447.000000C192.550000,447.000000 193.000000,446.550000 193.000000,446.000000zM481.812500,439.062500C482.062500,438.312500 481.687500,437.937500 480.937500,438.187500C480.215625,438.428125 479.428125,439.215625 479.187500,439.937500C478.937500,440.687500 479.312500,441.062500 480.062500,440.812500C480.784375,440.571875 481.571875,439.784375 481.812500,439.062500zM168.600000,433.400000C168.244108,432.472559 167.727923,431.938744 167.452923,432.213744C167.177923,432.488744 167.244108,433.472559 167.600000,434.400000C167.955892,435.327441 168.472077,435.861256 168.747077,435.586256C169.022077,435.311256 168.955892,434.327441 168.600000,433.400000zM105.239363,431.156074C106.411356,426.633206 105.561180,424.775966 104.023510,428.500000C103.342218,430.150000 102.355460,432.325842 101.830714,433.335203C101.063663,434.810647 101.219397,435.104396 102.625144,434.833674C103.635023,434.639189 104.739362,433.085640 105.239363,431.156074zM485.835203,432.605449C486.125480,431.108342 485.899600,431.045753 484.149887,432.138467C483.038601,432.832477 482.366498,433.783988 482.656324,434.252938C483.469123,435.568073 485.460924,434.535801 485.835203,432.605449zM232.000000,421.522770C232.000000,418.557587 231.045241,416.000000 229.938324,416.000000C228.381505,416.000000 227.610929,423.141507 229.070420,424.043522C230.939470,425.198659 232.000000,424.286128 232.000000,421.522770zM158.000000,422.000000C158.000000,421.450000 158.450000,421.000000 159.000000,421.000000C159.550000,421.000000 160.000000,421.450000 160.000000,422.000000C160.000000,422.550000 159.550000,423.000000 159.000000,423.000000C158.450000,423.000000 158.000000,422.550000 158.000000,422.000000zM171.494084,413.768334C170.087338,411.251392 168.199788,408.586359 167.299528,407.846038C164.153116,405.258614 166.692698,412.730318 170.225193,416.453636C174.323376,420.773200 174.820811,419.720497 171.494084,413.768334zM159.000000,414.500000C159.000000,413.675000 159.450000,413.000000 160.000000,413.000000C160.550000,413.000000 161.000000,413.675000 161.000000,414.500000C161.000000,415.325000 160.550000,416.000000 160.000000,416.000000C159.450000,416.000000 159.000000,415.325000 159.000000,414.500000zM428.430362,411.985917C427.322616,410.878172 424.860116,409.075390 422.958139,407.979735C416.399427,404.201516 397.188143,394.999985 395.845723,394.993839C395.105576,394.990451 393.216696,394.318374 391.648212,393.500334C390.053578,392.668656 387.739221,392.278331 386.398212,392.614903C384.502165,393.090781 384.000000,392.821869 384.000000,391.330649C384.000000,390.293257 384.962088,388.620717 386.137973,387.613892C388.216027,385.834607 388.396277,385.843400 392.569563,387.927640C394.971276,389.127113 400.378831,390.472944 404.841837,390.981961C409.230098,391.482453 415.223382,392.552750 418.160246,393.360398C425.497360,395.378132 436.249181,396.235959 439.363089,395.052054C440.993003,394.432361 442.165411,393.044308 442.544589,391.285370C442.874836,389.753416 443.787852,386.925000 444.573515,385.000000C445.787448,382.025670 447.915833,370.311255 447.980191,366.250000C447.991086,365.562500 448.450000,365.000000 449.000000,365.000000C450.539769,365.000000 450.185633,375.289023 448.371305,383.266015C447.255391,388.172314 446.927806,392.642252 447.330830,397.463421C447.809300,403.187096 447.552632,405.315153 445.955204,408.868858C444.297940,412.555675 443.757859,413.043930 442.495678,411.996413C441.673055,411.313697 441.000000,409.492354 441.000000,407.948984C441.000000,405.003072 438.462337,401.596226 436.959739,402.524882C436.476278,402.823678 435.305377,405.527814 434.357737,408.534074C432.483209,414.480760 431.498598,415.054154 428.430362,411.985917zM123.750284,400.608161C121.618426,398.989842 117.000000,392.314845 117.000000,390.851999C117.000000,390.269448 118.622256,391.217176 120.605014,392.958060C122.587772,394.698945 124.401957,395.931377 124.636535,395.696798C124.871114,395.462220 123.473857,392.857238 121.531521,389.907950C119.589184,386.958661 118.000000,384.156324 118.000000,383.680533C118.000000,383.204742 117.042119,381.619480 115.871375,380.157729L113.742749,377.500000L114.233707,384.692036C114.618193,390.324361 115.242470,392.517073 117.112333,394.802925C118.425550,396.408295 120.161842,398.684379 120.970759,399.860890C121.779677,401.037400 123.129677,401.985688 123.970759,401.968197C125.237610,401.941850 125.199780,401.708493 123.750284,400.608161zM139.667837,393.289477C142.393109,388.273833 140.379709,388.172334 135.727422,393.090834C131.896588,397.140876 131.639104,397.723117 132.982774,399.297213C134.378679,400.932502 134.566838,400.901447 136.194467,398.767134C137.145372,397.520210 138.708389,395.055265 139.667837,393.289477zM79.000000,388.500000C79.000000,387.675000 78.550000,387.000000 78.000000,387.000000C77.450000,387.000000 77.000000,387.675000 77.000000,388.500000C77.000000,389.325000 77.450000,390.000000 78.000000,390.000000C78.550000,390.000000 79.000000,389.325000 79.000000,388.500000zM134.000000,387.559017C134.000000,387.316476 133.550000,386.839919 133.000000,386.500000C132.450000,386.160081 132.000000,386.358524 132.000000,386.940983C132.000000,387.523442 132.450000,388.000000 133.000000,388.000000C133.550000,388.000000 134.000000,387.801558 134.000000,387.559017zM142.000000,382.759453C142.000000,382.341754 141.340833,382.000000 140.535184,382.000000C139.729535,382.000000 138.588702,381.100000 138.000000,380.000000C136.723517,377.614870 134.450064,377.384768 133.616747,379.556359C133.246566,380.521035 134.045640,381.995353 135.718624,383.434394C137.890132,385.302246 138.767850,385.537418 140.208866,384.637488C141.193990,384.022268 142.000000,383.177152 142.000000,382.759453zM132.304102,377.945112C132.698368,376.437438 132.221497,375.654512 130.513360,375.005080C129.005609,374.431833 127.930188,372.958635 127.461400,370.824255C126.812775,367.871083 124.617803,365.117766 122.843601,365.031803C121.743864,364.978520 124.257974,372.266521 126.713493,376.250000C129.276869,380.408452 131.484853,381.077928 132.304102,377.945112zM117.136517,371.425718C118.746060,369.651687 118.854402,368.880785 117.885000,366.099954C117.045846,363.692758 117.043448,362.556552 117.875764,361.724236C119.076476,360.523524 119.398818,354.202879 118.393011,351.581787C117.272237,348.661098 116.262697,349.962036 115.564272,355.227028C115.182907,358.101894 114.382022,362.281848 113.784526,364.515817C112.747974,368.391370 113.663747,378.280499 114.755404,375.000000C115.029941,374.175000 116.101441,372.566573 117.136517,371.425718zM91.692991,363.269032C91.439447,362.296064 91.215328,362.850000 91.194949,364.500000C91.174569,366.150000 91.382014,366.946064 91.655937,366.269032C91.929860,365.591999 91.946534,364.241999 91.692991,363.269032zM269.500000,352.286934C266.619612,351.594109 265.400502,350.199498 266.614247,348.985753C267.299910,348.300090 269.988119,348.504377 274.911989,349.616328C279.769398,350.713270 281.746560,351.545649 280.847742,352.115262C279.434936,353.010608 272.918497,353.109191 269.500000,352.286934zM290.250000,352.250463C288.462500,352.043014 287.000000,351.451794 287.000000,350.936642C287.000000,349.675328 297.647436,349.372558 298.916667,350.597781C300.113717,351.753325 294.761220,352.774015 290.250000,352.250463zM308.708849,351.375516C307.223075,349.889741 308.112429,349.000000 311.083333,349.000000C313.102886,349.000000 314.024639,349.431262 313.755005,350.250000C313.288061,351.667866 309.782986,352.449652 308.708849,351.375516zM316.500000,349.000000C316.839919,348.450000 317.793034,348.000000 318.618034,348.000000C319.443034,348.000000 319.839919,348.450000 319.500000,349.000000C319.160081,349.550000 318.206966,350.000000 317.381966,350.000000C316.556966,350.000000 316.160081,349.550000 316.500000,349.000000zM144.000000,345.700000C144.000000,344.435000 144.532500,342.867500 145.183333,342.216667C147.003617,340.396383 145.656296,339.880735 142.684952,341.260484C139.728682,342.633233 139.521352,343.237121 141.035184,346.065741C142.442884,348.696053 144.000000,348.503966 144.000000,345.700000zM379.723448,332.286276C379.416056,324.703824 378.705969,316.025000 378.145476,313.000000C377.217854,307.993583 376.339881,302.354387 373.007672,280.000000C372.392787,275.875000 371.658463,267.775000 371.375840,262.000000C371.093217,256.225000 370.227117,247.450000 369.451173,242.500000C367.761996,231.724182 367.406869,222.357896 368.420837,215.325432C369.139093,210.343904 369.434277,209.952319 376.333463,204.828675C384.454233,198.797830 401.731622,181.788347 404.831667,176.772369C408.320931,171.126621 415.909837,148.276682 417.611840,138.291703C418.931263,130.551167 419.012557,127.865576 418.054878,123.655818C417.409783,120.820118 416.648420,117.371255 416.362961,115.991678C415.625545,112.427875 437.703556,79.227665 446.116852,71.248723C452.707091,64.998719 455.000000,61.474474 455.000000,57.595154C455.000000,54.818272 455.347916,54.444185 484.132186,26.271562C494.375491,16.245921 503.823692,7.643510 505.128188,7.155092C506.432685,6.666675 508.512500,5.951648 509.750000,5.566143L512.000000,4.865225L511.985996,39.182612L511.971992,73.500000L504.005441,82.500000C480.999330,108.490545 473.269631,118.678445 461.517474,138.500000C457.278254,145.650000 452.071485,154.425000 449.946875,158.000000C444.343829,167.428034 433.708155,190.110106 430.142734,200.235120C428.450943,205.039436 426.392900,210.273321 425.569306,211.865977C421.943816,218.876901 412.851941,242.744929 408.567191,256.500000C405.997289,264.750000 403.006517,274.200000 401.921031,277.500000C399.796583,283.958562 384.282859,337.588468 383.139865,342.425235C382.759665,344.034114 381.961186,345.512938 381.365468,345.711511C380.640199,345.953267 380.097689,341.517680 379.723448,332.286276zM139.000000,344.059017C139.000000,343.541476 138.528149,342.826414 137.951442,342.469989C137.238005,342.029061 137.287497,341.358514 138.106295,340.371922C139.055675,339.227989 138.909788,337.670282 137.415190,332.992676C135.780358,327.876185 135.407004,327.367517 134.691418,329.281726C133.903221,331.390169 133.795841,331.410091 132.522651,329.684099C131.387332,328.145011 129.455748,321.162973 127.382835,311.105355C127.020974,309.349635 126.592902,309.007098 125.778450,309.821550C124.106140,311.493860 126.703621,324.390370 130.015448,330.858278C131.599835,333.952542 132.969548,335.644203 133.255170,334.859489C133.656866,333.755876 134.004083,333.739966 135.099959,334.774959C136.188328,335.802861 136.209530,336.434843 135.209371,338.036352C134.191315,339.666518 134.261271,340.469116 135.599421,342.511392C137.237445,345.011333 139.000000,345.813483 139.000000,344.059017zM151.000000,331.200000C151.000000,329.345207 149.213175,327.000000 147.800000,327.000000C146.834964,327.000000 146.725168,331.391835 147.666667,332.333333C148.983488,333.650155 151.000000,332.964541 151.000000,331.200000zM303.671034,326.337700C303.306769,325.973435 301.009914,325.751005 298.566913,325.843411C293.681686,326.028192 291.952399,324.619030 294.247678,322.323750C295.505981,321.065447 296.399572,321.030584 300.116002,322.094795C304.819141,323.441553 307.000000,324.717517 307.000000,326.122445C307.000000,327.148765 304.635021,327.301688 303.671034,326.337700zM165.000000,323.940983C165.000000,323.423442 164.550000,323.000000 164.000000,323.000000C163.450000,323.000000 163.000000,323.701558 163.000000,324.559017C163.000000,325.416476 163.450000,325.839919 164.000000,325.500000C164.550000,325.160081 165.000000,324.458524 165.000000,323.940983zM112.000000,322.881966C112.000000,322.331966 111.550000,322.160081 111.000000,322.500000C110.450000,322.839919 110.000000,323.568034 110.000000,324.118034C110.000000,324.668034 110.450000,324.839919 111.000000,324.500000C111.550000,324.160081 112.000000,323.431966 112.000000,322.881966zM165.711002,315.045312C164.857441,312.783971 164.291174,312.343384 163.297866,313.167757C160.821332,315.223097 162.041532,317.675238 165.663136,317.921053C166.536985,317.980365 166.548890,317.265132 165.711002,315.045312zM190.693853,317.360520C189.894922,316.561589 190.798039,315.000000 192.059017,315.000000C192.576558,315.000000 193.000000,315.675000 193.000000,316.500000C193.000000,318.046410 191.820037,318.486704 190.693853,317.360520zM174.645266,311.482040C175.411895,309.484237 173.106456,304.000000 171.500000,304.000000C170.808452,304.000000 169.676150,305.367631 168.983771,307.039179C167.872927,309.720996 167.946850,310.246390 169.612451,311.507376C172.080320,313.375739 173.922143,313.366467 174.645266,311.482040zM100.418213,308.393011C102.124986,307.738061 102.622864,305.000000 101.035184,305.000000C100.504535,305.000000 99.588702,305.900000 99.000000,307.000000C97.843038,309.161804 98.003652,309.319565 100.418213,308.393011zM124.418213,308.393011C125.911276,307.820069 126.730445,304.000000 125.360243,304.000000C124.584435,304.000000 122.076214,307.202684 122.031803,308.250000C121.993285,309.158348 122.365630,309.180661 124.418213,308.393011zM182.000000,306.870389C182.000000,306.314022 180.243249,303.753080 178.096108,301.179406C175.948968,298.605733 174.030305,295.600000 173.832413,294.500000C173.634521,293.400000 172.803773,292.500000 171.986305,292.500000C168.826717,292.500000 170.902117,298.631639 175.803744,303.778388C180.191536,308.385605 182.000000,309.288049 182.000000,306.870389zM195.545007,306.750000C195.918887,305.512500 196.636440,304.060272 197.139568,303.522826C197.642697,302.985381 197.548098,303.997881 196.929349,305.772826C195.662986,309.405515 194.493246,310.231207 195.545007,306.750000zM124.292927,300.012151C123.963207,298.751303 124.363168,297.797870 125.386546,297.405163C126.273946,297.064636 127.000000,296.368335 127.000000,295.857827C127.000000,295.334292 126.128073,295.396274 125.000000,296.000000C123.055836,297.040485 122.319432,299.986099 123.666667,301.333333C124.725915,302.392582 124.848046,302.134930 124.292927,300.012151zM130.500000,294.000000C130.839919,293.450000 130.668034,293.000000 130.118034,293.000000C129.568034,293.000000 128.839919,293.450000 128.500000,294.000000C128.160081,294.550000 128.331966,295.000000 128.881966,295.000000C129.431966,295.000000 130.160081,294.550000 130.500000,294.000000zM202.000000,293.057160C202.000000,291.796655 206.147372,284.814039 206.617075,285.283741C207.069101,285.735768 203.143411,294.000000 202.476661,294.000000C202.214497,294.000000 202.000000,293.575722 202.000000,293.057160zM167.800000,289.800000C169.989644,287.610356 169.042786,286.926514 166.000000,288.500000C164.350000,289.353248 163.000000,290.264804 163.000000,290.525680C163.000000,291.504336 166.647035,290.952965 167.800000,289.800000zM93.812500,288.316886C94.534375,288.028015 95.396875,288.063542 95.729167,288.395833C96.061458,288.728125 95.470833,288.964474 94.416667,288.921053C93.251724,288.873069 93.014767,288.636112 93.812500,288.316886zM160.000000,287.000000C160.000000,286.450000 159.298442,286.000000 158.440983,286.000000C157.583524,286.000000 157.160081,286.450000 157.500000,287.000000C157.839919,287.550000 158.541476,288.000000 159.059017,288.000000C159.576558,288.000000 160.000000,287.550000 160.000000,287.000000zM135.081787,283.000000C135.586804,283.000000 136.000000,282.497516 136.000000,281.883369C136.000000,281.269221 135.129112,280.994480 134.064692,281.272832C133.000273,281.551183 131.150199,281.093078 129.953417,280.254819L127.777450,278.730712L129.536644,281.415583C130.585289,283.016017 131.874988,283.878213 132.729707,283.550227C133.518334,283.247602 134.576771,283.000000 135.081787,283.000000zM168.796866,281.110804C169.077629,280.267663 168.815398,279.996056 168.129732,280.419821C166.213793,281.603937 164.878843,280.094902 165.995878,278.007702C166.598551,276.881598 166.671680,274.616671 166.179574,272.318390C165.364474,268.511635 165.359752,268.519083 164.629887,274.762802C164.227234,278.207343 164.187744,281.494759 164.542132,282.068171C165.409572,283.471718 168.221372,282.839029 168.796866,281.110804zM264.000000,278.000000C264.000000,277.450000 264.450000,277.000000 265.000000,277.000000C265.550000,277.000000 266.000000,277.450000 266.000000,278.000000C266.000000,278.550000 265.550000,279.000000 265.000000,279.000000C264.450000,279.000000 264.000000,278.550000 264.000000,278.000000zM160.683114,275.812500C160.363888,275.014767 160.126931,275.251724 160.078947,276.416667C160.035526,277.470833 160.271875,278.061458 160.604167,277.729167C160.936458,277.396875 160.971985,276.534375 160.683114,275.812500zM252.326725,273.682803C250.772026,272.408344 248.078849,270.795877 246.341887,270.099543C243.602927,269.001516 242.811724,269.076796 240.380563,270.666740C237.045465,272.847846 237.449380,271.939136 243.183345,264.361153C245.321947,261.534787 248.743076,258.093442 250.785856,256.713719C254.004664,254.539690 255.266645,254.274634 260.248482,254.726271C264.097901,255.075246 266.499202,254.830589 267.517240,253.985692C268.754872,252.958548 269.359426,253.015301 270.769004,254.290951C272.220143,255.604214 273.107625,255.667898 276.250246,254.684273C278.312611,254.038763 280.000000,253.207432 280.000000,252.836869C280.000000,250.914664 272.304380,247.615385 267.820806,247.615385C262.400745,247.615385 261.743239,246.722358 265.654467,244.673059C267.848205,243.523643 268.933001,243.502975 271.904467,244.553978C273.882010,245.253432 277.983091,246.323834 281.017979,246.932649C288.069473,248.347216 293.000000,251.296043 293.000000,254.098801C293.000000,255.897618 292.532753,256.158421 289.981019,255.783906C286.052546,255.207329 284.083765,257.317065 286.262402,259.768758C288.223420,261.975555 291.203209,269.130124 290.467648,269.865685C290.160415,270.172918 289.029508,269.875012 287.954522,269.203671C286.339506,268.195077 286.000000,268.245079 286.000000,269.491526C286.000000,271.853180 285.050529,271.331933 280.550822,266.500000C275.530797,261.109332 272.000000,260.433647 272.000000,264.863636C272.000000,268.184297 267.737261,273.000000 264.797895,273.000000C263.736737,273.000000 261.998101,272.534167 260.934259,271.964816C259.258340,271.067892 259.000000,271.268232 259.000000,273.464816C259.000000,276.749099 256.179655,276.841227 252.326725,273.682803zM346.500000,253.000000C346.839919,252.450000 346.443034,252.000000 345.618034,252.000000C344.793034,252.000000 343.839919,252.450000 343.500000,253.000000C343.160081,253.550000 343.556966,254.000000 344.381966,254.000000C345.206966,254.000000 346.160081,253.550000 346.500000,253.000000zM134.640159,241.306826C133.766318,240.432985 135.960524,238.000000 137.622445,238.000000C138.380100,238.000000 139.000000,238.434167 139.000000,238.964816C139.000000,240.214520 135.453145,242.119812 134.640159,241.306826zM124.083333,238.640676C125.277760,237.610631 130.000000,237.084085 130.000000,237.980948C130.000000,238.541427 128.575000,239.000000 126.833333,239.000000C125.091667,239.000000 123.854167,238.838304 124.083333,238.640676zM145.000000,232.122445C145.000000,230.902494 145.637821,230.000000 146.500000,230.000000C147.325000,230.000000 148.000000,230.394900 148.000000,230.877555C148.000000,231.360211 147.325000,232.315311 146.500000,233.000000C145.246798,234.040066 145.000000,233.895680 145.000000,232.122445zM230.000000,231.559017C230.000000,231.316476 229.550000,230.839919 229.000000,230.500000C228.450000,230.160081 228.000000,230.358524 228.000000,230.940983C228.000000,231.523442 228.450000,232.000000 229.000000,232.000000C229.550000,232.000000 230.000000,231.801558 230.000000,231.559017zM149.000000,227.067388C149.000000,224.384414 145.033848,223.233225 143.415488,225.446464C142.274028,227.007504 142.129137,226.982235 141.537767,225.118994C141.182589,223.999927 141.599977,221.740453 142.474155,220.049979C144.117091,216.872890 146.000000,215.988019 146.000000,218.393011C146.000000,219.905343 148.676913,221.317713 149.996983,220.501864C150.446058,220.224321 150.569229,221.010361 150.270697,222.248620C149.842712,224.023830 149.993960,224.252151 150.985811,223.328145C151.677656,222.683625 152.809697,222.373479 153.501459,222.638933C154.193220,222.904387 155.708488,221.856722 156.868720,220.310788C160.278912,215.766930 161.025613,215.000000 162.039427,215.000000C164.384101,215.000000 162.652043,218.201890 159.000000,220.618698C156.800000,222.074589 155.000000,223.811229 155.000000,224.477899C155.000000,225.971512 151.766153,229.000000 150.171259,229.000000C149.527067,229.000000 149.000000,228.130324 149.000000,227.067388zM153.000000,213.056704C153.000000,211.987891 154.012500,210.400590 155.250000,209.529368C157.199209,208.157090 157.541874,208.142503 157.813231,209.420256C158.263070,211.538436 156.185779,215.000000 154.464816,215.000000C153.659167,215.000000 153.000000,214.125517 153.000000,213.056704zM167.035714,211.607323C167.841071,210.841351 169.625000,209.917566 171.000000,209.554467L173.500000,208.894288L171.139216,210.947144C168.364510,213.359933 164.547290,213.974055 167.035714,211.607323zM159.000000,205.344391C159.000000,203.249466 169.730253,191.396920 170.725660,192.392327C171.364376,193.031043 167.123228,199.000000 166.030682,199.000000C165.572460,199.000000 164.268279,200.575000 163.132501,202.500000C161.309802,205.589245 159.000000,207.179077 159.000000,205.344391zM145.983685,202.750000C145.962580,201.132943 154.244926,185.000000 155.096197,185.000000C155.452217,185.000000 158.801097,182.074880 162.538154,178.499734C166.275210,174.924588 169.512694,172.179360 169.732562,172.399229C170.107381,172.774048 154.474815,193.915886 153.021241,195.000000C152.652523,195.275000 151.289041,197.412500 149.991281,199.750000C147.660336,203.948454 146.015399,205.179819 145.983685,202.750000zM360.200000,190.800000C357.161648,187.761648 359.454138,185.957508 372.191637,181.362837C376.176453,179.925434 381.239626,177.611275 383.443134,176.220262C387.071453,173.929804 397.371353,169.000000 398.528513,169.000000C400.242310,169.000000 398.280873,172.625664 394.081154,177.220827C385.360608,186.762494 364.516550,195.116550 360.200000,190.800000zM223.187500,184.812500C224.680985,183.319015 224.979891,182.493297 224.129636,182.209879C222.818683,181.772894 219.000000,184.709773 219.000000,186.154988C219.000000,187.672116 220.954478,187.045522 223.187500,184.812500zM151.000000,183.341825C150.175000,183.066670 148.876246,182.642814 148.113881,182.399923C147.004539,182.046484 147.085407,181.563108 148.518868,179.979151C150.896953,177.351397 151.359384,177.464467 152.693898,181.000000C153.840273,184.037092 153.693409,184.240132 151.000000,183.341825zM231.500000,183.000000C231.839919,182.450000 231.443034,182.000000 230.618034,182.000000C229.793034,182.000000 228.839919,182.450000 228.500000,183.000000C228.160081,183.550000 228.556966,184.000000 229.381966,184.000000C230.206966,184.000000 231.160081,183.550000 231.500000,183.000000zM148.828950,171.750000C148.734872,170.512500 148.608562,168.744484 148.548261,167.821076C148.487959,166.897669 147.622539,165.240392 146.625104,164.138239C145.293416,162.666740 144.990571,161.319417 145.485249,159.067162C146.015149,156.654543 145.821849,156.000000 144.579455,156.000000C143.606210,156.000000 143.000000,155.132800 143.000000,153.740547C143.000000,151.647848 139.807007,148.618802 137.513475,148.535731C134.873342,148.440107 133.549698,142.266476 133.432158,129.500000C133.301914,115.353670 134.485181,108.187097 137.850045,102.742632C141.121736,97.448925 143.486324,97.338004 146.242640,102.348940C147.929572,105.415754 149.240872,106.582649 151.262986,106.816422C153.464743,107.070964 154.000000,106.728730 154.000000,105.066422C154.000000,103.929890 153.409626,103.000000 152.688058,103.000000C151.966491,103.000000 150.412408,101.696514 149.234541,100.103364C148.056675,98.510214 146.284548,97.272714 145.296483,97.353364C144.071202,97.453376 143.411761,96.705111 143.222480,95.000000C142.822248,91.394576 158.595636,76.019583 165.272294,73.507106C167.897056,72.519388 170.288249,71.954916 170.586056,72.252722C171.443982,73.110649 165.693135,80.869975 163.692716,81.553555C162.698710,81.893226 161.436714,83.145132 160.888281,84.335569C160.339847,85.526006 159.038038,88.075000 157.995371,90.000000C155.815634,94.024290 156.275846,99.907235 158.890934,101.448088C160.253101,102.250700 160.116394,102.491265 158.000000,103.015875L155.500000,103.635573L158.840927,105.390487C162.011005,107.055658 162.279793,107.056766 164.097057,105.412164C166.162971,103.542538 167.582701,104.039122 166.705684,106.324592C166.077983,107.960354 160.661509,109.279937 160.166667,107.917654C159.661580,106.527168 155.016634,106.819440 154.884846,108.250000C154.821511,108.937500 154.843514,110.250416 154.933743,111.167591C155.039415,112.241750 153.834879,113.291857 151.548897,114.118479C147.905311,115.436017 147.180130,116.780130 149.085098,118.685098C149.865229,119.465229 149.724704,120.631684 148.585098,122.835438C147.713294,124.521321 147.000000,126.105898 147.000000,126.356720C147.000000,127.491775 151.196293,125.557840 152.370286,123.881730C153.090293,122.853776 153.976527,122.309860 154.339695,122.673028C155.851439,124.184772 154.803398,127.292310 151.881866,129.960717C147.863109,133.631285 148.802756,135.378069 154.296713,134.449871L158.388177,133.758622L156.694088,136.344128C154.326166,139.958034 154.524456,140.311794 158.500000,139.565978C162.432750,138.828190 162.954705,139.826029 160.023581,142.478659C158.936551,143.462408 158.284923,144.651998 158.575519,145.122192C158.866115,145.592387 158.399773,145.706902 157.539203,145.376670C155.718908,144.678157 153.000000,146.622323 153.000000,148.622445C153.000000,149.486395 154.118514,150.000000 156.000000,150.000000C159.510753,150.000000 159.459226,149.811809 157.374820,155.021251C156.480972,157.255199 155.965639,159.298972 156.229637,159.562970C157.248438,160.581771 161.165129,158.302259 162.304136,156.027614C162.961861,154.714110 164.731670,153.311031 166.237045,152.909660C168.585876,152.283404 168.847335,152.415353 168.080424,153.839948C167.588908,154.752977 164.626635,157.939721 161.497595,160.921603C158.368556,163.903485 154.720890,168.065985 153.391672,170.171603C150.655927,174.505303 149.079863,175.050516 148.828950,171.750000zM171.518630,148.812048C171.804624,148.066758 173.028026,146.839081 174.237300,146.083877C176.384297,144.743055 176.399461,144.765779 174.882408,147.050583C173.155563,149.651350 170.703909,150.935175 171.518630,148.812048zM187.078653,132.223162C190.610394,128.495901 194.979430,124.430666 196.787623,123.189306C198.595815,121.947947 200.508664,119.792310 201.038399,118.399003C201.780441,116.447285 202.469725,116.014309 204.040892,116.512979C205.528754,116.985208 207.151841,116.192105 210.042997,113.580120C212.222517,111.611054 214.566965,110.013191 215.252881,110.029313C216.526397,110.059247 214.201865,112.223249 204.806952,119.753849C201.888129,122.093466 195.939233,127.380966 191.587185,131.503849C181.671063,140.897818 178.358220,141.426365 187.078653,132.223162zM116.824513,131.504363C117.002996,129.315911 117.633569,126.941522 118.225788,126.227942C119.027935,125.261414 118.732631,124.399564 117.067903,122.848634C115.838847,121.703595 114.478720,121.156727 114.045399,121.633372C112.997275,122.786289 111.874644,134.541311 112.730889,135.397556C114.513205,137.179872 116.517065,135.274125 116.824513,131.504363zM362.703273,133.369940C362.400356,133.067023 362.859064,130.947365 363.722624,128.659591C364.990055,125.301866 365.278995,120.125952 365.221471,101.810113C365.142508,76.667990 365.395740,75.579683 370.678165,78.359080C372.403634,79.266952 375.408860,83.079523 378.413038,88.171907C386.780897,102.356269 391.202518,109.013954 392.877614,109.951385C394.293944,110.744004 394.187716,111.176473 391.993705,113.549882C389.436354,116.316342 379.002300,124.845073 373.308006,128.823457C369.376551,131.570214 363.446073,134.112740 362.703273,133.369940zM330.577077,122.281288C328.609685,119.135996 327.000000,116.084885 327.000000,115.501040C327.000000,112.971368 318.017490,100.793752 313.745449,97.531806C311.173371,95.567879 306.100404,89.700928 302.461907,84.482247C297.703918,77.657883 295.101550,74.819570 293.175693,74.354092C291.704062,73.998400 288.700000,72.081358 286.500000,70.093999C284.300000,68.106641 281.150000,65.486736 279.500000,64.271990C276.866326,62.333053 276.751892,62.059492 278.562847,62.031680C279.697412,62.014256 282.957706,63.125000 285.807944,64.500000C288.658181,65.875000 292.229900,67.005420 293.745097,67.012045C295.260294,67.018670 298.415426,68.119242 300.756501,69.457759C304.259687,71.460717 305.517418,71.715588 307.863127,70.897869C309.430696,70.351412 311.303811,68.800841 312.025606,67.452155C312.747400,66.103470 313.711919,65.000000 314.168980,65.000000C314.626041,65.000000 315.000000,64.200128 315.000000,63.222506C315.000000,62.244885 315.637815,60.534404 316.417367,59.421437C317.196919,58.308471 318.147933,55.728373 318.530730,53.687886C318.913528,51.647399 319.625713,49.731322 320.113363,49.429938C320.601013,49.128553 321.000000,47.810081 321.000000,46.500000C321.000000,45.189919 321.450000,43.839919 322.000000,43.500000C323.635092,42.489457 323.150433,40.454366 320.625971,37.730426C319.094315,36.077742 318.190948,33.808251 318.080043,31.334403C317.617798,21.023505 317.657463,19.375127 318.406927,17.750000C319.033988,16.390287 318.757236,16.000000 317.166006,16.000000C314.409140,16.000000 314.141647,15.373820 313.375064,7.125690L312.712801,0.000000L317.356401,0.000000C321.569700,0.000000 322.000000,0.218732 322.000000,2.360453C322.000000,3.658702 323.027418,6.246202 324.283150,8.110453C325.538883,9.974704 327.553006,13.808139 328.758980,16.629198C330.624838,20.993881 330.838246,22.707973 330.190750,28.129198C329.772249,31.633139 329.576059,36.075000 329.754772,38.000000C330.681926,47.986789 331.995734,71.490747 332.485714,86.856373C332.790117,96.402378 333.701728,109.227378 334.511517,115.356373C336.261442,128.600913 336.234563,128.000000 335.077077,128.000000C334.569469,128.000000 332.544469,125.426579 330.577077,122.281288zM154.000000,115.500000C156.608414,112.723470 159.764922,112.223823 160.619998,114.452113C161.605490,117.020264 160.140279,118.021038 157.293702,116.724051C155.222650,115.780416 154.570505,115.788485 154.246080,116.761760C154.019069,117.442792 153.342392,118.000000 152.742353,118.000000C152.142313,118.000000 152.708255,116.875000 154.000000,115.500000zM161.000000,103.000000C161.000000,102.450000 161.423442,102.000000 161.940983,102.000000C162.458524,102.000000 163.160081,102.450000 163.500000,103.000000C163.839919,103.550000 163.416476,104.000000 162.559017,104.000000C161.701558,104.000000 161.000000,103.550000 161.000000,103.000000zM153.244751,94.500000C153.794197,91.625758 153.170090,91.398920 150.441130,93.480997C148.760979,94.762878 148.701670,95.096937 150.000000,95.965684C152.237923,97.463138 152.719933,97.245410 153.244751,94.500000zM168.248381,95.750000C168.476657,95.062500 169.976657,94.056033 171.581714,93.513406C173.186771,92.970780 174.859861,91.958280 175.299690,91.263406C176.238326,89.780484 178.631224,89.594290 179.462600,90.939486C180.560009,92.715131 174.701891,97.000000 171.176885,97.000000C168.947352,97.000000 167.971621,96.583520 168.248381,95.750000zM159.249533,90.750000C159.478443,90.062500 160.514118,89.335597 161.551034,89.134661C163.182133,88.818581 163.255576,88.987124 162.095723,90.384661C160.509523,92.295915 158.655569,92.533890 159.249533,90.750000zM157.000000,73.762324C157.000000,72.927735 157.647984,71.707110 158.439966,71.049824C159.231947,70.392538 160.019447,68.910186 160.189966,67.755707C160.569217,65.188030 162.539646,64.357952 163.335064,66.430779C163.686624,67.346931 162.549134,69.395962 160.458271,71.612923C158.310907,73.889792 157.000000,74.704553 157.000000,73.762324zM450.648391,48.750000C449.299026,46.962500 446.491155,42.350000 444.408676,38.500000C442.326198,34.650000 439.582323,30.107524 438.311176,28.405609C437.040029,26.703694 436.000000,25.060975 436.000000,24.755122C436.000000,24.449269 433.301705,19.766745 430.003790,14.349513C426.705874,8.932281 424.005874,3.487500 424.003790,2.250000C424.000420,0.249439 424.498877,0.000000 428.500000,0.000000C432.595339,0.000000 433.000000,0.217912 433.000000,2.423275C433.000000,3.756076 434.131155,6.190851 435.513677,7.833885C436.896200,9.476920 438.663989,12.323946 439.442097,14.160610C440.220206,15.997275 441.789051,18.283096 442.928420,19.240213C444.067789,20.197329 445.000000,22.083272 445.000000,23.431196C445.000000,24.779119 445.480678,26.179041 446.068174,26.542134C446.655669,26.905226 446.880394,27.869304 446.567563,28.684529C445.838845,30.583538 455.651395,41.000000 458.169023,41.000000C459.176061,41.000000 460.000000,41.274637 460.000000,41.610304C460.000000,42.296558 453.819573,52.000000 453.382477,52.000000C453.228095,52.000000 451.997757,50.537500 450.648391,48.750000z"/>
</svg>
