<?xml version='1.0' encoding='UTF-8' standalone='no'?>
<svg xmlns="http://www.w3.org/2000/svg" xmlns:xlink="http://www.w3.org/1999/xlink" version="1.1" width="100%" viewBox="0 0 200 200">
  <rect x="0" y="0" width="200" height="200" fill="black" stroke="black" stroke-width="1" id="border" opacity="0.8"/>
  <rect x="93" y="66" width="10" height="10" fill="#cf00ff" stroke="None" stroke-width="0.5"/>
  <rect x="104" y="21" width="10" height="10" fill="#ff7a00" stroke="None" stroke-width="0.5"/>
  <rect x="150" y="122" width="10" height="10" fill="#ff4600" stroke="None" stroke-width="0.5"/>
  <rect x="86" y="146" width="10" height="10" fill="#00ffa6" stroke="None" stroke-width="0.5"/>
  <rect x="86" y="116" width="10" height="10" fill="#ff0063" stroke="None" stroke-width="0.5"/>
  <rect x="79" y="165" width="10" height="10" fill="#00ffe1" stroke="None" stroke-width="0.5"/>
  <rect x="136" y="5" width="10" height="10" fill="#5aff00" stroke="None" stroke-width="0.5"/>
  <rect x="163" y="80" width="10" height="10" fill="#8f00ff" stroke="None" stroke-width="0.5"/>
  <rect x="81" y="178" width="10" height="10" fill="#0038ff" stroke="None" stroke-width="0.5"/>
  <rect x="105" y="33" width="10" height="10" fill="#c600ff" stroke="None" stroke-width="0.5"/>
  <rect x="23" y="52" width="10" height="10" fill="#ff00d4" stroke="None" stroke-width="0.5"/>
  <rect x="93" y="31" width="10" height="10" fill="#00ff06" stroke="None" stroke-width="0.5"/>
  <rect x="106" y="122" width="10" height="10" fill="#002eff" stroke="None" stroke-width="0.5"/>
  <rect x="177" y="132" width="10" height="10" fill="#fffa00" stroke="None" stroke-width="0.5"/>
  <rect x="60" y="53" width="10" height="10" fill="#ff0014" stroke="None" stroke-width="0.5"/>
  <rect x="111" y="182" width="10" height="10" fill="#ff5d00" stroke="None" stroke-width="0.5"/>
  <rect x="185" y="1" width="10" height="10" fill="#00ff09" stroke="None" stroke-width="0.5"/>
  <rect x="48" y="46" width="10" height="10" fill="#ff002a" stroke="None" stroke-width="0.5"/>
  <rect x="92" y="84" width="10" height="10" fill="#0028ff" stroke="None" stroke-width="0.5"/>
  <rect x="157" y="96" width="10" height="10" fill="#90ff00" stroke="None" stroke-width="0.5"/>
  <rect x="176" y="182" width="10" height="10" fill="#1600ff" stroke="None" stroke-width="0.5"/>
  <rect x="12" y="2" width="10" height="10" fill="#0016ff" stroke="None" stroke-width="0.5"/>
  <rect x="83" y="104" width="10" height="10" fill="#c900ff" stroke="None" stroke-width="0.5"/>
  <rect x="3" y="172" width="10" height="10" fill="#d3ff00" stroke="None" stroke-width="0.5"/>
  <rect x="132" y="132" width="10" height="10" fill="#00f3ff" stroke="None" stroke-width="0.5"/>
  <rect x="49" y="19" width="10" height="10" fill="#00ff8a" stroke="None" stroke-width="0.5"/>
  <rect x="172" y="165" width="10" height="10" fill="#f600ff" stroke="None" stroke-width="0.5"/>
  <rect x="149" y="5" width="10" height="10" fill="#00a7ff" stroke="None" stroke-width="0.5"/>
  <rect x="18" y="104" width="10" height="10" fill="#0013ff" stroke="None" stroke-width="0.5"/>
  <rect x="139" y="180" width="10" height="10" fill="#3c00ff" stroke="None" stroke-width="0.5"/>
  <rect x="149" y="82" width="10" height="10" fill="#ff6500" stroke="None" stroke-width="0.5"/>
  <rect x="153" y="150" width="10" height="10" fill="#00d6ff" stroke="None" stroke-width="0.5"/>
  <rect x="116" y="70" width="10" height="10" fill="#00ff31" stroke="None" stroke-width="0.5"/>
  <rect x="49" y="149" width="10" height="10" fill="#ff003b" stroke="None" stroke-width="0.5"/>
  <rect x="92" y="13" width="10" height="10" fill="#0047ff" stroke="None" stroke-width="0.5"/>
  <rect x="68" y="102" width="10" height="10" fill="#39ff00" stroke="None" stroke-width="0.5"/>
  <rect x="5" y="109" width="10" height="10" fill="#00fff4" stroke="None" stroke-width="0.5"/>
  <rect x="72" y="85" width="10" height="10" fill="#9300ff" stroke="None" stroke-width="0.5"/>
  <rect x="184" y="21" width="10" height="10" fill="#ff1900" stroke="None" stroke-width="0.5"/>
  <rect x="168" y="3" width="10" height="10" fill="#bcff00" stroke="None" stroke-width="0.5"/>
  <rect x="10" y="20" width="10" height="10" fill="#12ff00" stroke="None" stroke-width="0.5"/>
  <rect x="105" y="169" width="10" height="10" fill="#c7ff00" stroke="None" stroke-width="0.5"/>
  <rect x="155" y="137" width="10" height="10" fill="#008fff" stroke="None" stroke-width="0.5"/>
  <rect x="64" y="35" width="10" height="10" fill="#3e00ff" stroke="None" stroke-width="0.5"/>
  <rect x="48" y="0" width="10" height="10" fill="#ff0087" stroke="None" stroke-width="0.5"/>
  <rect x="165" y="148" width="10" height="10" fill="#e200ff" stroke="None" stroke-width="0.5"/>
  <rect x="44" y="91" width="10" height="10" fill="#00ff7d" stroke="None" stroke-width="0.5"/>
  <rect x="10" y="146" width="10" height="10" fill="#ff0039" stroke="None" stroke-width="0.5"/>
  <rect x="176" y="153" width="10" height="10" fill="#00ff9a" stroke="None" stroke-width="0.5"/>
  <rect x="26" y="68" width="10" height="10" fill="#ff00cf" stroke="None" stroke-width="0.5"/>
  <rect x="50" y="121" width="10" height="10" fill="#ff9b00" stroke="None" stroke-width="0.5"/>
  <rect x="26" y="151" width="10" height="10" fill="#ff00a5" stroke="None" stroke-width="0.5"/>
  <rect x="24" y="39" width="10" height="10" fill="#ff0054" stroke="None" stroke-width="0.5"/>
  <rect x="128" y="107" width="10" height="10" fill="#0072ff" stroke="None" stroke-width="0.5"/>
  <rect x="74" y="140" width="10" height="10" fill="#005bff" stroke="None" stroke-width="0.5"/>
  <rect x="52" y="67" width="10" height="10" fill="#00b1ff" stroke="None" stroke-width="0.5"/>
  <rect x="37" y="18" width="10" height="10" fill="#ff007f" stroke="None" stroke-width="0.5"/>
  <rect x="84" y="0" width="10" height="10" fill="#00ff13" stroke="None" stroke-width="0.5"/>
  <rect x="9" y="128" width="10" height="10" fill="#6cff00" stroke="None" stroke-width="0.5"/>
  <rect x="29" y="110" width="10" height="10" fill="#00ff18" stroke="None" stroke-width="0.5"/>
  <rect x="109" y="91" width="10" height="10" fill="#0086ff" stroke="None" stroke-width="0.5"/>
  <rect x="16" y="90" width="10" height="10" fill="#00ffae" stroke="None" stroke-width="0.5"/>
  <rect x="157" y="52" width="10" height="10" fill="#ff0000" stroke="None" stroke-width="0.5"/>
  <rect x="76" y="15" width="10" height="10" fill="#ffa000" stroke="None" stroke-width="0.5"/>
  <rect x="103" y="105" width="10" height="10" fill="#c4ff00" stroke="None" stroke-width="0.5"/>
  <rect x="41" y="162" width="10" height="10" fill="#ff00d3" stroke="None" stroke-width="0.5"/>
  <rect x="122" y="91" width="10" height="10" fill="#ff00c5" stroke="None" stroke-width="0.5"/>
  <rect x="19" y="168" width="10" height="10" fill="#ff0031" stroke="None" stroke-width="0.5"/>
  <rect x="37" y="125" width="10" height="10" fill="#008eff" stroke="None" stroke-width="0.5"/>
  <rect x="94" y="179" width="10" height="10" fill="#b900ff" stroke="None" stroke-width="0.5"/>
  <rect x="24" y="11" width="10" height="10" fill="#6700ff" stroke="None" stroke-width="0.5"/>
  <rect x="144" y="167" width="10" height="10" fill="#ffbf00" stroke="None" stroke-width="0.5"/>
  <rect x="163" y="177" width="10" height="10" fill="#ff002e" stroke="None" stroke-width="0.5"/>
  <rect x="187" y="96" width="10" height="10" fill="#bcff00" stroke="None" stroke-width="0.5"/>
  <rect x="12" y="60" width="10" height="10" fill="#ff7600" stroke="None" stroke-width="0.5"/>
  <rect x="167" y="16" width="10" height="10" fill="#8000ff" stroke="None" stroke-width="0.5"/>
  <rect x="128" y="150" width="10" height="10" fill="#fff900" stroke="None" stroke-width="0.5"/>
  <rect x="138" y="85" width="10" height="10" fill="#02ff00" stroke="None" stroke-width="0.5"/>
  <rect x="151" y="18" width="10" height="10" fill="#ff9d00" stroke="None" stroke-width="0.5"/>
  <rect x="48" y="187" width="10" height="10" fill="#8fff00" stroke="None" stroke-width="0.5"/>
  <rect x="84" y="52" width="10" height="10" fill="#ff5a00" stroke="None" stroke-width="0.5"/>
  <rect x="28" y="79" width="10" height="10" fill="#e000ff" stroke="None" stroke-width="0.5"/>
  <rect x="46" y="138" width="10" height="10" fill="#a300ff" stroke="None" stroke-width="0.5"/>
  <rect x="142" y="153" width="10" height="10" fill="#ff00cd" stroke="None" stroke-width="0.5"/>
  <rect x="67" y="4" width="10" height="10" fill="#ff008b" stroke="None" stroke-width="0.5"/>
  <rect x="75" y="152" width="10" height="10" fill="#000eff" stroke="None" stroke-width="0.5"/>
  <rect x="47" y="175" width="10" height="10" fill="#00ff83" stroke="None" stroke-width="0.5"/>
  <rect x="20" y="127" width="10" height="10" fill="#0030ff" stroke="None" stroke-width="0.5"/>
  <rect x="137" y="67" width="10" height="10" fill="#00f2ff" stroke="None" stroke-width="0.5"/>
  <rect x="74" y="125" width="10" height="10" fill="#ffe100" stroke="None" stroke-width="0.5"/>
  <rect x="147" y="111" width="10" height="10" fill="#ff009c" stroke="None" stroke-width="0.5"/>
  <rect x="58" y="170" width="10" height="10" fill="#8a00ff" stroke="None" stroke-width="0.5"/>
  <rect x="30" y="189" width="10" height="10" fill="#ff00b7" stroke="None" stroke-width="0.5"/>
  <rect x="103" y="139" width="10" height="10" fill="#00ff86" stroke="None" stroke-width="0.5"/>
  <rect x="63" y="115" width="10" height="10" fill="#002bff" stroke="None" stroke-width="0.5"/>
  <rect x="187" y="156" width="10" height="10" fill="#8c00ff" stroke="None" stroke-width="0.5"/>
  <rect x="146" y="36" width="10" height="10" fill="#00ff19" stroke="None" stroke-width="0.5"/>
  <rect x="33" y="140" width="10" height="10" fill="#00ff79" stroke="None" stroke-width="0.5"/>
  <rect x="0" y="157" width="10" height="10" fill="#0063ff" stroke="None" stroke-width="0.5"/>
  <rect x="99" y="0" width="10" height="10" fill="#ff00e7" stroke="None" stroke-width="0.5"/>
  <rect x="132" y="33" width="10" height="10" fill="#00ffc4" stroke="None" stroke-width="0.5"/>
  <rect x="129" y="49" width="10" height="10" fill="#f0ff00" stroke="None" stroke-width="0.5"/>
  <rect x="114" y="146" width="10" height="10" fill="#0087ff" stroke="None" stroke-width="0.5"/>
  <rect x="124" y="168" width="10" height="10" fill="#ff0075" stroke="None" stroke-width="0.5"/>
  <rect x="131" y="19" width="10" height="10" fill="#ff007b" stroke="None" stroke-width="0.5"/>
  <rect x="106" y="48" width="10" height="10" fill="#00ff9f" stroke="None" stroke-width="0.5"/>
  <rect x="187" y="35" width="10" height="10" fill="#ff007b" stroke="None" stroke-width="0.5"/>
  <rect x="167" y="111" width="10" height="10" fill="#5600ff" stroke="None" stroke-width="0.5"/>
  <rect x="61" y="189" width="10" height="10" fill="#9fff00" stroke="None" stroke-width="0.5"/>
  <rect x="58" y="134" width="10" height="10" fill="#0062ff" stroke="None" stroke-width="0.5"/>
  <rect x="18" y="183" width="10" height="10" fill="#00ff48" stroke="None" stroke-width="0.5"/>
  <rect x="89" y="134" width="10" height="10" fill="#00ff3f" stroke="None" stroke-width="0.5"/>
  <rect x="1" y="38" width="10" height="10" fill="#ffdc00" stroke="None" stroke-width="0.5"/>
  <rect x="172" y="65" width="10" height="10" fill="#ff0029" stroke="None" stroke-width="0.5"/>
  <rect x="1" y="57" width="10" height="10" fill="#e9ff00" stroke="None" stroke-width="0.5"/>
  <rect x="98" y="157" width="10" height="10" fill="#ff00fc" stroke="None" stroke-width="0.5"/>
  <rect x="65" y="68" width="10" height="10" fill="#00c7ff" stroke="None" stroke-width="0.5"/>
  <rect x="154" y="65" width="10" height="10" fill="#00ff44" stroke="None" stroke-width="0.5"/>
  <rect x="60" y="159" width="10" height="10" fill="#ff4600" stroke="None" stroke-width="0.5"/>
  <rect x="82" y="31" width="10" height="10" fill="#b200ff" stroke="None" stroke-width="0.5"/>
  <rect x="0" y="9" width="10" height="10" fill="#ff0e00" stroke="None" stroke-width="0.5"/>
  <rect x="37" y="46" width="10" height="10" fill="#15ff00" stroke="None" stroke-width="0.5"/>
  <rect x="187" y="73" width="10" height="10" fill="#0900ff" stroke="None" stroke-width="0.5"/>
  <rect x="176" y="37" width="10" height="10" fill="#f0ff00" stroke="None" stroke-width="0.5"/>
  <rect x="119" y="2" width="10" height="10" fill="#0026ff" stroke="None" stroke-width="0.5"/>
  <rect x="45" y="108" width="10" height="10" fill="#8000ff" stroke="None" stroke-width="0.5"/>
  <rect x="55" y="80" width="10" height="10" fill="#a000ff" stroke="None" stroke-width="0.5"/>
  <rect x="3" y="92" width="10" height="10" fill="#c200ff" stroke="None" stroke-width="0.5"/>
  <rect x="73" y="49" width="10" height="10" fill="#ff0b00" stroke="None" stroke-width="0.5"/>
  <rect x="117" y="31" width="10" height="10" fill="#3800ff" stroke="None" stroke-width="0.5"/>
  <rect x="57" y="101" width="10" height="10" fill="#00a9ff" stroke="None" stroke-width="0.5"/>
  <rect x="117" y="110" width="10" height="10" fill="#8000ff" stroke="None" stroke-width="0.5"/>
  <rect x="12" y="38" width="10" height="10" fill="#00ffe7" stroke="None" stroke-width="0.5"/>
  <rect x="183" y="108" width="10" height="10" fill="#0b00ff" stroke="None" stroke-width="0.5"/>
  <rect x="143" y="52" width="10" height="10" fill="#00ff42" stroke="None" stroke-width="0.5"/>
  <rect x="118" y="132" width="10" height="10" fill="#f600ff" stroke="None" stroke-width="0.5"/>
  <rect x="34" y="177" width="10" height="10" fill="#ff000f" stroke="None" stroke-width="0.5"/>
  <rect x="69" y="178" width="10" height="10" fill="#ff0055" stroke="None" stroke-width="0.5"/>
  <rect x="17" y="79" width="10" height="10" fill="#0039ff" stroke="None" stroke-width="0.5"/>
  <rect x="37" y="31" width="10" height="10" fill="#4700ff" stroke="None" stroke-width="0.5"/>
  <rect x="4" y="73" width="10" height="10" fill="#ffcd00" stroke="None" stroke-width="0.5"/>
  <rect x="119" y="16" width="10" height="10" fill="#edff00" stroke="None" stroke-width="0.5"/>
  <rect x="125" y="189" width="10" height="10" fill="#007dff" stroke="None" stroke-width="0.5"/>
  <rect x="171" y="52" width="10" height="10" fill="#ff9a00" stroke="None" stroke-width="0.5"/>
  <rect x="166" y="132" width="10" height="10" fill="#00aaff" stroke="None" stroke-width="0.5"/>
  <rect x="186" y="55" width="10" height="10" fill="#ff3500" stroke="None" stroke-width="0.5"/>
  <rect x="63" y="15" width="10" height="10" fill="#0061ff" stroke="None" stroke-width="0.5"/>
  <rect x="41" y="63" width="10" height="10" fill="#0041ff" stroke="None" stroke-width="0.5"/>
  <rect x="82" y="64" width="10" height="10" fill="#009fff" stroke="None" stroke-width="0.5"/>
  <rect x="183" y="84" width="10" height="10" fill="#00ffd0" stroke="None" stroke-width="0.5"/>
  <rect x="105" y="80" width="10" height="10" fill="#fe00ff" stroke="None" stroke-width="0.5"/>
  <rect x="188" y="119" width="10" height="10" fill="#00e5ff" stroke="None" stroke-width="0.5"/>
  <rect x="176" y="97" width="10" height="10" fill="#ff009e" stroke="None" stroke-width="0.5"/>
  <rect x="187" y="174" width="10" height="10" fill="#ff0e00" stroke="None" stroke-width="0.5"/>
  <rect x="114" y="157" width="10" height="10" fill="#00ffdb" stroke="None" stroke-width="0.5"/>
  <rect x="3" y="186" width="10" height="10" fill="#7fff00" stroke="None" stroke-width="0.5"/>
  <rect x="137" y="96" width="10" height="10" fill="#ff00cb" stroke="None" stroke-width="0.5"/>
  <rect x="143" y="136" width="10" height="10" fill="#0070ff" stroke="None" stroke-width="0.5"/>
  <rect x="39" y="74" width="10" height="10" fill="#2500ff" stroke="None" stroke-width="0.5"/>
  <rect x="27" y="90" width="10" height="10" fill="#00efff" stroke="None" stroke-width="0.5"/>
  <rect x="35" y="6" width="10" height="10" fill="#ffd000" stroke="None" stroke-width="0.5"/>
  <rect x="78" y="189" width="10" height="10" fill="#00a2ff" stroke="None" stroke-width="0.5"/>
  <rect x="153" y="188" width="10" height="10" fill="#ff007e" stroke="None" stroke-width="0.5"/>
  <rect x="159" y="33" width="10" height="10" fill="#ff008b" stroke="None" stroke-width="0.5"/>
  <rect x="61" y="147" width="10" height="10" fill="#ffcf00" stroke="None" stroke-width="0.5"/>
  <rect x="189" y="137" width="10" height="10" fill="#5800ff" stroke="None" stroke-width="0.5"/>
  <rect x="105" y="69" width="10" height="10" fill="#efff00" stroke="None" stroke-width="0.5"/>
  <rect x="120" y="121" width="10" height="10" fill="#ffdf00" stroke="None" stroke-width="0.5"/>
  <rect x="95" y="46" width="10" height="10" fill="#00ffdc" stroke="None" stroke-width="0.5"/>
  <rect x="133" y="118" width="10" height="10" fill="#19ff00" stroke="None" stroke-width="0.5"/>
  <rect x="117" y="55" width="10" height="10" fill="#ff1900" stroke="None" stroke-width="0.5"/>
  <rect x="52" y="32" width="10" height="10" fill="#ff3e00" stroke="None" stroke-width="0.5"/>
  <rect x="157" y="163" width="10" height="10" fill="#ff0039" stroke="None" stroke-width="0.5"/>
  <rect x="24" y="24" width="10" height="10" fill="#ff0026" stroke="None" stroke-width="0.5"/>
  <rect x="188" y="189" width="10" height="10" fill="#1700ff" stroke="None" stroke-width="0.5"/>
</svg>
