<?xml version='1.0' encoding='UTF-8' standalone='no'?>
<svg width="200" height="200" xmlns="http://www.w3.org/2000/svg">
  <g opacity="1.0">
    <line x1="67.74568349811415" y1="186.56207252792362" x2="191.09211206435583" y2="84.65202120837498" stroke="#EFE83B" stroke_width="0.1"/>
    <line x1="67.74568349811415" y1="186.56207252792362" x2="41.16220443753005" y2="28.785906263701463" stroke="#EFE83B" stroke_width="0.1"/>
    <line x1="191.09211206435583" y1="84.65202120837498" x2="41.16220443753005" y2="28.785906263701463" stroke="#EFE83B" stroke_width="0.1"/>
    <line x1="79.92998475296059" y1="9.830560491278757" x2="31.945982363962862" y2="162.46586281263777" stroke="#E8931E" stroke_width="0.1"/>
    <line x1="79.92998475296059" y1="9.830560491278757" x2="188.1240328830765" y2="127.70357669608347" stroke="#E8931E" stroke_width="0.1"/>
    <line x1="31.945982363962862" y1="162.46586281263777" x2="188.1240328830765" y2="127.70357669608347" stroke="#E8931E" stroke_width="0.1"/>
    <line x1="42.847194073192604" y1="27.42665704250614" x2="65.72604432465354" y2="185.78245330892398" stroke="#EC448F" stroke_width="0.1"/>
    <line x1="42.847194073192604" y1="27.42665704250614" x2="191.42676160215382" y2="86.7908896485699" stroke="#EC448F" stroke_width="0.1"/>
    <line x1="65.72604432465354" y1="185.78245330892398" x2="191.42676160215382" y2="86.7908896485699" stroke="#EC448F" stroke_width="0.1"/>
    <line x1="54.40551585484656" y1="19.66024428173381" x2="53.22097268672207" y2="179.65585940128278" stroke="#0FA936" stroke_width="0.1"/>
    <line x1="54.40551585484656" y1="19.66024428173381" x2="192.37351145843132" y2="100.68389631698341" stroke="#0FA936" stroke_width="0.1"/>
    <line x1="53.22097268672207" y1="179.65585940128278" x2="192.37351145843132" y2="100.68389631698341" stroke="#0FA936" stroke_width="0.1"/>
    <line x1="34.356108316726925" y1="35.00605552816444" x2="76.53553883687175" y2="189.3462500369063" stroke="#11224A" stroke_width="0.1"/>
    <line x1="34.356108316726925" y1="35.00605552816444" x2="189.10835284640126" y2="75.64769443492928" stroke="#11224A" stroke_width="0.1"/>
    <line x1="76.53553883687175" y1="189.3462500369063" x2="189.10835284640126" y2="75.64769443492928" stroke="#11224A" stroke_width="0.1"/>
    <line x1="55.90901010107669" y1="18.825386092286358" x2="51.746217162988046" y2="178.7712242843275" stroke="#1C5567" stroke_width="0.1"/>
    <line x1="55.90901010107669" y1="18.825386092286358" x2="192.3447727359352" y2="102.40338962338616" stroke="#1C5567" stroke_width="0.1"/>
    <line x1="51.746217162988046" y1="178.7712242843275" x2="192.3447727359352" y2="102.40338962338616" stroke="#1C5567" stroke_width="0.1"/>
    <line x1="51.82853124624196" y1="21.178410752896852" x2="55.824235722225346" y2="181.12851030191436" stroke="#1A4EAA" stroke_width="0.1"/>
    <line x1="51.82853124624196" y1="21.178410752896852" x2="192.34723303153265" y2="97.6930789451888" stroke="#1A4EAA" stroke_width="0.1"/>
    <line x1="55.824235722225346" y1="181.12851030191436" x2="192.34723303153265" y2="97.6930789451888" stroke="#1A4EAA" stroke_width="0.1"/>
    <line x1="19.35296953865435" y1="145.04874927342735" x2="179.33687651017667" y2="147.31800248258912" stroke="#07CAF0" stroke_width="0.1"/>
    <line x1="19.35296953865435" y1="145.04874927342735" x2="101.31015395116899" y2="7.633248243983587" stroke="#07CAF0" stroke_width="0.1"/>
    <line x1="179.33687651017667" y1="147.31800248258912" x2="101.31015395116899" y2="7.633248243983587" stroke="#07CAF0" stroke_width="0.1"/>
    <line x1="191.5121512609685" y1="87.39605201046292" x2="43.32858522259885" y2="27.050126247805665" stroke="#2F7E50" stroke_width="0.1"/>
    <line x1="191.5121512609685" y1="87.39605201046292" x2="65.15926351643267" y2="185.55382174173135" stroke="#2F7E50" stroke_width="0.1"/>
    <line x1="43.32858522259885" y1="27.050126247805665" x2="65.15926351643267" y2="185.55382174173135" stroke="#2F7E50" stroke_width="0.1"/>
    <line x1="185.5235016394039" y1="134.91509703077185" x2="87.47561018454509" y2="8.476926444290218" stroke="#827EE0" stroke_width="0.1"/>
    <line x1="185.5235016394039" y1="134.91509703077185" x2="27.00088817605105" y2="156.6079765249379" stroke="#827EE0" stroke_width="0.1"/>
    <line x1="87.47561018454509" y1="8.476926444290218" x2="27.00088817605105" y2="156.6079765249379" stroke="#827EE0" stroke_width="0.1"/>
    <line x1="168.42360630903457" y1="37.93919567875731" x2="12.041963723991476" y2="71.7738208784522" stroke="#ABE44D" stroke_width="0.1"/>
    <line x1="168.42360630903457" y1="37.93919567875731" x2="119.53442996697393" y2="190.28698344279044" stroke="#ABE44D" stroke_width="0.1"/>
    <line x1="12.041963723991476" y1="71.7738208784522" x2="119.53442996697393" y2="190.28698344279044" stroke="#ABE44D" stroke_width="0.1"/>
    <line x1="170.50418148701814" y1="159.68662937525406" x2="116.43804656172748" y2="9.098273071586743" stroke="#595E2B" stroke_width="0.1"/>
    <line x1="170.50418148701814" y1="159.68662937525406" x2="13.057771951254438" y2="131.21509755315918" stroke="#595E2B" stroke_width="0.1"/>
    <line x1="116.43804656172748" y1="9.098273071586743" x2="13.057771951254438" y2="131.21509755315918" stroke="#595E2B" stroke_width="0.1"/>
    <line x1="146.38245657973368" y1="179.8874273898118" x2="145.99331327269493" y2="19.88790061711604" stroke="#7BCC05" stroke_width="0.1"/>
    <line x1="146.38245657973368" y1="179.8874273898118" x2="7.62423014757141" y2="100.22467199307216" stroke="#7BCC05" stroke_width="0.1"/>
    <line x1="145.99331327269493" y1="19.88790061711604" x2="7.62423014757141" y2="100.22467199307216" stroke="#7BCC05" stroke_width="0.1"/>
    <line x1="29.44017073005129" y1="159.62083383121225" x2="186.91307132761486" y2="131.29618771886226" stroke="#8D0F29" stroke_width="0.1"/>
    <line x1="29.44017073005129" y1="159.62083383121225" x2="83.64675794233385" y2="9.082978449925534" stroke="#8D0F29" stroke_width="0.1"/>
    <line x1="186.91307132761486" y1="131.29618771886226" x2="83.64675794233385" y2="9.082978449925534" stroke="#8D0F29" stroke_width="0.1"/>
    <line x1="40.586751352883134" y1="170.7347101395715" x2="190.96468023375604" y2="116.08602757997889" stroke="#035DD0" stroke_width="0.1"/>
    <line x1="40.586751352883134" y1="170.7347101395715" x2="68.44856841336083" y2="13.179262280449649" stroke="#035DD0" stroke_width="0.1"/>
    <line x1="190.96468023375604" y1="116.08602757997889" x2="68.44856841336083" y2="13.179262280449649" stroke="#035DD0" stroke_width="0.1"/>
    <line x1="139.00615653494182" y1="16.263191572015664" x2="7.978718402063766" y2="108.08808175074017" stroke="#59D916" stroke_width="0.1"/>
    <line x1="139.00615653494182" y1="16.263191572015664" x2="153.0151250629944" y2="175.64872667724413" stroke="#59D916" stroke_width="0.1"/>
    <line x1="7.978718402063766" y1="108.08808175074017" x2="153.0151250629944" y2="175.64872667724413" stroke="#59D916" stroke_width="0.1"/>
    <line x1="7.716106254431224" y1="95.87491957776513" x2="142.56952243447518" y2="181.98273655492386" stroke="#803029" stroke_width="0.1"/>
    <line x1="7.716106254431224" y1="95.87491957776513" x2="149.7143713110936" y2="22.14234386731104" stroke="#803029" stroke_width="0.1"/>
    <line x1="142.56952243447518" y1="181.98273655492386" x2="149.7143713110936" y2="22.14234386731104" stroke="#803029" stroke_width="0.1"/>
    <line x1="116.1544171862312" y1="190.95255982492483" x2="170.69001875449325" y2="40.53358442092946" stroke="#F0E8F8" stroke_width="0.1"/>
    <line x1="116.1544171862312" y1="190.95255982492483" x2="13.155564059275605" y2="68.51385575414574" stroke="#F0E8F8" stroke_width="0.1"/>
    <line x1="170.69001875449325" y1="40.53358442092946" x2="13.155564059275605" y2="68.51385575414574" stroke="#F0E8F8" stroke_width="0.1"/>
    <line x1="18.697516601055877" y1="143.85475489040783" x2="178.63057351130507" y2="148.4826385690443" stroke="#89ABB4" stroke_width="0.1"/>
    <line x1="18.697516601055877" y1="143.85475489040783" x2="102.67190988763905" y2="7.662606540547927" stroke="#89ABB4" stroke_width="0.1"/>
    <line x1="178.63057351130507" y1="148.4826385690443" x2="102.67190988763905" y2="7.662606540547927" stroke="#89ABB4" stroke_width="0.1"/>
    <line x1="77.73039769833917" y1="189.6515373357267" x2="188.77530997189876" y2="74.46027265755134" stroke="#420C08" stroke_width="0.1"/>
    <line x1="77.73039769833917" y1="189.6515373357267" x2="33.494292329762075" y2="35.88819000672201" stroke="#420C08" stroke_width="0.1"/>
    <line x1="188.77530997189876" y1="74.46027265755134" x2="33.494292329762075" y2="35.88819000672201" stroke="#420C08" stroke_width="0.1"/>
    <line x1="191.51477902648753" y1="87.41514588616565" x2="43.34380712125459" y2="27.03830359825964" stroke="#E12533" stroke_width="0.1"/>
    <line x1="191.51477902648753" y1="87.41514588616565" x2="65.1414138522579" y2="185.54655051557467" stroke="#E12533" stroke_width="0.1"/>
    <line x1="43.34380712125459" y1="27.03830359825964" x2="65.1414138522579" y2="185.54655051557467" stroke="#E12533" stroke_width="0.1"/>
    <line x1="8.368660373793443" y1="111.70602117032604" x2="155.9533815238441" y2="173.50205731393157" stroke="#E2C142" stroke_width="0.1"/>
    <line x1="8.368660373793443" y1="111.70602117032604" x2="135.67795810236248" y2="14.791921515742459" stroke="#E2C142" stroke_width="0.1"/>
    <line x1="155.9533815238441" y1="173.50205731393157" x2="135.67795810236248" y2="14.791921515742459" stroke="#E2C142" stroke_width="0.1"/>
    <line x1="24.800547493252186" y1="153.65049558036452" x2="184.06241835159435" y2="138.29938843134272" stroke="#9D8087" stroke_width="0.1"/>
    <line x1="24.800547493252186" y1="153.65049558036452" x2="91.13703415515349" y2="8.050115988292788" stroke="#9D8087" stroke_width="0.1"/>
    <line x1="184.06241835159435" y1="138.29938843134272" x2="91.13703415515349" y2="8.050115988292788" stroke="#9D8087" stroke_width="0.1"/>
    <line x1="177.6358284633517" y1="150.06007862700937" x2="104.53538557476071" y2="7.735360993381725" stroke="#681E9F" stroke_width="0.1"/>
    <line x1="177.6358284633517" y1="150.06007862700937" x2="17.828785961887633" y2="142.20456037960884" stroke="#681E9F" stroke_width="0.1"/>
    <line x1="104.53538557476071" y1="7.735360993381725" x2="17.828785961887633" y2="142.20456037960884" stroke="#681E9F" stroke_width="0.1"/>
    <line x1="191.3476626645639" y1="86.25453314527397" x2="42.42224518464835" y2="27.763336983519373" stroke="#A6B6A9" stroke_width="0.1"/>
    <line x1="191.3476626645639" y1="86.25453314527397" x2="66.23009215078778" y2="185.9821298712066" stroke="#A6B6A9" stroke_width="0.1"/>
    <line x1="42.42224518464835" y1="27.763336983519373" x2="66.23009215078778" y2="185.9821298712066" stroke="#A6B6A9" stroke_width="0.1"/>
    <line x1="25.611941876965552" y1="45.23002517786426" x2="89.7618395009136" y2="191.80693548380907" stroke="#1540E3" stroke_width="0.1"/>
    <line x1="25.611941876965552" y1="45.23002517786426" x2="184.6262186221208" y2="62.963039338326695" stroke="#1540E3" stroke_width="0.1"/>
    <line x1="89.7618395009136" y1="191.80693548380907" x2="184.6262186221208" y2="62.963039338326695" stroke="#1540E3" stroke_width="0.1"/>
    <line x1="13.284625665061636" y1="131.83986789050556" x2="170.9318216137874" y2="159.17778312748098" stroke="#A904EA" stroke_width="0.1"/>
    <line x1="13.284625665061636" y1="131.83986789050556" x2="115.78355272115093" y2="8.982348982013534" stroke="#A904EA" stroke_width="0.1"/>
    <line x1="170.9318216137874" y1="159.17778312748098" x2="115.78355272115093" y2="8.982348982013534" stroke="#A904EA" stroke_width="0.1"/>
    <line x1="184.22891319173098" y1="62.06817278493979" x2="25.03561742393045" y2="46.02153505033685" stroke="#A333A3" stroke_width="0.1"/>
    <line x1="184.22891319173098" y1="62.06817278493979" x2="90.73546938433859" y2="191.9102921647233" stroke="#A333A3" stroke_width="0.1"/>
    <line x1="25.03561742393045" y1="46.02153505033685" x2="90.73546938433859" y2="191.9102921647233" stroke="#A333A3" stroke_width="0.1"/>
    <line x1="16.784033213550277" y1="140.1053139263344" x2="176.34020408018029" y2="152.01448427438035" stroke="#108D87" stroke_width="0.1"/>
    <line x1="16.784033213550277" y1="140.1053139263344" x2="106.87576270626944" y2="7.880201799285302" stroke="#108D87" stroke_width="0.1"/>
    <line x1="176.34020408018029" y1="152.01448427438035" x2="106.87576270626944" y2="7.880201799285302" stroke="#108D87" stroke_width="0.1"/>
    <line x1="192.25095714187307" y1="104.80564665176637" x2="58.03633351110477" y2="17.705504265825248" stroke="#A4AC8F" stroke_width="0.1"/>
    <line x1="192.25095714187307" y1="104.80564665176637" x2="49.71270934702219" y2="177.48884908240834" stroke="#A4AC8F" stroke_width="0.1"/>
    <line x1="58.03633351110477" y1="17.705504265825248" x2="49.71270934702219" y2="177.48884908240834" stroke="#A4AC8F" stroke_width="0.1"/>
    <line x1="8.391454746699427" y1="111.88308755784101" x2="156.09532832713538" y2="173.39378361417414" stroke="#08DF20" stroke_width="0.1"/>
    <line x1="8.391454746699427" y1="111.88308755784101" x2="135.51321692616517" y2="14.723128827984894" stroke="#08DF20" stroke_width="0.1"/>
    <line x1="156.09532832713538" y1="173.39378361417414" x2="135.51321692616517" y2="14.723128827984894" stroke="#08DF20" stroke_width="0.1"/>
    <line x1="89.29763113389859" y1="191.75397884553692" x2="184.81246101158567" y2="63.39153389594702" stroke="#D0A4DA" stroke_width="0.1"/>
    <line x1="89.29763113389859" y1="191.75397884553692" x2="25.889907854515798" y2="44.85448725851609" stroke="#D0A4DA" stroke_width="0.1"/>
    <line x1="184.81246101158567" y1="63.39153389594702" x2="25.889907854515798" y2="44.85448725851609" stroke="#D0A4DA" stroke_width="0.1"/>
    <line x1="181.39185400162552" y1="143.68866484010942" x2="97.13956660814603" y2="7.668254353423489" stroke="#02A996" stroke_width="0.1"/>
    <line x1="181.39185400162552" y1="143.68866484010942" x2="21.468579390228527" y2="148.64308080646705" stroke="#02A996" stroke_width="0.1"/>
    <line x1="97.13956660814603" y1="7.668254353423489" x2="21.468579390228527" y2="148.64308080646705" stroke="#02A996" stroke_width="0.1"/>
    <line x1="91.08685643804529" y1="191.94503360800584" x2="184.08330663732437" y2="61.7464919482276" stroke="#2BFA9F" stroke_width="0.1"/>
    <line x1="91.08685643804529" y1="191.94503360800584" x2="24.829836924630385" y2="46.30847444376661" stroke="#2BFA9F" stroke_width="0.1"/>
    <line x1="184.08330663732437" y1="61.7464919482276" x2="24.829836924630385" y2="46.30847444376661" stroke="#2BFA9F" stroke_width="0.1"/>
    <line x1="91.69968491890819" y1="7.997619036853546" x2="24.473758417807232" y2="153.1894742012138" stroke="#809AF4" stroke_width="0.1"/>
    <line x1="91.69968491890819" y1="7.997619036853546" x2="183.82655666328452" y2="138.8129067619326" stroke="#809AF4" stroke_width="0.1"/>
    <line x1="24.473758417807232" y1="153.1894742012138" x2="183.82655666328452" y2="138.8129067619326" stroke="#809AF4" stroke_width="0.1"/>
    <line x1="186.5795379909519" y1="67.7925950345786" x2="28.817800114496055" y2="41.123623134626435" stroke="#186CE7" stroke_width="0.1"/>
    <line x1="186.5795379909519" y1="67.7925950345786" x2="84.60266189455206" y2="191.08378183079492" stroke="#186CE7" stroke_width="0.1"/>
    <line x1="28.817800114496055" y1="41.123623134626435" x2="84.60266189455206" y2="191.08378183079492" stroke="#186CE7" stroke_width="0.1"/>
    <line x1="79.65213554448064" y1="9.89285408230296" x2="32.13885480052277" y2="162.67534049009066" stroke="#EC683A" stroke_width="0.1"/>
    <line x1="79.65213554448064" y1="9.89285408230296" x2="188.20900965499652" y2="127.43180542760634" stroke="#EC683A" stroke_width="0.1"/>
    <line x1="32.13885480052277" y1="162.67534049009066" x2="188.20900965499652" y2="127.43180542760634" stroke="#EC683A" stroke_width="0.1"/>
    <line x1="9.058090021037803" y1="83.78573644251242" x2="131.4289908450406" y2="186.8651360892026" stroke="#8F110F" stroke_width="0.1"/>
    <line x1="9.058090021037803" y1="83.78573644251242" x2="159.51291913392157" y2="29.34912746828502" stroke="#8F110F" stroke_width="0.1"/>
    <line x1="131.4289908450406" y1="186.8651360892026" x2="159.51291913392157" y2="29.34912746828502" stroke="#8F110F" stroke_width="0.1"/>
    <line x1="17.02525328894389" y1="140.60202878637247" x2="176.64976172971367" y2="151.55722413116766" stroke="#F9FF1D" stroke_width="0.1"/>
    <line x1="17.02525328894389" y1="140.60202878637247" x2="106.32498498134244" y2="7.8407470824599415" stroke="#F9FF1D" stroke_width="0.1"/>
    <line x1="176.64976172971367" y1="151.55722413116766" x2="106.32498498134244" y2="7.8407470824599415" stroke="#F9FF1D" stroke_width="0.1"/>
    <line x1="138.7478287540089" y1="16.143341944820293" x2="8.004089470744947" y2="108.37172498512899" stroke="#5B9802" stroke_width="0.1"/>
    <line x1="138.7478287540089" y1="16.143341944820293" x2="153.24808177524613" y2="175.48493307005066" stroke="#5B9802" stroke_width="0.1"/>
    <line x1="8.004089470744947" y1="108.37172498512899" x2="153.24808177524613" y2="175.48493307005066" stroke="#5B9802" stroke_width="0.1"/>
  </g>
</svg>
