<?xml version='1.0' encoding='UTF-8' standalone='no'?>
<svg width="200" height="200" xmlns="http://www.w3.org/2000/svg">
  <g opacity="1.0">
    <rect x="0" y="0" width="200" height="200" fill="white" stroke="black" stroke-width="1"/>
    <circle cx="105.0" cy="100.0" r="0.2" fill="black"/>
    <circle cx="104.9" cy="100.8" r="0.2" fill="black"/>
    <circle cx="104.8" cy="101.5" r="0.2" fill="black"/>
    <circle cx="104.5" cy="102.3" r="0.2" fill="black"/>
    <circle cx="104.0" cy="102.9" r="0.2" fill="black"/>
    <circle cx="103.5" cy="103.5" r="0.2" fill="black"/>
    <circle cx="102.9" cy="104.0" r="0.2" fill="black"/>
    <circle cx="102.3" cy="104.5" r="0.2" fill="black"/>
    <circle cx="101.5" cy="104.8" r="0.2" fill="black"/>
    <circle cx="100.8" cy="104.9" r="0.2" fill="black"/>
    <circle cx="100.0" cy="105.0" r="0.2" fill="black"/>
    <circle cx="99.2" cy="104.9" r="0.2" fill="black"/>
    <circle cx="98.5" cy="104.8" r="0.2" fill="black"/>
    <circle cx="97.7" cy="104.5" r="0.2" fill="black"/>
    <circle cx="97.1" cy="104.0" r="0.2" fill="black"/>
    <circle cx="96.5" cy="103.5" r="0.2" fill="black"/>
    <circle cx="96.0" cy="102.9" r="0.2" fill="black"/>
    <circle cx="95.5" cy="102.3" r="0.2" fill="black"/>
    <circle cx="95.2" cy="101.5" r="0.2" fill="black"/>
    <circle cx="95.1" cy="100.8" r="0.2" fill="black"/>
    <circle cx="95.0" cy="100.0" r="0.2" fill="black"/>
    <circle cx="95.1" cy="99.2" r="0.2" fill="black"/>
    <circle cx="95.2" cy="98.5" r="0.2" fill="black"/>
    <circle cx="95.5" cy="97.7" r="0.2" fill="black"/>
    <circle cx="96.0" cy="97.1" r="0.2" fill="black"/>
    <circle cx="96.5" cy="96.5" r="0.2" fill="black"/>
    <circle cx="97.1" cy="96.0" r="0.2" fill="black"/>
    <circle cx="97.7" cy="95.5" r="0.2" fill="black"/>
    <circle cx="98.5" cy="95.2" r="0.2" fill="black"/>
    <circle cx="99.2" cy="95.1" r="0.2" fill="black"/>
    <circle cx="100.0" cy="95.0" r="0.2" fill="black"/>
    <circle cx="100.8" cy="95.1" r="0.2" fill="black"/>
    <circle cx="101.5" cy="95.2" r="0.2" fill="black"/>
    <circle cx="102.3" cy="95.5" r="0.2" fill="black"/>
    <circle cx="102.9" cy="96.0" r="0.2" fill="black"/>
    <circle cx="103.5" cy="96.5" r="0.2" fill="black"/>
    <circle cx="104.0" cy="97.1" r="0.2" fill="black"/>
    <circle cx="104.5" cy="97.7" r="0.2" fill="black"/>
    <circle cx="104.8" cy="98.5" r="0.2" fill="black"/>
    <circle cx="104.9" cy="99.2" r="0.2" fill="black"/>
    <circle cx="105.0" cy="100.0" r="0.2" fill="black"/>
    <circle cx="109.9" cy="104.8" r="0.4" fill="black"/>
    <circle cx="109.0" cy="106.3" r="0.4" fill="black"/>
    <circle cx="108.0" cy="107.6" r="0.4" fill="black"/>
    <circle cx="106.7" cy="108.8" r="0.4" fill="black"/>
    <circle cx="105.2" cy="109.7" r="0.4" fill="black"/>
    <circle cx="103.6" cy="110.4" r="0.4" fill="black"/>
    <circle cx="102.0" cy="110.8" r="0.4" fill="black"/>
    <circle cx="100.2" cy="111.0" r="0.4" fill="black"/>
    <circle cx="98.5" cy="110.9" r="0.4" fill="black"/>
    <circle cx="96.8" cy="110.5" r="0.4" fill="black"/>
    <circle cx="95.2" cy="109.9" r="0.4" fill="black"/>
    <circle cx="93.7" cy="109.0" r="0.4" fill="black"/>
    <circle cx="92.4" cy="108.0" r="0.4" fill="black"/>
    <circle cx="91.2" cy="106.7" r="0.4" fill="black"/>
    <circle cx="90.3" cy="105.2" r="0.4" fill="black"/>
    <circle cx="89.6" cy="103.6" r="0.4" fill="black"/>
    <circle cx="89.2" cy="102.0" r="0.4" fill="black"/>
    <circle cx="89.0" cy="100.2" r="0.4" fill="black"/>
    <circle cx="89.1" cy="98.5" r="0.4" fill="black"/>
    <circle cx="89.5" cy="96.8" r="0.4" fill="black"/>
    <circle cx="90.1" cy="95.2" r="0.4" fill="black"/>
    <circle cx="91.0" cy="93.7" r="0.4" fill="black"/>
    <circle cx="92.0" cy="92.4" r="0.4" fill="black"/>
    <circle cx="93.3" cy="91.2" r="0.4" fill="black"/>
    <circle cx="94.8" cy="90.3" r="0.4" fill="black"/>
    <circle cx="96.4" cy="89.6" r="0.4" fill="black"/>
    <circle cx="98.0" cy="89.2" r="0.4" fill="black"/>
    <circle cx="99.8" cy="89.0" r="0.4" fill="black"/>
    <circle cx="101.5" cy="89.1" r="0.4" fill="black"/>
    <circle cx="103.2" cy="89.5" r="0.4" fill="black"/>
    <circle cx="104.8" cy="90.1" r="0.4" fill="black"/>
    <circle cx="106.3" cy="91.0" r="0.4" fill="black"/>
    <circle cx="107.6" cy="92.0" r="0.4" fill="black"/>
    <circle cx="108.8" cy="93.3" r="0.4" fill="black"/>
    <circle cx="109.7" cy="94.8" r="0.4" fill="black"/>
    <circle cx="110.4" cy="96.4" r="0.4" fill="black"/>
    <circle cx="110.8" cy="98.0" r="0.4" fill="black"/>
    <circle cx="111.0" cy="99.8" r="0.4" fill="black"/>
    <circle cx="110.9" cy="101.5" r="0.4" fill="black"/>
    <circle cx="110.5" cy="103.2" r="0.4" fill="black"/>
    <circle cx="109.9" cy="104.8" r="0.4" fill="black"/>
    <circle cx="110.6" cy="113.3" r="0.6000000000000001" fill="black"/>
    <circle cx="108.4" cy="114.8" r="0.6000000000000001" fill="black"/>
    <circle cx="106.0" cy="115.9" r="0.6000000000000001" fill="black"/>
    <circle cx="103.4" cy="116.7" r="0.6000000000000001" fill="black"/>
    <circle cx="100.8" cy="117.0" r="0.6000000000000001" fill="black"/>
    <circle cx="98.1" cy="116.9" r="0.6000000000000001" fill="black"/>
    <circle cx="95.5" cy="116.4" r="0.6000000000000001" fill="black"/>
    <circle cx="93.0" cy="115.5" r="0.6000000000000001" fill="black"/>
    <circle cx="90.6" cy="114.2" r="0.6000000000000001" fill="black"/>
    <circle cx="88.5" cy="112.5" r="0.6000000000000001" fill="black"/>
    <circle cx="86.7" cy="110.6" r="0.6000000000000001" fill="black"/>
    <circle cx="85.2" cy="108.4" r="0.6000000000000001" fill="black"/>
    <circle cx="84.1" cy="106.0" r="0.6000000000000001" fill="black"/>
    <circle cx="83.3" cy="103.4" r="0.6000000000000001" fill="black"/>
    <circle cx="83.0" cy="100.8" r="0.6000000000000001" fill="black"/>
    <circle cx="83.1" cy="98.1" r="0.6000000000000001" fill="black"/>
    <circle cx="83.6" cy="95.5" r="0.6000000000000001" fill="black"/>
    <circle cx="84.5" cy="93.0" r="0.6000000000000001" fill="black"/>
    <circle cx="85.8" cy="90.6" r="0.6000000000000001" fill="black"/>
    <circle cx="87.5" cy="88.5" r="0.6000000000000001" fill="black"/>
    <circle cx="89.4" cy="86.7" r="0.6000000000000001" fill="black"/>
    <circle cx="91.6" cy="85.2" r="0.6000000000000001" fill="black"/>
    <circle cx="94.0" cy="84.1" r="0.6000000000000001" fill="black"/>
    <circle cx="96.6" cy="83.3" r="0.6000000000000001" fill="black"/>
    <circle cx="99.2" cy="83.0" r="0.6000000000000001" fill="black"/>
    <circle cx="101.9" cy="83.1" r="0.6000000000000001" fill="black"/>
    <circle cx="104.5" cy="83.6" r="0.6000000000000001" fill="black"/>
    <circle cx="107.0" cy="84.5" r="0.6000000000000001" fill="black"/>
    <circle cx="109.4" cy="85.8" r="0.6000000000000001" fill="black"/>
    <circle cx="111.5" cy="87.5" r="0.6000000000000001" fill="black"/>
    <circle cx="113.3" cy="89.4" r="0.6000000000000001" fill="black"/>
    <circle cx="114.8" cy="91.6" r="0.6000000000000001" fill="black"/>
    <circle cx="115.9" cy="94.0" r="0.6000000000000001" fill="black"/>
    <circle cx="116.7" cy="96.6" r="0.6000000000000001" fill="black"/>
    <circle cx="117.0" cy="99.2" r="0.6000000000000001" fill="black"/>
    <circle cx="116.9" cy="101.9" r="0.6000000000000001" fill="black"/>
    <circle cx="116.4" cy="104.5" r="0.6000000000000001" fill="black"/>
    <circle cx="115.5" cy="107.0" r="0.6000000000000001" fill="black"/>
    <circle cx="114.2" cy="109.4" r="0.6000000000000001" fill="black"/>
    <circle cx="112.5" cy="111.5" r="0.6000000000000001" fill="black"/>
    <circle cx="110.6" cy="113.3" r="0.6000000000000001" fill="black"/>
    <circle cx="105.1" cy="122.4" r="0.8" fill="black"/>
    <circle cx="101.5" cy="122.9" r="0.8" fill="black"/>
    <circle cx="97.9" cy="122.9" r="0.8" fill="black"/>
    <circle cx="94.4" cy="122.3" r="0.8" fill="black"/>
    <circle cx="91.0" cy="121.1" r="0.8" fill="black"/>
    <circle cx="87.8" cy="119.5" r="0.8" fill="black"/>
    <circle cx="84.9" cy="117.3" r="0.8" fill="black"/>
    <circle cx="82.3" cy="114.7" r="0.8" fill="black"/>
    <circle cx="80.3" cy="111.8" r="0.8" fill="black"/>
    <circle cx="78.7" cy="108.6" r="0.8" fill="black"/>
    <circle cx="77.6" cy="105.1" r="0.8" fill="black"/>
    <circle cx="77.1" cy="101.5" r="0.8" fill="black"/>
    <circle cx="77.1" cy="97.9" r="0.8" fill="black"/>
    <circle cx="77.7" cy="94.4" r="0.8" fill="black"/>
    <circle cx="78.9" cy="91.0" r="0.8" fill="black"/>
    <circle cx="80.5" cy="87.8" r="0.8" fill="black"/>
    <circle cx="82.7" cy="84.9" r="0.8" fill="black"/>
    <circle cx="85.3" cy="82.3" r="0.8" fill="black"/>
    <circle cx="88.2" cy="80.3" r="0.8" fill="black"/>
    <circle cx="91.4" cy="78.7" r="0.8" fill="black"/>
    <circle cx="94.9" cy="77.6" r="0.8" fill="black"/>
    <circle cx="98.5" cy="77.1" r="0.8" fill="black"/>
    <circle cx="102.1" cy="77.1" r="0.8" fill="black"/>
    <circle cx="105.6" cy="77.7" r="0.8" fill="black"/>
    <circle cx="109.0" cy="78.9" r="0.8" fill="black"/>
    <circle cx="112.2" cy="80.5" r="0.8" fill="black"/>
    <circle cx="115.1" cy="82.7" r="0.8" fill="black"/>
    <circle cx="117.7" cy="85.3" r="0.8" fill="black"/>
    <circle cx="119.7" cy="88.2" r="0.8" fill="black"/>
    <circle cx="121.3" cy="91.4" r="0.8" fill="black"/>
    <circle cx="122.4" cy="94.9" r="0.8" fill="black"/>
    <circle cx="122.9" cy="98.5" r="0.8" fill="black"/>
    <circle cx="122.9" cy="102.1" r="0.8" fill="black"/>
    <circle cx="122.3" cy="105.6" r="0.8" fill="black"/>
    <circle cx="121.1" cy="109.0" r="0.8" fill="black"/>
    <circle cx="119.5" cy="112.2" r="0.8" fill="black"/>
    <circle cx="117.3" cy="115.1" r="0.8" fill="black"/>
    <circle cx="114.7" cy="117.7" r="0.8" fill="black"/>
    <circle cx="111.8" cy="119.7" r="0.8" fill="black"/>
    <circle cx="108.6" cy="121.3" r="0.8" fill="black"/>
    <circle cx="105.1" cy="122.4" r="0.8" fill="black"/>
    <circle cx="93.5" cy="128.3" r="1.0" fill="black"/>
    <circle cx="89.2" cy="126.9" r="1.0" fill="black"/>
    <circle cx="85.1" cy="124.9" r="1.0" fill="black"/>
    <circle cx="81.4" cy="122.3" r="1.0" fill="black"/>
    <circle cx="78.2" cy="119.1" r="1.0" fill="black"/>
    <circle cx="75.4" cy="115.4" r="1.0" fill="black"/>
    <circle cx="73.3" cy="111.4" r="1.0" fill="black"/>
    <circle cx="71.9" cy="107.1" r="1.0" fill="black"/>
    <circle cx="71.1" cy="102.6" r="1.0" fill="black"/>
    <circle cx="71.1" cy="98.0" r="1.0" fill="black"/>
    <circle cx="71.7" cy="93.5" r="1.0" fill="black"/>
    <circle cx="73.1" cy="89.2" r="1.0" fill="black"/>
    <circle cx="75.1" cy="85.1" r="1.0" fill="black"/>
    <circle cx="77.7" cy="81.4" r="1.0" fill="black"/>
    <circle cx="80.9" cy="78.2" r="1.0" fill="black"/>
    <circle cx="84.6" cy="75.4" r="1.0" fill="black"/>
    <circle cx="88.6" cy="73.3" r="1.0" fill="black"/>
    <circle cx="92.9" cy="71.9" r="1.0" fill="black"/>
    <circle cx="97.4" cy="71.1" r="1.0" fill="black"/>
    <circle cx="102.0" cy="71.1" r="1.0" fill="black"/>
    <circle cx="106.5" cy="71.7" r="1.0" fill="black"/>
    <circle cx="110.8" cy="73.1" r="1.0" fill="black"/>
    <circle cx="114.9" cy="75.1" r="1.0" fill="black"/>
    <circle cx="118.6" cy="77.7" r="1.0" fill="black"/>
    <circle cx="121.8" cy="80.9" r="1.0" fill="black"/>
    <circle cx="124.6" cy="84.6" r="1.0" fill="black"/>
    <circle cx="126.7" cy="88.6" r="1.0" fill="black"/>
    <circle cx="128.1" cy="92.9" r="1.0" fill="black"/>
    <circle cx="128.9" cy="97.4" r="1.0" fill="black"/>
    <circle cx="128.9" cy="102.0" r="1.0" fill="black"/>
    <circle cx="128.3" cy="106.5" r="1.0" fill="black"/>
    <circle cx="126.9" cy="110.8" r="1.0" fill="black"/>
    <circle cx="124.9" cy="114.9" r="1.0" fill="black"/>
    <circle cx="122.3" cy="118.6" r="1.0" fill="black"/>
    <circle cx="119.1" cy="121.8" r="1.0" fill="black"/>
    <circle cx="115.4" cy="124.6" r="1.0" fill="black"/>
    <circle cx="111.4" cy="126.7" r="1.0" fill="black"/>
    <circle cx="107.1" cy="128.1" r="1.0" fill="black"/>
    <circle cx="102.6" cy="128.9" r="1.0" fill="black"/>
    <circle cx="98.0" cy="128.9" r="1.0" fill="black"/>
    <circle cx="93.5" cy="128.3" r="1.0" fill="black"/>
    <circle cx="78.2" cy="127.4" r="1.2" fill="black"/>
    <circle cx="74.2" cy="123.6" r="1.2" fill="black"/>
    <circle cx="70.8" cy="119.3" r="1.2" fill="black"/>
    <circle cx="68.1" cy="114.5" r="1.2" fill="black"/>
    <circle cx="66.3" cy="109.3" r="1.2" fill="black"/>
    <circle cx="65.2" cy="103.9" r="1.2" fill="black"/>
    <circle cx="65.0" cy="98.4" r="1.2" fill="black"/>
    <circle cx="65.7" cy="93.0" r="1.2" fill="black"/>
    <circle cx="67.2" cy="87.7" r="1.2" fill="black"/>
    <circle cx="69.6" cy="82.7" r="1.2" fill="black"/>
    <circle cx="72.6" cy="78.2" r="1.2" fill="black"/>
    <circle cx="76.4" cy="74.2" r="1.2" fill="black"/>
    <circle cx="80.7" cy="70.8" r="1.2" fill="black"/>
    <circle cx="85.5" cy="68.1" r="1.2" fill="black"/>
    <circle cx="90.7" cy="66.3" r="1.2" fill="black"/>
    <circle cx="96.1" cy="65.2" r="1.2" fill="black"/>
    <circle cx="101.6" cy="65.0" r="1.2" fill="black"/>
    <circle cx="107.0" cy="65.7" r="1.2" fill="black"/>
    <circle cx="112.3" cy="67.2" r="1.2" fill="black"/>
    <circle cx="117.3" cy="69.6" r="1.2" fill="black"/>
    <circle cx="121.8" cy="72.6" r="1.2" fill="black"/>
    <circle cx="125.8" cy="76.4" r="1.2" fill="black"/>
    <circle cx="129.2" cy="80.7" r="1.2" fill="black"/>
    <circle cx="131.9" cy="85.5" r="1.2" fill="black"/>
    <circle cx="133.7" cy="90.7" r="1.2" fill="black"/>
    <circle cx="134.8" cy="96.1" r="1.2" fill="black"/>
    <circle cx="135.0" cy="101.6" r="1.2" fill="black"/>
    <circle cx="134.3" cy="107.0" r="1.2" fill="black"/>
    <circle cx="132.8" cy="112.3" r="1.2" fill="black"/>
    <circle cx="130.4" cy="117.3" r="1.2" fill="black"/>
    <circle cx="127.4" cy="121.8" r="1.2" fill="black"/>
    <circle cx="123.6" cy="125.8" r="1.2" fill="black"/>
    <circle cx="119.3" cy="129.2" r="1.2" fill="black"/>
    <circle cx="114.5" cy="131.9" r="1.2" fill="black"/>
    <circle cx="109.3" cy="133.7" r="1.2" fill="black"/>
    <circle cx="103.9" cy="134.8" r="1.2" fill="black"/>
    <circle cx="98.4" cy="135.0" r="1.2" fill="black"/>
    <circle cx="93.0" cy="134.3" r="1.2" fill="black"/>
    <circle cx="87.7" cy="132.8" r="1.2" fill="black"/>
    <circle cx="82.7" cy="130.4" r="1.2" fill="black"/>
    <circle cx="78.2" cy="127.4" r="1.2" fill="black"/>
    <circle cx="63.1" cy="117.8" r="1.4" fill="black"/>
    <circle cx="60.7" cy="111.8" r="1.4" fill="black"/>
    <circle cx="59.4" cy="105.5" r="1.4" fill="black"/>
    <circle cx="59.0" cy="99.1" r="1.4" fill="black"/>
    <circle cx="59.7" cy="92.7" r="1.4" fill="black"/>
    <circle cx="61.3" cy="86.5" r="1.4" fill="black"/>
    <circle cx="63.9" cy="80.6" r="1.4" fill="black"/>
    <circle cx="67.4" cy="75.2" r="1.4" fill="black"/>
    <circle cx="71.7" cy="70.4" r="1.4" fill="black"/>
    <circle cx="76.7" cy="66.3" r="1.4" fill="black"/>
    <circle cx="82.2" cy="63.1" r="1.4" fill="black"/>
    <circle cx="88.2" cy="60.7" r="1.4" fill="black"/>
    <circle cx="94.5" cy="59.4" r="1.4" fill="black"/>
    <circle cx="100.9" cy="59.0" r="1.4" fill="black"/>
    <circle cx="107.3" cy="59.7" r="1.4" fill="black"/>
    <circle cx="113.5" cy="61.3" r="1.4" fill="black"/>
    <circle cx="119.4" cy="63.9" r="1.4" fill="black"/>
    <circle cx="124.8" cy="67.4" r="1.4" fill="black"/>
    <circle cx="129.6" cy="71.7" r="1.4" fill="black"/>
    <circle cx="133.7" cy="76.7" r="1.4" fill="black"/>
    <circle cx="136.9" cy="82.2" r="1.4" fill="black"/>
    <circle cx="139.3" cy="88.2" r="1.4" fill="black"/>
    <circle cx="140.6" cy="94.5" r="1.4" fill="black"/>
    <circle cx="141.0" cy="100.9" r="1.4" fill="black"/>
    <circle cx="140.3" cy="107.3" r="1.4" fill="black"/>
    <circle cx="138.7" cy="113.5" r="1.4" fill="black"/>
    <circle cx="136.1" cy="119.4" r="1.4" fill="black"/>
    <circle cx="132.6" cy="124.8" r="1.4" fill="black"/>
    <circle cx="128.3" cy="129.6" r="1.4" fill="black"/>
    <circle cx="123.3" cy="133.7" r="1.4" fill="black"/>
    <circle cx="117.8" cy="136.9" r="1.4" fill="black"/>
    <circle cx="111.8" cy="139.3" r="1.4" fill="black"/>
    <circle cx="105.5" cy="140.6" r="1.4" fill="black"/>
    <circle cx="99.1" cy="141.0" r="1.4" fill="black"/>
    <circle cx="92.7" cy="140.3" r="1.4" fill="black"/>
    <circle cx="86.5" cy="138.7" r="1.4" fill="black"/>
    <circle cx="80.6" cy="136.1" r="1.4" fill="black"/>
    <circle cx="75.2" cy="132.6" r="1.4" fill="black"/>
    <circle cx="70.4" cy="128.3" r="1.4" fill="black"/>
    <circle cx="66.3" cy="123.3" r="1.4" fill="black"/>
    <circle cx="63.1" cy="117.8" r="1.4" fill="black"/>
    <circle cx="53.0" cy="100.0" r="1.5999999999999999" fill="black"/>
    <circle cx="53.6" cy="92.6" r="1.5999999999999999" fill="black"/>
    <circle cx="55.3" cy="85.5" r="1.5999999999999999" fill="black"/>
    <circle cx="58.1" cy="78.7" r="1.5999999999999999" fill="black"/>
    <circle cx="62.0" cy="72.4" r="1.5999999999999999" fill="black"/>
    <circle cx="66.8" cy="66.8" r="1.5999999999999999" fill="black"/>
    <circle cx="72.4" cy="62.0" r="1.5999999999999999" fill="black"/>
    <circle cx="78.7" cy="58.1" r="1.5999999999999999" fill="black"/>
    <circle cx="85.5" cy="55.3" r="1.5999999999999999" fill="black"/>
    <circle cx="92.6" cy="53.6" r="1.5999999999999999" fill="black"/>
    <circle cx="100.0" cy="53.0" r="1.5999999999999999" fill="black"/>
    <circle cx="107.4" cy="53.6" r="1.5999999999999999" fill="black"/>
    <circle cx="114.5" cy="55.3" r="1.5999999999999999" fill="black"/>
    <circle cx="121.3" cy="58.1" r="1.5999999999999999" fill="black"/>
    <circle cx="127.6" cy="62.0" r="1.5999999999999999" fill="black"/>
    <circle cx="133.2" cy="66.8" r="1.5999999999999999" fill="black"/>
    <circle cx="138.0" cy="72.4" r="1.5999999999999999" fill="black"/>
    <circle cx="141.9" cy="78.7" r="1.5999999999999999" fill="black"/>
    <circle cx="144.7" cy="85.5" r="1.5999999999999999" fill="black"/>
    <circle cx="146.4" cy="92.6" r="1.5999999999999999" fill="black"/>
    <circle cx="147.0" cy="100.0" r="1.5999999999999999" fill="black"/>
    <circle cx="146.4" cy="107.4" r="1.5999999999999999" fill="black"/>
    <circle cx="144.7" cy="114.5" r="1.5999999999999999" fill="black"/>
    <circle cx="141.9" cy="121.3" r="1.5999999999999999" fill="black"/>
    <circle cx="138.0" cy="127.6" r="1.5999999999999999" fill="black"/>
    <circle cx="133.2" cy="133.2" r="1.5999999999999999" fill="black"/>
    <circle cx="127.6" cy="138.0" r="1.5999999999999999" fill="black"/>
    <circle cx="121.3" cy="141.9" r="1.5999999999999999" fill="black"/>
    <circle cx="114.5" cy="144.7" r="1.5999999999999999" fill="black"/>
    <circle cx="107.4" cy="146.4" r="1.5999999999999999" fill="black"/>
    <circle cx="100.0" cy="147.0" r="1.5999999999999999" fill="black"/>
    <circle cx="92.6" cy="146.4" r="1.5999999999999999" fill="black"/>
    <circle cx="85.5" cy="144.7" r="1.5999999999999999" fill="black"/>
    <circle cx="78.7" cy="141.9" r="1.5999999999999999" fill="black"/>
    <circle cx="72.4" cy="138.0" r="1.5999999999999999" fill="black"/>
    <circle cx="66.8" cy="133.2" r="1.5999999999999999" fill="black"/>
    <circle cx="62.0" cy="127.6" r="1.5999999999999999" fill="black"/>
    <circle cx="58.1" cy="121.3" r="1.5999999999999999" fill="black"/>
    <circle cx="55.3" cy="114.5" r="1.5999999999999999" fill="black"/>
    <circle cx="53.6" cy="107.4" r="1.5999999999999999" fill="black"/>
    <circle cx="53.0" cy="100.0" r="1.5999999999999999" fill="black"/>
    <circle cx="52.2" cy="77.0" r="1.8" fill="black"/>
    <circle cx="56.4" cy="69.8" r="1.8" fill="black"/>
    <circle cx="61.7" cy="63.4" r="1.8" fill="black"/>
    <circle cx="67.9" cy="57.8" r="1.8" fill="black"/>
    <circle cx="74.9" cy="53.3" r="1.8" fill="black"/>
    <circle cx="82.5" cy="50.0" r="1.8" fill="black"/>
    <circle cx="90.5" cy="47.9" r="1.8" fill="black"/>
    <circle cx="98.8" cy="47.0" r="1.8" fill="black"/>
    <circle cx="107.1" cy="47.5" r="1.8" fill="black"/>
    <circle cx="115.2" cy="49.2" r="1.8" fill="black"/>
    <circle cx="123.0" cy="52.2" r="1.8" fill="black"/>
    <circle cx="130.2" cy="56.4" r="1.8" fill="black"/>
    <circle cx="136.6" cy="61.7" r="1.8" fill="black"/>
    <circle cx="142.2" cy="67.9" r="1.8" fill="black"/>
    <circle cx="146.7" cy="74.9" r="1.8" fill="black"/>
    <circle cx="150.0" cy="82.5" r="1.8" fill="black"/>
    <circle cx="152.1" cy="90.5" r="1.8" fill="black"/>
    <circle cx="153.0" cy="98.8" r="1.8" fill="black"/>
    <circle cx="152.5" cy="107.1" r="1.8" fill="black"/>
    <circle cx="150.8" cy="115.2" r="1.8" fill="black"/>
    <circle cx="147.8" cy="123.0" r="1.8" fill="black"/>
    <circle cx="143.6" cy="130.2" r="1.8" fill="black"/>
    <circle cx="138.3" cy="136.6" r="1.8" fill="black"/>
    <circle cx="132.1" cy="142.2" r="1.8" fill="black"/>
    <circle cx="125.1" cy="146.7" r="1.8" fill="black"/>
    <circle cx="117.5" cy="150.0" r="1.8" fill="black"/>
    <circle cx="109.5" cy="152.1" r="1.8" fill="black"/>
    <circle cx="101.2" cy="153.0" r="1.8" fill="black"/>
    <circle cx="92.9" cy="152.5" r="1.8" fill="black"/>
    <circle cx="84.8" cy="150.8" r="1.8" fill="black"/>
    <circle cx="77.0" cy="147.8" r="1.8" fill="black"/>
    <circle cx="69.8" cy="143.6" r="1.8" fill="black"/>
    <circle cx="63.4" cy="138.3" r="1.8" fill="black"/>
    <circle cx="57.8" cy="132.1" r="1.8" fill="black"/>
    <circle cx="53.3" cy="125.1" r="1.8" fill="black"/>
    <circle cx="50.0" cy="117.5" r="1.8" fill="black"/>
    <circle cx="47.9" cy="109.5" r="1.8" fill="black"/>
    <circle cx="47.0" cy="101.2" r="1.8" fill="black"/>
    <circle cx="47.5" cy="92.9" r="1.8" fill="black"/>
    <circle cx="49.2" cy="84.8" r="1.8" fill="black"/>
    <circle cx="52.2" cy="77.0" r="1.8" fill="black"/>
    <circle cx="63.2" cy="53.9" r="2.0" fill="black"/>
    <circle cx="70.9" cy="48.7" r="2.0" fill="black"/>
    <circle cx="79.3" cy="44.8" r="2.0" fill="black"/>
    <circle cx="88.2" cy="42.2" r="2.0" fill="black"/>
    <circle cx="97.4" cy="41.1" r="2.0" fill="black"/>
    <circle cx="106.6" cy="41.4" r="2.0" fill="black"/>
    <circle cx="115.7" cy="43.1" r="2.0" fill="black"/>
    <circle cx="124.4" cy="46.3" r="2.0" fill="black"/>
    <circle cx="132.5" cy="50.8" r="2.0" fill="black"/>
    <circle cx="139.8" cy="56.5" r="2.0" fill="black"/>
    <circle cx="146.1" cy="63.2" r="2.0" fill="black"/>
    <circle cx="151.3" cy="70.9" r="2.0" fill="black"/>
    <circle cx="155.2" cy="79.3" r="2.0" fill="black"/>
    <circle cx="157.8" cy="88.2" r="2.0" fill="black"/>
    <circle cx="158.9" cy="97.4" r="2.0" fill="black"/>
    <circle cx="158.6" cy="106.6" r="2.0" fill="black"/>
    <circle cx="156.9" cy="115.7" r="2.0" fill="black"/>
    <circle cx="153.7" cy="124.4" r="2.0" fill="black"/>
    <circle cx="149.2" cy="132.5" r="2.0" fill="black"/>
    <circle cx="143.5" cy="139.8" r="2.0" fill="black"/>
    <circle cx="136.8" cy="146.1" r="2.0" fill="black"/>
    <circle cx="129.1" cy="151.3" r="2.0" fill="black"/>
    <circle cx="120.7" cy="155.2" r="2.0" fill="black"/>
    <circle cx="111.8" cy="157.8" r="2.0" fill="black"/>
    <circle cx="102.6" cy="158.9" r="2.0" fill="black"/>
    <circle cx="93.4" cy="158.6" r="2.0" fill="black"/>
    <circle cx="84.3" cy="156.9" r="2.0" fill="black"/>
    <circle cx="75.6" cy="153.7" r="2.0" fill="black"/>
    <circle cx="67.5" cy="149.2" r="2.0" fill="black"/>
    <circle cx="60.2" cy="143.5" r="2.0" fill="black"/>
    <circle cx="53.9" cy="136.8" r="2.0" fill="black"/>
    <circle cx="48.7" cy="129.1" r="2.0" fill="black"/>
    <circle cx="44.8" cy="120.7" r="2.0" fill="black"/>
    <circle cx="42.2" cy="111.8" r="2.0" fill="black"/>
    <circle cx="41.1" cy="102.6" r="2.0" fill="black"/>
    <circle cx="41.4" cy="93.4" r="2.0" fill="black"/>
    <circle cx="43.1" cy="84.3" r="2.0" fill="black"/>
    <circle cx="46.3" cy="75.6" r="2.0" fill="black"/>
    <circle cx="50.8" cy="67.5" r="2.0" fill="black"/>
    <circle cx="56.5" cy="60.2" r="2.0" fill="black"/>
    <circle cx="63.2" cy="53.9" r="2.0" fill="black"/>
    <circle cx="85.5" cy="36.6" r="2.2" fill="black"/>
    <circle cx="95.6" cy="35.1" r="2.2" fill="black"/>
    <circle cx="105.8" cy="35.3" r="2.2" fill="black"/>
    <circle cx="115.9" cy="37.0" r="2.2" fill="black"/>
    <circle cx="125.5" cy="40.2" r="2.2" fill="black"/>
    <circle cx="134.6" cy="45.0" r="2.2" fill="black"/>
    <circle cx="142.8" cy="51.1" r="2.2" fill="black"/>
    <circle cx="149.9" cy="58.3" r="2.2" fill="black"/>
    <circle cx="155.8" cy="66.7" r="2.2" fill="black"/>
    <circle cx="160.3" cy="75.8" r="2.2" fill="black"/>
    <circle cx="163.4" cy="85.5" r="2.2" fill="black"/>
    <circle cx="164.9" cy="95.6" r="2.2" fill="black"/>
    <circle cx="164.7" cy="105.8" r="2.2" fill="black"/>
    <circle cx="163.0" cy="115.9" r="2.2" fill="black"/>
    <circle cx="159.8" cy="125.5" r="2.2" fill="black"/>
    <circle cx="155.0" cy="134.6" r="2.2" fill="black"/>
    <circle cx="148.9" cy="142.8" r="2.2" fill="black"/>
    <circle cx="141.7" cy="149.9" r="2.2" fill="black"/>
    <circle cx="133.3" cy="155.8" r="2.2" fill="black"/>
    <circle cx="124.2" cy="160.3" r="2.2" fill="black"/>
    <circle cx="114.5" cy="163.4" r="2.2" fill="black"/>
    <circle cx="104.4" cy="164.9" r="2.2" fill="black"/>
    <circle cx="94.2" cy="164.7" r="2.2" fill="black"/>
    <circle cx="84.1" cy="163.0" r="2.2" fill="black"/>
    <circle cx="74.5" cy="159.8" r="2.2" fill="black"/>
    <circle cx="65.4" cy="155.0" r="2.2" fill="black"/>
    <circle cx="57.2" cy="148.9" r="2.2" fill="black"/>
    <circle cx="50.1" cy="141.7" r="2.2" fill="black"/>
    <circle cx="44.2" cy="133.3" r="2.2" fill="black"/>
    <circle cx="39.7" cy="124.2" r="2.2" fill="black"/>
    <circle cx="36.6" cy="114.5" r="2.2" fill="black"/>
    <circle cx="35.1" cy="104.4" r="2.2" fill="black"/>
    <circle cx="35.3" cy="94.2" r="2.2" fill="black"/>
    <circle cx="37.0" cy="84.1" r="2.2" fill="black"/>
    <circle cx="40.2" cy="74.5" r="2.2" fill="black"/>
    <circle cx="45.0" cy="65.4" r="2.2" fill="black"/>
    <circle cx="51.1" cy="57.2" r="2.2" fill="black"/>
    <circle cx="58.3" cy="50.1" r="2.2" fill="black"/>
    <circle cx="66.7" cy="44.2" r="2.2" fill="black"/>
    <circle cx="75.8" cy="39.7" r="2.2" fill="black"/>
    <circle cx="85.5" cy="36.6" r="2.2" fill="black"/>
    <circle cx="115.8" cy="30.8" r="2.4000000000000004" fill="black"/>
    <circle cx="126.4" cy="34.1" r="2.4000000000000004" fill="black"/>
    <circle cx="136.4" cy="39.1" r="2.4000000000000004" fill="black"/>
    <circle cx="145.5" cy="45.5" r="2.4000000000000004" fill="black"/>
    <circle cx="153.5" cy="53.3" r="2.4000000000000004" fill="black"/>
    <circle cx="160.1" cy="62.2" r="2.4000000000000004" fill="black"/>
    <circle cx="165.3" cy="72.1" r="2.4000000000000004" fill="black"/>
    <circle cx="168.8" cy="82.7" r="2.4000000000000004" fill="black"/>
    <circle cx="170.7" cy="93.6" r="2.4000000000000004" fill="black"/>
    <circle cx="170.8" cy="104.8" r="2.4000000000000004" fill="black"/>
    <circle cx="169.2" cy="115.8" r="2.4000000000000004" fill="black"/>
    <circle cx="165.9" cy="126.4" r="2.4000000000000004" fill="black"/>
    <circle cx="160.9" cy="136.4" r="2.4000000000000004" fill="black"/>
    <circle cx="154.5" cy="145.5" r="2.4000000000000004" fill="black"/>
    <circle cx="146.7" cy="153.5" r="2.4000000000000004" fill="black"/>
    <circle cx="137.8" cy="160.1" r="2.4000000000000004" fill="black"/>
    <circle cx="127.9" cy="165.3" r="2.4000000000000004" fill="black"/>
    <circle cx="117.3" cy="168.8" r="2.4000000000000004" fill="black"/>
    <circle cx="106.4" cy="170.7" r="2.4000000000000004" fill="black"/>
    <circle cx="95.2" cy="170.8" r="2.4000000000000004" fill="black"/>
    <circle cx="84.2" cy="169.2" r="2.4000000000000004" fill="black"/>
    <circle cx="73.6" cy="165.9" r="2.4000000000000004" fill="black"/>
    <circle cx="63.6" cy="160.9" r="2.4000000000000004" fill="black"/>
    <circle cx="54.5" cy="154.5" r="2.4000000000000004" fill="black"/>
    <circle cx="46.5" cy="146.7" r="2.4000000000000004" fill="black"/>
    <circle cx="39.9" cy="137.8" r="2.4000000000000004" fill="black"/>
    <circle cx="34.7" cy="127.9" r="2.4000000000000004" fill="black"/>
    <circle cx="31.2" cy="117.3" r="2.4000000000000004" fill="black"/>
    <circle cx="29.3" cy="106.4" r="2.4000000000000004" fill="black"/>
    <circle cx="29.2" cy="95.2" r="2.4000000000000004" fill="black"/>
    <circle cx="30.8" cy="84.2" r="2.4000000000000004" fill="black"/>
    <circle cx="34.1" cy="73.6" r="2.4000000000000004" fill="black"/>
    <circle cx="39.1" cy="63.6" r="2.4000000000000004" fill="black"/>
    <circle cx="45.5" cy="54.5" r="2.4000000000000004" fill="black"/>
    <circle cx="53.3" cy="46.5" r="2.4000000000000004" fill="black"/>
    <circle cx="62.2" cy="39.9" r="2.4000000000000004" fill="black"/>
    <circle cx="72.1" cy="34.7" r="2.4000000000000004" fill="black"/>
    <circle cx="82.7" cy="31.2" r="2.4000000000000004" fill="black"/>
    <circle cx="93.6" cy="29.3" r="2.4000000000000004" fill="black"/>
    <circle cx="104.8" cy="29.2" r="2.4000000000000004" fill="black"/>
    <circle cx="115.8" cy="30.8" r="2.4000000000000004" fill="black"/>
    <circle cx="148.0" cy="39.8" r="2.6" fill="black"/>
    <circle cx="156.8" cy="48.1" r="2.6" fill="black"/>
    <circle cx="164.3" cy="57.6" r="2.6" fill="black"/>
    <circle cx="170.1" cy="68.2" r="2.6" fill="black"/>
    <circle cx="174.2" cy="79.5" r="2.6" fill="black"/>
    <circle cx="176.5" cy="91.4" r="2.6" fill="black"/>
    <circle cx="176.9" cy="103.5" r="2.6" fill="black"/>
    <circle cx="175.4" cy="115.4" r="2.6" fill="black"/>
    <circle cx="172.1" cy="127.1" r="2.6" fill="black"/>
    <circle cx="167.0" cy="138.0" r="2.6" fill="black"/>
    <circle cx="160.2" cy="148.0" r="2.6" fill="black"/>
    <circle cx="151.9" cy="156.8" r="2.6" fill="black"/>
    <circle cx="142.4" cy="164.3" r="2.6" fill="black"/>
    <circle cx="131.8" cy="170.1" r="2.6" fill="black"/>
    <circle cx="120.5" cy="174.2" r="2.6" fill="black"/>
    <circle cx="108.6" cy="176.5" r="2.6" fill="black"/>
    <circle cx="96.5" cy="176.9" r="2.6" fill="black"/>
    <circle cx="84.6" cy="175.4" r="2.6" fill="black"/>
    <circle cx="72.9" cy="172.1" r="2.6" fill="black"/>
    <circle cx="62.0" cy="167.0" r="2.6" fill="black"/>
    <circle cx="52.0" cy="160.2" r="2.6" fill="black"/>
    <circle cx="43.2" cy="151.9" r="2.6" fill="black"/>
    <circle cx="35.7" cy="142.4" r="2.6" fill="black"/>
    <circle cx="29.9" cy="131.8" r="2.6" fill="black"/>
    <circle cx="25.8" cy="120.5" r="2.6" fill="black"/>
    <circle cx="23.5" cy="108.6" r="2.6" fill="black"/>
    <circle cx="23.1" cy="96.5" r="2.6" fill="black"/>
    <circle cx="24.6" cy="84.6" r="2.6" fill="black"/>
    <circle cx="27.9" cy="72.9" r="2.6" fill="black"/>
    <circle cx="33.0" cy="62.0" r="2.6" fill="black"/>
    <circle cx="39.8" cy="52.0" r="2.6" fill="black"/>
    <circle cx="48.1" cy="43.2" r="2.6" fill="black"/>
    <circle cx="57.6" cy="35.7" r="2.6" fill="black"/>
    <circle cx="68.2" cy="29.9" r="2.6" fill="black"/>
    <circle cx="79.5" cy="25.8" r="2.6" fill="black"/>
    <circle cx="91.4" cy="23.5" r="2.6" fill="black"/>
    <circle cx="103.5" cy="23.1" r="2.6" fill="black"/>
    <circle cx="115.4" cy="24.6" r="2.6" fill="black"/>
    <circle cx="127.1" cy="27.9" r="2.6" fill="black"/>
    <circle cx="138.0" cy="33.0" r="2.6" fill="black"/>
    <circle cx="148.0" cy="39.8" r="2.6" fill="black"/>
    <circle cx="174.8" cy="64.0" r="2.8000000000000003" fill="black"/>
    <circle cx="179.5" cy="76.1" r="2.8000000000000003" fill="black"/>
    <circle cx="182.2" cy="88.9" r="2.8000000000000003" fill="black"/>
    <circle cx="183.0" cy="101.9" r="2.8000000000000003" fill="black"/>
    <circle cx="181.7" cy="114.8" r="2.8000000000000003" fill="black"/>
    <circle cx="178.3" cy="127.4" r="2.8000000000000003" fill="black"/>
    <circle cx="173.1" cy="139.3" r="2.8000000000000003" fill="black"/>
    <circle cx="166.0" cy="150.3" r="2.8000000000000003" fill="black"/>
    <circle cx="157.4" cy="160.0" r="2.8000000000000003" fill="black"/>
    <circle cx="147.3" cy="168.2" r="2.8000000000000003" fill="black"/>
    <circle cx="136.0" cy="174.8" r="2.8000000000000003" fill="black"/>
    <circle cx="123.9" cy="179.5" r="2.8000000000000003" fill="black"/>
    <circle cx="111.1" cy="182.2" r="2.8000000000000003" fill="black"/>
    <circle cx="98.1" cy="183.0" r="2.8000000000000003" fill="black"/>
    <circle cx="85.2" cy="181.7" r="2.8000000000000003" fill="black"/>
    <circle cx="72.6" cy="178.3" r="2.8000000000000003" fill="black"/>
    <circle cx="60.7" cy="173.1" r="2.8000000000000003" fill="black"/>
    <circle cx="49.7" cy="166.0" r="2.8000000000000003" fill="black"/>
    <circle cx="40.0" cy="157.4" r="2.8000000000000003" fill="black"/>
    <circle cx="31.8" cy="147.3" r="2.8000000000000003" fill="black"/>
    <circle cx="25.2" cy="136.0" r="2.8000000000000003" fill="black"/>
    <circle cx="20.5" cy="123.9" r="2.8000000000000003" fill="black"/>
    <circle cx="17.8" cy="111.1" r="2.8000000000000003" fill="black"/>
    <circle cx="17.0" cy="98.1" r="2.8000000000000003" fill="black"/>
    <circle cx="18.3" cy="85.2" r="2.8000000000000003" fill="black"/>
    <circle cx="21.7" cy="72.6" r="2.8000000000000003" fill="black"/>
    <circle cx="26.9" cy="60.7" r="2.8000000000000003" fill="black"/>
    <circle cx="34.0" cy="49.7" r="2.8000000000000003" fill="black"/>
    <circle cx="42.6" cy="40.0" r="2.8000000000000003" fill="black"/>
    <circle cx="52.7" cy="31.8" r="2.8000000000000003" fill="black"/>
    <circle cx="64.0" cy="25.2" r="2.8000000000000003" fill="black"/>
    <circle cx="76.1" cy="20.5" r="2.8000000000000003" fill="black"/>
    <circle cx="88.9" cy="17.8" r="2.8000000000000003" fill="black"/>
    <circle cx="101.9" cy="17.0" r="2.8000000000000003" fill="black"/>
    <circle cx="114.8" cy="18.3" r="2.8000000000000003" fill="black"/>
    <circle cx="127.4" cy="21.7" r="2.8000000000000003" fill="black"/>
    <circle cx="139.3" cy="26.9" r="2.8000000000000003" fill="black"/>
    <circle cx="150.3" cy="34.0" r="2.8000000000000003" fill="black"/>
    <circle cx="160.0" cy="42.6" r="2.8000000000000003" fill="black"/>
    <circle cx="168.2" cy="52.7" r="2.8000000000000003" fill="black"/>
    <circle cx="174.8" cy="64.0" r="2.8000000000000003" fill="black"/>
    <circle cx="189.0" cy="100.0" r="3.0" fill="black"/>
    <circle cx="187.9" cy="113.9" r="3.0" fill="black"/>
    <circle cx="184.6" cy="127.5" r="3.0" fill="black"/>
    <circle cx="179.3" cy="140.4" r="3.0" fill="black"/>
    <circle cx="172.0" cy="152.3" r="3.0" fill="black"/>
    <circle cx="162.9" cy="162.9" r="3.0" fill="black"/>
    <circle cx="152.3" cy="172.0" r="3.0" fill="black"/>
    <circle cx="140.4" cy="179.3" r="3.0" fill="black"/>
    <circle cx="127.5" cy="184.6" r="3.0" fill="black"/>
    <circle cx="113.9" cy="187.9" r="3.0" fill="black"/>
    <circle cx="100.0" cy="189.0" r="3.0" fill="black"/>
    <circle cx="86.1" cy="187.9" r="3.0" fill="black"/>
    <circle cx="72.5" cy="184.6" r="3.0" fill="black"/>
    <circle cx="59.6" cy="179.3" r="3.0" fill="black"/>
    <circle cx="47.7" cy="172.0" r="3.0" fill="black"/>
    <circle cx="37.1" cy="162.9" r="3.0" fill="black"/>
    <circle cx="28.0" cy="152.3" r="3.0" fill="black"/>
    <circle cx="20.7" cy="140.4" r="3.0" fill="black"/>
    <circle cx="15.4" cy="127.5" r="3.0" fill="black"/>
    <circle cx="12.1" cy="113.9" r="3.0" fill="black"/>
    <circle cx="11.0" cy="100.0" r="3.0" fill="black"/>
    <circle cx="12.1" cy="86.1" r="3.0" fill="black"/>
    <circle cx="15.4" cy="72.5" r="3.0" fill="black"/>
    <circle cx="20.7" cy="59.6" r="3.0" fill="black"/>
    <circle cx="28.0" cy="47.7" r="3.0" fill="black"/>
    <circle cx="37.1" cy="37.1" r="3.0" fill="black"/>
    <circle cx="47.7" cy="28.0" r="3.0" fill="black"/>
    <circle cx="59.6" cy="20.7" r="3.0" fill="black"/>
    <circle cx="72.5" cy="15.4" r="3.0" fill="black"/>
    <circle cx="86.1" cy="12.1" r="3.0" fill="black"/>
    <circle cx="100.0" cy="11.0" r="3.0" fill="black"/>
    <circle cx="113.9" cy="12.1" r="3.0" fill="black"/>
    <circle cx="127.5" cy="15.4" r="3.0" fill="black"/>
    <circle cx="140.4" cy="20.7" r="3.0" fill="black"/>
    <circle cx="152.3" cy="28.0" r="3.0" fill="black"/>
    <circle cx="162.9" cy="37.1" r="3.0" fill="black"/>
    <circle cx="172.0" cy="47.7" r="3.0" fill="black"/>
    <circle cx="179.3" cy="59.6" r="3.0" fill="black"/>
    <circle cx="184.6" cy="72.5" r="3.0" fill="black"/>
    <circle cx="187.9" cy="86.1" r="3.0" fill="black"/>
    <circle cx="189.0" cy="100.0" r="3.0" fill="black"/>
  </g>
</svg>
