<?xml version='1.0' encoding='UTF-8' standalone='no'?>
<svg width="200" height="200" xmlns="http://www.w3.org/2000/svg">
  <g opacity="1.0">
    <rect x="0" y="0" width="200" height="200" fill="white" stroke="black" stroke-width="1"/>
    <polygon points="115.1,102.5 176.0,110.4 175.4,114.2 " stroke="None" stroke-width="0.5" fill="black"/>
    <polygon points="123.8,108.0 177.6,123.5 176.2,127.8 " stroke="None" stroke-width="0.5" fill="black"/>
    <polygon points="117.9,109.4 173.6,135.5 171.1,140.4 " stroke="None" stroke-width="0.5" fill="black"/>
    <polygon points="120.1,115.1 163.0,144.7 160.5,148.1 " stroke="None" stroke-width="0.5" fill="black"/>
    <polygon points="115.7,116.3 155.8,154.5 152.2,158.0 " stroke="None" stroke-width="0.5" fill="black"/>
    <polygon points="115.7,122.7 143.9,160.6 141.1,162.6 " stroke="None" stroke-width="0.5" fill="black"/>
    <polygon points="106.6,113.9 137.4,172.7 132.7,174.9 " stroke="None" stroke-width="0.5" fill="black"/>
    <polygon points="107.7,126.5 124.9,178.5 120.9,179.6 " stroke="None" stroke-width="0.5" fill="black"/>
    <polygon points="103.0,124.9 110.7,175.7 107.7,176.1 " stroke="None" stroke-width="0.5" fill="black"/>
    <polygon points="99.1,122.6 99.8,179.2 93.8,178.9 " stroke="None" stroke-width="0.5" fill="black"/>
    <polygon points="95.5,122.2 86.2,180.6 81.1,179.5 " stroke="None" stroke-width="0.5" fill="black"/>
    <polygon points="92.8,118.9 73.8,172.6 71.5,171.7 " stroke="None" stroke-width="0.5" fill="black"/>
    <polygon points="93.6,111.2 63.5,166.9 60.3,165.0 " stroke="None" stroke-width="0.5" fill="black"/>
    <polygon points="81.0,123.2 51.0,162.3 48.8,160.5 " stroke="None" stroke-width="0.5" fill="black"/>
    <polygon points="84.9,113.4 39.5,157.1 36.0,153.2 " stroke="None" stroke-width="0.5" fill="black"/>
    <polygon points="85.0,109.5 33.0,144.1 31.4,141.6 " stroke="None" stroke-width="0.5" fill="black"/>
    <polygon points="88.1,105.1 23.3,134.4 22.0,131.5 " stroke="None" stroke-width="0.5" fill="black"/>
    <polygon points="80.4,104.8 18.7,121.8 17.8,118.5 " stroke="None" stroke-width="0.5" fill="black"/>
    <polygon points="70.1,102.4 22.4,107.6 22.2,105.0 " stroke="None" stroke-width="0.5" fill="black"/>
    <polygon points="82.3,98.6 23.9,95.4 24.1,92.3 " stroke="None" stroke-width="0.5" fill="black"/>
    <polygon points="82.7,95.7 16.7,81.4 17.6,77.7 " stroke="None" stroke-width="0.5" fill="black"/>
    <polygon points="79.1,91.1 26.8,70.2 27.8,67.8 " stroke="None" stroke-width="0.5" fill="black"/>
    <polygon points="91.2,94.4 32.4,59.3 34.2,56.4 " stroke="None" stroke-width="0.5" fill="black"/>
    <polygon points="94.0,94.7 37.4,46.3 39.1,44.3 " stroke="None" stroke-width="0.5" fill="black"/>
    <polygon points="91.8,90.0 49.3,40.7 52.0,38.4 " stroke="None" stroke-width="0.5" fill="black"/>
    <polygon points="93.6,88.8 57.4,29.6 60.3,27.9 " stroke="None" stroke-width="0.5" fill="black"/>
    <polygon points="92.0,78.8 68.7,22.2 71.8,21.0 " stroke="None" stroke-width="0.5" fill="black"/>
    <polygon points="94.0,70.6 82.2,21.1 85.5,20.5 " stroke="None" stroke-width="0.5" fill="black"/>
    <polygon points="98.8,70.0 95.3,22.8 98.5,22.7 " stroke="None" stroke-width="0.5" fill="black"/>
    <polygon points="101.8,84.8 107.8,24.0 110.6,24.3 " stroke="None" stroke-width="0.5" fill="black"/>
    <polygon points="106.3,78.2 119.5,27.1 122.5,28.0 " stroke="None" stroke-width="0.5" fill="black"/>
    <polygon points="107.6,83.9 132.4,28.1 135.2,29.4 " stroke="None" stroke-width="0.5" fill="black"/>
    <polygon points="117.0,75.3 142.3,35.5 145.3,37.6 " stroke="None" stroke-width="0.5" fill="black"/>
    <polygon points="114.0,85.4 153.2,42.1 155.7,44.5 " stroke="None" stroke-width="0.5" fill="black"/>
    <polygon points="110.3,92.3 162.0,51.8 163.5,53.8 " stroke="None" stroke-width="0.5" fill="black"/>
    <polygon points="122.2,88.3 171.9,60.4 173.4,63.4 " stroke="None" stroke-width="0.5" fill="black"/>
    <polygon points="121.5,92.8 168.3,75.9 169.1,78.2 " stroke="None" stroke-width="0.5" fill="black"/>
    <polygon points="110.3,98.3 179.2,84.7 180.0,89.5 " stroke="None" stroke-width="0.5" fill="black"/>
    <polygon points="108.0,100.0 180.6,97.9 180.6,102.1 " stroke="None" stroke-width="0.5" fill="black"/>
  </g>
</svg>
