<?xml version='1.0' encoding='UTF-8' standalone='no'?>
<svg width="200" height="200" xmlns="http://www.w3.org/2000/svg">
  <g opacity="1.0">
    <line x1="98.0" y1="101.15470053837925" x2="102.0" y2="101.15470053837925" stroke="#E0C2D7" stroke_width="0.1"/>
    <line x1="98.0" y1="101.15470053837925" x2="100" y2="97.6905989232415" stroke="#E0C2D7" stroke_width="0.1"/>
    <line x1="102.0" y1="101.15470053837925" x2="100" y2="97.6905989232415" stroke="#E0C2D7" stroke_width="0.1"/>
    <line x1="96.0" y1="102.3094010767585" x2="104.0" y2="102.3094010767585" stroke="#997AD8" stroke_width="0.1"/>
    <line x1="96.0" y1="102.3094010767585" x2="100" y2="95.38119784648299" stroke="#997AD8" stroke_width="0.1"/>
    <line x1="104.0" y1="102.3094010767585" x2="100" y2="95.38119784648299" stroke="#997AD8" stroke_width="0.1"/>
    <line x1="94.0" y1="103.46410161513775" x2="106.0" y2="103.46410161513775" stroke="#D58023" stroke_width="0.1"/>
    <line x1="94.0" y1="103.46410161513775" x2="100" y2="93.0717967697245" stroke="#D58023" stroke_width="0.1"/>
    <line x1="106.0" y1="103.46410161513775" x2="100" y2="93.0717967697245" stroke="#D58023" stroke_width="0.1"/>
    <line x1="92.0" y1="104.61880215351701" x2="108.0" y2="104.61880215351701" stroke="#9388FE" stroke_width="0.1"/>
    <line x1="92.0" y1="104.61880215351701" x2="100" y2="90.762395692966" stroke="#9388FE" stroke_width="0.1"/>
    <line x1="108.0" y1="104.61880215351701" x2="100" y2="90.762395692966" stroke="#9388FE" stroke_width="0.1"/>
    <line x1="90.0" y1="105.77350269189625" x2="110.0" y2="105.77350269189625" stroke="#1836CA" stroke_width="0.1"/>
    <line x1="90.0" y1="105.77350269189625" x2="100" y2="88.45299461620749" stroke="#1836CA" stroke_width="0.1"/>
    <line x1="110.0" y1="105.77350269189625" x2="100" y2="88.45299461620749" stroke="#1836CA" stroke_width="0.1"/>
    <line x1="88.0" y1="106.92820323027551" x2="112.0" y2="106.92820323027551" stroke="#92F5E9" stroke_width="0.1"/>
    <line x1="88.0" y1="106.92820323027551" x2="100" y2="86.14359353944899" stroke="#92F5E9" stroke_width="0.1"/>
    <line x1="112.0" y1="106.92820323027551" x2="100" y2="86.14359353944899" stroke="#92F5E9" stroke_width="0.1"/>
    <line x1="86.0" y1="108.08290376865476" x2="114.0" y2="108.08290376865476" stroke="#B06078" stroke_width="0.1"/>
    <line x1="86.0" y1="108.08290376865476" x2="100" y2="83.83419246269048" stroke="#B06078" stroke_width="0.1"/>
    <line x1="114.0" y1="108.08290376865476" x2="100" y2="83.83419246269048" stroke="#B06078" stroke_width="0.1"/>
    <line x1="84.0" y1="109.23760430703402" x2="116.0" y2="109.23760430703402" stroke="#DD37D6" stroke_width="0.1"/>
    <line x1="84.0" y1="109.23760430703402" x2="100" y2="81.52479138593199" stroke="#DD37D6" stroke_width="0.1"/>
    <line x1="116.0" y1="109.23760430703402" x2="100" y2="81.52479138593199" stroke="#DD37D6" stroke_width="0.1"/>
    <line x1="82.0" y1="110.39230484541326" x2="118.0" y2="110.39230484541326" stroke="#C349FD" stroke_width="0.1"/>
    <line x1="82.0" y1="110.39230484541326" x2="100" y2="79.21539030917349" stroke="#C349FD" stroke_width="0.1"/>
    <line x1="118.0" y1="110.39230484541326" x2="100" y2="79.21539030917349" stroke="#C349FD" stroke_width="0.1"/>
    <line x1="80.0" y1="111.54700538379251" x2="120.0" y2="111.54700538379251" stroke="#AE5A2A" stroke_width="0.1"/>
    <line x1="80.0" y1="111.54700538379251" x2="100" y2="76.90598923241498" stroke="#AE5A2A" stroke_width="0.1"/>
    <line x1="120.0" y1="111.54700538379251" x2="100" y2="76.90598923241498" stroke="#AE5A2A" stroke_width="0.1"/>
    <line x1="78.0" y1="112.70170592217177" x2="122.0" y2="112.70170592217177" stroke="#1DD8E4" stroke_width="0.1"/>
    <line x1="78.0" y1="112.70170592217177" x2="100" y2="74.59658815565648" stroke="#1DD8E4" stroke_width="0.1"/>
    <line x1="122.0" y1="112.70170592217177" x2="100" y2="74.59658815565648" stroke="#1DD8E4" stroke_width="0.1"/>
    <line x1="76.0" y1="113.85640646055101" x2="124.0" y2="113.85640646055101" stroke="#E87E14" stroke_width="0.1"/>
    <line x1="76.0" y1="113.85640646055101" x2="100" y2="72.28718707889797" stroke="#E87E14" stroke_width="0.1"/>
    <line x1="124.0" y1="113.85640646055101" x2="100" y2="72.28718707889797" stroke="#E87E14" stroke_width="0.1"/>
    <line x1="74.0" y1="115.01110699893027" x2="126.0" y2="115.01110699893027" stroke="#9E131C" stroke_width="0.1"/>
    <line x1="74.0" y1="115.01110699893027" x2="100" y2="69.97778600213948" stroke="#9E131C" stroke_width="0.1"/>
    <line x1="126.0" y1="115.01110699893027" x2="100" y2="69.97778600213948" stroke="#9E131C" stroke_width="0.1"/>
    <line x1="72.0" y1="116.16580753730952" x2="128.0" y2="116.16580753730952" stroke="#A9C5D7" stroke_width="0.1"/>
    <line x1="72.0" y1="116.16580753730952" x2="100" y2="67.66838492538096" stroke="#A9C5D7" stroke_width="0.1"/>
    <line x1="128.0" y1="116.16580753730952" x2="100" y2="67.66838492538096" stroke="#A9C5D7" stroke_width="0.1"/>
    <line x1="70.0" y1="117.32050807568876" x2="130.0" y2="117.32050807568876" stroke="#71DEFC" stroke_width="0.1"/>
    <line x1="70.0" y1="117.32050807568876" x2="100" y2="65.35898384862247" stroke="#71DEFC" stroke_width="0.1"/>
    <line x1="130.0" y1="117.32050807568876" x2="100" y2="65.35898384862247" stroke="#71DEFC" stroke_width="0.1"/>
    <line x1="68.0" y1="118.47520861406802" x2="132.0" y2="118.47520861406802" stroke="#A2BEE8" stroke_width="0.1"/>
    <line x1="68.0" y1="118.47520861406802" x2="100" y2="63.04958277186397" stroke="#A2BEE8" stroke_width="0.1"/>
    <line x1="132.0" y1="118.47520861406802" x2="100" y2="63.04958277186397" stroke="#A2BEE8" stroke_width="0.1"/>
    <line x1="66.0" y1="119.62990915244728" x2="134.0" y2="119.62990915244728" stroke="#888B80" stroke_width="0.1"/>
    <line x1="66.0" y1="119.62990915244728" x2="100" y2="60.74018169510546" stroke="#888B80" stroke_width="0.1"/>
    <line x1="134.0" y1="119.62990915244728" x2="100" y2="60.74018169510546" stroke="#888B80" stroke_width="0.1"/>
    <line x1="64.0" y1="120.78460969082653" x2="136.0" y2="120.78460969082653" stroke="#6F0626" stroke_width="0.1"/>
    <line x1="64.0" y1="120.78460969082653" x2="100" y2="58.430780618346965" stroke="#6F0626" stroke_width="0.1"/>
    <line x1="136.0" y1="120.78460969082653" x2="100" y2="58.430780618346965" stroke="#6F0626" stroke_width="0.1"/>
    <line x1="62.0" y1="121.93931022920577" x2="138.0" y2="121.93931022920577" stroke="#A00E9A" stroke_width="0.1"/>
    <line x1="62.0" y1="121.93931022920577" x2="100" y2="56.12137954158846" stroke="#A00E9A" stroke_width="0.1"/>
    <line x1="138.0" y1="121.93931022920577" x2="100" y2="56.12137954158846" stroke="#A00E9A" stroke_width="0.1"/>
    <line x1="60.0" y1="123.09401076758503" x2="140.0" y2="123.09401076758503" stroke="#E0497E" stroke_width="0.1"/>
    <line x1="60.0" y1="123.09401076758503" x2="100" y2="53.81197846482996" stroke="#E0497E" stroke_width="0.1"/>
    <line x1="140.0" y1="123.09401076758503" x2="100" y2="53.81197846482996" stroke="#E0497E" stroke_width="0.1"/>
    <line x1="58.0" y1="124.24871130596428" x2="142.0" y2="124.24871130596428" stroke="#D03FB7" stroke_width="0.1"/>
    <line x1="58.0" y1="124.24871130596428" x2="100" y2="51.50257738807146" stroke="#D03FB7" stroke_width="0.1"/>
    <line x1="142.0" y1="124.24871130596428" x2="100" y2="51.50257738807146" stroke="#D03FB7" stroke_width="0.1"/>
    <line x1="56.0" y1="125.40341184434354" x2="144.0" y2="125.40341184434354" stroke="#BD8330" stroke_width="0.1"/>
    <line x1="56.0" y1="125.40341184434354" x2="100" y2="49.19317631131295" stroke="#BD8330" stroke_width="0.1"/>
    <line x1="144.0" y1="125.40341184434354" x2="100" y2="49.19317631131295" stroke="#BD8330" stroke_width="0.1"/>
    <line x1="54.0" y1="126.55811238272278" x2="146.0" y2="126.55811238272278" stroke="#B944C5" stroke_width="0.1"/>
    <line x1="54.0" y1="126.55811238272278" x2="100" y2="46.883775234554456" stroke="#B944C5" stroke_width="0.1"/>
    <line x1="146.0" y1="126.55811238272278" x2="100" y2="46.883775234554456" stroke="#B944C5" stroke_width="0.1"/>
    <line x1="52.0" y1="127.71281292110203" x2="148.0" y2="127.71281292110203" stroke="#650DF5" stroke_width="0.1"/>
    <line x1="52.0" y1="127.71281292110203" x2="100" y2="44.57437415779595" stroke="#650DF5" stroke_width="0.1"/>
    <line x1="148.0" y1="127.71281292110203" x2="100" y2="44.57437415779595" stroke="#650DF5" stroke_width="0.1"/>
    <line x1="50.0" y1="128.8675134594813" x2="150.0" y2="128.8675134594813" stroke="#46A629" stroke_width="0.1"/>
    <line x1="50.0" y1="128.8675134594813" x2="100" y2="42.264973081037446" stroke="#46A629" stroke_width="0.1"/>
    <line x1="150.0" y1="128.8675134594813" x2="100" y2="42.264973081037446" stroke="#46A629" stroke_width="0.1"/>
    <line x1="48.0" y1="130.02221399786055" x2="152.0" y2="130.02221399786055" stroke="#9887F1" stroke_width="0.1"/>
    <line x1="48.0" y1="130.02221399786055" x2="100" y2="39.95557200427895" stroke="#9887F1" stroke_width="0.1"/>
    <line x1="152.0" y1="130.02221399786055" x2="100" y2="39.95557200427895" stroke="#9887F1" stroke_width="0.1"/>
    <line x1="46.0" y1="131.1769145362398" x2="154.0" y2="131.1769145362398" stroke="#6114EC" stroke_width="0.1"/>
    <line x1="46.0" y1="131.1769145362398" x2="100" y2="37.646170927520444" stroke="#6114EC" stroke_width="0.1"/>
    <line x1="154.0" y1="131.1769145362398" x2="100" y2="37.646170927520444" stroke="#6114EC" stroke_width="0.1"/>
    <line x1="44.0" y1="132.33161507461904" x2="156.0" y2="132.33161507461904" stroke="#41746F" stroke_width="0.1"/>
    <line x1="44.0" y1="132.33161507461904" x2="100" y2="35.33676985076194" stroke="#41746F" stroke_width="0.1"/>
    <line x1="156.0" y1="132.33161507461904" x2="100" y2="35.33676985076194" stroke="#41746F" stroke_width="0.1"/>
    <line x1="42.0" y1="133.48631561299828" x2="158.0" y2="133.48631561299828" stroke="#C80DBF" stroke_width="0.1"/>
    <line x1="42.0" y1="133.48631561299828" x2="100" y2="33.027368774003435" stroke="#C80DBF" stroke_width="0.1"/>
    <line x1="158.0" y1="133.48631561299828" x2="100" y2="33.027368774003435" stroke="#C80DBF" stroke_width="0.1"/>
    <line x1="40.0" y1="134.64101615137753" x2="160.0" y2="134.64101615137753" stroke="#CCF3B3" stroke_width="0.1"/>
    <line x1="40.0" y1="134.64101615137753" x2="100" y2="30.717967697244944" stroke="#CCF3B3" stroke_width="0.1"/>
    <line x1="160.0" y1="134.64101615137753" x2="100" y2="30.717967697244944" stroke="#CCF3B3" stroke_width="0.1"/>
    <line x1="38.0" y1="135.7957166897568" x2="162.0" y2="135.7957166897568" stroke="#18A222" stroke_width="0.1"/>
    <line x1="38.0" y1="135.7957166897568" x2="100" y2="28.40856662048644" stroke="#18A222" stroke_width="0.1"/>
    <line x1="162.0" y1="135.7957166897568" x2="100" y2="28.40856662048644" stroke="#18A222" stroke_width="0.1"/>
    <line x1="36.0" y1="136.95041722813605" x2="164.0" y2="136.95041722813605" stroke="#29FCE2" stroke_width="0.1"/>
    <line x1="36.0" y1="136.95041722813605" x2="100" y2="26.099165543727935" stroke="#29FCE2" stroke_width="0.1"/>
    <line x1="164.0" y1="136.95041722813605" x2="100" y2="26.099165543727935" stroke="#29FCE2" stroke_width="0.1"/>
    <line x1="34.0" y1="138.1051177665153" x2="166.0" y2="138.1051177665153" stroke="#C1AE7B" stroke_width="0.1"/>
    <line x1="34.0" y1="138.1051177665153" x2="100" y2="23.78976446696943" stroke="#C1AE7B" stroke_width="0.1"/>
    <line x1="166.0" y1="138.1051177665153" x2="100" y2="23.78976446696943" stroke="#C1AE7B" stroke_width="0.1"/>
    <line x1="32.0" y1="139.25981830489457" x2="168.0" y2="139.25981830489457" stroke="#98F303" stroke_width="0.1"/>
    <line x1="32.0" y1="139.25981830489457" x2="100" y2="21.480363390210925" stroke="#98F303" stroke_width="0.1"/>
    <line x1="168.0" y1="139.25981830489457" x2="100" y2="21.480363390210925" stroke="#98F303" stroke_width="0.1"/>
    <line x1="30.0" y1="140.4145188432738" x2="170.0" y2="140.4145188432738" stroke="#9E5ADC" stroke_width="0.1"/>
    <line x1="30.0" y1="140.4145188432738" x2="100" y2="19.170962313452435" stroke="#9E5ADC" stroke_width="0.1"/>
    <line x1="170.0" y1="140.4145188432738" x2="100" y2="19.170962313452435" stroke="#9E5ADC" stroke_width="0.1"/>
    <line x1="28.0" y1="141.56921938165306" x2="172.0" y2="141.56921938165306" stroke="#3E4B22" stroke_width="0.1"/>
    <line x1="28.0" y1="141.56921938165306" x2="100" y2="16.86156123669393" stroke="#3E4B22" stroke_width="0.1"/>
    <line x1="172.0" y1="141.56921938165306" x2="100" y2="16.86156123669393" stroke="#3E4B22" stroke_width="0.1"/>
    <line x1="26.0" y1="142.7239199200323" x2="174.0" y2="142.7239199200323" stroke="#A8D049" stroke_width="0.1"/>
    <line x1="26.0" y1="142.7239199200323" x2="100" y2="14.552160159935426" stroke="#A8D049" stroke_width="0.1"/>
    <line x1="174.0" y1="142.7239199200323" x2="100" y2="14.552160159935426" stroke="#A8D049" stroke_width="0.1"/>
    <line x1="24.0" y1="143.87862045841155" x2="176.0" y2="143.87862045841155" stroke="#CC359A" stroke_width="0.1"/>
    <line x1="24.0" y1="143.87862045841155" x2="100" y2="12.24275908317692" stroke="#CC359A" stroke_width="0.1"/>
    <line x1="176.0" y1="143.87862045841155" x2="100" y2="12.24275908317692" stroke="#CC359A" stroke_width="0.1"/>
    <line x1="22.0" y1="145.0333209967908" x2="178.0" y2="145.0333209967908" stroke="#C22D29" stroke_width="0.1"/>
    <line x1="22.0" y1="145.0333209967908" x2="100" y2="9.933358006418416" stroke="#C22D29" stroke_width="0.1"/>
    <line x1="178.0" y1="145.0333209967908" x2="100" y2="9.933358006418416" stroke="#C22D29" stroke_width="0.1"/>
    <line x1="20.0" y1="146.18802153517007" x2="180.0" y2="146.18802153517007" stroke="#9EFC16" stroke_width="0.1"/>
    <line x1="20.0" y1="146.18802153517007" x2="100" y2="7.623956929659926" stroke="#9EFC16" stroke_width="0.1"/>
    <line x1="180.0" y1="146.18802153517007" x2="100" y2="7.623956929659926" stroke="#9EFC16" stroke_width="0.1"/>
  </g>
</svg>
