<?xml version='1.0' encoding='UTF-8' standalone='no'?>
<svg width="200" height="200" xmlns="http://www.w3.org/2000/svg">
  <g opacity="1.0">
    <rect x="0" y="0" width="200" height="200" fill="white" stroke="black" stroke_width="1"/>
    <line x1="121.4" y1="47.8" x2="116.2" y2="39.1" stroke="#94D36E" stroke_width="0.1"/>
    <line x1="121.4" y1="47.8" x2="113.9" y2="43.3" stroke="#94D36E" stroke_width="0.1"/>
    <line x1="116.2" y1="39.1" x2="113.9" y2="43.3" stroke="#94D36E" stroke_width="0.1"/>
    <line x1="123.3" y1="54.4" x2="114.8" y2="40.0" stroke="#62932E" stroke_width="0.1"/>
    <line x1="123.3" y1="54.4" x2="111.0" y2="47.0" stroke="#62932E" stroke_width="0.1"/>
    <line x1="114.8" y1="40.0" x2="111.0" y2="47.0" stroke="#62932E" stroke_width="0.1"/>
    <line x1="125.3" y1="61.0" x2="113.4" y2="40.9" stroke="#68B548" stroke_width="0.1"/>
    <line x1="125.3" y1="61.0" x2="108.1" y2="50.6" stroke="#68B548" stroke_width="0.1"/>
    <line x1="113.4" y1="40.9" x2="108.1" y2="50.6" stroke="#68B548" stroke_width="0.1"/>
    <line x1="127.3" y1="67.6" x2="112.0" y2="41.8" stroke="#D97832" stroke_width="0.1"/>
    <line x1="127.3" y1="67.6" x2="105.2" y2="54.3" stroke="#D97832" stroke_width="0.1"/>
    <line x1="112.0" y1="41.8" x2="105.2" y2="54.3" stroke="#D97832" stroke_width="0.1"/>
    <line x1="129.2" y1="74.2" x2="110.5" y2="42.7" stroke="#C6A033" stroke_width="0.1"/>
    <line x1="129.2" y1="74.2" x2="102.3" y2="58.0" stroke="#C6A033" stroke_width="0.1"/>
    <line x1="110.5" y1="42.7" x2="102.3" y2="58.0" stroke="#C6A033" stroke_width="0.1"/>
    <line x1="131.2" y1="80.8" x2="109.1" y2="43.6" stroke="#9827EA" stroke_width="0.1"/>
    <line x1="131.2" y1="80.8" x2="99.4" y2="61.6" stroke="#9827EA" stroke_width="0.1"/>
    <line x1="109.1" y1="43.6" x2="99.4" y2="61.6" stroke="#9827EA" stroke_width="0.1"/>
    <line x1="133.2" y1="87.4" x2="107.7" y2="44.5" stroke="#AB099E" stroke_width="0.1"/>
    <line x1="133.2" y1="87.4" x2="96.5" y2="65.3" stroke="#AB099E" stroke_width="0.1"/>
    <line x1="107.7" y1="44.5" x2="96.5" y2="65.3" stroke="#AB099E" stroke_width="0.1"/>
    <line x1="135.1" y1="94.0" x2="106.3" y2="45.4" stroke="#6C3E96" stroke_width="0.1"/>
    <line x1="135.1" y1="94.0" x2="93.6" y2="69.0" stroke="#6C3E96" stroke_width="0.1"/>
    <line x1="106.3" y1="45.4" x2="93.6" y2="69.0" stroke="#6C3E96" stroke_width="0.1"/>
    <line x1="137.1" y1="100.6" x2="104.9" y2="46.3" stroke="#0AC075" stroke_width="0.1"/>
    <line x1="137.1" y1="100.6" x2="90.7" y2="72.6" stroke="#0AC075" stroke_width="0.1"/>
    <line x1="104.9" y1="46.3" x2="90.7" y2="72.6" stroke="#0AC075" stroke_width="0.1"/>
    <line x1="139.1" y1="107.2" x2="103.4" y2="47.2" stroke="#C0A5D1" stroke_width="0.1"/>
    <line x1="139.1" y1="107.2" x2="87.8" y2="76.3" stroke="#C0A5D1" stroke_width="0.1"/>
    <line x1="103.4" y1="47.2" x2="87.8" y2="76.3" stroke="#C0A5D1" stroke_width="0.1"/>
    <line x1="141.0" y1="113.7" x2="102.0" y2="48.1" stroke="#53DF50" stroke_width="0.1"/>
    <line x1="141.0" y1="113.7" x2="84.9" y2="80.0" stroke="#53DF50" stroke_width="0.1"/>
    <line x1="102.0" y1="48.1" x2="84.9" y2="80.0" stroke="#53DF50" stroke_width="0.1"/>
    <line x1="143.0" y1="120.3" x2="100.6" y2="49.0" stroke="#3B63DA" stroke_width="0.1"/>
    <line x1="143.0" y1="120.3" x2="82.0" y2="83.6" stroke="#3B63DA" stroke_width="0.1"/>
    <line x1="100.6" y1="49.0" x2="82.0" y2="83.6" stroke="#3B63DA" stroke_width="0.1"/>
    <line x1="145.0" y1="126.9" x2="99.2" y2="49.9" stroke="#E38295" stroke_width="0.1"/>
    <line x1="145.0" y1="126.9" x2="79.1" y2="87.3" stroke="#E38295" stroke_width="0.1"/>
    <line x1="99.2" y1="49.9" x2="79.1" y2="87.3" stroke="#E38295" stroke_width="0.1"/>
    <line x1="146.9" y1="133.5" x2="97.8" y2="50.8" stroke="#38C62E" stroke_width="0.1"/>
    <line x1="146.9" y1="133.5" x2="76.2" y2="90.9" stroke="#38C62E" stroke_width="0.1"/>
    <line x1="97.8" y1="50.8" x2="76.2" y2="90.9" stroke="#38C62E" stroke_width="0.1"/>
    <line x1="148.9" y1="140.1" x2="96.3" y2="51.7" stroke="#278BFF" stroke_width="0.1"/>
    <line x1="148.9" y1="140.1" x2="73.3" y2="94.6" stroke="#278BFF" stroke_width="0.1"/>
    <line x1="96.3" y1="51.7" x2="73.3" y2="94.6" stroke="#278BFF" stroke_width="0.1"/>
    <line x1="150.9" y1="146.7" x2="94.9" y2="52.6" stroke="#C0C606" stroke_width="0.1"/>
    <line x1="150.9" y1="146.7" x2="70.4" y2="98.3" stroke="#C0C606" stroke_width="0.1"/>
    <line x1="94.9" y1="52.6" x2="70.4" y2="98.3" stroke="#C0C606" stroke_width="0.1"/>
    <line x1="152.8" y1="153.3" x2="93.5" y2="53.4" stroke="#C0A179" stroke_width="0.1"/>
    <line x1="152.8" y1="153.3" x2="67.5" y2="101.9" stroke="#C0A179" stroke_width="0.1"/>
    <line x1="93.5" y1="53.4" x2="67.5" y2="101.9" stroke="#C0A179" stroke_width="0.1"/>
    <line x1="154.8" y1="159.9" x2="92.1" y2="54.3" stroke="#E9D491" stroke_width="0.1"/>
    <line x1="154.8" y1="159.9" x2="64.6" y2="105.6" stroke="#E9D491" stroke_width="0.1"/>
    <line x1="92.1" y1="54.3" x2="64.6" y2="105.6" stroke="#E9D491" stroke_width="0.1"/>
    <line x1="156.7" y1="166.5" x2="90.7" y2="55.2" stroke="#E5B43E" stroke_width="0.1"/>
    <line x1="156.7" y1="166.5" x2="61.6" y2="109.3" stroke="#E5B43E" stroke_width="0.1"/>
    <line x1="90.7" y1="55.2" x2="61.6" y2="109.3" stroke="#E5B43E" stroke_width="0.1"/>
    <line x1="158.7" y1="173.1" x2="89.2" y2="56.1" stroke="#6BE3DB" stroke_width="0.1"/>
    <line x1="158.7" y1="173.1" x2="58.7" y2="112.9" stroke="#6BE3DB" stroke_width="0.1"/>
    <line x1="89.2" y1="56.1" x2="58.7" y2="112.9" stroke="#6BE3DB" stroke_width="0.1"/>
    <line x1="160.7" y1="179.7" x2="87.8" y2="57.0" stroke="#6DC706" stroke_width="0.1"/>
    <line x1="160.7" y1="179.7" x2="55.8" y2="116.6" stroke="#6DC706" stroke_width="0.1"/>
    <line x1="87.8" y1="57.0" x2="55.8" y2="116.6" stroke="#6DC706" stroke_width="0.1"/>
    <line x1="162.6" y1="186.3" x2="86.4" y2="57.9" stroke="#2E623B" stroke_width="0.1"/>
    <line x1="162.6" y1="186.3" x2="52.9" y2="120.3" stroke="#2E623B" stroke_width="0.1"/>
    <line x1="86.4" y1="57.9" x2="52.9" y2="120.3" stroke="#2E623B" stroke_width="0.1"/>
    <line x1="164.6" y1="192.9" x2="85.0" y2="58.8" stroke="#764A3B" stroke_width="0.1"/>
    <line x1="164.6" y1="192.9" x2="50.0" y2="123.9" stroke="#764A3B" stroke_width="0.1"/>
    <line x1="85.0" y1="58.8" x2="50.0" y2="123.9" stroke="#764A3B" stroke_width="0.1"/>
    <line x1="166.6" y1="199.5" x2="83.6" y2="59.7" stroke="#08F1F8" stroke_width="0.1"/>
    <line x1="166.6" y1="199.5" x2="47.1" y2="127.6" stroke="#08F1F8" stroke_width="0.1"/>
    <line x1="83.6" y1="59.7" x2="47.1" y2="127.6" stroke="#08F1F8" stroke_width="0.1"/>
    <line x1="168.5" y1="206.1" x2="82.1" y2="60.6" stroke="#F39D44" stroke_width="0.1"/>
    <line x1="168.5" y1="206.1" x2="44.2" y2="131.3" stroke="#F39D44" stroke_width="0.1"/>
    <line x1="82.1" y1="60.6" x2="44.2" y2="131.3" stroke="#F39D44" stroke_width="0.1"/>
    <line x1="170.5" y1="212.7" x2="80.7" y2="61.5" stroke="#0B1377" stroke_width="0.1"/>
    <line x1="170.5" y1="212.7" x2="41.3" y2="134.9" stroke="#0B1377" stroke_width="0.1"/>
    <line x1="80.7" y1="61.5" x2="41.3" y2="134.9" stroke="#0B1377" stroke_width="0.1"/>
    <line x1="172.5" y1="219.3" x2="79.3" y2="62.4" stroke="#60EC4B" stroke_width="0.1"/>
    <line x1="172.5" y1="219.3" x2="38.4" y2="138.6" stroke="#60EC4B" stroke_width="0.1"/>
    <line x1="79.3" y1="62.4" x2="38.4" y2="138.6" stroke="#60EC4B" stroke_width="0.1"/>
    <line x1="174.4" y1="225.9" x2="77.9" y2="63.3" stroke="#0BA05B" stroke_width="0.1"/>
    <line x1="174.4" y1="225.9" x2="35.5" y2="142.2" stroke="#0BA05B" stroke_width="0.1"/>
    <line x1="77.9" y1="63.3" x2="35.5" y2="142.2" stroke="#0BA05B" stroke_width="0.1"/>
    <line x1="176.4" y1="232.5" x2="76.5" y2="64.2" stroke="#EC755E" stroke_width="0.1"/>
    <line x1="176.4" y1="232.5" x2="32.6" y2="145.9" stroke="#EC755E" stroke_width="0.1"/>
    <line x1="76.5" y1="64.2" x2="32.6" y2="145.9" stroke="#EC755E" stroke_width="0.1"/>
    <line x1="178.4" y1="239.1" x2="75.0" y2="65.1" stroke="#813500" stroke_width="0.1"/>
    <line x1="178.4" y1="239.1" x2="29.7" y2="149.6" stroke="#813500" stroke_width="0.1"/>
    <line x1="75.0" y1="65.1" x2="29.7" y2="149.6" stroke="#813500" stroke_width="0.1"/>
  </g>
</svg>
