<?xml version='1.0' encoding='UTF-8' standalone='no'?>
<svg width="200" height="200" xmlns="http://www.w3.org/2000/svg">
  <g opacity="1.0">
    <line x1="98.0" y1="101.15470053837925" x2="102.0" y2="101.15470053837925" stroke="#5A5B37" stroke_width="0.1"/>
    <line x1="98.0" y1="101.15470053837925" x2="100.0" y2="97.6905989232415" stroke="#5A5B37" stroke_width="0.1"/>
    <line x1="102.0" y1="101.15470053837925" x2="100.0" y2="97.6905989232415" stroke="#5A5B37" stroke_width="0.1"/>
    <line x1="95.69434988353711" y1="101.67173873794219" x2="103.60059327377991" y2="102.89293301169319" stroke="#C60084" stroke_width="0.1"/>
    <line x1="95.69434988353711" y1="101.67173873794219" x2="100.70505684268296" y2="95.43532825036462" stroke="#C60084" stroke_width="0.1"/>
    <line x1="103.60059327377991" y1="102.89293301169319" x2="100.70505684268296" y2="95.43532825036462" stroke="#C60084" stroke_width="0.1"/>
    <line x1="93.23443083475648" y1="101.49233839001285" x2="104.67518753941566" y2="105.11298557315514" stroke="#559137" stroke_width="0.1"/>
    <line x1="93.23443083475648" y1="101.49233839001285" x2="102.09038162582787" y2="93.39467603683202" stroke="#559137" stroke_width="0.1"/>
    <line x1="104.67518753941566" y1="105.11298557315514" x2="102.09038162582787" y2="93.39467603683202" stroke="#559137" stroke_width="0.1"/>
    <line x1="90.78122140161344" y1="100.58945270146381" x2="105.11987031299032" y2="107.68897010733517" stroke="#155276" stroke_width="0.1"/>
    <line x1="90.78122140161344" y1="100.58945270146381" x2="104.09890828539626" y2="91.72157719120102" stroke="#155276" stroke_width="0.1"/>
    <line x1="105.11987031299032" y1="107.68897010733517" x2="104.09890828539626" y2="91.72157719120102" stroke="#155276" stroke_width="0.1"/>
    <line x1="88.49910255886248" y1="98.96913076398143" x2="104.85768977419683" y2="110.47550396835383" stroke="#AFDAA0" stroke_width="0.1"/>
    <line x1="88.49910255886248" y1="98.96913076398143" x2="106.64320766694071" y2="90.55536526766474" stroke="#AFDAA0" stroke_width="0.1"/>
    <line x1="104.85768977419683" y1="110.47550396835383" x2="106.64320766694071" y2="90.55536526766474" stroke="#AFDAA0" stroke_width="0.1"/>
    <line x1="86.54949958482372" y1="96.67073002276135" x2="103.84201783124261" y2="113.31311004177513" stroke="#43C627" stroke_width="0.1"/>
    <line x1="86.54949958482372" y1="96.67073002276135" x2="109.60848258393366" y2="90.01615993546355" stroke="#43C627" stroke_width="0.1"/>
    <line x1="103.84201783124261" y1="113.31311004177513" x2="109.60848258393366" y2="90.01615993546355" stroke="#43C627" stroke_width="0.1"/>
    <line x1="85.08456850006682" y1="93.76596146112855" x2="102.05888000713269" y2="116.03416185678448" stroke="#CBA596" stroke_width="0.1"/>
    <line x1="85.08456850006682" y1="93.76596146112855" x2="112.85655149280049" y2="90.19987668208697" stroke="#CBA596" stroke_width="0.1"/>
    <line x1="102.05888000713269" y1="116.03416185678448" x2="112.85655149280049" y2="90.19987668208697" stroke="#CBA596" stroke_width="0.1"/>
    <line x1="84.24113435100672" y1="90.3567906384693" x2="99.52816854339913" y2="118.46918266761946" stroke="#BAA988" stroke_width="0.1"/>
    <line x1="84.24113435100672" y1="90.3567906384693" x2="116.23069710559412" y2="91.17402669391123" stroke="#BAA988" stroke_width="0.1"/>
    <line x1="99.52816854339913" y1="118.46918266761946" x2="116.23069710559412" y2="91.17402669391123" stroke="#BAA988" stroke_width="0.1"/>
    <line x1="84.13508190781647" y1="86.57225357968403" x2="96.30368953052258" y2="120.45329530694826" stroke="#8A3B0F" stroke_width="0.1"/>
    <line x1="84.13508190781647" y1="86.57225357968403" x2="119.56122856166093" y2="92.9744511133677" stroke="#8A3B0F" stroke_width="0.1"/>
    <line x1="96.30368953052258" y1="120.45329530694826" x2="119.56122856166093" y2="92.9744511133677" stroke="#8A3B0F" stroke_width="0.1"/>
    <line x1="84.85638656038905" y1="82.56428076261355" x2="92.47203092697579" y2="121.83261356248775" stroke="#514E5C" stroke_width="0.1"/>
    <line x1="84.85638656038905" y1="82.56428076261355" x2="122.67158251263517" y2="95.6031056748987" stroke="#514E5C" stroke_width="0.1"/>
    <line x1="92.47203092697579" y1="121.83261356248775" x2="122.67158251263517" y2="95.6031056748987" stroke="#514E5C" stroke_width="0.1"/>
    <line x1="86.46495468914017" y1="78.50265407622827" x2="88.15027497150174" y2="122.47036604246391" stroke="#1384AF" stroke_width="0.1"/>
    <line x1="86.46495468914017" y1="78.50265407622827" x2="125.38477033935807" y2="99.02697988130781" stroke="#1384AF" stroke_width="0.1"/>
    <line x1="88.15027497150174" y1="122.47036604246391" x2="125.38477033935807" y2="99.02697988130781" stroke="#1384AF" stroke_width="0.1"/>
    <line x1="88.98741907509077" y1="74.56924968915928" x2="83.48261465596755" y2="122.2525499976237" stroke="#9E72AC" stroke_width="0.1"/>
    <line x1="88.98741907509077" y1="74.56924968915928" x2="127.52996626894168" y2="103.17820031321702" stroke="#9E72AC" stroke_width="0.1"/>
    <line x1="83.48261465596755" y1="122.2525499976237" x2="127.52996626894168" y2="103.17820031321702" stroke="#9E72AC" stroke_width="0.1"/>
    <line x1="92.41500666277358" y1="70.95174343600696" x2="78.63596854854717" y2="121.0929251995703" stroke="#E9008A" stroke_width="0.1"/>
    <line x1="92.41500666277358" y1="70.95174343600696" x2="128.94902478867922" y2="107.95533136442272" stroke="#E9008A" stroke_width="0.1"/>
    <line x1="78.63596854854717" y1="121.0929251995703" x2="128.94902478867922" y2="107.95533136442272" stroke="#E9008A" stroke_width="0.1"/>
    <line x1="96.70256399973871" y1="67.83697388059522" x2="73.79472031814367" y2="118.93717640328202" stroke="#435F68" stroke_width="0.1"/>
    <line x1="96.70256399973871" y1="67.83697388059522" x2="129.5027156821176" y2="113.22584971612275" stroke="#435F68" stroke_width="0.1"/>
    <line x1="73.79472031814367" y1="118.93717640328202" x2="129.5027156821176" y2="113.22584971612275" stroke="#435F68" stroke_width="0.1"/>
    <line x1="101.76879085826425" y1="65.40417107656299" x2="69.154737858191" y2="115.76609664448" stroke="#6D2B34" stroke_width="0.1"/>
    <line x1="101.76879085826425" y1="65.40417107656299" x2="129.07647128354478" y2="118.82973227895701" stroke="#6D2B34" stroke_width="0.1"/>
    <line x1="69.154737858191" y1="115.76609664448" x2="129.07647128354478" y2="118.82973227895701" stroke="#6D2B34" stroke_width="0.1"/>
    <line x1="107.49769589451252" y1="63.818265801557494" x2="64.91685108391634" y2="111.59767198472312" stroke="#BD76FD" stroke_width="0.1"/>
    <line x1="107.49769589451252" y1="63.818265801557494" x2="127.58545302157113" y2="124.58406221371936" stroke="#BD76FD" stroke_width="0.1"/>
    <line x1="64.91685108391634" y1="111.59767198472312" x2="127.58545302157113" y2="124.58406221371936" stroke="#BD76FD" stroke_width="0.1"/>
    <line x1="113.74125077214451" y1="63.22349444889616" x2="61.279986544252395" y2="106.48798052710222" stroke="#40A0BC" stroke_width="0.1"/>
    <line x1="113.74125077214451" y1="63.22349444889616" x2="124.97876268360308" y2="130.2885250240016" stroke="#40A0BC" stroke_width="0.1"/>
    <line x1="61.279986544252395" y1="106.48798052710222" x2="124.97876268360308" y2="130.2885250240016" stroke="#40A0BC" stroke_width="0.1"/>
    <line x1="120.32318205450946" y1="63.737508756577895" x2="58.434170351430964" y2="100.53085367676984" stroke="#6B832E" stroke_width="0.1"/>
    <line x1="120.32318205450946" y1="63.737508756577895" x2="121.24264759405956" y2="135.73163756665224" stroke="#6B832E" stroke_width="0.1"/>
    <line x1="58.434170351430964" y1="100.53085367676984" x2="121.24264759405956" y2="135.73163756665224" stroke="#6B832E" stroke_width="0.1"/>
    <line x1="127.04380443379165" y1="65.44618725697318" x2="56.55361815003248" y2="93.8562847168716" stroke="#41E84E" stroke_width="0.1"/>
    <line x1="127.04380443379165" y1="65.44618725697318" x2="116.40257741617586" y2="140.69752802615523" stroke="#41E84E" stroke_width="0.1"/>
    <line x1="56.55361815003248" y1="93.8562847168716" x2="116.40257741617586" y2="140.69752802615523" stroke="#41E84E" stroke_width="0.1"/>
    <line x1="133.68576556707006" y1="68.39932704049278" x2="55.79013165684775" y2="86.62760775274381" stroke="#7CE60D" stroke_width="0.1"/>
    <line x1="133.68576556707006" y1="68.39932704049278" x2="110.52410277608219" y2="144.97306520676338" stroke="#7CE60D" stroke_width="0.1"/>
    <line x1="55.79013165684775" y1="86.62760775274381" x2="110.52410277608219" y2="144.97306520676338" stroke="#7CE60D" stroke_width="0.1"/>
    <line x1="140.02054291699764" y1="72.60737061491267" x2="56.267015617563445" y2="79.03750785317834" stroke="#7E5048" stroke_width="0.1"/>
    <line x1="140.02054291699764" y1="72.60737061491267" x2="103.71244146543891" y2="148.355121531909" stroke="#7E5048" stroke_width="0.1"/>
    <line x1="56.267015617563445" y1="79.03750785317834" x2="103.71244146543891" y2="148.355121531909" stroke="#7E5048" stroke_width="0.1"/>
    <line x1="145.81550744826686" y1="78.0392939414249" x2="58.073716944097704" y2="71.30295969181329" stroke="#52332F" stroke_width="0.1"/>
    <line x1="145.81550744826686" y1="78.0392939414249" x2="96.11077560763543" y2="150.65774636676178" stroke="#52332F" stroke_width="0.1"/>
    <line x1="58.073716944097704" y1="71.30295969181329" x2="96.11077560763543" y2="150.65774636676178" stroke="#52332F" stroke_width="0.1"/>
    <line x1="150.8413485946251" y1="84.62174891565535" x2="61.2613695978694" y2="63.65922609656674" stroke="#A95FA1" stroke_width="0.1"/>
    <line x1="150.8413485946251" y1="84.62174891565535" x2="87.89728180750552" y2="151.71902498777789" stroke="#A95FA1" stroke_width="0.1"/>
    <line x1="61.2613695978694" y1="63.65922609656674" x2="87.89728180750552" y2="151.71902498777789" stroke="#A95FA1" stroke_width="0.1"/>
    <line x1="154.87964023153793" y1="92.23951753710097" x2="65.83940492573683" y2="56.35307864038717" stroke="#C3AF2D" stroke_width="0.1"/>
    <line x1="154.87964023153793" y1="92.23951753710097" x2="79.28095484272525" y2="151.40740382251187" stroke="#C3AF2D" stroke_width="0.1"/>
    <line x1="65.83940492573683" y1="56.35307864038717" x2="79.28095484272525" y2="151.40740382251187" stroke="#C3AF2D" stroke_width="0.1"/>
    <line x1="157.73031895634588" y1="100.73729677329142" x2="71.77335825762574" y2="49.6354288285804" stroke="#6260A1" stroke_width="0.1"/>
    <line x1="157.73031895634588" y1="100.73729677329142" x2="70.4963227860284" y2="149.62727439812812" stroke="#6260A1" stroke_width="0.1"/>
    <line x1="71.77335825762574" y1="49.6354288285804" x2="70.4963227860284" y2="149.62727439812812" stroke="#6260A1" stroke_width="0.1"/>
    <line x1="159.21884410879045" y1="109.92279374733283" x2="78.9839694073084" y2="43.75357974537059" stroke="#E8ADEC" stroke_width="0.1"/>
    <line x1="159.21884410879045" y1="109.92279374733283" x2="61.79718648390117" y2="146.32362650729652" stroke="#E8ADEC" stroke_width="0.1"/>
    <line x1="78.9839694073084" y1="43.75357974537059" x2="61.79718648390117" y2="146.32362650729652" stroke="#E8ADEC" stroke_width="0.1"/>
    <line x1="159.2028137958912" y1="119.57107147422026" x2="87.34763817801011" y2="38.94332354012829" stroke="#A0CEC8" stroke_width="0.1"/>
    <line x1="159.2028137958912" y1="119.57107147422026" x2="53.44954802609873" y2="141.48560498565143" stroke="#A0CEC8" stroke_width="0.1"/>
    <line x1="87.34763817801011" y1="38.94332354012829" x2="53.44954802609873" y2="141.48560498565143" stroke="#A0CEC8" stroke_width="0.1"/>
    <line x1="157.57782266471017" y1="129.43004706969592" x2="96.69825706457337" y2="35.42111934291759" stroke="#F19869" stroke_width="0.1"/>
    <line x1="157.57782266471017" y1="129.43004706969592" x2="45.72392027071646" y2="135.14883358738646" stroke="#F19869" stroke_width="0.1"/>
    <line x1="96.69825706457337" y1="35.42111934291759" x2="45.72392027071646" y2="135.14883358738646" stroke="#F19869" stroke_width="0.1"/>
    <line x1="154.28236505527383" y1="139.22700826394131" x2="106.83040314339836" y2="33.37658875266153" stroke="#246095" stroke_width="0.1"/>
    <line x1="154.28236505527383" y1="139.22700826394131" x2="38.88723180132782" y2="127.39640298339715" stroke="#246095" stroke_width="0.1"/>
    <line x1="106.83040314339836" y1="33.37658875266153" x2="38.88723180132782" y2="127.39640298339715" stroke="#246095" stroke_width="0.1"/>
    <line x1="149.30161104181417" y1="148.67598122977762" x2="117.5038307782148" y2="32.96556177540071" stroke="#F9DB7B" stroke_width="0.1"/>
    <line x1="149.30161104181417" y1="148.67598122977762" x2="33.19455817997101" y2="118.35845699482167" stroke="#F9DB7B" stroke_width="0.1"/>
    <line x1="117.5038307782148" y1="32.96556177540071" x2="33.19455817997101" y2="118.35845699482167" stroke="#F9DB7B" stroke_width="0.1"/>
    <line x1="142.66991213875053" y1="157.48575416052785" x2="128.44916738934882" y2="34.303895030328135" stroke="#F8CDF7" stroke_width="0.1"/>
    <line x1="142.66991213875053" y1="157.48575416052785" x2="28.88092047190068" y2="108.21035080914403" stroke="#F8CDF7" stroke_width="0.1"/>
    <line x1="128.44916738934882" y1="34.303895030328135" x2="28.88092047190068" y2="108.21035080914403" stroke="#F8CDF7" stroke_width="0.1"/>
    <line x1="134.4719273556313" y1="165.36833757807682" x2="139.3746772679558" y2="37.462266403573146" stroke="#617AED" stroke_width="0.1"/>
    <line x1="134.4719273556313" y1="165.36833757807682" x2="26.153395376412902" y2="97.16939601835003" stroke="#617AED" stroke_width="0.1"/>
    <line x1="139.3746772679558" y1="37.462266403573146" x2="26.153395376412902" y2="97.16939601835003" stroke="#617AED" stroke_width="0.1"/>
    <line x1="124.8422979409799" y1="172.04762475620956" x2="149.97392435071617" y2="42.46212651662475" stroke="#2957FF" stroke_width="0.1"/>
    <line x1="124.8422979409799" y1="172.04762475620956" x2="25.183777708303936" y2="85.49024872716566" stroke="#2957FF" stroke_width="0.1"/>
    <line x1="149.97392435071617" y1="42.46212651662475" x2="25.183777708303936" y2="85.49024872716566" stroke="#2957FF" stroke_width="0.1"/>
    <line x1="113.96383955135917" y1="177.26800449291565" x2="159.9341350149155" y2="49.27295796769525" stroke="#DE5BC5" stroke_width="0.1"/>
    <line x1="113.96383955135917" y1="177.26800449291565" x2="26.102025433725373" y2="73.45903753938913" stroke="#DE5BC5" stroke_width="0.1"/>
    <line x1="159.9341350149155" y1="49.27295796769525" x2="26.102025433725373" y2="73.45903753938913" stroke="#DE5BC5" stroke_width="0.1"/>
    <line x1="102.06426262262875" y1="180.80267417083516" x2="168.94503721434558" y2="57.81095904330324" stroke="#37CE22" stroke_width="0.1"/>
    <line x1="102.06426262262875" y1="180.80267417083516" x2="28.990700163025707" y2="61.38636678586163" stroke="#37CE22" stroke_width="0.1"/>
    <line x1="168.94503721434558" y1="57.81095904330324" x2="28.990700163025707" y2="61.38636678586163" stroke="#37CE22" stroke_width="0.1"/>
    <line x1="89.41147424903193" y1="182.46140383489168" x2="176.70793342822776" y2="67.93923037151822" stroke="#0C7644" stroke_width="0.1"/>
    <line x1="89.41147424903193" y1="182.46140383489168" x2="33.880592322740355" y2="49.599365793590145" stroke="#0C7644" stroke_width="0.1"/>
    <line x1="176.70793342822776" y1="67.93923037151822" x2="33.880592322740355" y2="49.599365793590145" stroke="#0C7644" stroke_width="0.1"/>
    <line x1="76.30755670733724" y1="182.09751192427998" x2="182.9447525602537" y2="79.46950180702818" stroke="#64D23C" stroke_width="0.1"/>
    <line x1="76.30755670733724" y1="182.09751192427998" x2="40.74769073240907" y2="38.43298626869186" stroke="#64D23C" stroke_width="0.1"/>
    <line x1="182.9447525602537" y1="79.46950180702818" x2="40.74769073240907" y2="38.43298626869186" stroke="#64D23C" stroke_width="0.1"/>
    <line x1="63.08155771610413" y1="179.61383015948914" x2="187.40682055264523" y2="92.16539380625883" stroke="#E7D122" stroke_width="0.1"/>
    <line x1="63.08155771610413" y1="179.61383015948914" x2="49.51162173125065" y2="28.220776034252054" stroke="#E7D122" stroke_width="0.1"/>
    <line x1="187.40682055264523" y1="92.16539380625883" x2="49.51162173125065" y2="28.220776034252054" stroke="#E7D122" stroke_width="0.1"/>
    <line x1="50.08126444834444" y1="174.9674585465179" x2="189.88309133426912" y2="105.74716383927213" stroke="#E215D1" stroke_width="0.1"/>
    <line x1="50.08126444834444" y1="174.9674585465179" x2="60.03564421738645" y2="19.285377614209978" stroke="#E215D1" stroke_width="0.1"/>
    <line x1="189.88309133426912" y1="105.74716383927213" x2="60.03564421738645" y2="19.285377614209978" stroke="#E215D1" stroke_width="0.1"/>
    <line x1="37.664166141124696" y1="168.17314097540196" x2="190.2075888699136" y2="119.89784520017119" stroke="#DA2214" stroke_width="0.1"/>
    <line x1="37.664166141124696" y1="168.17314097540196" x2="72.12824498896173" y2="11.929013824426903" stroke="#DA2214" stroke_width="0.1"/>
    <line x1="190.2075888699136" y1="119.89784520017119" x2="72.12824498896173" y2="11.929013824426903" stroke="#DA2214" stroke_width="0.1"/>
  </g>
</svg>
