<?xml version='1.0' encoding='UTF-8' standalone='no'?>
<svg width="200" height="200" xmlns="http://www.w3.org/2000/svg">
  <g opacity="1.0">
    <rect x="0" y="0" width="200" height="200" fill="white" stroke="black" stroke-width="1"/>
    <line x1="20.0" y1="53.8" x2="100.0" y2="192.4" stroke="black" stroke-width="0.5"/>
    <line x1="20.0" y1="53.8" x2="104.0" y2="185.4" stroke="black" stroke-width="0.5"/>
    <line x1="20.0" y1="53.8" x2="108.0" y2="178.5" stroke="black" stroke-width="0.5"/>
    <line x1="20.0" y1="53.8" x2="112.0" y2="171.6" stroke="black" stroke-width="0.5"/>
    <line x1="20.0" y1="53.8" x2="116.0" y2="164.7" stroke="black" stroke-width="0.5"/>
    <line x1="20.0" y1="53.8" x2="120.0" y2="157.7" stroke="black" stroke-width="0.5"/>
    <line x1="20.0" y1="53.8" x2="124.0" y2="150.8" stroke="black" stroke-width="0.5"/>
    <line x1="20.0" y1="53.8" x2="128.0" y2="143.9" stroke="black" stroke-width="0.5"/>
    <line x1="20.0" y1="53.8" x2="132.0" y2="137.0" stroke="black" stroke-width="0.5"/>
    <line x1="20.0" y1="53.8" x2="136.0" y2="130.0" stroke="black" stroke-width="0.5"/>
    <line x1="20.0" y1="53.8" x2="140.0" y2="123.1" stroke="black" stroke-width="0.5"/>
    <line x1="20.0" y1="53.8" x2="144.0" y2="116.2" stroke="black" stroke-width="0.5"/>
    <line x1="20.0" y1="53.8" x2="148.0" y2="109.2" stroke="black" stroke-width="0.5"/>
    <line x1="20.0" y1="53.8" x2="152.0" y2="102.3" stroke="black" stroke-width="0.5"/>
    <line x1="20.0" y1="53.8" x2="156.0" y2="95.4" stroke="black" stroke-width="0.5"/>
    <line x1="20.0" y1="53.8" x2="160.0" y2="88.5" stroke="black" stroke-width="0.5"/>
    <line x1="20.0" y1="53.8" x2="164.0" y2="81.5" stroke="black" stroke-width="0.5"/>
    <line x1="20.0" y1="53.8" x2="168.0" y2="74.6" stroke="black" stroke-width="0.5"/>
    <line x1="20.0" y1="53.8" x2="172.0" y2="67.7" stroke="black" stroke-width="0.5"/>
    <line x1="20.0" y1="53.8" x2="176.0" y2="60.7" stroke="black" stroke-width="0.5"/>
    <line x1="20.0" y1="53.8" x2="180.0" y2="53.8" stroke="black" stroke-width="0.5"/>
    <line x1="180.0" y1="53.8" x2="20.0" y2="53.8" stroke="black" stroke-width="0.5"/>
    <line x1="180.0" y1="53.8" x2="24.0" y2="60.7" stroke="black" stroke-width="0.5"/>
    <line x1="180.0" y1="53.8" x2="28.0" y2="67.7" stroke="black" stroke-width="0.5"/>
    <line x1="180.0" y1="53.8" x2="32.0" y2="74.6" stroke="black" stroke-width="0.5"/>
    <line x1="180.0" y1="53.8" x2="36.0" y2="81.5" stroke="black" stroke-width="0.5"/>
    <line x1="180.0" y1="53.8" x2="40.0" y2="88.5" stroke="black" stroke-width="0.5"/>
    <line x1="180.0" y1="53.8" x2="44.0" y2="95.4" stroke="black" stroke-width="0.5"/>
    <line x1="180.0" y1="53.8" x2="48.0" y2="102.3" stroke="black" stroke-width="0.5"/>
    <line x1="180.0" y1="53.8" x2="52.0" y2="109.2" stroke="black" stroke-width="0.5"/>
    <line x1="180.0" y1="53.8" x2="56.0" y2="116.2" stroke="black" stroke-width="0.5"/>
    <line x1="180.0" y1="53.8" x2="60.0" y2="123.1" stroke="black" stroke-width="0.5"/>
    <line x1="180.0" y1="53.8" x2="64.0" y2="130.0" stroke="black" stroke-width="0.5"/>
    <line x1="180.0" y1="53.8" x2="68.0" y2="137.0" stroke="black" stroke-width="0.5"/>
    <line x1="180.0" y1="53.8" x2="72.0" y2="143.9" stroke="black" stroke-width="0.5"/>
    <line x1="180.0" y1="53.8" x2="76.0" y2="150.8" stroke="black" stroke-width="0.5"/>
    <line x1="180.0" y1="53.8" x2="80.0" y2="157.7" stroke="black" stroke-width="0.5"/>
    <line x1="180.0" y1="53.8" x2="84.0" y2="164.7" stroke="black" stroke-width="0.5"/>
    <line x1="180.0" y1="53.8" x2="88.0" y2="171.6" stroke="black" stroke-width="0.5"/>
    <line x1="180.0" y1="53.8" x2="92.0" y2="178.5" stroke="black" stroke-width="0.5"/>
    <line x1="180.0" y1="53.8" x2="96.0" y2="185.4" stroke="black" stroke-width="0.5"/>
    <line x1="180.0" y1="53.8" x2="100.0" y2="192.4" stroke="black" stroke-width="0.5"/>
    <line x1="100.0" y1="192.4" x2="20.0" y2="53.8" stroke="black" stroke-width="0.5"/>
    <line x1="100.0" y1="192.4" x2="28.0" y2="53.8" stroke="black" stroke-width="0.5"/>
    <line x1="100.0" y1="192.4" x2="36.0" y2="53.8" stroke="black" stroke-width="0.5"/>
    <line x1="100.0" y1="192.4" x2="44.0" y2="53.8" stroke="black" stroke-width="0.5"/>
    <line x1="100.0" y1="192.4" x2="52.0" y2="53.8" stroke="black" stroke-width="0.5"/>
    <line x1="100.0" y1="192.4" x2="60.0" y2="53.8" stroke="black" stroke-width="0.5"/>
    <line x1="100.0" y1="192.4" x2="68.0" y2="53.8" stroke="black" stroke-width="0.5"/>
    <line x1="100.0" y1="192.4" x2="76.0" y2="53.8" stroke="black" stroke-width="0.5"/>
    <line x1="100.0" y1="192.4" x2="84.0" y2="53.8" stroke="black" stroke-width="0.5"/>
    <line x1="100.0" y1="192.4" x2="92.0" y2="53.8" stroke="black" stroke-width="0.5"/>
    <line x1="100.0" y1="192.4" x2="100.0" y2="53.8" stroke="black" stroke-width="0.5"/>
    <line x1="100.0" y1="192.4" x2="108.0" y2="53.8" stroke="black" stroke-width="0.5"/>
    <line x1="100.0" y1="192.4" x2="116.0" y2="53.8" stroke="black" stroke-width="0.5"/>
    <line x1="100.0" y1="192.4" x2="124.0" y2="53.8" stroke="black" stroke-width="0.5"/>
    <line x1="100.0" y1="192.4" x2="132.0" y2="53.8" stroke="black" stroke-width="0.5"/>
    <line x1="100.0" y1="192.4" x2="140.0" y2="53.8" stroke="black" stroke-width="0.5"/>
    <line x1="100.0" y1="192.4" x2="148.0" y2="53.8" stroke="black" stroke-width="0.5"/>
    <line x1="100.0" y1="192.4" x2="156.0" y2="53.8" stroke="black" stroke-width="0.5"/>
    <line x1="100.0" y1="192.4" x2="164.0" y2="53.8" stroke="black" stroke-width="0.5"/>
    <line x1="100.0" y1="192.4" x2="172.0" y2="53.8" stroke="black" stroke-width="0.5"/>
    <line x1="100.0" y1="192.4" x2="180.0" y2="53.8" stroke="black" stroke-width="0.5"/>
  </g>
</svg>
