<?xml version='1.0' encoding='UTF-8' standalone='no'?>
<svg width="200" height="200" xmlns="http://www.w3.org/2000/svg">
  <g opacity="1.0">
    <rect x="0" y="0" width="200" height="200" fill="white" stroke="black" stroke-width="1"/>
    <line x1="100.0" y1="7.6" x2="20.0" y2="146.2" stroke="black" stroke-width="0.5"/>
    <line x1="100.0" y1="7.6" x2="180.0" y2="146.2" stroke="black" stroke-width="0.5"/>
    <line x1="20.0" y1="146.2" x2="180.0" y2="146.2" stroke="black" stroke-width="0.5"/>
    <line x1="102.3" y1="11.3" x2="22.1" y2="142.3" stroke="black" stroke-width="0.5"/>
    <line x1="102.3" y1="11.3" x2="175.6" y2="146.3" stroke="black" stroke-width="0.5"/>
    <line x1="22.1" y1="142.3" x2="175.6" y2="146.3" stroke="black" stroke-width="0.5"/>
    <line x1="104.4" y1="15.1" x2="24.3" y2="138.6" stroke="black" stroke-width="0.5"/>
    <line x1="104.4" y1="15.1" x2="171.3" y2="146.3" stroke="black" stroke-width="0.5"/>
    <line x1="24.3" y1="138.6" x2="171.3" y2="146.3" stroke="black" stroke-width="0.5"/>
    <line x1="106.4" y1="19.0" x2="26.6" y2="135.0" stroke="black" stroke-width="0.5"/>
    <line x1="106.4" y1="19.0" x2="167.0" y2="146.0" stroke="black" stroke-width="0.5"/>
    <line x1="26.6" y1="135.0" x2="167.0" y2="146.0" stroke="black" stroke-width="0.5"/>
    <line x1="108.1" y1="22.8" x2="29.1" y2="131.6" stroke="black" stroke-width="0.5"/>
    <line x1="108.1" y1="22.8" x2="162.8" y2="145.6" stroke="black" stroke-width="0.5"/>
    <line x1="29.1" y1="131.6" x2="162.8" y2="145.6" stroke="black" stroke-width="0.5"/>
    <line x1="109.6" y1="26.7" x2="31.7" y2="128.3" stroke="black" stroke-width="0.5"/>
    <line x1="109.6" y1="26.7" x2="158.6" y2="145.0" stroke="black" stroke-width="0.5"/>
    <line x1="31.7" y1="128.3" x2="158.6" y2="145.0" stroke="black" stroke-width="0.5"/>
    <line x1="111.0" y1="30.7" x2="34.5" y2="125.2" stroke="black" stroke-width="0.5"/>
    <line x1="111.0" y1="30.7" x2="154.6" y2="144.2" stroke="black" stroke-width="0.5"/>
    <line x1="34.5" y1="125.2" x2="154.6" y2="144.2" stroke="black" stroke-width="0.5"/>
    <line x1="112.1" y1="34.6" x2="37.3" y2="122.2" stroke="black" stroke-width="0.5"/>
    <line x1="112.1" y1="34.6" x2="150.6" y2="143.2" stroke="black" stroke-width="0.5"/>
    <line x1="37.3" y1="122.2" x2="150.6" y2="143.2" stroke="black" stroke-width="0.5"/>
    <line x1="113.1" y1="38.6" x2="40.3" y2="119.4" stroke="black" stroke-width="0.5"/>
    <line x1="113.1" y1="38.6" x2="146.7" y2="142.0" stroke="black" stroke-width="0.5"/>
    <line x1="40.3" y1="119.4" x2="146.7" y2="142.0" stroke="black" stroke-width="0.5"/>
    <line x1="113.8" y1="42.5" x2="43.3" y2="116.8" stroke="black" stroke-width="0.5"/>
    <line x1="113.8" y1="42.5" x2="142.9" y2="140.7" stroke="black" stroke-width="0.5"/>
    <line x1="43.3" y1="116.8" x2="142.9" y2="140.7" stroke="black" stroke-width="0.5"/>
    <line x1="114.3" y1="46.5" x2="46.5" y2="114.3" stroke="black" stroke-width="0.5"/>
    <line x1="114.3" y1="46.5" x2="139.2" y2="139.2" stroke="black" stroke-width="0.5"/>
    <line x1="46.5" y1="114.3" x2="139.2" y2="139.2" stroke="black" stroke-width="0.5"/>
    <line x1="114.7" y1="50.4" x2="49.7" y2="112.1" stroke="black" stroke-width="0.5"/>
    <line x1="114.7" y1="50.4" x2="135.6" y2="137.5" stroke="black" stroke-width="0.5"/>
    <line x1="49.7" y1="112.1" x2="135.6" y2="137.5" stroke="black" stroke-width="0.5"/>
    <line x1="114.8" y1="54.3" x2="53.0" y2="110.0" stroke="black" stroke-width="0.5"/>
    <line x1="114.8" y1="54.3" x2="132.1" y2="135.7" stroke="black" stroke-width="0.5"/>
    <line x1="53.0" y1="110.0" x2="132.1" y2="135.7" stroke="black" stroke-width="0.5"/>
    <line x1="114.8" y1="58.2" x2="56.4" y2="108.1" stroke="black" stroke-width="0.5"/>
    <line x1="114.8" y1="58.2" x2="128.8" y2="133.7" stroke="black" stroke-width="0.5"/>
    <line x1="56.4" y1="108.1" x2="128.8" y2="133.7" stroke="black" stroke-width="0.5"/>
    <line x1="114.6" y1="62.1" x2="59.9" y2="106.4" stroke="black" stroke-width="0.5"/>
    <line x1="114.6" y1="62.1" x2="125.6" y2="131.6" stroke="black" stroke-width="0.5"/>
    <line x1="59.9" y1="106.4" x2="125.6" y2="131.6" stroke="black" stroke-width="0.5"/>
    <line x1="114.1" y1="65.9" x2="63.4" y2="104.8" stroke="black" stroke-width="0.5"/>
    <line x1="114.1" y1="65.9" x2="122.5" y2="129.3" stroke="black" stroke-width="0.5"/>
    <line x1="63.4" y1="104.8" x2="122.5" y2="129.3" stroke="black" stroke-width="0.5"/>
    <line x1="113.5" y1="69.6" x2="66.9" y2="103.5" stroke="black" stroke-width="0.5"/>
    <line x1="113.5" y1="69.6" x2="119.5" y2="126.9" stroke="black" stroke-width="0.5"/>
    <line x1="66.9" y1="103.5" x2="119.5" y2="126.9" stroke="black" stroke-width="0.5"/>
    <line x1="112.7" y1="73.3" x2="70.5" y2="102.3" stroke="black" stroke-width="0.5"/>
    <line x1="112.7" y1="73.3" x2="116.7" y2="124.4" stroke="black" stroke-width="0.5"/>
    <line x1="70.5" y1="102.3" x2="116.7" y2="124.4" stroke="black" stroke-width="0.5"/>
    <line x1="111.7" y1="77.0" x2="74.2" y2="101.4" stroke="black" stroke-width="0.5"/>
    <line x1="111.7" y1="77.0" x2="114.1" y2="121.7" stroke="black" stroke-width="0.5"/>
    <line x1="74.2" y1="101.4" x2="114.1" y2="121.7" stroke="black" stroke-width="0.5"/>
    <line x1="110.6" y1="80.5" x2="77.8" y2="100.6" stroke="black" stroke-width="0.5"/>
    <line x1="110.6" y1="80.5" x2="111.6" y2="118.9" stroke="black" stroke-width="0.5"/>
    <line x1="77.8" y1="100.6" x2="111.6" y2="118.9" stroke="black" stroke-width="0.5"/>
    <line x1="109.2" y1="84.0" x2="81.5" y2="100.0" stroke="black" stroke-width="0.5"/>
    <line x1="109.2" y1="84.0" x2="109.2" y2="116.0" stroke="black" stroke-width="0.5"/>
    <line x1="81.5" y1="100.0" x2="109.2" y2="116.0" stroke="black" stroke-width="0.5"/>
  </g>
</svg>
