<?xml version='1.0' encoding='UTF-8' standalone='no'?>
<svg width="200" height="200" xmlns="http://www.w3.org/2000/svg">
  <g opacity="1.0">
    <rect x="0" y="0" width="200" height="200" fill="white" stroke="black" stroke_width="1"/>
    <line x1="10.0" y1="23.9" x2="15.3" y2="11.8" stroke="#2EC6C7" stroke_width="0.1"/>
    <line x1="10.0" y1="23.9" x2="25.9" y2="19.2" stroke="#2EC6C7" stroke_width="0.1"/>
    <line x1="15.3" y1="11.8" x2="25.9" y2="19.2" stroke="#2EC6C7" stroke_width="0.1"/>
    <line x1="12.7" y1="30.2" x2="19.3" y2="14.9" stroke="#9F6198" stroke_width="0.1"/>
    <line x1="12.7" y1="30.2" x2="32.8" y2="24.3" stroke="#9F6198" stroke_width="0.1"/>
    <line x1="19.3" y1="14.9" x2="32.8" y2="24.3" stroke="#9F6198" stroke_width="0.1"/>
    <line x1="15.3" y1="36.5" x2="23.4" y2="18.0" stroke="#1DB3B7" stroke_width="0.1"/>
    <line x1="15.3" y1="36.5" x2="39.6" y2="29.3" stroke="#1DB3B7" stroke_width="0.1"/>
    <line x1="23.4" y1="18.0" x2="39.6" y2="29.3" stroke="#1DB3B7" stroke_width="0.1"/>
    <line x1="18.0" y1="42.8" x2="27.4" y2="21.1" stroke="#8B1029" stroke_width="0.1"/>
    <line x1="18.0" y1="42.8" x2="46.4" y2="34.4" stroke="#8B1029" stroke_width="0.1"/>
    <line x1="27.4" y1="21.1" x2="46.4" y2="34.4" stroke="#8B1029" stroke_width="0.1"/>
    <line x1="20.6" y1="49.0" x2="31.4" y2="24.2" stroke="#F50F06" stroke_width="0.1"/>
    <line x1="20.6" y1="49.0" x2="53.2" y2="39.5" stroke="#F50F06" stroke_width="0.1"/>
    <line x1="31.4" y1="24.2" x2="53.2" y2="39.5" stroke="#F50F06" stroke_width="0.1"/>
    <line x1="23.3" y1="55.3" x2="35.5" y2="27.3" stroke="#DB0D8D" stroke_width="0.1"/>
    <line x1="23.3" y1="55.3" x2="60.1" y2="44.5" stroke="#DB0D8D" stroke_width="0.1"/>
    <line x1="35.5" y1="27.3" x2="60.1" y2="44.5" stroke="#DB0D8D" stroke_width="0.1"/>
    <line x1="25.9" y1="61.6" x2="39.5" y2="30.4" stroke="#2612C8" stroke_width="0.1"/>
    <line x1="25.9" y1="61.6" x2="66.9" y2="49.6" stroke="#2612C8" stroke_width="0.1"/>
    <line x1="39.5" y1="30.4" x2="66.9" y2="49.6" stroke="#2612C8" stroke_width="0.1"/>
    <line x1="28.5" y1="67.9" x2="43.5" y2="33.4" stroke="#7B41C7" stroke_width="0.1"/>
    <line x1="28.5" y1="67.9" x2="73.7" y2="54.6" stroke="#7B41C7" stroke_width="0.1"/>
    <line x1="43.5" y1="33.4" x2="73.7" y2="54.6" stroke="#7B41C7" stroke_width="0.1"/>
    <line x1="31.2" y1="74.2" x2="47.5" y2="36.5" stroke="#0264A3" stroke_width="0.1"/>
    <line x1="31.2" y1="74.2" x2="80.6" y2="59.7" stroke="#0264A3" stroke_width="0.1"/>
    <line x1="47.5" y1="36.5" x2="80.6" y2="59.7" stroke="#0264A3" stroke_width="0.1"/>
    <line x1="33.8" y1="80.5" x2="51.6" y2="39.6" stroke="#8AF362" stroke_width="0.1"/>
    <line x1="33.8" y1="80.5" x2="87.4" y2="64.7" stroke="#8AF362" stroke_width="0.1"/>
    <line x1="51.6" y1="39.6" x2="87.4" y2="64.7" stroke="#8AF362" stroke_width="0.1"/>
    <line x1="36.5" y1="86.8" x2="55.6" y2="42.7" stroke="#FE0B14" stroke_width="0.1"/>
    <line x1="36.5" y1="86.8" x2="94.2" y2="69.8" stroke="#FE0B14" stroke_width="0.1"/>
    <line x1="55.6" y1="42.7" x2="94.2" y2="69.8" stroke="#FE0B14" stroke_width="0.1"/>
    <line x1="39.1" y1="93.1" x2="59.6" y2="45.8" stroke="#D2B91B" stroke_width="0.1"/>
    <line x1="39.1" y1="93.1" x2="101.0" y2="74.9" stroke="#D2B91B" stroke_width="0.1"/>
    <line x1="59.6" y1="45.8" x2="101.0" y2="74.9" stroke="#D2B91B" stroke_width="0.1"/>
    <line x1="41.8" y1="99.3" x2="63.7" y2="48.9" stroke="#CB8740" stroke_width="0.1"/>
    <line x1="41.8" y1="99.3" x2="107.9" y2="79.9" stroke="#CB8740" stroke_width="0.1"/>
    <line x1="63.7" y1="48.9" x2="107.9" y2="79.9" stroke="#CB8740" stroke_width="0.1"/>
    <line x1="44.4" y1="105.6" x2="67.7" y2="52.0" stroke="#647915" stroke_width="0.1"/>
    <line x1="44.4" y1="105.6" x2="114.7" y2="85.0" stroke="#647915" stroke_width="0.1"/>
    <line x1="67.7" y1="52.0" x2="114.7" y2="85.0" stroke="#647915" stroke_width="0.1"/>
    <line x1="47.0" y1="111.9" x2="71.7" y2="55.1" stroke="#B71E5A" stroke_width="0.1"/>
    <line x1="47.0" y1="111.9" x2="121.5" y2="90.0" stroke="#B71E5A" stroke_width="0.1"/>
    <line x1="71.7" y1="55.1" x2="121.5" y2="90.0" stroke="#B71E5A" stroke_width="0.1"/>
    <line x1="49.7" y1="118.2" x2="75.8" y2="58.2" stroke="#EF9561" stroke_width="0.1"/>
    <line x1="49.7" y1="118.2" x2="128.3" y2="95.1" stroke="#EF9561" stroke_width="0.1"/>
    <line x1="75.8" y1="58.2" x2="128.3" y2="95.1" stroke="#EF9561" stroke_width="0.1"/>
    <line x1="52.3" y1="124.5" x2="79.8" y2="61.3" stroke="#AA19D5" stroke_width="0.1"/>
    <line x1="52.3" y1="124.5" x2="135.2" y2="100.2" stroke="#AA19D5" stroke_width="0.1"/>
    <line x1="79.8" y1="61.3" x2="135.2" y2="100.2" stroke="#AA19D5" stroke_width="0.1"/>
    <line x1="55.0" y1="130.8" x2="83.8" y2="64.4" stroke="#380206" stroke_width="0.1"/>
    <line x1="55.0" y1="130.8" x2="142.0" y2="105.2" stroke="#380206" stroke_width="0.1"/>
    <line x1="83.8" y1="64.4" x2="142.0" y2="105.2" stroke="#380206" stroke_width="0.1"/>
    <line x1="57.6" y1="137.1" x2="87.8" y2="67.5" stroke="#8E3C65" stroke_width="0.1"/>
    <line x1="57.6" y1="137.1" x2="148.8" y2="110.3" stroke="#8E3C65" stroke_width="0.1"/>
    <line x1="87.8" y1="67.5" x2="148.8" y2="110.3" stroke="#8E3C65" stroke_width="0.1"/>
    <line x1="60.3" y1="143.3" x2="91.9" y2="70.6" stroke="#A47595" stroke_width="0.1"/>
    <line x1="60.3" y1="143.3" x2="155.6" y2="115.3" stroke="#A47595" stroke_width="0.1"/>
    <line x1="91.9" y1="70.6" x2="155.6" y2="115.3" stroke="#A47595" stroke_width="0.1"/>
  </g>
</svg>
