<?xml version='1.0' encoding='UTF-8' standalone='no'?>
<svg width="200" height="200" xmlns="http://www.w3.org/2000/svg">
  <g opacity="1.0">
    <line x1="99.82067296628544" y1="102.3024280984023" x2="102.08362474046076" y2="99.00408771758096" stroke="#1979DF" stroke_width="0.1"/>
    <line x1="99.82067296628544" y1="102.3024280984023" x2="98.09570229325378" y2="98.69348418401674" stroke="#1979DF" stroke_width="0.1"/>
    <line x1="102.08362474046076" y1="99.00408771758096" x2="98.09570229325378" y2="98.69348418401674" stroke="#1979DF" stroke_width="0.1"/>
    <line x1="96.85181072034892" y1="103.3796801021433" x2="104.50098346494643" y2="101.03657184102802" stroke="#31931D" stroke_width="0.1"/>
    <line x1="96.85181072034892" y1="103.3796801021433" x2="98.64720581470466" y2="95.58374805682868" stroke="#31931D" stroke_width="0.1"/>
    <line x1="104.50098346494643" y1="101.03657184102802" x2="98.64720581470466" y2="95.58374805682868" stroke="#31931D" stroke_width="0.1"/>
    <line x1="102.92662502878721" y1="106.2797186195622" x2="103.97508333876539" y2="94.32560906793779" stroke="#F2A59D" stroke_width="0.1"/>
    <line x1="102.92662502878721" y1="106.2797186195622" x2="93.09829163244738" y2="99.39467231249999" stroke="#F2A59D" stroke_width="0.1"/>
    <line x1="103.97508333876539" y1="94.32560906793779" x2="93.09829163244738" y2="99.39467231249999" stroke="#F2A59D" stroke_width="0.1"/>
    <line x1="97.72684495292042" y1="91.04644766222535" x2="93.38257374491339" y2="106.44538618639905" stroke="#12083B" stroke_width="0.1"/>
    <line x1="97.72684495292042" y1="91.04644766222535" x2="108.89058130216618" y2="102.50816615137559" stroke="#12083B" stroke_width="0.1"/>
    <line x1="93.38257374491339" y1="106.44538618639905" x2="108.89058130216618" y2="102.50816615137559" stroke="#12083B" stroke_width="0.1"/>
    <line x1="107.0424271124206" y1="90.84917743043957" x2="88.55394163302637" y2="98.47649050112369" stroke="#491D42" stroke_width="0.1"/>
    <line x1="107.0424271124206" y1="90.84917743043957" x2="104.40363125455303" y2="110.67433206843674" stroke="#491D42" stroke_width="0.1"/>
    <line x1="88.55394163302637" y1="98.47649050112369" x2="104.40363125455303" y2="110.67433206843674" stroke="#491D42" stroke_width="0.1"/>
    <line x1="89.5699263365838" y1="90.87785313779088" x2="97.31502591198249" y2="113.59378218696602" stroke="#F7D5C7" stroke_width="0.1"/>
    <line x1="89.5699263365838" y1="90.87785313779088" x2="113.1150477514337" y2="95.52836467524311" stroke="#F7D5C7" stroke_width="0.1"/>
    <line x1="97.31502591198249" y1="113.59378218696602" x2="113.1150477514337" y2="95.52836467524311" stroke="#F7D5C7" stroke_width="0.1"/>
    <line x1="90.53016014617907" y1="86.89826475323522" x2="93.38848436955419" y2="114.75198950656161" stroke="#D9FE57" stroke_width="0.1"/>
    <line x1="90.53016014617907" y1="86.89826475323522" x2="116.08135548426674" y2="98.34974574020315" stroke="#D9FE57" stroke_width="0.1"/>
    <line x1="93.38848436955419" y1="114.75198950656161" x2="116.08135548426674" y2="98.34974574020315" stroke="#D9FE57" stroke_width="0.1"/>
    <line x1="107.29970052907186" y1="83.02803177238417" x2="81.65199409812641" y2="102.16425801561297" stroke="#D08FFF" stroke_width="0.1"/>
    <line x1="107.29970052907186" y1="83.02803177238417" x2="111.04830537280174" y2="114.80771021200285" stroke="#D08FFF" stroke_width="0.1"/>
    <line x1="81.65199409812641" y1="102.16425801561297" x2="111.04830537280174" y2="114.80771021200285" stroke="#D08FFF" stroke_width="0.1"/>
    <line x1="80.93054466220825" y1="108.26776107056595" x2="116.69481878842602" y2="112.38075222357743" stroke="#B246DB" stroke_width="0.1"/>
    <line x1="80.93054466220825" y1="108.26776107056595" x2="102.37463654936573" y2="79.35148670585662" stroke="#B246DB" stroke_width="0.1"/>
    <line x1="116.69481878842602" y1="112.38075222357743" x2="102.37463654936573" y2="79.35148670585662" stroke="#B246DB" stroke_width="0.1"/>
    <line x1="78.44360818818822" y1="108.28584970832728" x2="117.9539522452572" y2="114.52545806879621" stroke="#0B36E1" stroke_width="0.1"/>
    <line x1="78.44360818818822" y1="108.28584970832728" x2="103.60243956655458" y2="77.18869222287651" stroke="#0B36E1" stroke_width="0.1"/>
    <line x1="117.9539522452572" y1="114.52545806879621" x2="103.60243956655458" y2="77.18869222287651" stroke="#0B36E1" stroke_width="0.1"/>
    <line x1="122.80434209305227" y1="111.19353898623567" x2="98.29171807380547" y2="74.6540909377081" stroke="#35477B" stroke_width="0.1"/>
    <line x1="122.80434209305227" y1="111.19353898623567" x2="78.90393983314227" y2="114.15237007605623" stroke="#35477B" stroke_width="0.1"/>
    <line x1="98.29171807380547" y1="74.6540909377081" x2="78.90393983314227" y2="114.15237007605623" stroke="#35477B" stroke_width="0.1"/>
    <line x1="77.12867528553427" y1="84.35063880519499" x2="97.88291800953333" y2="127.6318288183327" stroke="#D0D086" stroke_width="0.1"/>
    <line x1="77.12867528553427" y1="84.35063880519499" x2="124.9884067049324" y2="88.01753237647232" stroke="#D0D086" stroke_width="0.1"/>
    <line x1="97.88291800953333" y1="127.6318288183327" x2="124.9884067049324" y2="88.01753237647232" stroke="#D0D086" stroke_width="0.1"/>
    <line x1="115.55383980971013" y1="125.6790070000226" x2="114.46175250112293" y2="73.69047609838601" stroke="#364E8E" stroke_width="0.1"/>
    <line x1="115.55383980971013" y1="125.6790070000226" x2="69.98440768916696" y2="100.63051690159139" stroke="#364E8E" stroke_width="0.1"/>
    <line x1="114.46175250112293" y1="73.69047609838601" x2="69.98440768916696" y2="100.63051690159139" stroke="#364E8E" stroke_width="0.1"/>
    <line x1="116.56839624464692" y1="127.76367373410267" x2="115.75984863379222" y2="71.76951108511773" stroke="#B6A53E" stroke_width="0.1"/>
    <line x1="116.56839624464692" y1="127.76367373410267" x2="67.67175512156086" y2="100.46681518077959" stroke="#B6A53E" stroke_width="0.1"/>
    <line x1="115.75984863379222" y1="71.76951108511773" x2="67.67175512156086" y2="100.46681518077959" stroke="#B6A53E" stroke_width="0.1"/>
    <line x1="82.6213010460799" y1="129.96632814792324" x2="134.64095091120225" y2="100.06723070485522" stroke="#E17903" stroke_width="0.1"/>
    <line x1="82.6213010460799" y1="129.96632814792324" x2="82.73774804271784" y2="69.96644114722154" stroke="#E17903" stroke_width="0.1"/>
    <line x1="134.64095091120225" y1="100.06723070485522" x2="82.73774804271784" y2="69.96644114722154" stroke="#E17903" stroke_width="0.1"/>
    <line x1="119.49019868258803" y1="131.39212462778804" x2="117.44127806513755" y2="67.42493050217875" stroke="#98F34B" stroke_width="0.1"/>
    <line x1="119.49019868258803" y1="131.39212462778804" x2="63.06852325227443" y2="101.1829448700332" stroke="#98F34B" stroke_width="0.1"/>
    <line x1="117.44127806513755" y1="67.42493050217875" x2="63.06852325227443" y2="101.1829448700332" stroke="#98F34B" stroke_width="0.1"/>
    <line x1="90.26745046864156" y1="138.03433728820562" x2="137.80497707337102" y2="89.41146649364394" stroke="#F477E3" stroke_width="0.1"/>
    <line x1="90.26745046864156" y1="138.03433728820562" x2="71.92757245798742" y2="72.55419621815047" stroke="#F477E3" stroke_width="0.1"/>
    <line x1="137.80497707337102" y1="89.41146649364394" x2="71.92757245798742" y2="72.55419621815047" stroke="#F477E3" stroke_width="0.1"/>
    <line x1="68.47427391629468" y1="127.0948075264465" x2="139.22765467040514" y2="113.75467589801526" stroke="#DD9E69" stroke_width="0.1"/>
    <line x1="68.47427391629468" y1="127.0948075264465" x2="92.29807141330018" y2="59.15051657553826" stroke="#DD9E69" stroke_width="0.1"/>
    <line x1="139.22765467040514" y1="113.75467589801526" x2="92.29807141330018" y2="59.15051657553826" stroke="#DD9E69" stroke_width="0.1"/>
    <line x1="56.67790516404966" y1="93.03369306172505" x2="115.62804863886929" y2="141.0011881422291" stroke="#EF337B" stroke_width="0.1"/>
    <line x1="56.67790516404966" y1="93.03369306172505" x2="127.69404619708106" y2="65.96511879604584" stroke="#EF337B" stroke_width="0.1"/>
    <line x1="115.62804863886929" y1="141.0011881422291" x2="127.69404619708106" y2="65.96511879604584" stroke="#EF337B" stroke_width="0.1"/>
    <line x1="60.41697194565926" y1="76.19837771531932" x2="99.1787044773551" y2="146.18071899611152" stroke="#A534A6" stroke_width="0.1"/>
    <line x1="60.41697194565926" y1="76.19837771531932" x2="140.40432357698563" y2="77.62090328856915" stroke="#A534A6" stroke_width="0.1"/>
    <line x1="99.1787044773551" y1="146.18071899611152" x2="140.40432357698563" y2="77.62090328856915" stroke="#A534A6" stroke_width="0.1"/>
    <line x1="86.31503869070781" y1="146.52657126807406" x2="147.1356733237854" y2="88.58823850961716" stroke="#42D189" stroke_width="0.1"/>
    <line x1="86.31503869070781" y1="146.52657126807406" x2="66.5492879855068" y2="64.88519022230878" stroke="#42D189" stroke_width="0.1"/>
    <line x1="147.1356733237854" y1="88.58823850961716" x2="66.5492879855068" y2="64.88519022230878" stroke="#42D189" stroke_width="0.1"/>
    <line x1="146.53626374519774" y1="79.61104490242994" x2="59.074515056285236" y2="69.89289094823101" stroke="#915C49" stroke_width="0.1"/>
    <line x1="146.53626374519774" y1="79.61104490242994" x2="94.38922119851702" y2="150.49606414933902" stroke="#915C49" stroke_width="0.1"/>
    <line x1="59.074515056285236" y1="69.89289094823101" x2="94.38922119851702" y2="150.49606414933902" stroke="#915C49" stroke_width="0.1"/>
    <line x1="111.35845831346145" y1="151.88755879856646" x2="139.25671490318658" y2="64.21950715343259" stroke="#BF9A04" stroke_width="0.1"/>
    <line x1="111.35845831346145" y1="151.88755879856646" x2="49.384826783351976" y2="83.89293404800095" stroke="#BF9A04" stroke_width="0.1"/>
    <line x1="139.25671490318658" y1="64.21950715343259" x2="49.384826783351976" y2="83.89293404800095" stroke="#BF9A04" stroke_width="0.1"/>
    <line x1="45.4339810916348" y1="109.72366085854144" x2="135.70394677546392" y2="142.39372812875555" stroke="#221483" stroke_width="0.1"/>
    <line x1="45.4339810916348" y1="109.72366085854144" x2="118.86207213290129" y2="47.88261101270301" stroke="#221483" stroke_width="0.1"/>
    <line x1="135.70394677546392" y1="142.39372812875555" x2="118.86207213290129" y2="47.88261101270301" stroke="#221483" stroke_width="0.1"/>
    <line x1="146.1598159114427" y1="65.32140821262985" x2="46.887550588945714" y2="77.36372268036254" stroke="#42EDA3" stroke_width="0.1"/>
    <line x1="146.1598159114427" y1="65.32140821262985" x2="106.9526334996116" y2="157.31486910700755" stroke="#42EDA3" stroke_width="0.1"/>
    <line x1="46.887550588945714" y1="77.36372268036254" x2="106.9526334996116" y2="157.31486910700755" stroke="#42EDA3" stroke_width="0.1"/>
    <line x1="108.0144334034712" y1="159.50716083426144" x2="147.5274962878212" y2="63.305716658524645" stroke="#2D10F6" stroke_width="0.1"/>
    <line x1="108.0144334034712" y1="159.50716083426144" x2="44.45807030870763" y2="77.18712250721393" stroke="#2D10F6" stroke_width="0.1"/>
    <line x1="147.5274962878212" y1="63.305716658524645" x2="44.45807030870763" y2="77.18712250721393" stroke="#2D10F6" stroke_width="0.1"/>
    <line x1="69.39342671112472" y1="45.67470504900404" x2="68.25620114879264" y2="153.6687174664542" stroke="#E6DCA6" stroke_width="0.1"/>
    <line x1="69.39342671112472" y1="45.67470504900404" x2="162.3503721400826" y2="100.65657748454176" stroke="#E6DCA6" stroke_width="0.1"/>
    <line x1="68.25620114879264" y1="153.6687174664542" x2="162.3503721400826" y2="100.65657748454176" stroke="#E6DCA6" stroke_width="0.1"/>
    <line x1="103.41281028619551" y1="164.57310631589417" x2="154.21554532773996" y2="64.75786643591076" stroke="#E41F90" stroke_width="0.1"/>
    <line x1="103.41281028619551" y1="164.57310631589417" x2="42.37164438606453" y2="70.66902724819509" stroke="#E41F90" stroke_width="0.1"/>
    <line x1="154.21554532773996" y1="64.75786643591076" x2="42.37164438606453" y2="70.66902724819509" stroke="#E41F90" stroke_width="0.1"/>
    <line x1="55.28664285078175" y1="149.86029508315997" x2="165.536960756814" y2="113.79275563812953" stroke="#171BD2" stroke_width="0.1"/>
    <line x1="55.28664285078175" y1="149.86029508315997" x2="79.17639639240424" y2="36.34694927871049" stroke="#171BD2" stroke_width="0.1"/>
    <line x1="165.536960756814" y1="113.79275563812953" x2="79.17639639240424" y2="36.34694927871049" stroke="#171BD2" stroke_width="0.1"/>
    <line x1="33.72385691751173" y1="120.18595695302903" x2="150.61962306226644" y2="147.30384509777258" stroke="#B8C408" stroke_width="0.1"/>
    <line x1="33.72385691751173" y1="120.18595695302903" x2="115.65652002022185" y2="32.51019794919837" stroke="#B8C408" stroke_width="0.1"/>
    <line x1="150.61962306226644" y1="147.30384509777258" x2="115.65652002022185" y2="32.51019794919837" stroke="#B8C408" stroke_width="0.1"/>
    <line x1="33.95797747141255" y1="127.63665308366555" x2="156.95505491032563" y2="143.37574268522818" stroke="#823178" stroke_width="0.1"/>
    <line x1="33.95797747141255" y1="127.63665308366555" x2="109.08696761826181" y2="28.987604231106317" stroke="#823178" stroke_width="0.1"/>
    <line x1="156.95505491032563" y1="143.37574268522818" x2="109.08696761826181" y2="28.987604231106317" stroke="#823178" stroke_width="0.1"/>
    <line x1="49.378752185295745" y1="46.159284895019894" x2="78.68319686851882" y2="170.75964413129142" stroke="#DF2894" stroke_width="0.1"/>
    <line x1="49.378752185295745" y1="46.159284895019894" x2="171.9380509461854" y2="83.08107097368867" stroke="#DF2894" stroke_width="0.1"/>
    <line x1="78.68319686851882" y1="170.75964413129142" x2="171.9380509461854" y2="83.08107097368867" stroke="#DF2894" stroke_width="0.1"/>
    <line x1="23.869486581965266" y1="96.51504279704426" x2="135.04719524015616" y2="167.673437224648" stroke="#23470D" stroke_width="0.1"/>
    <line x1="23.869486581965266" y1="96.51504279704426" x2="141.08331817787857" y2="35.81151997830773" stroke="#23470D" stroke_width="0.1"/>
    <line x1="135.04719524015616" y1="167.673437224648" x2="141.08331817787857" y2="35.81151997830773" stroke="#23470D" stroke_width="0.1"/>
    <line x1="58.19268245310368" y1="166.46413719342416" x2="178.46329002356765" y2="102.97413046298308" stroke="#06BBA0" stroke_width="0.1"/>
    <line x1="58.19268245310368" y1="166.46413719342416" x2="63.3440275233287" y2="30.56173234359281" stroke="#06BBA0" stroke_width="0.1"/>
    <line x1="178.46329002356765" y1="102.97413046298308" x2="63.3440275233287" y2="30.56173234359281" stroke="#06BBA0" stroke_width="0.1"/>
    <line x1="43.71289344231655" y1="158.00943861732605" x2="178.38120078072012" y2="119.74134487581252" stroke="#EA6B7C" stroke_width="0.1"/>
    <line x1="43.71289344231655" y1="158.00943861732605" x2="77.90590577696332" y2="22.24921650686146" stroke="#EA6B7C" stroke_width="0.1"/>
    <line x1="178.38120078072012" y1="119.74134487581252" x2="77.90590577696332" y2="22.24921650686146" stroke="#EA6B7C" stroke_width="0.1"/>
    <line x1="88.00265252099247" y1="182.26824207109297" x2="177.24506129775799" y2="69.25588665930323" stroke="#73E5AA" stroke_width="0.1"/>
    <line x1="88.00265252099247" y1="182.26824207109297" x2="34.75228618124956" y2="48.47587126960382" stroke="#73E5AA" stroke_width="0.1"/>
    <line x1="177.24506129775799" y1="69.25588665930323" x2="34.75228618124956" y2="48.47587126960382" stroke="#73E5AA" stroke_width="0.1"/>
    <line x1="107.12689749167016" y1="14.849893332559123" x2="22.694395745206428" y2="136.40297905576648" stroke="#3815C2" stroke_width="0.1"/>
    <line x1="107.12689749167016" y1="14.849893332559123" x2="170.1787067631234" y2="148.74712761167436" stroke="#3815C2" stroke_width="0.1"/>
    <line x1="22.694395745206428" y1="136.40297905576648" x2="170.1787067631234" y2="148.74712761167436" stroke="#3815C2" stroke_width="0.1"/>
    <line x1="186.5789232089992" y1="85.66740116714521" x2="44.29814370399694" y2="32.18675248513196" stroke="#0FB8CB" stroke_width="0.1"/>
    <line x1="186.5789232089992" y1="85.66740116714521" x2="69.12293308700384" y2="182.1458463477228" stroke="#0FB8CB" stroke_width="0.1"/>
    <line x1="44.29814370399694" y1="32.18675248513196" x2="69.12293308700384" y2="182.1458463477228" stroke="#0FB8CB" stroke_width="0.1"/>
    <line x1="172.8024599584735" y1="46.9735742860707" x2="17.676538280612075" y2="63.46443307492724" stroke="#C71ADD" stroke_width="0.1"/>
    <line x1="172.8024599584735" y1="46.9735742860707" x2="109.52100176091443" y2="189.56199263900206" stroke="#C71ADD" stroke_width="0.1"/>
    <line x1="17.676538280612075" y1="63.46443307492724" x2="109.52100176091443" y2="189.56199263900206" stroke="#C71ADD" stroke_width="0.1"/>
    <line x1="168.51703827658588" y1="161.95763713327196" x2="119.39836857757862" y2="9.683685693769903" stroke="#179733" stroke_width="0.1"/>
    <line x1="168.51703827658588" y1="161.95763713327196" x2="12.084593145835541" y2="128.35867717295812" stroke="#179733" stroke_width="0.1"/>
    <line x1="119.39836857757862" y1="9.683685693769903" x2="12.084593145835541" y2="128.35867717295812" stroke="#179733" stroke_width="0.1"/>
  </g>
</svg>
