<?xml version='1.0' encoding='UTF-8' standalone='no'?>
<svg width="200" height="200" xmlns="http://www.w3.org/2000/svg">
  <g opacity="1.0">
    <line x1="99.5" y1="0.5" x2="100.5" y2="0.5" stroke="#6B8AED" stroke_width="0.5"/>
    <line x1="99.0" y1="1.0" x2="101.0" y2="1.0" stroke="#B51959" stroke_width="0.5"/>
    <line x1="98.5" y1="1.5" x2="101.5" y2="1.5" stroke="#FB200E" stroke_width="0.5"/>
    <line x1="98.0" y1="2.0" x2="102.0" y2="2.0" stroke="#AF6674" stroke_width="0.5"/>
    <line x1="97.5" y1="2.5" x2="102.5" y2="2.5" stroke="#BA5035" stroke_width="0.5"/>
    <line x1="97.0" y1="3.0" x2="103.0" y2="3.0" stroke="#7A5272" stroke_width="0.5"/>
    <line x1="96.5" y1="3.5" x2="103.5" y2="3.5" stroke="#5435D3" stroke_width="0.5"/>
    <line x1="96.0" y1="4.0" x2="104.0" y2="4.0" stroke="#F37A69" stroke_width="0.5"/>
    <line x1="95.5" y1="4.5" x2="104.5" y2="4.5" stroke="#FFB67D" stroke_width="0.5"/>
    <line x1="95.0" y1="5.0" x2="105.0" y2="5.0" stroke="#B6D635" stroke_width="0.5"/>
    <line x1="94.5" y1="5.5" x2="105.5" y2="5.5" stroke="#B1B026" stroke_width="0.5"/>
    <line x1="94.0" y1="6.0" x2="106.0" y2="6.0" stroke="#5366D8" stroke_width="0.5"/>
    <line x1="93.5" y1="6.5" x2="106.5" y2="6.5" stroke="#38E094" stroke_width="0.5"/>
    <line x1="93.0" y1="7.0" x2="107.0" y2="7.0" stroke="#754EB8" stroke_width="0.5"/>
    <line x1="92.5" y1="7.5" x2="107.5" y2="7.5" stroke="#AC8A1A" stroke_width="0.5"/>
    <line x1="92.0" y1="8.0" x2="108.0" y2="8.0" stroke="#097ED9" stroke_width="0.5"/>
    <line x1="91.5" y1="8.5" x2="108.5" y2="8.5" stroke="#C88273" stroke_width="0.5"/>
    <line x1="91.0" y1="9.0" x2="109.0" y2="9.0" stroke="#7EB940" stroke_width="0.5"/>
    <line x1="90.5" y1="9.5" x2="109.5" y2="9.5" stroke="#9E2451" stroke_width="0.5"/>
    <line x1="90.0" y1="10.0" x2="110.0" y2="10.0" stroke="#3E294F" stroke_width="0.5"/>
    <line x1="89.5" y1="10.5" x2="110.5" y2="10.5" stroke="#0B6172" stroke_width="0.5"/>
    <line x1="89.0" y1="11.0" x2="111.0" y2="11.0" stroke="#3B65C4" stroke_width="0.5"/>
    <line x1="88.5" y1="11.5" x2="111.5" y2="11.5" stroke="#5A718E" stroke_width="0.5"/>
    <line x1="88.0" y1="12.0" x2="112.0" y2="12.0" stroke="#75C847" stroke_width="0.5"/>
    <line x1="87.5" y1="12.5" x2="112.5" y2="12.5" stroke="#AD4B5F" stroke_width="0.5"/>
    <line x1="87.0" y1="13.0" x2="113.0" y2="13.0" stroke="#A16ED4" stroke_width="0.5"/>
    <line x1="86.5" y1="13.5" x2="113.5" y2="13.5" stroke="#1F5439" stroke_width="0.5"/>
    <line x1="86.0" y1="14.0" x2="114.0" y2="14.0" stroke="#8C309C" stroke_width="0.5"/>
    <line x1="85.5" y1="14.5" x2="114.5" y2="14.5" stroke="#CE8E04" stroke_width="0.5"/>
    <line x1="85.0" y1="15.0" x2="115.0" y2="15.0" stroke="#73CAF9" stroke_width="0.5"/>
    <line x1="84.5" y1="15.5" x2="115.5" y2="15.5" stroke="#E4F75B" stroke_width="0.5"/>
    <line x1="84.0" y1="16.0" x2="116.0" y2="16.0" stroke="#34205B" stroke_width="0.5"/>
    <line x1="83.5" y1="16.5" x2="116.5" y2="16.5" stroke="#EF7C0E" stroke_width="0.5"/>
    <line x1="83.0" y1="17.0" x2="117.0" y2="17.0" stroke="#95726E" stroke_width="0.5"/>
    <line x1="82.5" y1="17.5" x2="117.5" y2="17.5" stroke="#24C837" stroke_width="0.5"/>
    <line x1="82.0" y1="18.0" x2="118.0" y2="18.0" stroke="#4F450A" stroke_width="0.5"/>
    <line x1="81.5" y1="18.5" x2="118.5" y2="18.5" stroke="#2BA5EA" stroke_width="0.5"/>
    <line x1="81.0" y1="19.0" x2="119.0" y2="19.0" stroke="#F54D1E" stroke_width="0.5"/>
    <line x1="80.5" y1="19.5" x2="119.5" y2="19.5" stroke="#194DD9" stroke_width="0.5"/>
    <line x1="80.0" y1="20.0" x2="120.0" y2="20.0" stroke="#D4C509" stroke_width="0.5"/>
    <line x1="79.5" y1="20.5" x2="120.5" y2="20.5" stroke="#BDCE51" stroke_width="0.5"/>
    <line x1="79.0" y1="21.0" x2="121.0" y2="21.0" stroke="#0EBC8E" stroke_width="0.5"/>
    <line x1="78.5" y1="21.5" x2="121.5" y2="21.5" stroke="#FBE317" stroke_width="0.5"/>
    <line x1="78.0" y1="22.0" x2="122.0" y2="22.0" stroke="#82B2FE" stroke_width="0.5"/>
    <line x1="77.5" y1="22.5" x2="122.5" y2="22.5" stroke="#649275" stroke_width="0.5"/>
    <line x1="77.0" y1="23.0" x2="123.0" y2="23.0" stroke="#8142C1" stroke_width="0.5"/>
    <line x1="76.5" y1="23.5" x2="123.5" y2="23.5" stroke="#71F4A6" stroke_width="0.5"/>
    <line x1="76.0" y1="24.0" x2="124.0" y2="24.0" stroke="#1F41ED" stroke_width="0.5"/>
    <line x1="75.5" y1="24.5" x2="124.5" y2="24.5" stroke="#B1F0FE" stroke_width="0.5"/>
    <line x1="75.0" y1="25.0" x2="125.0" y2="25.0" stroke="#42454B" stroke_width="0.5"/>
    <line x1="74.5" y1="25.5" x2="125.5" y2="25.5" stroke="#F14B50" stroke_width="0.5"/>
    <line x1="74.0" y1="26.0" x2="126.0" y2="26.0" stroke="#E7557C" stroke_width="0.5"/>
    <line x1="73.5" y1="26.5" x2="126.5" y2="26.5" stroke="#87B399" stroke_width="0.5"/>
    <line x1="73.0" y1="27.0" x2="127.0" y2="27.0" stroke="#FDCE42" stroke_width="0.5"/>
    <line x1="72.5" y1="27.5" x2="127.5" y2="27.5" stroke="#AC634F" stroke_width="0.5"/>
    <line x1="72.0" y1="28.0" x2="128.0" y2="28.0" stroke="#5718E7" stroke_width="0.5"/>
    <line x1="71.5" y1="28.5" x2="128.5" y2="28.5" stroke="#36D4F0" stroke_width="0.5"/>
    <line x1="71.0" y1="29.0" x2="129.0" y2="29.0" stroke="#3E1FF3" stroke_width="0.5"/>
    <line x1="70.5" y1="29.5" x2="129.5" y2="29.5" stroke="#8E3A68" stroke_width="0.5"/>
    <line x1="70.0" y1="30.0" x2="130.0" y2="30.0" stroke="#0ECA20" stroke_width="0.5"/>
    <line x1="69.5" y1="30.5" x2="130.5" y2="30.5" stroke="#A2A876" stroke_width="0.5"/>
    <line x1="69.0" y1="31.0" x2="131.0" y2="31.0" stroke="#E98412" stroke_width="0.5"/>
    <line x1="68.5" y1="31.5" x2="131.5" y2="31.5" stroke="#FFB782" stroke_width="0.5"/>
    <line x1="68.0" y1="32.0" x2="132.0" y2="32.0" stroke="#95CB71" stroke_width="0.5"/>
    <line x1="67.5" y1="32.5" x2="132.5" y2="32.5" stroke="#CBA8A6" stroke_width="0.5"/>
    <line x1="67.0" y1="33.0" x2="133.0" y2="33.0" stroke="#BCBEB8" stroke_width="0.5"/>
    <line x1="66.5" y1="33.5" x2="133.5" y2="33.5" stroke="#F4BB15" stroke_width="0.5"/>
    <line x1="66.0" y1="34.0" x2="134.0" y2="34.0" stroke="#C7B7A6" stroke_width="0.5"/>
    <line x1="65.5" y1="34.5" x2="134.5" y2="34.5" stroke="#17DE7E" stroke_width="0.5"/>
    <line x1="65.0" y1="35.0" x2="135.0" y2="35.0" stroke="#3B869B" stroke_width="0.5"/>
    <line x1="64.5" y1="35.5" x2="135.5" y2="35.5" stroke="#DA80E0" stroke_width="0.5"/>
    <line x1="64.0" y1="36.0" x2="136.0" y2="36.0" stroke="#CE597E" stroke_width="0.5"/>
    <line x1="63.5" y1="36.5" x2="136.5" y2="36.5" stroke="#42475B" stroke_width="0.5"/>
    <line x1="63.0" y1="37.0" x2="137.0" y2="37.0" stroke="#2C9767" stroke_width="0.5"/>
    <line x1="62.5" y1="37.5" x2="137.5" y2="37.5" stroke="#2B7939" stroke_width="0.5"/>
    <line x1="62.0" y1="38.0" x2="138.0" y2="38.0" stroke="#5F5CDE" stroke_width="0.5"/>
    <line x1="61.5" y1="38.5" x2="138.5" y2="38.5" stroke="#E2A147" stroke_width="0.5"/>
    <line x1="61.0" y1="39.0" x2="139.0" y2="39.0" stroke="#356807" stroke_width="0.5"/>
    <line x1="60.5" y1="39.5" x2="139.5" y2="39.5" stroke="#2A40CD" stroke_width="0.5"/>
    <line x1="60.0" y1="40.0" x2="140.0" y2="40.0" stroke="#27EA09" stroke_width="0.5"/>
    <line x1="59.5" y1="40.5" x2="140.5" y2="40.5" stroke="#2E4B84" stroke_width="0.5"/>
    <line x1="59.0" y1="41.0" x2="141.0" y2="41.0" stroke="#729232" stroke_width="0.5"/>
    <line x1="58.5" y1="41.5" x2="141.5" y2="41.5" stroke="#ADA4CD" stroke_width="0.5"/>
    <line x1="58.0" y1="42.0" x2="142.0" y2="42.0" stroke="#57830E" stroke_width="0.5"/>
    <line x1="57.5" y1="42.5" x2="142.5" y2="42.5" stroke="#A75AD1" stroke_width="0.5"/>
    <line x1="57.0" y1="43.0" x2="143.0" y2="43.0" stroke="#BAA9F8" stroke_width="0.5"/>
    <line x1="56.5" y1="43.5" x2="143.5" y2="43.5" stroke="#7FEF9C" stroke_width="0.5"/>
    <line x1="56.0" y1="44.0" x2="144.0" y2="44.0" stroke="#F9A0D4" stroke_width="0.5"/>
    <line x1="55.5" y1="44.5" x2="144.5" y2="44.5" stroke="#D18F43" stroke_width="0.5"/>
    <line x1="55.0" y1="45.0" x2="145.0" y2="45.0" stroke="#89B005" stroke_width="0.5"/>
    <line x1="54.5" y1="45.5" x2="145.5" y2="45.5" stroke="#99ECF0" stroke_width="0.5"/>
    <line x1="54.0" y1="46.0" x2="146.0" y2="46.0" stroke="#108A9F" stroke_width="0.5"/>
    <line x1="53.5" y1="46.5" x2="146.5" y2="46.5" stroke="#6E3989" stroke_width="0.5"/>
    <line x1="53.0" y1="47.0" x2="147.0" y2="47.0" stroke="#D44624" stroke_width="0.5"/>
    <line x1="52.5" y1="47.5" x2="147.5" y2="47.5" stroke="#156830" stroke_width="0.5"/>
    <line x1="52.0" y1="48.0" x2="148.0" y2="48.0" stroke="#4523FC" stroke_width="0.5"/>
    <line x1="51.5" y1="48.5" x2="148.5" y2="48.5" stroke="#503C0E" stroke_width="0.5"/>
    <line x1="51.0" y1="49.0" x2="149.0" y2="49.0" stroke="#C7695A" stroke_width="0.5"/>
    <line x1="50.5" y1="49.5" x2="149.5" y2="49.5" stroke="#B0FF7C" stroke_width="0.5"/>
    <line x1="50.0" y1="50.0" x2="150.0" y2="50.0" stroke="#19F8D8" stroke_width="0.5"/>
    <line x1="50.5" y1="50.5" x2="149.5" y2="50.5" stroke="#9AE74B" stroke_width="0.5"/>
    <line x1="51.0" y1="51.0" x2="149.0" y2="51.0" stroke="#5B5422" stroke_width="0.5"/>
    <line x1="51.5" y1="51.5" x2="148.5" y2="51.5" stroke="#BC37AE" stroke_width="0.5"/>
    <line x1="52.0" y1="52.0" x2="148.0" y2="52.0" stroke="#DD564A" stroke_width="0.5"/>
    <line x1="52.5" y1="52.5" x2="147.5" y2="52.5" stroke="#22383C" stroke_width="0.5"/>
    <line x1="53.0" y1="53.0" x2="147.0" y2="53.0" stroke="#B60A72" stroke_width="0.5"/>
    <line x1="53.5" y1="53.5" x2="146.5" y2="53.5" stroke="#6DE708" stroke_width="0.5"/>
    <line x1="54.0" y1="54.0" x2="146.0" y2="54.0" stroke="#D8915D" stroke_width="0.5"/>
    <line x1="54.5" y1="54.5" x2="145.5" y2="54.5" stroke="#C3C336" stroke_width="0.5"/>
    <line x1="55.0" y1="55.0" x2="145.0" y2="55.0" stroke="#6586C2" stroke_width="0.5"/>
    <line x1="55.5" y1="55.5" x2="144.5" y2="55.5" stroke="#4B5CFB" stroke_width="0.5"/>
    <line x1="56.0" y1="56.0" x2="144.0" y2="56.0" stroke="#5D7969" stroke_width="0.5"/>
    <line x1="56.5" y1="56.5" x2="143.5" y2="56.5" stroke="#BF285D" stroke_width="0.5"/>
    <line x1="57.0" y1="57.0" x2="143.0" y2="57.0" stroke="#882B14" stroke_width="0.5"/>
    <line x1="57.5" y1="57.5" x2="142.5" y2="57.5" stroke="#827F0E" stroke_width="0.5"/>
    <line x1="58.0" y1="58.0" x2="142.0" y2="58.0" stroke="#06BBB4" stroke_width="0.5"/>
    <line x1="58.5" y1="58.5" x2="141.5" y2="58.5" stroke="#4554A7" stroke_width="0.5"/>
    <line x1="59.0" y1="59.0" x2="141.0" y2="59.0" stroke="#2A2F06" stroke_width="0.5"/>
    <line x1="59.5" y1="59.5" x2="140.5" y2="59.5" stroke="#AAB363" stroke_width="0.5"/>
    <line x1="60.0" y1="60.0" x2="140.0" y2="60.0" stroke="#ED0D81" stroke_width="0.5"/>
    <line x1="60.5" y1="60.5" x2="139.5" y2="60.5" stroke="#F5EA82" stroke_width="0.5"/>
    <line x1="61.0" y1="61.0" x2="139.0" y2="61.0" stroke="#B9D599" stroke_width="0.5"/>
    <line x1="61.5" y1="61.5" x2="138.5" y2="61.5" stroke="#7F41B8" stroke_width="0.5"/>
    <line x1="62.0" y1="62.0" x2="138.0" y2="62.0" stroke="#24C2BA" stroke_width="0.5"/>
    <line x1="62.5" y1="62.5" x2="137.5" y2="62.5" stroke="#DE0411" stroke_width="0.5"/>
    <line x1="63.0" y1="63.0" x2="137.0" y2="63.0" stroke="#C707C1" stroke_width="0.5"/>
    <line x1="63.5" y1="63.5" x2="136.5" y2="63.5" stroke="#D0BE82" stroke_width="0.5"/>
    <line x1="64.0" y1="64.0" x2="136.0" y2="64.0" stroke="#DD2716" stroke_width="0.5"/>
    <line x1="64.5" y1="64.5" x2="135.5" y2="64.5" stroke="#CACC1A" stroke_width="0.5"/>
    <line x1="65.0" y1="65.0" x2="135.0" y2="65.0" stroke="#04828A" stroke_width="0.5"/>
    <line x1="65.5" y1="65.5" x2="134.5" y2="65.5" stroke="#F2F1D5" stroke_width="0.5"/>
    <line x1="66.0" y1="66.0" x2="134.0" y2="66.0" stroke="#EC17CF" stroke_width="0.5"/>
    <line x1="66.5" y1="66.5" x2="133.5" y2="66.5" stroke="#6674F0" stroke_width="0.5"/>
    <line x1="67.0" y1="67.0" x2="133.0" y2="67.0" stroke="#042491" stroke_width="0.5"/>
    <line x1="67.5" y1="67.5" x2="132.5" y2="67.5" stroke="#7CCDA6" stroke_width="0.5"/>
    <line x1="68.0" y1="68.0" x2="132.0" y2="68.0" stroke="#695808" stroke_width="0.5"/>
    <line x1="68.5" y1="68.5" x2="131.5" y2="68.5" stroke="#8AC86C" stroke_width="0.5"/>
    <line x1="69.0" y1="69.0" x2="131.0" y2="69.0" stroke="#1BB510" stroke_width="0.5"/>
    <line x1="69.5" y1="69.5" x2="130.5" y2="69.5" stroke="#E1B5BB" stroke_width="0.5"/>
    <line x1="70.0" y1="70.0" x2="130.0" y2="70.0" stroke="#D18EA7" stroke_width="0.5"/>
    <line x1="70.5" y1="70.5" x2="129.5" y2="70.5" stroke="#996EE2" stroke_width="0.5"/>
    <line x1="71.0" y1="71.0" x2="129.0" y2="71.0" stroke="#4ED9FE" stroke_width="0.5"/>
    <line x1="71.5" y1="71.5" x2="128.5" y2="71.5" stroke="#BBEBA3" stroke_width="0.5"/>
    <line x1="72.0" y1="72.0" x2="128.0" y2="72.0" stroke="#765631" stroke_width="0.5"/>
    <line x1="72.5" y1="72.5" x2="127.5" y2="72.5" stroke="#BF6A59" stroke_width="0.5"/>
    <line x1="73.0" y1="73.0" x2="127.0" y2="73.0" stroke="#3BA5FE" stroke_width="0.5"/>
    <line x1="73.5" y1="73.5" x2="126.5" y2="73.5" stroke="#54EA40" stroke_width="0.5"/>
    <line x1="74.0" y1="74.0" x2="126.0" y2="74.0" stroke="#6DADBB" stroke_width="0.5"/>
    <line x1="74.5" y1="74.5" x2="125.5" y2="74.5" stroke="#E46154" stroke_width="0.5"/>
    <line x1="75.0" y1="75.0" x2="125.0" y2="75.0" stroke="#55F3B8" stroke_width="0.5"/>
    <line x1="75.5" y1="75.5" x2="124.5" y2="75.5" stroke="#2C5D8B" stroke_width="0.5"/>
    <line x1="76.0" y1="76.0" x2="124.0" y2="76.0" stroke="#D84625" stroke_width="0.5"/>
    <line x1="76.5" y1="76.5" x2="123.5" y2="76.5" stroke="#E82074" stroke_width="0.5"/>
    <line x1="77.0" y1="77.0" x2="123.0" y2="77.0" stroke="#B0F569" stroke_width="0.5"/>
    <line x1="77.5" y1="77.5" x2="122.5" y2="77.5" stroke="#512996" stroke_width="0.5"/>
    <line x1="78.0" y1="78.0" x2="122.0" y2="78.0" stroke="#CF3817" stroke_width="0.5"/>
    <line x1="78.5" y1="78.5" x2="121.5" y2="78.5" stroke="#A5F73F" stroke_width="0.5"/>
    <line x1="79.0" y1="79.0" x2="121.0" y2="79.0" stroke="#3CBF8B" stroke_width="0.5"/>
    <line x1="79.5" y1="79.5" x2="120.5" y2="79.5" stroke="#AFC1BB" stroke_width="0.5"/>
    <line x1="80.0" y1="80.0" x2="120.0" y2="80.0" stroke="#7F5D2A" stroke_width="0.5"/>
    <line x1="80.5" y1="80.5" x2="119.5" y2="80.5" stroke="#0436A3" stroke_width="0.5"/>
    <line x1="81.0" y1="81.0" x2="119.0" y2="81.0" stroke="#F3A91D" stroke_width="0.5"/>
    <line x1="81.5" y1="81.5" x2="118.5" y2="81.5" stroke="#E2E5EB" stroke_width="0.5"/>
    <line x1="82.0" y1="82.0" x2="118.0" y2="82.0" stroke="#00C8C8" stroke_width="0.5"/>
    <line x1="82.5" y1="82.5" x2="117.5" y2="82.5" stroke="#CFB1C2" stroke_width="0.5"/>
    <line x1="83.0" y1="83.0" x2="117.0" y2="83.0" stroke="#599013" stroke_width="0.5"/>
    <line x1="83.5" y1="83.5" x2="116.5" y2="83.5" stroke="#F4558B" stroke_width="0.5"/>
    <line x1="84.0" y1="84.0" x2="116.0" y2="84.0" stroke="#A718D2" stroke_width="0.5"/>
    <line x1="84.5" y1="84.5" x2="115.5" y2="84.5" stroke="#12B00F" stroke_width="0.5"/>
    <line x1="85.0" y1="85.0" x2="115.0" y2="85.0" stroke="#EA7B0E" stroke_width="0.5"/>
    <line x1="85.5" y1="85.5" x2="114.5" y2="85.5" stroke="#3EEC14" stroke_width="0.5"/>
    <line x1="86.0" y1="86.0" x2="114.0" y2="86.0" stroke="#C72035" stroke_width="0.5"/>
    <line x1="86.5" y1="86.5" x2="113.5" y2="86.5" stroke="#C8D862" stroke_width="0.5"/>
    <line x1="87.0" y1="87.0" x2="113.0" y2="87.0" stroke="#AB3CB9" stroke_width="0.5"/>
    <line x1="87.5" y1="87.5" x2="112.5" y2="87.5" stroke="#A6AEA8" stroke_width="0.5"/>
    <line x1="88.0" y1="88.0" x2="112.0" y2="88.0" stroke="#47E037" stroke_width="0.5"/>
    <line x1="88.5" y1="88.5" x2="111.5" y2="88.5" stroke="#E1B79B" stroke_width="0.5"/>
    <line x1="89.0" y1="89.0" x2="111.0" y2="89.0" stroke="#F0979C" stroke_width="0.5"/>
    <line x1="89.5" y1="89.5" x2="110.5" y2="89.5" stroke="#E18C5C" stroke_width="0.5"/>
    <line x1="90.0" y1="90.0" x2="110.0" y2="90.0" stroke="#AE4F25" stroke_width="0.5"/>
    <line x1="90.5" y1="90.5" x2="109.5" y2="90.5" stroke="#8099C2" stroke_width="0.5"/>
    <line x1="91.0" y1="91.0" x2="109.0" y2="91.0" stroke="#21B03F" stroke_width="0.5"/>
    <line x1="91.5" y1="91.5" x2="108.5" y2="91.5" stroke="#08E36A" stroke_width="0.5"/>
    <line x1="92.0" y1="92.0" x2="108.0" y2="92.0" stroke="#F922AF" stroke_width="0.5"/>
    <line x1="92.5" y1="92.5" x2="107.5" y2="92.5" stroke="#479D33" stroke_width="0.5"/>
    <line x1="93.0" y1="93.0" x2="107.0" y2="93.0" stroke="#A08A79" stroke_width="0.5"/>
    <line x1="93.5" y1="93.5" x2="106.5" y2="93.5" stroke="#41D690" stroke_width="0.5"/>
    <line x1="94.0" y1="94.0" x2="106.0" y2="94.0" stroke="#B81484" stroke_width="0.5"/>
    <line x1="94.5" y1="94.5" x2="105.5" y2="94.5" stroke="#CD1DC9" stroke_width="0.5"/>
    <line x1="95.0" y1="95.0" x2="105.0" y2="95.0" stroke="#31149F" stroke_width="0.5"/>
    <line x1="95.5" y1="95.5" x2="104.5" y2="95.5" stroke="#430434" stroke_width="0.5"/>
    <line x1="96.0" y1="96.0" x2="104.0" y2="96.0" stroke="#B3C7F9" stroke_width="0.5"/>
    <line x1="96.5" y1="96.5" x2="103.5" y2="96.5" stroke="#834872" stroke_width="0.5"/>
    <line x1="97.0" y1="97.0" x2="103.0" y2="97.0" stroke="#0F1B50" stroke_width="0.5"/>
    <line x1="97.5" y1="97.5" x2="102.5" y2="97.5" stroke="#2406EC" stroke_width="0.5"/>
    <line x1="98.0" y1="98.0" x2="102.0" y2="98.0" stroke="#E7AEF3" stroke_width="0.5"/>
    <line x1="98.5" y1="98.5" x2="101.5" y2="98.5" stroke="#6E012B" stroke_width="0.5"/>
    <line x1="99.0" y1="99.0" x2="101.0" y2="99.0" stroke="#AD092B" stroke_width="0.5"/>
    <line x1="99.5" y1="99.5" x2="100.5" y2="99.5" stroke="#223D73" stroke_width="0.5"/>
    <line x1="100.0" y1="100.0" x2="100.0" y2="100.0" stroke="#9A4856" stroke_width="0.5"/>
  </g>
</svg>
