<?xml version='1.0' encoding='UTF-8' standalone='no'?>
<svg xmlns="http://www.w3.org/2000/svg" xmlns:xlink="http://www.w3.org/1999/xlink" version="1.1" width="200" height="200" viewBox="0 0 200 200" style="border:1px solid black">
  <style> text { fill: black; font-family: KaiTi; font-size: 16px;  } </style>
  <text x="150" y="20">過</text>
  <text x="150" y="36">故</text>
  <text x="150" y="52">人</text>
  <text x="150" y="68">莊</text>
  <text x="150" y="84"> </text>
  <text x="150" y="100">孟</text>
  <text x="150" y="116">浩</text>
  <text x="150" y="132">然</text>
  <text x="118" y="20">故</text>
  <text x="118" y="36">人</text>
  <text x="118" y="52">具</text>
  <text x="118" y="68">雞</text>
  <text x="118" y="84">黍</text>
  <text x="118" y="100">，</text>
  <text x="118" y="116">邀</text>
  <text x="118" y="132">我</text>
  <text x="118" y="148">至</text>
  <text x="118" y="164">田</text>
  <text x="118" y="180">家</text>
  <text x="118" y="196">。</text>
  <text x="86" y="20">綠</text>
  <text x="86" y="36">樹</text>
  <text x="86" y="52">村</text>
  <text x="86" y="68">邊</text>
  <text x="86" y="84">合</text>
  <text x="86" y="100">，</text>
  <text x="86" y="116">青</text>
  <text x="86" y="132">山</text>
  <text x="86" y="148">郭</text>
  <text x="86" y="164">外</text>
  <text x="86" y="180">斜</text>
  <text x="86" y="196">。</text>
  <text x="54" y="20">開</text>
  <text x="54" y="36">軒</text>
  <text x="54" y="52">面</text>
  <text x="54" y="68">場</text>
  <text x="54" y="84">圃</text>
  <text x="54" y="100">，</text>
  <text x="54" y="116">把</text>
  <text x="54" y="132">酒</text>
  <text x="54" y="148">話</text>
  <text x="54" y="164">桑</text>
  <text x="54" y="180">麻</text>
  <text x="54" y="196">。</text>
  <text x="22" y="20">待</text>
  <text x="22" y="36">到</text>
  <text x="22" y="52">重</text>
  <text x="22" y="68">陽</text>
  <text x="22" y="84">日</text>
  <text x="22" y="100">，</text>
  <text x="22" y="116">还</text>
  <text x="22" y="132">來</text>
  <text x="22" y="148">就</text>
  <text x="22" y="164">菊</text>
  <text x="22" y="180">花</text>
  <text x="22" y="196">。</text>
</svg>
