<?xml version='1.0' encoding='UTF-8' standalone='no'?>
<svg width="200" height="200" xmlns="http://www.w3.org/2000/svg">
  <g opacity="1.0">
    <rect x="0" y="0" width="200" height="200" fill="white" stroke="black" stroke-width="1"/>
    <style> text { fill:red;font-family:Microsoft YaHei;font-size:24px; } </style>
    <text x="144" y="42">紅</text>
    <text x="144" y="68">樓</text>
    <text x="144" y="94">夢</text>
    <text x="114" y="42">可</text>
    <text x="114" y="68">嘆</text>
    <text x="114" y="94">停</text>
    <text x="114" y="120">機</text>
    <text x="114" y="146">德</text>
    <text x="114" y="172">，</text>
    <text x="84" y="42">堪</text>
    <text x="84" y="68">憐</text>
    <text x="84" y="94">詠</text>
    <text x="84" y="120">絮</text>
    <text x="84" y="146">才</text>
    <text x="84" y="172">。</text>
    <text x="54" y="42">玉</text>
    <text x="54" y="68">帶</text>
    <text x="54" y="94">林</text>
    <text x="54" y="120">中</text>
    <text x="54" y="146">掛</text>
    <text x="54" y="172">，</text>
    <text x="24" y="42">金</text>
    <text x="24" y="68">簪</text>
    <text x="24" y="94">雪</text>
    <text x="24" y="120">裡</text>
    <text x="24" y="146">埋</text>
    <text x="24" y="172">。</text>
  </g>
</svg>
