<?xml version='1.0' encoding='UTF-8' standalone='no'?>
<svg width="200" height="200" xmlns="http://www.w3.org/2000/svg">
  <g opacity="1.0">
    <rect x="0" y="0" width="200" height="200" fill="white" stroke="black" stroke-width="1"/>
    <text x="0.0" y="55.333333333333336" fill="black" font-family="Consolas" font-size="smaller" font-style="normal" font-variant="normal">layer0</text>
    <circle cx="15.0" cy="63.3" r="3" fill="#4B80CF"/>
    <circle cx="15.0" cy="100.0" r="3" fill="#4B80CF"/>
    <circle cx="15.0" cy="136.7" r="3" fill="#4B80CF"/>
    <text x="52.0" y="30.0" fill="black" font-family="Consolas" font-size="smaller" font-style="normal" font-variant="normal">layer1</text>
    <circle cx="67.0" cy="38.0" r="3" fill="#3CD796"/>
    <circle cx="67.0" cy="69.0" r="3" fill="#3CD796"/>
    <circle cx="67.0" cy="100.0" r="3" fill="#3CD796"/>
    <circle cx="67.0" cy="131.0" r="3" fill="#3CD796"/>
    <circle cx="67.0" cy="162.0" r="3" fill="#3CD796"/>
    <text x="104.0" y="39.5" fill="black" font-family="Consolas" font-size="smaller" font-style="normal" font-variant="normal">layer2</text>
    <circle cx="119.0" cy="47.5" r="3" fill="#AC0B37"/>
    <circle cx="119.0" cy="82.5" r="3" fill="#AC0B37"/>
    <circle cx="119.0" cy="117.5" r="3" fill="#AC0B37"/>
    <circle cx="119.0" cy="152.5" r="3" fill="#AC0B37"/>
    <text x="156.0" y="55.333333333333336" fill="black" font-family="Consolas" font-size="smaller" font-style="normal" font-variant="normal">layer3</text>
    <circle cx="171.0" cy="63.3" r="3" fill="#950FC3"/>
    <circle cx="171.0" cy="100.0" r="3" fill="#950FC3"/>
    <circle cx="171.0" cy="136.7" r="3" fill="#950FC3"/>
    <line x1="15.0" y1="63.3" x2="67.0" y2="38.0" stroke="black" stroke-width="0.5"/>
    <line x1="15.0" y1="63.3" x2="67.0" y2="69.0" stroke="black" stroke-width="0.5"/>
    <line x1="15.0" y1="63.3" x2="67.0" y2="100.0" stroke="black" stroke-width="0.5"/>
    <line x1="15.0" y1="63.3" x2="67.0" y2="131.0" stroke="black" stroke-width="0.5"/>
    <line x1="15.0" y1="63.3" x2="67.0" y2="162.0" stroke="black" stroke-width="0.5"/>
    <line x1="15.0" y1="100.0" x2="67.0" y2="38.0" stroke="black" stroke-width="0.5"/>
    <line x1="15.0" y1="100.0" x2="67.0" y2="69.0" stroke="black" stroke-width="0.5"/>
    <line x1="15.0" y1="100.0" x2="67.0" y2="100.0" stroke="black" stroke-width="0.5"/>
    <line x1="15.0" y1="100.0" x2="67.0" y2="131.0" stroke="black" stroke-width="0.5"/>
    <line x1="15.0" y1="100.0" x2="67.0" y2="162.0" stroke="black" stroke-width="0.5"/>
    <line x1="15.0" y1="136.7" x2="67.0" y2="38.0" stroke="black" stroke-width="0.5"/>
    <line x1="15.0" y1="136.7" x2="67.0" y2="69.0" stroke="black" stroke-width="0.5"/>
    <line x1="15.0" y1="136.7" x2="67.0" y2="100.0" stroke="black" stroke-width="0.5"/>
    <line x1="15.0" y1="136.7" x2="67.0" y2="131.0" stroke="black" stroke-width="0.5"/>
    <line x1="15.0" y1="136.7" x2="67.0" y2="162.0" stroke="black" stroke-width="0.5"/>
    <line x1="67.0" y1="38.0" x2="119.0" y2="47.5" stroke="black" stroke-width="0.5"/>
    <line x1="67.0" y1="38.0" x2="119.0" y2="82.5" stroke="black" stroke-width="0.5"/>
    <line x1="67.0" y1="38.0" x2="119.0" y2="117.5" stroke="black" stroke-width="0.5"/>
    <line x1="67.0" y1="38.0" x2="119.0" y2="152.5" stroke="black" stroke-width="0.5"/>
    <line x1="67.0" y1="69.0" x2="119.0" y2="47.5" stroke="black" stroke-width="0.5"/>
    <line x1="67.0" y1="69.0" x2="119.0" y2="82.5" stroke="black" stroke-width="0.5"/>
    <line x1="67.0" y1="69.0" x2="119.0" y2="117.5" stroke="black" stroke-width="0.5"/>
    <line x1="67.0" y1="69.0" x2="119.0" y2="152.5" stroke="black" stroke-width="0.5"/>
    <line x1="67.0" y1="100.0" x2="119.0" y2="47.5" stroke="black" stroke-width="0.5"/>
    <line x1="67.0" y1="100.0" x2="119.0" y2="82.5" stroke="black" stroke-width="0.5"/>
    <line x1="67.0" y1="100.0" x2="119.0" y2="117.5" stroke="black" stroke-width="0.5"/>
    <line x1="67.0" y1="100.0" x2="119.0" y2="152.5" stroke="black" stroke-width="0.5"/>
    <line x1="67.0" y1="131.0" x2="119.0" y2="47.5" stroke="black" stroke-width="0.5"/>
    <line x1="67.0" y1="131.0" x2="119.0" y2="82.5" stroke="black" stroke-width="0.5"/>
    <line x1="67.0" y1="131.0" x2="119.0" y2="117.5" stroke="black" stroke-width="0.5"/>
    <line x1="67.0" y1="131.0" x2="119.0" y2="152.5" stroke="black" stroke-width="0.5"/>
    <line x1="67.0" y1="162.0" x2="119.0" y2="47.5" stroke="black" stroke-width="0.5"/>
    <line x1="67.0" y1="162.0" x2="119.0" y2="82.5" stroke="black" stroke-width="0.5"/>
    <line x1="67.0" y1="162.0" x2="119.0" y2="117.5" stroke="black" stroke-width="0.5"/>
    <line x1="67.0" y1="162.0" x2="119.0" y2="152.5" stroke="black" stroke-width="0.5"/>
    <line x1="119.0" y1="47.5" x2="171.0" y2="63.3" stroke="black" stroke-width="0.5"/>
    <line x1="119.0" y1="47.5" x2="171.0" y2="100.0" stroke="black" stroke-width="0.5"/>
    <line x1="119.0" y1="47.5" x2="171.0" y2="136.7" stroke="black" stroke-width="0.5"/>
    <line x1="119.0" y1="82.5" x2="171.0" y2="63.3" stroke="black" stroke-width="0.5"/>
    <line x1="119.0" y1="82.5" x2="171.0" y2="100.0" stroke="black" stroke-width="0.5"/>
    <line x1="119.0" y1="82.5" x2="171.0" y2="136.7" stroke="black" stroke-width="0.5"/>
    <line x1="119.0" y1="117.5" x2="171.0" y2="63.3" stroke="black" stroke-width="0.5"/>
    <line x1="119.0" y1="117.5" x2="171.0" y2="100.0" stroke="black" stroke-width="0.5"/>
    <line x1="119.0" y1="117.5" x2="171.0" y2="136.7" stroke="black" stroke-width="0.5"/>
    <line x1="119.0" y1="152.5" x2="171.0" y2="63.3" stroke="black" stroke-width="0.5"/>
    <line x1="119.0" y1="152.5" x2="171.0" y2="100.0" stroke="black" stroke-width="0.5"/>
    <line x1="119.0" y1="152.5" x2="171.0" y2="136.7" stroke="black" stroke-width="0.5"/>
  </g>
</svg>
