<?xml version='1.0' encoding='UTF-8' standalone='no'?>
<svg width="200" height="200" xmlns="http://www.w3.org/2000/svg">
  <g opacity="1.0">
    <rect x="0" y="0" width="200" height="200" fill="white" stroke="black" stroke-width="1"/>
    <line x1="100" y1="100" x2="180.8" y2="101.9" stroke="#48C9B0" stroke-width="1.5"/>
    <line x1="100" y1="100" x2="181.3" y2="104.7" stroke="#48C9B0" stroke-width="0.2"/>
    <line x1="100" y1="100" x2="178.5" y2="106.2" stroke="#48C9B0" stroke-width="0.3"/>
    <line x1="100" y1="100" x2="175.6" y2="108.4" stroke="#48C9B0" stroke-width="1.0"/>
    <line x1="100" y1="100" x2="183.3" y2="110.2" stroke="#48C9B0" stroke-width="1.0"/>
    <line x1="100" y1="100" x2="185.5" y2="111.7" stroke="#48C9B0" stroke-width="1.0"/>
    <line x1="100" y1="100" x2="172.0" y2="110.6" stroke="#48C9B0" stroke-width="1.5"/>
    <line x1="100" y1="100" x2="176.1" y2="112.3" stroke="#48C9B0" stroke-width="0.2"/>
    <line x1="100" y1="100" x2="190.1" y2="116.5" stroke="#48C9B0" stroke-width="0.2"/>
    <line x1="100" y1="100" x2="179.7" y2="117.1" stroke="#48C9B0" stroke-width="0.2"/>
    <line x1="100" y1="100" x2="173.1" y2="116.1" stroke="#48C9B0" stroke-width="1.5"/>
    <line x1="100" y1="100" x2="179.0" y2="119.3" stroke="#48C9B0" stroke-width="0.2"/>
    <line x1="100" y1="100" x2="173.0" y2="119.7" stroke="#48C9B0" stroke-width="0.3"/>
    <line x1="100" y1="100" x2="174.7" y2="122.1" stroke="#48C9B0" stroke-width="1.5"/>
    <line x1="100" y1="100" x2="181.2" y2="126.1" stroke="#48C9B0" stroke-width="0.8"/>
    <line x1="100" y1="100" x2="173.1" y2="125.9" stroke="#48C9B0" stroke-width="0.3"/>
    <line x1="100" y1="100" x2="168.9" y2="125.9" stroke="#48C9B0" stroke-width="1.0"/>
    <line x1="100" y1="100" x2="173.5" y2="129.2" stroke="#48C9B0" stroke-width="0.2"/>
    <line x1="100" y1="100" x2="171.6" y2="130.0" stroke="#48C9B0" stroke-width="0.8"/>
    <line x1="100" y1="100" x2="169.9" y2="133.1" stroke="#48C9B0" stroke-width="0.2"/>
    <line x1="100" y1="100" x2="171.2" y2="136.3" stroke="#48C9B0" stroke-width="0.8"/>
    <line x1="100" y1="100" x2="171.1" y2="139.1" stroke="#48C9B0" stroke-width="1.0"/>
    <line x1="100" y1="100" x2="172.2" y2="142.2" stroke="#48C9B0" stroke-width="0.2"/>
    <line x1="100" y1="100" x2="169.5" y2="143.4" stroke="#48C9B0" stroke-width="0.3"/>
    <line x1="100" y1="100" x2="170.2" y2="145.7" stroke="#48C9B0" stroke-width="1.5"/>
    <line x1="100" y1="100" x2="172.3" y2="150.0" stroke="#48C9B0" stroke-width="0.2"/>
    <line x1="100" y1="100" x2="164.6" y2="146.2" stroke="#48C9B0" stroke-width="1.0"/>
    <line x1="100" y1="100" x2="162.2" y2="145.9" stroke="#48C9B0" stroke-width="0.3"/>
    <line x1="100" y1="100" x2="159.3" y2="144.9" stroke="#48C9B0" stroke-width="0.8"/>
    <line x1="100" y1="100" x2="163.9" y2="150.5" stroke="#48C9B0" stroke-width="0.8"/>
    <line x1="100" y1="100" x2="156.9" y2="146.6" stroke="#48C9B0" stroke-width="1.5"/>
    <line x1="100" y1="100" x2="161.4" y2="152.3" stroke="#48C9B0" stroke-width="1.5"/>
    <line x1="100" y1="100" x2="157.0" y2="151.9" stroke="#48C9B0" stroke-width="1.0"/>
    <line x1="100" y1="100" x2="164.4" y2="162.3" stroke="#48C9B0" stroke-width="1.0"/>
    <line x1="100" y1="100" x2="154.3" y2="156.3" stroke="#48C9B0" stroke-width="1.0"/>
    <line x1="100" y1="100" x2="156.3" y2="161.8" stroke="#48C9B0" stroke-width="0.2"/>
    <line x1="100" y1="100" x2="151.4" y2="160.3" stroke="#48C9B0" stroke-width="0.3"/>
    <line x1="100" y1="100" x2="152.0" y2="163.6" stroke="#48C9B0" stroke-width="0.2"/>
    <line x1="100" y1="100" x2="152.3" y2="166.6" stroke="#48C9B0" stroke-width="1.0"/>
    <line x1="100" y1="100" x2="147.9" y2="162.4" stroke="#48C9B0" stroke-width="0.8"/>
    <line x1="100" y1="100" x2="141.6" y2="157.3" stroke="#48C9B0" stroke-width="0.3"/>
    <line x1="100" y1="100" x2="146.6" y2="165.4" stroke="#48C9B0" stroke-width="0.3"/>
    <line x1="100" y1="100" x2="144.8" y2="164.9" stroke="#48C9B0" stroke-width="0.2"/>
    <line x1="100" y1="100" x2="140.7" y2="163.9" stroke="#48C9B0" stroke-width="1.5"/>
    <line x1="100" y1="100" x2="144.4" y2="172.0" stroke="#48C9B0" stroke-width="0.8"/>
    <line x1="100" y1="100" x2="138.5" y2="165.9" stroke="#48C9B0" stroke-width="1.0"/>
    <line x1="100" y1="100" x2="136.4" y2="165.3" stroke="#48C9B0" stroke-width="0.2"/>
    <line x1="100" y1="100" x2="141.8" y2="180.6" stroke="#48C9B0" stroke-width="1.0"/>
    <line x1="100" y1="100" x2="136.4" y2="172.0" stroke="#48C9B0" stroke-width="1.0"/>
    <line x1="100" y1="100" x2="135.8" y2="172.1" stroke="#48C9B0" stroke-width="0.3"/>
    <line x1="100" y1="100" x2="133.7" y2="172.1" stroke="#48C9B0" stroke-width="0.2"/>
    <line x1="100" y1="100" x2="131.6" y2="169.9" stroke="#48C9B0" stroke-width="1.5"/>
    <line x1="100" y1="100" x2="131.4" y2="174.0" stroke="#48C9B0" stroke-width="1.5"/>
    <line x1="100" y1="100" x2="131.5" y2="179.0" stroke="#48C9B0" stroke-width="0.8"/>
    <line x1="100" y1="100" x2="127.1" y2="169.0" stroke="#48C9B0" stroke-width="0.8"/>
    <line x1="100" y1="100" x2="127.5" y2="176.9" stroke="#48C9B0" stroke-width="0.3"/>
    <line x1="100" y1="100" x2="123.7" y2="173.4" stroke="#48C9B0" stroke-width="0.3"/>
    <line x1="100" y1="100" x2="125.1" y2="179.9" stroke="#48C9B0" stroke-width="1.0"/>
    <line x1="100" y1="100" x2="122.3" y2="179.2" stroke="#48C9B0" stroke-width="0.2"/>
    <line x1="100" y1="100" x2="120.8" y2="176.0" stroke="#48C9B0" stroke-width="0.2"/>
    <line x1="100" y1="100" x2="121.5" y2="178.0" stroke="#48C9B0" stroke-width="0.2"/>
    <line x1="100" y1="100" x2="121.2" y2="179.9" stroke="#48C9B0" stroke-width="1.0"/>
    <line x1="100" y1="100" x2="120.6" y2="182.5" stroke="#48C9B0" stroke-width="0.2"/>
    <line x1="100" y1="100" x2="117.4" y2="180.2" stroke="#48C9B0" stroke-width="1.5"/>
    <line x1="100" y1="100" x2="114.8" y2="174.0" stroke="#48C9B0" stroke-width="0.2"/>
    <line x1="100" y1="100" x2="114.9" y2="178.5" stroke="#48C9B0" stroke-width="0.2"/>
    <line x1="100" y1="100" x2="113.4" y2="175.7" stroke="#48C9B0" stroke-width="0.2"/>
    <line x1="100" y1="100" x2="112.3" y2="179.2" stroke="#48C9B0" stroke-width="1.0"/>
    <line x1="100" y1="100" x2="109.9" y2="178.2" stroke="#48C9B0" stroke-width="0.2"/>
    <line x1="100" y1="100" x2="107.8" y2="181.4" stroke="#48C9B0" stroke-width="1.0"/>
    <line x1="100" y1="100" x2="104.9" y2="167.6" stroke="#48C9B0" stroke-width="0.8"/>
    <line x1="100" y1="100" x2="103.4" y2="177.5" stroke="#48C9B0" stroke-width="1.0"/>
    <line x1="100" y1="100" x2="102.1" y2="179.7" stroke="#48C9B0" stroke-width="0.2"/>
    <line x1="100" y1="100" x2="101.2" y2="185.1" stroke="#48C9B0" stroke-width="1.5"/>
    <line x1="100" y1="100" x2="99.9" y2="173.0" stroke="#48C9B0" stroke-width="0.3"/>
    <line x1="100" y1="100" x2="98.3" y2="177.3" stroke="#48C9B0" stroke-width="0.3"/>
    <line x1="100" y1="100" x2="96.8" y2="182.7" stroke="#48C9B0" stroke-width="0.2"/>
    <line x1="100" y1="100" x2="95.8" y2="173.5" stroke="#48C9B0" stroke-width="1.0"/>
    <line x1="100" y1="100" x2="94.7" y2="178.6" stroke="#48C9B0" stroke-width="1.0"/>
    <line x1="100" y1="100" x2="92.3" y2="179.4" stroke="#48C9B0" stroke-width="0.3"/>
    <line x1="100" y1="100" x2="90.3" y2="176.8" stroke="#48C9B0" stroke-width="0.3"/>
    <line x1="100" y1="100" x2="87.4" y2="181.6" stroke="#48C9B0" stroke-width="1.0"/>
    <line x1="100" y1="100" x2="85.9" y2="177.7" stroke="#48C9B0" stroke-width="0.3"/>
    <line x1="100" y1="100" x2="83.5" y2="179.8" stroke="#48C9B0" stroke-width="0.8"/>
    <line x1="100" y1="100" x2="81.7" y2="177.2" stroke="#48C9B0" stroke-width="1.0"/>
    <line x1="100" y1="100" x2="77.7" y2="183.4" stroke="#48C9B0" stroke-width="0.3"/>
    <line x1="100" y1="100" x2="77.3" y2="176.9" stroke="#48C9B0" stroke-width="0.3"/>
    <line x1="100" y1="100" x2="73.3" y2="182.7" stroke="#48C9B0" stroke-width="0.2"/>
    <line x1="100" y1="100" x2="73.3" y2="176.3" stroke="#48C9B0" stroke-width="1.5"/>
    <line x1="100" y1="100" x2="71.0" y2="175.8" stroke="#48C9B0" stroke-width="0.2"/>
    <line x1="100" y1="100" x2="70.4" y2="170.8" stroke="#48C9B0" stroke-width="1.5"/>
    <line x1="100" y1="100" x2="68.4" y2="172.1" stroke="#48C9B0" stroke-width="0.3"/>
    <line x1="100" y1="100" x2="65.4" y2="172.0" stroke="#48C9B0" stroke-width="0.3"/>
    <line x1="100" y1="100" x2="64.1" y2="171.4" stroke="#48C9B0" stroke-width="1.0"/>
    <line x1="100" y1="100" x2="63.0" y2="168.2" stroke="#48C9B0" stroke-width="0.2"/>
    <line x1="100" y1="100" x2="63.7" y2="165.3" stroke="#48C9B0" stroke-width="1.5"/>
    <line x1="100" y1="100" x2="55.9" y2="175.6" stroke="#48C9B0" stroke-width="0.2"/>
    <line x1="100" y1="100" x2="58.8" y2="166.2" stroke="#48C9B0" stroke-width="0.2"/>
    <line x1="100" y1="100" x2="60.4" y2="162.4" stroke="#48C9B0" stroke-width="1.5"/>
    <line x1="100" y1="100" x2="54.6" y2="166.5" stroke="#48C9B0" stroke-width="1.5"/>
    <line x1="100" y1="100" x2="56.4" y2="164.0" stroke="#48C9B0" stroke-width="1.5"/>
    <line x1="100" y1="100" x2="54.2" y2="164.8" stroke="#48C9B0" stroke-width="1.0"/>
    <line x1="100" y1="100" x2="54.8" y2="163.0" stroke="#48C9B0" stroke-width="0.3"/>
    <line x1="100" y1="100" x2="56.3" y2="157.6" stroke="#48C9B0" stroke-width="1.5"/>
    <line x1="100" y1="100" x2="49.5" y2="163.5" stroke="#48C9B0" stroke-width="0.2"/>
    <line x1="100" y1="100" x2="45.5" y2="165.5" stroke="#48C9B0" stroke-width="1.0"/>
    <line x1="100" y1="100" x2="49.5" y2="156.9" stroke="#48C9B0" stroke-width="1.0"/>
    <line x1="100" y1="100" x2="48.2" y2="155.9" stroke="#48C9B0" stroke-width="1.0"/>
    <line x1="100" y1="100" x2="43.1" y2="159.6" stroke="#48C9B0" stroke-width="1.5"/>
    <line x1="100" y1="100" x2="44.0" y2="156.5" stroke="#48C9B0" stroke-width="1.5"/>
    <line x1="100" y1="100" x2="50.6" y2="149.0" stroke="#48C9B0" stroke-width="0.2"/>
    <line x1="100" y1="100" x2="37.3" y2="159.3" stroke="#48C9B0" stroke-width="0.8"/>
    <line x1="100" y1="100" x2="42.4" y2="151.6" stroke="#48C9B0" stroke-width="0.8"/>
    <line x1="100" y1="100" x2="42.2" y2="150.4" stroke="#48C9B0" stroke-width="0.3"/>
    <line x1="100" y1="100" x2="41.7" y2="149.7" stroke="#48C9B0" stroke-width="1.5"/>
    <line x1="100" y1="100" x2="37.4" y2="148.9" stroke="#48C9B0" stroke-width="0.3"/>
    <line x1="100" y1="100" x2="39.7" y2="146.4" stroke="#48C9B0" stroke-width="1.0"/>
    <line x1="100" y1="100" x2="33.8" y2="148.4" stroke="#48C9B0" stroke-width="1.0"/>
    <line x1="100" y1="100" x2="32.7" y2="146.9" stroke="#48C9B0" stroke-width="0.8"/>
    <line x1="100" y1="100" x2="35.5" y2="143.3" stroke="#48C9B0" stroke-width="0.8"/>
    <line x1="100" y1="100" x2="32.8" y2="142.8" stroke="#48C9B0" stroke-width="0.8"/>
    <line x1="100" y1="100" x2="32.7" y2="139.9" stroke="#48C9B0" stroke-width="0.2"/>
    <line x1="100" y1="100" x2="25.2" y2="142.4" stroke="#48C9B0" stroke-width="1.5"/>
    <line x1="100" y1="100" x2="30.2" y2="138.5" stroke="#48C9B0" stroke-width="1.0"/>
    <line x1="100" y1="100" x2="35.7" y2="134.2" stroke="#48C9B0" stroke-width="1.5"/>
    <line x1="100" y1="100" x2="34.4" y2="133.0" stroke="#48C9B0" stroke-width="0.2"/>
    <line x1="100" y1="100" x2="28.2" y2="135.5" stroke="#48C9B0" stroke-width="0.8"/>
    <line x1="100" y1="100" x2="28.5" y2="132.5" stroke="#48C9B0" stroke-width="0.3"/>
    <line x1="100" y1="100" x2="29.1" y2="130.8" stroke="#48C9B0" stroke-width="0.8"/>
    <line x1="100" y1="100" x2="24.9" y2="131.4" stroke="#48C9B0" stroke-width="1.0"/>
    <line x1="100" y1="100" x2="24.9" y2="129.5" stroke="#48C9B0" stroke-width="0.2"/>
    <line x1="100" y1="100" x2="26.7" y2="126.5" stroke="#48C9B0" stroke-width="0.3"/>
    <line x1="100" y1="100" x2="27.6" y2="125.0" stroke="#48C9B0" stroke-width="0.3"/>
    <line x1="100" y1="100" x2="27.6" y2="122.0" stroke="#48C9B0" stroke-width="1.5"/>
    <line x1="100" y1="100" x2="24.3" y2="122.2" stroke="#48C9B0" stroke-width="1.5"/>
    <line x1="100" y1="100" x2="14.7" y2="122.6" stroke="#48C9B0" stroke-width="1.5"/>
    <line x1="100" y1="100" x2="22.1" y2="119.2" stroke="#48C9B0" stroke-width="1.0"/>
    <line x1="100" y1="100" x2="24.3" y2="116.6" stroke="#48C9B0" stroke-width="1.5"/>
    <line x1="100" y1="100" x2="16.3" y2="116.1" stroke="#48C9B0" stroke-width="0.2"/>
    <line x1="100" y1="100" x2="19.4" y2="113.3" stroke="#48C9B0" stroke-width="0.3"/>
    <line x1="100" y1="100" x2="21.2" y2="110.3" stroke="#48C9B0" stroke-width="0.8"/>
    <line x1="100" y1="100" x2="18.8" y2="109.0" stroke="#48C9B0" stroke-width="0.8"/>
    <line x1="100" y1="100" x2="23.5" y2="108.2" stroke="#48C9B0" stroke-width="1.0"/>
    <line x1="100" y1="100" x2="23.4" y2="105.8" stroke="#48C9B0" stroke-width="1.5"/>
    <line x1="100" y1="100" x2="18.0" y2="104.3" stroke="#48C9B0" stroke-width="1.5"/>
    <line x1="100" y1="100" x2="21.3" y2="104.3" stroke="#48C9B0" stroke-width="0.2"/>
    <line x1="100" y1="100" x2="21.0" y2="103.2" stroke="#48C9B0" stroke-width="0.2"/>
    <line x1="100" y1="100" x2="23.4" y2="101.6" stroke="#48C9B0" stroke-width="0.8"/>
    <line x1="100" y1="100" x2="15.8" y2="100.7" stroke="#48C9B0" stroke-width="1.5"/>
    <line x1="100" y1="100" x2="19.3" y2="98.2" stroke="#48C9B0" stroke-width="0.3"/>
    <line x1="100" y1="100" x2="21.9" y2="97.0" stroke="#48C9B0" stroke-width="1.5"/>
    <line x1="100" y1="100" x2="20.0" y2="95.3" stroke="#48C9B0" stroke-width="0.3"/>
    <line x1="100" y1="100" x2="20.4" y2="95.0" stroke="#48C9B0" stroke-width="0.3"/>
    <line x1="100" y1="100" x2="19.3" y2="93.5" stroke="#48C9B0" stroke-width="1.5"/>
    <line x1="100" y1="100" x2="16.4" y2="91.6" stroke="#48C9B0" stroke-width="0.3"/>
    <line x1="100" y1="100" x2="20.4" y2="90.1" stroke="#48C9B0" stroke-width="0.2"/>
    <line x1="100" y1="100" x2="17.0" y2="87.7" stroke="#48C9B0" stroke-width="0.3"/>
    <line x1="100" y1="100" x2="17.0" y2="85.5" stroke="#48C9B0" stroke-width="1.5"/>
    <line x1="100" y1="100" x2="28.8" y2="85.3" stroke="#48C9B0" stroke-width="1.0"/>
    <line x1="100" y1="100" x2="19.5" y2="80.9" stroke="#48C9B0" stroke-width="0.2"/>
    <line x1="100" y1="100" x2="23.1" y2="79.3" stroke="#48C9B0" stroke-width="0.3"/>
    <line x1="100" y1="100" x2="21.5" y2="78.0" stroke="#48C9B0" stroke-width="1.5"/>
    <line x1="100" y1="100" x2="21.3" y2="77.6" stroke="#48C9B0" stroke-width="1.5"/>
    <line x1="100" y1="100" x2="19.2" y2="74.6" stroke="#48C9B0" stroke-width="0.3"/>
    <line x1="100" y1="100" x2="22.2" y2="73.5" stroke="#48C9B0" stroke-width="0.3"/>
    <line x1="100" y1="100" x2="28.8" y2="74.0" stroke="#48C9B0" stroke-width="0.3"/>
    <line x1="100" y1="100" x2="21.9" y2="68.3" stroke="#48C9B0" stroke-width="0.2"/>
    <line x1="100" y1="100" x2="26.1" y2="68.4" stroke="#48C9B0" stroke-width="1.5"/>
    <line x1="100" y1="100" x2="33.8" y2="70.0" stroke="#48C9B0" stroke-width="0.3"/>
    <line x1="100" y1="100" x2="25.9" y2="64.1" stroke="#48C9B0" stroke-width="0.2"/>
    <line x1="100" y1="100" x2="31.1" y2="64.1" stroke="#48C9B0" stroke-width="1.5"/>
    <line x1="100" y1="100" x2="29.6" y2="59.4" stroke="#48C9B0" stroke-width="1.0"/>
    <line x1="100" y1="100" x2="31.8" y2="58.4" stroke="#48C9B0" stroke-width="0.8"/>
    <line x1="100" y1="100" x2="34.9" y2="59.6" stroke="#48C9B0" stroke-width="0.2"/>
    <line x1="100" y1="100" x2="35.7" y2="58.2" stroke="#48C9B0" stroke-width="1.5"/>
    <line x1="100" y1="100" x2="32.1" y2="53.4" stroke="#48C9B0" stroke-width="0.3"/>
    <line x1="100" y1="100" x2="34.7" y2="53.4" stroke="#48C9B0" stroke-width="0.3"/>
    <line x1="100" y1="100" x2="32.1" y2="50.5" stroke="#48C9B0" stroke-width="1.5"/>
    <line x1="100" y1="100" x2="34.1" y2="50.0" stroke="#48C9B0" stroke-width="1.0"/>
    <line x1="100" y1="100" x2="36.2" y2="49.1" stroke="#48C9B0" stroke-width="0.3"/>
    <line x1="100" y1="100" x2="39.3" y2="48.4" stroke="#48C9B0" stroke-width="1.0"/>
    <line x1="100" y1="100" x2="39.2" y2="44.6" stroke="#48C9B0" stroke-width="1.0"/>
    <line x1="100" y1="100" x2="34.7" y2="40.7" stroke="#48C9B0" stroke-width="0.2"/>
    <line x1="100" y1="100" x2="37.6" y2="42.3" stroke="#48C9B0" stroke-width="0.8"/>
    <line x1="100" y1="100" x2="41.6" y2="44.2" stroke="#48C9B0" stroke-width="0.3"/>
    <line x1="100" y1="100" x2="37.9" y2="39.3" stroke="#48C9B0" stroke-width="1.0"/>
    <line x1="100" y1="100" x2="46.7" y2="43.4" stroke="#48C9B0" stroke-width="0.2"/>
    <line x1="100" y1="100" x2="48.7" y2="42.6" stroke="#48C9B0" stroke-width="0.8"/>
    <line x1="100" y1="100" x2="48.4" y2="43.4" stroke="#48C9B0" stroke-width="1.5"/>
    <line x1="100" y1="100" x2="51.8" y2="45.4" stroke="#48C9B0" stroke-width="1.0"/>
    <line x1="100" y1="100" x2="47.4" y2="37.7" stroke="#48C9B0" stroke-width="0.8"/>
    <line x1="100" y1="100" x2="50.8" y2="40.4" stroke="#48C9B0" stroke-width="0.3"/>
    <line x1="100" y1="100" x2="53.2" y2="41.5" stroke="#48C9B0" stroke-width="1.5"/>
    <line x1="100" y1="100" x2="48.9" y2="32.8" stroke="#48C9B0" stroke-width="0.2"/>
    <line x1="100" y1="100" x2="51.3" y2="31.1" stroke="#48C9B0" stroke-width="1.5"/>
    <line x1="100" y1="100" x2="55.3" y2="31.8" stroke="#48C9B0" stroke-width="0.8"/>
    <line x1="100" y1="100" x2="55.2" y2="28.6" stroke="#48C9B0" stroke-width="1.5"/>
    <line x1="100" y1="100" x2="60.9" y2="33.9" stroke="#48C9B0" stroke-width="1.0"/>
    <line x1="100" y1="100" x2="60.5" y2="31.2" stroke="#48C9B0" stroke-width="0.2"/>
    <line x1="100" y1="100" x2="62.3" y2="30.7" stroke="#48C9B0" stroke-width="1.5"/>
    <line x1="100" y1="100" x2="63.2" y2="29.4" stroke="#48C9B0" stroke-width="0.3"/>
    <line x1="100" y1="100" x2="62.3" y2="25.8" stroke="#48C9B0" stroke-width="1.0"/>
    <line x1="100" y1="100" x2="63.5" y2="26.0" stroke="#48C9B0" stroke-width="1.0"/>
    <line x1="100" y1="100" x2="69.3" y2="33.5" stroke="#48C9B0" stroke-width="1.0"/>
    <line x1="100" y1="100" x2="66.0" y2="21.9" stroke="#48C9B0" stroke-width="0.2"/>
    <line x1="100" y1="100" x2="69.9" y2="27.0" stroke="#48C9B0" stroke-width="0.2"/>
    <line x1="100" y1="100" x2="71.4" y2="25.3" stroke="#48C9B0" stroke-width="1.5"/>
    <line x1="100" y1="100" x2="71.4" y2="20.0" stroke="#48C9B0" stroke-width="0.3"/>
    <line x1="100" y1="100" x2="76.9" y2="30.3" stroke="#48C9B0" stroke-width="0.3"/>
    <line x1="100" y1="100" x2="74.0" y2="16.7" stroke="#48C9B0" stroke-width="1.5"/>
    <line x1="100" y1="100" x2="79.1" y2="24.4" stroke="#48C9B0" stroke-width="1.0"/>
    <line x1="100" y1="100" x2="81.9" y2="29.6" stroke="#48C9B0" stroke-width="0.8"/>
    <line x1="100" y1="100" x2="81.2" y2="26.0" stroke="#48C9B0" stroke-width="1.0"/>
    <line x1="100" y1="100" x2="82.9" y2="28.4" stroke="#48C9B0" stroke-width="0.2"/>
    <line x1="100" y1="100" x2="84.6" y2="26.9" stroke="#48C9B0" stroke-width="0.3"/>
    <line x1="100" y1="100" x2="83.8" y2="16.1" stroke="#48C9B0" stroke-width="0.2"/>
    <line x1="100" y1="100" x2="87.0" y2="21.1" stroke="#48C9B0" stroke-width="1.5"/>
    <line x1="100" y1="100" x2="89.2" y2="22.6" stroke="#48C9B0" stroke-width="1.0"/>
    <line x1="100" y1="100" x2="89.1" y2="17.4" stroke="#48C9B0" stroke-width="0.3"/>
    <line x1="100" y1="100" x2="90.1" y2="17.2" stroke="#48C9B0" stroke-width="0.2"/>
    <line x1="100" y1="100" x2="90.8" y2="14.6" stroke="#48C9B0" stroke-width="0.3"/>
    <line x1="100" y1="100" x2="91.8" y2="21.3" stroke="#48C9B0" stroke-width="0.3"/>
    <line x1="100" y1="100" x2="93.4" y2="31.3" stroke="#48C9B0" stroke-width="0.3"/>
    <line x1="100" y1="100" x2="93.6" y2="22.8" stroke="#48C9B0" stroke-width="0.8"/>
    <line x1="100" y1="100" x2="94.2" y2="13.1" stroke="#48C9B0" stroke-width="0.8"/>
    <line x1="100" y1="100" x2="97.3" y2="20.9" stroke="#48C9B0" stroke-width="0.8"/>
    <line x1="100" y1="100" x2="97.4" y2="15.7" stroke="#48C9B0" stroke-width="0.2"/>
    <line x1="100" y1="100" x2="99.0" y2="31.4" stroke="#48C9B0" stroke-width="0.2"/>
    <line x1="100" y1="100" x2="102.1" y2="22.3" stroke="#48C9B0" stroke-width="1.5"/>
    <line x1="100" y1="100" x2="102.4" y2="14.3" stroke="#48C9B0" stroke-width="0.2"/>
    <line x1="100" y1="100" x2="102.2" y2="22.7" stroke="#48C9B0" stroke-width="1.0"/>
    <line x1="100" y1="100" x2="103.3" y2="14.2" stroke="#48C9B0" stroke-width="0.3"/>
    <line x1="100" y1="100" x2="103.2" y2="23.7" stroke="#48C9B0" stroke-width="0.2"/>
    <line x1="100" y1="100" x2="105.6" y2="17.2" stroke="#48C9B0" stroke-width="1.0"/>
    <line x1="100" y1="100" x2="108.1" y2="13.7" stroke="#48C9B0" stroke-width="0.2"/>
    <line x1="100" y1="100" x2="108.8" y2="27.9" stroke="#48C9B0" stroke-width="0.2"/>
    <line x1="100" y1="100" x2="111.0" y2="19.2" stroke="#48C9B0" stroke-width="0.2"/>
    <line x1="100" y1="100" x2="111.7" y2="22.9" stroke="#48C9B0" stroke-width="0.2"/>
    <line x1="100" y1="100" x2="115.0" y2="15.2" stroke="#48C9B0" stroke-width="0.3"/>
    <line x1="100" y1="100" x2="116.4" y2="23.4" stroke="#48C9B0" stroke-width="1.0"/>
    <line x1="100" y1="100" x2="117.6" y2="27.0" stroke="#48C9B0" stroke-width="0.2"/>
    <line x1="100" y1="100" x2="121.0" y2="23.8" stroke="#48C9B0" stroke-width="0.8"/>
    <line x1="100" y1="100" x2="124.6" y2="20.3" stroke="#48C9B0" stroke-width="0.3"/>
    <line x1="100" y1="100" x2="126.2" y2="22.7" stroke="#48C9B0" stroke-width="0.8"/>
    <line x1="100" y1="100" x2="123.8" y2="29.8" stroke="#48C9B0" stroke-width="0.8"/>
    <line x1="100" y1="100" x2="126.7" y2="22.6" stroke="#48C9B0" stroke-width="1.0"/>
    <line x1="100" y1="100" x2="128.5" y2="23.4" stroke="#48C9B0" stroke-width="0.3"/>
    <line x1="100" y1="100" x2="130.3" y2="26.7" stroke="#48C9B0" stroke-width="0.8"/>
    <line x1="100" y1="100" x2="132.4" y2="28.7" stroke="#48C9B0" stroke-width="0.3"/>
    <line x1="100" y1="100" x2="136.0" y2="26.5" stroke="#48C9B0" stroke-width="1.0"/>
    <line x1="100" y1="100" x2="137.0" y2="24.3" stroke="#48C9B0" stroke-width="0.8"/>
    <line x1="100" y1="100" x2="137.9" y2="26.0" stroke="#48C9B0" stroke-width="1.0"/>
    <line x1="100" y1="100" x2="138.3" y2="29.9" stroke="#48C9B0" stroke-width="1.0"/>
    <line x1="100" y1="100" x2="138.3" y2="33.5" stroke="#48C9B0" stroke-width="1.0"/>
    <line x1="100" y1="100" x2="141.4" y2="30.6" stroke="#48C9B0" stroke-width="1.0"/>
    <line x1="100" y1="100" x2="138.0" y2="39.4" stroke="#48C9B0" stroke-width="1.5"/>
    <line x1="100" y1="100" x2="145.6" y2="31.5" stroke="#48C9B0" stroke-width="1.0"/>
    <line x1="100" y1="100" x2="146.3" y2="33.7" stroke="#48C9B0" stroke-width="1.0"/>
    <line x1="100" y1="100" x2="147.9" y2="34.0" stroke="#48C9B0" stroke-width="0.8"/>
    <line x1="100" y1="100" x2="152.5" y2="30.6" stroke="#48C9B0" stroke-width="1.5"/>
    <line x1="100" y1="100" x2="148.1" y2="38.9" stroke="#48C9B0" stroke-width="0.3"/>
    <line x1="100" y1="100" x2="154.3" y2="35.0" stroke="#48C9B0" stroke-width="0.2"/>
    <line x1="100" y1="100" x2="148.4" y2="44.1" stroke="#48C9B0" stroke-width="1.0"/>
    <line x1="100" y1="100" x2="152.3" y2="40.8" stroke="#48C9B0" stroke-width="1.5"/>
    <line x1="100" y1="100" x2="152.4" y2="43.9" stroke="#48C9B0" stroke-width="0.3"/>
    <line x1="100" y1="100" x2="154.4" y2="47.1" stroke="#48C9B0" stroke-width="1.0"/>
    <line x1="100" y1="100" x2="154.7" y2="48.4" stroke="#48C9B0" stroke-width="0.3"/>
    <line x1="100" y1="100" x2="155.5" y2="50.0" stroke="#48C9B0" stroke-width="1.0"/>
    <line x1="100" y1="100" x2="158.4" y2="49.4" stroke="#48C9B0" stroke-width="0.2"/>
    <line x1="100" y1="100" x2="161.8" y2="49.7" stroke="#48C9B0" stroke-width="1.5"/>
    <line x1="100" y1="100" x2="162.7" y2="52.7" stroke="#48C9B0" stroke-width="0.3"/>
    <line x1="100" y1="100" x2="165.5" y2="52.3" stroke="#48C9B0" stroke-width="0.3"/>
    <line x1="100" y1="100" x2="169.5" y2="52.3" stroke="#48C9B0" stroke-width="0.2"/>
    <line x1="100" y1="100" x2="171.4" y2="55.1" stroke="#48C9B0" stroke-width="0.8"/>
    <line x1="100" y1="100" x2="171.3" y2="59.2" stroke="#48C9B0" stroke-width="1.5"/>
    <line x1="100" y1="100" x2="176.6" y2="56.9" stroke="#48C9B0" stroke-width="0.8"/>
    <line x1="100" y1="100" x2="167.1" y2="63.2" stroke="#48C9B0" stroke-width="1.5"/>
    <line x1="100" y1="100" x2="168.6" y2="64.5" stroke="#48C9B0" stroke-width="1.0"/>
    <line x1="100" y1="100" x2="175.4" y2="62.9" stroke="#48C9B0" stroke-width="1.5"/>
    <line x1="100" y1="100" x2="170.1" y2="67.1" stroke="#48C9B0" stroke-width="0.3"/>
    <line x1="100" y1="100" x2="173.4" y2="66.2" stroke="#48C9B0" stroke-width="0.8"/>
    <line x1="100" y1="100" x2="177.0" y2="64.7" stroke="#48C9B0" stroke-width="0.8"/>
    <line x1="100" y1="100" x2="174.1" y2="67.2" stroke="#48C9B0" stroke-width="1.5"/>
    <line x1="100" y1="100" x2="172.4" y2="68.2" stroke="#48C9B0" stroke-width="1.5"/>
    <line x1="100" y1="100" x2="178.6" y2="69.3" stroke="#48C9B0" stroke-width="1.5"/>
    <line x1="100" y1="100" x2="176.0" y2="71.0" stroke="#48C9B0" stroke-width="1.0"/>
    <line x1="100" y1="100" x2="175.0" y2="71.9" stroke="#48C9B0" stroke-width="0.8"/>
    <line x1="100" y1="100" x2="177.8" y2="72.9" stroke="#48C9B0" stroke-width="0.8"/>
    <line x1="100" y1="100" x2="179.3" y2="75.4" stroke="#48C9B0" stroke-width="1.5"/>
    <line x1="100" y1="100" x2="179.6" y2="77.2" stroke="#48C9B0" stroke-width="0.8"/>
    <line x1="100" y1="100" x2="177.4" y2="79.4" stroke="#48C9B0" stroke-width="1.0"/>
    <line x1="100" y1="100" x2="177.3" y2="82.4" stroke="#48C9B0" stroke-width="0.3"/>
    <line x1="100" y1="100" x2="183.1" y2="83.4" stroke="#48C9B0" stroke-width="0.2"/>
    <line x1="100" y1="100" x2="176.0" y2="85.3" stroke="#48C9B0" stroke-width="1.5"/>
    <line x1="100" y1="100" x2="175.0" y2="85.4" stroke="#48C9B0" stroke-width="0.3"/>
    <line x1="100" y1="100" x2="179.0" y2="85.9" stroke="#48C9B0" stroke-width="0.8"/>
    <line x1="100" y1="100" x2="172.1" y2="89.0" stroke="#48C9B0" stroke-width="0.2"/>
    <line x1="100" y1="100" x2="183.7" y2="87.8" stroke="#48C9B0" stroke-width="1.0"/>
    <line x1="100" y1="100" x2="182.2" y2="91.2" stroke="#48C9B0" stroke-width="0.2"/>
    <line x1="100" y1="100" x2="179.5" y2="92.6" stroke="#48C9B0" stroke-width="0.3"/>
  </g>
</svg>
