<?xml version='1.0' encoding='ASCII' standalone='no'?>
<svg xmlns="http://www.w3.org/2000/svg" xmlns:xlink="http://www.w3.org/1999/xlink" version="1.1" width="200" height="200" viewBox="0 0 200 200" style="border:1px solid black">
  <line x1="146.9" y1="43.8" x2="146.0" y2="61.9" stroke="green" stroke-width="0.5" stroke-dasharray="None"/>
  <line x1="3.1" y1="157.5" x2="21.0" y2="154.9" stroke="green" stroke-width="0.5" stroke-dasharray="None"/>
  <line x1="44.2" y1="80.4" x2="74.1" y2="65.3" stroke="green" stroke-width="0.5" stroke-dasharray="None"/>
  <line x1="129.7" y1="43.0" x2="146.9" y2="43.8" stroke="green" stroke-width="0.5" stroke-dasharray="None"/>
  <line x1="146.9" y1="43.8" x2="170.9" y2="52.2" stroke="green" stroke-width="0.5" stroke-dasharray="None"/>
  <line x1="134.5" y1="154.9" x2="128.2" y2="162.8" stroke="green" stroke-width="0.5" stroke-dasharray="None"/>
  <line x1="96.8" y1="84.7" x2="93.3" y2="106.7" stroke="green" stroke-width="0.5" stroke-dasharray="None"/>
  <line x1="113.2" y1="7.8" x2="137.2" y2="24.0" stroke="green" stroke-width="0.5" stroke-dasharray="None"/>
  <line x1="134.5" y1="154.9" x2="157.0" y2="155.9" stroke="green" stroke-width="0.5" stroke-dasharray="None"/>
  <line x1="158.5" y1="183.9" x2="168.5" y2="172.7" stroke="green" stroke-width="0.5" stroke-dasharray="None"/>
  <line x1="96.8" y1="84.7" x2="117.5" y2="91.5" stroke="green" stroke-width="0.5" stroke-dasharray="None"/>
  <line x1="137.2" y1="24.0" x2="145.2" y2="9.9" stroke="green" stroke-width="0.5" stroke-dasharray="None"/>
  <line x1="5.4" y1="62.4" x2="23.0" y2="64.0" stroke="green" stroke-width="0.5" stroke-dasharray="None"/>
  <line x1="102.1" y1="36.3" x2="129.7" y2="43.0" stroke="green" stroke-width="0.5" stroke-dasharray="None"/>
  <line x1="1.5" y1="178.2" x2="17.9" y2="189.3" stroke="green" stroke-width="0.5" stroke-dasharray="None"/>
  <line x1="92.5" y1="15.4" x2="93.9" y2="20.0" stroke="green" stroke-width="0.5" stroke-dasharray="None"/>
  <line x1="1.5" y1="178.2" x2="28.8" y2="175.4" stroke="green" stroke-width="0.5" stroke-dasharray="None"/>
  <line x1="92.5" y1="15.4" x2="113.2" y2="7.8" stroke="green" stroke-width="0.5" stroke-dasharray="None"/>
  <line x1="19.3" y1="47.3" x2="30.7" y2="28.3" stroke="green" stroke-width="0.5" stroke-dasharray="None"/>
  <line x1="101.8" y1="149.8" x2="120.7" y2="127.5" stroke="green" stroke-width="0.5" stroke-dasharray="None"/>
  <line x1="169.6" y1="65.9" x2="181.8" y2="90.3" stroke="green" stroke-width="0.5" stroke-dasharray="None"/>
  <line x1="72.8" y1="125.0" x2="93.7" y2="128.5" stroke="green" stroke-width="0.5" stroke-dasharray="None"/>
  <line x1="109.2" y1="63.8" x2="129.7" y2="43.0" stroke="green" stroke-width="0.5" stroke-dasharray="None"/>
  <line x1="183.4" y1="137.1" x2="182.7" y2="142.2" stroke="green" stroke-width="0.5" stroke-dasharray="None"/>
  <line x1="30.6" y1="100.9" x2="40.6" y2="78.6" stroke="green" stroke-width="0.5" stroke-dasharray="None"/>
  <line x1="96.3" y1="189.6" x2="166.7" y2="191.6" stroke="green" stroke-width="0.5" stroke-dasharray="None"/>
  <line x1="28.8" y1="175.4" x2="26.9" y2="193.9" stroke="green" stroke-width="0.5" stroke-dasharray="None"/>
  <line x1="93.9" y1="20.0" x2="102.1" y2="36.3" stroke="green" stroke-width="0.5" stroke-dasharray="None"/>
  <line x1="52.9" y1="111.2" x2="63.6" y2="89.3" stroke="green" stroke-width="0.5" stroke-dasharray="None"/>
  <line x1="146.0" y1="61.9" x2="141.3" y2="90.1" stroke="green" stroke-width="0.5" stroke-dasharray="None"/>
  <line x1="28.8" y1="175.4" x2="49.4" y2="170.9" stroke="green" stroke-width="0.5" stroke-dasharray="None"/>
  <line x1="78.8" y1="101.7" x2="96.8" y2="84.7" stroke="green" stroke-width="0.5" stroke-dasharray="None"/>
  <line x1="146.0" y1="61.9" x2="169.6" y2="65.9" stroke="green" stroke-width="0.5" stroke-dasharray="None"/>
  <line x1="24.6" y1="83.4" x2="30.6" y2="100.9" stroke="green" stroke-width="0.5" stroke-dasharray="None"/>
  <line x1="52.2" y1="2.1" x2="74.9" y2="25.2" stroke="green" stroke-width="0.5" stroke-dasharray="None"/>
  <line x1="74.9" y1="25.2" x2="92.5" y2="15.4" stroke="green" stroke-width="0.5" stroke-dasharray="None"/>
  <line x1="169.1" y1="130.3" x2="183.7" y2="110.4" stroke="green" stroke-width="0.5" stroke-dasharray="None"/>
  <line x1="141.3" y1="90.1" x2="157.5" y2="110.6" stroke="green" stroke-width="0.5" stroke-dasharray="None"/>
  <line x1="17.9" y1="189.3" x2="26.9" y2="193.9" stroke="green" stroke-width="0.5" stroke-dasharray="None"/>
  <line x1="101.8" y1="149.8" x2="128.2" y2="162.8" stroke="green" stroke-width="0.5" stroke-dasharray="None"/>
  <line x1="141.3" y1="90.1" x2="176.5" y2="98.9" stroke="green" stroke-width="0.5" stroke-dasharray="None"/>
  <line x1="2.4" y1="29.5" x2="1.5" y2="178.2" stroke="green" stroke-width="0.5" stroke-dasharray="None"/>
  <line x1="21.9" y1="12.7" x2="52.2" y2="2.1" stroke="green" stroke-width="0.5" stroke-dasharray="None"/>
  <line x1="30.6" y1="100.9" x2="29.1" y2="123.8" stroke="green" stroke-width="0.5" stroke-dasharray="None"/>
  <line x1="93.5" y1="140.7" x2="81.7" y2="164.7" stroke="green" stroke-width="0.5" stroke-dasharray="None"/>
  <line x1="183.4" y1="137.1" x2="187.3" y2="185.5" stroke="green" stroke-width="0.5" stroke-dasharray="None"/>
  <line x1="30.6" y1="100.9" x2="52.9" y2="111.2" stroke="green" stroke-width="0.5" stroke-dasharray="None"/>
  <line x1="98.4" y1="47.4" x2="96.2" y2="63.0" stroke="green" stroke-width="0.5" stroke-dasharray="None"/>
  <line x1="93.5" y1="140.7" x2="101.8" y2="149.8" stroke="green" stroke-width="0.5" stroke-dasharray="None"/>
  <line x1="196.2" y1="9.3" x2="182.8" y2="50.4" stroke="green" stroke-width="0.5" stroke-dasharray="None"/>
  <line x1="52.9" y1="111.2" x2="72.8" y2="125.0" stroke="green" stroke-width="0.5" stroke-dasharray="None"/>
  <line x1="75.6" y1="13.5" x2="113.2" y2="7.8" stroke="green" stroke-width="0.5" stroke-dasharray="None"/>
  <line x1="98.4" y1="47.4" x2="104.7" y2="53.2" stroke="green" stroke-width="0.5" stroke-dasharray="None"/>
  <line x1="112.6" y1="181.5" x2="128.2" y2="162.8" stroke="green" stroke-width="0.5" stroke-dasharray="None"/>
  <line x1="66.9" y1="171.5" x2="63.1" y2="190.1" stroke="green" stroke-width="0.5" stroke-dasharray="None"/>
  <line x1="81.7" y1="164.7" x2="96.3" y2="189.6" stroke="green" stroke-width="0.5" stroke-dasharray="None"/>
  <line x1="66.9" y1="171.5" x2="81.7" y2="164.7" stroke="green" stroke-width="0.5" stroke-dasharray="None"/>
  <line x1="74.9" y1="25.2" x2="98.4" y2="47.4" stroke="green" stroke-width="0.5" stroke-dasharray="None"/>
  <line x1="169.1" y1="130.3" x2="182.7" y2="142.2" stroke="green" stroke-width="0.5" stroke-dasharray="None"/>
  <line x1="81.7" y1="164.7" x2="100.2" y2="164.6" stroke="green" stroke-width="0.5" stroke-dasharray="None"/>
  <line x1="157.5" y1="110.6" x2="143.4" y2="131.2" stroke="green" stroke-width="0.5" stroke-dasharray="None"/>
  <line x1="171.5" y1="9.4" x2="196.2" y2="9.3" stroke="green" stroke-width="0.5" stroke-dasharray="None"/>
  <line x1="74.9" y1="25.2" x2="102.1" y2="36.3" stroke="green" stroke-width="0.5" stroke-dasharray="None"/>
  <line x1="173.4" y1="106.8" x2="169.1" y2="130.3" stroke="green" stroke-width="0.5" stroke-dasharray="None"/>
  <line x1="157.5" y1="110.6" x2="173.4" y2="106.8" stroke="green" stroke-width="0.5" stroke-dasharray="None"/>
  <line x1="2.4" y1="29.5" x2="21.9" y2="12.7" stroke="green" stroke-width="0.5" stroke-dasharray="None"/>
  <line x1="45.8" y1="157.1" x2="66.9" y2="171.5" stroke="green" stroke-width="0.5" stroke-dasharray="None"/>
  <line x1="29.1" y1="123.8" x2="21.0" y2="154.9" stroke="green" stroke-width="0.5" stroke-dasharray="None"/>
  <line x1="157.6" y1="25.9" x2="146.9" y2="43.8" stroke="green" stroke-width="0.5" stroke-dasharray="None"/>
  <line x1="167.1" y1="36.8" x2="170.9" y2="52.2" stroke="green" stroke-width="0.5" stroke-dasharray="None"/>
  <line x1="117.5" y1="91.5" x2="134.9" y2="119.7" stroke="green" stroke-width="0.5" stroke-dasharray="None"/>
  <line x1="29.1" y1="123.8" x2="48.0" y2="126.8" stroke="green" stroke-width="0.5" stroke-dasharray="None"/>
  <line x1="74.1" y1="65.3" x2="98.4" y2="47.4" stroke="green" stroke-width="0.5" stroke-dasharray="None"/>
  <line x1="157.6" y1="25.9" x2="167.1" y2="36.8" stroke="green" stroke-width="0.5" stroke-dasharray="None"/>
  <line x1="167.1" y1="36.8" x2="183.2" y2="26.6" stroke="green" stroke-width="0.5" stroke-dasharray="None"/>
  <line x1="24.3" y1="51.5" x2="23.0" y2="64.0" stroke="green" stroke-width="0.5" stroke-dasharray="None"/>
  <line x1="157.0" y1="155.9" x2="146.5" y2="166.5" stroke="green" stroke-width="0.5" stroke-dasharray="None"/>
  <line x1="24.3" y1="51.5" x2="56.1" y2="43.8" stroke="green" stroke-width="0.5" stroke-dasharray="None"/>
  <line x1="8.4" y1="114.4" x2="29.1" y2="123.8" stroke="green" stroke-width="0.5" stroke-dasharray="None"/>
  <line x1="56.1" y1="43.8" x2="61.4" y2="52.9" stroke="green" stroke-width="0.5" stroke-dasharray="None"/>
  <line x1="157.0" y1="155.9" x2="178.1" y2="147.0" stroke="green" stroke-width="0.5" stroke-dasharray="None"/>
  <line x1="138.4" y1="6.2" x2="171.5" y2="9.4" stroke="green" stroke-width="0.5" stroke-dasharray="None"/>
  <line x1="182.7" y1="142.2" x2="187.3" y2="185.5" stroke="green" stroke-width="0.5" stroke-dasharray="None"/>
  <line x1="178.1" y1="147.0" x2="184.3" y2="174.5" stroke="green" stroke-width="0.5" stroke-dasharray="None"/>
  <line x1="96.3" y1="189.6" x2="112.6" y2="181.5" stroke="green" stroke-width="0.5" stroke-dasharray="None"/>
  <line x1="2.4" y1="29.5" x2="5.4" y2="62.4" stroke="green" stroke-width="0.5" stroke-dasharray="None"/>
  <line x1="23.0" y1="64.0" x2="24.6" y2="83.4" stroke="green" stroke-width="0.5" stroke-dasharray="None"/>
  <line x1="93.3" y1="106.7" x2="93.7" y2="128.5" stroke="green" stroke-width="0.5" stroke-dasharray="None"/>
  <line x1="195.8" y1="77.8" x2="183.7" y2="110.4" stroke="green" stroke-width="0.5" stroke-dasharray="None"/>
  <line x1="103.3" y1="112.8" x2="114.3" y2="125.0" stroke="green" stroke-width="0.5" stroke-dasharray="None"/>
  <line x1="49.4" y1="170.9" x2="63.1" y2="190.1" stroke="green" stroke-width="0.5" stroke-dasharray="None"/>
  <line x1="93.3" y1="106.7" x2="103.3" y2="112.8" stroke="green" stroke-width="0.5" stroke-dasharray="None"/>
  <line x1="23.0" y1="64.0" x2="40.6" y2="78.6" stroke="green" stroke-width="0.5" stroke-dasharray="None"/>
  <line x1="113.2" y1="7.8" x2="102.1" y2="36.3" stroke="green" stroke-width="0.5" stroke-dasharray="None"/>
  <line x1="146.9" y1="43.8" x2="167.1" y2="36.8" stroke="green" stroke-width="0.5" stroke-dasharray="None"/>
  <line x1="170.9" y1="52.2" x2="169.6" y2="65.9" stroke="green" stroke-width="0.5" stroke-dasharray="None"/>
  <line x1="74.1" y1="65.3" x2="96.8" y2="84.7" stroke="green" stroke-width="0.5" stroke-dasharray="None"/>
  <line x1="168.5" y1="172.7" x2="187.3" y2="185.5" stroke="green" stroke-width="0.5" stroke-dasharray="None"/>
  <line x1="170.9" y1="52.2" x2="182.8" y2="50.4" stroke="green" stroke-width="0.5" stroke-dasharray="None"/>
  <line x1="102.1" y1="36.3" x2="104.7" y2="53.2" stroke="green" stroke-width="0.5" stroke-dasharray="None"/>
  <line x1="93.7" y1="128.5" x2="93.5" y2="140.7" stroke="green" stroke-width="0.5" stroke-dasharray="None"/>
  <line x1="102.1" y1="36.3" x2="137.2" y2="24.0" stroke="green" stroke-width="0.5" stroke-dasharray="None"/>
  <line x1="40.6" y1="78.6" x2="44.2" y2="80.4" stroke="green" stroke-width="0.5" stroke-dasharray="None"/>
  <line x1="176.5" y1="98.9" x2="183.7" y2="110.4" stroke="green" stroke-width="0.5" stroke-dasharray="None"/>
  <line x1="93.7" y1="128.5" x2="114.3" y2="125.0" stroke="green" stroke-width="0.5" stroke-dasharray="None"/>
  <line x1="146.5" y1="166.5" x2="158.5" y2="183.9" stroke="green" stroke-width="0.5" stroke-dasharray="None"/>
  <line x1="137.2" y1="24.0" x2="146.9" y2="43.8" stroke="green" stroke-width="0.5" stroke-dasharray="None"/>
  <line x1="146.5" y1="166.5" x2="168.5" y2="172.7" stroke="green" stroke-width="0.5" stroke-dasharray="None"/>
  <line x1="46.2" y1="194.0" x2="96.3" y2="189.6" stroke="green" stroke-width="0.5" stroke-dasharray="None"/>
  <line x1="169.6" y1="65.9" x2="176.5" y2="98.9" stroke="green" stroke-width="0.5" stroke-dasharray="None"/>
  <line x1="19.3" y1="47.3" x2="23.0" y2="64.0" stroke="green" stroke-width="0.5" stroke-dasharray="None"/>
  <line x1="26.9" y1="193.9" x2="46.2" y2="194.0" stroke="green" stroke-width="0.5" stroke-dasharray="None"/>
  <line x1="72.8" y1="125.0" x2="93.3" y2="106.7" stroke="green" stroke-width="0.5" stroke-dasharray="None"/>
  <line x1="44.2" y1="80.4" x2="52.9" y2="111.2" stroke="green" stroke-width="0.5" stroke-dasharray="None"/>
  <line x1="114.3" y1="125.0" x2="101.8" y2="149.8" stroke="green" stroke-width="0.5" stroke-dasharray="None"/>
  <line x1="129.7" y1="43.0" x2="146.0" y2="61.9" stroke="green" stroke-width="0.5" stroke-dasharray="None"/>
  <line x1="158.5" y1="183.9" x2="166.7" y2="191.6" stroke="green" stroke-width="0.5" stroke-dasharray="None"/>
  <line x1="114.3" y1="125.0" x2="120.7" y2="127.5" stroke="green" stroke-width="0.5" stroke-dasharray="None"/>
  <line x1="146.0" y1="61.9" x2="170.9" y2="52.2" stroke="green" stroke-width="0.5" stroke-dasharray="None"/>
  <line x1="52.2" y1="2.1" x2="42.3" y2="36.5" stroke="green" stroke-width="0.5" stroke-dasharray="None"/>
  <line x1="104.7" y1="53.2" x2="109.2" y2="63.8" stroke="green" stroke-width="0.5" stroke-dasharray="None"/>
  <line x1="5.4" y1="62.4" x2="24.6" y2="83.4" stroke="green" stroke-width="0.5" stroke-dasharray="None"/>
  <line x1="52.2" y1="2.1" x2="75.6" y2="13.5" stroke="green" stroke-width="0.5" stroke-dasharray="None"/>
  <line x1="104.7" y1="53.2" x2="129.7" y2="43.0" stroke="green" stroke-width="0.5" stroke-dasharray="None"/>
  <line x1="24.6" y1="83.4" x2="40.6" y2="78.6" stroke="green" stroke-width="0.5" stroke-dasharray="None"/>
  <line x1="127.1" y1="180.7" x2="146.5" y2="166.5" stroke="green" stroke-width="0.5" stroke-dasharray="None"/>
  <line x1="101.8" y1="149.8" x2="100.2" y2="164.6" stroke="green" stroke-width="0.5" stroke-dasharray="None"/>
  <line x1="166.7" y1="191.6" x2="187.3" y2="185.5" stroke="green" stroke-width="0.5" stroke-dasharray="None"/>
  <line x1="134.9" y1="119.7" x2="141.3" y2="90.1" stroke="green" stroke-width="0.5" stroke-dasharray="None"/>
  <line x1="109.2" y1="63.8" x2="117.5" y2="91.5" stroke="green" stroke-width="0.5" stroke-dasharray="None"/>
  <line x1="75.6" y1="13.5" x2="74.9" y2="25.2" stroke="green" stroke-width="0.5" stroke-dasharray="None"/>
  <line x1="72.8" y1="125.0" x2="93.5" y2="140.7" stroke="green" stroke-width="0.5" stroke-dasharray="None"/>
  <line x1="195.8" y1="77.8" x2="187.3" y2="185.5" stroke="green" stroke-width="0.5" stroke-dasharray="None"/>
  <line x1="109.2" y1="63.8" x2="127.8" y2="76.0" stroke="green" stroke-width="0.5" stroke-dasharray="None"/>
  <line x1="52.9" y1="111.2" x2="48.0" y2="126.8" stroke="green" stroke-width="0.5" stroke-dasharray="None"/>
  <line x1="75.6" y1="13.5" x2="92.5" y2="15.4" stroke="green" stroke-width="0.5" stroke-dasharray="None"/>
  <line x1="173.4" y1="106.8" x2="183.7" y2="110.4" stroke="green" stroke-width="0.5" stroke-dasharray="None"/>
  <line x1="196.2" y1="9.3" x2="183.2" y2="26.6" stroke="green" stroke-width="0.5" stroke-dasharray="None"/>
  <line x1="52.2" y1="2.1" x2="138.4" y2="6.2" stroke="green" stroke-width="0.5" stroke-dasharray="None"/>
  <line x1="52.9" y1="111.2" x2="78.8" y2="101.7" stroke="green" stroke-width="0.5" stroke-dasharray="None"/>
  <line x1="127.8" y1="76.0" x2="141.3" y2="90.1" stroke="green" stroke-width="0.5" stroke-dasharray="None"/>
  <line x1="93.5" y1="140.7" x2="114.3" y2="125.0" stroke="green" stroke-width="0.5" stroke-dasharray="None"/>
  <line x1="48.0" y1="126.8" x2="45.8" y2="157.1" stroke="green" stroke-width="0.5" stroke-dasharray="None"/>
  <line x1="2.1" y1="98.5" x2="4.9" y2="138.2" stroke="green" stroke-width="0.5" stroke-dasharray="None"/>
  <line x1="42.3" y1="36.5" x2="56.1" y2="43.8" stroke="green" stroke-width="0.5" stroke-dasharray="None"/>
  <line x1="48.0" y1="126.8" x2="72.8" y2="125.0" stroke="green" stroke-width="0.5" stroke-dasharray="None"/>
  <line x1="96.2" y1="63.0" x2="104.7" y2="53.2" stroke="green" stroke-width="0.5" stroke-dasharray="None"/>
  <line x1="74.9" y1="25.2" x2="61.4" y2="52.9" stroke="green" stroke-width="0.5" stroke-dasharray="None"/>
  <line x1="2.1" y1="98.5" x2="30.6" y2="100.9" stroke="green" stroke-width="0.5" stroke-dasharray="None"/>
  <line x1="42.3" y1="36.5" x2="74.9" y2="25.2" stroke="green" stroke-width="0.5" stroke-dasharray="None"/>
  <line x1="169.1" y1="130.3" x2="178.1" y2="147.0" stroke="green" stroke-width="0.5" stroke-dasharray="None"/>
  <line x1="169.1" y1="130.3" x2="183.4" y2="137.1" stroke="green" stroke-width="0.5" stroke-dasharray="None"/>
  <line x1="127.1" y1="180.7" x2="166.7" y2="191.6" stroke="green" stroke-width="0.5" stroke-dasharray="None"/>
  <line x1="21.0" y1="154.9" x2="28.8" y2="175.4" stroke="green" stroke-width="0.5" stroke-dasharray="None"/>
  <line x1="45.8" y1="157.1" x2="49.4" y2="170.9" stroke="green" stroke-width="0.5" stroke-dasharray="None"/>
  <line x1="21.0" y1="154.9" x2="45.8" y2="157.1" stroke="green" stroke-width="0.5" stroke-dasharray="None"/>
  <line x1="134.9" y1="119.7" x2="143.4" y2="131.2" stroke="green" stroke-width="0.5" stroke-dasharray="None"/>
  <line x1="45.8" y1="157.1" x2="74.9" y2="154.7" stroke="green" stroke-width="0.5" stroke-dasharray="None"/>
  <line x1="17.5" y1="9.6" x2="52.2" y2="2.1" stroke="green" stroke-width="0.5" stroke-dasharray="None"/>
  <line x1="117.5" y1="91.5" x2="103.3" y2="112.8" stroke="green" stroke-width="0.5" stroke-dasharray="None"/>
  <line x1="30.7" y1="28.3" x2="52.2" y2="2.1" stroke="green" stroke-width="0.5" stroke-dasharray="None"/>
  <line x1="135.6" y1="90.8" x2="134.9" y2="119.7" stroke="green" stroke-width="0.5" stroke-dasharray="None"/>
  <line x1="74.9" y1="154.7" x2="81.7" y2="164.7" stroke="green" stroke-width="0.5" stroke-dasharray="None"/>
  <line x1="117.5" y1="91.5" x2="135.6" y2="90.8" stroke="green" stroke-width="0.5" stroke-dasharray="None"/>
  <line x1="157.6" y1="25.9" x2="171.5" y2="9.4" stroke="green" stroke-width="0.5" stroke-dasharray="None"/>
  <line x1="4.9" y1="138.2" x2="21.0" y2="154.9" stroke="green" stroke-width="0.5" stroke-dasharray="None"/>
  <line x1="44.2" y1="80.4" x2="61.4" y2="52.9" stroke="green" stroke-width="0.5" stroke-dasharray="None"/>
  <line x1="8.4" y1="114.4" x2="4.9" y2="138.2" stroke="green" stroke-width="0.5" stroke-dasharray="None"/>
  <line x1="2.1" y1="98.5" x2="1.5" y2="178.2" stroke="green" stroke-width="0.5" stroke-dasharray="None"/>
  <line x1="113.2" y1="7.8" x2="138.4" y2="6.2" stroke="green" stroke-width="0.5" stroke-dasharray="None"/>
  <line x1="138.4" y1="6.2" x2="137.2" y2="24.0" stroke="green" stroke-width="0.5" stroke-dasharray="None"/>
  <line x1="134.5" y1="154.9" x2="143.4" y2="131.2" stroke="green" stroke-width="0.5" stroke-dasharray="None"/>
  <line x1="138.4" y1="6.2" x2="145.2" y2="9.9" stroke="green" stroke-width="0.5" stroke-dasharray="None"/>
  <line x1="96.8" y1="84.7" x2="109.2" y2="63.8" stroke="green" stroke-width="0.5" stroke-dasharray="None"/>
  <line x1="157.0" y1="155.9" x2="169.1" y2="130.3" stroke="green" stroke-width="0.5" stroke-dasharray="None"/>
  <line x1="66.9" y1="171.5" x2="96.3" y2="189.6" stroke="green" stroke-width="0.5" stroke-dasharray="None"/>
  <line x1="178.1" y1="147.0" x2="168.5" y2="172.7" stroke="green" stroke-width="0.5" stroke-dasharray="None"/>
  <line x1="182.7" y1="142.2" x2="184.3" y2="174.5" stroke="green" stroke-width="0.5" stroke-dasharray="None"/>
  <line x1="24.3" y1="51.5" x2="42.3" y2="36.5" stroke="green" stroke-width="0.5" stroke-dasharray="None"/>
  <line x1="178.1" y1="147.0" x2="182.7" y2="142.2" stroke="green" stroke-width="0.5" stroke-dasharray="None"/>
  <line x1="171.5" y1="9.4" x2="183.2" y2="26.6" stroke="green" stroke-width="0.5" stroke-dasharray="None"/>
  <line x1="2.4" y1="29.5" x2="19.3" y2="47.3" stroke="green" stroke-width="0.5" stroke-dasharray="None"/>
  <line x1="1.5" y1="178.2" x2="21.0" y2="154.9" stroke="green" stroke-width="0.5" stroke-dasharray="None"/>
  <line x1="2.4" y1="29.5" x2="30.7" y2="28.3" stroke="green" stroke-width="0.5" stroke-dasharray="None"/>
  <line x1="49.4" y1="170.9" x2="46.2" y2="194.0" stroke="green" stroke-width="0.5" stroke-dasharray="None"/>
  <line x1="195.8" y1="77.8" x2="181.8" y2="90.3" stroke="green" stroke-width="0.5" stroke-dasharray="None"/>
  <line x1="169.6" y1="65.9" x2="195.8" y2="77.8" stroke="green" stroke-width="0.5" stroke-dasharray="None"/>
  <line x1="93.3" y1="106.7" x2="117.5" y2="91.5" stroke="green" stroke-width="0.5" stroke-dasharray="None"/>
  <line x1="49.4" y1="170.9" x2="66.9" y2="171.5" stroke="green" stroke-width="0.5" stroke-dasharray="None"/>
  <line x1="168.5" y1="172.7" x2="166.7" y2="191.6" stroke="green" stroke-width="0.5" stroke-dasharray="None"/>
  <line x1="168.5" y1="172.7" x2="184.3" y2="174.5" stroke="green" stroke-width="0.5" stroke-dasharray="None"/>
  <line x1="44.2" y1="80.4" x2="63.6" y2="89.3" stroke="green" stroke-width="0.5" stroke-dasharray="None"/>
  <line x1="93.9" y1="20.0" x2="113.2" y2="7.8" stroke="green" stroke-width="0.5" stroke-dasharray="None"/>
  <line x1="176.5" y1="98.9" x2="173.4" y2="106.8" stroke="green" stroke-width="0.5" stroke-dasharray="None"/>
  <line x1="28.8" y1="175.4" x2="45.8" y2="157.1" stroke="green" stroke-width="0.5" stroke-dasharray="None"/>
  <line x1="137.2" y1="24.0" x2="129.7" y2="43.0" stroke="green" stroke-width="0.5" stroke-dasharray="None"/>
  <line x1="134.5" y1="154.9" x2="146.5" y2="166.5" stroke="green" stroke-width="0.5" stroke-dasharray="None"/>
  <line x1="176.5" y1="98.9" x2="181.8" y2="90.3" stroke="green" stroke-width="0.5" stroke-dasharray="None"/>
  <line x1="24.3" y1="51.5" x2="40.6" y2="78.6" stroke="green" stroke-width="0.5" stroke-dasharray="None"/>
  <line x1="137.2" y1="24.0" x2="157.6" y2="25.9" stroke="green" stroke-width="0.5" stroke-dasharray="None"/>
  <line x1="2.4" y1="29.5" x2="2.1" y2="98.5" stroke="green" stroke-width="0.5" stroke-dasharray="None"/>
  <line x1="19.3" y1="47.3" x2="5.4" y2="62.4" stroke="green" stroke-width="0.5" stroke-dasharray="None"/>
  <line x1="17.9" y1="189.3" x2="28.8" y2="175.4" stroke="green" stroke-width="0.5" stroke-dasharray="None"/>
  <line x1="101.8" y1="149.8" x2="134.5" y2="154.9" stroke="green" stroke-width="0.5" stroke-dasharray="None"/>
  <line x1="141.3" y1="90.1" x2="169.6" y2="65.9" stroke="green" stroke-width="0.5" stroke-dasharray="None"/>
  <line x1="129.7" y1="43.0" x2="127.8" y2="76.0" stroke="green" stroke-width="0.5" stroke-dasharray="None"/>
  <line x1="195.8" y1="77.8" x2="183.4" y2="137.1" stroke="green" stroke-width="0.5" stroke-dasharray="None"/>
  <line x1="19.3" y1="47.3" x2="24.3" y2="51.5" stroke="green" stroke-width="0.5" stroke-dasharray="None"/>
  <line x1="181.8" y1="90.3" x2="183.7" y2="110.4" stroke="green" stroke-width="0.5" stroke-dasharray="None"/>
  <line x1="114.3" y1="125.0" x2="134.9" y2="119.7" stroke="green" stroke-width="0.5" stroke-dasharray="None"/>
  <line x1="30.6" y1="100.9" x2="44.2" y2="80.4" stroke="green" stroke-width="0.5" stroke-dasharray="None"/>
  <line x1="5.4" y1="62.4" x2="2.1" y2="98.5" stroke="green" stroke-width="0.5" stroke-dasharray="None"/>
  <line x1="100.2" y1="164.6" x2="112.6" y2="181.5" stroke="green" stroke-width="0.5" stroke-dasharray="None"/>
  <line x1="78.8" y1="101.7" x2="72.8" y2="125.0" stroke="green" stroke-width="0.5" stroke-dasharray="None"/>
  <line x1="100.2" y1="164.6" x2="128.2" y2="162.8" stroke="green" stroke-width="0.5" stroke-dasharray="None"/>
  <line x1="98.4" y1="47.4" x2="102.1" y2="36.3" stroke="green" stroke-width="0.5" stroke-dasharray="None"/>
  <line x1="28.8" y1="175.4" x2="46.2" y2="194.0" stroke="green" stroke-width="0.5" stroke-dasharray="None"/>
  <line x1="78.8" y1="101.7" x2="93.3" y2="106.7" stroke="green" stroke-width="0.5" stroke-dasharray="None"/>
  <line x1="183.7" y1="110.4" x2="183.4" y2="137.1" stroke="green" stroke-width="0.5" stroke-dasharray="None"/>
  <line x1="74.9" y1="25.2" x2="93.9" y2="20.0" stroke="green" stroke-width="0.5" stroke-dasharray="None"/>
  <line x1="81.7" y1="164.7" x2="101.8" y2="149.8" stroke="green" stroke-width="0.5" stroke-dasharray="None"/>
  <line x1="183.2" y1="26.6" x2="182.8" y2="50.4" stroke="green" stroke-width="0.5" stroke-dasharray="None"/>
  <line x1="72.8" y1="125.0" x2="74.9" y2="154.7" stroke="green" stroke-width="0.5" stroke-dasharray="None"/>
  <line x1="24.3" y1="51.5" x2="61.4" y2="52.9" stroke="green" stroke-width="0.5" stroke-dasharray="None"/>
  <line x1="52.2" y1="2.1" x2="113.2" y2="7.8" stroke="green" stroke-width="0.5" stroke-dasharray="None"/>
  <line x1="128.2" y1="162.8" x2="127.1" y2="180.7" stroke="green" stroke-width="0.5" stroke-dasharray="None"/>
  <line x1="157.5" y1="110.6" x2="176.5" y2="98.9" stroke="green" stroke-width="0.5" stroke-dasharray="None"/>
  <line x1="127.8" y1="76.0" x2="135.6" y2="90.8" stroke="green" stroke-width="0.5" stroke-dasharray="None"/>
  <line x1="128.2" y1="162.8" x2="146.5" y2="166.5" stroke="green" stroke-width="0.5" stroke-dasharray="None"/>
  <line x1="127.8" y1="76.0" x2="146.0" y2="61.9" stroke="green" stroke-width="0.5" stroke-dasharray="None"/>
  <line x1="61.4" y1="52.9" x2="74.1" y2="65.3" stroke="green" stroke-width="0.5" stroke-dasharray="None"/>
  <line x1="61.4" y1="52.9" x2="98.4" y2="47.4" stroke="green" stroke-width="0.5" stroke-dasharray="None"/>
  <line x1="29.1" y1="123.8" x2="52.9" y2="111.2" stroke="green" stroke-width="0.5" stroke-dasharray="None"/>
  <line x1="2.1" y1="98.5" x2="8.4" y2="114.4" stroke="green" stroke-width="0.5" stroke-dasharray="None"/>
  <line x1="196.2" y1="9.3" x2="195.8" y2="77.8" stroke="green" stroke-width="0.5" stroke-dasharray="None"/>
  <line x1="135.6" y1="90.8" x2="141.3" y2="90.1" stroke="green" stroke-width="0.5" stroke-dasharray="None"/>
  <line x1="46.2" y1="194.0" x2="166.7" y2="191.6" stroke="green" stroke-width="0.5" stroke-dasharray="None"/>
  <line x1="2.1" y1="98.5" x2="24.6" y2="83.4" stroke="green" stroke-width="0.5" stroke-dasharray="None"/>
  <line x1="112.6" y1="181.5" x2="127.1" y2="180.7" stroke="green" stroke-width="0.5" stroke-dasharray="None"/>
  <line x1="127.1" y1="180.7" x2="158.5" y2="183.9" stroke="green" stroke-width="0.5" stroke-dasharray="None"/>
  <line x1="17.5" y1="9.6" x2="2.4" y2="29.5" stroke="green" stroke-width="0.5" stroke-dasharray="None"/>
  <line x1="8.4" y1="114.4" x2="30.6" y2="100.9" stroke="green" stroke-width="0.5" stroke-dasharray="None"/>
  <line x1="56.1" y1="43.8" x2="74.9" y2="25.2" stroke="green" stroke-width="0.5" stroke-dasharray="None"/>
  <line x1="21.9" y1="12.7" x2="30.7" y2="28.3" stroke="green" stroke-width="0.5" stroke-dasharray="None"/>
  <line x1="134.9" y1="119.7" x2="120.7" y2="127.5" stroke="green" stroke-width="0.5" stroke-dasharray="None"/>
  <line x1="17.5" y1="9.6" x2="21.9" y2="12.7" stroke="green" stroke-width="0.5" stroke-dasharray="None"/>
  <line x1="134.9" y1="119.7" x2="157.5" y2="110.6" stroke="green" stroke-width="0.5" stroke-dasharray="None"/>
  <line x1="96.3" y1="189.6" x2="100.2" y2="164.6" stroke="green" stroke-width="0.5" stroke-dasharray="None"/>
  <line x1="182.8" y1="50.4" x2="195.8" y2="77.8" stroke="green" stroke-width="0.5" stroke-dasharray="None"/>
  <line x1="74.9" y1="154.7" x2="66.9" y2="171.5" stroke="green" stroke-width="0.5" stroke-dasharray="None"/>
  <line x1="157.5" y1="110.6" x2="169.1" y2="130.3" stroke="green" stroke-width="0.5" stroke-dasharray="None"/>
  <line x1="74.9" y1="154.7" x2="93.5" y2="140.7" stroke="green" stroke-width="0.5" stroke-dasharray="None"/>
  <line x1="117.5" y1="91.5" x2="127.8" y2="76.0" stroke="green" stroke-width="0.5" stroke-dasharray="None"/>
  <line x1="4.9" y1="138.2" x2="3.1" y2="157.5" stroke="green" stroke-width="0.5" stroke-dasharray="None"/>
  <line x1="4.9" y1="138.2" x2="29.1" y2="123.8" stroke="green" stroke-width="0.5" stroke-dasharray="None"/>
  <line x1="74.1" y1="65.3" x2="63.6" y2="89.3" stroke="green" stroke-width="0.5" stroke-dasharray="None"/>
  <line x1="96.2" y1="63.0" x2="96.8" y2="84.7" stroke="green" stroke-width="0.5" stroke-dasharray="None"/>
  <line x1="29.1" y1="123.8" x2="45.8" y2="157.1" stroke="green" stroke-width="0.5" stroke-dasharray="None"/>
  <line x1="2.1" y1="98.5" x2="3.1" y2="157.5" stroke="green" stroke-width="0.5" stroke-dasharray="None"/>
  <line x1="74.1" y1="65.3" x2="96.2" y2="63.0" stroke="green" stroke-width="0.5" stroke-dasharray="None"/>
  <line x1="48.0" y1="126.8" x2="74.9" y2="154.7" stroke="green" stroke-width="0.5" stroke-dasharray="None"/>
  <line x1="167.1" y1="36.8" x2="182.8" y2="50.4" stroke="green" stroke-width="0.5" stroke-dasharray="None"/>
  <line x1="157.6" y1="25.9" x2="183.2" y2="26.6" stroke="green" stroke-width="0.5" stroke-dasharray="None"/>
  <line x1="145.2" y1="9.9" x2="157.6" y2="25.9" stroke="green" stroke-width="0.5" stroke-dasharray="None"/>
  <line x1="96.2" y1="63.0" x2="109.2" y2="63.8" stroke="green" stroke-width="0.5" stroke-dasharray="None"/>
  <line x1="184.3" y1="174.5" x2="187.3" y2="185.5" stroke="green" stroke-width="0.5" stroke-dasharray="None"/>
  <line x1="145.2" y1="9.9" x2="171.5" y2="9.4" stroke="green" stroke-width="0.5" stroke-dasharray="None"/>
  <line x1="46.2" y1="194.0" x2="63.1" y2="190.1" stroke="green" stroke-width="0.5" stroke-dasharray="None"/>
  <line x1="93.7" y1="128.5" x2="103.3" y2="112.8" stroke="green" stroke-width="0.5" stroke-dasharray="None"/>
  <line x1="63.6" y1="89.3" x2="78.8" y2="101.7" stroke="green" stroke-width="0.5" stroke-dasharray="None"/>
  <line x1="63.1" y1="190.1" x2="96.3" y2="189.6" stroke="green" stroke-width="0.5" stroke-dasharray="None"/>
  <line x1="157.0" y1="155.9" x2="168.5" y2="172.7" stroke="green" stroke-width="0.5" stroke-dasharray="None"/>
  <line x1="120.7" y1="127.5" x2="134.5" y2="154.9" stroke="green" stroke-width="0.5" stroke-dasharray="None"/>
  <line x1="40.6" y1="78.6" x2="61.4" y2="52.9" stroke="green" stroke-width="0.5" stroke-dasharray="None"/>
  <line x1="63.6" y1="89.3" x2="96.8" y2="84.7" stroke="green" stroke-width="0.5" stroke-dasharray="None"/>
  <line x1="143.4" y1="131.2" x2="157.0" y2="155.9" stroke="green" stroke-width="0.5" stroke-dasharray="None"/>
  <line x1="30.7" y1="28.3" x2="24.3" y2="51.5" stroke="green" stroke-width="0.5" stroke-dasharray="None"/>
  <line x1="120.7" y1="127.5" x2="143.4" y2="131.2" stroke="green" stroke-width="0.5" stroke-dasharray="None"/>
  <line x1="169.6" y1="65.9" x2="182.8" y2="50.4" stroke="green" stroke-width="0.5" stroke-dasharray="None"/>
  <line x1="117.5" y1="91.5" x2="114.3" y2="125.0" stroke="green" stroke-width="0.5" stroke-dasharray="None"/>
  <line x1="143.4" y1="131.2" x2="169.1" y2="130.3" stroke="green" stroke-width="0.5" stroke-dasharray="None"/>
  <line x1="96.3" y1="189.6" x2="127.1" y2="180.7" stroke="green" stroke-width="0.5" stroke-dasharray="None"/>
  <line x1="138.4" y1="6.2" x2="196.2" y2="9.3" stroke="green" stroke-width="0.5" stroke-dasharray="None"/>
  <line x1="30.7" y1="28.3" x2="42.3" y2="36.5" stroke="green" stroke-width="0.5" stroke-dasharray="None"/>
  <line x1="3.1" y1="157.5" x2="1.5" y2="178.2" stroke="green" stroke-width="0.5" stroke-dasharray="None"/>
  <circle cx="17.5" cy="9.6" r="0.8" fill="black"/>
  <circle cx="2.4" cy="29.5" r="0.8" fill="black"/>
  <circle cx="19.3" cy="47.3" r="0.8" fill="black"/>
  <circle cx="5.4" cy="62.4" r="0.8" fill="black"/>
  <circle cx="2.1" cy="98.5" r="0.8" fill="black"/>
  <circle cx="8.4" cy="114.4" r="0.8" fill="black"/>
  <circle cx="4.9" cy="138.2" r="0.8" fill="black"/>
  <circle cx="3.1" cy="157.5" r="0.8" fill="black"/>
  <circle cx="1.5" cy="178.2" r="0.8" fill="black"/>
  <circle cx="17.9" cy="189.3" r="0.8" fill="black"/>
  <circle cx="21.9" cy="12.7" r="0.8" fill="black"/>
  <circle cx="30.7" cy="28.3" r="0.8" fill="black"/>
  <circle cx="24.3" cy="51.5" r="0.8" fill="black"/>
  <circle cx="23.0" cy="64.0" r="0.8" fill="black"/>
  <circle cx="24.6" cy="83.4" r="0.8" fill="black"/>
  <circle cx="30.6" cy="100.9" r="0.8" fill="black"/>
  <circle cx="29.1" cy="123.8" r="0.8" fill="black"/>
  <circle cx="21.0" cy="154.9" r="0.8" fill="black"/>
  <circle cx="28.8" cy="175.4" r="0.8" fill="black"/>
  <circle cx="26.9" cy="193.9" r="0.8" fill="black"/>
  <circle cx="52.2" cy="2.1" r="0.8" fill="black"/>
  <circle cx="42.3" cy="36.5" r="0.8" fill="black"/>
  <circle cx="56.1" cy="43.8" r="0.8" fill="black"/>
  <circle cx="40.6" cy="78.6" r="0.8" fill="black"/>
  <circle cx="44.2" cy="80.4" r="0.8" fill="black"/>
  <circle cx="52.9" cy="111.2" r="0.8" fill="black"/>
  <circle cx="48.0" cy="126.8" r="0.8" fill="black"/>
  <circle cx="45.8" cy="157.1" r="0.8" fill="black"/>
  <circle cx="49.4" cy="170.9" r="0.8" fill="black"/>
  <circle cx="46.2" cy="194.0" r="0.8" fill="black"/>
  <circle cx="75.6" cy="13.5" r="0.8" fill="black"/>
  <circle cx="74.9" cy="25.2" r="0.8" fill="black"/>
  <circle cx="61.4" cy="52.9" r="0.8" fill="black"/>
  <circle cx="74.1" cy="65.3" r="0.8" fill="black"/>
  <circle cx="63.6" cy="89.3" r="0.8" fill="black"/>
  <circle cx="78.8" cy="101.7" r="0.8" fill="black"/>
  <circle cx="72.8" cy="125.0" r="0.8" fill="black"/>
  <circle cx="74.9" cy="154.7" r="0.8" fill="black"/>
  <circle cx="66.9" cy="171.5" r="0.8" fill="black"/>
  <circle cx="63.1" cy="190.1" r="0.8" fill="black"/>
  <circle cx="92.5" cy="15.4" r="0.8" fill="black"/>
  <circle cx="93.9" cy="20.0" r="0.8" fill="black"/>
  <circle cx="98.4" cy="47.4" r="0.8" fill="black"/>
  <circle cx="96.2" cy="63.0" r="0.8" fill="black"/>
  <circle cx="96.8" cy="84.7" r="0.8" fill="black"/>
  <circle cx="93.3" cy="106.7" r="0.8" fill="black"/>
  <circle cx="93.7" cy="128.5" r="0.8" fill="black"/>
  <circle cx="93.5" cy="140.7" r="0.8" fill="black"/>
  <circle cx="81.7" cy="164.7" r="0.8" fill="black"/>
  <circle cx="96.3" cy="189.6" r="0.8" fill="black"/>
  <circle cx="113.2" cy="7.8" r="0.8" fill="black"/>
  <circle cx="102.1" cy="36.3" r="0.8" fill="black"/>
  <circle cx="104.7" cy="53.2" r="0.8" fill="black"/>
  <circle cx="109.2" cy="63.8" r="0.8" fill="black"/>
  <circle cx="117.5" cy="91.5" r="0.8" fill="black"/>
  <circle cx="103.3" cy="112.8" r="0.8" fill="black"/>
  <circle cx="114.3" cy="125.0" r="0.8" fill="black"/>
  <circle cx="101.8" cy="149.8" r="0.8" fill="black"/>
  <circle cx="100.2" cy="164.6" r="0.8" fill="black"/>
  <circle cx="112.6" cy="181.5" r="0.8" fill="black"/>
  <circle cx="138.4" cy="6.2" r="0.8" fill="black"/>
  <circle cx="137.2" cy="24.0" r="0.8" fill="black"/>
  <circle cx="129.7" cy="43.0" r="0.8" fill="black"/>
  <circle cx="127.8" cy="76.0" r="0.8" fill="black"/>
  <circle cx="135.6" cy="90.8" r="0.8" fill="black"/>
  <circle cx="134.9" cy="119.7" r="0.8" fill="black"/>
  <circle cx="120.7" cy="127.5" r="0.8" fill="black"/>
  <circle cx="134.5" cy="154.9" r="0.8" fill="black"/>
  <circle cx="128.2" cy="162.8" r="0.8" fill="black"/>
  <circle cx="127.1" cy="180.7" r="0.8" fill="black"/>
  <circle cx="145.2" cy="9.9" r="0.8" fill="black"/>
  <circle cx="157.6" cy="25.9" r="0.8" fill="black"/>
  <circle cx="146.9" cy="43.8" r="0.8" fill="black"/>
  <circle cx="146.0" cy="61.9" r="0.8" fill="black"/>
  <circle cx="141.3" cy="90.1" r="0.8" fill="black"/>
  <circle cx="157.5" cy="110.6" r="0.8" fill="black"/>
  <circle cx="143.4" cy="131.2" r="0.8" fill="black"/>
  <circle cx="157.0" cy="155.9" r="0.8" fill="black"/>
  <circle cx="146.5" cy="166.5" r="0.8" fill="black"/>
  <circle cx="158.5" cy="183.9" r="0.8" fill="black"/>
  <circle cx="171.5" cy="9.4" r="0.8" fill="black"/>
  <circle cx="167.1" cy="36.8" r="0.8" fill="black"/>
  <circle cx="170.9" cy="52.2" r="0.8" fill="black"/>
  <circle cx="169.6" cy="65.9" r="0.8" fill="black"/>
  <circle cx="176.5" cy="98.9" r="0.8" fill="black"/>
  <circle cx="173.4" cy="106.8" r="0.8" fill="black"/>
  <circle cx="169.1" cy="130.3" r="0.8" fill="black"/>
  <circle cx="178.1" cy="147.0" r="0.8" fill="black"/>
  <circle cx="168.5" cy="172.7" r="0.8" fill="black"/>
  <circle cx="166.7" cy="191.6" r="0.8" fill="black"/>
  <circle cx="196.2" cy="9.3" r="0.8" fill="black"/>
  <circle cx="183.2" cy="26.6" r="0.8" fill="black"/>
  <circle cx="182.8" cy="50.4" r="0.8" fill="black"/>
  <circle cx="195.8" cy="77.8" r="0.8" fill="black"/>
  <circle cx="181.8" cy="90.3" r="0.8" fill="black"/>
  <circle cx="183.7" cy="110.4" r="0.8" fill="black"/>
  <circle cx="183.4" cy="137.1" r="0.8" fill="black"/>
  <circle cx="182.7" cy="142.2" r="0.8" fill="black"/>
  <circle cx="184.3" cy="174.5" r="0.8" fill="black"/>
  <circle cx="187.3" cy="185.5" r="0.8" fill="black"/>
</svg>
