<?xml version='1.0' encoding='ASCII' standalone='no'?>
<svg xmlns="http://www.w3.org/2000/svg" xmlns:xlink="http://www.w3.org/1999/xlink" version="1.1" width="200" height="200" viewBox="0 0 200 200" style="border:1px solid black">
  <g>
    <circle cx="100" cy="80" r="55" stroke-width="0.5" stroke="black" fill="transparent"/>
    <circle cx="155.0" cy="80.0" r="1" fill="green"/>
    <circle cx="147.6" cy="107.5" r="1" fill="green"/>
    <circle cx="127.5" cy="127.6" r="1" fill="green"/>
    <circle cx="100.0" cy="135.0" r="1" fill="green"/>
    <circle cx="72.5" cy="127.6" r="1" fill="green"/>
    <circle cx="52.4" cy="107.5" r="1" fill="green"/>
    <circle cx="45.0" cy="80.0" r="1" fill="green"/>
    <circle cx="52.4" cy="52.5" r="1" fill="green"/>
    <circle cx="72.5" cy="32.4" r="1" fill="green"/>
    <circle cx="100.0" cy="25.0" r="1" fill="green"/>
    <circle cx="127.5" cy="32.4" r="1" fill="green"/>
    <circle cx="147.6" cy="52.5" r="1" fill="green"/>
    <polygon points="155.0,80.0 147.6,107.5 127.5,127.6 100.0,135.0 72.5,127.6 52.4,107.5 45.0,80.0 52.4,52.5 72.5,32.4 100.0,25.0 127.5,32.4 147.6,52.5 " stroke="None" stroke-width="0.5" fill="blue"/>
    <circle cx="155.0" cy="80.0" r="1" fill="red"/>
    <circle cx="127.5" cy="127.6" r="1" fill="red"/>
    <circle cx="72.5" cy="127.6" r="1" fill="red"/>
    <circle cx="45.0" cy="80.0" r="1" fill="red"/>
    <circle cx="72.5" cy="32.4" r="1" fill="red"/>
    <circle cx="127.5" cy="32.4" r="1" fill="red"/>
    <polygon points="155.0,80.0 127.5,127.6 72.5,127.6 45.0,80.0 72.5,32.4 127.5,32.4 " stroke="None" stroke-width="0.5" fill="green"/>
    <text x="52" y="15" fill="black" white-space="pre" font-family="Consolas" font-size="12px" font-style="normal" font-variant="normal">Pi Day of 2022</text>
    <text x="25" y="145" fill="black" white-space="pre" font-family="Consolas" font-size="10px" font-style="normal" font-variant="normal">Liu Hui's &#960; algorithm</text>
    <text x="15" y="155" fill="black" white-space="pre" font-family="Consolas" font-size="8px" font-style="normal" font-variant="normal">S_2N = Chord*R*N, where N=6,12,24,48,...</text>
    <text x="2" y="165" fill="black" white-space="pre" font-family="Consolas" font-size="7px" font-style="normal" font-variant="normal">S_12=3.0,S_24=3.105828541230249</text>
    <text x="2" y="173" fill="black" white-space="pre" font-family="Consolas" font-size="7px" font-style="normal" font-variant="normal">S_48=3.1326286132812378,S_96=3.1393502030468667</text>
    <text x="2" y="181" fill="black" white-space="pre" font-family="Consolas" font-size="7px" font-style="normal" font-variant="normal">S_192=3.14103195089051,S_384=3.1414524722854624</text>
    <text x="2" y="189" fill="black" white-space="pre" font-family="Consolas" font-size="7px" font-style="normal" font-variant="normal">S_768=3.141557607911858,S_1536=3.1415838921483186</text>
    <text x="2" y="197" fill="black" white-space="pre" font-family="Consolas" font-size="7px" font-style="normal" font-variant="normal">S_3072=3.1415904632280505,S_6144=3.1415921059992717</text>
  </g>
  <line x1="155.0" y1="80.0" x2="100.0" y2="80.0" stroke="black" stroke-width="0.5" stroke-dasharray="None"/>
  <line x1="100.0" y1="80.0" x2="127.5" y2="127.6" stroke="black" stroke-width="0.5" stroke-dasharray="None"/>
  <line x1="127.5" y1="127.6" x2="100.0" y2="80.0" stroke="black" stroke-width="0.5" stroke-dasharray="None"/>
  <line x1="100.0" y1="80.0" x2="72.5" y2="127.6" stroke="black" stroke-width="0.5" stroke-dasharray="None"/>
  <line x1="72.5" y1="127.6" x2="100.0" y2="80.0" stroke="black" stroke-width="0.5" stroke-dasharray="None"/>
  <line x1="100.0" y1="80.0" x2="45.0" y2="80.0" stroke="black" stroke-width="0.5" stroke-dasharray="None"/>
  <line x1="45.0" y1="80.0" x2="100.0" y2="80.0" stroke="black" stroke-width="0.5" stroke-dasharray="None"/>
  <line x1="100.0" y1="80.0" x2="72.5" y2="32.4" stroke="black" stroke-width="0.5" stroke-dasharray="None"/>
  <line x1="72.5" y1="32.4" x2="100.0" y2="80.0" stroke="black" stroke-width="0.5" stroke-dasharray="None"/>
  <line x1="100.0" y1="80.0" x2="127.5" y2="32.4" stroke="black" stroke-width="0.5" stroke-dasharray="None"/>
  <line x1="127.5" y1="32.4" x2="100.0" y2="80.0" stroke="black" stroke-width="0.5" stroke-dasharray="None"/>
  <line x1="100.0" y1="80.0" x2="100.0" y2="80.0" stroke="black" stroke-width="0.5" stroke-dasharray="None"/>
  <line x1="100.0" y1="80.0" x2="100.0" y2="135.0" stroke="black" stroke-width="0.5" stroke-dasharray="None"/>
</svg>
