<?xml version='1.0' encoding='UTF-8' standalone='no'?>
<svg xmlns="http://www.w3.org/2000/svg" xmlns:xlink="http://www.w3.org/1999/xlink" version="1.1" width="200" height="200" viewBox="0 0 200 200" style="border:1px solid black">
  <style> line{stroke: green; stroke-width: 0.5; stroke-dasharray: None; } circle{fill: black; r: 0.8; }</style>
  <line x1="4.1" y1="82.6" x2="8.2" y2="93.0"/>
  <line x1="74.7" y1="72.4" x2="87.7" y2="75.0"/>
  <line x1="27.0" y1="2.3" x2="23.0" y2="15.3"/>
  <line x1="97.8" y1="5.7" x2="108.3" y2="14.2"/>
  <line x1="77.8" y1="192.7" x2="82.5" y2="181.8"/>
  <line x1="95.9" y1="113.1" x2="104.6" y2="102.8"/>
  <line x1="176.3" y1="34.0" x2="172.2" y2="43.1"/>
  <line x1="77.8" y1="86.2" x2="84.4" y2="84.0"/>
  <line x1="23.0" y1="15.3" x2="22.1" y2="22.1"/>
  <line x1="37.4" y1="134.1" x2="34.7" y2="143.4"/>
  <line x1="106.7" y1="133.7" x2="117.1" y2="144.6"/>
  <line x1="95.4" y1="125.3" x2="103.0" y2="114.4"/>
  <line x1="117.1" y1="42.5" x2="122.1" y2="37.1"/>
  <line x1="185.8" y1="166.3" x2="182.4" y2="174.2"/>
  <line x1="92.0" y1="14.6" x2="108.3" y2="14.2"/>
  <line x1="34.7" y1="143.4" x2="33.7" y2="153.9"/>
  <line x1="52.7" y1="65.6" x2="54.5" y2="73.3"/>
  <line x1="126.5" y1="67.4" x2="134.8" y2="76.4"/>
  <line x1="116.8" y1="55.0" x2="124.4" y2="46.5"/>
  <line x1="105.7" y1="145.2" x2="117.1" y2="144.6"/>
  <line x1="54.5" y1="73.3" x2="53.6" y2="82.6"/>
  <line x1="126.1" y1="184.2" x2="133.1" y2="178.0"/>
  <line x1="17.7" y1="15.5" x2="23.0" y2="15.3"/>
  <line x1="77.0" y1="7.2" x2="73.6" y2="12.3"/>
  <line x1="146.0" y1="3.3" x2="154.0" y2="17.3"/>
  <line x1="156.5" y1="125.4" x2="166.2" y2="135.0"/>
  <line x1="143.3" y1="114.8" x2="153.4" y2="107.4"/>
  <line x1="150.0" y1="200.0" x2="160.0" y2="200.0"/>
  <line x1="25.0" y1="143.8" x2="34.7" y2="143.4"/>
  <line x1="82.2" y1="131.7" x2="85.4" y2="142.5"/>
  <line x1="152.6" y1="138.1" x2="164.3" y2="142.7"/>
  <line x1="160.0" y1="0.0" x2="170.0" y2="0.0"/>
  <line x1="21.8" y1="31.9" x2="36.2" y2="41.8"/>
  <line x1="41.9" y1="73.8" x2="54.5" y2="73.3"/>
  <line x1="105.4" y1="64.0" x2="106.0" y2="74.5"/>
  <line x1="172.2" y1="67.7" x2="182.0" y2="73.8"/>
  <line x1="200.0" y1="120.0" x2="200.0" y2="130.0"/>
  <line x1="43.2" y1="87.2" x2="53.6" y2="82.6"/>
  <line x1="67.8" y1="5.9" x2="77.0" y2="7.2"/>
  <line x1="106.0" y1="74.5" x2="104.2" y2="84.2"/>
  <line x1="66.5" y1="18.1" x2="73.6" y2="12.3"/>
  <line x1="75.4" y1="138.3" x2="82.2" y2="131.7"/>
  <line x1="124.0" y1="2.0" x2="123.2" y2="13.4"/>
  <line x1="52.5" y1="104.4" x2="61.9" y2="115.2"/>
  <line x1="197.4" y1="14.5" x2="200.0" y2="20.0"/>
  <line x1="73.7" y1="144.9" x2="85.4" y2="142.5"/>
  <line x1="36.9" y1="191.9" x2="40.0" y2="200.0"/>
  <line x1="136.3" y1="134.0" x2="134.8" y2="146.1"/>
  <line x1="71.9" y1="34.3" x2="81.9" y2="41.7"/>
  <line x1="94.7" y1="77.8" x2="106.0" y2="74.5"/>
  <line x1="196.8" y1="53.6" x2="200.0" y2="50.0"/>
  <line x1="157.7" y1="65.1" x2="158.2" y2="77.6"/>
  <line x1="176.1" y1="191.8" x2="170.0" y2="200.0"/>
  <line x1="117.2" y1="7.9" x2="124.0" y2="2.0"/>
  <line x1="56.0" y1="133.2" x2="56.1" y2="143.4"/>
  <line x1="123.4" y1="136.3" x2="136.3" y2="134.0"/>
  <line x1="71.8" y1="66.1" x2="74.7" y2="72.4"/>
  <line x1="20.0" y1="200.0" x2="30.0" y2="200.0"/>
  <line x1="186.4" y1="22.8" x2="200.0" y2="20.0"/>
  <line x1="147.7" y1="64.3" x2="157.7" y2="65.1"/>
  <line x1="190.0" y1="0.0" x2="200.0" y2="0.0"/>
  <line x1="4.3" y1="175.7" x2="13.7" y2="181.9"/>
  <line x1="36.4" y1="8.2" x2="40.0" y2="0.0"/>
  <line x1="146.0" y1="76.5" x2="158.2" y2="77.6"/>
  <line x1="97.8" y1="5.7" x2="92.0" y2="14.6"/>
  <line x1="155.7" y1="193.7" x2="166.4" y2="193.2"/>
  <line x1="190.0" y1="200.0" x2="200.0" y2="200.0"/>
  <line x1="200.0" y1="150.0" x2="200.0" y2="160.0"/>
  <line x1="164.6" y1="7.7" x2="171.7" y2="6.9"/>
  <line x1="106.7" y1="133.7" x2="105.7" y2="145.2"/>
  <line x1="172.9" y1="127.0" x2="181.7" y2="126.9"/>
  <line x1="0.0" y1="160.0" x2="0.0" y2="170.0"/>
  <line x1="178.1" y1="136.5" x2="185.3" y2="134.6"/>
  <line x1="126.5" y1="67.4" x2="126.4" y2="77.0"/>
  <line x1="48.0" y1="45.6" x2="56.9" y2="54.4"/>
  <line x1="63.8" y1="75.9" x2="71.8" y2="66.1"/>
  <line x1="75.3" y1="98.3" x2="82.9" y2="102.9"/>
  <line x1="156.5" y1="125.4" x2="152.6" y2="138.1"/>
  <line x1="3.2" y1="102.1" x2="5.5" y2="114.0"/>
  <line x1="76.3" y1="108.0" x2="86.7" y2="114.3"/>
  <line x1="95.9" y1="28.3" x2="105.7" y2="37.9"/>
  <line x1="7.0" y1="127.5" x2="0.0" y2="130.0"/>
  <line x1="152.6" y1="138.1" x2="155.6" y2="144.4"/>
  <line x1="172.0" y1="54.3" x2="172.2" y2="67.7"/>
  <line x1="21.8" y1="31.9" x2="24.6" y2="48.1"/>
  <line x1="94.2" y1="142.3" x2="106.7" y2="133.7"/>
  <line x1="172.2" y1="67.7" x2="174.4" y2="76.8"/>
  <line x1="182.1" y1="184.8" x2="186.7" y2="195.7"/>
  <line x1="33.8" y1="163.6" x2="36.8" y2="173.1"/>
  <line x1="107.9" y1="168.0" x2="115.4" y2="173.8"/>
  <line x1="126.4" y1="84.5" x2="138.2" y2="93.5"/>
  <line x1="111.7" y1="73.6" x2="126.5" y2="67.4"/>
  <line x1="137.8" y1="182.1" x2="147.1" y2="176.9"/>
  <line x1="12.8" y1="33.2" x2="21.8" y2="31.9"/>
  <line x1="157.2" y1="114.5" x2="162.2" y2="106.4"/>
  <line x1="54.1" y1="7.1" x2="60.0" y2="0.0"/>
  <line x1="146.2" y1="131.9" x2="156.5" y2="125.4"/>
  <line x1="162.6" y1="62.7" x2="172.2" y2="67.7"/>
  <line x1="195.9" y1="193.2" x2="200.0" y2="190.0"/>
  <line x1="12.2" y1="43.8" x2="24.6" y2="48.1"/>
  <line x1="26.7" y1="167.9" x2="33.8" y2="163.6"/>
  <line x1="176.1" y1="191.8" x2="186.7" y2="195.7"/>
  <line x1="28.1" y1="176.6" x2="36.8" y2="173.1"/>
  <line x1="42.6" y1="92.2" x2="52.2" y2="97.4"/>
  <line x1="42.3" y1="102.9" x2="52.5" y2="104.4"/>
  <line x1="62.6" y1="144.5" x2="75.4" y2="138.3"/>
  <line x1="73.6" y1="12.3" x2="83.8" y2="14.2"/>
  <line x1="195.5" y1="4.8" x2="200.0" y2="10.0"/>
  <line x1="65.2" y1="36.2" x2="71.9" y2="34.3"/>
  <line x1="5.1" y1="162.9" x2="4.3" y2="175.7"/>
  <line x1="44.0" y1="3.0" x2="50.0" y2="0.0"/>
  <line x1="196.6" y1="48.0" x2="200.0" y2="40.0"/>
  <line x1="75.7" y1="166.1" x2="87.2" y2="163.2"/>
  <line x1="23.6" y1="95.8" x2="26.3" y2="103.5"/>
  <line x1="26.3" y1="103.5" x2="24.4" y2="118.2"/>
  <line x1="93.3" y1="94.7" x2="106.0" y2="97.8"/>
  <line x1="42.5" y1="26.9" x2="44.0" y2="37.2"/>
  <line x1="44.0" y1="37.2" x2="48.0" y2="45.6"/>
  <line x1="114.3" y1="26.2" x2="121.8" y2="25.5"/>
  <line x1="55.1" y1="156.5" x2="52.2" y2="164.7"/>
  <line x1="122.7" y1="153.2" x2="133.3" y2="164.5"/>
  <line x1="191.8" y1="114.3" x2="200.0" y2="120.0"/>
  <line x1="52.2" y1="164.7" x2="52.2" y2="172.2"/>
  <line x1="148.2" y1="85.0" x2="153.4" y2="95.5"/>
  <line x1="8.1" y1="158.0" x2="13.2" y2="145.8"/>
  <line x1="30.0" y1="200.0" x2="40.0" y2="200.0"/>
  <line x1="87.7" y1="75.0" x2="84.4" y2="84.0"/>
  <line x1="75.3" y1="98.3" x2="76.3" y2="108.0"/>
  <line x1="107.5" y1="2.4" x2="108.3" y2="14.2"/>
  <line x1="14.8" y1="105.5" x2="23.6" y2="95.8"/>
  <line x1="34.7" y1="32.1" x2="44.0" y2="37.2"/>
  <line x1="95.9" y1="28.3" x2="96.1" y2="35.7"/>
  <line x1="164.1" y1="24.9" x2="176.3" y2="34.0"/>
  <line x1="166.2" y1="135.0" x2="172.9" y2="127.0"/>
  <line x1="200.0" y1="160.0" x2="200.0" y2="170.0"/>
  <line x1="4.6" y1="34.7" x2="0.0" y2="30.0"/>
  <line x1="104.5" y1="154.9" x2="107.9" y2="168.0"/>
  <line x1="176.5" y1="152.3" x2="185.8" y2="166.3"/>
  <line x1="0.0" y1="170.0" x2="0.0" y2="180.0"/>
  <line x1="44.2" y1="53.4" x2="52.7" y2="65.6"/>
  <line x1="185.3" y1="134.6" x2="196.8" y2="138.1"/>
  <line x1="126.4" y1="84.5" x2="122.0" y2="97.7"/>
  <line x1="65.5" y1="106.3" x2="76.3" y2="108.0"/>
  <line x1="144.8" y1="13.8" x2="145.9" y2="27.1"/>
  <line x1="3.2" y1="102.1" x2="0.0" y2="110.0"/>
  <line x1="88.0" y1="34.4" x2="96.1" y2="35.7"/>
  <line x1="155.6" y1="144.4" x2="156.0" y2="152.7"/>
  <line x1="77.7" y1="127.0" x2="82.2" y2="131.7"/>
  <line x1="2.3" y1="145.1" x2="0.0" y2="140.0"/>
  <line x1="92.7" y1="163.1" x2="107.9" y2="168.0"/>
  <line x1="5.8" y1="195.0" x2="10.0" y2="200.0"/>
  <line x1="126.4" y1="77.0" x2="134.8" y2="76.4"/>
  <line x1="95.8" y1="57.5" x2="105.4" y2="64.0"/>
  <line x1="187.6" y1="65.9" x2="182.0" y2="73.8"/>
  <line x1="117.2" y1="95.1" x2="122.0" y2="97.7"/>
  <line x1="17.4" y1="4.4" x2="20.0" y2="0.0"/>
  <line x1="174.4" y1="82.1" x2="171.9" y2="96.6"/>
  <line x1="146.0" y1="3.3" x2="158.1" y2="3.8"/>
  <line x1="134.0" y1="25.7" x2="145.9" y2="27.1"/>
  <line x1="70.0" y1="0.0" x2="80.0" y2="0.0"/>
  <line x1="146.0" y1="153.7" x2="156.0" y2="152.7"/>
  <line x1="200.0" y1="30.0" x2="200.0" y2="40.0"/>
  <line x1="18.1" y1="177.0" x2="26.7" y2="167.9"/>
  <line x1="12.6" y1="67.7" x2="23.9" y2="67.3"/>
  <line x1="174.4" y1="76.8" x2="182.0" y2="73.8"/>
  <line x1="36.8" y1="173.1" x2="46.1" y2="174.8"/>
  <line x1="52.5" y1="104.4" x2="65.5" y2="106.3"/>
  <line x1="122.7" y1="153.2" x2="123.0" y2="164.8"/>
  <line x1="64.9" y1="52.5" x2="71.8" y2="66.1"/>
  <line x1="71.9" y1="34.3" x2="88.0" y2="34.4"/>
  <line x1="148.2" y1="85.0" x2="143.2" y2="97.9"/>
  <line x1="198.3" y1="24.7" x2="200.0" y2="20.0"/>
  <line x1="77.4" y1="157.6" x2="85.4" y2="142.5"/>
  <line x1="5.8" y1="182.3" x2="5.8" y2="195.0"/>
  <line x1="105.7" y1="194.6" x2="110.0" y2="200.0"/>
  <line x1="52.3" y1="32.5" x2="57.6" y2="44.8"/>
  <line x1="126.2" y1="142.6" x2="136.3" y2="134.0"/>
  <line x1="44.2" y1="53.4" x2="44.3" y2="64.9"/>
  <line x1="65.2" y1="166.6" x2="67.3" y2="176.3"/>
  <line x1="146.0" y1="76.5" x2="157.7" y2="65.1"/>
  <line x1="53.8" y1="187.0" x2="58.0" y2="195.5"/>
  <line x1="126.1" y1="184.2" x2="135.9" y2="197.3"/>
  <line x1="83.7" y1="92.7" x2="82.9" y2="102.9"/>
  <line x1="153.4" y1="95.5" x2="162.2" y2="106.4"/>
  <line x1="73.5" y1="115.9" x2="77.7" y2="127.0"/>
  <line x1="107.4" y1="25.7" x2="105.7" y2="37.9"/>
  <line x1="176.7" y1="26.3" x2="183.9" y2="34.8"/>
  <line x1="178.1" y1="136.5" x2="181.7" y2="126.9"/>
  <line x1="166.0" y1="46.6" x2="172.0" y2="54.3"/>
  <line x1="24.4" y1="118.2" x2="33.3" y2="104.3"/>
  <line x1="48.0" y1="45.6" x2="57.6" y2="44.8"/>
  <line x1="27.0" y1="2.3" x2="30.0" y2="0.0"/>
  <line x1="116.8" y1="154.2" x2="117.0" y2="166.8"/>
  <line x1="187.7" y1="155.7" x2="195.0" y2="161.7"/>
  <line x1="52.2" y1="172.2" x2="67.3" y2="176.3"/>
  <line x1="76.3" y1="108.0" x2="82.9" y2="102.9"/>
  <line x1="16.8" y1="52.2" x2="12.6" y2="67.7"/>
  <line x1="96.1" y1="35.7" x2="105.7" y2="37.9"/>
  <line x1="2.0" y1="134.9" x2="0.0" y2="130.0"/>
  <line x1="154.7" y1="23.9" x2="154.0" y2="38.0"/>
  <line x1="82.6" y1="56.9" x2="95.8" y2="57.5"/>
  <line x1="107.9" y1="168.0" x2="117.0" y2="166.8"/>
  <line x1="168.2" y1="154.2" x2="163.8" y2="167.5"/>
  <line x1="196.8" y1="53.6" x2="200.0" y2="60.0"/>
  <line x1="93.8" y1="184.2" x2="105.1" y2="184.3"/>
  <line x1="122.0" y1="97.7" x2="138.2" y2="93.5"/>
  <line x1="0.0" y1="200.0" x2="10.0" y2="200.0"/>
  <line x1="145.9" y1="27.1" x2="154.7" y2="23.9"/>
  <line x1="170.0" y1="0.0" x2="180.0" y2="0.0"/>
  <line x1="12.2" y1="43.8" x2="21.8" y2="31.9"/>
  <line x1="80.0" y1="0.0" x2="90.0" y2="0.0"/>
  <line x1="148.3" y1="33.7" x2="154.0" y2="38.0"/>
  <line x1="87.2" y1="163.2" x2="84.6" y2="175.6"/>
  <line x1="156.0" y1="152.7" x2="168.2" y2="154.2"/>
  <line x1="23.9" y1="67.3" x2="33.5" y2="73.1"/>
  <line x1="200.0" y1="40.0" x2="200.0" y2="50.0"/>
  <line x1="155.3" y1="162.6" x2="163.8" y2="167.5"/>
  <line x1="106.0" y1="97.8" x2="104.6" y2="102.8"/>
  <line x1="95.9" y1="113.1" x2="95.4" y2="125.3"/>
  <line x1="42.3" y1="102.9" x2="52.2" y2="97.4"/>
  <line x1="33.8" y1="14.7" x2="42.5" y2="26.9"/>
  <line x1="171.9" y1="96.6" x2="187.4" y2="94.1"/>
  <line x1="121.8" y1="25.5" x2="122.1" y2="37.1"/>
  <line x1="117.1" y1="42.5" x2="116.8" y2="55.0"/>
  <line x1="46.0" y1="113.5" x2="52.5" y2="104.4"/>
  <line x1="46.0" y1="144.9" x2="55.1" y2="156.5"/>
  <line x1="138.2" y1="151.9" x2="133.3" y2="164.5"/>
  <line x1="133.3" y1="164.5" x2="133.1" y2="178.0"/>
  <line x1="157.2" y1="87.4" x2="153.4" y2="95.5"/>
  <line x1="2.3" y1="64.9" x2="7.7" y2="72.0"/>
  <line x1="93.3" y1="94.7" x2="104.2" y2="84.2"/>
  <line x1="153.4" y1="95.5" x2="153.4" y2="107.4"/>
  <line x1="87.1" y1="6.7" x2="92.0" y2="14.6"/>
  <line x1="173.8" y1="15.2" x2="176.7" y2="26.3"/>
  <line x1="95.3" y1="103.2" x2="106.0" y2="97.8"/>
  <line x1="176.7" y1="26.3" x2="176.3" y2="34.0"/>
  <line x1="35.7" y1="122.2" x2="37.4" y2="134.1"/>
  <line x1="114.6" y1="33.2" x2="121.8" y2="25.5"/>
  <line x1="187.7" y1="155.7" x2="185.8" y2="166.3"/>
  <line x1="195.2" y1="125.0" x2="200.0" y2="120.0"/>
  <line x1="5.8" y1="195.0" x2="17.0" y2="196.1"/>
  <line x1="164.1" y1="24.9" x2="176.7" y2="26.3"/>
  <line x1="17.4" y1="4.4" x2="27.0" y2="2.3"/>
  <line x1="145.8" y1="101.7" x2="153.4" y2="95.5"/>
  <line x1="176.5" y1="152.3" x2="187.7" y2="155.7"/>
  <line x1="24.7" y1="135.0" x2="37.4" y2="134.1"/>
  <line x1="17.0" y1="196.1" x2="10.0" y2="200.0"/>
  <line x1="44.3" y1="64.9" x2="52.7" y2="65.6"/>
  <line x1="65.5" y1="106.3" x2="75.3" y2="98.3"/>
  <line x1="58.0" y1="195.5" x2="66.5" y2="195.8"/>
  <line x1="7.0" y1="127.5" x2="2.0" y2="134.9"/>
  <line x1="88.0" y1="34.4" x2="95.9" y2="28.3"/>
  <line x1="2.0" y1="134.9" x2="2.3" y2="145.1"/>
  <line x1="77.7" y1="127.0" x2="83.9" y2="127.7"/>
  <line x1="24.7" y1="56.9" x2="23.9" y2="67.3"/>
  <line x1="92.7" y1="163.1" x2="104.5" y2="154.9"/>
  <line x1="23.9" y1="67.3" x2="27.4" y2="74.7"/>
  <line x1="95.8" y1="57.5" x2="104.1" y2="55.1"/>
  <line x1="196.6" y1="48.0" x2="200.0" y2="50.0"/>
  <line x1="37.8" y1="187.3" x2="36.9" y2="191.9"/>
  <line x1="97.1" y1="67.1" x2="105.4" y2="64.0"/>
  <line x1="105.1" y1="184.3" x2="114.5" y2="185.8"/>
  <line x1="127.9" y1="114.7" x2="131.8" y2="124.4"/>
  <line x1="116.6" y1="106.7" x2="122.0" y2="97.7"/>
  <line x1="105.7" y1="194.6" x2="113.2" y2="197.0"/>
  <line x1="55.8" y1="127.7" x2="56.0" y2="133.2"/>
  <line x1="138.1" y1="33.0" x2="145.9" y2="27.1"/>
  <line x1="10.0" y1="200.0" x2="20.0" y2="200.0"/>
  <line x1="146.0" y1="153.7" x2="155.6" y2="144.4"/>
  <line x1="127.4" y1="122.8" x2="131.8" y2="124.4"/>
  <line x1="73.6" y1="52.0" x2="71.8" y2="66.1"/>
  <line x1="180.0" y1="0.0" x2="190.0" y2="0.0"/>
  <line x1="8.1" y1="158.0" x2="15.2" y2="165.4"/>
  <line x1="12.6" y1="67.7" x2="24.7" y2="56.9"/>
  <line x1="28.0" y1="197.1" x2="36.9" y2="191.9"/>
  <line x1="146.9" y1="56.2" x2="156.4" y2="56.9"/>
  <line x1="82.5" y1="181.8" x2="84.4" y2="196.4"/>
  <line x1="157.6" y1="185.4" x2="166.4" y2="193.2"/>
  <line x1="180.0" y1="200.0" x2="190.0" y2="200.0"/>
  <line x1="167.0" y1="93.6" x2="174.4" y2="82.1"/>
  <line x1="200.0" y1="140.0" x2="200.0" y2="150.0"/>
  <line x1="21.9" y1="81.9" x2="32.4" y2="96.9"/>
  <line x1="13.8" y1="74.5" x2="23.9" y2="67.3"/>
  <line x1="42.6" y1="125.6" x2="55.8" y2="127.7"/>
  <line x1="103.0" y1="114.4" x2="104.8" y2="126.4"/>
  <line x1="173.4" y1="116.2" x2="181.7" y2="126.9"/>
  <line x1="0.0" y1="150.0" x2="0.0" y2="160.0"/>
  <line x1="186.4" y1="22.8" x2="197.4" y2="14.5"/>
  <line x1="47.2" y1="11.9" x2="57.0" y2="22.1"/>
  <line x1="4.6" y1="34.7" x2="0.0" y2="40.0"/>
  <line x1="64.9" y1="52.5" x2="73.6" y2="52.0"/>
  <line x1="104.8" y1="126.4" x2="106.7" y2="133.7"/>
  <line x1="124.4" y1="46.5" x2="124.5" y2="58.3"/>
  <line x1="44.8" y1="135.9" x2="55.8" y2="127.7"/>
  <line x1="75.2" y1="182.3" x2="82.5" y2="181.8"/>
  <line x1="124.5" y1="58.3" x2="126.5" y2="67.4"/>
  <line x1="7.7" y1="72.0" x2="0.0" y2="70.0"/>
  <line x1="133.1" y1="178.0" x2="137.8" y2="182.1"/>
  <line x1="74.7" y1="72.4" x2="84.4" y2="84.0"/>
  <line x1="77.8" y1="192.7" x2="84.4" y2="196.4"/>
  <line x1="137.8" y1="182.1" x2="135.9" y2="197.3"/>
  <line x1="153.4" y1="107.4" x2="157.2" y2="114.5"/>
  <line x1="77.8" y1="86.2" x2="83.7" y2="92.7"/>
  <line x1="95.4" y1="125.3" x2="104.8" y2="126.4"/>
  <line x1="157.2" y1="114.5" x2="156.5" y2="125.4"/>
  <line x1="92.0" y1="14.6" x2="107.4" y2="25.7"/>
  <line x1="196.8" y1="138.1" x2="200.0" y2="130.0"/>
  <line x1="116.8" y1="55.0" x2="124.5" y2="58.3"/>
  <line x1="172.2" y1="43.1" x2="172.0" y2="54.3"/>
  <line x1="105.7" y1="145.2" x2="116.8" y2="154.2"/>
  <line x1="111.8" y1="64.5" x2="126.5" y2="67.4"/>
  <line x1="126.1" y1="184.2" x2="137.8" y2="182.1"/>
  <line x1="182.4" y1="174.2" x2="182.1" y2="184.8"/>
  <line x1="143.3" y1="114.8" x2="157.2" y2="114.5"/>
  <line x1="93.4" y1="42.2" x2="95.8" y2="57.5"/>
  <line x1="200.0" y1="10.0" x2="200.0" y2="20.0"/>
  <line x1="142.5" y1="122.5" x2="156.5" y2="125.4"/>
  <line x1="166.0" y1="46.6" x2="172.2" y2="43.1"/>
  <line x1="0.0" y1="180.0" x2="0.0" y2="190.0"/>
  <line x1="18.1" y1="26.1" x2="22.1" y2="22.1"/>
  <line x1="38.0" y1="65.3" x2="44.2" y2="53.4"/>
  <line x1="164.2" y1="56.3" x2="172.0" y2="54.3"/>
  <line x1="173.7" y1="173.6" x2="182.4" y2="174.2"/>
  <line x1="24.5" y1="153.7" x2="33.7" y2="153.9"/>
  <line x1="43.2" y1="87.2" x2="52.2" y2="97.4"/>
  <line x1="44.4" y1="195.2" x2="53.8" y2="187.0"/>
  <line x1="177.1" y1="185.9" x2="182.1" y2="184.8"/>
  <line x1="127.9" y1="114.7" x2="127.4" y2="122.8"/>
  <line x1="66.5" y1="18.1" x2="73.1" y2="23.0"/>
  <line x1="186.7" y1="195.7" x2="180.0" y2="200.0"/>
  <line x1="62.9" y1="127.5" x2="73.5" y2="115.9"/>
  <line x1="145.1" y1="45.7" x2="146.9" y2="56.2"/>
  <line x1="66.0" y1="132.2" x2="77.7" y2="127.0"/>
  <line x1="82.6" y1="56.9" x2="93.4" y2="42.2"/>
  <line x1="157.0" y1="177.1" x2="157.6" y2="185.4"/>
  <line x1="198.3" y1="24.7" x2="200.0" y2="30.0"/>
  <line x1="8.1" y1="158.0" x2="5.1" y2="162.9"/>
  <line x1="77.4" y1="157.6" x2="87.2" y2="163.2"/>
  <line x1="27.4" y1="74.7" x2="21.9" y2="81.9"/>
  <line x1="94.7" y1="77.8" x2="104.2" y2="84.2"/>
  <line x1="85.5" y1="67.5" x2="95.8" y2="57.5"/>
  <line x1="157.6" y1="185.4" x2="155.7" y2="193.7"/>
  <line x1="174.7" y1="107.2" x2="173.4" y2="116.2"/>
  <line x1="21.9" y1="81.9" x2="23.6" y2="95.8"/>
  <line x1="193.3" y1="62.5" x2="200.0" y2="60.0"/>
  <line x1="117.2" y1="7.9" x2="123.2" y2="13.4"/>
  <line x1="44.0" y1="3.0" x2="47.2" y2="11.9"/>
  <line x1="173.4" y1="116.2" x2="172.9" y2="127.0"/>
  <line x1="192.2" y1="33.3" x2="196.6" y2="48.0"/>
  <line x1="47.2" y1="11.9" x2="42.5" y2="26.9"/>
  <line x1="113.5" y1="17.8" x2="121.8" y2="25.5"/>
  <line x1="196.6" y1="48.0" x2="196.8" y2="53.6"/>
  <line x1="148.3" y1="33.7" x2="154.7" y2="23.9"/>
  <line x1="56.1" y1="143.4" x2="55.1" y2="156.5"/>
  <line x1="12.4" y1="87.6" x2="21.9" y2="81.9"/>
  <line x1="74.7" y1="72.4" x2="77.8" y2="86.2"/>
  <line x1="30.0" y1="0.0" x2="40.0" y2="0.0"/>
  <line x1="16.0" y1="94.7" x2="23.6" y2="95.8"/>
  <line x1="33.8" y1="14.7" x2="47.2" y2="11.9"/>
  <line x1="164.6" y1="7.7" x2="173.8" y2="15.2"/>
  <line x1="163.9" y1="114.4" x2="174.7" y2="107.2"/>
  <line x1="33.5" y1="25.6" x2="42.5" y2="26.9"/>
  <line x1="46.0" y1="144.9" x2="56.1" y2="143.4"/>
  <line x1="92.0" y1="14.6" x2="95.9" y2="28.3"/>
  <line x1="178.1" y1="136.5" x2="182.4" y2="146.9"/>
  <line x1="182.0" y1="46.8" x2="192.2" y2="33.3"/>
  <line x1="24.4" y1="118.2" x2="35.7" y2="122.2"/>
  <line x1="46.2" y1="156.4" x2="55.1" y2="156.5"/>
  <line x1="7.0" y1="58.2" x2="0.0" y2="50.0"/>
  <line x1="63.8" y1="75.9" x2="74.7" y2="72.4"/>
  <line x1="105.7" y1="145.2" x2="104.5" y2="154.9"/>
  <line x1="65.6" y1="83.8" x2="77.8" y2="86.2"/>
  <line x1="17.7" y1="15.5" x2="18.1" y2="26.1"/>
  <line x1="87.1" y1="6.7" x2="97.8" y2="5.7"/>
  <line x1="83.8" y1="14.2" x2="92.0" y2="14.6"/>
  <line x1="25.0" y1="143.8" x2="24.5" y2="153.7"/>
  <line x1="2.0" y1="134.9" x2="0.0" y2="140.0"/>
  <line x1="94.2" y1="142.3" x2="105.7" y2="145.2"/>
  <line x1="41.9" y1="73.8" x2="43.2" y2="87.2"/>
  <line x1="43.2" y1="87.2" x2="42.6" y2="92.2"/>
  <line x1="111.7" y1="73.6" x2="126.4" y2="77.0"/>
  <line x1="67.8" y1="5.9" x2="66.5" y2="18.1"/>
  <line x1="66.5" y1="18.1" x2="63.6" y2="25.1"/>
  <line x1="75.4" y1="138.3" x2="73.7" y2="144.9"/>
  <line x1="60.0" y1="0.0" x2="70.0" y2="0.0"/>
  <line x1="2.5" y1="25.0" x2="17.7" y2="15.5"/>
  <line x1="138.3" y1="13.1" x2="144.8" y2="13.8"/>
  <line x1="73.7" y1="144.9" x2="77.4" y2="157.6"/>
  <line x1="146.2" y1="131.9" x2="152.6" y2="138.1"/>
  <line x1="60.0" y1="200.0" x2="70.0" y2="200.0"/>
  <line x1="156.4" y1="56.9" x2="166.0" y2="46.6"/>
  <line x1="200.0" y1="20.0" x2="200.0" y2="30.0"/>
  <line x1="143.2" y1="142.8" x2="155.6" y2="144.4"/>
  <line x1="94.7" y1="77.8" x2="95.5" y2="83.4"/>
  <line x1="0.0" y1="30.0" x2="0.0" y2="40.0"/>
  <line x1="163.1" y1="183.6" x2="173.7" y2="173.6"/>
  <line x1="28.1" y1="176.6" x2="37.8" y2="187.3"/>
  <line x1="37.4" y1="83.4" x2="41.9" y2="73.8"/>
  <line x1="163.7" y1="72.1" x2="174.4" y2="76.8"/>
  <line x1="117.2" y1="7.9" x2="113.5" y2="17.8"/>
  <line x1="25.1" y1="182.8" x2="36.9" y2="191.9"/>
  <line x1="53.3" y1="12.2" x2="67.8" y2="5.9"/>
  <line x1="62.6" y1="144.5" x2="73.7" y2="144.9"/>
  <line x1="185.4" y1="5.1" x2="195.5" y2="4.8"/>
  <line x1="123.4" y1="136.3" x2="126.2" y2="142.6"/>
  <line x1="65.2" y1="36.2" x2="73.8" y2="43.6"/>
  <line x1="147.7" y1="64.3" x2="146.0" y2="76.5"/>
  <line x1="64.2" y1="44.6" x2="73.6" y2="52.0"/>
  <line x1="75.7" y1="166.1" x2="84.6" y2="175.6"/>
  <line x1="146.0" y1="76.5" x2="148.2" y2="85.0"/>
  <line x1="73.8" y1="174.5" x2="82.5" y2="181.8"/>
  <line x1="84.4" y1="84.0" x2="94.7" y2="77.8"/>
  <line x1="108.3" y1="14.2" x2="113.5" y2="17.8"/>
  <line x1="164.6" y1="7.7" x2="161.7" y2="17.1"/>
  <line x1="172.9" y1="127.0" x2="178.1" y2="136.5"/>
  <line x1="105.7" y1="194.6" x2="114.5" y2="185.8"/>
  <line x1="117.1" y1="144.6" x2="126.2" y2="142.6"/>
  <line x1="178.1" y1="136.5" x2="173.3" y2="146.3"/>
  <line x1="196.8" y1="53.6" x2="193.3" y2="62.5"/>
  <line x1="134.8" y1="76.4" x2="146.0" y2="76.5"/>
  <line x1="193.3" y1="62.5" x2="196.3" y2="74.5"/>
  <line x1="8.2" y1="93.0" x2="12.4" y2="87.6"/>
  <line x1="158.1" y1="3.8" x2="164.6" y2="7.7"/>
  <line x1="200.0" y1="0.0" x2="200.0" y2="10.0"/>
  <line x1="14.8" y1="105.5" x2="26.3" y2="103.5"/>
  <line x1="22.1" y1="22.1" x2="33.8" y2="14.7"/>
  <line x1="166.2" y1="135.0" x2="178.1" y2="136.5"/>
  <line x1="16.9" y1="114.4" x2="24.4" y2="118.2"/>
  <line x1="33.7" y1="153.9" x2="46.0" y2="144.9"/>
  <line x1="36.2" y1="41.8" x2="48.0" y2="45.6"/>
  <line x1="53.6" y1="82.6" x2="63.8" y2="75.9"/>
  <line x1="17.0" y1="196.1" x2="20.0" y2="200.0"/>
  <line x1="46.1" y1="174.8" x2="52.2" y2="172.2"/>
  <line x1="65.5" y1="106.3" x2="73.5" y2="115.9"/>
  <line x1="12.8" y1="33.2" x2="12.2" y2="43.8"/>
  <line x1="88.0" y1="34.4" x2="93.4" y2="42.2"/>
  <line x1="155.7" y1="193.7" x2="150.0" y2="200.0"/>
  <line x1="162.6" y1="62.7" x2="163.7" y2="72.1"/>
  <line x1="12.2" y1="43.8" x2="16.8" y2="52.2"/>
  <line x1="26.7" y1="167.9" x2="28.1" y2="176.6"/>
  <line x1="92.7" y1="163.1" x2="103.2" y2="172.1"/>
  <line x1="111.8" y1="64.5" x2="124.5" y2="58.3"/>
  <line x1="28.1" y1="176.6" x2="25.1" y2="182.8"/>
  <line x1="42.6" y1="92.2" x2="42.3" y2="102.9"/>
  <line x1="42.3" y1="102.9" x2="46.0" y2="113.5"/>
  <line x1="116.6" y1="106.7" x2="127.9" y2="114.7"/>
  <line x1="73.6" y1="12.3" x2="73.1" y2="23.0"/>
  <line x1="7.4" y1="45.7" x2="12.2" y2="43.8"/>
  <line x1="142.5" y1="122.5" x2="157.2" y2="114.5"/>
  <line x1="65.2" y1="36.2" x2="64.2" y2="44.6"/>
  <line x1="138.1" y1="33.0" x2="145.1" y2="45.7"/>
  <line x1="146.0" y1="153.7" x2="155.3" y2="162.6"/>
  <line x1="85.4" y1="142.5" x2="87.3" y2="157.5"/>
  <line x1="18.1" y1="177.0" x2="28.1" y2="176.6"/>
  <line x1="75.7" y1="166.1" x2="73.8" y2="174.5"/>
  <line x1="70.0" y1="200.0" x2="80.0" y2="200.0"/>
  <line x1="174.4" y1="76.8" x2="182.5" y2="83.4"/>
  <line x1="33.3" y1="104.3" x2="42.3" y2="102.9"/>
  <line x1="177.1" y1="185.9" x2="182.4" y2="174.2"/>
  <line x1="93.3" y1="94.7" x2="95.3" y2="103.2"/>
  <line x1="0.0" y1="40.0" x2="0.0" y2="50.0"/>
  <line x1="114.3" y1="26.2" x2="114.6" y2="33.2"/>
  <line x1="186.4" y1="22.8" x2="192.2" y2="33.3"/>
  <line x1="57.6" y1="44.8" x2="64.2" y2="44.6"/>
  <line x1="77.4" y1="157.6" x2="87.3" y2="157.5"/>
  <line x1="44.8" y1="135.9" x2="56.1" y2="143.4"/>
  <line x1="67.3" y1="176.3" x2="73.8" y2="174.5"/>
  <line x1="95.5" y1="83.4" x2="104.2" y2="84.2"/>
  <line x1="82.9" y1="102.9" x2="95.3" y2="103.2"/>
  <line x1="34.7" y1="32.1" x2="36.2" y2="41.8"/>
  <line x1="113.5" y1="17.8" x2="123.2" y2="13.4"/>
  <line x1="105.7" y1="37.9" x2="114.6" y2="33.2"/>
  <line x1="126.2" y1="142.6" x2="134.8" y2="146.1"/>
  <line x1="196.8" y1="138.1" x2="200.0" y2="140.0"/>
  <line x1="185.3" y1="134.6" x2="182.4" y2="146.9"/>
  <line x1="117.0" y1="166.8" x2="123.0" y2="164.8"/>
  <line x1="192.4" y1="176.9" x2="200.0" y2="170.0"/>
  <line x1="65.5" y1="106.3" x2="61.9" y2="115.2"/>
  <line x1="138.2" y1="93.5" x2="143.2" y2="97.9"/>
  <line x1="16.0" y1="94.7" x2="21.9" y2="81.9"/>
  <line x1="100.0" y1="200.0" x2="110.0" y2="200.0"/>
  <line x1="5.5" y1="114.0" x2="14.8" y2="105.5"/>
  <line x1="88.0" y1="34.4" x2="81.9" y2="41.7"/>
  <line x1="171.7" y1="6.9" x2="170.0" y2="0.0"/>
  <line x1="0.0" y1="70.0" x2="0.0" y2="80.0"/>
  <line x1="161.7" y1="17.1" x2="173.8" y2="15.2"/>
  <line x1="24.4" y1="118.2" x2="37.4" y2="113.7"/>
  <line x1="92.7" y1="163.1" x2="97.3" y2="171.9"/>
  <line x1="173.3" y1="146.3" x2="182.4" y2="146.9"/>
  <line x1="38.0" y1="65.3" x2="41.9" y2="73.8"/>
  <line x1="126.4" y1="77.0" x2="126.4" y2="84.5"/>
  <line x1="117.2" y1="95.1" x2="116.6" y2="106.7"/>
  <line x1="65.6" y1="83.8" x2="74.7" y2="72.4"/>
  <line x1="146.0" y1="3.3" x2="144.8" y2="13.8"/>
  <line x1="134.0" y1="25.7" x2="138.1" y2="33.0"/>
  <line x1="186.7" y1="195.7" x2="190.0" y2="200.0"/>
  <line x1="146.0" y1="153.7" x2="142.9" y2="163.4"/>
  <line x1="86.2" y1="22.2" x2="92.0" y2="14.6"/>
  <line x1="5.1" y1="162.9" x2="0.0" y2="160.0"/>
  <line x1="96.9" y1="152.7" x2="105.7" y2="145.2"/>
  <line x1="174.4" y1="76.8" x2="174.4" y2="82.1"/>
  <line x1="93.8" y1="184.2" x2="105.7" y2="194.6"/>
  <line x1="36.8" y1="173.1" x2="37.8" y2="187.3"/>
  <line x1="118.1" y1="88.1" x2="126.4" y2="77.0"/>
  <line x1="195.5" y1="4.8" x2="197.4" y2="14.5"/>
  <line x1="52.5" y1="104.4" x2="51.7" y2="114.3"/>
  <line x1="138.3" y1="13.1" x2="146.0" y2="3.3"/>
  <line x1="71.9" y1="34.3" x2="73.8" y2="43.6"/>
  <line x1="143.2" y1="142.8" x2="152.6" y2="138.1"/>
  <line x1="163.7" y1="72.1" x2="172.2" y2="67.7"/>
  <line x1="144.6" y1="187.6" x2="155.7" y2="193.7"/>
  <line x1="25.1" y1="182.8" x2="37.8" y2="187.3"/>
  <line x1="164.6" y1="83.3" x2="174.4" y2="76.8"/>
  <line x1="46.0" y1="113.5" x2="51.7" y2="114.3"/>
  <line x1="135.9" y1="197.3" x2="130.0" y2="200.0"/>
  <line x1="64.2" y1="44.6" x2="73.8" y2="43.6"/>
  <line x1="4.3" y1="175.7" x2="5.8" y2="182.3"/>
  <line x1="7.0" y1="58.2" x2="0.0" y2="60.0"/>
  <line x1="146.0" y1="3.3" x2="140.0" y2="0.0"/>
  <line x1="73.8" y1="174.5" x2="84.6" y2="175.6"/>
  <line x1="108.3" y1="14.2" x2="117.2" y2="7.9"/>
  <line x1="66.5" y1="195.8" x2="77.8" y2="192.7"/>
  <line x1="95.3" y1="103.2" x2="104.6" y2="102.8"/>
  <line x1="117.1" y1="144.6" x2="123.4" y2="136.3"/>
  <line x1="83.9" y1="127.7" x2="95.4" y2="125.3"/>
  <line x1="104.1" y1="55.1" x2="111.8" y2="64.5"/>
  <line x1="48.0" y1="45.6" x2="44.2" y2="53.4"/>
  <line x1="114.6" y1="33.2" x2="122.1" y2="37.1"/>
  <line x1="52.2" y1="172.2" x2="53.8" y2="187.0"/>
  <line x1="123.0" y1="164.8" x2="133.3" y2="164.5"/>
  <line x1="196.7" y1="154.7" x2="200.0" y2="150.0"/>
  <line x1="131.8" y1="3.2" x2="130.0" y2="0.0"/>
  <line x1="40.0" y1="0.0" x2="50.0" y2="0.0"/>
  <line x1="125.3" y1="175.9" x2="133.1" y2="178.0"/>
  <line x1="76.3" y1="108.0" x2="73.5" y2="115.9"/>
  <line x1="143.2" y1="97.9" x2="153.4" y2="95.5"/>
  <line x1="0.0" y1="0.0" x2="0.0" y2="10.0"/>
  <line x1="17.4" y1="4.4" x2="23.0" y2="15.3"/>
  <line x1="16.9" y1="114.4" x2="26.3" y2="103.5"/>
  <line x1="110.0" y1="200.0" x2="120.0" y2="200.0"/>
  <line x1="2.5" y1="25.0" x2="12.8" y2="33.2"/>
  <line x1="145.8" y1="101.7" x2="153.4" y2="107.4"/>
  <line x1="96.1" y1="35.7" x2="93.4" y2="42.2"/>
  <line x1="13.2" y1="145.8" x2="0.0" y2="150.0"/>
  <line x1="200.0" y1="200.0" x2="200.0" y2="190.0"/>
  <line x1="82.6" y1="56.9" x2="85.5" y2="67.5"/>
  <line x1="24.7" y1="135.0" x2="34.7" y2="143.4"/>
  <line x1="17.6" y1="122.9" x2="24.4" y2="118.2"/>
  <line x1="36.2" y1="41.8" x2="44.0" y2="37.2"/>
  <line x1="167.6" y1="37.8" x2="176.3" y2="34.0"/>
  <line x1="107.9" y1="168.0" x2="103.2" y2="172.1"/>
  <line x1="93.8" y1="184.2" x2="93.3" y2="197.2"/>
  <line x1="171.7" y1="168.0" x2="185.8" y2="166.3"/>
  <line x1="37.4" y1="83.4" x2="42.6" y2="92.2"/>
  <line x1="122.0" y1="97.7" x2="125.0" y2="103.8"/>
  <line x1="186.4" y1="114.6" x2="195.2" y2="125.0"/>
  <line x1="47.7" y1="185.9" x2="52.2" y2="172.2"/>
  <line x1="145.9" y1="27.1" x2="148.3" y2="33.7"/>
  <line x1="148.3" y1="33.7" x2="145.1" y2="45.7"/>
  <line x1="156.0" y1="152.7" x2="155.3" y2="162.6"/>
  <line x1="155.3" y1="162.6" x2="157.0" y2="177.1"/>
  <line x1="97.1" y1="67.1" x2="106.0" y2="74.5"/>
  <line x1="116.6" y1="106.7" x2="125.0" y2="103.8"/>
  <line x1="171.9" y1="96.6" x2="174.7" y2="107.2"/>
  <line x1="138.1" y1="33.0" x2="148.3" y2="33.7"/>
  <line x1="198.3" y1="24.7" x2="192.2" y2="33.3"/>
  <line x1="158.1" y1="3.8" x2="150.0" y2="0.0"/>
  <line x1="142.9" y1="163.4" x2="155.3" y2="162.6"/>
  <line x1="150.0" y1="0.0" x2="160.0" y2="0.0"/>
  <line x1="147.1" y1="176.9" x2="157.0" y2="177.1"/>
  <line x1="167.0" y1="93.6" x2="171.9" y2="96.6"/>
  <line x1="13.8" y1="74.5" x2="27.4" y2="74.7"/>
  <line x1="37.4" y1="113.7" x2="42.3" y2="102.9"/>
  <line x1="162.2" y1="106.4" x2="174.7" y2="107.2"/>
  <line x1="186.4" y1="22.8" x2="198.3" y2="24.7"/>
  <line x1="36.4" y1="8.2" x2="44.0" y2="3.0"/>
  <line x1="57.6" y1="44.8" x2="65.2" y2="36.2"/>
  <line x1="183.9" y1="34.8" x2="192.2" y2="33.3"/>
  <line x1="44.8" y1="135.9" x2="56.0" y2="133.2"/>
  <line x1="53.6" y1="82.6" x2="62.2" y2="93.9"/>
  <line x1="63.0" y1="66.6" x2="71.8" y2="66.1"/>
  <line x1="82.9" y1="102.9" x2="93.3" y2="94.7"/>
  <line x1="164.1" y1="24.9" x2="167.6" y2="37.8"/>
  <line x1="17.4" y1="4.4" x2="17.7" y2="15.5"/>
  <line x1="22.7" y1="122.6" x2="24.7" y2="135.0"/>
  <line x1="95.4" y1="125.3" x2="106.7" y2="133.7"/>
  <line x1="86.7" y1="114.3" x2="95.3" y2="103.2"/>
  <line x1="176.5" y1="152.3" x2="171.7" y2="168.0"/>
  <line x1="155.7" y1="193.7" x2="160.0" y2="200.0"/>
  <line x1="24.7" y1="135.0" x2="25.0" y2="143.8"/>
  <line x1="91.9" y1="134.6" x2="106.7" y2="133.7"/>
  <line x1="44.3" y1="64.9" x2="41.9" y2="73.8"/>
  <line x1="138.2" y1="93.5" x2="148.2" y2="85.0"/>
  <line x1="196.7" y1="97.8" x2="195.3" y2="108.2"/>
  <line x1="6.9" y1="7.4" x2="17.4" y2="4.4"/>
  <line x1="136.2" y1="108.1" x2="143.2" y2="97.9"/>
  <line x1="50.0" y1="0.0" x2="60.0" y2="0.0"/>
  <line x1="11.9" y1="133.6" x2="24.7" y2="135.0"/>
  <line x1="195.9" y1="193.2" x2="190.0" y2="200.0"/>
  <line x1="77.7" y1="127.0" x2="75.4" y2="138.3"/>
  <line x1="50.0" y1="200.0" x2="60.0" y2="200.0"/>
  <line x1="154.0" y1="38.0" x2="164.1" y2="24.9"/>
  <line x1="18.1" y1="26.1" x2="21.8" y2="31.9"/>
  <line x1="7.5" y1="12.2" x2="17.4" y2="4.4"/>
  <line x1="13.2" y1="145.8" x2="25.0" y2="143.8"/>
  <line x1="38.0" y1="65.3" x2="44.3" y2="64.9"/>
  <line x1="95.8" y1="57.5" x2="97.1" y2="67.1"/>
  <line x1="164.2" y1="56.3" x2="172.2" y2="67.7"/>
  <line x1="0.0" y1="20.0" x2="0.0" y2="30.0"/>
  <line x1="24.5" y1="153.7" x2="33.8" y2="163.6"/>
  <line x1="33.5" y1="73.1" x2="41.9" y2="73.8"/>
  <line x1="97.1" y1="67.1" x2="94.7" y2="77.8"/>
  <line x1="105.1" y1="184.3" x2="105.7" y2="194.6"/>
  <line x1="200.0" y1="180.0" x2="200.0" y2="190.0"/>
  <line x1="187.4" y1="94.1" x2="195.5" y2="81.9"/>
  <line x1="54.1" y1="7.1" x2="67.8" y2="5.9"/>
  <line x1="62.9" y1="127.5" x2="77.7" y2="127.0"/>
  <line x1="66.0" y1="132.2" x2="75.4" y2="138.3"/>
  <line x1="127.4" y1="122.8" x2="123.4" y2="136.3"/>
  <line x1="63.6" y1="25.1" x2="71.9" y2="34.3"/>
  <line x1="85.5" y1="67.5" x2="97.1" y2="67.1"/>
  <line x1="146.9" y1="56.2" x2="147.7" y2="64.3"/>
  <line x1="117.2" y1="7.9" x2="110.0" y2="0.0"/>
  <line x1="176.1" y1="191.8" x2="180.0" y2="200.0"/>
  <line x1="93.3" y1="197.2" x2="105.7" y2="194.6"/>
  <line x1="42.6" y1="125.6" x2="44.8" y2="135.9"/>
  <line x1="107.5" y1="2.4" x2="117.2" y2="7.9"/>
  <line x1="114.5" y1="122.5" x2="127.4" y2="122.8"/>
  <line x1="64.9" y1="52.5" x2="63.0" y2="66.6"/>
  <line x1="117.5" y1="132.6" x2="123.4" y2="136.3"/>
  <line x1="132.4" y1="58.2" x2="146.9" y2="56.2"/>
  <line x1="75.2" y1="182.3" x2="77.8" y2="192.7"/>
  <line x1="80.0" y1="200.0" x2="90.0" y2="200.0"/>
  <line x1="7.7" y1="72.0" x2="12.6" y2="67.7"/>
  <line x1="137.8" y1="62.0" x2="147.7" y2="64.3"/>
  <line x1="144.6" y1="187.6" x2="157.6" y2="185.4"/>
  <line x1="90.0" y1="0.0" x2="100.0" y2="0.0"/>
  <line x1="0.0" y1="50.0" x2="0.0" y2="60.0"/>
  <line x1="144.4" y1="197.6" x2="155.7" y2="193.7"/>
  <line x1="95.4" y1="125.3" x2="91.9" y2="134.6"/>
  <line x1="163.9" y1="114.4" x2="173.4" y2="116.2"/>
  <line x1="200.0" y1="50.0" x2="200.0" y2="60.0"/>
  <line x1="171.7" y1="6.9" x2="180.0" y2="0.0"/>
  <line x1="37.4" y1="134.1" x2="42.6" y2="125.6"/>
  <line x1="167.8" y1="127.0" x2="172.9" y2="127.0"/>
  <line x1="116.8" y1="55.0" x2="111.8" y2="64.5"/>
  <line x1="182.0" y1="46.8" x2="196.6" y2="48.0"/>
  <line x1="46.2" y1="156.4" x2="52.2" y2="164.7"/>
  <line x1="111.8" y1="64.5" x2="111.7" y2="73.6"/>
  <line x1="186.0" y1="56.7" x2="196.8" y2="53.6"/>
  <line x1="8.2" y1="93.0" x2="0.0" y2="90.0"/>
  <line x1="126.1" y1="184.2" x2="122.5" y2="197.7"/>
  <line x1="45.0" y1="164.0" x2="52.2" y2="172.2"/>
  <line x1="2.3" y1="64.9" x2="0.0" y2="60.0"/>
  <line x1="65.6" y1="83.8" x2="75.3" y2="98.3"/>
  <line x1="54.5" y1="73.3" x2="63.0" y2="66.6"/>
  <line x1="143.3" y1="114.8" x2="142.5" y2="122.5"/>
  <line x1="104.1" y1="55.1" x2="116.8" y2="55.0"/>
  <line x1="142.5" y1="122.5" x2="146.2" y2="131.9"/>
  <line x1="166.0" y1="46.6" x2="164.2" y2="56.3"/>
  <line x1="18.1" y1="26.1" x2="12.8" y2="33.2"/>
  <line x1="5.1" y1="162.9" x2="0.0" y2="170.0"/>
  <line x1="164.2" y1="56.3" x2="162.6" y2="62.7"/>
  <line x1="173.7" y1="173.6" x2="177.1" y2="185.9"/>
  <line x1="24.5" y1="153.7" x2="26.7" y2="167.9"/>
  <line x1="177.1" y1="185.9" x2="176.1" y2="191.8"/>
  <line x1="195.3" y1="108.2" x2="191.8" y2="114.3"/>
  <line x1="125.3" y1="175.9" x2="133.3" y2="164.5"/>
  <line x1="118.1" y1="88.1" x2="122.0" y2="97.7"/>
  <line x1="77.8" y1="192.7" x2="70.0" y2="200.0"/>
  <line x1="131.8" y1="124.4" x2="142.5" y2="122.5"/>
  <line x1="191.8" y1="114.3" x2="195.2" y2="125.0"/>
  <line x1="2.5" y1="25.0" x2="18.1" y2="26.1"/>
  <line x1="138.3" y1="13.1" x2="145.9" y2="27.1"/>
  <line x1="156.4" y1="56.9" x2="164.2" y2="56.3"/>
  <line x1="4.6" y1="34.7" x2="12.8" y2="33.2"/>
  <line x1="14.0" y1="157.1" x2="24.5" y2="153.7"/>
  <line x1="163.1" y1="183.6" x2="177.1" y2="185.9"/>
  <line x1="15.2" y1="165.4" x2="26.7" y2="167.9"/>
  <line x1="37.4" y1="83.4" x2="43.2" y2="87.2"/>
  <line x1="186.4" y1="114.6" x2="191.8" y2="114.3"/>
  <line x1="32.4" y1="96.9" x2="42.6" y2="92.2"/>
  <line x1="53.3" y1="12.2" x2="66.5" y2="18.1"/>
  <line x1="66.5" y1="195.8" x2="60.0" y2="200.0"/>
  <line x1="185.4" y1="5.1" x2="197.4" y2="14.5"/>
  <line x1="56.0" y1="133.2" x2="62.9" y2="127.5"/>
  <line x1="181.7" y1="126.9" x2="195.2" y2="125.0"/>
  <line x1="57.0" y1="22.1" x2="63.6" y2="25.1"/>
  <line x1="135.9" y1="197.3" x2="140.0" y2="200.0"/>
  <line x1="71.8" y1="66.1" x2="82.6" y2="56.9"/>
  <line x1="65.2" y1="157.3" x2="77.4" y2="157.6"/>
  <line x1="12.4" y1="87.6" x2="16.0" y2="94.7"/>
  <line x1="84.4" y1="196.4" x2="93.8" y2="184.2"/>
  <line x1="16.0" y1="94.7" x2="14.8" y2="105.5"/>
  <line x1="195.5" y1="81.9" x2="200.0" y2="80.0"/>
  <line x1="84.4" y1="84.0" x2="95.5" y2="83.4"/>
  <line x1="33.8" y1="14.7" x2="33.5" y2="25.6"/>
  <line x1="33.5" y1="25.6" x2="34.7" y2="32.1"/>
  <line x1="46.0" y1="144.9" x2="46.2" y2="156.4"/>
  <line x1="117.1" y1="144.6" x2="122.7" y2="153.2"/>
  <line x1="192.4" y1="176.9" x2="196.2" y2="186.7"/>
  <line x1="46.2" y1="156.4" x2="45.0" y2="164.0"/>
  <line x1="63.8" y1="75.9" x2="65.6" y2="83.8"/>
  <line x1="126.5" y1="67.4" x2="132.4" y2="58.2"/>
  <line x1="196.7" y1="154.7" x2="200.0" y2="160.0"/>
  <line x1="147.1" y1="176.9" x2="155.3" y2="162.6"/>
  <line x1="131.8" y1="3.2" x2="140.0" y2="0.0"/>
  <line x1="116.8" y1="154.2" x2="122.7" y2="153.2"/>
  <line x1="65.6" y1="83.8" x2="62.2" y2="93.9"/>
  <line x1="8.2" y1="93.0" x2="16.0" y2="94.7"/>
  <line x1="87.1" y1="6.7" x2="83.8" y2="14.2"/>
  <line x1="158.1" y1="3.8" x2="161.7" y2="17.1"/>
  <line x1="135.9" y1="197.3" x2="144.6" y2="187.6"/>
  <line x1="90.0" y1="200.0" x2="100.0" y2="200.0"/>
  <line x1="22.1" y1="22.1" x2="33.5" y2="25.6"/>
  <line x1="162.2" y1="106.4" x2="171.9" y2="96.6"/>
  <line x1="137.6" y1="85.5" x2="148.2" y2="85.0"/>
  <line x1="83.8" y1="14.2" x2="86.2" y2="22.2"/>
  <line x1="166.2" y1="135.0" x2="173.3" y2="146.3"/>
  <line x1="100.0" y1="0.0" x2="110.0" y2="0.0"/>
  <line x1="156.5" y1="125.4" x2="163.9" y2="114.4"/>
  <line x1="0.0" y1="60.0" x2="0.0" y2="70.0"/>
  <line x1="33.7" y1="153.9" x2="46.2" y2="156.4"/>
  <line x1="94.2" y1="142.3" x2="96.9" y2="152.7"/>
  <line x1="200.0" y1="60.0" x2="200.0" y2="70.0"/>
  <line x1="172.0" y1="54.3" x2="182.0" y2="46.8"/>
  <line x1="166.4" y1="193.2" x2="160.0" y2="200.0"/>
  <line x1="36.2" y1="41.8" x2="44.2" y2="53.4"/>
  <line x1="53.6" y1="82.6" x2="65.6" y2="83.8"/>
  <line x1="111.7" y1="73.6" x2="118.1" y2="88.1"/>
  <line x1="182.0" y1="73.8" x2="195.5" y2="81.9"/>
  <line x1="84.4" y1="196.4" x2="80.0" y2="200.0"/>
  <line x1="182.1" y1="184.8" x2="192.4" y2="176.9"/>
  <line x1="52.2" y1="97.4" x2="62.2" y2="93.9"/>
  <line x1="97.8" y1="5.7" x2="90.0" y2="0.0"/>
  <line x1="131.8" y1="3.2" x2="138.3" y2="13.1"/>
  <line x1="73.1" y1="23.0" x2="86.2" y2="22.2"/>
  <line x1="138.3" y1="13.1" x2="134.0" y2="25.7"/>
  <line x1="146.2" y1="131.9" x2="143.2" y2="142.8"/>
  <line x1="2.3" y1="145.1" x2="0.0" y2="150.0"/>
  <line x1="87.3" y1="157.5" x2="96.9" y2="152.7"/>
  <line x1="143.2" y1="142.8" x2="146.0" y2="153.7"/>
  <line x1="104.2" y1="84.2" x2="118.1" y2="88.1"/>
  <line x1="5.8" y1="182.3" x2="0.0" y2="180.0"/>
  <line x1="163.7" y1="72.1" x2="164.6" y2="83.3"/>
  <line x1="97.3" y1="171.9" x2="105.1" y2="184.3"/>
  <line x1="87.1" y1="6.7" x2="80.0" y2="0.0"/>
  <line x1="123.2" y1="13.4" x2="138.3" y2="13.1"/>
  <line x1="62.6" y1="144.5" x2="65.2" y2="157.3"/>
  <line x1="185.4" y1="5.1" x2="182.4" y2="14.2"/>
  <line x1="7.4" y1="45.7" x2="16.8" y2="52.2"/>
  <line x1="134.8" y1="146.1" x2="143.2" y2="142.8"/>
  <line x1="158.1" y1="3.8" x2="160.0" y2="0.0"/>
  <line x1="13.2" y1="145.8" x2="24.7" y2="135.0"/>
  <line x1="130.0" y1="0.0" x2="140.0" y2="0.0"/>
  <line x1="18.1" y1="177.0" x2="25.1" y2="182.8"/>
  <line x1="158.2" y1="77.6" x2="163.7" y2="72.1"/>
  <line x1="200.0" y1="90.0" x2="200.0" y2="100.0"/>
  <line x1="7.0" y1="58.2" x2="16.8" y2="52.2"/>
  <line x1="108.3" y1="14.2" x2="107.4" y2="25.7"/>
  <line x1="171.7" y1="6.9" x2="185.4" y2="5.1"/>
  <line x1="37.4" y1="113.7" x2="42.6" y2="125.6"/>
  <line x1="117.1" y1="144.6" x2="116.8" y2="154.2"/>
  <line x1="195.5" y1="4.8" x2="190.0" y2="0.0"/>
  <line x1="57.6" y1="44.8" x2="64.9" y2="52.5"/>
  <line x1="55.1" y1="156.5" x2="62.6" y2="144.5"/>
  <line x1="182.4" y1="146.9" x2="198.2" y2="142.1"/>
  <line x1="63.6" y1="25.1" x2="73.1" y2="23.0"/>
  <line x1="134.8" y1="76.4" x2="137.6" y2="85.5"/>
  <line x1="67.3" y1="176.3" x2="75.2" y2="182.3"/>
  <line x1="158.1" y1="3.8" x2="154.0" y2="17.3"/>
  <line x1="87.7" y1="75.0" x2="97.1" y2="67.1"/>
  <line x1="14.8" y1="105.5" x2="16.9" y2="114.4"/>
  <line x1="166.2" y1="135.0" x2="164.3" y2="142.7"/>
  <line x1="16.9" y1="114.4" x2="17.6" y2="122.9"/>
  <line x1="86.7" y1="114.3" x2="95.4" y2="125.3"/>
  <line x1="105.7" y1="37.9" x2="117.1" y2="42.5"/>
  <line x1="185.4" y1="5.1" x2="180.0" y2="0.0"/>
  <line x1="117.5" y1="132.6" x2="127.4" y2="122.8"/>
  <line x1="36.2" y1="41.8" x2="32.2" y2="54.7"/>
  <line x1="108.1" y1="48.2" x2="116.8" y2="55.0"/>
  <line x1="117.0" y1="166.8" x2="125.3" y2="175.9"/>
  <line x1="137.8" y1="62.0" x2="146.9" y2="56.2"/>
  <line x1="46.1" y1="174.8" x2="47.7" y2="185.9"/>
  <line x1="77.8" y1="86.2" x2="75.3" y2="98.3"/>
  <line x1="5.5" y1="114.0" x2="16.9" y2="114.4"/>
  <line x1="136.2" y1="108.1" x2="143.3" y2="114.8"/>
  <line x1="44.4" y1="195.2" x2="40.0" y2="200.0"/>
  <line x1="195.9" y1="193.2" x2="200.0" y2="200.0"/>
  <line x1="24.6" y1="48.1" x2="36.2" y2="41.8"/>
  <line x1="167.8" y1="127.0" x2="173.4" y2="116.2"/>
  <line x1="186.0" y1="56.7" x2="196.6" y2="48.0"/>
  <line x1="45.0" y1="164.0" x2="52.2" y2="164.7"/>
  <line x1="37.8" y1="187.3" x2="47.7" y2="185.9"/>
  <line x1="62.2" y1="93.9" x2="75.3" y2="98.3"/>
  <line x1="51.7" y1="114.3" x2="61.9" y2="115.2"/>
  <line x1="7.4" y1="45.7" x2="7.0" y2="58.2"/>
  <line x1="86.2" y1="22.2" x2="95.9" y2="28.3"/>
  <line x1="73.8" y1="43.6" x2="81.9" y2="41.7"/>
  <line x1="18.1" y1="177.0" x2="13.7" y2="181.9"/>
  <line x1="96.9" y1="152.7" x2="104.5" y2="154.9"/>
  <line x1="4.3" y1="175.7" x2="0.0" y2="170.0"/>
  <line x1="84.6" y1="175.6" x2="97.3" y2="171.9"/>
  <line x1="33.3" y1="104.3" x2="37.4" y2="113.7"/>
  <line x1="117.2" y1="7.9" x2="120.0" y2="0.0"/>
  <line x1="118.1" y1="88.1" x2="126.4" y2="84.5"/>
  <line x1="104.6" y1="102.8" x2="116.6" y2="106.7"/>
  <line x1="122.1" y1="37.1" x2="138.1" y2="33.0"/>
  <line x1="77.4" y1="157.6" x2="75.7" y2="166.1"/>
  <line x1="144.4" y1="197.6" x2="140.0" y2="200.0"/>
  <line x1="67.3" y1="176.3" x2="66.1" y2="184.6"/>
  <line x1="15.2" y1="165.4" x2="24.5" y2="153.7"/>
  <line x1="140.0" y1="0.0" x2="150.0" y2="0.0"/>
  <line x1="95.5" y1="83.4" x2="93.3" y2="94.7"/>
  <line x1="82.9" y1="102.9" x2="86.7" y2="114.3"/>
  <line x1="200.0" y1="100.0" x2="200.0" y2="110.0"/>
  <line x1="164.6" y1="83.3" x2="174.4" y2="82.1"/>
  <line x1="27.0" y1="2.3" x2="33.8" y2="14.7"/>
  <line x1="113.5" y1="17.8" x2="114.3" y2="26.2"/>
  <line x1="105.7" y1="37.9" x2="108.1" y2="48.2"/>
  <line x1="176.3" y1="34.0" x2="182.0" y2="46.8"/>
  <line x1="57.0" y1="22.1" x2="66.5" y2="18.1"/>
  <line x1="182.4" y1="14.2" x2="197.4" y2="14.5"/>
  <line x1="126.2" y1="142.6" x2="122.7" y2="153.2"/>
  <line x1="117.0" y1="166.8" x2="115.4" y2="173.8"/>
  <line x1="185.8" y1="166.3" x2="192.4" y2="176.9"/>
  <line x1="52.3" y1="32.5" x2="63.6" y2="25.1"/>
  <line x1="65.2" y1="157.3" x2="73.7" y2="144.9"/>
  <line x1="8.2" y1="93.0" x2="0.0" y2="100.0"/>
  <line x1="138.2" y1="93.5" x2="136.2" y2="108.1"/>
  <line x1="2.3" y1="64.9" x2="0.0" y2="70.0"/>
  <line x1="67.8" y1="5.9" x2="60.0" y2="0.0"/>
  <line x1="161.7" y1="17.1" x2="164.1" y2="24.9"/>
  <line x1="83.9" y1="127.7" x2="91.9" y2="134.6"/>
  <line x1="24.4" y1="118.2" x2="22.7" y2="122.6"/>
  <line x1="107.4" y1="25.7" x2="113.5" y2="17.8"/>
  <line x1="173.3" y1="146.3" x2="176.5" y2="152.3"/>
  <line x1="103.2" y1="172.1" x2="115.4" y2="173.8"/>
  <line x1="195.2" y1="125.0" x2="200.0" y2="130.0"/>
  <line x1="105.4" y1="64.0" x2="111.7" y2="73.6"/>
  <line x1="196.3" y1="74.5" x2="195.5" y2="81.9"/>
  <line x1="125.0" y1="103.8" x2="136.2" y2="108.1"/>
  <line x1="195.0" y1="161.7" x2="200.0" y2="160.0"/>
  <line x1="138.3" y1="13.1" x2="140.0" y2="0.0"/>
  <line x1="137.6" y1="85.5" x2="146.0" y2="76.5"/>
  <line x1="154.0" y1="17.3" x2="161.7" y2="17.1"/>
  <line x1="164.3" y1="142.7" x2="173.3" y2="146.3"/>
  <line x1="17.6" y1="122.9" x2="22.7" y2="122.6"/>
  <line x1="167.6" y1="37.8" x2="172.2" y2="43.1"/>
  <line x1="0.0" y1="140.0" x2="0.0" y2="150.0"/>
  <line x1="154.7" y1="23.9" x2="161.7" y2="17.1"/>
  <line x1="182.0" y1="73.8" x2="196.3" y2="74.5"/>
  <line x1="32.2" y1="54.7" x2="44.2" y2="53.4"/>
  <line x1="171.7" y1="168.0" x2="182.4" y2="174.2"/>
  <line x1="168.2" y1="154.2" x2="173.3" y2="146.3"/>
  <line x1="182.5" y1="83.4" x2="195.5" y2="81.9"/>
  <line x1="47.7" y1="185.9" x2="53.8" y2="187.0"/>
  <line x1="73.1" y1="23.0" x2="83.8" y2="14.2"/>
  <line x1="66.5" y1="195.8" x2="70.0" y2="200.0"/>
  <line x1="56.0" y1="133.2" x2="62.6" y2="144.5"/>
  <line x1="61.9" y1="115.2" x2="73.5" y2="115.9"/>
  <line x1="164.6" y1="7.7" x2="160.0" y2="0.0"/>
  <line x1="81.9" y1="41.7" x2="93.4" y2="42.2"/>
  <line x1="8.1" y1="158.0" x2="0.0" y2="150.0"/>
  <line x1="104.2" y1="84.2" x2="111.7" y2="73.6"/>
  <line x1="25.1" y1="182.8" x2="28.0" y2="197.1"/>
  <line x1="97.3" y1="171.9" x2="103.2" y2="172.1"/>
  <line x1="106.0" y1="97.8" x2="118.1" y2="88.1"/>
  <line x1="195.5" y1="81.9" x2="200.0" y2="90.0"/>
  <line x1="123.2" y1="13.4" x2="131.8" y2="3.2"/>
  <line x1="105.7" y1="194.6" x2="100.0" y2="200.0"/>
  <line x1="196.8" y1="138.1" x2="198.2" y2="142.1"/>
  <line x1="46.0" y1="113.5" x2="42.6" y2="125.6"/>
  <line x1="28.0" y1="197.1" x2="20.0" y2="200.0"/>
  <line x1="115.3" y1="115.9" x2="127.9" y2="114.7"/>
  <line x1="64.2" y1="44.6" x2="64.9" y2="52.5"/>
  <line x1="138.2" y1="151.9" x2="143.2" y2="142.8"/>
  <line x1="13.7" y1="181.9" x2="25.1" y2="182.8"/>
  <line x1="135.1" y1="46.5" x2="145.1" y2="45.7"/>
  <line x1="73.8" y1="174.5" x2="75.2" y2="182.3"/>
  <line x1="147.1" y1="176.9" x2="157.6" y2="185.4"/>
  <line x1="13.8" y1="74.5" x2="21.9" y2="81.9"/>
  <line x1="37.4" y1="113.7" x2="46.0" y2="113.5"/>
  <line x1="95.3" y1="103.2" x2="95.9" y2="113.1"/>
  <line x1="83.9" y1="127.7" x2="82.2" y2="131.7"/>
  <line x1="36.4" y1="8.2" x2="47.2" y2="11.9"/>
  <line x1="17.0" y1="196.1" x2="25.1" y2="182.8"/>
  <line x1="114.6" y1="33.2" x2="117.1" y2="42.5"/>
  <line x1="176.7" y1="26.3" x2="182.4" y2="14.2"/>
  <line x1="182.4" y1="146.9" x2="196.8" y2="138.1"/>
  <line x1="166.4" y1="193.2" x2="170.0" y2="200.0"/>
  <line x1="56.9" y1="54.4" x2="64.9" y2="52.5"/>
  <line x1="7.7" y1="72.0" x2="0.0" y2="80.0"/>
  <line x1="27.0" y1="2.3" x2="20.0" y2="0.0"/>
  <line x1="123.0" y1="164.8" x2="125.3" y2="175.9"/>
  <line x1="187.7" y1="155.7" x2="198.2" y2="142.1"/>
  <line x1="84.4" y1="196.4" x2="90.0" y2="200.0"/>
  <line x1="66.1" y1="184.6" x2="75.2" y2="182.3"/>
  <line x1="185.8" y1="166.3" x2="200.0" y2="170.0"/>
  <line x1="125.3" y1="175.9" x2="126.1" y2="184.2"/>
  <line x1="143.2" y1="97.9" x2="145.8" y2="101.7"/>
  <line x1="97.8" y1="5.7" x2="100.0" y2="0.0"/>
  <line x1="5.5" y1="114.0" x2="0.0" y2="110.0"/>
  <line x1="86.7" y1="114.3" x2="95.9" y2="113.1"/>
  <line x1="145.8" y1="101.7" x2="143.3" y2="114.8"/>
  <line x1="108.1" y1="48.2" x2="117.1" y2="42.5"/>
  <line x1="167.6" y1="37.8" x2="166.0" y2="46.6"/>
  <line x1="122.5" y1="197.7" x2="120.0" y2="200.0"/>
  <line x1="115.4" y1="173.8" x2="125.3" y2="175.9"/>
  <line x1="171.7" y1="168.0" x2="173.7" y2="173.6"/>
  <line x1="5.8" y1="182.3" x2="0.0" y2="190.0"/>
  <line x1="198.2" y1="142.1" x2="200.0" y2="140.0"/>
  <line x1="114.5" y1="185.8" x2="126.1" y2="184.2"/>
  <line x1="136.2" y1="108.1" x2="145.8" y2="101.7"/>
  <line x1="87.1" y1="6.7" x2="90.0" y2="0.0"/>
  <line x1="110.0" y1="0.0" x2="120.0" y2="0.0"/>
  <line x1="20.0" y1="0.0" x2="30.0" y2="0.0"/>
  <line x1="137.8" y1="115.9" x2="143.3" y2="114.8"/>
  <line x1="154.0" y1="38.0" x2="167.6" y2="37.8"/>
  <line x1="200.0" y1="70.0" x2="200.0" y2="80.0"/>
  <line x1="7.5" y1="12.2" x2="17.7" y2="15.5"/>
  <line x1="13.2" y1="145.8" x2="24.5" y2="153.7"/>
  <line x1="155.4" y1="41.8" x2="166.0" y2="46.6"/>
  <line x1="163.8" y1="167.5" x2="171.7" y2="168.0"/>
  <line x1="113.2" y1="197.0" x2="110.0" y2="200.0"/>
  <line x1="23.9" y1="67.3" x2="32.2" y2="54.7"/>
  <line x1="37.8" y1="187.3" x2="46.1" y2="174.8"/>
  <line x1="163.3" y1="173.4" x2="173.7" y2="173.6"/>
  <line x1="116.6" y1="106.7" x2="115.3" y2="115.9"/>
  <line x1="187.4" y1="94.1" x2="196.7" y2="97.8"/>
  <line x1="124.0" y1="2.0" x2="120.0" y2="0.0"/>
  <line x1="42.5" y1="26.9" x2="52.3" y2="32.5"/>
  <line x1="187.5" y1="105.8" x2="195.3" y2="108.2"/>
  <line x1="138.1" y1="33.0" x2="135.1" y2="46.5"/>
  <line x1="195.5" y1="4.8" x2="200.0" y2="0.0"/>
  <line x1="55.8" y1="127.7" x2="61.9" y2="115.2"/>
  <line x1="55.1" y1="156.5" x2="65.2" y2="166.6"/>
  <line x1="142.9" y1="163.4" x2="147.1" y2="176.9"/>
  <line x1="12.6" y1="67.7" x2="13.8" y2="74.5"/>
  <line x1="73.6" y1="52.0" x2="81.9" y2="41.7"/>
  <line x1="147.1" y1="176.9" x2="144.6" y2="187.6"/>
  <line x1="167.0" y1="93.6" x2="162.2" y2="106.4"/>
  <line x1="13.8" y1="74.5" x2="12.4" y2="87.6"/>
  <line x1="193.3" y1="62.5" x2="200.0" y2="70.0"/>
  <line x1="162.2" y1="106.4" x2="163.9" y2="114.4"/>
  <line x1="186.4" y1="22.8" x2="183.9" y2="34.8"/>
  <line x1="53.8" y1="187.0" x2="50.0" y2="200.0"/>
  <line x1="36.4" y1="8.2" x2="33.8" y2="14.7"/>
  <line x1="103.0" y1="114.4" x2="116.6" y2="106.7"/>
  <line x1="195.3" y1="108.2" x2="200.0" y2="100.0"/>
  <line x1="122.1" y1="37.1" x2="134.0" y2="25.7"/>
  <line x1="183.9" y1="34.8" x2="182.0" y2="46.8"/>
  <line x1="196.7" y1="154.7" x2="195.0" y2="161.7"/>
  <line x1="185.4" y1="5.1" x2="190.0" y2="0.0"/>
  <line x1="44.8" y1="135.9" x2="46.0" y2="144.9"/>
  <line x1="126.1" y1="184.2" x2="130.0" y2="200.0"/>
  <line x1="7.7" y1="72.0" x2="13.8" y2="74.5"/>
  <line x1="63.0" y1="66.6" x2="63.8" y2="75.9"/>
  <line x1="137.8" y1="62.0" x2="146.0" y2="76.5"/>
  <line x1="133.1" y1="178.0" x2="142.9" y2="163.4"/>
  <line x1="4.1" y1="82.6" x2="12.4" y2="87.6"/>
  <line x1="27.0" y1="2.3" x2="36.4" y2="8.2"/>
  <line x1="176.3" y1="34.0" x2="183.9" y2="34.8"/>
  <line x1="44.4" y1="195.2" x2="50.0" y2="200.0"/>
  <line x1="23.0" y1="15.3" x2="33.8" y2="14.7"/>
  <line x1="37.4" y1="134.1" x2="44.8" y2="135.9"/>
  <line x1="185.8" y1="166.3" x2="195.0" y2="161.7"/>
  <line x1="34.7" y1="143.4" x2="46.0" y2="144.9"/>
  <line x1="52.7" y1="65.6" x2="63.0" y2="66.6"/>
  <line x1="91.9" y1="134.6" x2="94.2" y2="142.3"/>
  <line x1="186.0" y1="56.7" x2="193.3" y2="62.5"/>
  <line x1="54.5" y1="73.3" x2="63.8" y2="75.9"/>
  <line x1="6.9" y1="7.4" x2="7.5" y2="12.2"/>
  <line x1="187.6" y1="65.9" x2="196.3" y2="74.5"/>
  <line x1="77.0" y1="7.2" x2="87.1" y2="6.7"/>
  <line x1="11.9" y1="133.6" x2="13.2" y2="145.8"/>
  <line x1="93.4" y1="42.2" x2="105.7" y2="37.9"/>
  <line x1="13.2" y1="145.8" x2="14.0" y2="157.1"/>
  <line x1="82.2" y1="131.7" x2="91.9" y2="134.6"/>
  <line x1="38.0" y1="65.3" x2="33.5" y2="73.1"/>
  <line x1="85.4" y1="142.5" x2="94.2" y2="142.3"/>
  <line x1="33.5" y1="73.1" x2="37.4" y2="83.4"/>
  <line x1="4.3" y1="175.7" x2="0.0" y2="180.0"/>
  <line x1="105.4" y1="64.0" x2="111.8" y2="64.5"/>
  <line x1="125.0" y1="103.8" x2="138.2" y2="93.5"/>
  <line x1="106.0" y1="74.5" x2="111.7" y2="73.6"/>
  <line x1="54.1" y1="7.1" x2="53.3" y2="12.2"/>
  <line x1="113.2" y1="197.0" x2="122.5" y2="197.7"/>
  <line x1="62.9" y1="127.5" x2="66.0" y2="132.2"/>
  <line x1="127.9" y1="114.7" x2="136.2" y2="108.1"/>
  <line x1="124.0" y1="2.0" x2="131.8" y2="3.2"/>
  <line x1="66.0" y1="132.2" x2="62.6" y2="144.5"/>
  <line x1="156.4" y1="56.9" x2="162.6" y2="62.7"/>
  <line x1="145.1" y1="45.7" x2="154.0" y2="38.0"/>
  <line x1="120.0" y1="0.0" x2="130.0" y2="0.0"/>
  <line x1="4.6" y1="34.7" x2="12.2" y2="43.8"/>
  <line x1="2.3" y1="145.1" x2="11.9" y2="133.6"/>
  <line x1="136.3" y1="134.0" x2="146.2" y2="131.9"/>
  <line x1="144.4" y1="197.6" x2="150.0" y2="200.0"/>
  <line x1="85.5" y1="67.5" x2="87.7" y2="75.0"/>
  <line x1="120.0" y1="200.0" x2="130.0" y2="200.0"/>
  <line x1="157.0" y1="177.1" x2="163.8" y2="167.5"/>
  <line x1="200.0" y1="80.0" x2="200.0" y2="90.0"/>
  <line x1="6.9" y1="7.4" x2="0.0" y2="0.0"/>
  <line x1="157.7" y1="65.1" x2="162.6" y2="62.7"/>
  <line x1="0.0" y1="90.0" x2="0.0" y2="100.0"/>
  <line x1="174.7" y1="107.2" x2="187.4" y2="94.1"/>
  <line x1="32.4" y1="96.9" x2="42.3" y2="102.9"/>
  <line x1="56.0" y1="133.2" x2="66.0" y2="132.2"/>
  <line x1="166.4" y1="193.2" x2="176.1" y2="191.8"/>
  <line x1="114.5" y1="122.5" x2="117.5" y2="132.6"/>
  <line x1="47.2" y1="11.9" x2="54.1" y2="7.1"/>
  <line x1="71.8" y1="66.1" x2="85.5" y2="67.5"/>
  <line x1="117.5" y1="132.6" x2="117.1" y2="144.6"/>
  <line x1="132.4" y1="58.2" x2="137.8" y2="62.0"/>
  <line x1="65.2" y1="157.3" x2="75.7" y2="166.1"/>
  <line x1="84.4" y1="196.4" x2="93.3" y2="197.2"/>
  <line x1="137.8" y1="62.0" x2="134.8" y2="76.4"/>
  <line x1="144.6" y1="187.6" x2="144.4" y2="197.6"/>
  <line x1="65.2" y1="166.6" x2="73.8" y2="174.5"/>
  <line x1="84.4" y1="84.0" x2="93.3" y2="94.7"/>
  <line x1="74.7" y1="72.4" x2="85.5" y2="67.5"/>
  <line x1="97.8" y1="5.7" x2="107.5" y2="2.4"/>
  <line x1="163.9" y1="114.4" x2="167.8" y2="127.0"/>
  <line x1="67.8" y1="5.9" x2="70.0" y2="0.0"/>
  <line x1="196.7" y1="97.8" x2="200.0" y2="90.0"/>
  <line x1="106.7" y1="133.7" x2="117.5" y2="132.6"/>
  <line x1="167.8" y1="127.0" x2="166.2" y2="135.0"/>
  <line x1="182.0" y1="46.8" x2="186.0" y2="56.7"/>
  <line x1="107.4" y1="25.7" x2="114.6" y2="33.2"/>
  <line x1="126.5" y1="67.4" x2="137.8" y2="62.0"/>
  <line x1="186.0" y1="56.7" x2="187.6" y2="65.9"/>
  <line x1="8.2" y1="93.0" x2="14.8" y2="105.5"/>
  <line x1="116.8" y1="154.2" x2="123.0" y2="164.8"/>
  <line x1="93.3" y1="197.2" x2="90.0" y2="200.0"/>
  <line x1="135.9" y1="197.3" x2="144.4" y2="197.6"/>
  <line x1="196.2" y1="186.7" x2="195.9" y2="193.2"/>
  <line x1="195.0" y1="161.7" x2="200.0" y2="170.0"/>
  <line x1="107.5" y1="2.4" x2="100.0" y2="0.0"/>
  <line x1="156.5" y1="125.4" x2="167.8" y2="127.0"/>
  <line x1="104.1" y1="55.1" x2="105.4" y2="64.0"/>
  <line x1="0.0" y1="120.0" x2="0.0" y2="130.0"/>
  <line x1="3.2" y1="102.1" x2="14.8" y2="105.5"/>
  <line x1="152.6" y1="138.1" x2="166.2" y2="135.0"/>
  <line x1="172.0" y1="54.3" x2="186.0" y2="56.7"/>
  <line x1="21.8" y1="31.9" x2="34.7" y2="32.1"/>
  <line x1="41.9" y1="73.8" x2="52.7" y2="65.6"/>
  <line x1="172.2" y1="67.7" x2="187.6" y2="65.9"/>
  <line x1="182.1" y1="184.8" x2="196.2" y2="186.7"/>
  <line x1="4.1" y1="82.6" x2="0.0" y2="80.0"/>
  <line x1="33.8" y1="163.6" x2="45.0" y2="164.0"/>
  <line x1="168.2" y1="154.2" x2="171.7" y2="168.0"/>
  <line x1="186.7" y1="195.7" x2="195.9" y2="193.2"/>
  <line x1="131.8" y1="124.4" x2="136.3" y2="134.0"/>
  <line x1="2.5" y1="25.0" x2="4.6" y2="34.7"/>
  <line x1="73.1" y1="23.0" x2="88.0" y2="34.4"/>
  <line x1="156.4" y1="56.9" x2="157.7" y2="65.1"/>
  <line x1="4.6" y1="34.7" x2="7.4" y2="45.7"/>
  <line x1="14.0" y1="157.1" x2="15.2" y2="165.4"/>
  <line x1="87.3" y1="157.5" x2="92.7" y2="163.1"/>
  <line x1="164.6" y1="7.7" x2="170.0" y2="0.0"/>
  <line x1="163.1" y1="183.6" x2="166.4" y2="193.2"/>
  <line x1="8.1" y1="158.0" x2="0.0" y2="160.0"/>
  <line x1="15.2" y1="165.4" x2="18.1" y2="177.0"/>
  <line x1="87.2" y1="163.2" x2="97.3" y2="171.9"/>
  <line x1="37.4" y1="83.4" x2="32.4" y2="96.9"/>
  <line x1="186.4" y1="114.6" x2="181.7" y2="126.9"/>
  <line x1="114.5" y1="185.8" x2="125.3" y2="175.9"/>
  <line x1="32.4" y1="96.9" x2="33.3" y2="104.3"/>
  <line x1="5.8" y1="195.0" x2="0.0" y2="190.0"/>
  <line x1="106.0" y1="97.8" x2="116.6" y2="106.7"/>
  <line x1="53.3" y1="12.2" x2="57.0" y2="22.1"/>
  <line x1="123.2" y1="13.4" x2="134.0" y2="25.7"/>
  <line x1="181.7" y1="126.9" x2="185.3" y2="134.6"/>
  <line x1="57.0" y1="22.1" x2="52.3" y2="32.5"/>
  <line x1="28.0" y1="197.1" x2="30.0" y2="200.0"/>
  <line x1="123.4" y1="136.3" x2="131.8" y2="124.4"/>
  <line x1="155.4" y1="41.8" x2="167.6" y2="37.8"/>
  <line x1="5.1" y1="162.9" x2="15.2" y2="165.4"/>
  <line x1="65.2" y1="157.3" x2="65.2" y2="166.6"/>
  <line x1="138.2" y1="151.9" x2="142.9" y2="163.4"/>
  <line x1="158.2" y1="77.6" x2="164.6" y2="83.3"/>
  <line x1="147.7" y1="64.3" x2="156.4" y2="56.9"/>
  <line x1="7.0" y1="58.2" x2="12.6" y2="67.7"/>
  <line x1="4.3" y1="175.7" x2="18.1" y2="177.0"/>
  <line x1="163.3" y1="173.4" x2="171.7" y2="168.0"/>
  <line x1="23.6" y1="95.8" x2="32.4" y2="96.9"/>
  <line x1="6.9" y1="7.4" x2="0.0" y2="10.0"/>
  <line x1="84.4" y1="84.0" x2="83.7" y2="92.7"/>
  <line x1="157.2" y1="87.4" x2="167.0" y2="93.6"/>
  <line x1="171.7" y1="6.9" x2="182.4" y2="14.2"/>
  <line x1="130.0" y1="200.0" x2="140.0" y2="200.0"/>
  <line x1="26.3" y1="103.5" x2="33.3" y2="104.3"/>
  <line x1="42.5" y1="26.9" x2="57.0" y2="22.1"/>
  <line x1="187.5" y1="105.8" x2="196.7" y2="97.8"/>
  <line x1="7.4" y1="45.7" x2="0.0" y2="40.0"/>
  <line x1="7.5" y1="12.2" x2="0.0" y2="10.0"/>
  <line x1="44.0" y1="37.2" x2="52.3" y2="32.5"/>
  <line x1="55.1" y1="156.5" x2="65.2" y2="157.3"/>
  <line x1="52.2" y1="164.7" x2="65.2" y2="166.6"/>
  <line x1="8.2" y1="93.0" x2="3.2" y2="102.1"/>
  <line x1="87.7" y1="75.0" x2="94.7" y2="77.8"/>
  <line x1="75.3" y1="98.3" x2="83.7" y2="92.7"/>
  <line x1="22.1" y1="22.1" x2="21.8" y2="31.9"/>
  <line x1="137.6" y1="85.5" x2="138.2" y2="93.5"/>
  <line x1="5.5" y1="114.0" x2="0.0" y2="120.0"/>
  <line x1="196.3" y1="74.5" x2="200.0" y2="70.0"/>
  <line x1="95.9" y1="28.3" x2="107.4" y2="25.7"/>
  <line x1="33.7" y1="153.9" x2="33.8" y2="163.6"/>
  <line x1="58.0" y1="195.5" x2="50.0" y2="200.0"/>
  <line x1="104.5" y1="154.9" x2="116.8" y2="154.2"/>
  <line x1="53.6" y1="82.6" x2="52.2" y2="97.4"/>
  <line x1="122.5" y1="197.7" x2="130.0" y2="200.0"/>
  <line x1="192.4" y1="176.9" x2="200.0" y2="180.0"/>
  <line x1="52.2" y1="97.4" x2="52.5" y2="104.4"/>
  <line x1="126.4" y1="84.5" x2="137.6" y2="85.5"/>
  <line x1="4.1" y1="82.6" x2="13.8" y2="74.5"/>
  <line x1="0.0" y1="0.0" x2="10.0" y2="0.0"/>
  <line x1="198.2" y1="142.1" x2="200.0" y2="150.0"/>
  <line x1="5.5" y1="114.0" x2="17.6" y2="122.9"/>
  <line x1="73.1" y1="23.0" x2="71.9" y2="34.3"/>
  <line x1="144.8" y1="13.8" x2="154.0" y2="17.3"/>
  <line x1="160.0" y1="200.0" x2="170.0" y2="200.0"/>
  <line x1="196.2" y1="186.7" x2="200.0" y2="180.0"/>
  <line x1="7.0" y1="127.5" x2="11.9" y2="133.6"/>
  <line x1="24.6" y1="48.1" x2="32.2" y2="54.7"/>
  <line x1="87.3" y1="157.5" x2="87.2" y2="163.2"/>
  <line x1="155.6" y1="144.4" x2="164.3" y2="142.7"/>
  <line x1="34.7" y1="143.4" x2="44.8" y2="135.9"/>
  <line x1="0.0" y1="130.0" x2="0.0" y2="140.0"/>
  <line x1="104.2" y1="84.2" x2="106.0" y2="97.8"/>
  <line x1="113.2" y1="197.0" x2="120.0" y2="200.0"/>
  <line x1="176.1" y1="191.8" x2="182.1" y2="184.8"/>
  <line x1="200.0" y1="130.0" x2="200.0" y2="140.0"/>
  <line x1="187.6" y1="65.9" x2="193.3" y2="62.5"/>
  <line x1="37.8" y1="187.3" x2="44.4" y2="195.2"/>
  <line x1="174.4" y1="82.1" x2="182.5" y2="83.4"/>
  <line x1="123.2" y1="13.4" x2="121.8" y2="25.5"/>
  <line x1="124.0" y1="2.0" x2="130.0" y2="0.0"/>
  <line x1="134.8" y1="146.1" x2="138.2" y2="151.9"/>
  <line x1="192.2" y1="33.3" x2="200.0" y2="30.0"/>
  <line x1="158.2" y1="77.6" x2="157.2" y2="87.4"/>
  <line x1="85.4" y1="142.5" x2="91.9" y2="134.6"/>
  <line x1="7.0" y1="58.2" x2="2.3" y2="64.9"/>
  <line x1="84.6" y1="175.6" x2="93.8" y2="184.2"/>
  <line x1="171.7" y1="6.9" x2="173.8" y2="15.2"/>
  <line x1="103.0" y1="114.4" x2="114.5" y2="122.5"/>
  <line x1="195.3" y1="108.2" x2="200.0" y2="110.0"/>
  <line x1="195.2" y1="125.0" x2="196.8" y2="138.1"/>
  <line x1="122.1" y1="37.1" x2="135.1" y2="46.5"/>
  <line x1="122.7" y1="153.2" x2="138.2" y2="151.9"/>
  <line x1="182.4" y1="146.9" x2="187.7" y2="155.7"/>
  <line x1="63.6" y1="25.1" x2="65.2" y2="36.2"/>
  <line x1="0.0" y1="200.0" x2="0.0" y2="190.0"/>
  <line x1="136.3" y1="134.0" x2="142.5" y2="122.5"/>
  <line x1="124.4" y1="46.5" x2="132.4" y2="58.2"/>
  <line x1="148.2" y1="85.0" x2="157.2" y2="87.4"/>
  <line x1="5.8" y1="182.3" x2="13.7" y2="181.9"/>
  <line x1="166.4" y1="193.2" x2="177.1" y2="185.9"/>
  <line x1="2.5" y1="25.0" x2="0.0" y2="20.0"/>
  <line x1="34.7" y1="32.1" x2="42.5" y2="26.9"/>
  <line x1="77.0" y1="7.2" x2="70.0" y2="0.0"/>
  <line x1="22.7" y1="122.6" x2="35.7" y2="122.2"/>
  <line x1="52.3" y1="32.5" x2="65.2" y2="36.2"/>
  <line x1="146.0" y1="3.3" x2="150.0" y2="0.0"/>
  <line x1="44.2" y1="53.4" x2="56.9" y2="54.4"/>
  <line x1="185.3" y1="134.6" x2="195.2" y2="125.0"/>
  <line x1="65.2" y1="166.6" x2="75.7" y2="166.1"/>
  <line x1="53.8" y1="187.0" x2="66.1" y2="184.6"/>
  <line x1="5.5" y1="114.0" x2="7.0" y2="127.5"/>
  <line x1="83.7" y1="92.7" x2="93.3" y2="94.7"/>
  <line x1="106.7" y1="133.7" x2="114.5" y2="122.5"/>
  <line x1="73.5" y1="115.9" x2="86.7" y2="114.3"/>
  <line x1="24.6" y1="48.1" x2="24.7" y2="56.9"/>
  <line x1="93.4" y1="42.2" x2="104.1" y2="55.1"/>
  <line x1="107.4" y1="25.7" x2="114.3" y2="26.2"/>
  <line x1="45.0" y1="164.0" x2="46.1" y2="174.8"/>
  <line x1="62.2" y1="93.9" x2="65.5" y2="106.3"/>
  <line x1="51.7" y1="114.3" x2="55.8" y2="127.7"/>
  <line x1="10.0" y1="0.0" x2="20.0" y2="0.0"/>
  <line x1="86.2" y1="22.2" x2="88.0" y2="34.4"/>
  <line x1="16.8" y1="52.2" x2="24.7" y2="56.9"/>
  <line x1="73.8" y1="43.6" x2="73.6" y2="52.0"/>
  <line x1="145.1" y1="45.7" x2="156.4" y2="56.9"/>
  <line x1="17.6" y1="122.9" x2="24.7" y2="135.0"/>
  <line x1="21.8" y1="31.9" x2="33.5" y2="25.6"/>
  <line x1="170.0" y1="200.0" x2="180.0" y2="200.0"/>
  <line x1="154.7" y1="23.9" x2="164.1" y2="24.9"/>
  <line x1="96.9" y1="152.7" x2="92.7" y2="163.1"/>
  <line x1="172.2" y1="67.7" x2="186.0" y2="56.7"/>
  <line x1="84.6" y1="175.6" x2="82.5" y2="181.8"/>
  <line x1="157.0" y1="177.1" x2="163.1" y2="183.6"/>
  <line x1="6.9" y1="7.4" x2="10.0" y2="0.0"/>
  <line x1="33.8" y1="163.6" x2="46.2" y2="156.4"/>
  <line x1="27.4" y1="74.7" x2="37.4" y2="83.4"/>
  <line x1="168.2" y1="154.2" x2="176.5" y2="152.3"/>
  <line x1="118.1" y1="88.1" x2="117.2" y2="95.1"/>
  <line x1="186.7" y1="195.7" x2="196.2" y2="186.7"/>
  <line x1="104.6" y1="102.8" x2="103.0" y2="114.4"/>
  <line x1="174.7" y1="107.2" x2="186.4" y2="114.6"/>
  <line x1="36.8" y1="173.1" x2="45.0" y2="164.0"/>
  <line x1="122.1" y1="37.1" x2="124.4" y2="46.5"/>
  <line x1="52.5" y1="104.4" x2="62.2" y2="93.9"/>
  <line x1="197.4" y1="14.5" x2="200.0" y2="10.0"/>
  <line x1="36.9" y1="191.9" x2="30.0" y2="200.0"/>
  <line x1="87.2" y1="163.2" x2="92.7" y2="163.1"/>
  <line x1="106.0" y1="97.8" x2="117.2" y2="95.1"/>
  <line x1="164.6" y1="83.3" x2="167.0" y2="93.6"/>
  <line x1="95.9" y1="113.1" x2="103.0" y2="114.4"/>
  <line x1="196.7" y1="97.8" x2="200.0" y2="100.0"/>
  <line x1="121.8" y1="25.5" x2="134.0" y2="25.7"/>
  <line x1="182.4" y1="14.2" x2="186.4" y2="22.8"/>
  <line x1="117.1" y1="42.5" x2="124.4" y2="46.5"/>
  <line x1="115.3" y1="115.9" x2="127.4" y2="122.8"/>
  <line x1="138.2" y1="151.9" x2="146.0" y2="153.7"/>
  <line x1="198.2" y1="142.1" x2="196.7" y2="154.7"/>
  <line x1="135.1" y1="46.5" x2="146.9" y2="56.2"/>
  <line x1="4.3" y1="175.7" x2="15.2" y2="165.4"/>
  <line x1="40.0" y1="200.0" x2="50.0" y2="200.0"/>
  <line x1="36.4" y1="8.2" x2="30.0" y2="0.0"/>
  <line x1="133.3" y1="164.5" x2="142.9" y2="163.4"/>
  <line x1="157.2" y1="87.4" x2="164.6" y2="83.3"/>
  <line x1="93.3" y1="197.2" x2="100.0" y2="200.0"/>
  <line x1="0.0" y1="100.0" x2="0.0" y2="110.0"/>
  <line x1="2.3" y1="64.9" x2="12.6" y2="67.7"/>
  <line x1="26.3" y1="103.5" x2="32.4" y2="96.9"/>
  <line x1="0.0" y1="10.0" x2="0.0" y2="20.0"/>
  <line x1="17.7" y1="15.5" x2="22.1" y2="22.1"/>
  <line x1="153.4" y1="95.5" x2="167.0" y2="93.6"/>
  <line x1="107.5" y1="2.4" x2="110.0" y2="0.0"/>
  <line x1="173.8" y1="15.2" x2="182.4" y2="14.2"/>
  <line x1="17.0" y1="196.1" x2="28.0" y2="197.1"/>
  <line x1="187.4" y1="94.1" x2="200.0" y2="90.0"/>
  <line x1="200.0" y1="170.0" x2="200.0" y2="180.0"/>
  <line x1="176.7" y1="26.3" x2="186.4" y2="22.8"/>
  <line x1="25.0" y1="143.8" x2="33.7" y2="153.9"/>
  <line x1="35.7" y1="122.2" x2="42.6" y2="125.6"/>
  <line x1="103.2" y1="172.1" x2="105.1" y2="184.3"/>
  <line x1="56.9" y1="54.4" x2="63.0" y2="66.6"/>
  <line x1="48.0" y1="45.6" x2="52.3" y2="32.5"/>
  <line x1="187.7" y1="155.7" x2="196.7" y2="154.7"/>
  <line x1="41.9" y1="73.8" x2="53.6" y2="82.6"/>
  <line x1="125.0" y1="103.8" x2="127.9" y2="114.7"/>
  <line x1="66.1" y1="184.6" x2="77.8" y2="192.7"/>
  <line x1="4.1" y1="82.6" x2="0.0" y2="90.0"/>
  <line x1="52.2" y1="172.2" x2="65.2" y2="166.6"/>
  <line x1="67.8" y1="5.9" x2="73.6" y2="12.3"/>
  <line x1="154.0" y1="17.3" x2="154.7" y2="23.9"/>
  <line x1="7.0" y1="127.5" x2="0.0" y2="120.0"/>
  <line x1="75.4" y1="138.3" x2="85.4" y2="142.5"/>
  <line x1="164.3" y1="142.7" x2="168.2" y2="154.2"/>
  <line x1="17.6" y1="122.9" x2="11.9" y2="133.6"/>
  <line x1="182.0" y1="73.8" x2="182.5" y2="83.4"/>
  <line x1="32.2" y1="54.7" x2="38.0" y2="65.3"/>
  <line x1="107.9" y1="168.0" x2="116.8" y2="154.2"/>
  <line x1="126.4" y1="84.5" x2="134.8" y2="76.4"/>
  <line x1="182.5" y1="83.4" x2="187.4" y2="94.1"/>
  <line x1="47.7" y1="185.9" x2="44.4" y2="195.2"/>
  <line x1="114.5" y1="185.8" x2="122.5" y2="197.7"/>
  <line x1="7.0" y1="127.5" x2="17.6" y2="122.9"/>
  <line x1="61.9" y1="115.2" x2="62.9" y2="127.5"/>
  <line x1="137.8" y1="115.9" x2="142.5" y2="122.5"/>
  <line x1="145.9" y1="27.1" x2="154.0" y2="17.3"/>
  <line x1="54.1" y1="7.1" x2="50.0" y2="0.0"/>
  <line x1="2.0" y1="134.9" x2="11.9" y2="133.6"/>
  <line x1="24.7" y1="56.9" x2="32.2" y2="54.7"/>
  <line x1="81.9" y1="41.7" x2="82.6" y2="56.9"/>
  <line x1="156.0" y1="152.7" x2="164.3" y2="142.7"/>
  <line x1="23.9" y1="67.3" x2="38.0" y2="65.3"/>
  <line x1="97.3" y1="171.9" x2="93.8" y2="184.2"/>
  <line x1="155.3" y1="162.6" x2="168.2" y2="154.2"/>
  <line x1="0.0" y1="80.0" x2="0.0" y2="90.0"/>
  <line x1="36.9" y1="191.9" x2="44.4" y2="195.2"/>
  <line x1="187.5" y1="105.8" x2="191.8" y2="114.3"/>
  <line x1="171.9" y1="96.6" x2="182.5" y2="83.4"/>
  <line x1="7.4" y1="45.7" x2="0.0" y2="50.0"/>
  <line x1="55.8" y1="127.7" x2="62.9" y2="127.5"/>
  <line x1="7.5" y1="12.2" x2="0.0" y2="20.0"/>
  <line x1="115.3" y1="115.9" x2="114.5" y2="122.5"/>
  <line x1="44.0" y1="3.0" x2="40.0" y2="0.0"/>
  <line x1="73.6" y1="52.0" x2="82.6" y2="56.9"/>
  <line x1="13.7" y1="181.9" x2="17.0" y2="196.1"/>
  <line x1="135.1" y1="46.5" x2="132.4" y2="58.2"/>
  <line x1="82.5" y1="181.8" x2="93.8" y2="184.2"/>
  <line x1="37.4" y1="113.7" x2="35.7" y2="122.2"/>
  <line x1="196.3" y1="74.5" x2="200.0" y2="80.0"/>
  <line x1="103.0" y1="114.4" x2="115.3" y2="115.9"/>
  <line x1="57.6" y1="44.8" x2="56.9" y2="54.4"/>
  <line x1="122.7" y1="153.2" x2="134.8" y2="146.1"/>
  <line x1="58.0" y1="195.5" x2="60.0" y2="200.0"/>
  <line x1="104.8" y1="126.4" x2="114.5" y2="122.5"/>
  <line x1="191.8" y1="114.3" x2="200.0" y2="110.0"/>
  <line x1="56.9" y1="54.4" x2="52.7" y2="65.6"/>
  <line x1="124.4" y1="46.5" x2="135.1" y2="46.5"/>
  <line x1="148.2" y1="85.0" x2="158.2" y2="77.6"/>
  <line x1="124.5" y1="58.3" x2="132.4" y2="58.2"/>
  <line x1="66.1" y1="184.6" x2="66.5" y2="195.8"/>
  <line x1="133.1" y1="178.0" x2="147.1" y2="176.9"/>
  <line x1="140.0" y1="200.0" x2="150.0" y2="200.0"/>
  <line x1="5.8" y1="195.0" x2="13.7" y2="181.9"/>
  <line x1="137.8" y1="182.1" x2="144.6" y2="187.6"/>
  <line x1="86.7" y1="114.3" x2="83.9" y2="127.7"/>
  <line x1="153.4" y1="107.4" x2="162.2" y2="106.4"/>
  <line x1="164.1" y1="24.9" x2="173.8" y2="15.2"/>
  <line x1="0.0" y1="110.0" x2="0.0" y2="120.0"/>
  <line x1="196.2" y1="186.7" x2="200.0" y2="190.0"/>
  <line x1="157.2" y1="114.5" x2="163.9" y2="114.4"/>
  <line x1="108.1" y1="48.2" x2="104.1" y2="55.1"/>
  <line x1="200.0" y1="110.0" x2="200.0" y2="120.0"/>
  <line x1="176.5" y1="152.3" x2="182.4" y2="146.9"/>
  <line x1="24.7" y1="135.0" x2="35.7" y2="122.2"/>
  <line x1="172.2" y1="43.1" x2="182.0" y2="46.8"/>
  <line x1="26.7" y1="167.9" x2="36.8" y2="173.1"/>
  <line x1="115.4" y1="173.8" x2="114.5" y2="185.8"/>
  <line x1="53.8" y1="187.0" x2="67.3" y2="176.3"/>
  <line x1="114.5" y1="185.8" x2="113.2" y2="197.0"/>
  <line x1="182.4" y1="174.2" x2="192.4" y2="176.9"/>
  <line x1="136.2" y1="108.1" x2="137.8" y2="115.9"/>
  <line x1="77.0" y1="7.2" x2="83.8" y2="14.2"/>
  <line x1="3.2" y1="102.1" x2="0.0" y2="100.0"/>
  <line x1="58.0" y1="195.5" x2="66.1" y2="184.6"/>
  <line x1="93.4" y1="42.2" x2="108.1" y2="48.2"/>
  <line x1="137.8" y1="115.9" x2="131.8" y2="124.4"/>
  <line x1="154.0" y1="38.0" x2="155.4" y2="41.8"/>
  <line x1="7.5" y1="12.2" x2="2.5" y2="25.0"/>
  <line x1="77.7" y1="127.0" x2="86.7" y2="114.3"/>
  <line x1="192.2" y1="33.3" x2="200.0" y2="40.0"/>
  <line x1="155.4" y1="41.8" x2="156.4" y2="56.9"/>
  <line x1="163.8" y1="167.5" x2="163.3" y2="173.4"/>
  <line x1="5.8" y1="195.0" x2="0.0" y2="200.0"/>
  <line x1="85.4" y1="142.5" x2="96.9" y2="152.7"/>
  <line x1="163.3" y1="173.4" x2="163.1" y2="183.6"/>
  <line x1="187.4" y1="94.1" x2="187.5" y2="105.8"/>
  <line x1="17.4" y1="4.4" x2="10.0" y2="0.0"/>
  <line x1="77.8" y1="192.7" x2="80.0" y2="200.0"/>
  <line x1="105.1" y1="184.3" x2="115.4" y2="173.8"/>
  <line x1="127.9" y1="114.7" x2="137.8" y2="115.9"/>
  <line x1="187.5" y1="105.8" x2="186.4" y2="114.6"/>
  <line x1="16.8" y1="52.2" x2="24.6" y2="48.1"/>
  <line x1="145.1" y1="45.7" x2="155.4" y2="41.8"/>
  <line x1="2.3" y1="145.1" x2="13.2" y2="145.8"/>
  <line x1="136.3" y1="134.0" x2="143.2" y2="142.8"/>
  <line x1="157.0" y1="177.1" x2="163.3" y2="173.4"/>
  <line x1="8.1" y1="158.0" x2="14.0" y2="157.1"/>
  <line x1="27.4" y1="74.7" x2="33.5" y2="73.1"/>
  <line x1="157.7" y1="65.1" x2="163.7" y2="72.1"/>
  <line x1="157.6" y1="185.4" x2="163.1" y2="183.6"/>
  <line x1="174.7" y1="107.2" x2="187.5" y2="105.8"/>
  <line x1="21.9" y1="81.9" x2="37.4" y2="83.4"/>
  <line x1="44.0" y1="3.0" x2="54.1" y2="7.1"/>
  <line x1="42.6" y1="125.6" x2="51.7" y2="114.3"/>
  <line x1="2.5" y1="25.0" x2="0.0" y2="30.0"/>
  <line x1="173.4" y1="116.2" x2="186.4" y2="114.6"/>
  <line x1="77.0" y1="7.2" x2="80.0" y2="0.0"/>
  <line x1="47.2" y1="11.9" x2="53.3" y2="12.2"/>
  <line x1="56.1" y1="143.4" x2="62.6" y2="144.5"/>
  <line x1="7.7" y1="72.0" x2="4.1" y2="82.6"/>
  <circle cx="6.9" cy="7.4"/>
  <circle cx="7.5" cy="12.2"/>
  <circle cx="2.5" cy="25.0"/>
  <circle cx="4.6" cy="34.7"/>
  <circle cx="7.4" cy="45.7"/>
  <circle cx="7.0" cy="58.2"/>
  <circle cx="2.3" cy="64.9"/>
  <circle cx="7.7" cy="72.0"/>
  <circle cx="4.1" cy="82.6"/>
  <circle cx="8.2" cy="93.0"/>
  <circle cx="3.2" cy="102.1"/>
  <circle cx="5.5" cy="114.0"/>
  <circle cx="7.0" cy="127.5"/>
  <circle cx="2.0" cy="134.9"/>
  <circle cx="2.3" cy="145.1"/>
  <circle cx="8.1" cy="158.0"/>
  <circle cx="5.1" cy="162.9"/>
  <circle cx="4.3" cy="175.7"/>
  <circle cx="5.8" cy="182.3"/>
  <circle cx="5.8" cy="195.0"/>
  <circle cx="17.4" cy="4.4"/>
  <circle cx="17.7" cy="15.5"/>
  <circle cx="18.1" cy="26.1"/>
  <circle cx="12.8" cy="33.2"/>
  <circle cx="12.2" cy="43.8"/>
  <circle cx="16.8" cy="52.2"/>
  <circle cx="12.6" cy="67.7"/>
  <circle cx="13.8" cy="74.5"/>
  <circle cx="12.4" cy="87.6"/>
  <circle cx="16.0" cy="94.7"/>
  <circle cx="14.8" cy="105.5"/>
  <circle cx="16.9" cy="114.4"/>
  <circle cx="17.6" cy="122.9"/>
  <circle cx="11.9" cy="133.6"/>
  <circle cx="13.2" cy="145.8"/>
  <circle cx="14.0" cy="157.1"/>
  <circle cx="15.2" cy="165.4"/>
  <circle cx="18.1" cy="177.0"/>
  <circle cx="13.7" cy="181.9"/>
  <circle cx="17.0" cy="196.1"/>
  <circle cx="27.0" cy="2.3"/>
  <circle cx="23.0" cy="15.3"/>
  <circle cx="22.1" cy="22.1"/>
  <circle cx="21.8" cy="31.9"/>
  <circle cx="24.6" cy="48.1"/>
  <circle cx="24.7" cy="56.9"/>
  <circle cx="23.9" cy="67.3"/>
  <circle cx="27.4" cy="74.7"/>
  <circle cx="21.9" cy="81.9"/>
  <circle cx="23.6" cy="95.8"/>
  <circle cx="26.3" cy="103.5"/>
  <circle cx="24.4" cy="118.2"/>
  <circle cx="22.7" cy="122.6"/>
  <circle cx="24.7" cy="135.0"/>
  <circle cx="25.0" cy="143.8"/>
  <circle cx="24.5" cy="153.7"/>
  <circle cx="26.7" cy="167.9"/>
  <circle cx="28.1" cy="176.6"/>
  <circle cx="25.1" cy="182.8"/>
  <circle cx="28.0" cy="197.1"/>
  <circle cx="36.4" cy="8.2"/>
  <circle cx="33.8" cy="14.7"/>
  <circle cx="33.5" cy="25.6"/>
  <circle cx="34.7" cy="32.1"/>
  <circle cx="36.2" cy="41.8"/>
  <circle cx="32.2" cy="54.7"/>
  <circle cx="38.0" cy="65.3"/>
  <circle cx="33.5" cy="73.1"/>
  <circle cx="37.4" cy="83.4"/>
  <circle cx="32.4" cy="96.9"/>
  <circle cx="33.3" cy="104.3"/>
  <circle cx="37.4" cy="113.7"/>
  <circle cx="35.7" cy="122.2"/>
  <circle cx="37.4" cy="134.1"/>
  <circle cx="34.7" cy="143.4"/>
  <circle cx="33.7" cy="153.9"/>
  <circle cx="33.8" cy="163.6"/>
  <circle cx="36.8" cy="173.1"/>
  <circle cx="37.8" cy="187.3"/>
  <circle cx="36.9" cy="191.9"/>
  <circle cx="44.0" cy="3.0"/>
  <circle cx="47.2" cy="11.9"/>
  <circle cx="42.5" cy="26.9"/>
  <circle cx="44.0" cy="37.2"/>
  <circle cx="48.0" cy="45.6"/>
  <circle cx="44.2" cy="53.4"/>
  <circle cx="44.3" cy="64.9"/>
  <circle cx="41.9" cy="73.8"/>
  <circle cx="43.2" cy="87.2"/>
  <circle cx="42.6" cy="92.2"/>
  <circle cx="42.3" cy="102.9"/>
  <circle cx="46.0" cy="113.5"/>
  <circle cx="42.6" cy="125.6"/>
  <circle cx="44.8" cy="135.9"/>
  <circle cx="46.0" cy="144.9"/>
  <circle cx="46.2" cy="156.4"/>
  <circle cx="45.0" cy="164.0"/>
  <circle cx="46.1" cy="174.8"/>
  <circle cx="47.7" cy="185.9"/>
  <circle cx="44.4" cy="195.2"/>
  <circle cx="54.1" cy="7.1"/>
  <circle cx="53.3" cy="12.2"/>
  <circle cx="57.0" cy="22.1"/>
  <circle cx="52.3" cy="32.5"/>
  <circle cx="57.6" cy="44.8"/>
  <circle cx="56.9" cy="54.4"/>
  <circle cx="52.7" cy="65.6"/>
  <circle cx="54.5" cy="73.3"/>
  <circle cx="53.6" cy="82.6"/>
  <circle cx="52.2" cy="97.4"/>
  <circle cx="52.5" cy="104.4"/>
  <circle cx="51.7" cy="114.3"/>
  <circle cx="55.8" cy="127.7"/>
  <circle cx="56.0" cy="133.2"/>
  <circle cx="56.1" cy="143.4"/>
  <circle cx="55.1" cy="156.5"/>
  <circle cx="52.2" cy="164.7"/>
  <circle cx="52.2" cy="172.2"/>
  <circle cx="53.8" cy="187.0"/>
  <circle cx="58.0" cy="195.5"/>
  <circle cx="67.8" cy="5.9"/>
  <circle cx="66.5" cy="18.1"/>
  <circle cx="63.6" cy="25.1"/>
  <circle cx="65.2" cy="36.2"/>
  <circle cx="64.2" cy="44.6"/>
  <circle cx="64.9" cy="52.5"/>
  <circle cx="63.0" cy="66.6"/>
  <circle cx="63.8" cy="75.9"/>
  <circle cx="65.6" cy="83.8"/>
  <circle cx="62.2" cy="93.9"/>
  <circle cx="65.5" cy="106.3"/>
  <circle cx="61.9" cy="115.2"/>
  <circle cx="62.9" cy="127.5"/>
  <circle cx="66.0" cy="132.2"/>
  <circle cx="62.6" cy="144.5"/>
  <circle cx="65.2" cy="157.3"/>
  <circle cx="65.2" cy="166.6"/>
  <circle cx="67.3" cy="176.3"/>
  <circle cx="66.1" cy="184.6"/>
  <circle cx="66.5" cy="195.8"/>
  <circle cx="77.0" cy="7.2"/>
  <circle cx="73.6" cy="12.3"/>
  <circle cx="73.1" cy="23.0"/>
  <circle cx="71.9" cy="34.3"/>
  <circle cx="73.8" cy="43.6"/>
  <circle cx="73.6" cy="52.0"/>
  <circle cx="71.8" cy="66.1"/>
  <circle cx="74.7" cy="72.4"/>
  <circle cx="77.8" cy="86.2"/>
  <circle cx="75.3" cy="98.3"/>
  <circle cx="76.3" cy="108.0"/>
  <circle cx="73.5" cy="115.9"/>
  <circle cx="77.7" cy="127.0"/>
  <circle cx="75.4" cy="138.3"/>
  <circle cx="73.7" cy="144.9"/>
  <circle cx="77.4" cy="157.6"/>
  <circle cx="75.7" cy="166.1"/>
  <circle cx="73.8" cy="174.5"/>
  <circle cx="75.2" cy="182.3"/>
  <circle cx="77.8" cy="192.7"/>
  <circle cx="87.1" cy="6.7"/>
  <circle cx="83.8" cy="14.2"/>
  <circle cx="86.2" cy="22.2"/>
  <circle cx="88.0" cy="34.4"/>
  <circle cx="81.9" cy="41.7"/>
  <circle cx="82.6" cy="56.9"/>
  <circle cx="85.5" cy="67.5"/>
  <circle cx="87.7" cy="75.0"/>
  <circle cx="84.4" cy="84.0"/>
  <circle cx="83.7" cy="92.7"/>
  <circle cx="82.9" cy="102.9"/>
  <circle cx="86.7" cy="114.3"/>
  <circle cx="83.9" cy="127.7"/>
  <circle cx="82.2" cy="131.7"/>
  <circle cx="85.4" cy="142.5"/>
  <circle cx="87.3" cy="157.5"/>
  <circle cx="87.2" cy="163.2"/>
  <circle cx="84.6" cy="175.6"/>
  <circle cx="82.5" cy="181.8"/>
  <circle cx="84.4" cy="196.4"/>
  <circle cx="97.8" cy="5.7"/>
  <circle cx="92.0" cy="14.6"/>
  <circle cx="95.9" cy="28.3"/>
  <circle cx="96.1" cy="35.7"/>
  <circle cx="93.4" cy="42.2"/>
  <circle cx="95.8" cy="57.5"/>
  <circle cx="97.1" cy="67.1"/>
  <circle cx="94.7" cy="77.8"/>
  <circle cx="95.5" cy="83.4"/>
  <circle cx="93.3" cy="94.7"/>
  <circle cx="95.3" cy="103.2"/>
  <circle cx="95.9" cy="113.1"/>
  <circle cx="95.4" cy="125.3"/>
  <circle cx="91.9" cy="134.6"/>
  <circle cx="94.2" cy="142.3"/>
  <circle cx="96.9" cy="152.7"/>
  <circle cx="92.7" cy="163.1"/>
  <circle cx="97.3" cy="171.9"/>
  <circle cx="93.8" cy="184.2"/>
  <circle cx="93.3" cy="197.2"/>
  <circle cx="107.5" cy="2.4"/>
  <circle cx="108.3" cy="14.2"/>
  <circle cx="107.4" cy="25.7"/>
  <circle cx="105.7" cy="37.9"/>
  <circle cx="108.1" cy="48.2"/>
  <circle cx="104.1" cy="55.1"/>
  <circle cx="105.4" cy="64.0"/>
  <circle cx="106.0" cy="74.5"/>
  <circle cx="104.2" cy="84.2"/>
  <circle cx="106.0" cy="97.8"/>
  <circle cx="104.6" cy="102.8"/>
  <circle cx="103.0" cy="114.4"/>
  <circle cx="104.8" cy="126.4"/>
  <circle cx="106.7" cy="133.7"/>
  <circle cx="105.7" cy="145.2"/>
  <circle cx="104.5" cy="154.9"/>
  <circle cx="107.9" cy="168.0"/>
  <circle cx="103.2" cy="172.1"/>
  <circle cx="105.1" cy="184.3"/>
  <circle cx="105.7" cy="194.6"/>
  <circle cx="117.2" cy="7.9"/>
  <circle cx="113.5" cy="17.8"/>
  <circle cx="114.3" cy="26.2"/>
  <circle cx="114.6" cy="33.2"/>
  <circle cx="117.1" cy="42.5"/>
  <circle cx="116.8" cy="55.0"/>
  <circle cx="111.8" cy="64.5"/>
  <circle cx="111.7" cy="73.6"/>
  <circle cx="118.1" cy="88.1"/>
  <circle cx="117.2" cy="95.1"/>
  <circle cx="116.6" cy="106.7"/>
  <circle cx="115.3" cy="115.9"/>
  <circle cx="114.5" cy="122.5"/>
  <circle cx="117.5" cy="132.6"/>
  <circle cx="117.1" cy="144.6"/>
  <circle cx="116.8" cy="154.2"/>
  <circle cx="117.0" cy="166.8"/>
  <circle cx="115.4" cy="173.8"/>
  <circle cx="114.5" cy="185.8"/>
  <circle cx="113.2" cy="197.0"/>
  <circle cx="124.0" cy="2.0"/>
  <circle cx="123.2" cy="13.4"/>
  <circle cx="121.8" cy="25.5"/>
  <circle cx="122.1" cy="37.1"/>
  <circle cx="124.4" cy="46.5"/>
  <circle cx="124.5" cy="58.3"/>
  <circle cx="126.5" cy="67.4"/>
  <circle cx="126.4" cy="77.0"/>
  <circle cx="126.4" cy="84.5"/>
  <circle cx="122.0" cy="97.7"/>
  <circle cx="125.0" cy="103.8"/>
  <circle cx="127.9" cy="114.7"/>
  <circle cx="127.4" cy="122.8"/>
  <circle cx="123.4" cy="136.3"/>
  <circle cx="126.2" cy="142.6"/>
  <circle cx="122.7" cy="153.2"/>
  <circle cx="123.0" cy="164.8"/>
  <circle cx="125.3" cy="175.9"/>
  <circle cx="126.1" cy="184.2"/>
  <circle cx="122.5" cy="197.7"/>
  <circle cx="131.8" cy="3.2"/>
  <circle cx="138.3" cy="13.1"/>
  <circle cx="134.0" cy="25.7"/>
  <circle cx="138.1" cy="33.0"/>
  <circle cx="135.1" cy="46.5"/>
  <circle cx="132.4" cy="58.2"/>
  <circle cx="137.8" cy="62.0"/>
  <circle cx="134.8" cy="76.4"/>
  <circle cx="137.6" cy="85.5"/>
  <circle cx="138.2" cy="93.5"/>
  <circle cx="136.2" cy="108.1"/>
  <circle cx="137.8" cy="115.9"/>
  <circle cx="131.8" cy="124.4"/>
  <circle cx="136.3" cy="134.0"/>
  <circle cx="134.8" cy="146.1"/>
  <circle cx="138.2" cy="151.9"/>
  <circle cx="133.3" cy="164.5"/>
  <circle cx="133.1" cy="178.0"/>
  <circle cx="137.8" cy="182.1"/>
  <circle cx="135.9" cy="197.3"/>
  <circle cx="146.0" cy="3.3"/>
  <circle cx="144.8" cy="13.8"/>
  <circle cx="145.9" cy="27.1"/>
  <circle cx="148.3" cy="33.7"/>
  <circle cx="145.1" cy="45.7"/>
  <circle cx="146.9" cy="56.2"/>
  <circle cx="147.7" cy="64.3"/>
  <circle cx="146.0" cy="76.5"/>
  <circle cx="148.2" cy="85.0"/>
  <circle cx="143.2" cy="97.9"/>
  <circle cx="145.8" cy="101.7"/>
  <circle cx="143.3" cy="114.8"/>
  <circle cx="142.5" cy="122.5"/>
  <circle cx="146.2" cy="131.9"/>
  <circle cx="143.2" cy="142.8"/>
  <circle cx="146.0" cy="153.7"/>
  <circle cx="142.9" cy="163.4"/>
  <circle cx="147.1" cy="176.9"/>
  <circle cx="144.6" cy="187.6"/>
  <circle cx="144.4" cy="197.6"/>
  <circle cx="158.1" cy="3.8"/>
  <circle cx="154.0" cy="17.3"/>
  <circle cx="154.7" cy="23.9"/>
  <circle cx="154.0" cy="38.0"/>
  <circle cx="155.4" cy="41.8"/>
  <circle cx="156.4" cy="56.9"/>
  <circle cx="157.7" cy="65.1"/>
  <circle cx="158.2" cy="77.6"/>
  <circle cx="157.2" cy="87.4"/>
  <circle cx="153.4" cy="95.5"/>
  <circle cx="153.4" cy="107.4"/>
  <circle cx="157.2" cy="114.5"/>
  <circle cx="156.5" cy="125.4"/>
  <circle cx="152.6" cy="138.1"/>
  <circle cx="155.6" cy="144.4"/>
  <circle cx="156.0" cy="152.7"/>
  <circle cx="155.3" cy="162.6"/>
  <circle cx="157.0" cy="177.1"/>
  <circle cx="157.6" cy="185.4"/>
  <circle cx="155.7" cy="193.7"/>
  <circle cx="164.6" cy="7.7"/>
  <circle cx="161.7" cy="17.1"/>
  <circle cx="164.1" cy="24.9"/>
  <circle cx="167.6" cy="37.8"/>
  <circle cx="166.0" cy="46.6"/>
  <circle cx="164.2" cy="56.3"/>
  <circle cx="162.6" cy="62.7"/>
  <circle cx="163.7" cy="72.1"/>
  <circle cx="164.6" cy="83.3"/>
  <circle cx="167.0" cy="93.6"/>
  <circle cx="162.2" cy="106.4"/>
  <circle cx="163.9" cy="114.4"/>
  <circle cx="167.8" cy="127.0"/>
  <circle cx="166.2" cy="135.0"/>
  <circle cx="164.3" cy="142.7"/>
  <circle cx="168.2" cy="154.2"/>
  <circle cx="163.8" cy="167.5"/>
  <circle cx="163.3" cy="173.4"/>
  <circle cx="163.1" cy="183.6"/>
  <circle cx="166.4" cy="193.2"/>
  <circle cx="171.7" cy="6.9"/>
  <circle cx="173.8" cy="15.2"/>
  <circle cx="176.7" cy="26.3"/>
  <circle cx="176.3" cy="34.0"/>
  <circle cx="172.2" cy="43.1"/>
  <circle cx="172.0" cy="54.3"/>
  <circle cx="172.2" cy="67.7"/>
  <circle cx="174.4" cy="76.8"/>
  <circle cx="174.4" cy="82.1"/>
  <circle cx="171.9" cy="96.6"/>
  <circle cx="174.7" cy="107.2"/>
  <circle cx="173.4" cy="116.2"/>
  <circle cx="172.9" cy="127.0"/>
  <circle cx="178.1" cy="136.5"/>
  <circle cx="173.3" cy="146.3"/>
  <circle cx="176.5" cy="152.3"/>
  <circle cx="171.7" cy="168.0"/>
  <circle cx="173.7" cy="173.6"/>
  <circle cx="177.1" cy="185.9"/>
  <circle cx="176.1" cy="191.8"/>
  <circle cx="185.4" cy="5.1"/>
  <circle cx="182.4" cy="14.2"/>
  <circle cx="186.4" cy="22.8"/>
  <circle cx="183.9" cy="34.8"/>
  <circle cx="182.0" cy="46.8"/>
  <circle cx="186.0" cy="56.7"/>
  <circle cx="187.6" cy="65.9"/>
  <circle cx="182.0" cy="73.8"/>
  <circle cx="182.5" cy="83.4"/>
  <circle cx="187.4" cy="94.1"/>
  <circle cx="187.5" cy="105.8"/>
  <circle cx="186.4" cy="114.6"/>
  <circle cx="181.7" cy="126.9"/>
  <circle cx="185.3" cy="134.6"/>
  <circle cx="182.4" cy="146.9"/>
  <circle cx="187.7" cy="155.7"/>
  <circle cx="185.8" cy="166.3"/>
  <circle cx="182.4" cy="174.2"/>
  <circle cx="182.1" cy="184.8"/>
  <circle cx="186.7" cy="195.7"/>
  <circle cx="195.5" cy="4.8"/>
  <circle cx="197.4" cy="14.5"/>
  <circle cx="198.3" cy="24.7"/>
  <circle cx="192.2" cy="33.3"/>
  <circle cx="196.6" cy="48.0"/>
  <circle cx="196.8" cy="53.6"/>
  <circle cx="193.3" cy="62.5"/>
  <circle cx="196.3" cy="74.5"/>
  <circle cx="195.5" cy="81.9"/>
  <circle cx="196.7" cy="97.8"/>
  <circle cx="195.3" cy="108.2"/>
  <circle cx="191.8" cy="114.3"/>
  <circle cx="195.2" cy="125.0"/>
  <circle cx="196.8" cy="138.1"/>
  <circle cx="198.2" cy="142.1"/>
  <circle cx="196.7" cy="154.7"/>
  <circle cx="195.0" cy="161.7"/>
  <circle cx="192.4" cy="176.9"/>
  <circle cx="196.2" cy="186.7"/>
  <circle cx="195.9" cy="193.2"/>
  <circle cx="0.0" cy="0.0"/>
  <circle cx="0.0" cy="200.0"/>
  <circle cx="10.0" cy="0.0"/>
  <circle cx="10.0" cy="200.0"/>
  <circle cx="20.0" cy="0.0"/>
  <circle cx="20.0" cy="200.0"/>
  <circle cx="30.0" cy="0.0"/>
  <circle cx="30.0" cy="200.0"/>
  <circle cx="40.0" cy="0.0"/>
  <circle cx="40.0" cy="200.0"/>
  <circle cx="50.0" cy="0.0"/>
  <circle cx="50.0" cy="200.0"/>
  <circle cx="60.0" cy="0.0"/>
  <circle cx="60.0" cy="200.0"/>
  <circle cx="70.0" cy="0.0"/>
  <circle cx="70.0" cy="200.0"/>
  <circle cx="80.0" cy="0.0"/>
  <circle cx="80.0" cy="200.0"/>
  <circle cx="90.0" cy="0.0"/>
  <circle cx="90.0" cy="200.0"/>
  <circle cx="100.0" cy="0.0"/>
  <circle cx="100.0" cy="200.0"/>
  <circle cx="110.0" cy="0.0"/>
  <circle cx="110.0" cy="200.0"/>
  <circle cx="120.0" cy="0.0"/>
  <circle cx="120.0" cy="200.0"/>
  <circle cx="130.0" cy="0.0"/>
  <circle cx="130.0" cy="200.0"/>
  <circle cx="140.0" cy="0.0"/>
  <circle cx="140.0" cy="200.0"/>
  <circle cx="150.0" cy="0.0"/>
  <circle cx="150.0" cy="200.0"/>
  <circle cx="160.0" cy="0.0"/>
  <circle cx="160.0" cy="200.0"/>
  <circle cx="170.0" cy="0.0"/>
  <circle cx="170.0" cy="200.0"/>
  <circle cx="180.0" cy="0.0"/>
  <circle cx="180.0" cy="200.0"/>
  <circle cx="190.0" cy="0.0"/>
  <circle cx="190.0" cy="200.0"/>
  <circle cx="200.0" cy="0.0"/>
  <circle cx="200.0" cy="200.0"/>
  <circle cx="0.0" cy="10.0"/>
  <circle cx="200.0" cy="10.0"/>
  <circle cx="0.0" cy="20.0"/>
  <circle cx="200.0" cy="20.0"/>
  <circle cx="0.0" cy="30.0"/>
  <circle cx="200.0" cy="30.0"/>
  <circle cx="0.0" cy="40.0"/>
  <circle cx="200.0" cy="40.0"/>
  <circle cx="0.0" cy="50.0"/>
  <circle cx="200.0" cy="50.0"/>
  <circle cx="0.0" cy="60.0"/>
  <circle cx="200.0" cy="60.0"/>
  <circle cx="0.0" cy="70.0"/>
  <circle cx="200.0" cy="70.0"/>
  <circle cx="0.0" cy="80.0"/>
  <circle cx="200.0" cy="80.0"/>
  <circle cx="0.0" cy="90.0"/>
  <circle cx="200.0" cy="90.0"/>
  <circle cx="0.0" cy="100.0"/>
  <circle cx="200.0" cy="100.0"/>
  <circle cx="0.0" cy="110.0"/>
  <circle cx="200.0" cy="110.0"/>
  <circle cx="0.0" cy="120.0"/>
  <circle cx="200.0" cy="120.0"/>
  <circle cx="0.0" cy="130.0"/>
  <circle cx="200.0" cy="130.0"/>
  <circle cx="0.0" cy="140.0"/>
  <circle cx="200.0" cy="140.0"/>
  <circle cx="0.0" cy="150.0"/>
  <circle cx="200.0" cy="150.0"/>
  <circle cx="0.0" cy="160.0"/>
  <circle cx="200.0" cy="160.0"/>
  <circle cx="0.0" cy="170.0"/>
  <circle cx="200.0" cy="170.0"/>
  <circle cx="0.0" cy="180.0"/>
  <circle cx="200.0" cy="180.0"/>
  <circle cx="0.0" cy="190.0"/>
  <circle cx="200.0" cy="190.0"/>
</svg>
