<?xml version='1.0' encoding='UTF-8' standalone='no'?>
<svg xmlns="http://www.w3.org/2000/svg" xmlns:xlink="http://www.w3.org/1999/xlink" version="1.1" width="200" height="200" viewBox="0 0 200 200" style="border:1px solid black">
  <polygon points="100.0,100.0 200.0,100.0 150.0,71.1 " stroke="None" stroke-width="0.5" fill="black"/>
  <polygon points="100.0,100.0 180.9,158.8 157.4,106.0 " stroke="None" stroke-width="0.5" fill="black"/>
  <polygon points="100.0,100.0 130.9,195.1 142.9,138.6 " stroke="None" stroke-width="0.5" fill="black"/>
  <polygon points="100.0,100.0 69.1,195.1 112.0,156.5 " stroke="None" stroke-width="0.5" fill="black"/>
  <polygon points="100.0,100.0 19.1,158.8 76.5,152.7 " stroke="None" stroke-width="0.5" fill="black"/>
  <polygon points="100.0,100.0 0.0,100.0 50.0,128.9 " stroke="None" stroke-width="0.5" fill="black"/>
  <polygon points="100.0,100.0 19.1,41.2 42.6,94.0 " stroke="None" stroke-width="0.5" fill="black"/>
  <polygon points="100.0,100.0 69.1,4.9 57.1,61.4 " stroke="None" stroke-width="0.5" fill="black"/>
  <polygon points="100.0,100.0 130.9,4.9 88.0,43.5 " stroke="None" stroke-width="0.5" fill="black"/>
  <polygon points="100.0,100.0 180.9,41.2 123.5,47.3 " stroke="None" stroke-width="0.5" fill="black"/>
</svg>
