<?xml version='1.0' encoding='UTF-8' standalone='no'?>
<svg width="200" height="200" xmlns="http://www.w3.org/2000/svg">
  <g opacity="1.0">
    <rect x="0" y="0" width="200" height="200" fill="white" stroke="black" stroke-width="1"/>
    <circle cx="5.125382595221625" cy="97.1437581749435" r="1" fill="green"/>
    <circle cx="197.22603304529142" cy="73.7148540000425" r="1" fill="green"/>
    <circle cx="47.01210925153159" cy="67.10611561978943" r="1" fill="green"/>
    <circle cx="6.250909952191215" cy="142.51012489845883" r="1" fill="green"/>
    <circle cx="69.1761311494127" cy="103.72916867873711" r="1" fill="green"/>
    <circle cx="69.16646037579018" cy="71.6337196805874" r="1" fill="green"/>
    <circle cx="184.86091144055797" cy="88.51077320723704" r="1" fill="green"/>
    <circle cx="14.071327318468473" cy="86.04933028558494" r="1" fill="green"/>
    <circle cx="101.40260857573129" cy="92.23310057221863" r="1" fill="green"/>
    <circle cx="53.77929506904259" cy="8.659892230140645" r="1" fill="green"/>
    <circle cx="133.3744524173368" cy="20.12420534259964" r="1" fill="green"/>
    <circle cx="17.212048164994428" cy="151.91334010556028" r="1" fill="green"/>
    <circle cx="13.929687956391025" cy="47.996083761649366" r="1" fill="green"/>
    <circle cx="11.696616545407208" cy="176.7700613530619" r="1" fill="green"/>
    <circle cx="196.9875577674609" cy="62.3451295804224" r="1" fill="green"/>
    <circle cx="182.53583972372107" cy="171.08469803338028" r="1" fill="green"/>
    <circle cx="61.99731757374916" cy="128.39968020678253" r="1" fill="green"/>
    <circle cx="168.54907189383042" cy="136.55716488004626" r="1" fill="green"/>
    <circle cx="178.47918846105006" cy="182.38710524583257" r="1" fill="green"/>
    <circle cx="28.60703267976414" cy="139.0065346274113" r="1" fill="green"/>
    <circle cx="137.55248129935774" cy="136.48251936568946" r="1" fill="green"/>
    <circle cx="11.373129907349561" cy="21.009002511822878" r="1" fill="green"/>
    <circle cx="18.721594893678517" cy="144.6624891112995" r="1" fill="green"/>
    <circle cx="111.12903736950679" cy="147.323713054093" r="1" fill="green"/>
    <circle cx="114.86556971309534" cy="113.13635648295936" r="1" fill="green"/>
    <circle cx="34.472534772685634" cy="3.263524098353436" r="1" fill="green"/>
    <circle cx="96.47328249313948" cy="49.691243303727475" r="1" fill="green"/>
    <circle cx="52.45559375246457" cy="102.99952299728386" r="1" fill="green"/>
    <circle cx="8.075641608760245" cy="59.87472325900846" r="1" fill="green"/>
    <circle cx="101.70173255419567" cy="179.22410749426794" r="1" fill="green"/>
    <circle cx="116.77097735006195" cy="46.47322266693617" r="1" fill="green"/>
    <circle cx="133.09553991791336" cy="164.76984142612963" r="1" fill="green"/>
    <circle cx="22.28705623749738" cy="11.614804452836088" r="1" fill="green"/>
    <circle cx="143.15289777035719" cy="120.49309174905845" r="1" fill="green"/>
    <circle cx="143.80020975231983" cy="31.148596097757437" r="1" fill="green"/>
    <circle cx="142.4917697288799" cy="8.587155213012771" r="1" fill="green"/>
    <circle cx="22.427484929657616" cy="183.57323158641833" r="1" fill="green"/>
    <circle cx="154.47343225562787" cy="115.95750142398754" r="1" fill="green"/>
    <circle cx="121.87625403776724" cy="23.251709705459255" r="1" fill="green"/>
    <circle cx="100.80217043847094" cy="103.09328277396943" r="1" fill="green"/>
    <circle cx="50.91854715513303" cy="165.4405489681684" r="1" fill="green"/>
    <circle cx="21.740879147740404" cy="23.375921826587003" r="1" fill="green"/>
    <circle cx="54.33239510115654" cy="74.51445347030176" r="1" fill="green"/>
    <circle cx="181.17602394129017" cy="97.98636348367593" r="1" fill="green"/>
    <circle cx="93.95366519015778" cy="43.281898687040965" r="1" fill="green"/>
    <circle cx="156.52214501861417" cy="176.60817891572069" r="1" fill="green"/>
    <circle cx="197.9412552200863" cy="55.14761076343138" r="1" fill="green"/>
    <circle cx="115.33350005646548" cy="128.38636891102885" r="1" fill="green"/>
    <circle cx="175.03461909624497" cy="42.59368144274988" r="1" fill="green"/>
    <circle cx="79.86205522333013" cy="36.03216269841439" r="1" fill="green"/>
    <circle cx="107.2048659848142" cy="8.956570608175173" r="1" fill="green"/>
    <circle cx="104.13943874379554" cy="6.978028336768326" r="1" fill="green"/>
    <circle cx="142.88290615804513" cy="129.4368976585118" r="1" fill="green"/>
    <circle cx="196.86105265590274" cy="101.49554426766207" r="1" fill="green"/>
    <circle cx="176.29111446251594" cy="164.5333679907704" r="1" fill="green"/>
    <circle cx="13.355276991478542" cy="122.0752898612322" r="1" fill="green"/>
    <circle cx="196.53659903031703" cy="114.95188872513519" r="1" fill="green"/>
    <circle cx="129.16516932956597" cy="162.20238252741947" r="1" fill="green"/>
    <circle cx="149.44291456320772" cy="105.80830286216089" r="1" fill="green"/>
    <circle cx="186.052281337755" cy="29.094680488254056" r="1" fill="green"/>
    <circle cx="121.42931388965505" cy="123.64453285033134" r="1" fill="green"/>
    <circle cx="172.3425644736213" cy="63.169640026352" r="1" fill="green"/>
    <circle cx="109.52956044462726" cy="136.9607095005982" r="1" fill="green"/>
    <circle cx="58.31091751915476" cy="80.95819238831578" r="1" fill="green"/>
    <circle cx="150.28354069801046" cy="109.74396047563022" r="1" fill="green"/>
    <circle cx="157.16747945652617" cy="68.0963687942845" r="1" fill="green"/>
    <circle cx="55.18385112346017" cy="42.20530055313792" r="1" fill="green"/>
    <circle cx="125.41664465509291" cy="149.20961867121943" r="1" fill="green"/>
    <circle cx="179.92043217558532" cy="154.2881296494395" r="1" fill="green"/>
    <circle cx="49.164978534933745" cy="148.97055960668882" r="1" fill="green"/>
    <circle cx="35.54549300361542" cy="175.03140382066886" r="1" fill="green"/>
    <circle cx="177.1362027262882" cy="29.229909429161793" r="1" fill="green"/>
    <circle cx="165.20482597166134" cy="91.6354104542074" r="1" fill="green"/>
    <circle cx="184.9227989495514" cy="65.23046476252259" r="1" fill="green"/>
    <circle cx="160.59270013290006" cy="29.60483153896806" r="1" fill="green"/>
    <circle cx="38.41244724743028" cy="114.49001072350741" r="1" fill="green"/>
    <circle cx="58.324025823404384" cy="177.82048788215752" r="1" fill="green"/>
    <circle cx="52.23492704294674" cy="104.82923652402931" r="1" fill="green"/>
    <circle cx="44.907022645837976" cy="97.85784844358331" r="1" fill="green"/>
    <circle cx="23.46519801561106" cy="89.94055699466121" r="1" fill="green"/>
    <circle cx="141.0108933090835" cy="191.85646161445456" r="1" fill="green"/>
    <circle cx="86.20401708807124" cy="192.02198077643752" r="1" fill="green"/>
    <circle cx="81.648794225727" cy="68.18829304290848" r="1" fill="green"/>
    <circle cx="122.90840929505207" cy="146.22398996728364" r="1" fill="green"/>
    <circle cx="68.96432762572927" cy="184.1655093868633" r="1" fill="green"/>
    <circle cx="91.53549955187579" cy="171.01096697900826" r="1" fill="green"/>
    <circle cx="154.00927294383476" cy="167.76360634818113" r="1" fill="green"/>
    <circle cx="104.18356617607834" cy="132.85314193775432" r="1" fill="green"/>
    <circle cx="10.64294835940645" cy="126.69448240364162" r="1" fill="green"/>
    <circle cx="139.8744497044258" cy="49.462145341765826" r="1" fill="green"/>
    <circle cx="104.38601436149384" cy="187.74631547883394" r="1" fill="green"/>
    <circle cx="166.3194753674286" cy="90.62667995741481" r="1" fill="green"/>
    <circle cx="188.8038108195385" cy="142.18676678692952" r="1" fill="green"/>
    <circle cx="124.74274623893672" cy="123.80309793607748" r="1" fill="green"/>
    <circle cx="118.21261986558123" cy="2.717379034714482" r="1" fill="green"/>
    <circle cx="37.37471824740168" cy="32.86252015457764" r="1" fill="green"/>
    <circle cx="108.07546528693943" cy="119.36607558597929" r="1" fill="green"/>
    <circle cx="91.26029913770064" cy="188.53269174402308" r="1" fill="green"/>
    <circle cx="165.90949771754168" cy="189.6068913760301" r="1" fill="green"/>
    <circle cx="146.4910701268491" cy="142.5516203823928" r="1" fill="green"/>
    <line x1="5.1" y1="97.1" x2="107.2" y2="9.0" stroke="green" stroke-width="0.2"/>
    <line x1="197.2" y1="73.7" x2="104.1" y2="7.0" stroke="green" stroke-width="0.2"/>
    <line x1="47.0" y1="67.1" x2="142.9" y2="129.4" stroke="green" stroke-width="0.2"/>
    <line x1="6.3" y1="142.5" x2="196.9" y2="101.5" stroke="green" stroke-width="0.2"/>
    <line x1="69.2" y1="103.7" x2="176.3" y2="164.5" stroke="green" stroke-width="0.2"/>
    <line x1="69.2" y1="71.6" x2="13.4" y2="122.1" stroke="green" stroke-width="0.2"/>
    <line x1="184.9" y1="88.5" x2="196.5" y2="115.0" stroke="green" stroke-width="0.2"/>
    <line x1="14.1" y1="86.0" x2="129.2" y2="162.2" stroke="green" stroke-width="0.2"/>
    <line x1="101.4" y1="92.2" x2="149.4" y2="105.8" stroke="green" stroke-width="0.2"/>
    <line x1="53.8" y1="8.7" x2="186.1" y2="29.1" stroke="green" stroke-width="0.2"/>
    <line x1="133.4" y1="20.1" x2="121.4" y2="123.6" stroke="green" stroke-width="0.2"/>
    <line x1="17.2" y1="151.9" x2="172.3" y2="63.2" stroke="green" stroke-width="0.2"/>
    <line x1="13.9" y1="48.0" x2="109.5" y2="137.0" stroke="green" stroke-width="0.2"/>
    <line x1="11.7" y1="176.8" x2="58.3" y2="81.0" stroke="green" stroke-width="0.2"/>
    <line x1="197.0" y1="62.3" x2="150.3" y2="109.7" stroke="green" stroke-width="0.2"/>
    <line x1="182.5" y1="171.1" x2="157.2" y2="68.1" stroke="green" stroke-width="0.2"/>
    <line x1="62.0" y1="128.4" x2="55.2" y2="42.2" stroke="green" stroke-width="0.2"/>
    <line x1="168.5" y1="136.6" x2="125.4" y2="149.2" stroke="green" stroke-width="0.2"/>
    <line x1="178.5" y1="182.4" x2="179.9" y2="154.3" stroke="green" stroke-width="0.2"/>
    <line x1="28.6" y1="139.0" x2="49.2" y2="149.0" stroke="green" stroke-width="0.2"/>
    <line x1="137.6" y1="136.5" x2="35.5" y2="175.0" stroke="green" stroke-width="0.2"/>
    <line x1="11.4" y1="21.0" x2="177.1" y2="29.2" stroke="green" stroke-width="0.2"/>
    <line x1="18.7" y1="144.7" x2="165.2" y2="91.6" stroke="green" stroke-width="0.2"/>
    <line x1="111.1" y1="147.3" x2="184.9" y2="65.2" stroke="green" stroke-width="0.2"/>
    <line x1="114.9" y1="113.1" x2="160.6" y2="29.6" stroke="green" stroke-width="0.2"/>
    <line x1="34.5" y1="3.3" x2="38.4" y2="114.5" stroke="green" stroke-width="0.2"/>
    <line x1="96.5" y1="49.7" x2="58.3" y2="177.8" stroke="green" stroke-width="0.2"/>
    <line x1="52.5" y1="103.0" x2="52.2" y2="104.8" stroke="green" stroke-width="0.2"/>
    <line x1="8.1" y1="59.9" x2="44.9" y2="97.9" stroke="green" stroke-width="0.2"/>
    <line x1="101.7" y1="179.2" x2="23.5" y2="89.9" stroke="green" stroke-width="0.2"/>
    <line x1="116.8" y1="46.5" x2="141.0" y2="191.9" stroke="green" stroke-width="0.2"/>
    <line x1="133.1" y1="164.8" x2="86.2" y2="192.0" stroke="green" stroke-width="0.2"/>
    <line x1="22.3" y1="11.6" x2="81.6" y2="68.2" stroke="green" stroke-width="0.2"/>
    <line x1="143.2" y1="120.5" x2="122.9" y2="146.2" stroke="green" stroke-width="0.2"/>
    <line x1="143.8" y1="31.1" x2="69.0" y2="184.2" stroke="green" stroke-width="0.2"/>
    <line x1="142.5" y1="8.6" x2="91.5" y2="171.0" stroke="green" stroke-width="0.2"/>
    <line x1="22.4" y1="183.6" x2="154.0" y2="167.8" stroke="green" stroke-width="0.2"/>
    <line x1="154.5" y1="116.0" x2="104.2" y2="132.9" stroke="green" stroke-width="0.2"/>
    <line x1="121.9" y1="23.3" x2="10.6" y2="126.7" stroke="green" stroke-width="0.2"/>
    <line x1="100.8" y1="103.1" x2="139.9" y2="49.5" stroke="green" stroke-width="0.2"/>
    <line x1="50.9" y1="165.4" x2="104.4" y2="187.7" stroke="green" stroke-width="0.2"/>
    <line x1="21.7" y1="23.4" x2="166.3" y2="90.6" stroke="green" stroke-width="0.2"/>
    <line x1="54.3" y1="74.5" x2="188.8" y2="142.2" stroke="green" stroke-width="0.2"/>
    <line x1="181.2" y1="98.0" x2="124.7" y2="123.8" stroke="green" stroke-width="0.2"/>
    <line x1="94.0" y1="43.3" x2="118.2" y2="2.7" stroke="green" stroke-width="0.2"/>
    <line x1="156.5" y1="176.6" x2="37.4" y2="32.9" stroke="green" stroke-width="0.2"/>
    <line x1="197.9" y1="55.1" x2="108.1" y2="119.4" stroke="green" stroke-width="0.2"/>
    <line x1="115.3" y1="128.4" x2="91.3" y2="188.5" stroke="green" stroke-width="0.2"/>
    <line x1="175.0" y1="42.6" x2="165.9" y2="189.6" stroke="green" stroke-width="0.2"/>
    <line x1="79.9" y1="36.0" x2="146.5" y2="142.6" stroke="green" stroke-width="0.2"/>
    <circle cx="107.07" cy="9.08" r="1" fill="green"/>
    <circle cx="16.28" cy="87.51" r="1" fill="green"/>
    <circle cx="99.39" cy="15.71" r="1" fill="green"/>
    <circle cx="37.08" cy="69.54" r="1" fill="green"/>
    <circle cx="56.05" cy="53.15" r="1" fill="green"/>
    <circle cx="88.81" cy="24.85" r="1" fill="green"/>
    <circle cx="36.83" cy="69.76" r="1" fill="green"/>
    <circle cx="26.4" cy="78.77" r="1" fill="green"/>
    <circle cx="61.2" cy="48.7" r="1" fill="green"/>
    <circle cx="66.44" cy="44.17" r="1" fill="green"/>
    <circle cx="54.97" cy="54.09" r="1" fill="green"/>
    <circle cx="107.07" cy="9.08" r="1" fill="green"/>
    <circle cx="120.96" cy="19.04" r="1" fill="green"/>
    <circle cx="132.54" cy="27.34" r="1" fill="green"/>
    <circle cx="190.52" cy="68.91" r="1" fill="green"/>
    <circle cx="132.06" cy="26.99" r="1" fill="green"/>
    <circle cx="153.58" cy="42.42" r="1" fill="green"/>
    <circle cx="142.26" cy="34.31" r="1" fill="green"/>
    <circle cx="135.86" cy="29.72" r="1" fill="green"/>
    <circle cx="112.21" cy="12.76" r="1" fill="green"/>
    <circle cx="184.61" cy="64.67" r="1" fill="green"/>
    <circle cx="174.13" cy="57.16" r="1" fill="green"/>
    <circle cx="124.02" cy="117.17" r="1" fill="green"/>
    <circle cx="62.81" cy="77.38" r="1" fill="green"/>
    <circle cx="122.3" cy="116.06" r="1" fill="green"/>
    <circle cx="102.45" cy="103.15" r="1" fill="green"/>
    <circle cx="57.7" cy="74.06" r="1" fill="green"/>
    <circle cx="113.52" cy="110.35" r="1" fill="green"/>
    <circle cx="132.99" cy="123.0" r="1" fill="green"/>
    <circle cx="115.64" cy="111.72" r="1" fill="green"/>
    <circle cx="84.11" cy="91.22" r="1" fill="green"/>
    <circle cx="129.11" cy="120.48" r="1" fill="green"/>
    <circle cx="138.41" cy="126.53" r="1" fill="green"/>
    <circle cx="107.11" cy="106.18" r="1" fill="green"/>
    <circle cx="111.07" cy="108.75" r="1" fill="green"/>
    <circle cx="133.16" cy="123.12" r="1" fill="green"/>
    <circle cx="63.32" cy="77.71" r="1" fill="green"/>
    <circle cx="101.3" cy="102.4" r="1" fill="green"/>
    <circle cx="72.36" cy="83.59" r="1" fill="green"/>
    <circle cx="130.3" cy="121.26" r="1" fill="green"/>
    <circle cx="87.67" cy="93.54" r="1" fill="green"/>
    <circle cx="117.28" cy="112.79" r="1" fill="green"/>
    <circle cx="135.14" cy="124.4" r="1" fill="green"/>
    <circle cx="124.02" cy="117.17" r="1" fill="green"/>
    <circle cx="101.42" cy="122.03" r="1" fill="green"/>
    <circle cx="191.14" cy="102.73" r="1" fill="green"/>
    <circle cx="76.54" cy="127.38" r="1" fill="green"/>
    <circle cx="122.13" cy="117.58" r="1" fill="green"/>
    <circle cx="50.17" cy="133.06" r="1" fill="green"/>
    <circle cx="94.98" cy="123.42" r="1" fill="green"/>
    <circle cx="30.95" cy="137.2" r="1" fill="green"/>
    <circle cx="166.98" cy="107.93" r="1" fill="green"/>
    <circle cx="51.66" cy="132.74" r="1" fill="green"/>
    <circle cx="141.64" cy="113.38" r="1" fill="green"/>
    <circle cx="73.12" cy="128.12" r="1" fill="green"/>
    <circle cx="59.49" cy="131.05" r="1" fill="green"/>
    <circle cx="128.4" cy="116.23" r="1" fill="green"/>
    <circle cx="99.11" cy="122.53" r="1" fill="green"/>
    <circle cx="107.3" cy="120.77" r="1" fill="green"/>
    <circle cx="134.58" cy="114.9" r="1" fill="green"/>
    <circle cx="152.76" cy="110.98" r="1" fill="green"/>
    <circle cx="109.79" cy="120.23" r="1" fill="green"/>
    <circle cx="171.03" cy="107.05" r="1" fill="green"/>
    <circle cx="129.83" cy="115.92" r="1" fill="green"/>
    <circle cx="101.42" cy="122.03" r="1" fill="green"/>
    <circle cx="85.37" cy="112.92" r="1" fill="green"/>
    <circle cx="81.08" cy="110.49" r="1" fill="green"/>
    <circle cx="141.16" cy="144.59" r="1" fill="green"/>
    <circle cx="131.14" cy="138.9" r="1" fill="green"/>
    <circle cx="93.56" cy="117.57" r="1" fill="green"/>
    <circle cx="122.9" cy="134.23" r="1" fill="green"/>
    <circle cx="78.76" cy="109.17" r="1" fill="green"/>
    <circle cx="132.29" cy="139.56" r="1" fill="green"/>
    <circle cx="129.43" cy="137.93" r="1" fill="green"/>
    <circle cx="99.8" cy="121.11" r="1" fill="green"/>
    <circle cx="106.07" cy="124.67" r="1" fill="green"/>
    <circle cx="114.42" cy="129.41" r="1" fill="green"/>
    <circle cx="120.05" cy="132.61" r="1" fill="green"/>
    <circle cx="114.83" cy="129.64" r="1" fill="green"/>
    <circle cx="167.77" cy="159.69" r="1" fill="green"/>
    <circle cx="62.81" cy="77.38" r="1" fill="green"/>
    <circle cx="36.67" cy="101.0" r="1" fill="green"/>
    <circle cx="54.03" cy="85.31" r="1" fill="green"/>
    <circle cx="57.89" cy="81.83" r="1" fill="green"/>
    <circle cx="58.29" cy="81.47" r="1" fill="green"/>
    <circle cx="37.9" cy="99.9" r="1" fill="green"/>
    <circle cx="42.69" cy="95.57" r="1" fill="green"/>
    <circle cx="34.71" cy="102.77" r="1" fill="green"/>
    <circle cx="61.81" cy="78.28" r="1" fill="green"/>
    <circle cx="191.14" cy="102.73" r="1" fill="green"/>
    <circle cx="16.28" cy="87.51" r="1" fill="green"/>
    <circle cx="76.54" cy="127.38" r="1" fill="green"/>
    <circle cx="36.67" cy="101.0" r="1" fill="green"/>
    <circle cx="68.91" cy="122.34" r="1" fill="green"/>
    <circle cx="45.66" cy="106.95" r="1" fill="green"/>
    <circle cx="61.11" cy="117.17" r="1" fill="green"/>
    <circle cx="107.47" cy="147.85" r="1" fill="green"/>
    <circle cx="72.97" cy="125.02" r="1" fill="green"/>
    <circle cx="37.97" cy="101.86" r="1" fill="green"/>
    <circle cx="73.87" cy="125.61" r="1" fill="green"/>
    <circle cx="28.31" cy="95.47" r="1" fill="green"/>
    <circle cx="91.8" cy="137.48" r="1" fill="green"/>
    <circle cx="100.29" cy="143.1" r="1" fill="green"/>
    <circle cx="37.61" cy="101.62" r="1" fill="green"/>
    <circle cx="107.53" cy="147.89" r="1" fill="green"/>
    <circle cx="124.31" cy="98.71" r="1" fill="green"/>
    <circle cx="114.88" cy="96.04" r="1" fill="green"/>
    <circle cx="136.31" cy="102.1" r="1" fill="green"/>
    <circle cx="148.65" cy="105.58" r="1" fill="green"/>
    <circle cx="122.97" cy="98.33" r="1" fill="green"/>
    <circle cx="125.54" cy="99.05" r="1" fill="green"/>
    <circle cx="112.41" cy="95.34" r="1" fill="green"/>
    <circle cx="115.04" cy="96.09" r="1" fill="green"/>
    <circle cx="107.47" cy="93.95" r="1" fill="green"/>
    <circle cx="133.39" cy="101.27" r="1" fill="green"/>
    <circle cx="117.94" cy="96.91" r="1" fill="green"/>
    <circle cx="99.39" cy="15.71" r="1" fill="green"/>
    <circle cx="120.96" cy="19.04" r="1" fill="green"/>
    <circle cx="133.28" cy="20.94" r="1" fill="green"/>
    <circle cx="138.37" cy="21.73" r="1" fill="green"/>
    <circle cx="109.51" cy="17.27" r="1" fill="green"/>
    <circle cx="132.54" cy="27.34" r="1" fill="green"/>
    <circle cx="122.3" cy="116.06" r="1" fill="green"/>
    <circle cx="122.13" cy="117.58" r="1" fill="green"/>
    <circle cx="124.31" cy="98.71" r="1" fill="green"/>
    <circle cx="133.28" cy="20.94" r="1" fill="green"/>
    <circle cx="125.3" cy="90.08" r="1" fill="green"/>
    <circle cx="132.58" cy="27.02" r="1" fill="green"/>
    <circle cx="123.38" cy="106.78" r="1" fill="green"/>
    <circle cx="124.72" cy="95.14" r="1" fill="green"/>
    <circle cx="124.79" cy="94.55" r="1" fill="green"/>
    <circle cx="128.49" cy="62.45" r="1" fill="green"/>
    <circle cx="130.18" cy="47.84" r="1" fill="green"/>
    <circle cx="128.13" cy="65.58" r="1" fill="green"/>
    <circle cx="127.33" cy="72.49" r="1" fill="green"/>
    <circle cx="123.1" cy="109.12" r="1" fill="green"/>
    <circle cx="123.17" cy="108.58" r="1" fill="green"/>
    <circle cx="123.49" cy="105.78" r="1" fill="green"/>
    <circle cx="102.45" cy="103.15" r="1" fill="green"/>
    <circle cx="50.17" cy="133.06" r="1" fill="green"/>
    <circle cx="85.37" cy="112.92" r="1" fill="green"/>
    <circle cx="68.91" cy="122.34" r="1" fill="green"/>
    <circle cx="114.88" cy="96.04" r="1" fill="green"/>
    <circle cx="125.3" cy="90.08" r="1" fill="green"/>
    <circle cx="84.34" cy="113.51" r="1" fill="green"/>
    <circle cx="26.33" cy="146.7" r="1" fill="green"/>
    <circle cx="157.98" cy="71.39" r="1" fill="green"/>
    <circle cx="61.84" cy="126.38" r="1" fill="green"/>
    <circle cx="34.65" cy="141.94" r="1" fill="green"/>
    <circle cx="49.13" cy="133.65" r="1" fill="green"/>
    <circle cx="128.48" cy="88.26" r="1" fill="green"/>
    <circle cx="76.06" cy="118.25" r="1" fill="green"/>
    <circle cx="57.55" cy="128.84" r="1" fill="green"/>
    <circle cx="124.15" cy="90.74" r="1" fill="green"/>
    <circle cx="110.97" cy="98.28" r="1" fill="green"/>
    <circle cx="115.09" cy="95.92" r="1" fill="green"/>
    <circle cx="143.17" cy="79.86" r="1" fill="green"/>
    <circle cx="106.56" cy="100.8" r="1" fill="green"/>
    <circle cx="97.83" cy="105.8" r="1" fill="green"/>
    <circle cx="116.73" cy="94.98" r="1" fill="green"/>
    <circle cx="37.08" cy="69.54" r="1" fill="green"/>
    <circle cx="94.98" cy="123.42" r="1" fill="green"/>
    <circle cx="81.08" cy="110.49" r="1" fill="green"/>
    <circle cx="54.03" cy="85.31" r="1" fill="green"/>
    <circle cx="84.34" cy="113.51" r="1" fill="green"/>
    <circle cx="55.52" cy="86.7" r="1" fill="green"/>
    <circle cx="58.95" cy="89.9" r="1" fill="green"/>
    <circle cx="90.06" cy="118.84" r="1" fill="green"/>
    <circle cx="36.81" cy="69.29" r="1" fill="green"/>
    <circle cx="78.96" cy="108.51" r="1" fill="green"/>
    <circle cx="97.52" cy="125.78" r="1" fill="green"/>
    <circle cx="103.87" cy="131.69" r="1" fill="green"/>
    <circle cx="104.87" cy="132.62" r="1" fill="green"/>
    <circle cx="54.59" cy="85.83" r="1" fill="green"/>
    <circle cx="30.95" cy="137.2" r="1" fill="green"/>
    <circle cx="57.89" cy="81.83" r="1" fill="green"/>
    <circle cx="45.66" cy="106.95" r="1" fill="green"/>
    <circle cx="26.33" cy="146.7" r="1" fill="green"/>
    <circle cx="55.52" cy="86.7" r="1" fill="green"/>
    <circle cx="58.26" cy="81.07" r="1" fill="green"/>
    <circle cx="29.79" cy="139.58" r="1" fill="green"/>
    <circle cx="29.16" cy="140.89" r="1" fill="green"/>
    <circle cx="43.06" cy="112.3" r="1" fill="green"/>
    <circle cx="57.06" cy="83.53" r="1" fill="green"/>
    <circle cx="190.52" cy="68.91" r="1" fill="green"/>
    <circle cx="164.0" cy="95.83" r="1" fill="green"/>
    <circle cx="172.25" cy="87.45" r="1" fill="green"/>
    <circle cx="166.98" cy="107.93" r="1" fill="green"/>
    <circle cx="157.98" cy="71.39" r="1" fill="green"/>
    <circle cx="164.0" cy="95.83" r="1" fill="green"/>
    <circle cx="179.66" cy="159.4" r="1" fill="green"/>
    <circle cx="163.15" cy="92.38" r="1" fill="green"/>
    <circle cx="162.58" cy="90.08" r="1" fill="green"/>
    <circle cx="162.25" cy="88.73" r="1" fill="green"/>
    <circle cx="173.52" cy="134.5" r="1" fill="green"/>
    <circle cx="166.22" cy="104.83" r="1" fill="green"/>
    <circle cx="160.56" cy="81.86" r="1" fill="green"/>
    <circle cx="170.17" cy="120.9" r="1" fill="green"/>
    <circle cx="56.05" cy="53.15" r="1" fill="green"/>
    <circle cx="57.7" cy="74.06" r="1" fill="green"/>
    <circle cx="58.29" cy="81.47" r="1" fill="green"/>
    <circle cx="61.11" cy="117.17" r="1" fill="green"/>
    <circle cx="61.84" cy="126.38" r="1" fill="green"/>
    <circle cx="58.95" cy="89.9" r="1" fill="green"/>
    <circle cx="58.26" cy="81.07" r="1" fill="green"/>
    <circle cx="55.25" cy="43.03" r="1" fill="green"/>
    <circle cx="58.36" cy="82.32" r="1" fill="green"/>
    <circle cx="57.88" cy="76.3" r="1" fill="green"/>
    <circle cx="56.24" cy="55.63" r="1" fill="green"/>
    <circle cx="141.16" cy="144.59" r="1" fill="green"/>
    <circle cx="133.5" cy="146.84" r="1" fill="green"/>
    <circle cx="132.17" cy="147.23" r="1" fill="green"/>
    <circle cx="179.66" cy="159.4" r="1" fill="green"/>
    <circle cx="34.65" cy="141.94" r="1" fill="green"/>
    <circle cx="29.79" cy="139.58" r="1" fill="green"/>
    <circle cx="31.06" cy="140.2" r="1" fill="green"/>
    <circle cx="131.14" cy="138.9" r="1" fill="green"/>
    <circle cx="107.47" cy="147.85" r="1" fill="green"/>
    <circle cx="112.29" cy="146.03" r="1" fill="green"/>
    <circle cx="62.15" cy="164.98" r="1" fill="green"/>
    <circle cx="82.48" cy="157.29" r="1" fill="green"/>
    <circle cx="132.12" cy="138.54" r="1" fill="green"/>
    <circle cx="127.62" cy="140.24" r="1" fill="green"/>
    <circle cx="82.02" cy="157.47" r="1" fill="green"/>
    <circle cx="97.64" cy="151.57" r="1" fill="green"/>
    <circle cx="55.67" cy="167.42" r="1" fill="green"/>
    <circle cx="126.67" cy="140.59" r="1" fill="green"/>
    <circle cx="107.56" cy="147.82" r="1" fill="green"/>
    <circle cx="88.81" cy="24.85" r="1" fill="green"/>
    <circle cx="132.06" cy="26.99" r="1" fill="green"/>
    <circle cx="132.58" cy="27.02" r="1" fill="green"/>
    <circle cx="35.14" cy="22.19" r="1" fill="green"/>
    <circle cx="33.28" cy="22.1" r="1" fill="green"/>
    <circle cx="136.65" cy="27.22" r="1" fill="green"/>
    <circle cx="118.57" cy="26.33" r="1" fill="green"/>
    <circle cx="104.51" cy="25.63" r="1" fill="green"/>
    <circle cx="113.52" cy="110.35" r="1" fill="green"/>
    <circle cx="51.66" cy="132.74" r="1" fill="green"/>
    <circle cx="93.56" cy="117.57" r="1" fill="green"/>
    <circle cx="72.97" cy="125.02" r="1" fill="green"/>
    <circle cx="136.31" cy="102.1" r="1" fill="green"/>
    <circle cx="123.38" cy="106.78" r="1" fill="green"/>
    <circle cx="49.13" cy="133.65" r="1" fill="green"/>
    <circle cx="90.06" cy="118.84" r="1" fill="green"/>
    <circle cx="29.16" cy="140.89" r="1" fill="green"/>
    <circle cx="163.15" cy="92.38" r="1" fill="green"/>
    <circle cx="31.06" cy="140.2" r="1" fill="green"/>
    <circle cx="159.25" cy="93.79" r="1" fill="green"/>
    <circle cx="117.1" cy="109.05" r="1" fill="green"/>
    <circle cx="74.17" cy="124.59" r="1" fill="green"/>
    <circle cx="58.73" cy="130.18" r="1" fill="green"/>
    <circle cx="126.63" cy="105.6" r="1" fill="green"/>
    <circle cx="103.25" cy="114.06" r="1" fill="green"/>
    <circle cx="110.19" cy="111.55" r="1" fill="green"/>
    <circle cx="120.51" cy="107.82" r="1" fill="green"/>
    <circle cx="104.35" cy="113.66" r="1" fill="green"/>
    <circle cx="128.07" cy="105.08" r="1" fill="green"/>
    <circle cx="123.98" cy="106.56" r="1" fill="green"/>
    <circle cx="132.99" cy="123.0" r="1" fill="green"/>
    <circle cx="141.64" cy="113.38" r="1" fill="green"/>
    <circle cx="122.9" cy="134.23" r="1" fill="green"/>
    <circle cx="148.65" cy="105.58" r="1" fill="green"/>
    <circle cx="162.58" cy="90.08" r="1" fill="green"/>
    <circle cx="112.29" cy="146.03" r="1" fill="green"/>
    <circle cx="159.25" cy="93.79" r="1" fill="green"/>
    <circle cx="130.07" cy="126.25" r="1" fill="green"/>
    <circle cx="132.77" cy="123.25" r="1" fill="green"/>
    <circle cx="163.34" cy="89.24" r="1" fill="green"/>
    <circle cx="138.5" cy="116.87" r="1" fill="green"/>
    <circle cx="137.53" cy="117.95" r="1" fill="green"/>
    <circle cx="122.12" cy="135.1" r="1" fill="green"/>
    <circle cx="172.79" cy="78.73" r="1" fill="green"/>
    <circle cx="133.74" cy="122.17" r="1" fill="green"/>
    <circle cx="153.58" cy="42.42" r="1" fill="green"/>
    <circle cx="115.64" cy="111.72" r="1" fill="green"/>
    <circle cx="122.97" cy="98.33" r="1" fill="green"/>
    <circle cx="124.72" cy="95.14" r="1" fill="green"/>
    <circle cx="128.48" cy="88.26" r="1" fill="green"/>
    <circle cx="117.1" cy="109.05" r="1" fill="green"/>
    <circle cx="124.85" cy="94.9" r="1" fill="green"/>
    <circle cx="135.13" cy="76.12" r="1" fill="green"/>
    <circle cx="118.37" cy="106.74" r="1" fill="green"/>
    <circle cx="121.04" cy="101.86" r="1" fill="green"/>
    <circle cx="36.83" cy="69.76" r="1" fill="green"/>
    <circle cx="37.9" cy="99.9" r="1" fill="green"/>
    <circle cx="37.97" cy="101.86" r="1" fill="green"/>
    <circle cx="36.81" cy="69.29" r="1" fill="green"/>
    <circle cx="35.14" cy="22.19" r="1" fill="green"/>
    <circle cx="37.55" cy="90.28" r="1" fill="green"/>
    <circle cx="38.14" cy="106.68" r="1" fill="green"/>
    <circle cx="35.2" cy="23.93" r="1" fill="green"/>
    <circle cx="37.95" cy="101.3" r="1" fill="green"/>
    <circle cx="35.41" cy="29.73" r="1" fill="green"/>
    <circle cx="84.11" cy="91.22" r="1" fill="green"/>
    <circle cx="73.12" cy="128.12" r="1" fill="green"/>
    <circle cx="78.76" cy="109.17" r="1" fill="green"/>
    <circle cx="73.87" cy="125.61" r="1" fill="green"/>
    <circle cx="76.06" cy="118.25" r="1" fill="green"/>
    <circle cx="78.96" cy="108.51" r="1" fill="green"/>
    <circle cx="62.15" cy="164.98" r="1" fill="green"/>
    <circle cx="74.17" cy="124.59" r="1" fill="green"/>
    <circle cx="69.01" cy="141.92" r="1" fill="green"/>
    <circle cx="60.78" cy="169.56" r="1" fill="green"/>
    <circle cx="94.26" cy="57.11" r="1" fill="green"/>
    <circle cx="84.55" cy="89.72" r="1" fill="green"/>
    <circle cx="84.54" cy="89.77" r="1" fill="green"/>
    <circle cx="93.87" cy="58.43" r="1" fill="green"/>
    <circle cx="26.4" cy="78.77" r="1" fill="green"/>
    <circle cx="42.69" cy="95.57" r="1" fill="green"/>
    <circle cx="37.55" cy="90.28" r="1" fill="green"/>
    <circle cx="43.36" cy="96.27" r="1" fill="green"/>
    <circle cx="59.49" cy="131.05" r="1" fill="green"/>
    <circle cx="34.71" cy="102.77" r="1" fill="green"/>
    <circle cx="28.31" cy="95.47" r="1" fill="green"/>
    <circle cx="57.55" cy="128.84" r="1" fill="green"/>
    <circle cx="43.06" cy="112.3" r="1" fill="green"/>
    <circle cx="82.48" cy="157.29" r="1" fill="green"/>
    <circle cx="58.73" cy="130.18" r="1" fill="green"/>
    <circle cx="38.14" cy="106.68" r="1" fill="green"/>
    <circle cx="69.01" cy="141.92" r="1" fill="green"/>
    <circle cx="82.24" cy="157.02" r="1" fill="green"/>
    <circle cx="92.32" cy="168.52" r="1" fill="green"/>
    <circle cx="97.6" cy="174.54" r="1" fill="green"/>
    <circle cx="35.45" cy="103.62" r="1" fill="green"/>
    <circle cx="97.09" cy="173.96" r="1" fill="green"/>
    <circle cx="129.11" cy="120.48" r="1" fill="green"/>
    <circle cx="128.4" cy="116.23" r="1" fill="green"/>
    <circle cx="132.29" cy="139.56" r="1" fill="green"/>
    <circle cx="125.54" cy="99.05" r="1" fill="green"/>
    <circle cx="124.79" cy="94.55" r="1" fill="green"/>
    <circle cx="124.15" cy="90.74" r="1" fill="green"/>
    <circle cx="133.5" cy="146.84" r="1" fill="green"/>
    <circle cx="132.12" cy="138.54" r="1" fill="green"/>
    <circle cx="126.63" cy="105.6" r="1" fill="green"/>
    <circle cx="130.07" cy="126.25" r="1" fill="green"/>
    <circle cx="124.85" cy="94.9" r="1" fill="green"/>
    <circle cx="131.57" cy="135.22" r="1" fill="green"/>
    <circle cx="121.74" cy="76.26" r="1" fill="green"/>
    <circle cx="121.57" cy="75.27" r="1" fill="green"/>
    <circle cx="137.33" cy="169.77" r="1" fill="green"/>
    <circle cx="129.74" cy="124.27" r="1" fill="green"/>
    <circle cx="121.48" cy="74.71" r="1" fill="green"/>
    <circle cx="120.59" cy="69.35" r="1" fill="green"/>
    <circle cx="127.59" cy="111.38" r="1" fill="green"/>
    <circle cx="129.32" cy="121.71" r="1" fill="green"/>
    <circle cx="133.92" cy="149.34" r="1" fill="green"/>
    <circle cx="126.7" cy="106.05" r="1" fill="green"/>
    <circle cx="127.81" cy="112.69" r="1" fill="green"/>
    <circle cx="121.15" cy="171.71" r="1" fill="green"/>
    <circle cx="98.08" cy="185.12" r="1" fill="green"/>
    <circle cx="61.2" cy="48.7" r="1" fill="green"/>
    <circle cx="55.25" cy="43.03" r="1" fill="green"/>
    <circle cx="33.28" cy="22.1" r="1" fill="green"/>
    <circle cx="35.2" cy="23.93" r="1" fill="green"/>
    <circle cx="77.65" cy="64.38" r="1" fill="green"/>
    <circle cx="46.91" cy="35.09" r="1" fill="green"/>
    <circle cx="138.41" cy="126.53" r="1" fill="green"/>
    <circle cx="129.43" cy="137.93" r="1" fill="green"/>
    <circle cx="127.62" cy="140.24" r="1" fill="green"/>
    <circle cx="131.57" cy="135.22" r="1" fill="green"/>
    <circle cx="127.01" cy="141.01" r="1" fill="green"/>
    <circle cx="137.33" cy="127.9" r="1" fill="green"/>
    <circle cx="142.26" cy="34.31" r="1" fill="green"/>
    <circle cx="107.11" cy="106.18" r="1" fill="green"/>
    <circle cx="99.11" cy="122.53" r="1" fill="green"/>
    <circle cx="99.8" cy="121.11" r="1" fill="green"/>
    <circle cx="91.8" cy="137.48" r="1" fill="green"/>
    <circle cx="112.41" cy="95.34" r="1" fill="green"/>
    <circle cx="128.49" cy="62.45" r="1" fill="green"/>
    <circle cx="110.97" cy="98.28" r="1" fill="green"/>
    <circle cx="97.52" cy="125.78" r="1" fill="green"/>
    <circle cx="82.02" cy="157.47" r="1" fill="green"/>
    <circle cx="103.25" cy="114.06" r="1" fill="green"/>
    <circle cx="82.24" cy="157.02" r="1" fill="green"/>
    <circle cx="121.74" cy="76.26" r="1" fill="green"/>
    <circle cx="120.41" cy="78.98" r="1" fill="green"/>
    <circle cx="72.18" cy="177.6" r="1" fill="green"/>
    <circle cx="124.57" cy="70.47" r="1" fill="green"/>
    <circle cx="73.51" cy="174.87" r="1" fill="green"/>
    <circle cx="124.28" cy="71.07" r="1" fill="green"/>
    <circle cx="109.11" cy="102.08" r="1" fill="green"/>
    <circle cx="103.78" cy="112.98" r="1" fill="green"/>
    <circle cx="114.4" cy="91.25" r="1" fill="green"/>
    <circle cx="135.86" cy="29.72" r="1" fill="green"/>
    <circle cx="111.07" cy="108.75" r="1" fill="green"/>
    <circle cx="107.3" cy="120.77" r="1" fill="green"/>
    <circle cx="106.07" cy="124.67" r="1" fill="green"/>
    <circle cx="100.29" cy="143.1" r="1" fill="green"/>
    <circle cx="115.04" cy="96.09" r="1" fill="green"/>
    <circle cx="138.37" cy="21.73" r="1" fill="green"/>
    <circle cx="130.18" cy="47.84" r="1" fill="green"/>
    <circle cx="115.09" cy="95.92" r="1" fill="green"/>
    <circle cx="103.87" cy="131.69" r="1" fill="green"/>
    <circle cx="97.64" cy="151.57" r="1" fill="green"/>
    <circle cx="136.65" cy="27.22" r="1" fill="green"/>
    <circle cx="110.19" cy="111.55" r="1" fill="green"/>
    <circle cx="92.32" cy="168.52" r="1" fill="green"/>
    <circle cx="121.57" cy="75.27" r="1" fill="green"/>
    <circle cx="120.41" cy="78.98" r="1" fill="green"/>
    <circle cx="121.95" cy="74.07" r="1" fill="green"/>
    <circle cx="123.07" cy="70.51" r="1" fill="green"/>
    <circle cx="112.61" cy="103.84" r="1" fill="green"/>
    <circle cx="108.11" cy="118.2" r="1" fill="green"/>
    <circle cx="115.84" cy="93.55" r="1" fill="green"/>
    <circle cx="97.6" cy="174.54" r="1" fill="green"/>
    <circle cx="137.33" cy="169.77" r="1" fill="green"/>
    <circle cx="121.15" cy="171.71" r="1" fill="green"/>
    <circle cx="72.18" cy="177.6" r="1" fill="green"/>
    <circle cx="78.29" cy="176.86" r="1" fill="green"/>
    <circle cx="149.63" cy="168.29" r="1" fill="green"/>
    <circle cx="96.82" cy="174.63" r="1" fill="green"/>
    <circle cx="133.16" cy="123.12" r="1" fill="green"/>
    <circle cx="114.42" cy="129.41" r="1" fill="green"/>
    <circle cx="104.87" cy="132.62" r="1" fill="green"/>
    <circle cx="132.77" cy="123.25" r="1" fill="green"/>
    <circle cx="129.74" cy="124.27" r="1" fill="green"/>
    <circle cx="143.81" cy="119.54" r="1" fill="green"/>
    <circle cx="116.75" cy="128.63" r="1" fill="green"/>
    <circle cx="115.0" cy="129.22" r="1" fill="green"/>
    <circle cx="134.13" cy="122.79" r="1" fill="green"/>
    <circle cx="63.32" cy="77.71" r="1" fill="green"/>
    <circle cx="37.61" cy="101.62" r="1" fill="green"/>
    <circle cx="54.59" cy="85.83" r="1" fill="green"/>
    <circle cx="57.06" cy="83.53" r="1" fill="green"/>
    <circle cx="58.36" cy="82.32" r="1" fill="green"/>
    <circle cx="118.57" cy="26.33" r="1" fill="green"/>
    <circle cx="37.95" cy="101.3" r="1" fill="green"/>
    <circle cx="43.36" cy="96.27" r="1" fill="green"/>
    <circle cx="35.45" cy="103.62" r="1" fill="green"/>
    <circle cx="77.65" cy="64.38" r="1" fill="green"/>
    <circle cx="88.4" cy="54.38" r="1" fill="green"/>
    <circle cx="62.39" cy="78.57" r="1" fill="green"/>
    <circle cx="69.66" cy="71.81" r="1" fill="green"/>
    <circle cx="90.26" cy="52.65" r="1" fill="green"/>
    <circle cx="101.3" cy="102.4" r="1" fill="green"/>
    <circle cx="107.47" cy="93.95" r="1" fill="green"/>
    <circle cx="128.13" cy="65.58" r="1" fill="green"/>
    <circle cx="121.48" cy="74.71" r="1" fill="green"/>
    <circle cx="124.57" cy="70.47" r="1" fill="green"/>
    <circle cx="121.95" cy="74.07" r="1" fill="green"/>
    <circle cx="124.17" cy="71.02" r="1" fill="green"/>
    <circle cx="103.57" cy="99.29" r="1" fill="green"/>
    <circle cx="112.11" cy="87.58" r="1" fill="green"/>
    <circle cx="55.67" cy="167.42" r="1" fill="green"/>
    <circle cx="60.78" cy="169.56" r="1" fill="green"/>
    <circle cx="98.08" cy="185.12" r="1" fill="green"/>
    <circle cx="73.51" cy="174.87" r="1" fill="green"/>
    <circle cx="78.29" cy="176.86" r="1" fill="green"/>
    <circle cx="93.41" cy="183.17" r="1" fill="green"/>
    <circle cx="66.44" cy="44.17" r="1" fill="green"/>
    <circle cx="127.33" cy="72.49" r="1" fill="green"/>
    <circle cx="143.17" cy="79.86" r="1" fill="green"/>
    <circle cx="162.25" cy="88.73" r="1" fill="green"/>
    <circle cx="163.34" cy="89.24" r="1" fill="green"/>
    <circle cx="135.13" cy="76.12" r="1" fill="green"/>
    <circle cx="35.41" cy="29.73" r="1" fill="green"/>
    <circle cx="94.26" cy="57.11" r="1" fill="green"/>
    <circle cx="120.59" cy="69.35" r="1" fill="green"/>
    <circle cx="46.91" cy="35.09" r="1" fill="green"/>
    <circle cx="124.28" cy="71.07" r="1" fill="green"/>
    <circle cx="123.07" cy="70.51" r="1" fill="green"/>
    <circle cx="88.4" cy="54.38" r="1" fill="green"/>
    <circle cx="124.17" cy="71.02" r="1" fill="green"/>
    <circle cx="155.4" cy="85.55" r="1" fill="green"/>
    <circle cx="92.55" cy="56.31" r="1" fill="green"/>
    <circle cx="72.36" cy="83.59" r="1" fill="green"/>
    <circle cx="134.58" cy="114.9" r="1" fill="green"/>
    <circle cx="61.81" cy="78.28" r="1" fill="green"/>
    <circle cx="123.1" cy="109.12" r="1" fill="green"/>
    <circle cx="106.56" cy="100.8" r="1" fill="green"/>
    <circle cx="173.52" cy="134.5" r="1" fill="green"/>
    <circle cx="57.88" cy="76.3" r="1" fill="green"/>
    <circle cx="120.51" cy="107.82" r="1" fill="green"/>
    <circle cx="138.5" cy="116.87" r="1" fill="green"/>
    <circle cx="118.37" cy="106.74" r="1" fill="green"/>
    <circle cx="84.55" cy="89.72" r="1" fill="green"/>
    <circle cx="127.59" cy="111.38" r="1" fill="green"/>
    <circle cx="109.11" cy="102.08" r="1" fill="green"/>
    <circle cx="112.61" cy="103.84" r="1" fill="green"/>
    <circle cx="143.81" cy="119.54" r="1" fill="green"/>
    <circle cx="62.39" cy="78.57" r="1" fill="green"/>
    <circle cx="103.57" cy="99.29" r="1" fill="green"/>
    <circle cx="139.16" cy="117.21" r="1" fill="green"/>
    <circle cx="84.47" cy="89.68" r="1" fill="green"/>
    <circle cx="122.7" cy="108.92" r="1" fill="green"/>
    <circle cx="169.46" cy="132.45" r="1" fill="green"/>
    <circle cx="126.72" cy="110.94" r="1" fill="green"/>
    <circle cx="130.3" cy="121.26" r="1" fill="green"/>
    <circle cx="152.76" cy="110.98" r="1" fill="green"/>
    <circle cx="166.22" cy="104.83" r="1" fill="green"/>
    <circle cx="137.53" cy="117.95" r="1" fill="green"/>
    <circle cx="129.32" cy="121.71" r="1" fill="green"/>
    <circle cx="139.16" cy="117.21" r="1" fill="green"/>
    <circle cx="171.32" cy="102.5" r="1" fill="green"/>
    <circle cx="132.53" cy="120.24" r="1" fill="green"/>
    <circle cx="112.21" cy="12.76" r="1" fill="green"/>
    <circle cx="109.51" cy="17.27" r="1" fill="green"/>
    <circle cx="104.51" cy="25.63" r="1" fill="green"/>
    <circle cx="54.97" cy="54.09" r="1" fill="green"/>
    <circle cx="87.67" cy="93.54" r="1" fill="green"/>
    <circle cx="109.79" cy="120.23" r="1" fill="green"/>
    <circle cx="120.05" cy="132.61" r="1" fill="green"/>
    <circle cx="97.83" cy="105.8" r="1" fill="green"/>
    <circle cx="56.24" cy="55.63" r="1" fill="green"/>
    <circle cx="132.17" cy="147.23" r="1" fill="green"/>
    <circle cx="126.67" cy="140.59" r="1" fill="green"/>
    <circle cx="104.35" cy="113.66" r="1" fill="green"/>
    <circle cx="122.12" cy="135.1" r="1" fill="green"/>
    <circle cx="84.54" cy="89.77" r="1" fill="green"/>
    <circle cx="133.92" cy="149.34" r="1" fill="green"/>
    <circle cx="127.01" cy="141.01" r="1" fill="green"/>
    <circle cx="103.78" cy="112.98" r="1" fill="green"/>
    <circle cx="108.11" cy="118.2" r="1" fill="green"/>
    <circle cx="149.63" cy="168.29" r="1" fill="green"/>
    <circle cx="116.75" cy="128.63" r="1" fill="green"/>
    <circle cx="69.66" cy="71.81" r="1" fill="green"/>
    <circle cx="84.47" cy="89.68" r="1" fill="green"/>
    <circle cx="108.7" cy="118.92" r="1" fill="green"/>
    <circle cx="184.61" cy="64.67" r="1" fill="green"/>
    <circle cx="117.28" cy="112.79" r="1" fill="green"/>
    <circle cx="133.39" cy="101.27" r="1" fill="green"/>
    <circle cx="123.17" cy="108.58" r="1" fill="green"/>
    <circle cx="160.56" cy="81.86" r="1" fill="green"/>
    <circle cx="128.07" cy="105.08" r="1" fill="green"/>
    <circle cx="126.7" cy="106.05" r="1" fill="green"/>
    <circle cx="155.4" cy="85.55" r="1" fill="green"/>
    <circle cx="122.7" cy="108.92" r="1" fill="green"/>
    <circle cx="108.7" cy="118.92" r="1" fill="green"/>
    <circle cx="173.16" cy="72.86" r="1" fill="green"/>
    <circle cx="124.6" cy="107.56" r="1" fill="green"/>
    <circle cx="114.83" cy="129.64" r="1" fill="green"/>
    <circle cx="107.53" cy="147.89" r="1" fill="green"/>
    <circle cx="107.56" cy="147.82" r="1" fill="green"/>
    <circle cx="97.09" cy="173.96" r="1" fill="green"/>
    <circle cx="96.82" cy="174.63" r="1" fill="green"/>
    <circle cx="115.0" cy="129.22" r="1" fill="green"/>
    <circle cx="93.41" cy="183.17" r="1" fill="green"/>
    <circle cx="174.13" cy="57.16" r="1" fill="green"/>
    <circle cx="171.03" cy="107.05" r="1" fill="green"/>
    <circle cx="167.77" cy="159.69" r="1" fill="green"/>
    <circle cx="172.25" cy="87.45" r="1" fill="green"/>
    <circle cx="170.17" cy="120.9" r="1" fill="green"/>
    <circle cx="172.79" cy="78.73" r="1" fill="green"/>
    <circle cx="169.46" cy="132.45" r="1" fill="green"/>
    <circle cx="171.32" cy="102.5" r="1" fill="green"/>
    <circle cx="173.16" cy="72.86" r="1" fill="green"/>
    <circle cx="135.14" cy="124.4" r="1" fill="green"/>
    <circle cx="129.83" cy="115.92" r="1" fill="green"/>
    <circle cx="117.94" cy="96.91" r="1" fill="green"/>
    <circle cx="123.49" cy="105.78" r="1" fill="green"/>
    <circle cx="116.73" cy="94.98" r="1" fill="green"/>
    <circle cx="123.98" cy="106.56" r="1" fill="green"/>
    <circle cx="133.74" cy="122.17" r="1" fill="green"/>
    <circle cx="121.04" cy="101.86" r="1" fill="green"/>
    <circle cx="93.87" cy="58.43" r="1" fill="green"/>
    <circle cx="127.81" cy="112.69" r="1" fill="green"/>
    <circle cx="137.33" cy="127.9" r="1" fill="green"/>
    <circle cx="114.4" cy="91.25" r="1" fill="green"/>
    <circle cx="115.84" cy="93.55" r="1" fill="green"/>
    <circle cx="134.13" cy="122.79" r="1" fill="green"/>
    <circle cx="90.26" cy="52.65" r="1" fill="green"/>
    <circle cx="112.11" cy="87.58" r="1" fill="green"/>
    <circle cx="92.55" cy="56.31" r="1" fill="green"/>
    <circle cx="126.72" cy="110.94" r="1" fill="green"/>
    <circle cx="132.53" cy="120.24" r="1" fill="green"/>
    <circle cx="124.6" cy="107.56" r="1" fill="green"/>
  </g>
</svg>
