<?xml version='1.0' encoding='UTF-8' standalone='no'?>
<svg xmlns="http://www.w3.org/2000/svg" xmlns:xlink="http://www.w3.org/1999/xlink" version="1.1" width="200" height="200" viewBox="0 0 200 200" style="border:1px solid black">
  <defs>
    <clipPath id="clip">
      <rect x="0" y="0" width="200" height="200"/>
    </clipPath>
  </defs>
  <g clip-path="url(#clip)">
    <line x1="164.3" y1="301.9" x2="184.2" y2="179.2"/>
    <line x1="457.3" y1="173.0" x2="184.2" y2="179.2"/>
    <line x1="164.3" y1="301.9" x2="154.6" y2="208.3"/>
    <line x1="184.2" y1="179.2" x2="181.6" y2="178.3"/>
    <line x1="181.6" y1="178.3" x2="159.6" y2="190.0"/>
    <line x1="154.6" y1="208.3" x2="159.6" y2="190.0"/>
    <line x1="129.4" y1="183.1" x2="154.6" y2="208.3"/>
    <line x1="129.4" y1="183.1" x2="123.4" y2="182.8"/>
    <line x1="123.4" y1="182.8" x2="66.1" y2="804.5"/>
    <line x1="82.5" y1="187.8" x2="75.8" y2="249.8"/>
    <line x1="82.5" y1="187.8" x2="62.8" y2="178.9"/>
    <line x1="75.8" y1="249.8" x2="56.9" y2="184.1"/>
    <line x1="62.8" y1="178.9" x2="56.9" y2="184.1"/>
    <line x1="75.8" y1="249.8" x2="79.0" y2="322.9"/>
    <line x1="66.1" y1="804.5" x2="79.0" y2="322.9"/>
    <line x1="56.9" y1="184.1" x2="39.9" y2="181.8"/>
    <line x1="9.6" y1="321.6" x2="39.9" y2="181.8"/>
    <line x1="25.7" y1="74.8" x2="19.4" y2="81.7"/>
    <line x1="25.7" y1="74.8" x2="19.5" y2="54.3"/>
    <line x1="19.4" y1="81.7" x2="-7.0" y2="68.8"/>
    <line x1="19.5" y1="54.3" x2="-7.0" y2="68.8"/>
    <line x1="19.5" y1="20.1" x2="19.6" y2="20.0"/>
    <line x1="154.7" y1="162.5" x2="144.7" y2="158.7"/>
    <line x1="154.7" y1="162.5" x2="155.6" y2="179.3"/>
    <line x1="144.7" y1="158.7" x2="133.6" y2="179.5"/>
    <line x1="155.6" y1="179.3" x2="133.6" y2="179.5"/>
    <line x1="129.4" y1="183.1" x2="133.6" y2="179.5"/>
    <line x1="159.6" y1="190.0" x2="155.6" y2="179.3"/>
    <line x1="181.6" y1="178.3" x2="174.7" y2="165.3"/>
    <line x1="154.7" y1="162.5" x2="161.9" y2="159.4"/>
    <line x1="174.7" y1="165.3" x2="161.9" y2="159.4"/>
    <line x1="142.5" y1="137.6" x2="164.1" y2="142.2"/>
    <line x1="142.5" y1="137.6" x2="149.1" y2="126.0"/>
    <line x1="164.1" y1="142.2" x2="155.4" y2="124.7"/>
    <line x1="149.1" y1="126.0" x2="155.4" y2="124.7"/>
    <line x1="164.7" y1="119.3" x2="155.4" y2="124.7"/>
    <line x1="164.7" y1="119.3" x2="172.9" y2="123.1"/>
    <line x1="172.9" y1="123.1" x2="174.2" y2="140.5"/>
    <line x1="167.7" y1="144.6" x2="174.2" y2="140.5"/>
    <line x1="167.7" y1="144.6" x2="164.1" y2="142.2"/>
    <line x1="123.4" y1="182.8" x2="122.2" y2="182.0"/>
    <line x1="79.0" y1="322.9" x2="107.9" y2="182.4"/>
    <line x1="107.9" y1="182.4" x2="122.2" y2="182.0"/>
    <line x1="62.8" y1="178.9" x2="65.4" y2="162.0"/>
    <line x1="39.9" y1="181.8" x2="37.0" y2="176.7"/>
    <line x1="37.0" y1="176.7" x2="39.7" y2="166.2"/>
    <line x1="65.4" y1="162.0" x2="64.8" y2="161.5"/>
    <line x1="39.7" y1="166.2" x2="64.8" y2="161.5"/>
    <line x1="-35.9" y1="167.7" x2="13.6" y2="162.5"/>
    <line x1="-35.9" y1="167.7" x2="15.1" y2="183.0"/>
    <line x1="13.6" y1="162.5" x2="20.7" y2="177.2"/>
    <line x1="15.1" y1="183.0" x2="20.7" y2="177.2"/>
    <line x1="-978.0" y1="112.7" x2="-808.4" y2="113.6"/>
    <line x1="-808.4" y1="113.6" x2="-35.9" y2="167.7"/>
    <line x1="9.6" y1="321.6" x2="15.1" y2="183.0"/>
    <line x1="37.0" y1="176.7" x2="20.7" y2="177.2"/>
    <line x1="100.7" y1="128.4" x2="110.5" y2="119.5"/>
    <line x1="100.7" y1="128.4" x2="79.4" y2="117.3"/>
    <line x1="110.5" y1="119.5" x2="93.8" y2="102.2"/>
    <line x1="81.2" y1="109.7" x2="79.4" y2="117.3"/>
    <line x1="81.2" y1="109.7" x2="88.6" y2="103.1"/>
    <line x1="88.6" y1="103.1" x2="93.8" y2="102.2"/>
    <line x1="124.5" y1="130.0" x2="116.1" y2="144.4"/>
    <line x1="124.5" y1="130.0" x2="141.9" y2="138.2"/>
    <line x1="116.1" y1="144.4" x2="128.9" y2="156.2"/>
    <line x1="141.9" y1="138.2" x2="140.5" y2="154.7"/>
    <line x1="128.9" y1="156.2" x2="140.5" y2="154.7"/>
    <line x1="142.5" y1="137.6" x2="141.9" y2="138.2"/>
    <line x1="149.1" y1="126.0" x2="143.6" y2="117.7"/>
    <line x1="123.0" y1="125.8" x2="143.6" y2="117.7"/>
    <line x1="123.0" y1="125.8" x2="124.5" y2="130.0"/>
    <line x1="144.7" y1="158.7" x2="140.5" y2="154.7"/>
    <line x1="161.9" y1="159.4" x2="167.7" y2="144.6"/>
    <line x1="122.8" y1="163.7" x2="122.2" y2="182.0"/>
    <line x1="122.8" y1="163.7" x2="128.9" y2="156.2"/>
    <line x1="75.6" y1="121.7" x2="65.3" y2="123.5"/>
    <line x1="75.6" y1="121.7" x2="80.2" y2="138.7"/>
    <line x1="65.3" y1="123.5" x2="57.3" y2="144.0"/>
    <line x1="80.2" y1="138.7" x2="60.3" y2="147.2"/>
    <line x1="57.3" y1="144.0" x2="60.3" y2="147.2"/>
    <line x1="34.1" y1="74.1" x2="40.7" y2="86.8"/>
    <line x1="34.1" y1="74.1" x2="40.8" y2="66.0"/>
    <line x1="40.8" y1="66.0" x2="51.8" y2="66.6"/>
    <line x1="51.8" y1="66.6" x2="58.2" y2="81.7"/>
    <line x1="40.7" y1="86.8" x2="58.2" y2="81.7"/>
    <line x1="54.8" y1="118.3" x2="56.4" y2="101.3"/>
    <line x1="54.8" y1="118.3" x2="65.3" y2="123.5"/>
    <line x1="81.2" y1="109.7" x2="61.7" y2="95.6"/>
    <line x1="79.4" y1="117.3" x2="75.6" y2="121.7"/>
    <line x1="61.7" y1="95.6" x2="56.4" y2="101.3"/>
    <line x1="100.7" y1="128.4" x2="99.9" y2="138.4"/>
    <line x1="80.2" y1="138.7" x2="84.7" y2="143.0"/>
    <line x1="84.7" y1="143.0" x2="99.9" y2="138.4"/>
    <line x1="123.0" y1="125.8" x2="118.0" y2="118.7"/>
    <line x1="118.0" y1="118.7" x2="110.5" y2="119.5"/>
    <line x1="116.1" y1="144.4" x2="107.4" y2="146.0"/>
    <line x1="99.9" y1="138.4" x2="107.4" y2="146.0"/>
    <line x1="88.6" y1="103.1" x2="78.5" y2="78.1"/>
    <line x1="61.3" y1="83.7" x2="61.7" y2="95.6"/>
    <line x1="61.3" y1="83.7" x2="77.3" y2="77.6"/>
    <line x1="78.5" y1="78.1" x2="77.3" y2="77.6"/>
    <line x1="53.2" y1="63.8" x2="51.8" y2="66.6"/>
    <line x1="53.2" y1="63.8" x2="76.0" y2="59.3"/>
    <line x1="61.3" y1="83.7" x2="58.2" y2="81.7"/>
    <line x1="77.3" y1="77.6" x2="76.0" y2="59.3"/>
    <line x1="118.0" y1="118.7" x2="124.3" y2="105.3"/>
    <line x1="93.8" y1="102.2" x2="102.5" y2="94.1"/>
    <line x1="102.5" y1="94.1" x2="124.3" y2="105.3"/>
    <line x1="138.1" y1="86.0" x2="135.2" y2="100.9"/>
    <line x1="138.1" y1="86.0" x2="156.9" y2="79.5"/>
    <line x1="141.3" y1="105.3" x2="135.2" y2="100.9"/>
    <line x1="141.3" y1="105.3" x2="161.4" y2="103.2"/>
    <line x1="162.9" y1="87.4" x2="156.9" y2="79.5"/>
    <line x1="162.9" y1="87.4" x2="163.3" y2="100.2"/>
    <line x1="163.3" y1="100.2" x2="161.4" y2="103.2"/>
    <line x1="143.6" y1="117.7" x2="141.3" y2="105.3"/>
    <line x1="124.3" y1="105.3" x2="125.1" y2="104.7"/>
    <line x1="125.1" y1="104.7" x2="135.2" y2="100.9"/>
    <line x1="164.7" y1="119.3" x2="161.4" y2="103.2"/>
    <line x1="184.8" y1="102.8" x2="163.3" y2="100.2"/>
    <line x1="184.8" y1="102.8" x2="182.3" y2="118.7"/>
    <line x1="182.3" y1="118.7" x2="172.9" y2="123.1"/>
    <line x1="158.6" y1="69.7" x2="156.9" y2="79.5"/>
    <line x1="158.6" y1="69.7" x2="149.9" y2="58.6"/>
    <line x1="138.1" y1="58.8" x2="136.7" y2="84.5"/>
    <line x1="138.1" y1="58.8" x2="140.3" y2="56.4"/>
    <line x1="136.7" y1="84.5" x2="138.1" y2="86.0"/>
    <line x1="140.3" y1="56.4" x2="149.9" y2="58.6"/>
    <line x1="184.8" y1="102.8" x2="187.7" y2="100.2"/>
    <line x1="162.9" y1="87.4" x2="178.0" y2="84.7"/>
    <line x1="178.0" y1="84.7" x2="187.7" y2="100.2"/>
    <line x1="178.6" y1="57.5" x2="223.2" y2="70.1"/>
    <line x1="178.6" y1="57.5" x2="172.7" y2="64.3"/>
    <line x1="172.7" y1="64.3" x2="181.3" y2="80.0"/>
    <line x1="223.2" y1="70.1" x2="181.3" y2="80.0"/>
    <line x1="158.6" y1="69.7" x2="172.7" y2="64.3"/>
    <line x1="178.0" y1="84.7" x2="181.3" y2="80.0"/>
    <line x1="187.7" y1="100.2" x2="293.5" y2="75.4"/>
    <line x1="293.5" y1="75.4" x2="223.2" y2="70.1"/>
    <line x1="183.1" y1="157.6" x2="177.0" y2="141.3"/>
    <line x1="183.1" y1="157.6" x2="283.7" y2="150.6"/>
    <line x1="177.0" y1="141.3" x2="220.4" y2="137.9"/>
    <line x1="283.7" y1="150.6" x2="220.4" y2="137.9"/>
    <line x1="174.7" y1="165.3" x2="183.1" y2="157.6"/>
    <line x1="174.2" y1="140.5" x2="177.0" y2="141.3"/>
    <line x1="457.3" y1="173.0" x2="283.7" y2="150.6"/>
    <line x1="182.3" y1="118.7" x2="220.4" y2="137.9"/>
    <line x1="39.7" y1="166.2" x2="36.8" y2="159.1"/>
    <line x1="64.8" y1="161.5" x2="60.3" y2="147.2"/>
    <line x1="57.3" y1="144.0" x2="47.0" y2="142.5"/>
    <line x1="47.0" y1="142.5" x2="36.8" y2="159.1"/>
    <line x1="13.6" y1="162.5" x2="21.2" y2="151.4"/>
    <line x1="36.8" y1="159.1" x2="21.2" y2="151.4"/>
    <line x1="-808.4" y1="113.6" x2="-428.4" y2="107.4"/>
    <line x1="-428.4" y1="107.4" x2="-9.1" y2="132.6"/>
    <line x1="21.2" y1="151.4" x2="18.8" y2="142.8"/>
    <line x1="-9.1" y1="132.6" x2="18.8" y2="142.8"/>
    <line x1="47.0" y1="142.5" x2="38.8" y2="131.7"/>
    <line x1="38.8" y1="131.7" x2="21.2" y2="140.5"/>
    <line x1="18.8" y1="142.8" x2="21.2" y2="140.5"/>
    <line x1="42.4" y1="121.5" x2="34.4" y2="100.6"/>
    <line x1="42.4" y1="121.5" x2="39.7" y2="125.4"/>
    <line x1="39.7" y1="125.4" x2="20.4" y2="118.3"/>
    <line x1="19.3" y1="117.1" x2="20.4" y2="118.3"/>
    <line x1="19.3" y1="117.1" x2="19.8" y2="100.6"/>
    <line x1="19.8" y1="100.6" x2="22.9" y2="98.2"/>
    <line x1="22.9" y1="98.2" x2="32.3" y2="98.7"/>
    <line x1="32.3" y1="98.7" x2="34.4" y2="100.6"/>
    <line x1="54.8" y1="118.3" x2="42.4" y2="121.5"/>
    <line x1="56.4" y1="101.3" x2="34.4" y2="100.6"/>
    <line x1="38.8" y1="131.7" x2="39.7" y2="125.4"/>
    <line x1="21.2" y1="140.5" x2="20.4" y2="118.3"/>
    <line x1="-9.1" y1="132.6" x2="19.3" y2="117.1"/>
    <line x1="-407.7" y1="106.2" x2="19.8" y2="100.6"/>
    <line x1="-407.7" y1="106.2" x2="-428.4" y2="107.4"/>
    <line x1="-407.7" y1="106.2" x2="-7.0" y2="68.8"/>
    <line x1="19.4" y1="81.7" x2="22.9" y2="98.2"/>
    <line x1="34.1" y1="74.1" x2="25.7" y2="74.8"/>
    <line x1="40.7" y1="86.8" x2="32.3" y2="98.7"/>
    <line x1="82.1" y1="161.8" x2="83.0" y2="160.8"/>
    <line x1="82.1" y1="161.8" x2="87.7" y2="180.5"/>
    <line x1="83.0" y1="160.8" x2="103.5" y2="158.6"/>
    <line x1="87.7" y1="180.5" x2="105.5" y2="180.6"/>
    <line x1="105.5" y1="180.6" x2="105.1" y2="161.1"/>
    <line x1="105.1" y1="161.1" x2="103.5" y2="158.6"/>
    <line x1="65.4" y1="162.0" x2="82.1" y2="161.8"/>
    <line x1="84.7" y1="143.0" x2="83.0" y2="160.8"/>
    <line x1="82.5" y1="187.8" x2="87.7" y2="180.5"/>
    <line x1="107.4" y1="146.0" x2="103.5" y2="158.6"/>
    <line x1="107.9" y1="182.4" x2="105.5" y2="180.6"/>
    <line x1="122.8" y1="163.7" x2="105.1" y2="161.1"/>
    <line x1="37.5" y1="34.3" x2="49.0" y2="42.6"/>
    <line x1="37.5" y1="34.3" x2="21.5" y2="32.9"/>
    <line x1="49.0" y1="42.6" x2="32.7" y2="55.5"/>
    <line x1="19.4" y1="37.1" x2="20.9" y2="52.5"/>
    <line x1="19.4" y1="37.1" x2="21.5" y2="32.9"/>
    <line x1="20.9" y1="52.5" x2="32.7" y2="55.5"/>
    <line x1="19.5" y1="20.1" x2="21.5" y2="32.9"/>
    <line x1="19.6" y1="20.0" x2="33.8" y2="11.4"/>
    <line x1="33.8" y1="11.4" x2="47.5" y2="16.1"/>
    <line x1="47.5" y1="16.1" x2="37.5" y2="34.3"/>
    <line x1="40.8" y1="66.0" x2="32.7" y2="55.5"/>
    <line x1="53.2" y1="63.8" x2="54.0" y2="43.2"/>
    <line x1="54.0" y1="43.2" x2="49.0" y2="42.6"/>
    <line x1="-978.0" y1="112.7" x2="19.4" y2="37.1"/>
    <line x1="19.5" y1="54.3" x2="20.9" y2="52.5"/>
    <line x1="70.6" y1="42.6" x2="76.8" y2="22.6"/>
    <line x1="70.6" y1="42.6" x2="57.1" y2="41.3"/>
    <line x1="57.1" y1="41.3" x2="55.6" y2="15.3"/>
    <line x1="71.4" y1="15.6" x2="56.1" y2="14.9"/>
    <line x1="71.4" y1="15.6" x2="76.8" y2="22.6"/>
    <line x1="56.1" y1="14.9" x2="55.6" y2="15.3"/>
    <line x1="92.9" y1="42.5" x2="92.8" y2="23.9"/>
    <line x1="92.9" y1="42.5" x2="91.9" y2="43.6"/>
    <line x1="92.8" y1="23.9" x2="76.8" y2="22.6"/>
    <line x1="91.9" y1="43.6" x2="77.0" y2="48.0"/>
    <line x1="77.0" y1="48.0" x2="70.6" y2="42.6"/>
    <line x1="76.0" y1="59.3" x2="76.6" y2="57.8"/>
    <line x1="54.0" y1="43.2" x2="57.1" y2="41.3"/>
    <line x1="77.0" y1="48.0" x2="76.6" y2="57.8"/>
    <line x1="47.5" y1="16.1" x2="55.6" y2="15.3"/>
    <line x1="47.2" y1="-222.5" x2="33.8" y2="11.4"/>
    <line x1="47.2" y1="-222.5" x2="56.1" y2="14.9"/>
    <line x1="100.9" y1="62.3" x2="100.3" y2="64.8"/>
    <line x1="100.9" y1="62.3" x2="114.7" y2="52.0"/>
    <line x1="100.3" y1="64.8" x2="101.3" y2="74.2"/>
    <line x1="114.7" y1="52.0" x2="122.8" y2="66.2"/>
    <line x1="101.3" y1="74.2" x2="106.0" y2="78.3"/>
    <line x1="106.0" y1="78.3" x2="114.2" y2="77.5"/>
    <line x1="122.8" y1="66.2" x2="118.7" y2="75.7"/>
    <line x1="114.2" y1="77.5" x2="118.7" y2="75.7"/>
    <line x1="91.9" y1="43.6" x2="100.9" y2="62.3"/>
    <line x1="76.6" y1="57.8" x2="100.3" y2="64.8"/>
    <line x1="92.9" y1="42.5" x2="117.3" y2="41.0"/>
    <line x1="117.3" y1="41.0" x2="114.7" y2="52.0"/>
    <line x1="78.5" y1="78.1" x2="101.3" y2="74.2"/>
    <line x1="138.1" y1="58.8" x2="122.8" y2="66.2"/>
    <line x1="134.6" y1="45.1" x2="140.3" y2="56.4"/>
    <line x1="134.6" y1="45.1" x2="117.7" y2="40.6"/>
    <line x1="117.3" y1="41.0" x2="117.7" y2="40.6"/>
    <line x1="102.5" y1="94.1" x2="106.0" y2="78.3"/>
    <line x1="125.1" y1="104.7" x2="114.2" y2="77.5"/>
    <line x1="136.7" y1="84.5" x2="118.7" y2="75.7"/>
    <line x1="149.9" y1="58.6" x2="160.5" y2="43.7"/>
    <line x1="178.6" y1="57.5" x2="176.0" y2="47.0"/>
    <line x1="176.0" y1="47.0" x2="160.5" y2="43.7"/>
    <line x1="122.4" y1="18.3" x2="116.6" y2="23.6"/>
    <line x1="122.4" y1="18.3" x2="107.2" y2="-146.4"/>
    <line x1="116.6" y1="23.6" x2="98.9" y2="18.2"/>
    <line x1="98.9" y1="18.2" x2="91.7" y2="-18.1"/>
    <line x1="91.7" y1="-18.1" x2="107.2" y2="-146.4"/>
    <line x1="117.7" y1="40.6" x2="116.6" y2="23.6"/>
    <line x1="92.8" y1="23.9" x2="98.9" y2="18.2"/>
    <line x1="71.4" y1="15.6" x2="91.7" y2="-18.1"/>
    <line x1="404.8" y1="7.4" x2="178.9" y2="42.2"/>
    <line x1="404.8" y1="7.4" x2="176.4" y2="19.8"/>
    <line x1="176.4" y1="19.8" x2="178.9" y2="42.2"/>
    <line x1="176.0" y1="47.0" x2="178.9" y2="42.2"/>
    <line x1="176.4" y1="19.8" x2="174.9" y2="18.9"/>
    <line x1="107.2" y1="-146.4" x2="122.3" y2="-454.8"/>
    <line x1="134.6" y1="45.1" x2="142.1" y2="34.8"/>
    <line x1="160.5" y1="43.7" x2="155.5" y2="32.0"/>
    <line x1="142.1" y1="34.8" x2="155.5" y2="32.0"/>
    <line x1="122.4" y1="18.3" x2="133.5" y2="18.6"/>
    <line x1="142.1" y1="34.8" x2="133.5" y2="18.6"/>
    <line x1="166.1" y1="19.9" x2="147.5" y2="-14.0"/>
    <line x1="166.1" y1="19.9" x2="159.4" y2="23.9"/>
    <line x1="159.4" y1="23.9" x2="142.1" y2="12.5"/>
    <line x1="147.5" y1="-14.0" x2="142.1" y2="12.5"/>
    <line x1="174.9" y1="18.9" x2="166.1" y2="19.9"/>
    <line x1="122.3" y1="-454.8" x2="147.5" y2="-14.0"/>
    <line x1="155.5" y1="32.0" x2="159.4" y2="23.9"/>
    <line x1="133.5" y1="18.6" x2="142.1" y2="12.5"/>
    <line x1="457.3" y1="173.0" x2="651.3" y2="187.3"/>
    <line x1="164.3" y1="301.9" x2="175.3" y2="496.2"/>
    <line x1="66.1" y1="804.5" x2="58.5" y2="998.9"/>
    <line x1="9.6" y1="321.6" x2="-16.5" y2="514.4"/>
    <line x1="19.5" y1="20.1" x2="-169.4" y2="-26.3"/>
    <line x1="19.6" y1="20.0" x2="-10.4" y2="-172.2"/>
    <line x1="-978.0" y1="112.7" x2="-1172.6" y2="113.6"/>
    <line x1="293.5" y1="75.4" x2="487.8" y2="66.0"/>
    <line x1="404.8" y1="7.4" x2="598.6" y2="-9.8"/>
    <line x1="174.9" y1="18.9" x2="182.5" y2="-175.5"/>
    <line x1="47.2" y1="-222.5" x2="48.3" y2="-417.1"/>
    <line x1="122.3" y1="-454.8" x2="125.0" y2="-649.3"/>
    <polygon points="-40.4,-364.4 19.6,20.0 19.5,20.1 -358.3,-72.7 " stroke="#F9065D" stroke-width="0.5" fill="#7e7896"/>
    <polygon points="-358.3,-72.7 19.5,20.1 21.5,32.9 19.4,37.1 -978.0,112.7 -1367.1,114.4 " stroke="#B845A1" stroke-width="0.5" fill="#9b97ad"/>
    <polygon points="20.9,52.5 19.5,54.3 -7.0,68.8 -407.7,106.2 -428.4,107.4 -808.4,113.6 -978.0,112.7 19.4,37.1 " stroke="#E65F79" stroke-width="0.5" fill="#807a97"/>
    <polygon points="-7.0,68.8 19.4,81.7 25.7,74.8 19.5,54.3 " stroke="#C5142F" stroke-width="0.5" fill="#c3c2cd"/>
    <polygon points="22.9,98.2 19.4,81.7 -7.0,68.8 -407.7,106.2 19.8,100.6 " stroke="#C2E7A9" stroke-width="0.5" fill="#b6b4c2"/>
    <polygon points="19.8,100.6 -407.7,106.2 -428.4,107.4 -9.1,132.6 19.3,117.1 " stroke="#15A687" stroke-width="0.5" fill="#b6b4c2"/>
    <polygon points="20.4,118.3 21.2,140.5 18.8,142.8 -9.1,132.6 19.3,117.1 " stroke="#51284F" stroke-width="0.5" fill="#817c99"/>
    <polygon points="18.8,142.8 21.2,151.4 13.6,162.5 -35.9,167.7 -808.4,113.6 -428.4,107.4 -9.1,132.6 " stroke="#C58E06" stroke-width="0.5" fill="#635b80"/>
    <polygon points="20.7,177.2 13.6,162.5 -35.9,167.7 15.1,183.0 " stroke="#BAC7F2" stroke-width="0.5" fill="#aba9ba"/>
    <polygon points="-1367.1,114.4 -978.0,112.7 -808.4,113.6 -35.9,167.7 15.1,183.0 9.6,321.6 -42.7,707.2 " stroke="#125FD0" stroke-width="0.5" fill="#595078"/>
    <polygon points="-40.4,-364.4 49.4,-611.6 47.2,-222.5 33.8,11.4 19.6,20.0 " stroke="#407953" stroke-width="0.5" fill="#e0e1e4"/>
    <polygon points="21.5,32.9 19.5,20.1 19.6,20.0 33.8,11.4 47.5,16.1 37.5,34.3 " stroke="#8C1B0F" stroke-width="0.5" fill="#4f4570"/>
    <polygon points="32.7,55.5 49.0,42.6 37.5,34.3 21.5,32.9 19.4,37.1 20.9,52.5 " stroke="#E48C75" stroke-width="0.5" fill="#d4d4db"/>
    <polygon points="32.7,55.5 40.8,66.0 34.1,74.1 25.7,74.8 19.5,54.3 20.9,52.5 " stroke="#E14A26" stroke-width="0.5" fill="#686184"/>
    <polygon points="32.3,98.7 40.7,86.8 34.1,74.1 25.7,74.8 19.4,81.7 22.9,98.2 " stroke="#8642AD" stroke-width="0.5" fill="#655d82"/>
    <polygon points="34.4,100.6 42.4,121.5 39.7,125.4 20.4,118.3 19.3,117.1 19.8,100.6 22.9,98.2 32.3,98.7 " stroke="#7914B6" stroke-width="0.5" fill="#635b80"/>
    <polygon points="20.4,118.3 21.2,140.5 38.8,131.7 39.7,125.4 " stroke="#B8D31C" stroke-width="0.5" fill="#635b80"/>
    <polygon points="21.2,140.5 38.8,131.7 47.0,142.5 36.8,159.1 21.2,151.4 18.8,142.8 " stroke="#2ECF6D" stroke-width="0.5" fill="#524973"/>
    <polygon points="21.2,151.4 13.6,162.5 20.7,177.2 37.0,176.7 39.7,166.2 36.8,159.1 " stroke="#6C82E3" stroke-width="0.5" fill="#b9b7c5"/>
    <polygon points="20.7,177.2 37.0,176.7 39.9,181.8 9.6,321.6 15.1,183.0 " stroke="#6E32BD" stroke-width="0.5" fill="#f0f3f2"/>
    <polygon points="55.6,15.3 47.5,16.1 33.8,11.4 47.2,-222.5 56.1,14.9 " stroke="#90B45D" stroke-width="0.5" fill="#c6c6d0"/>
    <polygon points="55.6,15.3 47.5,16.1 37.5,34.3 49.0,42.6 54.0,43.2 57.1,41.3 " stroke="#3FB0A9" stroke-width="0.5" fill="#c6c6d0"/>
    <polygon points="32.7,55.5 40.8,66.0 51.8,66.6 53.2,63.8 54.0,43.2 49.0,42.6 " stroke="#D6A05F" stroke-width="0.5" fill="#4d446f"/>
    <polygon points="58.2,81.7 51.8,66.6 40.8,66.0 34.1,74.1 40.7,86.8 " stroke="#F49B2D" stroke-width="0.5" fill="#a8a5b8"/>
    <polygon points="34.4,100.6 56.4,101.3 61.7,95.6 61.3,83.7 58.2,81.7 40.7,86.8 32.3,98.7 " stroke="#FD5B04" stroke-width="0.5" fill="#686184"/>
    <polygon points="34.4,100.6 56.4,101.3 54.8,118.3 42.4,121.5 " stroke="#8D573F" stroke-width="0.5" fill="#d2d3d9"/>
    <polygon points="39.7,125.4 38.8,131.7 47.0,142.5 57.3,144.0 65.3,123.5 54.8,118.3 42.4,121.5 " stroke="#C92347" stroke-width="0.5" fill="#9e9bb0"/>
    <polygon points="36.8,159.1 39.7,166.2 64.8,161.5 60.3,147.2 57.3,144.0 47.0,142.5 " stroke="#5407FB" stroke-width="0.5" fill="#c1c1cc"/>
    <polygon points="64.8,161.5 65.4,162.0 62.8,178.9 56.9,184.1 39.9,181.8 37.0,176.7 39.7,166.2 " stroke="#4B7ED1" stroke-width="0.5" fill="#a09cb1"/>
    <polygon points="9.6,321.6 39.9,181.8 56.9,184.1 75.8,249.8 79.0,322.9 66.1,804.5 50.9,1193.2 -42.7,707.2 " stroke="#860AD4" stroke-width="0.5" fill="#cfcfd7"/>
    <polygon points="49.4,-611.6 127.7,-843.8 122.3,-454.8 107.2,-146.4 91.7,-18.1 71.4,15.6 56.1,14.9 47.2,-222.5 " stroke="#AB49CE" stroke-width="0.5" fill="#c6c6d0"/>
    <polygon points="55.6,15.3 57.1,41.3 70.6,42.6 76.8,22.6 71.4,15.6 56.1,14.9 " stroke="#9A8E37" stroke-width="0.5" fill="#ebeeee"/>
    <polygon points="57.1,41.3 54.0,43.2 53.2,63.8 76.0,59.3 76.6,57.8 77.0,48.0 70.6,42.6 " stroke="#3C579A" stroke-width="0.5" fill="#726b8c"/>
    <polygon points="76.0,59.3 53.2,63.8 51.8,66.6 58.2,81.7 61.3,83.7 77.3,77.6 " stroke="#026BF9" stroke-width="0.5" fill="#dadce0"/>
    <polygon points="77.3,77.6 61.3,83.7 61.7,95.6 81.2,109.7 88.6,103.1 78.5,78.1 " stroke="#0215B6" stroke-width="0.5" fill="#dcdde1"/>
    <polygon points="56.4,101.3 54.8,118.3 65.3,123.5 75.6,121.7 79.4,117.3 81.2,109.7 61.7,95.6 " stroke="#CF06B7" stroke-width="0.5" fill="#62597f"/>
    <polygon points="60.3,147.2 80.2,138.7 75.6,121.7 65.3,123.5 57.3,144.0 " stroke="#A8B3C1" stroke-width="0.5" fill="#524973"/>
    <polygon points="83.0,160.8 84.7,143.0 80.2,138.7 60.3,147.2 64.8,161.5 65.4,162.0 82.1,161.8 " stroke="#4728DB" stroke-width="0.5" fill="#777190"/>
    <polygon points="87.7,180.5 82.5,187.8 62.8,178.9 65.4,162.0 82.1,161.8 " stroke="#D832A1" stroke-width="0.5" fill="#b7b6c4"/>
    <polygon points="56.9,184.1 75.8,249.8 82.5,187.8 62.8,178.9 " stroke="#3512C6" stroke-width="0.5" fill="#746d8e"/>
    <polygon points="91.7,-18.1 71.4,15.6 76.8,22.6 92.8,23.9 98.9,18.2 " stroke="#783B9E" stroke-width="0.5" fill="#d7d8dd"/>
    <polygon points="76.8,22.6 92.8,23.9 92.9,42.5 91.9,43.6 77.0,48.0 70.6,42.6 " stroke="#20EDC9" stroke-width="0.5" fill="#a19eb2"/>
    <polygon points="100.3,64.8 76.6,57.8 77.0,48.0 91.9,43.6 100.9,62.3 " stroke="#836C4F" stroke-width="0.5" fill="#62597f"/>
    <polygon points="101.3,74.2 78.5,78.1 77.3,77.6 76.0,59.3 76.6,57.8 100.3,64.8 " stroke="#B859DF" stroke-width="0.5" fill="#d7d8dd"/>
    <polygon points="106.0,78.3 102.5,94.1 93.8,102.2 88.6,103.1 78.5,78.1 101.3,74.2 " stroke="#FD4390" stroke-width="0.5" fill="#e6e8ea"/>
    <polygon points="93.8,102.2 110.5,119.5 100.7,128.4 79.4,117.3 81.2,109.7 88.6,103.1 " stroke="#385FAD" stroke-width="0.5" fill="#b6b4c2"/>
    <polygon points="99.9,138.4 100.7,128.4 79.4,117.3 75.6,121.7 80.2,138.7 84.7,143.0 " stroke="#160D83" stroke-width="0.5" fill="#514771"/>
    <polygon points="103.5,158.6 107.4,146.0 99.9,138.4 84.7,143.0 83.0,160.8 " stroke="#F7B165" stroke-width="0.5" fill="#9e9bb0"/>
    <polygon points="103.5,158.6 83.0,160.8 82.1,161.8 87.7,180.5 105.5,180.6 105.1,161.1 " stroke="#4BF79A" stroke-width="0.5" fill="#b6b4c2"/>
    <polygon points="105.5,180.6 107.9,182.4 79.0,322.9 75.8,249.8 82.5,187.8 87.7,180.5 " stroke="#3BED80" stroke-width="0.5" fill="#524973"/>
    <polygon points="107.2,-146.4 122.4,18.3 116.6,23.6 98.9,18.2 91.7,-18.1 " stroke="#A895F1" stroke-width="0.5" fill="#f0f3f2"/>
    <polygon points="98.9,18.2 92.8,23.9 92.9,42.5 117.3,41.0 117.7,40.6 116.6,23.6 " stroke="#A34FE9" stroke-width="0.5" fill="#595078"/>
    <polygon points="114.7,52.0 117.3,41.0 92.9,42.5 91.9,43.6 100.9,62.3 " stroke="#DABE30" stroke-width="0.5" fill="#777190"/>
    <polygon points="118.7,75.7 122.8,66.2 114.7,52.0 100.9,62.3 100.3,64.8 101.3,74.2 106.0,78.3 114.2,77.5 " stroke="#9AC674" stroke-width="0.5" fill="#5b527a"/>
    <polygon points="114.2,77.5 125.1,104.7 124.3,105.3 102.5,94.1 106.0,78.3 " stroke="#9B47FE" stroke-width="0.5" fill="#eaecec"/>
    <polygon points="124.3,105.3 118.0,118.7 110.5,119.5 93.8,102.2 102.5,94.1 " stroke="#45670A" stroke-width="0.5" fill="#9490a7"/>
    <polygon points="107.4,146.0 116.1,144.4 124.5,130.0 123.0,125.8 118.0,118.7 110.5,119.5 100.7,128.4 99.9,138.4 " stroke="#1F2796" stroke-width="0.5" fill="#a3a0b4"/>
    <polygon points="103.5,158.6 107.4,146.0 116.1,144.4 128.9,156.2 122.8,163.7 105.1,161.1 " stroke="#132BA5" stroke-width="0.5" fill="#4f4570"/>
    <polygon points="105.1,161.1 122.8,163.7 122.2,182.0 107.9,182.4 105.5,180.6 " stroke="#71FA2E" stroke-width="0.5" fill="#8a859f"/>
    <polygon points="122.2,182.0 123.4,182.8 66.1,804.5 79.0,322.9 107.9,182.4 " stroke="#DB9C82" stroke-width="0.5" fill="#5b527a"/>
    <polygon points="142.1,12.5 133.5,18.6 122.4,18.3 107.2,-146.4 122.3,-454.8 147.5,-14.0 " stroke="#8439D5" stroke-width="0.5" fill="#e5e7e8"/>
    <polygon points="133.5,18.6 122.4,18.3 116.6,23.6 117.7,40.6 134.6,45.1 142.1,34.8 " stroke="#B84AD7" stroke-width="0.5" fill="#adabbc"/>
    <polygon points="122.8,66.2 138.1,58.8 140.3,56.4 134.6,45.1 117.7,40.6 117.3,41.0 114.7,52.0 " stroke="#8C5E79" stroke-width="0.5" fill="#afadbd"/>
    <polygon points="118.7,75.7 136.7,84.5 138.1,58.8 122.8,66.2 " stroke="#CA7E46" stroke-width="0.5" fill="#766f8f"/>
    <polygon points="118.7,75.7 136.7,84.5 138.1,86.0 135.2,100.9 125.1,104.7 114.2,77.5 " stroke="#E36AF9" stroke-width="0.5" fill="#bbb9c6"/>
    <polygon points="135.2,100.9 125.1,104.7 124.3,105.3 118.0,118.7 123.0,125.8 143.6,117.7 141.3,105.3 " stroke="#851CB0" stroke-width="0.5" fill="#574e77"/>
    <polygon points="141.9,138.2 142.5,137.6 149.1,126.0 143.6,117.7 123.0,125.8 124.5,130.0 " stroke="#BEA962" stroke-width="0.5" fill="#9c99ae"/>
    <polygon points="140.5,154.7 141.9,138.2 124.5,130.0 116.1,144.4 128.9,156.2 " stroke="#AF80CD" stroke-width="0.5" fill="#d5d6dc"/>
    <polygon points="140.5,154.7 144.7,158.7 133.6,179.5 129.4,183.1 123.4,182.8 122.2,182.0 122.8,163.7 128.9,156.2 " stroke="#8C03DF" stroke-width="0.5" fill="#635b80"/>
    <polygon points="123.4,182.8 129.4,183.1 154.6,208.3 164.3,301.9 186.3,690.4 50.9,1193.2 66.1,804.5 " stroke="#AB4D26" stroke-width="0.5" fill="#746d8e"/>
    <polygon points="142.1,12.5 159.4,23.9 166.1,19.9 147.5,-14.0 " stroke="#270B94" stroke-width="0.5" fill="#eaecec"/>
    <polygon points="142.1,12.5 133.5,18.6 142.1,34.8 155.5,32.0 159.4,23.9 " stroke="#7A90E1" stroke-width="0.5" fill="#c5c4cf"/>
    <polygon points="155.5,32.0 160.5,43.7 149.9,58.6 140.3,56.4 134.6,45.1 142.1,34.8 " stroke="#5CA7D2" stroke-width="0.5" fill="#b6b4c2"/>
    <polygon points="149.9,58.6 158.6,69.7 156.9,79.5 138.1,86.0 136.7,84.5 138.1,58.8 140.3,56.4 " stroke="#219EF3" stroke-width="0.5" fill="#dedfe3"/>
    <polygon points="161.4,103.2 141.3,105.3 135.2,100.9 138.1,86.0 156.9,79.5 162.9,87.4 163.3,100.2 " stroke="#D34B5C" stroke-width="0.5" fill="#f0f3f2"/>
    <polygon points="161.4,103.2 164.7,119.3 155.4,124.7 149.1,126.0 143.6,117.7 141.3,105.3 " stroke="#506CB4" stroke-width="0.5" fill="#817c99"/>
    <polygon points="155.4,124.7 164.1,142.2 142.5,137.6 149.1,126.0 " stroke="#C1F67D" stroke-width="0.5" fill="#eaecec"/>
    <polygon points="140.5,154.7 144.7,158.7 154.7,162.5 161.9,159.4 167.7,144.6 164.1,142.2 142.5,137.6 141.9,138.2 " stroke="#ED0A38" stroke-width="0.5" fill="#9793aa"/>
    <polygon points="133.6,179.5 144.7,158.7 154.7,162.5 155.6,179.3 " stroke="#DEAF63" stroke-width="0.5" fill="#e1e3e6"/>
    <polygon points="133.6,179.5 129.4,183.1 154.6,208.3 159.6,190.0 155.6,179.3 " stroke="#491D63" stroke-width="0.5" fill="#d2d3d9"/>
    <polygon points="122.3,-454.8 127.7,-843.8 190.0,-369.9 174.9,18.9 166.1,19.9 147.5,-14.0 " stroke="#0B8A94" stroke-width="0.5" fill="#a6a4b6"/>
    <polygon points="159.4,23.9 155.5,32.0 160.5,43.7 176.0,47.0 178.9,42.2 176.4,19.8 174.9,18.9 166.1,19.9 " stroke="#D20346" stroke-width="0.5" fill="#f2f5f3"/>
    <polygon points="160.5,43.7 149.9,58.6 158.6,69.7 172.7,64.3 178.6,57.5 176.0,47.0 " stroke="#208617" stroke-width="0.5" fill="#bcbbc8"/>
    <polygon points="181.3,80.0 178.0,84.7 162.9,87.4 156.9,79.5 158.6,69.7 172.7,64.3 " stroke="#6EAFD7" stroke-width="0.5" fill="#f0f3f2"/>
    <polygon points="187.7,100.2 184.8,102.8 163.3,100.2 162.9,87.4 178.0,84.7 " stroke="#6E2C8D" stroke-width="0.5" fill="#a5a2b5"/>
    <polygon points="161.4,103.2 164.7,119.3 172.9,123.1 182.3,118.7 184.8,102.8 163.3,100.2 " stroke="#48DFB1" stroke-width="0.5" fill="#60587e"/>
    <polygon points="155.4,124.7 164.7,119.3 172.9,123.1 174.2,140.5 167.7,144.6 164.1,142.2 " stroke="#8A6FD9" stroke-width="0.5" fill="#dedfe3"/>
    <polygon points="177.0,141.3 174.2,140.5 167.7,144.6 161.9,159.4 174.7,165.3 183.1,157.6 " stroke="#6A8EB0" stroke-width="0.5" fill="#bbb9c6"/>
    <polygon points="161.9,159.4 154.7,162.5 155.6,179.3 159.6,190.0 181.6,178.3 174.7,165.3 " stroke="#EB85F6" stroke-width="0.5" fill="#b4b2c1"/>
    <polygon points="159.6,190.0 181.6,178.3 184.2,179.2 164.3,301.9 154.6,208.3 " stroke="#D765EC" stroke-width="0.5" fill="#4d446f"/>
    <polygon points="190.0,-369.9 792.4,-26.9 404.8,7.4 176.4,19.8 174.9,18.9 " stroke="#102DF4" stroke-width="0.5" fill="#918ca5"/>
    <polygon points="178.9,42.2 404.8,7.4 176.4,19.8 " stroke="#BCFE4A" stroke-width="0.5" fill="#7c7694"/>
    <polygon points="404.8,7.4 792.4,-26.9 682.1,56.6 293.5,75.4 223.2,70.1 178.6,57.5 176.0,47.0 178.9,42.2 " stroke="#572D40" stroke-width="0.5" fill="#cacad3"/>
    <polygon points="181.3,80.0 172.7,64.3 178.6,57.5 223.2,70.1 " stroke="#AFC321" stroke-width="0.5" fill="#e6e8ea"/>
    <polygon points="181.3,80.0 178.0,84.7 187.7,100.2 293.5,75.4 223.2,70.1 " stroke="#9180CA" stroke-width="0.5" fill="#c6c6d0"/>
    <polygon points="182.3,118.7 184.8,102.8 187.7,100.2 293.5,75.4 682.1,56.6 845.4,201.6 457.3,173.0 283.7,150.6 220.4,137.9 " stroke="#9C36F7" stroke-width="0.5" fill="#524973"/>
    <polygon points="220.4,137.9 182.3,118.7 172.9,123.1 174.2,140.5 177.0,141.3 " stroke="#C825BE" stroke-width="0.5" fill="#c3c2cd"/>
    <polygon points="220.4,137.9 177.0,141.3 183.1,157.6 283.7,150.6 " stroke="#D867E5" stroke-width="0.5" fill="#b2b0c0"/>
    <polygon points="283.7,150.6 457.3,173.0 184.2,179.2 181.6,178.3 174.7,165.3 183.1,157.6 " stroke="#B35602" stroke-width="0.5" fill="#4d446f"/>
    <polygon points="164.3,301.9 184.2,179.2 457.3,173.0 845.4,201.6 186.3,690.4 " stroke="#7A54D0" stroke-width="0.5" fill="#88839e"/>
    <circle cx="9.7" cy="5.0"/>
    <circle cx="3.8" cy="28.9"/>
    <circle cx="5.2" cy="47.6"/>
    <circle cx="17.4" cy="70.0"/>
    <circle cx="8.9" cy="87.4"/>
    <circle cx="9.3" cy="114.0"/>
    <circle cx="16.5" cy="127.2"/>
    <circle cx="6.9" cy="153.2"/>
    <circle cx="9.0" cy="173.0"/>
    <circle cx="4.5" cy="187.9"/>
    <circle cx="24.5" cy="2.7"/>
    <circle cx="37.2" cy="23.6"/>
    <circle cx="35.3" cy="44.7"/>
    <circle cx="29.9" cy="66.2"/>
    <circle cx="31.2" cy="82.6"/>
    <circle cx="29.5" cy="114.6"/>
    <circle cx="25.0" cy="126.9"/>
    <circle cx="34.3" cy="145.7"/>
    <circle cx="24.7" cy="165.4"/>
    <circle cx="25.3" cy="188.8"/>
    <circle cx="44.1" cy="3.8"/>
    <circle cx="46.7" cy="28.9"/>
    <circle cx="43.8" cy="55.5"/>
    <circle cx="42.6" cy="76.6"/>
    <circle cx="47.8" cy="94.3"/>
    <circle cx="47.4" cy="107.8"/>
    <circle cx="53.4" cy="131.1"/>
    <circle cx="50.0" cy="155.3"/>
    <circle cx="53.2" cy="172.7"/>
    <circle cx="50.2" cy="194.1"/>
    <circle cx="67.2" cy="3.0"/>
    <circle cx="66.0" cy="27.8"/>
    <circle cx="63.3" cy="56.3"/>
    <circle cx="65.4" cy="67.0"/>
    <circle cx="75.4" cy="93.4"/>
    <circle cx="64.0" cy="109.4"/>
    <circle cx="68.9" cy="137.2"/>
    <circle cx="73.5" cy="147.9"/>
    <circle cx="73.8" cy="175.9"/>
    <circle cx="67.8" cy="189.1"/>
    <circle cx="84.5" cy="13.4"/>
    <circle cx="82.9" cy="33.0"/>
    <circle cx="90.0" cy="57.5"/>
    <circle cx="87.7" cy="65.4"/>
    <circle cx="91.4" cy="87.0"/>
    <circle cx="96.8" cy="117.2"/>
    <circle cx="89.2" cy="131.6"/>
    <circle cx="94.7" cy="149.9"/>
    <circle cx="96.8" cy="169.0"/>
    <circle cx="96.6" cy="192.2"/>
    <circle cx="110.4" cy="8.2"/>
    <circle cx="102.8" cy="32.9"/>
    <circle cx="103.9" cy="50.8"/>
    <circle cx="112.8" cy="62.7"/>
    <circle cx="115.6" cy="92.3"/>
    <circle cx="108.7" cy="105.7"/>
    <circle cx="111.4" cy="133.4"/>
    <circle cx="115.7" cy="156.4"/>
    <circle cx="113.8" cy="168.6"/>
    <circle cx="114.6" cy="195.9"/>
    <circle cx="132.3" cy="6.2"/>
    <circle cx="131.5" cy="31.0"/>
    <circle cx="124.8" cy="55.8"/>
    <circle cx="132.2" cy="71.2"/>
    <circle cx="123.5" cy="89.2"/>
    <circle cx="134.0" cy="117.5"/>
    <circle cx="136.8" cy="124.4"/>
    <circle cx="128.0" cy="143.0"/>
    <circle cx="131.4" cy="169.2"/>
    <circle cx="129.6" cy="197.2"/>
    <circle cx="153.6" cy="10.5"/>
    <circle cx="144.8" cy="23.9"/>
    <circle cx="149.1" cy="43.7"/>
    <circle cx="142.6" cy="71.7"/>
    <circle cx="150.4" cy="94.4"/>
    <circle cx="152.4" cy="114.0"/>
    <circle cx="156.9" cy="135.7"/>
    <circle cx="154.8" cy="145.2"/>
    <circle cx="143.4" cy="175.6"/>
    <circle cx="143.5" cy="183.3"/>
    <circle cx="164.9" cy="4.3"/>
    <circle cx="168.4" cy="35.4"/>
    <circle cx="164.3" cy="54.6"/>
    <circle cx="172.9" cy="77.1"/>
    <circle cx="175.9" cy="93.7"/>
    <circle cx="173.9" cy="109.6"/>
    <circle cx="163.3" cy="132.5"/>
    <circle cx="176.7" cy="153.8"/>
    <circle cx="167.3" cy="174.4"/>
    <circle cx="176.9" cy="192.4"/>
    <circle cx="186.1" cy="5.1"/>
    <circle cx="187.6" cy="33.3"/>
    <circle cx="189.9" cy="48.1"/>
    <circle cx="183.3" cy="71.4"/>
    <circle cx="186.9" cy="86.8"/>
    <circle cx="193.0" cy="112.6"/>
    <circle cx="183.8" cy="130.9"/>
    <circle cx="185.4" cy="150.5"/>
    <circle cx="186.3" cy="164.2"/>
    <circle cx="187.0" cy="194.0"/>
    <circle cx="-978.0" cy="112.7"/>
    <circle cx="184.8" cy="102.8"/>
    <circle cx="164.3" cy="301.9"/>
    <circle cx="457.3" cy="173.0"/>
    <circle cx="184.2" cy="179.2"/>
    <circle cx="181.6" cy="178.3"/>
    <circle cx="129.4" cy="183.1"/>
    <circle cx="154.6" cy="208.3"/>
    <circle cx="159.6" cy="190.0"/>
    <circle cx="-407.7" cy="106.2"/>
    <circle cx="34.1" cy="74.1"/>
    <circle cx="164.7" cy="119.3"/>
    <circle cx="182.3" cy="118.7"/>
    <circle cx="172.9" cy="123.1"/>
    <circle cx="82.5" cy="187.8"/>
    <circle cx="75.8" cy="249.8"/>
    <circle cx="123.4" cy="182.8"/>
    <circle cx="66.1" cy="804.5"/>
    <circle cx="79.0" cy="322.9"/>
    <circle cx="62.8" cy="178.9"/>
    <circle cx="56.9" cy="184.1"/>
    <circle cx="-808.4" cy="113.6"/>
    <circle cx="-428.4" cy="107.4"/>
    <circle cx="9.6" cy="321.6"/>
    <circle cx="39.9" cy="181.8"/>
    <circle cx="37.0" cy="176.7"/>
    <circle cx="54.8" cy="118.3"/>
    <circle cx="65.4" cy="162.0"/>
    <circle cx="25.7" cy="74.8"/>
    <circle cx="19.4" cy="81.7"/>
    <circle cx="19.5" cy="54.3"/>
    <circle cx="-7.0" cy="68.8"/>
    <circle cx="19.5" cy="20.1"/>
    <circle cx="19.6" cy="20.0"/>
    <circle cx="40.8" cy="66.0"/>
    <circle cx="53.2" cy="63.8"/>
    <circle cx="51.8" cy="66.6"/>
    <circle cx="158.6" cy="69.7"/>
    <circle cx="154.7" cy="162.5"/>
    <circle cx="144.7" cy="158.7"/>
    <circle cx="155.6" cy="179.3"/>
    <circle cx="133.6" cy="179.5"/>
    <circle cx="174.7" cy="165.3"/>
    <circle cx="161.9" cy="159.4"/>
    <circle cx="167.7" cy="144.6"/>
    <circle cx="174.2" cy="140.5"/>
    <circle cx="142.5" cy="137.6"/>
    <circle cx="164.1" cy="142.2"/>
    <circle cx="149.1" cy="126.0"/>
    <circle cx="155.4" cy="124.7"/>
    <circle cx="107.9" cy="182.4"/>
    <circle cx="122.8" cy="163.7"/>
    <circle cx="122.2" cy="182.0"/>
    <circle cx="39.7" cy="166.2"/>
    <circle cx="64.8" cy="161.5"/>
    <circle cx="-35.9" cy="167.7"/>
    <circle cx="13.6" cy="162.5"/>
    <circle cx="15.1" cy="183.0"/>
    <circle cx="20.7" cy="177.2"/>
    <circle cx="123.0" cy="125.8"/>
    <circle cx="118.0" cy="118.7"/>
    <circle cx="143.6" cy="117.7"/>
    <circle cx="100.7" cy="128.4"/>
    <circle cx="110.5" cy="119.5"/>
    <circle cx="81.2" cy="109.7"/>
    <circle cx="79.4" cy="117.3"/>
    <circle cx="88.6" cy="103.1"/>
    <circle cx="93.8" cy="102.2"/>
    <circle cx="124.5" cy="130.0"/>
    <circle cx="116.1" cy="144.4"/>
    <circle cx="141.9" cy="138.2"/>
    <circle cx="128.9" cy="156.2"/>
    <circle cx="140.5" cy="154.7"/>
    <circle cx="75.6" cy="121.7"/>
    <circle cx="65.3" cy="123.5"/>
    <circle cx="80.2" cy="138.7"/>
    <circle cx="57.3" cy="144.0"/>
    <circle cx="60.3" cy="147.2"/>
    <circle cx="40.7" cy="86.8"/>
    <circle cx="61.3" cy="83.7"/>
    <circle cx="58.2" cy="81.7"/>
    <circle cx="61.7" cy="95.6"/>
    <circle cx="56.4" cy="101.3"/>
    <circle cx="84.7" cy="143.0"/>
    <circle cx="99.9" cy="138.4"/>
    <circle cx="107.4" cy="146.0"/>
    <circle cx="47.2" cy="-222.5"/>
    <circle cx="33.8" cy="11.4"/>
    <circle cx="78.5" cy="78.1"/>
    <circle cx="77.3" cy="77.6"/>
    <circle cx="76.0" cy="59.3"/>
    <circle cx="54.0" cy="43.2"/>
    <circle cx="47.5" cy="16.1"/>
    <circle cx="102.5" cy="94.1"/>
    <circle cx="124.3" cy="105.3"/>
    <circle cx="125.1" cy="104.7"/>
    <circle cx="138.1" cy="58.8"/>
    <circle cx="136.7" cy="84.5"/>
    <circle cx="138.1" cy="86.0"/>
    <circle cx="141.3" cy="105.3"/>
    <circle cx="135.2" cy="100.9"/>
    <circle cx="162.9" cy="87.4"/>
    <circle cx="156.9" cy="79.5"/>
    <circle cx="163.3" cy="100.2"/>
    <circle cx="161.4" cy="103.2"/>
    <circle cx="134.6" cy="45.1"/>
    <circle cx="140.3" cy="56.4"/>
    <circle cx="149.9" cy="58.6"/>
    <circle cx="92.9" cy="42.5"/>
    <circle cx="117.3" cy="41.0"/>
    <circle cx="117.7" cy="40.6"/>
    <circle cx="92.8" cy="23.9"/>
    <circle cx="178.0" cy="84.7"/>
    <circle cx="187.7" cy="100.2"/>
    <circle cx="293.5" cy="75.4"/>
    <circle cx="178.6" cy="57.5"/>
    <circle cx="172.7" cy="64.3"/>
    <circle cx="223.2" cy="70.1"/>
    <circle cx="181.3" cy="80.0"/>
    <circle cx="183.1" cy="157.6"/>
    <circle cx="177.0" cy="141.3"/>
    <circle cx="283.7" cy="150.6"/>
    <circle cx="220.4" cy="137.9"/>
    <circle cx="47.0" cy="142.5"/>
    <circle cx="38.8" cy="131.7"/>
    <circle cx="36.8" cy="159.1"/>
    <circle cx="21.2" cy="151.4"/>
    <circle cx="-9.1" cy="132.6"/>
    <circle cx="18.8" cy="142.8"/>
    <circle cx="21.2" cy="140.5"/>
    <circle cx="42.4" cy="121.5"/>
    <circle cx="39.7" cy="125.4"/>
    <circle cx="19.3" cy="117.1"/>
    <circle cx="20.4" cy="118.3"/>
    <circle cx="19.8" cy="100.6"/>
    <circle cx="22.9" cy="98.2"/>
    <circle cx="32.3" cy="98.7"/>
    <circle cx="34.4" cy="100.6"/>
    <circle cx="82.1" cy="161.8"/>
    <circle cx="83.0" cy="160.8"/>
    <circle cx="87.7" cy="180.5"/>
    <circle cx="105.5" cy="180.6"/>
    <circle cx="105.1" cy="161.1"/>
    <circle cx="103.5" cy="158.6"/>
    <circle cx="91.9" cy="43.6"/>
    <circle cx="77.0" cy="48.0"/>
    <circle cx="76.6" cy="57.8"/>
    <circle cx="37.5" cy="34.3"/>
    <circle cx="49.0" cy="42.6"/>
    <circle cx="19.4" cy="37.1"/>
    <circle cx="21.5" cy="32.9"/>
    <circle cx="20.9" cy="52.5"/>
    <circle cx="32.7" cy="55.5"/>
    <circle cx="70.6" cy="42.6"/>
    <circle cx="57.1" cy="41.3"/>
    <circle cx="71.4" cy="15.6"/>
    <circle cx="76.8" cy="22.6"/>
    <circle cx="56.1" cy="14.9"/>
    <circle cx="55.6" cy="15.3"/>
    <circle cx="100.9" cy="62.3"/>
    <circle cx="100.3" cy="64.8"/>
    <circle cx="114.7" cy="52.0"/>
    <circle cx="101.3" cy="74.2"/>
    <circle cx="106.0" cy="78.3"/>
    <circle cx="122.8" cy="66.2"/>
    <circle cx="114.2" cy="77.5"/>
    <circle cx="118.7" cy="75.7"/>
    <circle cx="176.0" cy="47.0"/>
    <circle cx="160.5" cy="43.7"/>
    <circle cx="122.4" cy="18.3"/>
    <circle cx="116.6" cy="23.6"/>
    <circle cx="98.9" cy="18.2"/>
    <circle cx="91.7" cy="-18.1"/>
    <circle cx="107.2" cy="-146.4"/>
    <circle cx="404.8" cy="7.4"/>
    <circle cx="176.4" cy="19.8"/>
    <circle cx="178.9" cy="42.2"/>
    <circle cx="174.9" cy="18.9"/>
    <circle cx="122.3" cy="-454.8"/>
    <circle cx="142.1" cy="34.8"/>
    <circle cx="155.5" cy="32.0"/>
    <circle cx="133.5" cy="18.6"/>
    <circle cx="166.1" cy="19.9"/>
    <circle cx="159.4" cy="23.9"/>
    <circle cx="147.5" cy="-14.0"/>
    <circle cx="142.1" cy="12.5"/>
  </g>
  <style> line{stroke: green; stroke-width: 0.5; stroke-dasharray: None; }</style>
  <style> circle{fill: black; r: 1; }</style>
  <style> circle{fill: green; r: 0.8; }</style>
</svg>
