<?xml version='1.0' encoding='UTF-8' standalone='no'?>
<svg width="200" height="200" xmlns="http://www.w3.org/2000/svg">
  <g opacity="1.0">
    <rect x="0" y="0" width="200" height="200" fill="white" stroke="black" stroke-width="1"/>
    <circle cx="82.93550037649597" cy="187.39523974042604" r="2" fill="green"/>
    <circle cx="4.798521150221793" cy="93.56346929861975" r="2" fill="green"/>
    <circle cx="98.93846344943415" cy="88.62348338152408" r="2" fill="green"/>
    <circle cx="44.74914461743773" cy="183.08870845656492" r="2" fill="green"/>
    <circle cx="20.103766634523925" cy="131.6911873184025" r="2" fill="green"/>
    <circle cx="128.47181316147564" cy="92.420604115429" r="2" fill="green"/>
    <circle cx="123.79154542701305" cy="22.2654620611394" r="2" fill="green"/>
    <circle cx="69.1631198655365" cy="51.53010567267506" r="2" fill="green"/>
    <circle cx="17.16117117231455" cy="196.911423561473" r="2" fill="green"/>
    <circle cx="67.54944962655378" cy="56.92719838345569" r="2" fill="green"/>
    <circle cx="108.62357483169403" cy="169.50252541323817" r="2" fill="green"/>
    <circle cx="174.0177233980511" cy="52.856909463099406" r="2" fill="green"/>
    <circle cx="87.07073171965685" cy="93.75218257527276" r="2" fill="green"/>
    <circle cx="49.52687600407945" cy="123.21965613760356" r="2" fill="green"/>
    <circle cx="44.909795924073755" cy="89.59702816148413" r="2" fill="green"/>
    <circle cx="68.514033950608" cy="70.91081100997816" r="2" fill="green"/>
    <circle cx="77.79977401302433" cy="147.41549612166315" r="2" fill="green"/>
    <circle cx="77.98912404987931" cy="133.39319713940282" r="2" fill="green"/>
    <circle cx="94.07417142904524" cy="108.3061104513042" r="2" fill="green"/>
    <circle cx="51.06791904369729" cy="72.33740389969593" r="2" fill="green"/>
    <circle cx="8.545846074154275" cy="70.3646326598839" r="2" fill="green"/>
    <circle cx="50.079927753271" cy="127.95335629387512" r="2" fill="green"/>
    <circle cx="146.64597901421533" cy="73.02683476946474" r="2" fill="green"/>
    <circle cx="41.69693178548658" cy="50.751195744257636" r="2" fill="green"/>
    <circle cx="74.07484167931801" cy="37.22499594358033" r="2" fill="green"/>
    <circle cx="177.6450722571525" cy="37.34587929192472" r="2" fill="green"/>
    <circle cx="171.76846291255325" cy="147.83108266884594" r="2" fill="green"/>
    <circle cx="33.450263524463935" cy="20.971560843753906" r="2" fill="green"/>
    <circle cx="183.8385861765416" cy="11.813717843717862" r="2" fill="green"/>
    <circle cx="39.96923866568331" cy="50.14002276495534" r="2" fill="green"/>
    <circle cx="102.58635460734362" cy="181.6195212032007" r="2" fill="green"/>
    <circle cx="57.41362878501043" cy="101.1724633248813" r="2" fill="green"/>
    <circle cx="59.185980271516144" cy="56.70465065666531" r="2" fill="green"/>
    <circle cx="8.395527081979353" cy="46.920253298647246" r="2" fill="green"/>
    <circle cx="28.416362004756373" cy="169.77042332742877" r="2" fill="green"/>
    <circle cx="82.72352809004322" cy="3.3916590690669373" r="2" fill="green"/>
    <circle cx="135.08137624980392" cy="111.20559156506685" r="2" fill="green"/>
    <circle cx="159.4412753326308" cy="111.60426013677906" r="2" fill="green"/>
    <circle cx="50.41376651875154" cy="40.988045361036946" r="2" fill="green"/>
    <circle cx="171.11092676610497" cy="84.270261162723" r="2" fill="green"/>
    <circle cx="78.80274803948761" cy="192.70703825752273" r="2" fill="green"/>
    <circle cx="62.85934714849055" cy="119.32274830585295" r="2" fill="green"/>
    <circle cx="56.07660494098832" cy="76.82737585491324" r="2" fill="green"/>
    <circle cx="86.24366797372225" cy="179.96958000896493" r="2" fill="green"/>
    <circle cx="10.407986293705958" cy="41.62730637837308" r="2" fill="green"/>
    <circle cx="42.829752727404546" cy="146.04200883924992" r="2" fill="green"/>
    <circle cx="187.5843401069504" cy="184.58985366268521" r="2" fill="green"/>
    <circle cx="132.9235894957861" cy="181.7637868538728" r="2" fill="green"/>
    <circle cx="83.69842656132059" cy="5.106298905280717" r="2" fill="green"/>
    <circle cx="144.42326090933085" cy="125.4576811227297" r="2" fill="green"/>
    <circle cx="94.72311977628505" cy="146.70385754148336" r="2" fill="green"/>
    <circle cx="81.82008444586288" cy="114.14524824757692" r="2" fill="green"/>
    <circle cx="161.80239087004622" cy="55.820269663225915" r="2" fill="green"/>
    <circle cx="92.60501509864679" cy="157.2079976205124" r="2" fill="green"/>
    <circle cx="166.30988531262292" cy="52.63606225246596" r="2" fill="green"/>
    <circle cx="148.32736898710937" cy="16.65940288327232" r="2" fill="green"/>
    <circle cx="135.13149498836594" cy="54.079417985412704" r="2" fill="green"/>
    <circle cx="137.5131846614452" cy="102.9617466861491" r="2" fill="green"/>
    <circle cx="37.27883235905287" cy="97.48455023707432" r="2" fill="green"/>
    <circle cx="130.06897866034546" cy="78.10450693458081" r="2" fill="green"/>
    <circle cx="90.68349952468023" cy="26.572300364571266" r="2" fill="green"/>
    <circle cx="11.09582782783119" cy="54.65324767537125" r="2" fill="green"/>
    <circle cx="111.55492799208555" cy="125.10839417717757" r="2" fill="green"/>
    <circle cx="32.332817869390766" cy="146.013876274985" r="2" fill="green"/>
    <circle cx="97.58224045592839" cy="145.28446146521557" r="2" fill="green"/>
    <circle cx="156.2813588073291" cy="117.08565512835085" r="2" fill="green"/>
    <circle cx="28.4232256628789" cy="159.53510988976683" r="2" fill="green"/>
    <circle cx="64.09844539978374" cy="6.306269436897442" r="2" fill="green"/>
    <circle cx="128.78015323898438" cy="150.31261979933663" r="2" fill="green"/>
    <circle cx="157.40090673018932" cy="102.29230371100076" r="2" fill="green"/>
    <circle cx="28.10131821420482" cy="44.52081024305839" r="2" fill="green"/>
    <circle cx="140.49320602543744" cy="70.86375985929709" r="2" fill="green"/>
    <circle cx="172.41363364327876" cy="113.75763041601958" r="2" fill="green"/>
    <circle cx="107.98218249875954" cy="103.00196159440202" r="2" fill="green"/>
    <circle cx="124.3727756218681" cy="116.82434214410193" r="2" fill="green"/>
    <circle cx="117.04006783643717" cy="3.759457617302531" r="2" fill="green"/>
    <circle cx="68.99203984800938" cy="190.66562971336526" r="2" fill="green"/>
    <circle cx="68.18856140855173" cy="195.7497878474344" r="2" fill="green"/>
    <circle cx="116.58415546153279" cy="146.31836173669916" r="2" fill="green"/>
    <circle cx="3.0772747836263017" cy="128.59292498109454" r="2" fill="green"/>
    <circle cx="80.9452371618717" cy="61.64067634786368" r="2" fill="green"/>
    <circle cx="40.56820348948112" cy="93.22127769912842" r="2" fill="green"/>
    <circle cx="28.732595747126748" cy="61.38072787946649" r="2" fill="green"/>
    <circle cx="110.25329987714719" cy="179.44169786843935" r="2" fill="green"/>
    <circle cx="160.99624832474635" cy="45.433625937981176" r="2" fill="green"/>
    <circle cx="4.5408381395743085" cy="134.35548123586833" r="2" fill="green"/>
    <circle cx="115.9993252019236" cy="87.20059037750123" r="2" fill="green"/>
    <circle cx="4.999351588096913" cy="104.3790037342043" r="2" fill="green"/>
    <circle cx="149.26066485186684" cy="77.47866623520278" r="2" fill="green"/>
    <circle cx="13.56701684029637" cy="183.7045312063404" r="2" fill="green"/>
    <circle cx="54.05698278197846" cy="132.53650473181332" r="2" fill="green"/>
    <circle cx="49.282921396740825" cy="11.426316230905817" r="2" fill="green"/>
    <circle cx="110.92560052063935" cy="191.2901324517162" r="2" fill="green"/>
    <circle cx="95.90749697095468" cy="62.904814746251525" r="2" fill="green"/>
    <circle cx="177.8854238790059" cy="116.21424616352985" r="2" fill="green"/>
    <circle cx="12.437174120705055" cy="74.10220534374831" r="2" fill="green"/>
    <circle cx="44.9421339182669" cy="21.169466995784536" r="2" fill="green"/>
    <circle cx="66.3618574348114" cy="145.4686783807179" r="2" fill="green"/>
    <circle cx="92.25757803979327" cy="163.19425691066414" r="2" fill="green"/>
    <circle cx="109.73222111378406" cy="53.80861677266824" r="2" fill="green"/>
    <circle cx="127.72851578062091" cy="118.04193293614281" r="2" fill="#C70039"/>
    <circle cx="93.0615196706723" cy="169.64682449957246" r="2" fill="#C70039"/>
    <circle cx="116.37561181499642" cy="55.107319411617475" r="2" fill="#C70039"/>
    <circle cx="177.04003064827742" cy="154.443091378946" r="2" fill="#C70039"/>
    <circle cx="191.82914212229508" cy="134.1014794605911" r="2" fill="#C70039"/>
    <circle cx="145.75530995351644" cy="7.2747922348351395" r="2" fill="#C70039"/>
    <circle cx="84.88575807713696" cy="191.01229552198532" r="2" fill="#C70039"/>
    <circle cx="7.304846584768564" cy="114.3744226821299" r="2" fill="#C70039"/>
    <circle cx="15.427755400187145" cy="76.2021090960308" r="2" fill="#C70039"/>
    <circle cx="48.56731654973093" cy="148.304044615001" r="2" fill="#C70039"/>
    <circle cx="18.16966496398406" cy="46.691678646733855" r="2" fill="#C70039"/>
    <circle cx="122.75314008705223" cy="90.47680763009573" r="2" fill="#C70039"/>
    <circle cx="70.09385048353128" cy="97.93335202017619" r="2" fill="#C70039"/>
    <circle cx="3.8852324095061497" cy="33.03183700083533" r="2" fill="#C70039"/>
    <circle cx="119.56839025929774" cy="23.180890040878378" r="2" fill="#C70039"/>
    <circle cx="63.339674204594886" cy="181.22693872450532" r="2" fill="#C70039"/>
    <circle cx="113.64266537426415" cy="119.41714234317952" r="2" fill="#C70039"/>
    <circle cx="49.55640279161235" cy="47.57982259297401" r="2" fill="#C70039"/>
    <circle cx="3.3071236275085174" cy="72.92831224376664" r="2" fill="#C70039"/>
    <circle cx="128.5800446104635" cy="24.267793446929833" r="2" fill="#C70039"/>
    <circle cx="170.00443066764663" cy="171.38253762702874" r="2" fill="#C70039"/>
    <circle cx="196.44077232841227" cy="106.8518523992707" r="2" fill="#C70039"/>
    <circle cx="43.59529076516594" cy="117.8545552755252" r="2" fill="#C70039"/>
    <circle cx="23.90779205130879" cy="99.90636824381932" r="2" fill="#C70039"/>
    <circle cx="113.85446033877828" cy="23.394677845026074" r="2" fill="#C70039"/>
    <circle cx="53.30862263429227" cy="27.755986689984173" r="2" fill="#C70039"/>
    <circle cx="150.73948784909328" cy="46.24681136342181" r="2" fill="#C70039"/>
    <circle cx="129.27062849230947" cy="163.09715987604466" r="2" fill="#C70039"/>
    <circle cx="161.47104802003656" cy="172.12287103086862" r="2" fill="#C70039"/>
    <circle cx="32.25797681116458" cy="73.77158505726602" r="2" fill="#C70039"/>
    <circle cx="159.600587031226" cy="116.7018271241331" r="2" fill="#C70039"/>
    <circle cx="172.0142822094351" cy="64.21990421664319" r="2" fill="#C70039"/>
    <circle cx="163.50124074196205" cy="179.02370745424517" r="2" fill="#C70039"/>
    <circle cx="22.77956974864803" cy="114.66814365422177" r="2" fill="#C70039"/>
    <circle cx="68.40113333355164" cy="127.73868693830478" r="2" fill="#C70039"/>
    <circle cx="114.12895249613057" cy="93.74804589824178" r="2" fill="#C70039"/>
    <circle cx="118.12115997376083" cy="30.73530735027603" r="2" fill="#C70039"/>
    <circle cx="111.0758022034283" cy="14.940280391732268" r="2" fill="#C70039"/>
    <circle cx="178.43126779827372" cy="143.02985227477768" r="2" fill="#C70039"/>
    <circle cx="161.9022949663564" cy="191.91545521851293" r="2" fill="#C70039"/>
    <circle cx="158.46856463612656" cy="194.37408584480008" r="2" fill="#C70039"/>
    <circle cx="92.81937722615983" cy="107.74514396288922" r="2" fill="#C70039"/>
    <circle cx="41.31281336552426" cy="33.53463102076856" r="2" fill="#C70039"/>
    <circle cx="83.89267756115933" cy="36.554362405387764" r="2" fill="#C70039"/>
    <circle cx="158.8075269764238" cy="136.7766405538053" r="2" fill="#C70039"/>
    <circle cx="53.16403211973548" cy="20.1056447566929" r="2" fill="#C70039"/>
    <circle cx="115.97723345897585" cy="93.75627861999291" r="2" fill="#C70039"/>
    <circle cx="105.44789631671559" cy="145.7326515402798" r="2" fill="#C70039"/>
    <circle cx="196.50305548971875" cy="126.6671028601483" r="2" fill="#C70039"/>
    <circle cx="34.15547112581888" cy="66.8058861918408" r="2" fill="#C70039"/>
    <circle cx="50.30180241506593" cy="153.55937018298297" r="2" fill="#C70039"/>
    <circle cx="96.08815740142039" cy="83.74245547588013" r="2" fill="#C70039"/>
    <circle cx="84.752051495722" cy="74.30860987299243" r="2" fill="#C70039"/>
    <circle cx="90.32946399203433" cy="24.71708800212899" r="2" fill="#C70039"/>
    <circle cx="119.82315470026295" cy="96.4531721160231" r="2" fill="#C70039"/>
    <circle cx="138.76338263952562" cy="139.69800839626754" r="2" fill="#C70039"/>
    <circle cx="13.265956295000247" cy="37.49501954044452" r="2" fill="#C70039"/>
    <circle cx="126.34675048476728" cy="13.365744085163794" r="2" fill="#C70039"/>
    <circle cx="133.2741788420669" cy="13.393613005154954" r="2" fill="#C70039"/>
    <circle cx="18.530613773931677" cy="56.8174434538975" r="2" fill="#C70039"/>
    <circle cx="3.3454647631817047" cy="35.069188045366644" r="2" fill="#C70039"/>
    <circle cx="129.05386263238717" cy="52.42973476103687" r="2" fill="#C70039"/>
    <circle cx="195.02029111666536" cy="120.33787038529724" r="2" fill="#C70039"/>
    <circle cx="115.875059244271" cy="169.50707121677334" r="2" fill="#C70039"/>
    <circle cx="10.041160704618008" cy="177.82328368273832" r="2" fill="#C70039"/>
    <circle cx="170.70692971715664" cy="90.17992458291666" r="2" fill="#C70039"/>
    <circle cx="183.0432032181651" cy="70.48021136756815" r="2" fill="#C70039"/>
    <circle cx="148.3323718960813" cy="74.33319391582499" r="2" fill="#C70039"/>
    <circle cx="129.73208324901756" cy="68.3551836549779" r="2" fill="#C70039"/>
    <circle cx="136.38194631787906" cy="103.55901632875964" r="2" fill="#C70039"/>
    <circle cx="52.815849733656975" cy="95.36329262356425" r="2" fill="#C70039"/>
    <circle cx="82.07311104563082" cy="28.896069143536497" r="2" fill="#C70039"/>
    <circle cx="93.3063724706658" cy="130.0279729403164" r="2" fill="#C70039"/>
    <circle cx="142.26590229011168" cy="74.84790275460591" r="2" fill="#C70039"/>
    <circle cx="154.2862621991012" cy="44.93194370430559" r="2" fill="#C70039"/>
    <circle cx="30.899194975160654" cy="22.82048769873616" r="2" fill="#C70039"/>
    <circle cx="35.051541880510904" cy="2.449361213131758" r="2" fill="#C70039"/>
    <circle cx="104.68112788259667" cy="19.569499980682714" r="2" fill="#C70039"/>
    <circle cx="41.437082795539624" cy="188.34817901694285" r="2" fill="#C70039"/>
    <circle cx="99.25598581280629" cy="76.94742726297667" r="2" fill="#C70039"/>
    <circle cx="108.69800382886248" cy="148.23259494338893" r="2" fill="#C70039"/>
    <circle cx="26.53797728961395" cy="106.64484804007195" r="2" fill="#C70039"/>
    <circle cx="48.662428282494645" cy="192.22973740999535" r="2" fill="#C70039"/>
    <circle cx="152.28222968913065" cy="123.06844560984482" r="2" fill="#C70039"/>
    <circle cx="162.163899972315" cy="33.63403375261629" r="2" fill="#C70039"/>
    <circle cx="113.71562793649402" cy="151.7275745764696" r="2" fill="#C70039"/>
    <circle cx="86.66287336396168" cy="152.25344880420823" r="2" fill="#C70039"/>
    <circle cx="127.88892615157684" cy="19.414914011828003" r="2" fill="#C70039"/>
    <circle cx="88.17667285773531" cy="154.0527108407289" r="2" fill="#C70039"/>
    <circle cx="143.6272276382867" cy="104.39202784251215" r="2" fill="#C70039"/>
    <circle cx="171.05995110930266" cy="66.60393836213196" r="2" fill="#C70039"/>
    <circle cx="6.859634460297949" cy="121.11586527081617" r="2" fill="#C70039"/>
    <circle cx="103.51137885838544" cy="92.9660323734826" r="2" fill="#C70039"/>
    <circle cx="78.17700845772505" cy="104.98797304029239" r="2" fill="#C70039"/>
    <circle cx="101.72223665721278" cy="72.80421839166691" r="2" fill="#C70039"/>
    <circle cx="23.076430801742145" cy="10.29340809245847" r="2" fill="#C70039"/>
    <circle cx="71.75864624369082" cy="118.8460833902449" r="2" fill="#C70039"/>
    <circle cx="167.82968731504627" cy="45.46061881496405" r="2" fill="#C70039"/>
    <circle cx="112.57457703117123" cy="103.825042299329" r="2" fill="#C70039"/>
    <circle cx="34.25095704585876" cy="3.1422455839530494" r="2" fill="#C70039"/>
    <line x1="0" y1="0" x2="82.9" y2="187.4" stroke="green" stroke-width="0.2"/>
    <line x1="0" y1="0" x2="4.8" y2="93.6" stroke="green" stroke-width="0.2"/>
    <line x1="0" y1="0" x2="98.9" y2="88.6" stroke="green" stroke-width="0.2"/>
    <line x1="0" y1="0" x2="44.7" y2="183.1" stroke="green" stroke-width="0.2"/>
    <line x1="0" y1="0" x2="20.1" y2="131.7" stroke="green" stroke-width="0.2"/>
    <line x1="0" y1="0" x2="128.5" y2="92.4" stroke="green" stroke-width="0.2"/>
    <line x1="0" y1="0" x2="123.8" y2="22.3" stroke="green" stroke-width="0.2"/>
    <line x1="0" y1="0" x2="69.2" y2="51.5" stroke="green" stroke-width="0.2"/>
    <line x1="0" y1="0" x2="17.2" y2="196.9" stroke="green" stroke-width="0.2"/>
    <line x1="0" y1="0" x2="67.5" y2="56.9" stroke="green" stroke-width="0.2"/>
    <line x1="0" y1="0" x2="108.6" y2="169.5" stroke="green" stroke-width="0.2"/>
    <line x1="0" y1="0" x2="174.0" y2="52.9" stroke="green" stroke-width="0.2"/>
    <line x1="0" y1="0" x2="87.1" y2="93.8" stroke="green" stroke-width="0.2"/>
    <line x1="0" y1="0" x2="49.5" y2="123.2" stroke="green" stroke-width="0.2"/>
    <line x1="0" y1="0" x2="44.9" y2="89.6" stroke="green" stroke-width="0.2"/>
    <line x1="0" y1="0" x2="68.5" y2="70.9" stroke="green" stroke-width="0.2"/>
    <line x1="0" y1="0" x2="77.8" y2="147.4" stroke="green" stroke-width="0.2"/>
    <line x1="0" y1="0" x2="78.0" y2="133.4" stroke="green" stroke-width="0.2"/>
    <line x1="0" y1="0" x2="94.1" y2="108.3" stroke="green" stroke-width="0.2"/>
    <line x1="0" y1="0" x2="51.1" y2="72.3" stroke="green" stroke-width="0.2"/>
    <line x1="0" y1="0" x2="8.5" y2="70.4" stroke="green" stroke-width="0.2"/>
    <line x1="0" y1="0" x2="50.1" y2="128.0" stroke="green" stroke-width="0.2"/>
    <line x1="0" y1="0" x2="146.6" y2="73.0" stroke="green" stroke-width="0.2"/>
    <line x1="0" y1="0" x2="41.7" y2="50.8" stroke="green" stroke-width="0.2"/>
    <line x1="0" y1="0" x2="74.1" y2="37.2" stroke="green" stroke-width="0.2"/>
    <line x1="0" y1="0" x2="177.6" y2="37.3" stroke="green" stroke-width="0.2"/>
    <line x1="0" y1="0" x2="171.8" y2="147.8" stroke="green" stroke-width="0.2"/>
    <line x1="0" y1="0" x2="33.5" y2="21.0" stroke="green" stroke-width="0.2"/>
    <line x1="0" y1="0" x2="183.8" y2="11.8" stroke="green" stroke-width="0.2"/>
    <line x1="0" y1="0" x2="40.0" y2="50.1" stroke="green" stroke-width="0.2"/>
    <line x1="0" y1="0" x2="102.6" y2="181.6" stroke="green" stroke-width="0.2"/>
    <line x1="0" y1="0" x2="57.4" y2="101.2" stroke="green" stroke-width="0.2"/>
    <line x1="0" y1="0" x2="59.2" y2="56.7" stroke="green" stroke-width="0.2"/>
    <line x1="0" y1="0" x2="8.4" y2="46.9" stroke="green" stroke-width="0.2"/>
    <line x1="0" y1="0" x2="28.4" y2="169.8" stroke="green" stroke-width="0.2"/>
    <line x1="0" y1="0" x2="82.7" y2="3.4" stroke="green" stroke-width="0.2"/>
    <line x1="0" y1="0" x2="135.1" y2="111.2" stroke="green" stroke-width="0.2"/>
    <line x1="0" y1="0" x2="159.4" y2="111.6" stroke="green" stroke-width="0.2"/>
    <line x1="0" y1="0" x2="50.4" y2="41.0" stroke="green" stroke-width="0.2"/>
    <line x1="0" y1="0" x2="171.1" y2="84.3" stroke="green" stroke-width="0.2"/>
    <line x1="0" y1="0" x2="78.8" y2="192.7" stroke="green" stroke-width="0.2"/>
    <line x1="0" y1="0" x2="62.9" y2="119.3" stroke="green" stroke-width="0.2"/>
    <line x1="0" y1="0" x2="56.1" y2="76.8" stroke="green" stroke-width="0.2"/>
    <line x1="0" y1="0" x2="86.2" y2="180.0" stroke="green" stroke-width="0.2"/>
    <line x1="0" y1="0" x2="10.4" y2="41.6" stroke="green" stroke-width="0.2"/>
    <line x1="0" y1="0" x2="42.8" y2="146.0" stroke="green" stroke-width="0.2"/>
    <line x1="0" y1="0" x2="187.6" y2="184.6" stroke="green" stroke-width="0.2"/>
    <line x1="0" y1="0" x2="132.9" y2="181.8" stroke="green" stroke-width="0.2"/>
    <line x1="0" y1="0" x2="83.7" y2="5.1" stroke="green" stroke-width="0.2"/>
    <line x1="0" y1="0" x2="144.4" y2="125.5" stroke="green" stroke-width="0.2"/>
    <line x1="0" y1="0" x2="94.7" y2="146.7" stroke="green" stroke-width="0.2"/>
    <line x1="0" y1="0" x2="81.8" y2="114.1" stroke="green" stroke-width="0.2"/>
    <line x1="0" y1="0" x2="161.8" y2="55.8" stroke="green" stroke-width="0.2"/>
    <line x1="0" y1="0" x2="92.6" y2="157.2" stroke="green" stroke-width="0.2"/>
    <line x1="0" y1="0" x2="166.3" y2="52.6" stroke="green" stroke-width="0.2"/>
    <line x1="0" y1="0" x2="148.3" y2="16.7" stroke="green" stroke-width="0.2"/>
    <line x1="0" y1="0" x2="135.1" y2="54.1" stroke="green" stroke-width="0.2"/>
    <line x1="0" y1="0" x2="137.5" y2="103.0" stroke="green" stroke-width="0.2"/>
    <line x1="0" y1="0" x2="37.3" y2="97.5" stroke="green" stroke-width="0.2"/>
    <line x1="0" y1="0" x2="130.1" y2="78.1" stroke="green" stroke-width="0.2"/>
    <line x1="0" y1="0" x2="90.7" y2="26.6" stroke="green" stroke-width="0.2"/>
    <line x1="0" y1="0" x2="11.1" y2="54.7" stroke="green" stroke-width="0.2"/>
    <line x1="0" y1="0" x2="111.6" y2="125.1" stroke="green" stroke-width="0.2"/>
    <line x1="0" y1="0" x2="32.3" y2="146.0" stroke="green" stroke-width="0.2"/>
    <line x1="0" y1="0" x2="97.6" y2="145.3" stroke="green" stroke-width="0.2"/>
    <line x1="0" y1="0" x2="156.3" y2="117.1" stroke="green" stroke-width="0.2"/>
    <line x1="0" y1="0" x2="28.4" y2="159.5" stroke="green" stroke-width="0.2"/>
    <line x1="0" y1="0" x2="64.1" y2="6.3" stroke="green" stroke-width="0.2"/>
    <line x1="0" y1="0" x2="128.8" y2="150.3" stroke="green" stroke-width="0.2"/>
    <line x1="0" y1="0" x2="157.4" y2="102.3" stroke="green" stroke-width="0.2"/>
    <line x1="0" y1="0" x2="28.1" y2="44.5" stroke="green" stroke-width="0.2"/>
    <line x1="0" y1="0" x2="140.5" y2="70.9" stroke="green" stroke-width="0.2"/>
    <line x1="0" y1="0" x2="172.4" y2="113.8" stroke="green" stroke-width="0.2"/>
    <line x1="0" y1="0" x2="108.0" y2="103.0" stroke="green" stroke-width="0.2"/>
    <line x1="0" y1="0" x2="124.4" y2="116.8" stroke="green" stroke-width="0.2"/>
    <line x1="0" y1="0" x2="117.0" y2="3.8" stroke="green" stroke-width="0.2"/>
    <line x1="0" y1="0" x2="69.0" y2="190.7" stroke="green" stroke-width="0.2"/>
    <line x1="0" y1="0" x2="68.2" y2="195.7" stroke="green" stroke-width="0.2"/>
    <line x1="0" y1="0" x2="116.6" y2="146.3" stroke="green" stroke-width="0.2"/>
    <line x1="0" y1="0" x2="3.1" y2="128.6" stroke="green" stroke-width="0.2"/>
    <line x1="0" y1="0" x2="80.9" y2="61.6" stroke="green" stroke-width="0.2"/>
    <line x1="0" y1="0" x2="40.6" y2="93.2" stroke="green" stroke-width="0.2"/>
    <line x1="0" y1="0" x2="28.7" y2="61.4" stroke="green" stroke-width="0.2"/>
    <line x1="0" y1="0" x2="110.3" y2="179.4" stroke="green" stroke-width="0.2"/>
    <line x1="0" y1="0" x2="161.0" y2="45.4" stroke="green" stroke-width="0.2"/>
    <line x1="0" y1="0" x2="4.5" y2="134.4" stroke="green" stroke-width="0.2"/>
    <line x1="0" y1="0" x2="116.0" y2="87.2" stroke="green" stroke-width="0.2"/>
    <line x1="0" y1="0" x2="5.0" y2="104.4" stroke="green" stroke-width="0.2"/>
    <line x1="0" y1="0" x2="149.3" y2="77.5" stroke="green" stroke-width="0.2"/>
    <line x1="0" y1="0" x2="13.6" y2="183.7" stroke="green" stroke-width="0.2"/>
    <line x1="0" y1="0" x2="54.1" y2="132.5" stroke="green" stroke-width="0.2"/>
    <line x1="0" y1="0" x2="49.3" y2="11.4" stroke="green" stroke-width="0.2"/>
    <line x1="0" y1="0" x2="110.9" y2="191.3" stroke="green" stroke-width="0.2"/>
    <line x1="0" y1="0" x2="95.9" y2="62.9" stroke="green" stroke-width="0.2"/>
    <line x1="0" y1="0" x2="177.9" y2="116.2" stroke="green" stroke-width="0.2"/>
    <line x1="0" y1="0" x2="12.4" y2="74.1" stroke="green" stroke-width="0.2"/>
    <line x1="0" y1="0" x2="44.9" y2="21.2" stroke="green" stroke-width="0.2"/>
    <line x1="0" y1="0" x2="66.4" y2="145.5" stroke="green" stroke-width="0.2"/>
    <line x1="0" y1="0" x2="92.3" y2="163.2" stroke="green" stroke-width="0.2"/>
    <line x1="0" y1="0" x2="109.7" y2="53.8" stroke="green" stroke-width="0.2"/>
    <line x1="127.7" y1="118.0" x2="200" y2="200" stroke="#C70039" stroke-width="0.2"/>
    <line x1="93.1" y1="169.6" x2="200" y2="200" stroke="#C70039" stroke-width="0.2"/>
    <line x1="116.4" y1="55.1" x2="200" y2="200" stroke="#C70039" stroke-width="0.2"/>
    <line x1="177.0" y1="154.4" x2="200" y2="200" stroke="#C70039" stroke-width="0.2"/>
    <line x1="191.8" y1="134.1" x2="200" y2="200" stroke="#C70039" stroke-width="0.2"/>
    <line x1="145.8" y1="7.3" x2="200" y2="200" stroke="#C70039" stroke-width="0.2"/>
    <line x1="84.9" y1="191.0" x2="200" y2="200" stroke="#C70039" stroke-width="0.2"/>
    <line x1="7.3" y1="114.4" x2="200" y2="200" stroke="#C70039" stroke-width="0.2"/>
    <line x1="15.4" y1="76.2" x2="200" y2="200" stroke="#C70039" stroke-width="0.2"/>
    <line x1="48.6" y1="148.3" x2="200" y2="200" stroke="#C70039" stroke-width="0.2"/>
    <line x1="18.2" y1="46.7" x2="200" y2="200" stroke="#C70039" stroke-width="0.2"/>
    <line x1="122.8" y1="90.5" x2="200" y2="200" stroke="#C70039" stroke-width="0.2"/>
    <line x1="70.1" y1="97.9" x2="200" y2="200" stroke="#C70039" stroke-width="0.2"/>
    <line x1="3.9" y1="33.0" x2="200" y2="200" stroke="#C70039" stroke-width="0.2"/>
    <line x1="119.6" y1="23.2" x2="200" y2="200" stroke="#C70039" stroke-width="0.2"/>
    <line x1="63.3" y1="181.2" x2="200" y2="200" stroke="#C70039" stroke-width="0.2"/>
    <line x1="113.6" y1="119.4" x2="200" y2="200" stroke="#C70039" stroke-width="0.2"/>
    <line x1="49.6" y1="47.6" x2="200" y2="200" stroke="#C70039" stroke-width="0.2"/>
    <line x1="3.3" y1="72.9" x2="200" y2="200" stroke="#C70039" stroke-width="0.2"/>
    <line x1="128.6" y1="24.3" x2="200" y2="200" stroke="#C70039" stroke-width="0.2"/>
    <line x1="170.0" y1="171.4" x2="200" y2="200" stroke="#C70039" stroke-width="0.2"/>
    <line x1="196.4" y1="106.9" x2="200" y2="200" stroke="#C70039" stroke-width="0.2"/>
    <line x1="43.6" y1="117.9" x2="200" y2="200" stroke="#C70039" stroke-width="0.2"/>
    <line x1="23.9" y1="99.9" x2="200" y2="200" stroke="#C70039" stroke-width="0.2"/>
    <line x1="113.9" y1="23.4" x2="200" y2="200" stroke="#C70039" stroke-width="0.2"/>
    <line x1="53.3" y1="27.8" x2="200" y2="200" stroke="#C70039" stroke-width="0.2"/>
    <line x1="150.7" y1="46.2" x2="200" y2="200" stroke="#C70039" stroke-width="0.2"/>
    <line x1="129.3" y1="163.1" x2="200" y2="200" stroke="#C70039" stroke-width="0.2"/>
    <line x1="161.5" y1="172.1" x2="200" y2="200" stroke="#C70039" stroke-width="0.2"/>
    <line x1="32.3" y1="73.8" x2="200" y2="200" stroke="#C70039" stroke-width="0.2"/>
    <line x1="159.6" y1="116.7" x2="200" y2="200" stroke="#C70039" stroke-width="0.2"/>
    <line x1="172.0" y1="64.2" x2="200" y2="200" stroke="#C70039" stroke-width="0.2"/>
    <line x1="163.5" y1="179.0" x2="200" y2="200" stroke="#C70039" stroke-width="0.2"/>
    <line x1="22.8" y1="114.7" x2="200" y2="200" stroke="#C70039" stroke-width="0.2"/>
    <line x1="68.4" y1="127.7" x2="200" y2="200" stroke="#C70039" stroke-width="0.2"/>
    <line x1="114.1" y1="93.7" x2="200" y2="200" stroke="#C70039" stroke-width="0.2"/>
    <line x1="118.1" y1="30.7" x2="200" y2="200" stroke="#C70039" stroke-width="0.2"/>
    <line x1="111.1" y1="14.9" x2="200" y2="200" stroke="#C70039" stroke-width="0.2"/>
    <line x1="178.4" y1="143.0" x2="200" y2="200" stroke="#C70039" stroke-width="0.2"/>
    <line x1="161.9" y1="191.9" x2="200" y2="200" stroke="#C70039" stroke-width="0.2"/>
    <line x1="158.5" y1="194.4" x2="200" y2="200" stroke="#C70039" stroke-width="0.2"/>
    <line x1="92.8" y1="107.7" x2="200" y2="200" stroke="#C70039" stroke-width="0.2"/>
    <line x1="41.3" y1="33.5" x2="200" y2="200" stroke="#C70039" stroke-width="0.2"/>
    <line x1="83.9" y1="36.6" x2="200" y2="200" stroke="#C70039" stroke-width="0.2"/>
    <line x1="158.8" y1="136.8" x2="200" y2="200" stroke="#C70039" stroke-width="0.2"/>
    <line x1="53.2" y1="20.1" x2="200" y2="200" stroke="#C70039" stroke-width="0.2"/>
    <line x1="116.0" y1="93.8" x2="200" y2="200" stroke="#C70039" stroke-width="0.2"/>
    <line x1="105.4" y1="145.7" x2="200" y2="200" stroke="#C70039" stroke-width="0.2"/>
    <line x1="196.5" y1="126.7" x2="200" y2="200" stroke="#C70039" stroke-width="0.2"/>
    <line x1="34.2" y1="66.8" x2="200" y2="200" stroke="#C70039" stroke-width="0.2"/>
    <line x1="50.3" y1="153.6" x2="200" y2="200" stroke="#C70039" stroke-width="0.2"/>
    <line x1="96.1" y1="83.7" x2="200" y2="200" stroke="#C70039" stroke-width="0.2"/>
    <line x1="84.8" y1="74.3" x2="200" y2="200" stroke="#C70039" stroke-width="0.2"/>
    <line x1="90.3" y1="24.7" x2="200" y2="200" stroke="#C70039" stroke-width="0.2"/>
    <line x1="119.8" y1="96.5" x2="200" y2="200" stroke="#C70039" stroke-width="0.2"/>
    <line x1="138.8" y1="139.7" x2="200" y2="200" stroke="#C70039" stroke-width="0.2"/>
    <line x1="13.3" y1="37.5" x2="200" y2="200" stroke="#C70039" stroke-width="0.2"/>
    <line x1="126.3" y1="13.4" x2="200" y2="200" stroke="#C70039" stroke-width="0.2"/>
    <line x1="133.3" y1="13.4" x2="200" y2="200" stroke="#C70039" stroke-width="0.2"/>
    <line x1="18.5" y1="56.8" x2="200" y2="200" stroke="#C70039" stroke-width="0.2"/>
    <line x1="3.3" y1="35.1" x2="200" y2="200" stroke="#C70039" stroke-width="0.2"/>
    <line x1="129.1" y1="52.4" x2="200" y2="200" stroke="#C70039" stroke-width="0.2"/>
    <line x1="195.0" y1="120.3" x2="200" y2="200" stroke="#C70039" stroke-width="0.2"/>
    <line x1="115.9" y1="169.5" x2="200" y2="200" stroke="#C70039" stroke-width="0.2"/>
    <line x1="10.0" y1="177.8" x2="200" y2="200" stroke="#C70039" stroke-width="0.2"/>
    <line x1="170.7" y1="90.2" x2="200" y2="200" stroke="#C70039" stroke-width="0.2"/>
    <line x1="183.0" y1="70.5" x2="200" y2="200" stroke="#C70039" stroke-width="0.2"/>
    <line x1="148.3" y1="74.3" x2="200" y2="200" stroke="#C70039" stroke-width="0.2"/>
    <line x1="129.7" y1="68.4" x2="200" y2="200" stroke="#C70039" stroke-width="0.2"/>
    <line x1="136.4" y1="103.6" x2="200" y2="200" stroke="#C70039" stroke-width="0.2"/>
    <line x1="52.8" y1="95.4" x2="200" y2="200" stroke="#C70039" stroke-width="0.2"/>
    <line x1="82.1" y1="28.9" x2="200" y2="200" stroke="#C70039" stroke-width="0.2"/>
    <line x1="93.3" y1="130.0" x2="200" y2="200" stroke="#C70039" stroke-width="0.2"/>
    <line x1="142.3" y1="74.8" x2="200" y2="200" stroke="#C70039" stroke-width="0.2"/>
    <line x1="154.3" y1="44.9" x2="200" y2="200" stroke="#C70039" stroke-width="0.2"/>
    <line x1="30.9" y1="22.8" x2="200" y2="200" stroke="#C70039" stroke-width="0.2"/>
    <line x1="35.1" y1="2.4" x2="200" y2="200" stroke="#C70039" stroke-width="0.2"/>
    <line x1="104.7" y1="19.6" x2="200" y2="200" stroke="#C70039" stroke-width="0.2"/>
    <line x1="41.4" y1="188.3" x2="200" y2="200" stroke="#C70039" stroke-width="0.2"/>
    <line x1="99.3" y1="76.9" x2="200" y2="200" stroke="#C70039" stroke-width="0.2"/>
    <line x1="108.7" y1="148.2" x2="200" y2="200" stroke="#C70039" stroke-width="0.2"/>
    <line x1="26.5" y1="106.6" x2="200" y2="200" stroke="#C70039" stroke-width="0.2"/>
    <line x1="48.7" y1="192.2" x2="200" y2="200" stroke="#C70039" stroke-width="0.2"/>
    <line x1="152.3" y1="123.1" x2="200" y2="200" stroke="#C70039" stroke-width="0.2"/>
    <line x1="162.2" y1="33.6" x2="200" y2="200" stroke="#C70039" stroke-width="0.2"/>
    <line x1="113.7" y1="151.7" x2="200" y2="200" stroke="#C70039" stroke-width="0.2"/>
    <line x1="86.7" y1="152.3" x2="200" y2="200" stroke="#C70039" stroke-width="0.2"/>
    <line x1="127.9" y1="19.4" x2="200" y2="200" stroke="#C70039" stroke-width="0.2"/>
    <line x1="88.2" y1="154.1" x2="200" y2="200" stroke="#C70039" stroke-width="0.2"/>
    <line x1="143.6" y1="104.4" x2="200" y2="200" stroke="#C70039" stroke-width="0.2"/>
    <line x1="171.1" y1="66.6" x2="200" y2="200" stroke="#C70039" stroke-width="0.2"/>
    <line x1="6.9" y1="121.1" x2="200" y2="200" stroke="#C70039" stroke-width="0.2"/>
    <line x1="103.5" y1="93.0" x2="200" y2="200" stroke="#C70039" stroke-width="0.2"/>
    <line x1="78.2" y1="105.0" x2="200" y2="200" stroke="#C70039" stroke-width="0.2"/>
    <line x1="101.7" y1="72.8" x2="200" y2="200" stroke="#C70039" stroke-width="0.2"/>
    <line x1="23.1" y1="10.3" x2="200" y2="200" stroke="#C70039" stroke-width="0.2"/>
    <line x1="71.8" y1="118.8" x2="200" y2="200" stroke="#C70039" stroke-width="0.2"/>
    <line x1="167.8" y1="45.5" x2="200" y2="200" stroke="#C70039" stroke-width="0.2"/>
    <line x1="112.6" y1="103.8" x2="200" y2="200" stroke="#C70039" stroke-width="0.2"/>
    <line x1="34.3" y1="3.1" x2="200" y2="200" stroke="#C70039" stroke-width="0.2"/>
  </g>
</svg>
