<?xml version="1.0" encoding="UTF-8" standalone="no"?>
<svg width="1000" height="500" version="1.1" xmlns="http://www.w3.org/2000/svg">
    <g opacity="1.0">
        <style> path { stroke: #33FFC9; stroke-width: 1; fill: transparent; } </style>
        <path d="M 40.5 235.1 L  40.5 235.1 41.0 265.9 47.8 254.2 53.7 258.2 50.0 246.7 42.9 252.0 42.7 246.2 28.2 247.0 49.4 281.0 52.7 246.4 65.7 259.3 58.4 261.3 70.7 239.5 64.1 251.2 34.2 231.5 54.0 242.6 51.1 243.6 37.6 243.7 42.9 245.8 66.8 248.2z"/>
        <path d="M 44.9 266.1 L  44.9 266.1 66.7 270.0 61.6 277.2 54.8 262.5 62.3 249.6 65.3 270.4 60.3 249.5 60.0 223.2 60.3 239.7 46.8 243.2 59.1 235.6 59.8 247.8 30.3 237.9 43.5 252.7 45.8 254.6 47.3 243.9 43.9 258.7 48.8 260.0 42.1 282.7 68.5 240.7z"/>
        <path d="M 57.4 246.1 L  57.4 246.1 61.5 246.9 44.3 233.7 38.0 241.9 46.2 237.0 16.3 265.4 41.0 255.6 37.6 257.6 57.3 271.4 41.7 263.6 45.1 275.3 56.4 259.3 64.6 252.7 67.5 262.1 70.9 255.5 71.0 251.8 58.7 248.8 43.3 248.7 37.3 236.1 63.5 228.0z"/>
        <path d="M 65.2 262.6 L  65.2 262.6 72.5 251.4 65.7 225.2 55.1 224.0 83.3 227.7 64.0 249.6 54.7 227.1 53.2 220.5 37.4 237.0 53.5 240.3 33.2 222.6 49.2 228.1 31.8 244.3 53.7 273.5 42.6 259.3 47.3 277.4 57.2 276.0 45.4 262.6 58.5 268.8 69.6 274.0z"/>
        <path d="M 48.5 277.6 L  48.5 277.6 69.4 274.4 41.7 280.1 56.4 280.0 73.8 292.5 67.1 273.6 70.1 271.1 88.7 266.4 83.1 242.1 84.0 247.8 67.7 239.3 58.0 235.4 52.0 247.3 60.0 224.3 52.8 237.4 40.5 232.2 46.8 244.9 26.2 242.4 40.4 242.9 41.4 249.2z"/>
        <path d="M 33.7 248.9 L  33.7 248.9 35.3 271.3 59.5 286.1 54.0 278.6 33.3 272.5 50.3 284.9 48.9 270.0 64.1 270.3 75.3 275.1 69.0 281.6 89.9 264.0 68.6 246.9 86.8 248.5 67.1 242.6 78.8 230.5 61.7 230.1 55.1 229.3 43.6 228.3 58.6 262.2 27.7 258.7z"/>
        <path d="M 83.2 215.0 L  83.2 215.0 78.5 265.3 76.4 226.1 63.6 224.8 54.3 214.0 63.6 218.8 50.1 230.6 35.9 266.7 33.0 280.7 52.1 268.3 52.7 262.7 52.8 289.8 38.5 274.0 51.7 295.4 64.7 266.7 87.9 256.9 71.0 265.5 85.7 258.9 92.9 271.1 96.4 252.3z"/>
        <path d="M 73.3 238.1 L  73.3 238.1 46.4 233.0 40.9 219.7 43.0 237.0 31.4 246.1 44.1 240.1 46.2 269.0 41.9 289.0 69.2 256.5 50.2 292.9 62.5 270.8 66.9 277.8 81.5 275.2 72.8 285.4 76.6 265.2 67.7 238.8 86.9 248.9 76.5 240.5 79.6 234.5 67.6 229.2z"/>
        <path d="M 76.5 225.0 L  76.5 225.0 69.3 224.1 35.9 219.9 35.3 228.4 24.7 231.8 50.1 246.0 26.7 235.2 50.7 282.4 36.0 276.8 54.4 289.3 68.0 283.6 66.0 287.5 57.2 286.0 73.9 283.9 92.6 284.5 106.0 260.7 93.5 270.0 109.8 224.3 83.9 235.7 85.0 228.3z"/>
        <path d="M 110.6 249.7 L  110.6 249.7 99.3 247.8 104.6 233.3 87.3 218.2 68.9 211.0 66.3 222.8 81.1 228.5 64.5 224.1 42.5 238.9 47.6 253.6 30.9 250.4 28.4 258.8 41.6 259.8 58.6 283.8 58.7 276.1 74.1 283.3 66.2 292.1 86.4 280.1 82.6 285.6 90.7 281.6z"/>
        <path d="M 78.2 219.6 L  78.2 219.6 59.0 224.8 63.9 215.4 54.8 224.7 48.0 231.8 29.5 262.8 26.2 234.4 32.5 263.1 64.4 274.6 60.4 306.6 71.3 313.1 64.1 296.0 94.2 297.6 98.5 282.3 95.5 289.5 102.5 250.2 96.5 270.5 104.1 233.8 82.2 223.6 81.9 224.1z"/>
        <path d="M 41.3 284.4 L  41.3 284.4 64.0 290.9 57.6 304.3 58.1 297.7 78.9 281.1 76.8 289.1 88.3 311.5 115.9 285.2 125.0 258.1 116.1 260.0 107.2 223.0 89.6 228.1 87.5 222.0 73.3 227.5 67.5 208.2 70.5 204.9 27.8 217.7 22.5 250.0 47.1 258.3 44.1 249.5z"/>
        <path d="M 79.8 289.2 L  79.8 289.2 95.6 294.1 104.2 279.8 129.3 247.5 108.9 253.6 94.0 225.2 118.4 214.7 87.2 234.1 82.4 208.9 88.6 219.7 68.3 203.2 51.7 221.1 29.8 223.2 40.9 254.5 2.8 261.1 27.8 302.7 41.5 282.2 72.1 301.8 59.8 304.7 73.5 301.9z"/>
        <path d="M 74.4 202.0 L  74.4 202.0 55.5 216.0 51.5 223.3 28.7 254.2 31.1 266.8 40.7 292.2 52.3 288.3 68.4 308.7 72.7 299.7 84.6 286.1 95.5 295.0 98.2 284.0 117.5 276.5 130.7 266.4 127.1 254.5 97.8 225.9 104.1 216.2 99.5 193.8 98.0 203.4 82.1 213.8z"/>
        <path d="M 124.2 254.0 L  124.2 254.0 111.5 233.5 119.9 237.6 94.4 225.9 79.8 194.6 80.9 219.6 53.0 204.4 65.3 189.8 50.3 223.0 16.5 276.0 33.3 268.1 30.2 276.6 51.0 291.2 72.6 316.8 67.2 322.4 89.6 324.2 98.9 306.5 116.0 302.8 125.7 294.9 127.3 259.5z"/>
        <path d="M 139.4 289.0 L  139.4 289.0 143.6 231.8 129.4 259.7 119.3 228.0 99.2 214.5 97.5 191.6 80.5 195.9 77.0 208.9 77.9 207.8 40.6 201.6 38.0 224.4 42.3 267.4 43.2 260.6 46.8 284.9 67.0 290.2 60.2 314.9 67.9 302.4 98.0 313.1 87.7 302.1 137.8 315.3z"/>
        <path d="M 99.3 211.9 L  99.3 211.9 74.3 201.9 84.5 203.0 64.7 194.4 60.0 202.3 39.1 234.6 33.3 251.8 32.0 262.3 35.4 315.9 47.1 300.5 65.0 317.9 85.8 322.0 80.4 318.4 110.9 292.4 110.3 298.4 122.5 289.2 144.2 251.9 144.4 247.6 147.3 227.1 113.2 218.1z"/>
        <path d="M 50.0 313.0 L  50.0 313.0 61.1 318.3 61.5 328.7 95.4 301.0 94.8 321.9 110.7 304.8 135.8 298.3 120.5 277.5 139.8 266.1 131.8 199.7 118.0 206.0 107.5 222.3 96.8 196.5 75.7 213.5 57.6 211.0 46.8 207.9 44.5 212.0 28.5 272.0 37.2 257.2 25.6 303.7z"/>
        <path d="M 34.6 205.4 L  34.6 205.4 25.4 283.5 21.6 264.4 37.9 300.3 55.3 300.9 56.4 319.3 95.4 298.0 99.0 321.2 124.2 312.0 127.8 321.8 149.2 306.1 141.9 262.2 138.0 259.5 139.0 221.7 129.8 228.2 94.2 212.4 96.4 203.6 65.3 193.0 79.0 199.2 56.8 210.8z"/>
        <path d="M 147.6 312.3 L  147.6 312.3 155.4 276.6 156.6 255.6 143.5 230.7 126.2 223.7 120.6 192.9 99.0 212.3 86.0 201.6 82.6 225.7 46.3 221.4 44.3 222.1 41.8 258.8 22.5 261.2 42.4 307.6 61.3 294.9 68.3 322.0 75.6 332.4 114.7 302.5 96.2 319.6 128.4 317.5z"/>
        <path d="M 100.6 202.7 L  100.6 202.7 112.7 193.2 87.4 207.6 77.4 192.6 63.7 220.9 37.1 227.2 37.8 257.8 25.5 263.8 36.7 304.4 66.4 316.7 80.5 336.1 90.9 342.3 100.5 340.8 121.3 329.8 135.1 325.3 155.4 298.2 145.9 254.6 158.3 266.5 146.4 217.1 127.6 203.7z"/>
        <path d="M 43.2 236.0 L  43.2 236.0 21.8 266.9 40.1 270.7 60.9 296.2 56.0 313.8 64.6 334.7 105.4 320.7 107.7 350.7 132.8 337.1 145.1 311.1 146.9 305.8 167.2 267.8 170.3 256.3 149.7 215.5 148.4 199.6 118.7 181.8 113.2 208.4 100.2 178.3 74.9 178.5 53.7 192.8z"/>
        <path d="M 93.4 328.7 L  93.4 328.7 133.4 321.4 143.1 335.2 145.9 310.3 181.0 312.8 188.6 257.8 169.8 253.7 166.9 215.1 143.3 203.3 150.4 195.3 124.8 200.4 103.4 183.5 111.0 196.2 72.5 195.2 54.4 227.5 24.6 292.7 22.3 242.1 50.8 306.9 65.6 331.2 68.3 341.4z"/>
        <path d="M 59.4 308.9 L  59.4 308.9 59.8 329.3 73.0 327.1 98.2 343.2 132.1 322.3 138.9 345.2 156.4 327.1 156.7 303.8 178.0 252.7 178.2 266.0 185.3 218.1 149.7 204.4 152.7 198.6 141.5 177.6 134.4 190.2 81.3 197.0 68.0 185.6 58.3 224.2 26.8 267.8 28.6 259.1z"/>
        <path d="M 70.0 327.7 L  70.0 327.7 120.3 338.3 131.4 347.4 153.5 338.1 156.0 335.1 171.8 303.8 204.0 278.8 177.1 271.5 180.9 223.8 166.8 189.5 133.7 174.2 126.7 170.2 99.5 194.2 84.5 183.1 71.8 204.0 58.6 209.9 33.9 273.0 39.4 252.7 64.5 319.3 79.6 325.4z"/>
        <path d="M 61.0 260.2 L  61.0 260.2 37.5 259.8 65.8 326.3 84.2 325.1 108.7 344.5 131.5 343.8 130.6 357.3 144.1 334.0 173.9 338.1 192.4 314.6 217.3 261.2 179.0 251.0 195.4 225.4 189.8 192.0 133.6 185.8 133.2 212.6 120.6 173.1 108.5 181.6 67.3 191.7 62.0 202.6z"/>
        <path d="M 155.6 343.1 L  155.6 343.1 180.5 331.5 192.3 293.6 213.6 262.3 216.5 258.2 194.2 214.7 179.0 195.3 155.4 182.0 168.5 170.5 111.3 188.3 96.3 184.0 92.6 203.8 81.1 212.0 60.5 254.1 45.8 256.2 59.2 325.8 88.7 345.7 111.9 330.4 127.4 339.0 147.0 355.1z"/>
        <path d="M 87.1 206.5 L  87.1 206.5 57.4 208.5 56.4 244.3 45.9 262.4 71.7 325.3 98.3 321.8 100.0 332.0 124.8 331.9 156.8 359.3 151.3 368.9 197.1 333.7 197.0 311.0 225.1 255.1 231.4 271.6 202.7 208.4 179.2 191.6 159.5 181.4 137.6 192.4 124.6 171.4 116.8 180.8z"/>
        <path d="M 222.7 338.7 L  222.7 338.7 211.0 312.4 231.7 272.2 200.1 235.3 207.8 209.6 178.1 181.2 151.8 184.0 149.6 184.8 146.2 175.1 114.6 171.5 91.2 170.6 62.3 207.5 47.3 270.4 50.9 253.4 72.8 314.7 90.3 343.4 125.8 349.9 133.4 369.2 142.3 371.5 172.5 368.7z"/>
        <path d="M 74.4 219.6 L  74.4 219.6 61.6 251.7 50.4 265.5 58.6 327.5 81.2 339.2 112.3 360.5 130.8 342.5 147.3 343.5 178.8 334.6 182.5 330.6 206.3 315.5 228.5 275.8 231.3 259.5 211.5 203.9 197.1 202.0 165.3 170.8 152.5 186.9 142.4 173.1 119.2 180.4 93.0 173.5z"/>
        <path d="M 236.4 274.2 L  236.4 274.2 226.0 220.7 217.6 193.4 193.7 170.3 154.2 172.9 124.0 158.7 121.1 181.3 101.6 193.2 75.3 206.1 45.3 279.7 50.5 259.3 52.8 327.6 87.7 347.2 110.1 361.0 147.4 370.5 133.5 338.3 173.7 378.8 190.4 340.5 215.9 324.0 236.4 260.4z"/>
        <path d="M 92.0 354.9 L  92.0 354.9 92.9 348.2 135.5 342.4 148.2 373.8 177.8 365.4 190.3 350.3 220.6 325.2 255.2 261.8 234.0 276.0 221.4 215.9 202.7 190.0 171.4 183.1 151.6 163.3 140.1 192.0 111.8 166.0 85.8 172.0 65.4 220.6 59.0 262.5 33.6 277.5 66.1 312.6z"/>
        <path d="M 57.1 270.3 L  57.1 270.3 55.4 281.5 68.5 338.9 105.1 336.2 117.2 355.1 147.7 369.1 162.4 369.3 181.3 376.8 202.1 342.8 230.9 329.7 253.2 268.4 251.0 265.9 247.3 215.0 192.8 177.5 191.5 172.4 163.0 149.6 153.5 181.4 105.8 169.4 105.1 183.2 83.2 205.0z"/>
        <path d="M 227.6 358.4 L  227.6 358.4 244.0 323.0 262.6 265.5 268.7 271.5 233.7 202.8 222.8 188.7 189.7 182.4 161.4 144.2 138.3 146.8 132.1 168.1 83.5 175.0 77.7 213.8 46.8 259.1 75.7 272.9 82.6 341.9 98.9 348.1 118.6 364.4 155.6 385.8 176.1 372.3 177.6 376.4z"/>
        <path d="M 256.6 257.9 L  256.6 257.9 267.3 276.6 232.5 213.1 216.7 180.8 196.4 164.3 169.4 139.4 152.6 171.1 102.9 165.4 110.6 169.7 69.1 198.6 60.9 277.3 59.9 267.8 82.0 335.1 103.8 368.8 144.5 376.8 140.4 373.4 193.7 364.0 206.6 375.1 218.0 358.6 267.2 338.0z"/>
        <path d="M 127.4 370.4 L  127.4 370.4 159.0 378.2 161.3 371.5 211.3 359.6 246.9 376.7 258.5 334.2 298.0 282.9 282.4 258.5 251.3 204.2 210.3 182.0 217.5 168.0 181.5 159.0 151.9 179.8 137.2 151.9 91.3 175.5 82.7 178.7 51.1 278.3 55.3 287.2 77.4 357.8 104.1 348.9z"/>
        <path d="M 286.4 278.7 L  286.4 278.7 266.8 201.5 226.6 163.2 205.8 167.1 180.5 166.5 143.0 160.7 118.4 160.2 103.0 170.5 84.9 198.6 55.9 279.6 59.5 272.5 94.6 341.1 113.9 372.4 140.4 373.8 155.1 377.7 206.3 362.4 200.3 371.6 225.3 377.2 239.3 341.9 270.2 277.9z"/>
        <path d="M 40.9 270.2 L  40.9 270.2 53.4 279.6 92.1 341.6 112.9 385.9 129.6 386.1 156.5 382.1 183.6 382.7 211.7 386.7 232.7 363.7 253.1 331.7 287.2 266.4 277.3 274.3 257.7 209.7 233.2 163.8 208.7 168.7 181.8 169.9 154.4 156.4 143.8 155.4 112.7 172.7 80.4 195.8z"/>
        <path d="M 100.0 367.2 L  100.0 367.2 139.2 399.5 164.7 381.1 169.5 381.8 208.2 368.5 222.6 368.2 262.7 341.1 293.2 281.4 296.0 267.7 277.4 219.7 247.9 183.1 222.0 146.1 200.6 171.8 161.4 168.6 136.1 169.7 105.9 170.9 110.0 209.4 74.7 266.1 48.6 275.6 88.2 356.8z"/>
        <path d="M 199.2 155.0 L  199.2 155.0 191.1 144.2 172.4 146.8 122.1 190.7 123.9 194.4 94.8 195.0 46.6 269.9 64.9 271.3 94.8 339.9 114.3 380.8 144.0 386.7 167.8 388.4 200.8 378.7 211.5 397.9 252.2 370.5 265.3 342.2 277.8 280.0 301.0 277.0 269.8 184.4 251.6 172.9z"/>
        <path d="M 119.1 166.1 L  119.1 166.1 97.4 211.5 74.0 279.7 47.0 286.9 91.0 351.5 124.5 384.9 143.7 386.9 197.8 398.9 203.2 406.2 212.8 377.5 239.4 357.4 267.9 349.4 308.4 277.2 305.5 288.9 280.7 182.3 257.3 184.8 259.3 160.0 198.4 141.8 168.2 147.1 151.9 159.7z"/>
        <path d="M 174.7 406.5 L  174.7 406.5 211.4 386.9 242.5 381.4 248.5 372.3 283.0 336.2 312.5 284.3 303.5 263.9 292.7 210.3 241.0 165.9 232.7 159.7 194.9 159.3 176.5 144.1 133.9 139.0 138.4 173.3 85.1 177.4 66.3 295.7 72.1 291.8 90.7 342.3 109.6 375.7 178.2 409.4z"/>
        <path d="M 268.4 154.7 L  268.4 154.7 236.5 159.7 208.8 152.7 189.0 153.8 164.4 149.1 114.6 162.4 109.8 190.2 76.3 264.6 73.0 248.9 112.4 370.0 129.2 372.8 160.7 405.4 204.3 373.0 191.9 396.7 230.3 391.1 270.4 376.9 308.9 352.3 338.0 278.4 311.3 285.0 309.2 208.0z"/>
        <path d="M 248.6 156.1 L  248.6 156.1 217.8 149.2 194.3 142.6 159.1 173.5 132.9 188.5 115.5 205.2 82.5 266.7 77.1 261.0 95.8 350.9 134.2 389.1 159.2 397.2 191.3 401.4 232.3 403.0 259.9 376.4 285.2 368.8 302.3 351.9 340.4 256.1 339.7 287.9 293.3 196.9 279.7 181.0z"/>
        <path d="M 206.7 388.8 L  206.7 388.8 212.1 414.2 246.2 378.0 265.7 381.4 295.2 351.3 339.3 282.7 340.7 268.8 296.6 215.5 256.2 158.9 252.1 162.1 222.4 141.9 189.2 136.4 193.6 134.6 133.2 183.6 105.3 193.3 74.2 269.3 63.2 272.3 117.0 351.9 149.1 377.4 170.3 407.1z"/>
        <path d="M 341.7 285.3 L  341.7 285.3 346.8 265.7 314.0 200.4 277.2 151.9 247.4 144.8 215.0 142.2 202.9 140.4 176.7 160.9 120.2 175.2 115.1 190.6 78.8 282.7 93.3 268.9 96.9 370.0 125.1 379.8 160.6 376.9 190.4 409.2 225.9 418.0 256.5 396.1 293.6 395.8 283.3 364.4z"/>
        <path d="M 199.9 411.3 L  199.9 411.3 217.9 416.0 258.2 414.0 290.2 395.0 319.7 359.1 348.7 270.9 349.6 272.8 308.6 185.3 285.2 166.2 259.9 165.9 222.3 133.8 191.0 148.5 166.3 136.6 141.4 170.2 89.8 207.1 79.6 268.2 88.2 290.8 107.1 347.8 148.6 389.2 164.0 409.7z"/>
        <path d="M 374.1 272.7 L  374.1 272.7 327.3 205.2 317.5 156.8 277.1 142.7 240.4 114.2 202.0 137.4 171.4 149.5 147.0 158.6 104.2 187.7 72.4 275.1 74.2 272.6 130.2 354.9 134.4 395.4 168.0 383.6 183.4 429.7 242.6 408.3 284.1 387.3 283.6 400.3 332.4 349.0 363.9 294.1z"/>
        <path d="M 206.8 411.8 L  206.8 411.8 234.2 412.1 255.3 417.0 306.3 391.6 343.8 371.3 352.9 255.2 369.4 277.2 352.6 200.2 273.6 172.1 267.3 143.3 237.8 146.8 208.8 141.4 181.9 152.9 143.1 156.6 99.7 183.0 63.4 289.4 86.2 263.6 130.3 380.1 139.0 395.9 183.4 420.1z"/>
        <path d="M 302.3 372.9 L  302.3 372.9 329.2 373.4 334.9 268.8 365.1 279.3 343.9 170.9 318.2 175.5 270.5 150.7 223.3 129.3 203.3 125.6 187.6 136.2 147.0 177.4 121.9 178.7 68.8 283.6 85.4 253.2 124.3 357.1 156.5 385.6 181.2 405.4 203.1 420.3 240.2 420.7 276.1 415.5z"/>
        <path d="M 142.0 413.1 L  142.0 413.1 170.1 426.6 213.4 417.5 243.9 444.9 286.9 425.6 312.1 396.1 336.3 371.7 383.8 277.6 372.6 286.9 361.9 186.9 320.1 172.6 277.2 148.1 245.3 127.9 229.7 136.4 190.9 150.2 119.1 158.5 130.3 194.8 74.9 269.0 78.9 272.8 107.1 370.5z"/>
        <path d="M 231.5 138.2 L  231.5 138.2 181.3 142.0 169.5 166.8 122.8 189.8 106.8 289.8 78.1 282.2 107.9 386.8 142.6 404.4 187.3 429.3 214.2 422.2 259.3 422.8 290.3 420.1 323.6 408.9 336.3 375.9 383.0 290.9 386.2 293.6 340.0 171.8 332.2 140.4 275.4 178.3 247.9 123.6z"/>
        <path d="M 339.8 149.6 L  339.8 149.6 300.5 142.5 247.1 119.8 230.2 126.3 184.4 137.4 175.7 136.4 109.6 180.4 83.9 298.0 79.7 286.4 108.4 368.3 150.8 416.7 180.6 437.5 233.2 442.5 260.1 456.3 297.0 413.5 320.5 394.6 364.2 380.9 408.2 303.6 394.0 272.0 346.4 181.5z"/>
        <path d="M 266.8 439.5 L  266.8 439.5 295.5 419.8 325.8 412.7 365.1 382.1 400.9 268.1 415.6 279.4 358.1 174.5 323.4 134.3 292.3 127.9 265.2 118.9 231.6 139.5 193.6 137.3 156.5 147.5 122.0 173.0 88.8 260.4 77.4 284.1 126.6 365.9 135.0 406.5 168.5 425.6 242.7 450.0z"/>
        <path d="M 234.7 127.7 L  234.7 127.7 188.3 125.7 157.5 148.2 135.1 189.4 69.0 264.7 89.6 276.5 111.1 389.6 162.4 410.7 191.6 414.6 228.7 460.2 267.2 427.5 302.5 426.7 328.2 409.9 373.7 402.9 418.4 284.2 419.6 271.9 364.5 178.0 336.4 138.8 307.6 148.2 272.4 127.4z"/>
        <path d="M 112.5 266.4 L  112.5 266.4 73.0 285.7 131.6 375.7 164.8 406.5 198.6 442.1 224.6 428.4 269.6 441.1 298.8 426.3 336.7 408.2 365.5 404.0 381.7 300.8 409.6 288.1 368.5 181.8 333.4 164.6 286.3 132.2 278.9 113.7 243.2 122.9 194.6 122.2 167.5 141.9 127.1 174.6z"/>
        <path d="M 243.1 141.5 L  243.1 141.5 210.1 121.0 162.8 143.5 126.4 176.1 69.1 283.5 83.5 286.1 135.4 367.4 157.2 415.3 202.0 429.7 234.5 444.8 270.8 435.7 305.2 427.0 360.7 402.2 377.7 385.8 412.4 275.6 415.5 267.1 388.1 174.7 327.6 135.8 323.0 122.1 264.1 142.2z"/>
        <path d="M 336.9 414.5 L  336.9 414.5 382.8 387.6 434.0 282.4 412.2 266.1 361.8 183.7 350.6 152.7 312.7 117.0 282.1 124.3 230.8 116.3 202.5 132.8 146.2 148.4 136.0 190.8 97.7 303.7 99.4 295.8 130.9 393.7 163.9 421.3 201.4 450.0 256.1 432.1 257.5 450.9 292.9 449.4z"/>
        <path d="M 367.6 130.4 L  367.6 130.4 319.1 136.3 301.3 135.5 254.2 126.7 210.2 121.4 176.4 147.6 113.2 176.6 101.0 259.8 98.6 285.5 149.7 383.4 170.0 409.6 221.1 432.8 231.2 447.3 284.2 450.1 312.2 436.2 352.8 420.7 384.6 387.2 424.0 297.5 441.4 262.1 401.6 176.2z"/>
        <path d="M 223.5 424.3 L  223.5 424.3 255.1 460.6 290.2 432.2 320.6 446.7 389.5 426.9 402.1 402.1 453.9 281.2 436.8 282.8 404.7 162.2 379.2 158.8 323.6 123.2 275.1 120.3 239.5 122.8 225.5 137.3 167.0 155.1 148.4 193.1 118.3 291.4 109.6 294.8 136.6 390.6 187.8 421.6z"/>
        <path d="M 118.0 275.1 L  118.0 275.1 103.4 271.9 152.6 404.6 204.0 412.1 222.6 453.6 251.0 435.9 296.3 461.1 338.0 441.2 355.6 416.7 432.2 390.6 447.5 291.3 456.0 292.6 419.4 159.9 366.8 158.4 331.3 97.6 307.4 119.9 257.3 105.8 228.4 109.9 195.8 146.3 150.6 160.5z"/>
        <path d="M 138.3 299.3 L  138.3 299.3 119.1 286.4 153.2 384.5 191.4 425.3 237.4 440.0 269.2 450.5 287.4 461.7 353.6 440.3 384.0 419.5 421.3 395.0 457.6 270.7 469.0 290.6 421.9 188.0 363.5 137.9 338.8 108.7 312.2 117.7 239.3 117.6 254.3 111.8 181.1 130.1 151.5 182.4z"/>
        <path d="M 301.8 435.4 L  301.8 435.4 326.1 446.8 390.4 425.8 414.4 395.7 463.9 288.8 456.8 288.8 420.8 166.0 390.7 144.5 353.5 121.9 299.5 122.0 261.0 109.3 225.4 109.0 199.1 142.7 125.8 174.0 86.2 276.9 116.4 278.1 167.2 394.6 195.2 416.0 205.9 464.9 271.8 460.9z"/>
        <path d="M 287.1 465.1 L  287.1 465.1 304.0 446.4 353.1 437.8 372.8 414.8 434.4 410.5 455.8 290.6 464.7 285.6 426.9 178.4 373.7 132.0 338.1 99.7 283.7 117.6 290.1 117.8 238.5 129.4 213.1 116.1 144.9 172.5 117.0 290.5 137.9 280.5 155.2 403.5 207.0 430.7 235.2 440.3z"/>
        <path d="M 436.1 165.8 L  436.1 165.8 390.1 139.5 347.6 136.0 309.7 112.1 265.6 111.0 229.1 136.0 197.5 159.6 155.5 184.0 99.4 263.3 113.1 273.5 160.3 398.0 191.4 430.6 234.8 446.2 275.3 448.8 316.6 477.4 345.8 460.2 396.6 423.8 433.5 379.7 471.0 276.6 472.1 293.2z"/>
        <path d="M 469.8 297.2 L  469.8 297.2 470.4 282.2 435.6 197.5 393.3 151.6 343.9 108.2 322.6 116.6 282.0 124.4 222.6 127.3 202.7 122.9 158.3 174.2 122.8 289.9 112.4 290.4 153.2 402.0 190.7 444.0 252.4 452.5 281.3 481.6 302.6 445.8 356.8 466.6 400.2 444.5 440.7 392.7z"/>
        <path d="M 352.6 133.2 L  352.6 133.2 335.6 100.1 263.2 93.6 247.6 123.7 202.4 125.4 161.0 177.1 119.7 265.9 124.2 281.3 171.9 386.0 183.5 437.0 244.4 458.9 285.5 470.2 317.1 474.1 358.9 459.1 417.3 435.7 430.4 414.4 488.5 299.8 473.6 272.1 428.0 163.6 400.9 139.0z"/>
        <path d="M 452.2 174.0 L  452.2 174.0 413.6 129.5 378.2 117.1 340.0 96.4 285.3 120.6 247.9 113.1 210.7 133.9 162.5 176.8 132.0 302.0 129.5 289.1 180.1 393.1 214.2 442.5 244.9 454.8 287.0 474.8 306.4 451.4 357.7 446.8 406.3 449.3 455.6 397.6 503.8 305.1 480.8 283.6z"/>
        <path d="M 256.2 464.7 L  256.2 464.7 311.0 460.9 329.0 471.0 374.5 472.0 417.3 433.9 449.4 400.3 471.3 292.3 488.4 284.4 440.6 184.8 414.7 150.4 384.1 124.5 331.5 102.0 297.9 95.5 245.7 106.4 203.1 138.9 166.0 171.4 95.3 284.2 131.3 294.8 166.0 383.5 217.5 436.0z"/>
        <path d="M 406.8 149.7 L  406.8 149.7 373.5 104.5 326.2 120.7 298.7 80.2 259.2 114.9 225.9 134.6 168.4 170.5 144.7 300.6 137.8 291.8 186.6 400.9 225.3 438.1 260.9 454.7 296.8 485.2 332.6 475.0 375.0 463.0 420.6 432.7 468.4 406.7 516.5 280.2 497.7 291.7 460.7 181.4z"/>
        <path d="M 126.0 279.8 L  126.0 279.8 115.0 280.6 175.7 406.0 216.7 459.0 253.8 482.4 294.3 465.1 331.8 480.9 369.7 461.2 415.6 461.0 472.0 405.8 506.9 284.1 502.2 286.7 476.5 201.7 417.2 164.3 372.1 102.4 334.9 110.3 302.6 94.3 254.6 116.2 194.1 133.1 181.7 173.7z"/>
        <path d="M 224.7 447.2 L  224.7 447.2 260.3 469.8 295.7 491.1 352.7 486.6 368.7 474.6 428.2 453.3 464.2 409.6 514.6 304.6 537.7 295.3 474.8 174.0 436.9 118.0 400.0 97.2 352.1 99.4 306.9 101.9 262.7 130.6 237.2 115.3 171.2 154.9 146.3 302.9 150.5 282.1 169.3 414.4z"/>
        <path d="M 308.3 87.1 L  308.3 87.1 252.3 116.7 209.9 131.1 181.0 187.2 135.3 281.6 127.1 279.1 181.5 407.3 217.8 444.7 267.5 468.7 298.8 493.0 367.4 466.4 395.5 476.7 426.3 456.8 476.3 433.3 520.5 303.7 531.3 292.4 470.7 164.2 443.9 132.1 401.7 114.4 351.1 92.4z"/>
        <path d="M 213.3 129.6 L  213.3 129.6 178.2 165.7 132.8 320.2 124.9 287.8 181.7 408.7 204.6 454.7 260.0 476.9 302.0 484.9 349.6 489.4 406.9 475.8 443.1 464.1 484.0 413.8 532.7 298.3 523.0 312.3 489.8 174.6 444.6 128.0 378.7 108.4 345.4 107.7 285.9 87.0 272.4 127.3z"/>
        <path d="M 274.1 85.5 L  274.1 85.5 225.6 106.3 189.4 174.8 145.3 288.7 144.5 275.4 182.3 400.9 213.5 452.9 254.1 501.1 314.1 476.3 359.0 481.8 381.3 494.5 435.9 465.1 491.6 420.8 551.4 281.3 535.7 278.0 512.5 170.3 456.0 116.2 395.1 121.1 367.5 96.4 312.4 84.8z"/>
        <path d="M 208.9 432.9 L  208.9 432.9 261.5 458.7 315.6 498.3 362.9 475.9 413.6 477.9 448.7 446.0 497.8 410.1 546.5 281.0 537.8 284.1 495.1 162.9 454.5 136.0 401.4 112.9 361.2 93.4 320.4 98.2 264.0 87.8 234.3 130.3 195.1 165.7 142.2 299.8 140.4 289.0 173.3 410.1z"/>
        <path d="M 321.0 495.7 L  321.0 495.7 370.0 483.4 411.0 496.1 446.4 457.7 510.8 419.4 556.8 280.5 524.7 300.0 497.0 169.3 443.3 128.7 422.1 100.5 374.8 85.6 311.4 95.8 272.3 90.7 223.0 133.4 175.9 153.8 131.0 295.0 136.7 302.8 176.6 411.5 240.3 459.0 285.8 471.2z"/>
        <path d="M 549.0 288.9 L  549.0 288.9 490.1 173.2 455.8 116.5 410.0 90.8 347.3 92.3 309.4 99.1 274.9 100.7 232.6 127.9 163.9 174.3 114.6 290.8 156.0 289.8 211.6 419.9 202.8 459.0 297.7 492.7 326.8 481.1 356.7 491.8 394.5 495.9 455.2 478.4 494.0 411.2 551.8 302.2z"/>
        <path d="M 198.3 156.2 L  198.3 156.2 137.0 314.2 136.8 298.2 180.1 425.8 234.7 459.5 286.9 478.9 334.6 501.9 379.5 502.4 444.4 478.5 468.5 474.5 511.0 434.3 565.5 293.9 552.7 282.4 506.5 166.8 468.8 103.0 413.5 102.9 367.6 93.3 320.8 67.0 292.5 105.1 250.9 128.6z"/>
        <path d="M 464.6 472.8 L  464.6 472.8 504.7 425.5 559.4 293.3 573.1 303.5 526.2 161.7 474.1 107.7 429.7 103.5 372.1 90.6 354.1 73.0 291.6 91.7 232.7 115.5 204.5 162.7 145.0 290.0 150.4 288.4 187.0 418.4 254.2 476.4 308.2 487.8 347.2 502.5 373.5 495.3 429.4 475.9z"/>
        <path d="M 526.6 164.6 L  526.6 164.6 472.3 133.4 428.9 98.5 368.1 100.3 346.6 93.2 287.9 96.9 247.9 118.1 196.6 159.5 144.9 286.8 157.2 294.1 180.5 448.8 238.8 475.5 285.8 489.8 317.8 493.9 389.3 512.8 429.3 491.9 469.9 487.8 531.8 434.7 585.1 283.6 549.9 295.2z"/>
        <path d="M 449.9 504.9 L  449.9 504.9 482.2 487.1 544.6 437.6 599.0 310.0 577.8 302.3 534.1 152.1 489.0 121.1 431.8 53.5 396.6 67.8 341.5 78.1 275.1 82.2 236.7 118.8 210.0 163.2 176.5 293.9 173.2 275.2 206.1 440.4 239.7 482.6 292.8 488.0 351.3 507.3 385.8 519.1z"/>
        <path d="M 354.0 78.8 L  354.0 78.8 292.4 99.5 247.4 96.7 195.8 158.2 168.3 290.7 149.6 310.9 197.7 436.1 238.9 466.1 294.3 498.8 351.6 522.1 395.1 512.7 439.9 488.1 491.4 481.9 534.0 422.5 579.9 297.6 593.2 308.2 540.8 146.4 509.2 120.4 434.6 108.4 400.4 87.3z"/>
        <path d="M 543.8 437.1 L  543.8 437.1 583.3 284.4 607.1 313.8 551.6 173.6 495.7 124.3 453.6 95.6 402.3 78.3 370.4 74.1 293.5 94.8 252.8 105.9 194.3 168.6 168.7 305.1 138.8 309.2 219.0 424.1 256.5 486.1 294.4 499.8 354.2 513.8 395.9 499.3 447.3 483.8 482.1 471.2z"/>
        <path d="M 362.8 519.8 L  362.8 519.8 394.3 506.7 427.4 496.8 508.5 477.5 550.0 445.3 597.5 285.5 596.2 300.9 535.7 169.1 485.1 108.6 456.2 89.2 408.9 66.8 351.5 82.0 310.9 81.1 239.6 122.8 202.3 168.2 152.4 303.9 169.3 295.4 208.4 426.1 252.6 475.9 310.6 497.1z"/>
        <path d="M 310.5 101.0 L  310.5 101.0 268.1 113.2 201.2 173.6 159.6 286.6 154.3 313.3 228.3 461.2 259.1 493.4 296.8 503.0 348.9 519.1 417.5 502.3 436.1 508.3 521.5 476.6 555.1 438.6 609.8 300.0 624.0 294.8 565.9 155.6 508.0 114.7 469.5 102.1 402.4 80.6 340.1 68.2z"/>
        <path d="M 628.8 287.0 L  628.8 287.0 622.4 294.6 562.6 158.3 518.0 121.6 475.5 70.2 427.4 79.8 360.3 83.0 302.2 89.7 289.6 99.3 214.0 163.7 156.0 294.4 150.9 296.1 216.8 448.7 266.0 497.6 340.5 514.1 358.6 503.8 426.4 511.9 454.6 513.2 516.6 484.8 566.5 437.4z"/>
        <path d="M 413.1 533.0 L  413.1 533.0 473.5 506.8 534.0 485.1 559.0 453.8 596.0 296.5 610.0 318.4 564.5 165.4 490.5 92.9 446.6 75.9 424.5 81.7 378.8 82.3 308.5 90.0 273.0 114.0 220.2 149.3 168.3 303.8 170.6 305.8 208.8 441.1 261.1 493.4 311.5 498.9 346.0 535.4z"/>
        <path d="M 158.5 299.4 L  158.5 299.4 172.4 299.0 210.3 448.1 263.3 475.5 302.0 522.8 376.8 518.1 422.3 525.3 475.6 508.2 526.8 480.0 580.0 433.3 617.1 305.7 626.4 318.9 566.2 171.0 514.5 108.4 466.0 86.4 424.8 65.4 384.2 56.2 324.0 69.8 276.0 102.8 223.5 140.9z"/>
        <path d="M 246.6 152.3 L  246.6 152.3 174.7 297.7 180.9 320.6 219.8 422.2 285.3 475.0 324.2 505.6 374.2 518.7 413.9 520.9 489.6 508.9 517.1 480.3 580.9 447.1 620.1 301.4 623.8 290.8 574.2 156.1 532.4 141.0 488.6 82.1 419.8 71.0 371.9 81.5 319.1 88.1 271.0 95.4z"/>
        <path d="M 441.2 529.7 L  441.2 529.7 473.0 526.5 529.8 493.1 571.7 451.2 633.0 304.4 646.5 310.5 603.6 151.5 534.3 83.4 483.0 86.3 437.4 61.4 378.6 56.5 329.8 84.8 272.2 104.3 227.3 162.6 178.9 278.5 166.8 304.5 218.8 452.7 285.9 492.6 325.2 520.8 378.7 534.8z"/>
        <path d="M 342.1 514.9 L  342.1 514.9 386.4 526.0 445.9 533.5 479.5 525.5 543.9 494.5 605.0 451.0 627.9 287.3 646.1 298.4 608.2 178.4 550.4 113.5 489.6 81.1 456.4 69.5 393.2 52.2 338.1 74.8 289.0 119.7 240.4 140.9 179.3 301.2 191.0 285.6 239.3 450.5 301.4 504.4z"/>
        <path d="M 386.7 524.0 L  386.7 524.0 430.1 530.7 508.2 543.3 568.4 486.5 586.2 452.9 663.7 293.7 659.9 295.8 613.5 140.1 550.4 106.6 492.7 85.7 455.7 62.2 397.4 57.1 338.7 85.9 294.6 108.8 237.5 161.3 181.7 311.7 178.5 296.5 232.6 449.2 288.1 495.7 349.1 540.4z"/>
        <path d="M 596.4 142.1 L  596.4 142.1 547.7 99.2 503.1 85.8 444.6 67.0 386.5 80.2 337.7 89.3 273.0 103.2 224.9 148.6 169.4 315.3 183.0 302.3 233.7 450.4 294.9 506.4 344.8 527.5 392.2 520.3 451.0 546.9 504.9 538.6 548.0 487.0 604.9 440.5 645.3 296.7 659.5 314.8z"/>
        <path d="M 287.1 486.5 L  287.1 486.5 326.8 541.1 387.1 520.0 439.4 544.0 504.6 515.1 565.8 507.3 605.2 461.6 667.6 315.9 659.0 289.6 604.1 136.9 568.4 107.0 508.9 60.9 445.2 59.7 379.7 65.6 345.0 54.8 286.5 92.3 230.5 152.5 179.8 296.4 180.9 313.1 225.9 443.9z"/>
        <path d="M 623.1 462.5 L  623.1 462.5 679.8 308.1 677.5 308.7 604.6 148.2 555.1 84.1 509.0 71.1 470.5 77.7 385.5 58.5 332.9 67.7 282.5 98.8 245.3 145.6 181.8 307.8 171.8 316.0 231.8 466.9 298.0 522.8 339.1 506.1 390.7 546.3 460.3 541.5 519.7 529.8 565.3 503.7z"/>
        <path d="M 502.8 68.2 L  502.8 68.2 437.4 51.0 409.8 57.8 356.2 53.5 287.9 105.5 225.2 158.3 183.3 317.2 178.9 312.7 230.9 469.3 289.0 484.7 350.6 544.5 405.1 545.0 447.4 542.6 522.4 525.6 572.6 502.3 606.5 453.4 667.4 312.5 669.6 299.5 633.5 144.1 569.9 99.4z"/>
        <path d="M 628.8 152.6 L  628.8 152.6 563.0 99.6 515.2 65.4 460.9 54.5 407.3 61.3 342.8 62.4 290.5 108.4 244.6 153.3 161.0 320.9 170.1 299.9 230.0 451.8 287.6 510.7 328.9 535.6 390.8 552.8 457.4 556.2 504.5 541.2 583.1 513.2 625.4 473.4 669.7 299.0 682.1 288.6z"/>
        <path d="M 401.2 63.7 L  401.2 63.7 368.4 68.5 298.4 90.3 229.3 140.4 188.3 301.0 156.0 297.9 237.9 458.4 294.7 515.5 358.4 560.4 399.9 552.5 458.2 557.9 529.3 556.7 578.2 518.6 625.5 465.1 694.4 299.9 693.1 298.4 648.9 129.2 586.8 106.5 514.6 78.6 466.0 40.6z"/>
        <path d="M 647.7 456.6 L  647.7 456.6 684.5 315.6 695.3 301.8 618.1 144.3 585.0 91.2 523.9 61.7 460.9 46.2 417.0 38.5 355.8 58.1 272.7 76.8 233.2 141.6 188.4 306.6 165.0 301.4 236.2 471.4 287.7 508.0 368.3 549.1 399.7 560.0 451.4 572.2 515.9 531.0 595.4 519.0z"/>
        <path d="M 403.3 571.5 L  403.3 571.5 469.0 527.2 529.2 544.0 597.8 518.9 639.0 460.2 695.7 304.4 705.6 297.3 643.9 124.5 589.4 96.1 507.3 61.3 470.6 50.5 421.5 66.6 346.1 51.3 315.8 106.9 244.2 148.2 183.8 303.3 191.4 290.5 242.2 470.5 305.6 517.3 357.5 551.7z"/>
        <path d="M 365.9 52.6 L  365.9 52.6 293.5 90.1 242.0 134.2 166.1 302.5 185.8 305.4 233.4 464.1 300.4 516.6 344.8 550.6 417.5 567.6 480.6 565.3 545.1 548.6 584.4 527.2 659.7 456.2 695.8 304.7 690.6 303.4 636.9 137.0 600.7 81.8 533.5 53.3 491.9 46.5 404.6 37.8z"/>
        <path d="M 716.6 304.0 L  716.6 304.0 656.6 142.3 612.0 80.6 540.9 48.5 471.1 44.0 429.4 44.7 372.7 43.9 301.3 79.6 234.5 130.1 183.4 293.0 196.6 292.3 243.8 481.3 298.2 519.9 343.2 568.6 394.8 569.9 488.3 555.0 534.1 546.6 584.2 544.0 665.5 474.8 696.5 300.6z"/>
        <path d="M 243.1 136.6 L  243.1 136.6 203.9 308.0 178.7 313.8 234.0 462.9 309.9 528.8 366.7 553.5 419.3 574.8 488.4 569.5 529.3 547.6 607.0 522.0 645.1 466.8 708.1 299.1 712.4 307.3 645.2 142.3 609.1 76.8 539.5 71.8 477.8 40.1 421.0 14.9 364.0 48.6 310.6 86.6z"/>
        <path d="M 326.5 524.0 L  326.5 524.0 372.3 560.2 418.7 560.3 474.9 560.3 532.2 573.8 590.5 533.2 660.8 480.7 718.4 309.3 714.2 287.9 661.6 152.3 603.1 83.9 536.7 39.6 469.4 60.0 426.6 38.7 353.1 54.8 293.1 70.4 250.9 140.2 178.0 290.5 173.4 302.0 248.5 476.1z"/>
        <path d="M 475.2 555.0 L  475.2 555.0 547.8 557.4 600.5 528.6 674.0 494.8 731.4 309.5 724.0 311.1 655.2 126.1 604.7 94.7 527.9 44.8 483.9 21.1 422.5 29.5 341.2 47.4 289.8 78.3 230.1 122.1 165.4 297.2 175.9 306.0 238.5 488.2 307.0 521.8 364.6 570.5 413.7 576.6z"/>
        <path d="M 555.9 65.7 L  555.9 65.7 493.1 47.3 436.1 26.4 362.7 51.7 288.1 76.0 261.6 122.4 178.6 316.0 193.9 316.1 265.8 474.9 327.5 533.8 365.1 560.4 430.0 580.5 498.0 568.7 555.0 562.0 617.8 521.3 676.8 485.6 728.0 295.6 737.6 306.2 659.6 151.9 622.7 81.6z"/>
        <path d="M 736.4 286.1 L  736.4 286.1 685.7 118.5 611.7 81.0 566.4 50.3 506.1 40.5 426.3 38.9 366.0 51.0 310.5 79.5 227.0 144.3 181.8 292.3 191.9 300.6 249.1 474.8 309.4 513.2 358.7 554.8 438.5 595.9 493.3 576.6 565.7 560.3 622.7 534.8 697.1 471.0 733.9 312.5z"/>
        <path d="M 308.1 89.5 L  308.1 89.5 250.3 165.2 202.0 324.8 200.0 299.6 249.2 486.8 317.5 533.9 375.4 584.9 437.4 589.9 482.2 589.5 570.6 587.2 632.0 543.5 696.3 487.8 745.9 288.1 751.9 315.6 694.7 148.6 637.2 85.7 572.7 45.5 488.9 34.2 441.5 1.7 376.0 38.0z"/>
        <path d="M 548.3 567.4 L  548.3 567.4 628.2 538.9 692.4 483.1 756.0 335.9 755.5 294.0 700.4 133.3 636.9 87.6 576.1 11.7 512.4 15.1 460.9 35.2 391.3 53.6 319.8 66.4 261.9 112.7 202.0 326.2 179.8 310.2 269.0 489.6 308.2 536.9 383.1 576.5 429.3 575.0 501.2 583.2z"/>
        <path d="M 188.9 304.7 L  188.9 304.7 180.4 307.8 237.4 470.1 327.8 556.3 375.2 574.0 455.7 601.8 509.5 583.1 595.5 573.7 654.3 555.8 691.2 474.3 763.6 296.0 777.3 317.5 705.7 108.6 644.7 90.1 584.2 33.7 518.3 26.0 472.4 12.0 376.2 42.1 338.8 72.1 285.8 100.0z"/>
        <path d="M 753.7 299.9 L  753.7 299.9 775.4 311.8 717.5 124.0 634.9 82.7 587.4 25.7 532.6 21.0 449.4 29.3 395.7 25.6 319.5 78.3 262.7 127.0 200.2 312.9 217.3 335.5 252.7 487.9 323.4 545.5 392.9 568.2 462.6 586.3 507.8 607.2 574.3 595.1 635.6 559.5 710.9 470.4z"/>
        <path d="M 659.3 560.6 L  659.3 560.6 717.6 484.4 781.1 303.8 774.9 297.0 707.1 122.2 644.4 60.8 584.7 41.4 536.5 23.3 442.4 14.0 379.7 39.3 334.6 47.8 266.1 113.6 185.9 321.6 187.8 314.9 246.6 487.9 322.9 562.9 397.2 579.8 455.7 613.0 531.6 605.2 597.0 572.4z"/>
        <path d="M 657.5 51.7 L  657.5 51.7 594.2 20.8 510.7 9.9 459.3 13.8 402.5 33.4 321.5 50.1 261.4 93.9 197.5 317.9 210.9 322.0 266.3 496.8 333.5 547.6 380.5 592.1 466.1 580.1 510.4 606.6 593.0 589.8 647.5 553.7 719.1 498.2 773.9 296.0 759.3 312.4 713.5 132.0z"/>
        <path d="M 328.0 554.9 L  328.0 554.9 418.6 597.0 470.5 604.3 542.0 638.3 580.1 580.4 674.2 552.8 727.6 510.9 812.7 309.3 803.0 318.3 727.0 123.6 672.2 57.0 610.7 36.6 540.3 6.5 475.4 13.7 411.7 37.8 344.7 50.7 267.1 114.6 198.1 318.7 208.4 307.2 255.4 510.6z"/>
        <path d="M 788.3 297.2 L  788.3 297.2 734.3 116.3 651.6 71.6 598.0 42.6 535.3 19.3 477.4 28.2 405.9 4.2 327.8 43.7 274.8 117.7 188.2 305.7 192.5 302.5 256.5 495.1 336.0 553.9 405.2 598.6 451.3 599.5 541.6 606.4 603.3 590.6 669.3 536.8 748.3 486.8 813.4 316.7z"/>
        <path d="M 408.7 15.0 L  408.7 15.0 322.3 76.0 262.6 133.2 187.3 317.5 204.2 302.1 269.3 513.0 334.3 549.6 399.4 584.9 471.1 592.5 553.4 626.4 608.2 591.6 673.8 551.1 742.6 499.4 805.7 313.7 809.1 330.0 754.5 114.5 661.3 59.1 605.4 33.4 523.2 1.1 478.1 8.4z"/>
        <path d="M 268.7 115.5 L  268.7 115.5 203.3 287.8 210.9 318.4 268.6 514.4 349.4 582.0 406.7 594.1 466.0 610.8 529.0 626.6 611.5 597.8 681.1 583.4 752.3 499.7 831.7 304.4 819.9 315.3 739.0 111.5 663.1 67.2 599.0 7.6 536.5 13.5 466.4 -9.8 392.8 29.8 353.2 71.4z"/>
        <path d="M 466.6 -8.6 L  466.6 -8.6 408.2 17.6 355.1 56.0 257.9 123.8 218.3 310.9 202.5 328.9 280.4 514.0 336.7 572.3 405.9 617.7 482.6 623.3 548.7 623.6 605.5 594.8 696.3 567.8 750.3 508.2 836.2 316.1 829.9 311.4 757.6 111.0 679.3 61.6 624.8 22.6 552.7 -2.7z"/>
        <path d="M 837.9 327.1 L  837.9 327.1 770.7 118.6 707.2 59.7 635.8 4.2 568.5 -19.3 501.0 9.2 416.6 7.7 355.8 52.2 270.6 109.9 201.7 318.1 195.3 310.4 276.5 505.7 362.4 571.7 428.1 596.5 487.7 636.5 561.7 621.1 626.8 621.5 710.1 581.6 766.5 512.8 839.0 297.8z"/>
    </g> 
</svg>