<?xml version="1.0" encoding="UTF-8" standalone="no"?>
<svg width="1000" height="500" version="1.1" xmlns="http://www.w3.org/2000/svg">
    <g opacity="1.0">
        <style> path { stroke: #33FFC9; stroke-width: 1; fill: transparent; } </style>
        <path d="M 503.6 253.2 L  503.6 253.2 504.5 250.7 504.5 250.7 503.6 248.1 502.7 247.3 501.7 246.8 500.8 246.6 499.9 246.6 499.0 246.8 498.1 247.3 497.2 248.1 496.3 250.7 496.3 250.7 497.2 253.2 498.1 254.1 499.0 254.5 499.9 254.7 500.8 254.7 501.7 254.5 502.7 254.1z"/>
        <path d="M 495.5 243.6 L  495.5 243.6 493.4 245.5 491.3 251.5 491.3 251.5 493.4 257.5 495.5 259.4 497.6 260.5 499.8 261.0 501.9 261.0 504.0 260.5 506.1 259.4 508.2 257.5 510.3 251.5 510.3 251.5 508.2 245.5 506.1 243.6 504.0 242.5 501.9 242.0 499.8 242.0 497.6 242.5z"/>
        <path d="M 487.2 261.8 L  487.2 261.8 490.6 264.9 494.0 266.6 497.3 267.3 500.7 267.3 504.1 266.6 507.4 264.9 510.8 261.8 514.2 252.2 514.2 252.2 510.8 242.7 507.4 239.6 504.1 237.9 500.7 237.2 497.3 237.2 494.0 237.9 490.6 239.6 487.2 242.7 483.8 252.2 483.8 252.2z"/>
        <path d="M 505.2 232.7 L  505.2 232.7 500.6 231.7 496.0 231.7 491.4 232.7 486.8 235.0 482.2 239.2 477.5 252.3 477.5 252.3 482.2 265.3 486.8 269.6 491.4 271.9 496.0 272.9 500.6 272.9 505.2 271.9 509.8 269.6 514.5 265.3 519.1 252.3 519.1 252.3 514.5 239.2 509.8 235.0z"/>
        <path d="M 490.9 277.1 L  490.9 277.1 496.7 278.4 502.4 278.4 508.2 277.1 513.9 274.2 519.7 268.9 525.4 252.7 525.4 252.7 519.7 236.4 513.9 231.2 508.2 228.3 502.4 227.0 496.7 227.0 490.9 228.3 485.2 231.2 479.4 236.4 473.7 252.7 473.7 252.7 479.4 268.9 485.2 274.2z"/>
        <path d="M 480.3 270.1 L  480.3 270.1 486.1 275.4 492.0 278.4 497.8 279.7 503.6 279.7 509.5 278.4 515.3 275.4 521.2 270.1 527.0 253.6 527.0 253.6 521.2 237.1 515.3 231.8 509.5 228.9 503.6 227.5 497.8 227.5 492.0 228.9 486.1 231.8 480.3 237.1 474.5 253.6 474.5 253.6z"/>
        <path d="M 478.7 271.9 L  478.7 271.9 484.9 277.6 491.1 280.7 497.3 282.1 503.6 282.1 509.8 280.7 516.0 277.6 522.3 271.9 528.5 254.3 528.5 254.3 522.3 236.7 516.0 231.0 509.8 227.9 503.6 226.4 497.3 226.4 491.1 227.9 484.9 231.0 478.7 236.7 472.4 254.3 472.4 254.3z"/>
        <path d="M 476.9 274.7 L  476.9 274.7 483.7 280.9 490.6 284.4 497.4 285.9 504.3 285.9 511.1 284.4 518.0 280.9 524.8 274.7 531.7 255.3 531.7 255.3 524.8 235.9 518.0 229.6 511.1 226.2 504.3 224.6 497.4 224.6 490.6 226.2 483.7 229.6 476.9 235.9 470.0 255.3 470.0 255.3z"/>
        <path d="M 503.5 289.4 L  503.5 289.4 511.0 287.7 518.5 283.9 526.0 277.1 533.5 255.9 533.5 255.9 526.0 234.7 518.5 227.8 511.0 224.1 503.5 222.4 496.0 222.4 488.5 224.1 481.0 227.8 473.5 234.7 466.0 255.9 466.0 255.9 473.5 277.1 481.0 283.9 488.5 287.7 496.0 289.4z"/>
        <path d="M 535.3 255.9 L  535.3 255.9 527.4 233.5 519.5 226.3 511.5 222.3 503.6 220.5 495.7 220.5 487.8 222.3 479.9 226.3 472.0 233.5 464.1 255.9 464.1 255.9 472.0 278.3 479.9 285.5 487.8 289.5 495.7 291.3 503.6 291.3 511.5 289.5 519.5 285.5 527.4 278.3 535.3 255.9z"/>
        <path d="M 470.8 233.0 L  470.8 233.0 462.6 256.3 462.6 256.3 470.8 279.6 479.1 287.1 487.3 291.2 495.5 293.1 503.7 293.1 512.0 291.2 520.2 287.1 528.4 279.6 536.6 256.3 536.6 256.3 528.4 233.0 520.2 225.5 512.0 221.4 503.7 219.5 495.5 219.5 487.3 221.4 479.1 225.5z"/>
        <path d="M 521.0 288.1 L  521.0 288.1 529.4 280.4 537.8 256.6 537.8 256.6 529.4 232.9 521.0 225.2 512.6 221.0 504.2 219.1 495.8 219.1 487.4 221.0 479.0 225.2 470.6 232.9 462.2 256.6 462.2 256.6 470.6 280.4 479.0 288.1 487.4 292.3 495.8 294.2 504.2 294.2 512.6 292.3z"/>
        <path d="M 487.6 221.0 L  487.6 221.0 479.2 225.2 470.8 232.9 462.4 256.8 462.4 256.8 470.8 280.6 479.2 288.3 487.6 292.5 496.1 294.4 504.5 294.4 512.9 292.5 521.3 288.3 529.8 280.6 538.2 256.8 538.2 256.8 529.8 232.9 521.3 225.2 512.9 221.0 504.5 219.1 496.1 219.1z"/>
        <path d="M 497.2 298.3 L  497.2 298.3 506.3 298.3 515.4 296.2 524.4 291.6 533.5 283.4 542.6 257.7 542.6 257.7 533.5 232.0 524.4 223.7 515.4 219.2 506.3 217.1 497.2 217.1 488.1 219.2 479.1 223.7 470.0 232.0 460.9 257.7 460.9 257.7 470.0 283.4 479.1 291.6 488.1 296.2z"/>
        <path d="M 525.8 293.2 L  525.8 293.2 535.1 284.7 544.4 258.4 544.4 258.4 535.1 232.1 525.8 223.7 516.6 219.0 507.3 216.9 498.0 216.9 488.7 219.0 479.4 223.7 470.1 232.1 460.8 258.4 460.8 258.4 470.1 284.7 479.4 293.2 488.7 297.8 498.0 300.0 507.3 300.0 516.6 297.8z"/>
        <path d="M 456.9 258.5 L  456.9 258.5 456.9 258.5 466.7 286.4 476.6 295.4 486.4 300.3 496.3 302.6 506.2 302.6 516.0 300.3 525.9 295.4 535.8 286.4 545.6 258.5 545.6 258.5 535.8 230.6 525.9 221.6 516.0 216.6 506.2 214.4 496.3 214.4 486.4 216.6 476.6 221.6 466.7 230.6z"/>
        <path d="M 539.4 229.3 L  539.4 229.3 528.9 219.8 518.4 214.5 507.9 212.1 497.4 212.1 486.9 214.5 476.4 219.8 465.9 229.3 455.4 259.1 455.4 259.1 465.9 288.8 476.4 298.4 486.9 303.6 497.4 306.0 507.9 306.0 518.4 303.6 528.9 298.4 539.4 288.8 549.9 259.1 549.9 259.1z"/>
        <path d="M 518.8 306.4 L  518.8 306.4 529.9 300.9 540.9 290.8 552.0 259.5 552.0 259.5 540.9 228.2 529.9 218.1 518.8 212.6 507.8 210.1 496.7 210.1 485.7 212.6 474.6 218.1 463.5 228.2 452.5 259.5 452.5 259.5 463.5 290.8 474.6 300.9 485.7 306.4 496.7 309.0 507.8 309.0z"/>
        <path d="M 494.4 310.6 L  494.4 310.6 505.8 310.6 517.2 308.0 528.6 302.3 540.0 291.9 551.3 259.7 551.3 259.7 540.0 227.5 528.6 217.1 517.2 211.4 505.8 208.8 494.4 208.8 483.0 211.4 471.6 217.1 460.2 227.5 448.8 259.7 448.8 259.7 460.2 291.9 471.6 302.3 483.0 308.0z"/>
        <path d="M 456.9 293.8 L  456.9 293.8 468.9 304.7 480.9 310.7 492.8 313.4 504.8 313.4 516.8 310.7 528.8 304.7 540.7 293.8 552.7 259.9 552.7 259.9 540.7 226.0 528.8 215.1 516.8 209.1 504.8 206.3 492.8 206.3 480.9 209.1 468.9 215.1 456.9 226.0 444.9 259.9 444.9 259.9z"/>
        <path d="M 480.5 208.2 L  480.5 208.2 468.3 214.4 456.1 225.5 443.9 260.0 443.9 260.0 456.1 294.5 468.3 305.7 480.5 311.8 492.7 314.6 504.9 314.6 517.1 311.8 529.3 305.7 541.6 294.5 553.8 260.0 553.8 260.0 541.6 225.5 529.3 214.4 517.1 208.2 504.9 205.4 492.7 205.4z"/>
        <path d="M 520.3 203.0 L  520.3 203.0 506.9 200.0 493.4 200.0 480.0 203.0 466.6 209.8 453.1 222.0 439.7 260.0 439.7 260.0 453.1 298.0 466.6 310.3 480.0 317.0 493.4 320.1 506.9 320.1 520.3 317.0 533.7 310.3 547.2 298.0 560.6 260.0 560.6 260.0 547.2 222.0 533.7 209.8z"/>
        <path d="M 480.1 319.3 L  480.1 319.3 494.0 322.5 507.8 322.5 521.7 319.3 535.5 312.4 549.3 299.7 563.2 260.6 563.2 260.6 549.3 221.4 535.5 208.8 521.7 201.9 507.8 198.7 494.0 198.7 480.1 201.9 466.3 208.8 452.5 221.4 438.6 260.6 438.6 260.6 452.5 299.7 466.3 312.4z"/>
        <path d="M 563.5 261.2 L  563.5 261.2 563.5 261.2 549.6 221.9 535.7 209.2 521.8 202.2 507.9 199.0 494.0 199.0 480.1 202.2 466.2 209.2 452.2 221.9 438.3 261.2 438.3 261.2 452.2 300.6 466.2 313.3 480.1 320.2 494.0 323.4 507.9 323.4 521.8 320.2 535.7 313.3 549.6 300.6z"/>
        <path d="M 464.0 206.7 L  464.0 206.7 449.4 220.1 434.7 261.6 434.7 261.6 449.4 303.0 464.0 316.4 478.7 323.7 493.3 327.1 508.0 327.1 522.6 323.7 537.3 316.4 551.9 303.0 566.6 261.6 566.6 261.6 551.9 220.1 537.3 206.7 522.6 199.4 508.0 196.0 493.3 196.0 478.7 199.4z"/>
        <path d="M 461.3 319.9 L  461.3 319.9 476.8 327.6 492.3 331.2 507.8 331.2 523.2 327.6 538.7 319.9 554.2 305.8 569.6 262.0 569.6 262.0 554.2 218.3 538.7 204.1 523.2 196.4 507.8 192.8 492.3 192.8 476.8 196.4 461.3 204.1 445.9 218.3 430.4 262.0 430.4 262.0 445.9 305.8z"/>
        <path d="M 540.8 200.3 L  540.8 200.3 524.1 191.9 507.4 188.1 490.6 188.1 473.9 191.9 457.1 200.3 440.4 215.6 423.7 262.9 423.7 262.9 440.4 310.3 457.1 325.6 473.9 334.0 490.6 337.8 507.4 337.8 524.1 334.0 540.8 325.6 557.6 310.3 574.3 262.9 574.3 262.9 557.6 215.6z"/>
        <path d="M 541.6 199.4 L  541.6 199.4 524.4 190.8 507.2 186.9 490.1 186.9 472.9 190.8 455.8 199.4 438.6 215.1 421.4 263.6 421.4 263.6 438.6 312.2 455.8 327.8 472.9 336.4 490.1 340.4 507.2 340.4 524.4 336.4 541.6 327.8 558.7 312.2 575.9 263.6 575.9 263.6 558.7 215.1z"/>
        <path d="M 527.0 188.4 L  527.0 188.4 509.1 184.3 491.1 184.3 473.2 188.4 455.3 197.4 437.4 213.7 419.5 264.4 419.5 264.4 437.4 315.1 455.3 331.5 473.2 340.4 491.1 344.6 509.1 344.6 527.0 340.4 544.9 331.5 562.8 315.1 580.8 264.4 580.8 264.4 562.8 213.7 544.9 197.4z"/>
        <path d="M 454.3 333.9 L  454.3 333.9 472.6 343.1 490.9 347.3 509.3 347.3 527.6 343.1 545.9 333.9 564.2 317.1 582.6 265.3 582.6 265.3 564.2 213.5 545.9 196.8 527.6 187.6 509.3 183.4 490.9 183.4 472.6 187.6 454.3 196.8 436.0 213.5 417.6 265.3 417.6 265.3 436.0 317.1z"/>
        <path d="M 527.1 346.1 L  527.1 346.1 546.1 336.6 565.1 319.2 584.1 265.5 584.1 265.5 565.1 211.7 546.1 194.4 527.1 184.8 508.1 180.5 489.1 180.5 470.1 184.8 451.1 194.4 432.1 211.7 413.1 265.5 413.1 265.5 432.1 319.2 451.1 336.6 470.1 346.1 489.1 350.5 508.1 350.5z"/>
        <path d="M 448.4 191.9 L  448.4 191.9 428.5 210.1 408.6 266.3 408.6 266.3 428.5 322.5 448.4 340.6 468.2 350.6 488.1 355.1 508.0 355.1 527.8 350.6 547.7 340.6 567.6 322.5 587.4 266.3 587.4 266.3 567.6 210.1 547.7 191.9 527.8 182.0 508.0 177.4 488.1 177.4 468.2 182.0z"/>
        <path d="M 588.4 267.1 L  588.4 267.1 588.4 267.1 568.3 210.2 548.2 191.8 528.1 181.7 507.9 177.1 487.8 177.1 467.7 181.7 447.5 191.8 427.4 210.2 407.3 267.1 407.3 267.1 427.4 324.1 447.5 342.4 467.7 352.5 487.8 357.2 507.9 357.2 528.1 352.5 548.2 342.4 568.3 324.1z"/>
        <path d="M 467.3 181.5 L  467.3 181.5 446.9 191.8 426.5 210.4 406.1 268.1 406.1 268.1 426.5 325.8 446.9 344.4 467.3 354.6 487.7 359.3 508.1 359.3 528.5 354.6 548.9 344.4 569.3 325.8 589.7 268.1 589.7 268.1 569.3 210.4 548.9 191.8 528.5 181.5 508.1 176.9 487.7 176.9z"/>
        <path d="M 464.9 178.6 L  464.9 178.6 443.7 189.2 422.4 208.6 401.2 268.7 401.2 268.7 422.4 328.8 443.7 348.2 464.9 358.8 486.2 363.7 507.4 363.7 528.7 358.8 549.9 348.2 571.2 328.8 592.4 268.7 592.4 268.7 571.2 208.6 549.9 189.2 528.7 178.6 507.4 173.7 486.2 173.7z"/>
        <path d="M 507.1 365.5 L  507.1 365.5 528.7 360.6 550.3 349.8 571.8 330.1 593.4 269.1 593.4 269.1 571.8 208.1 550.3 188.4 528.7 177.6 507.1 172.6 485.6 172.6 464.0 177.6 442.4 188.4 420.9 208.1 399.3 269.1 399.3 269.1 420.9 330.1 442.4 349.8 464.0 360.6 485.6 365.5z"/>
        <path d="M 419.4 206.5 L  419.4 206.5 397.0 270.0 397.0 270.0 419.4 333.4 441.8 353.9 464.3 365.2 486.7 370.3 509.2 370.3 531.6 365.2 554.0 353.9 576.5 333.4 598.9 270.0 598.9 270.0 576.5 206.5 554.0 186.0 531.6 174.8 509.2 169.6 486.7 169.6 464.3 174.8 441.8 186.0z"/>
        <path d="M 603.7 270.0 L  603.7 270.0 603.7 270.0 580.4 204.2 557.1 182.9 533.8 171.2 510.5 165.9 487.3 165.9 464.0 171.2 440.7 182.9 417.4 204.2 394.1 270.0 394.1 270.0 417.4 335.9 440.7 357.2 464.0 368.8 487.3 374.2 510.5 374.2 533.8 368.8 557.1 357.2 580.4 335.9z"/>
        <path d="M 488.1 377.7 L  488.1 377.7 512.0 377.7 536.0 372.2 559.9 360.2 583.9 338.3 607.8 270.6 607.8 270.6 583.9 202.8 559.9 181.0 536.0 169.0 512.0 163.5 488.1 163.5 464.2 169.0 440.2 181.0 416.3 202.8 392.3 270.6 392.3 270.6 416.3 338.3 440.2 360.2 464.2 372.2z"/>
        <path d="M 392.6 271.4 L  392.6 271.4 392.6 271.4 416.8 339.8 441.0 361.8 465.2 374.0 489.4 379.5 513.5 379.5 537.7 374.0 561.9 361.8 586.1 339.8 610.3 271.4 610.3 271.4 586.1 203.0 561.9 180.9 537.7 168.8 513.5 163.2 489.4 163.2 465.2 168.8 441.0 180.9 416.8 203.0z"/>
        <path d="M 490.0 380.8 L  490.0 380.8 514.4 380.8 538.8 375.2 563.2 363.0 587.6 340.7 612.0 271.7 612.0 271.7 587.6 202.6 563.2 180.3 538.8 168.1 514.4 162.5 490.0 162.5 465.6 168.1 441.1 180.3 416.7 202.6 392.3 271.7 392.3 271.7 416.7 340.7 441.1 363.0 465.6 375.2z"/>
        <path d="M 467.1 166.2 L  467.1 166.2 442.2 178.7 417.4 201.4 392.5 271.7 392.5 271.7 417.4 342.0 442.2 364.7 467.1 377.1 491.9 382.8 516.8 382.8 541.6 377.1 566.5 364.7 591.3 342.0 616.2 271.7 616.2 271.7 591.3 201.4 566.5 178.7 541.6 166.2 516.8 160.5 491.9 160.5z"/>
        <path d="M 596.4 345.8 L  596.4 345.8 622.6 271.9 622.6 271.9 596.4 198.0 570.3 174.1 544.2 161.0 518.1 155.1 492.0 155.1 465.8 161.0 439.7 174.1 413.6 198.0 387.5 271.9 387.5 271.9 413.6 345.8 439.7 369.6 465.8 382.7 492.0 388.7 518.1 388.7 544.2 382.7 570.3 369.6z"/>
        <path d="M 596.4 197.4 L  596.4 197.4 569.7 173.0 543.1 159.7 516.4 153.6 489.7 153.6 463.1 159.7 436.4 173.0 409.7 197.4 383.1 272.8 383.1 272.8 409.7 348.2 436.4 372.6 463.1 385.9 489.7 392.0 516.4 392.0 543.1 385.9 569.7 372.6 596.4 348.2 623.0 272.8 623.0 272.8z"/>
        <path d="M 516.9 148.9 L  516.9 148.9 488.9 148.9 461.0 155.3 433.1 169.3 405.1 194.8 377.2 273.8 377.2 273.8 405.1 352.8 433.1 378.3 461.0 392.3 488.9 398.7 516.9 398.7 544.8 392.3 572.7 378.3 600.6 352.8 628.6 273.8 628.6 273.8 600.6 194.8 572.7 169.3 544.8 155.3z"/>
        <path d="M 430.1 166.1 L  430.1 166.1 401.3 192.5 372.4 274.0 372.4 274.0 401.3 355.6 430.1 382.0 458.9 396.4 487.8 403.0 516.6 403.0 545.5 396.4 574.3 382.0 603.2 355.6 632.0 274.0 632.0 274.0 603.2 192.5 574.3 166.1 545.5 151.7 516.6 145.0 487.8 145.0 458.9 151.7z"/>
        <path d="M 545.2 398.5 L  545.2 398.5 574.3 383.9 603.4 357.3 632.5 274.9 632.5 274.9 603.4 192.6 574.3 166.0 545.2 151.4 516.1 144.7 486.9 144.7 457.8 151.4 428.7 166.0 399.6 192.6 370.5 274.9 370.5 274.9 399.6 357.3 428.7 383.9 457.8 398.5 486.9 405.2 516.1 405.2z"/>
        <path d="M 397.2 191.5 L  397.2 191.5 367.5 275.7 367.5 275.7 397.2 359.9 427.0 387.1 456.8 402.0 486.6 408.8 516.3 408.8 546.1 402.0 575.9 387.1 605.6 359.9 635.4 275.7 635.4 275.7 605.6 191.5 575.9 164.3 546.1 149.4 516.3 142.5 486.6 142.5 456.8 149.4 427.0 164.3z"/>
        <path d="M 576.7 388.6 L  576.7 388.6 606.7 361.2 636.8 276.2 636.8 276.2 606.7 191.2 576.7 163.7 546.6 148.7 516.6 141.8 486.5 141.8 456.5 148.7 426.4 163.7 396.4 191.2 366.3 276.2 366.3 276.2 396.4 361.2 426.4 388.6 456.5 403.7 486.5 410.6 516.6 410.6 546.6 403.7z"/>
        <path d="M 580.9 160.9 L  580.9 160.9 549.9 145.4 518.9 138.2 487.8 138.2 456.8 145.4 425.8 160.9 394.7 189.2 363.7 277.0 363.7 277.0 394.7 364.8 425.8 393.1 456.8 408.7 487.8 415.8 518.9 415.8 549.9 408.7 580.9 393.1 612.0 364.8 643.0 277.0 643.0 277.0 612.0 189.2z"/>
        <path d="M 423.0 157.4 L  423.0 157.4 390.8 186.8 358.6 277.8 358.6 277.8 390.8 368.8 423.0 398.2 455.2 414.3 487.3 421.7 519.5 421.7 551.7 414.3 583.9 398.2 616.0 368.8 648.2 277.8 648.2 277.8 616.0 186.8 583.9 157.4 551.7 141.3 519.5 133.9 487.3 133.9 455.2 141.3z"/>
        <path d="M 355.3 278.4 L  355.3 278.4 355.3 278.4 388.4 372.0 421.5 402.2 454.6 418.7 487.6 426.3 520.7 426.3 553.8 418.7 586.9 402.2 620.0 372.0 653.1 278.4 653.1 278.4 620.0 184.8 586.9 154.6 553.8 138.0 520.7 130.4 487.6 130.4 454.6 138.0 421.5 154.6 388.4 184.8z"/>
        <path d="M 553.8 138.2 L  553.8 138.2 520.6 130.6 487.4 130.6 454.2 138.2 421.0 154.8 387.8 185.1 354.6 279.0 354.6 279.0 387.8 372.9 421.0 403.2 454.2 419.9 487.4 427.5 520.6 427.5 553.8 419.9 587.0 403.2 620.2 372.9 653.4 279.0 653.4 279.0 620.2 185.1 587.0 154.8z"/>
        <path d="M 624.6 182.3 L  624.6 182.3 590.3 151.0 556.0 133.8 521.7 125.9 487.4 125.9 453.1 133.8 418.8 151.0 384.5 182.3 350.2 279.3 350.2 279.3 384.5 376.4 418.8 407.7 453.1 424.9 487.4 432.8 521.7 432.8 556.0 424.9 590.3 407.7 624.6 376.4 659.0 279.3 659.0 279.3z"/>
        <path d="M 591.9 147.4 L  591.9 147.4 556.5 129.7 521.1 121.6 485.7 121.6 450.3 129.7 415.0 147.4 379.6 179.7 344.2 279.8 344.2 279.8 379.6 379.9 415.0 412.2 450.3 429.9 485.7 438.0 521.1 438.0 556.5 429.9 591.9 412.2 627.2 379.9 662.6 279.8 662.6 279.8 627.2 179.7z"/>
        <path d="M 591.6 147.1 L  591.6 147.1 555.9 129.2 520.2 121.0 484.5 121.0 448.8 129.2 413.1 147.1 377.4 179.7 341.7 280.7 341.7 280.7 377.4 381.7 413.1 414.3 448.8 432.2 484.5 440.4 520.2 440.4 555.9 432.2 591.6 414.3 627.4 381.7 663.1 280.7 663.1 280.7 627.4 179.7z"/>
        <path d="M 446.6 436.6 L  446.6 436.6 483.2 445.0 519.9 445.0 556.5 436.6 593.2 418.2 629.8 384.7 666.4 281.1 666.4 281.1 629.8 177.5 593.2 144.0 556.5 125.6 519.9 117.2 483.2 117.2 446.6 125.6 409.9 144.0 373.3 177.5 336.7 281.1 336.7 281.1 373.3 384.7 409.9 418.2z"/>
        <path d="M 406.1 140.5 L  406.1 140.5 368.2 175.1 330.4 282.1 330.4 282.1 368.2 389.1 406.1 423.7 443.9 442.6 481.7 451.3 519.6 451.3 557.4 442.6 595.2 423.7 633.1 389.1 670.9 282.1 670.9 282.1 633.1 175.1 595.2 140.5 557.4 121.6 519.6 112.9 481.7 112.9 443.9 121.6z"/>
        <path d="M 481.0 454.0 L  481.0 454.0 519.4 454.0 557.8 445.2 596.1 425.9 634.5 390.9 672.9 282.3 672.9 282.3 634.5 173.7 596.1 138.6 557.8 119.4 519.4 110.6 481.0 110.6 442.6 119.4 404.2 138.6 365.8 173.7 327.4 282.3 327.4 282.3 365.8 390.9 404.2 425.9 442.6 445.2z"/>
        <path d="M 401.9 430.2 L  401.9 430.2 441.4 450.0 480.8 459.1 520.2 459.1 559.7 450.0 599.1 430.2 638.5 394.2 678.0 282.7 678.0 282.7 638.5 171.2 599.1 135.1 559.7 115.4 520.2 106.3 480.8 106.3 441.4 115.4 401.9 135.1 362.5 171.2 323.1 282.7 323.1 282.7 362.5 394.2z"/>
        <path d="M 440.9 113.0 L  440.9 113.0 400.7 133.1 360.4 169.9 320.2 283.7 320.2 283.7 360.4 397.5 400.7 434.2 440.9 454.4 481.1 463.6 521.4 463.6 561.6 454.4 601.8 434.2 642.1 397.5 682.3 283.7 682.3 283.7 642.1 169.9 601.8 133.1 561.6 113.0 521.4 103.7 481.1 103.7z"/>
        <path d="M 359.8 169.7 L  359.8 169.7 319.2 284.5 319.2 284.5 359.8 399.3 400.3 436.4 440.9 456.7 481.5 466.0 522.1 466.0 562.7 456.7 603.3 436.4 643.9 399.3 684.4 284.5 684.4 284.5 643.9 169.7 603.3 132.7 562.7 112.4 522.1 103.0 481.5 103.0 440.9 112.4 400.3 132.7z"/>
        <path d="M 359.1 169.1 L  359.1 169.1 318.0 285.3 318.0 285.3 359.1 401.5 400.1 439.0 441.2 459.6 482.3 469.0 523.4 469.0 564.4 459.6 605.5 439.0 646.6 401.5 687.6 285.3 687.6 285.3 646.6 169.1 605.5 131.6 564.4 111.0 523.4 101.6 482.3 101.6 441.2 111.0 400.1 131.6z"/>
        <path d="M 693.2 285.8 L  693.2 285.8 651.2 166.9 609.2 128.6 567.1 107.5 525.1 97.9 483.1 97.9 441.1 107.5 399.1 128.6 357.1 166.9 315.1 285.8 315.1 285.8 357.1 404.6 399.1 442.9 441.1 464.0 483.1 473.6 525.1 473.6 567.1 464.0 609.2 442.9 651.2 404.6 693.2 285.8z"/>
        <path d="M 311.2 286.3 L  311.2 286.3 311.2 286.3 353.7 406.7 396.3 445.6 438.9 466.9 481.5 476.7 524.1 476.7 566.7 466.9 609.3 445.6 651.9 406.7 694.5 286.3 694.5 286.3 651.9 165.8 609.3 126.9 566.7 105.6 524.1 95.8 481.5 95.8 438.9 105.6 396.3 126.9 353.7 165.8z"/>
        <path d="M 523.8 91.9 L  523.8 91.9 480.1 91.9 436.4 101.9 392.8 123.8 349.1 163.7 305.5 287.2 305.5 287.2 349.1 410.6 392.8 450.5 436.4 472.4 480.1 482.4 523.8 482.4 567.4 472.4 611.1 450.5 654.7 410.6 698.4 287.2 698.4 287.2 654.7 163.7 611.1 123.8 567.4 101.9z"/>
        <path d="M 700.1 287.2 L  700.1 287.2 700.1 287.2 656.4 163.7 612.8 123.8 569.1 101.9 525.4 91.9 481.8 91.9 438.1 101.9 394.4 123.8 350.8 163.7 307.1 287.2 307.1 287.2 350.8 410.7 394.4 450.6 438.1 472.5 481.8 482.5 525.4 482.5 569.1 472.5 612.8 450.6 656.4 410.7z"/>
        <path d="M 526.3 91.3 L  526.3 91.3 482.4 91.3 438.4 101.4 394.5 123.5 350.5 163.6 306.6 287.9 306.6 287.9 350.5 412.2 394.5 452.4 438.4 474.4 482.4 484.5 526.3 484.5 570.3 474.4 614.2 452.4 658.2 412.2 702.1 287.9 702.1 287.9 658.2 163.6 614.2 123.5 570.3 101.4z"/>
        <path d="M 481.5 87.3 L  481.5 87.3 436.4 97.7 391.4 120.2 346.3 161.4 301.3 288.8 301.3 288.8 346.3 416.2 391.4 457.3 436.4 479.9 481.5 490.2 526.5 490.2 571.5 479.9 616.6 457.3 661.6 416.2 706.7 288.8 706.7 288.8 661.6 161.4 616.6 120.2 571.5 97.7 526.5 87.3z"/>
        <path d="M 435.1 95.9 L  435.1 95.9 389.5 118.7 344.0 160.3 298.5 289.2 298.5 289.2 344.0 418.0 389.5 459.6 435.1 482.4 480.6 492.9 526.2 492.9 571.7 482.4 617.3 459.6 662.8 418.0 708.4 289.2 708.4 289.2 662.8 160.3 617.3 118.7 571.7 95.9 526.2 85.5 480.6 85.5z"/>
        <path d="M 667.3 158.0 L  667.3 158.0 620.6 115.3 573.9 91.9 527.2 81.2 480.6 81.2 433.9 91.9 387.2 115.3 340.6 158.0 293.9 290.0 293.9 290.0 340.6 422.0 387.2 464.6 433.9 488.0 480.6 498.7 527.2 498.7 573.9 488.0 620.6 464.6 667.3 422.0 713.9 290.0 713.9 290.0z"/>
        <path d="M 715.0 290.7 L  715.0 290.7 715.0 290.7 668.0 157.7 620.9 114.7 573.9 91.1 526.9 80.3 479.8 80.3 432.8 91.1 385.7 114.7 338.7 157.7 291.6 290.7 291.6 290.7 338.7 423.8 385.7 466.7 432.8 490.3 479.8 501.1 526.9 501.1 573.9 490.3 620.9 466.7 668.0 423.8z"/>
        <path d="M 478.4 502.7 L  478.4 502.7 525.8 502.7 573.2 491.9 620.6 468.1 667.9 424.8 715.3 290.8 715.3 290.8 667.9 156.8 620.6 113.5 573.2 89.7 525.8 78.9 478.4 78.9 431.0 89.7 383.6 113.5 336.2 156.8 288.8 290.8 288.8 290.8 336.2 424.8 383.6 468.1 431.0 491.9z"/>
        <path d="M 382.2 109.9 L  382.2 109.9 333.8 154.2 285.3 291.3 285.3 291.3 333.8 428.3 382.2 472.6 430.7 496.9 479.1 508.0 527.6 508.0 576.1 496.9 624.5 472.6 673.0 428.3 721.5 291.3 721.5 291.3 673.0 154.2 624.5 109.9 576.1 85.6 527.6 74.5 479.1 74.5 430.7 85.6z"/>
        <path d="M 332.9 429.9 L  332.9 429.9 381.7 474.5 430.5 499.0 479.3 510.2 528.2 510.2 577.0 499.0 625.8 474.5 674.6 429.9 723.5 291.8 723.5 291.8 674.6 153.7 625.8 109.2 577.0 84.7 528.2 73.5 479.3 73.5 430.5 84.7 381.7 109.2 332.9 153.7 284.0 291.8 284.0 291.8z"/>
        <path d="M 675.2 431.0 L  675.2 431.0 724.3 292.1 724.3 292.1 675.2 153.3 626.1 108.4 577.0 83.9 527.9 72.6 478.8 72.6 429.8 83.9 380.7 108.4 331.6 153.3 282.5 292.1 282.5 292.1 331.6 431.0 380.7 475.8 429.8 500.4 478.8 511.7 527.9 511.7 577.0 500.4 626.1 475.8z"/>
        <path d="M 428.5 84.1 L  428.5 84.1 379.4 108.7 330.2 153.6 281.1 292.5 281.1 292.5 330.2 431.5 379.4 476.4 428.5 501.0 477.6 512.3 526.8 512.3 575.9 501.0 625.0 476.4 674.2 431.5 723.3 292.5 723.3 292.5 674.2 153.6 625.0 108.7 575.9 84.1 526.8 72.8 477.6 72.8z"/>
        <path d="M 329.8 152.7 L  329.8 152.7 280.4 292.6 280.4 292.6 329.8 432.4 379.3 477.6 428.7 502.4 478.2 513.7 527.6 513.7 577.1 502.4 626.5 477.6 676.0 432.4 725.4 292.6 725.4 292.6 676.0 152.7 626.5 107.6 577.1 82.8 527.6 71.4 478.2 71.4 428.7 82.8 379.3 107.6z"/>
        <path d="M 428.1 504.3 L  428.1 504.3 477.8 515.7 527.6 515.7 577.4 504.3 627.1 479.4 676.9 433.9 726.7 293.2 726.7 293.2 676.9 152.4 627.1 106.9 577.4 82.0 527.6 70.6 477.8 70.6 428.1 82.0 378.3 106.9 328.5 152.4 278.7 293.2 278.7 293.2 328.5 433.9 378.3 479.4z"/>
        <path d="M 326.0 152.6 L  326.0 152.6 276.0 293.8 276.0 293.8 326.0 435.1 375.9 480.7 425.9 505.7 475.8 517.2 525.8 517.2 575.7 505.7 625.7 480.7 675.6 435.1 725.5 293.8 725.5 293.8 675.6 152.6 625.7 107.0 575.7 81.9 525.8 70.5 475.8 70.5 425.9 81.9 375.9 107.0z"/>
        <path d="M 373.7 103.9 L  373.7 103.9 323.0 150.3 272.2 293.8 272.2 293.8 323.0 437.4 373.7 483.7 424.5 509.2 475.2 520.8 526.0 520.8 576.7 509.2 627.5 483.7 678.2 437.4 729.0 293.8 729.0 293.8 678.2 150.3 627.5 103.9 576.7 78.5 526.0 66.9 475.2 66.9 424.5 78.5z"/>
        <path d="M 526.9 62.5 L  526.9 62.5 475.1 62.5 423.3 74.4 371.5 100.4 319.7 147.7 267.9 294.2 267.9 294.2 319.7 440.7 371.5 488.0 423.3 513.9 475.1 525.8 526.9 525.8 578.7 513.9 630.5 488.0 682.3 440.7 734.1 294.2 734.1 294.2 682.3 147.7 630.5 100.4 578.7 74.4z"/>
        <path d="M 475.9 61.8 L  475.9 61.8 424.0 73.7 372.0 99.8 320.0 147.3 268.0 294.3 268.0 294.3 320.0 441.3 372.0 488.8 424.0 514.8 475.9 526.8 527.9 526.8 579.9 514.8 631.9 488.8 683.9 441.3 735.9 294.3 735.9 294.3 683.9 147.3 631.9 99.8 579.9 73.7 527.9 61.8z"/>
        <path d="M 424.7 74.0 L  424.7 74.0 372.6 100.1 320.6 147.6 268.5 294.9 268.5 294.9 320.6 442.1 372.6 489.7 424.7 515.8 476.7 527.7 528.8 527.7 580.9 515.8 632.9 489.7 685.0 442.1 737.1 294.9 737.1 294.9 685.0 147.6 632.9 100.1 580.9 74.0 528.8 62.1 476.7 62.1z"/>
        <path d="M 633.9 492.1 L  633.9 492.1 686.4 444.2 738.8 295.8 738.8 295.8 686.4 147.4 633.9 99.5 581.5 73.2 529.0 61.2 476.5 61.2 424.1 73.2 371.6 99.5 319.2 147.4 266.7 295.8 266.7 295.8 319.2 444.2 371.6 492.1 424.1 518.3 476.5 530.4 529.0 530.4 581.5 518.3z"/>
        <path d="M 739.7 296.6 L  739.7 296.6 687.0 147.6 634.3 99.5 581.7 73.2 529.0 61.1 476.3 61.1 423.7 73.2 371.0 99.5 318.3 147.6 265.7 296.6 265.7 296.6 318.3 445.6 371.0 493.7 423.7 520.1 476.3 532.1 529.0 532.1 581.7 520.1 634.3 493.7 687.0 445.6 739.7 296.6z"/>
        <path d="M 583.2 69.5 L  583.2 69.5 529.5 57.2 475.8 57.2 422.1 69.5 368.4 96.5 314.7 145.5 260.9 297.4 260.9 297.4 314.7 449.3 368.4 498.4 422.1 525.3 475.8 537.6 529.5 537.6 583.2 525.3 636.9 498.4 690.6 449.3 744.3 297.4 744.3 297.4 690.6 145.5 636.9 96.5z"/>
        <path d="M 256.0 297.9 L  256.0 297.9 256.0 297.9 310.4 452.0 364.9 501.7 419.4 529.0 473.8 541.5 528.3 541.5 582.8 529.0 637.2 501.7 691.7 452.0 746.2 297.9 746.2 297.9 691.7 143.9 637.2 94.1 582.8 66.8 528.3 54.3 473.8 54.3 419.4 66.8 364.9 94.1 310.4 143.9z"/>
        <path d="M 750.9 298.5 L  750.9 298.5 695.7 142.2 640.4 91.8 585.2 64.1 530.0 51.4 474.7 51.4 419.5 64.1 364.3 91.8 309.0 142.2 253.8 298.5 253.8 298.5 309.0 454.7 364.3 505.1 419.5 532.8 474.7 545.5 530.0 545.5 585.2 532.8 640.4 505.1 695.7 454.7 750.9 298.5z"/>
        <path d="M 587.3 536.4 L  587.3 536.4 643.3 508.3 699.4 457.1 755.4 298.6 755.4 298.6 699.4 140.0 643.3 88.8 587.3 60.8 531.2 47.9 475.2 47.9 419.1 60.8 363.1 88.8 307.0 140.0 251.0 298.6 251.0 298.6 307.0 457.1 363.1 508.3 419.1 536.4 475.2 549.2 531.2 549.2z"/>
        <path d="M 361.3 85.9 L  361.3 85.9 304.2 138.0 247.2 299.4 247.2 299.4 304.2 460.7 361.3 512.9 418.3 541.4 475.4 554.5 532.5 554.5 589.5 541.4 646.6 512.9 703.6 460.7 760.7 299.4 760.7 299.4 703.6 138.0 646.6 85.9 589.5 57.3 532.5 44.2 475.4 44.2 418.3 57.3z"/>
        <path d="M 703.9 463.5 L  703.9 463.5 761.6 300.3 761.6 300.3 703.9 137.1 646.2 84.4 588.6 55.5 530.9 42.3 473.2 42.3 415.5 55.5 357.8 84.4 300.1 137.1 242.4 300.3 242.4 300.3 300.1 463.5 357.8 516.2 415.5 545.1 473.2 558.3 530.9 558.3 588.6 545.1 646.2 516.2z"/>
        <path d="M 357.0 519.1 L  357.0 519.1 415.2 548.3 473.4 561.6 531.7 561.6 589.9 548.3 648.2 519.1 706.4 465.9 764.7 301.2 764.7 301.2 706.4 136.5 648.2 83.3 589.9 54.1 531.7 40.7 473.4 40.7 415.2 54.1 357.0 83.3 298.7 136.5 240.5 301.2 240.5 301.2 298.7 465.9z"/>
        <path d="M 533.2 566.4 L  533.2 566.4 592.3 552.8 651.4 523.2 710.6 469.2 769.7 302.0 769.7 302.0 710.6 134.8 651.4 80.8 592.3 51.2 533.2 37.6 474.1 37.6 415.0 51.2 355.8 80.8 296.7 134.8 237.6 302.0 237.6 302.0 296.7 469.2 355.8 523.2 415.0 552.8 474.1 566.4z"/>
        <path d="M 655.0 525.4 L  655.0 525.4 714.6 470.9 774.3 302.3 774.3 302.3 714.6 133.6 655.0 79.2 595.4 49.3 535.7 35.6 476.1 35.6 416.5 49.3 356.8 79.2 297.2 133.6 237.6 302.3 237.6 302.3 297.2 470.9 356.8 525.4 416.5 555.3 476.1 569.0 535.7 569.0 595.4 555.3z"/>
        <path d="M 353.6 75.4 L  353.6 75.4 292.9 130.8 232.3 302.4 232.3 302.4 292.9 474.1 353.6 529.5 414.3 559.9 475.0 573.8 535.6 573.8 596.3 559.9 657.0 529.5 717.6 474.1 778.3 302.4 778.3 302.4 717.6 130.8 657.0 75.4 596.3 45.0 535.6 31.1 475.0 31.1 414.3 45.0z"/>
        <path d="M 721.0 476.2 L  721.0 476.2 782.2 303.1 782.2 303.1 721.0 130.0 659.8 74.1 598.6 43.4 537.4 29.4 476.1 29.4 414.9 43.4 353.7 74.1 292.5 130.0 231.3 303.1 231.3 303.1 292.5 476.2 353.7 532.1 414.9 562.7 476.1 576.8 537.4 576.8 598.6 562.7 659.8 532.1z"/>
        <path d="M 225.9 303.4 L  225.9 303.4 225.9 303.4 288.2 479.5 350.4 536.4 412.7 567.6 475.0 581.9 537.2 581.9 599.5 567.6 661.8 536.4 724.0 479.5 786.3 303.4 786.3 303.4 724.0 127.3 661.8 70.5 599.5 39.3 537.2 25.0 475.0 25.0 412.7 39.3 350.4 70.5 288.2 127.3z"/>
        <path d="M 536.4 22.3 L  536.4 22.3 473.4 22.3 410.4 36.8 347.4 68.3 284.4 125.9 221.4 304.1 221.4 304.1 284.4 482.3 347.4 539.9 410.4 571.4 473.4 585.9 536.4 585.9 599.4 571.4 662.4 539.9 725.5 482.3 788.5 304.1 788.5 304.1 725.5 125.9 662.4 68.3 599.4 36.8z"/>
        <path d="M 220.2 305.1 L  220.2 305.1 220.2 305.1 283.4 483.8 346.6 541.6 409.8 573.2 473.0 587.7 536.2 587.7 599.4 573.2 662.6 541.6 725.9 483.8 789.1 305.1 789.1 305.1 725.9 126.3 662.6 68.6 599.4 36.9 536.2 22.4 473.0 22.4 409.8 36.9 346.6 68.6 283.4 126.3z"/>
        <path d="M 663.4 68.1 L  663.4 68.1 599.9 36.3 536.4 21.7 472.9 21.7 409.4 36.3 345.9 68.1 282.5 126.0 219.0 305.6 219.0 305.6 282.5 485.2 345.9 543.1 409.4 574.9 472.9 589.5 536.4 589.5 599.9 574.9 663.4 543.1 726.9 485.2 790.3 305.6 790.3 305.6 726.9 126.0z"/>
        <path d="M 729.8 487.0 L  729.8 487.0 793.9 305.8 793.9 305.8 729.8 124.6 665.8 66.1 601.7 34.0 537.7 19.3 473.6 19.3 409.5 34.0 345.5 66.1 281.4 124.6 217.4 305.8 217.4 305.8 281.4 487.0 345.5 545.5 409.5 577.6 473.6 592.3 537.7 592.3 601.7 577.6 665.8 545.5z"/>
        <path d="M 409.1 578.9 L  409.1 578.9 473.4 593.7 537.7 593.7 602.0 578.9 666.3 546.7 730.6 488.0 794.9 306.1 794.9 306.1 730.6 124.2 666.3 65.5 602.0 33.3 537.7 18.5 473.4 18.5 409.1 33.3 344.7 65.5 280.4 124.2 216.1 306.1 216.1 306.1 280.4 488.0 344.7 546.7z"/>
        <path d="M 279.3 489.5 L  279.3 489.5 344.0 548.6 408.8 581.1 473.6 595.9 538.3 595.9 603.1 581.1 667.8 548.6 732.6 489.5 797.4 306.3 797.4 306.3 732.6 123.1 667.8 64.0 603.1 31.5 538.3 16.6 473.6 16.6 408.8 31.5 344.0 64.0 279.3 123.1 214.5 306.3 214.5 306.3z"/>
        <path d="M 603.5 29.5 L  603.5 29.5 538.2 14.5 472.9 14.5 407.6 29.5 342.3 62.2 277.0 121.8 211.7 306.5 211.7 306.5 277.0 491.2 342.3 550.8 407.6 583.6 472.9 598.5 538.2 598.5 603.5 583.6 668.8 550.8 734.1 491.2 799.4 306.5 799.4 306.5 734.1 121.8 668.8 62.2z"/>
        <path d="M 606.7 588.3 L  606.7 588.3 673.1 555.0 739.5 494.4 805.9 306.6 805.9 306.6 739.5 118.9 673.1 58.3 606.7 25.0 540.3 9.8 474.0 9.8 407.6 25.0 341.2 58.3 274.8 118.9 208.4 306.6 208.4 306.6 274.8 494.4 341.2 555.0 407.6 588.3 474.0 603.5 540.3 603.5z"/>
        <path d="M 202.2 307.3 L  202.2 307.3 202.2 307.3 269.4 497.3 336.6 558.6 403.7 592.2 470.9 607.7 538.1 607.7 605.3 592.2 672.4 558.6 739.6 497.3 806.8 307.3 806.8 307.3 739.6 117.3 672.4 55.9 605.3 22.3 538.1 6.9 470.9 6.9 403.7 22.3 336.6 55.9 269.4 117.3z"/>
        <path d="M 606.2 596.7 L  606.2 596.7 674.3 562.6 742.4 500.4 810.4 307.8 810.4 307.8 742.4 115.2 674.3 53.1 606.2 19.0 538.1 3.3 470.0 3.3 401.9 19.0 333.8 53.1 265.8 115.2 197.7 307.8 197.7 307.8 265.8 500.4 333.8 562.6 401.9 596.7 470.0 612.3 538.1 612.3z"/>
        <path d="M 261.1 112.1 L  261.1 112.1 191.7 308.4 191.7 308.4 261.1 504.7 330.6 568.1 400.0 602.9 469.4 618.8 538.8 618.8 608.2 602.9 677.6 568.1 747.0 504.7 816.5 308.4 816.5 308.4 747.0 112.1 677.6 48.7 608.2 13.9 538.8 -2.0 469.4 -2.0 400.0 13.9 330.6 48.7z"/>
        <path d="M 189.2 309.4 L  189.2 309.4 189.2 309.4 258.8 506.3 328.3 569.8 397.9 604.7 467.5 620.6 537.1 620.6 606.7 604.7 676.3 569.8 745.9 506.3 815.5 309.4 815.5 309.4 745.9 112.6 676.3 49.0 606.7 14.2 537.1 -1.8 467.5 -1.8 397.9 14.2 328.3 49.0 258.8 112.6z"/>
        <path d="M 675.6 49.0 L  675.6 49.0 605.9 14.1 536.2 -1.9 466.6 -1.9 396.9 14.1 327.2 49.0 257.5 112.6 187.8 309.8 187.8 309.8 257.5 506.9 327.2 570.5 396.9 605.4 466.6 621.4 536.2 621.4 605.9 605.4 675.6 570.5 745.3 506.9 815.0 309.8 815.0 309.8 745.3 112.6z"/>
        <path d="M 467.0 623.9 L  467.0 623.9 537.1 623.9 607.3 607.8 677.4 572.7 747.6 508.6 817.7 310.2 817.7 310.2 747.6 111.8 677.4 47.8 607.3 12.6 537.1 -3.5 467.0 -3.5 396.9 12.6 326.7 47.8 256.6 111.8 186.4 310.2 186.4 310.2 256.6 508.6 326.7 572.7 396.9 607.8z"/>
        <path d="M 817.7 310.9 L  817.7 310.9 817.7 310.9 747.4 111.9 677.0 47.6 606.7 12.4 536.3 -3.8 465.9 -3.8 395.6 12.4 325.2 47.6 254.8 111.9 184.5 310.9 184.5 310.9 254.8 509.9 325.2 574.2 395.6 609.4 465.9 625.6 536.3 625.6 606.7 609.4 677.0 574.2 747.4 509.9z"/>
        <path d="M 394.6 9.0 L  394.6 9.0 323.2 44.8 251.9 110.0 180.5 311.9 180.5 311.9 251.9 513.8 323.2 579.0 394.6 614.8 466.0 631.1 537.4 631.1 608.8 614.8 680.2 579.0 751.6 513.8 822.9 311.9 822.9 311.9 751.6 110.0 680.2 44.8 608.8 9.0 537.4 -7.4 466.0 -7.4z"/>
        <path d="M 828.8 312.1 L  828.8 312.1 756.3 107.0 683.7 40.8 611.2 4.4 538.7 -12.2 466.2 -12.2 393.6 4.4 321.1 40.8 248.6 107.0 176.1 312.1 176.1 312.1 248.6 517.3 321.1 583.5 393.6 619.8 466.2 636.5 538.7 636.5 611.2 619.8 683.7 583.5 756.3 517.3 828.8 312.1z"/>
        <path d="M 829.9 312.5 L  829.9 312.5 757.2 107.0 684.6 40.7 611.9 4.3 539.2 -12.4 466.6 -12.4 393.9 4.3 321.2 40.7 248.6 107.0 175.9 312.5 175.9 312.5 248.6 518.1 321.2 584.4 393.9 620.8 466.6 637.5 539.2 637.5 611.9 620.8 684.6 584.4 757.2 518.1 829.9 312.5z"/>
        <path d="M 685.8 39.6 L  685.8 39.6 612.6 3.0 539.4 -13.8 466.3 -13.8 393.1 3.0 319.9 39.6 246.7 106.5 173.5 313.5 173.5 313.5 246.7 520.5 319.9 587.3 393.1 624.0 466.3 640.8 539.4 640.8 612.6 624.0 685.8 587.3 759.0 520.5 832.2 313.5 832.2 313.5 759.0 106.5z"/>
        <path d="M 763.8 103.1 L  763.8 103.1 689.4 35.2 614.9 -2.1 540.5 -19.2 466.1 -19.2 391.6 -2.1 317.2 35.2 242.7 103.1 168.3 313.7 168.3 313.7 242.7 524.2 317.2 592.2 391.6 629.5 466.1 646.6 540.5 646.6 614.9 629.5 689.4 592.2 763.8 524.2 838.2 313.7 838.2 313.7z"/>
        <path d="M 540.2 -24.0 L  540.2 -24.0 464.7 -24.0 389.1 -6.6 313.5 31.2 237.9 100.3 162.4 314.0 162.4 314.0 237.9 527.8 313.5 596.8 389.1 634.6 464.7 652.0 540.2 652.0 615.8 634.6 691.4 596.8 767.0 527.8 842.5 314.0 842.5 314.0 767.0 100.3 691.4 31.2 615.8 -6.6z"/>
        <path d="M 692.3 597.0 L  692.3 597.0 767.9 527.9 843.6 314.0 843.6 314.0 767.9 100.1 692.3 31.1 616.7 -6.8 541.0 -24.2 465.4 -24.2 389.8 -6.8 314.2 31.1 238.5 100.1 162.9 314.0 162.9 314.0 238.5 527.9 314.2 597.0 389.8 634.9 465.4 652.3 541.0 652.3 616.7 634.9z"/>
        <path d="M 310.8 599.6 L  310.8 599.6 387.1 637.9 463.4 655.4 539.8 655.4 616.1 637.9 692.4 599.6 768.7 529.9 845.1 314.1 845.1 314.1 768.7 98.2 692.4 28.5 616.1 -9.8 539.8 -27.3 463.4 -27.3 387.1 -9.8 310.8 28.5 234.5 98.2 158.1 314.1 158.1 314.1 234.5 529.9z"/>
        <path d="M 770.9 533.0 L  770.9 533.0 848.2 314.4 848.2 314.4 770.9 95.8 693.6 25.2 616.3 -13.5 539.0 -31.2 461.7 -31.2 384.4 -13.5 307.1 25.2 229.9 95.8 152.6 314.4 152.6 314.4 229.9 533.0 307.1 603.6 384.4 642.3 461.7 660.1 539.0 660.1 616.3 642.3 693.6 603.6z"/>
        <path d="M 462.5 -36.2 L  462.5 -36.2 384.0 -18.2 305.5 21.1 226.9 92.9 148.4 315.0 148.4 315.0 226.9 537.1 305.5 608.9 384.0 648.2 462.5 666.2 541.1 666.2 619.6 648.2 698.2 608.9 776.7 537.1 855.2 315.0 855.2 315.0 776.7 92.9 698.2 21.1 619.6 -18.2 541.1 -36.2z"/>
        <path d="M 462.9 667.4 L  462.9 667.4 541.5 667.4 620.1 649.4 698.7 610.0 777.3 538.3 855.9 316.0 855.9 316.0 777.3 93.7 698.7 21.9 620.1 -17.5 541.5 -35.5 462.9 -35.5 384.3 -17.5 305.7 21.9 227.1 93.7 148.6 316.0 148.6 316.0 227.1 538.3 305.7 610.0 384.3 649.4z"/>
        <path d="M 619.7 655.1 L  619.7 655.1 699.5 615.1 779.3 542.3 859.0 316.7 859.0 316.7 779.3 91.1 699.5 18.3 619.7 -21.7 540.0 -40.0 460.2 -40.0 380.5 -21.7 300.7 18.3 220.9 91.1 141.2 316.7 141.2 316.7 220.9 542.3 300.7 615.1 380.5 655.1 460.2 673.4 540.0 673.4z"/>
        <path d="M 459.9 -41.8 L  459.9 -41.8 379.6 -23.3 299.3 16.9 218.9 90.3 138.6 317.5 138.6 317.5 218.9 544.7 299.3 618.1 379.6 658.3 459.9 676.7 540.3 676.7 620.6 658.3 700.9 618.1 781.3 544.7 861.6 317.5 861.6 317.5 781.3 90.3 700.9 16.9 620.6 -23.3 540.3 -41.8z"/>
        <path d="M 217.4 545.1 L  217.4 545.1 297.8 618.5 378.2 658.8 458.6 677.2 539.0 677.2 619.4 658.8 699.8 618.5 780.2 545.1 860.6 317.7 860.6 317.7 780.2 90.3 699.8 16.9 619.4 -23.4 539.0 -41.9 458.6 -41.9 378.2 -23.4 297.8 16.9 217.4 90.3 137.0 317.7 137.0 317.7z"/>
        <path d="M 704.0 623.1 L  704.0 623.1 785.6 548.6 867.2 317.7 867.2 317.7 785.6 86.9 704.0 12.4 622.4 -28.5 540.8 -47.2 459.2 -47.2 377.6 -28.5 295.9 12.4 214.3 86.9 132.7 317.7 132.7 317.7 214.3 548.6 295.9 623.1 377.6 664.0 459.2 682.7 540.8 682.7 622.4 664.0z"/>
        <path d="M 541.1 687.2 L  541.1 687.2 623.7 668.3 706.2 626.9 788.7 551.6 871.3 318.1 871.3 318.1 788.7 84.7 706.2 9.3 623.7 -32.1 541.1 -51.0 458.6 -51.0 376.1 -32.1 293.5 9.3 211.0 84.7 128.5 318.1 128.5 318.1 211.0 551.6 293.5 626.9 376.1 668.3 458.6 687.2z"/>
        <path d="M 375.4 -35.8 L  375.4 -35.8 291.9 6.0 208.4 82.3 124.9 318.5 124.9 318.5 208.4 554.6 291.9 630.9 375.4 672.7 458.9 691.8 542.4 691.8 625.9 672.7 709.4 630.9 792.9 554.6 876.4 318.5 876.4 318.5 792.9 82.3 709.4 6.0 625.9 -35.8 542.4 -54.9 458.9 -54.9z"/>
        <path d="M 376.1 674.2 L  376.1 674.2 459.8 693.4 543.5 693.4 627.2 674.2 710.8 632.3 794.5 555.9 878.2 319.2 878.2 319.2 794.5 82.5 710.8 6.0 627.2 -35.9 543.5 -55.1 459.8 -55.1 376.1 -35.9 292.4 6.0 208.7 82.5 125.0 319.2 125.0 319.2 208.7 555.9 292.4 632.3z"/>
        <path d="M 206.8 81.7 L  206.8 81.7 122.5 320.1 122.5 320.1 206.8 558.5 291.1 635.5 375.4 677.7 459.7 697.0 543.9 697.0 628.2 677.7 712.5 635.5 796.8 558.5 881.1 320.1 881.1 320.1 796.8 81.7 712.5 4.8 628.2 -37.5 543.9 -56.8 459.7 -56.8 375.4 -37.5 291.1 4.8z"/>
        <path d="M 458.9 699.0 L  458.9 699.0 543.5 699.0 628.1 679.6 712.6 637.2 797.2 559.9 881.8 320.7 881.8 320.7 797.2 81.4 712.6 4.1 628.1 -38.2 543.5 -57.7 458.9 -57.7 374.3 -38.2 289.7 4.1 205.1 81.4 120.5 320.7 120.5 320.7 205.1 559.9 289.7 637.2 374.3 679.6z"/>
        <path d="M 544.8 704.2 L  544.8 704.2 630.4 684.5 716.0 641.7 801.6 563.5 887.3 321.4 887.3 321.4 801.6 79.2 716.0 1.0 630.4 -41.8 544.8 -61.5 459.2 -61.5 373.6 -41.8 288.0 1.0 202.4 79.2 116.8 321.4 116.8 321.4 202.4 563.5 288.0 641.7 373.6 684.5 459.2 704.2z"/>
        <path d="M 200.2 77.7 L  200.2 77.7 114.0 321.5 114.0 321.5 200.2 565.4 286.5 644.2 372.7 687.4 458.9 707.1 545.1 707.1 631.4 687.4 717.6 644.2 803.8 565.4 890.0 321.5 890.0 321.5 803.8 77.7 717.6 -1.1 631.4 -44.3 545.1 -64.1 458.9 -64.1 372.7 -44.3 286.5 -1.1z"/>
        <path d="M 283.7 -3.8 L  283.7 -3.8 196.6 75.7 109.6 321.8 109.6 321.8 196.6 568.0 283.7 647.5 370.7 691.1 457.7 711.1 544.8 711.1 631.8 691.1 718.8 647.5 805.9 568.0 892.9 321.8 892.9 321.8 805.9 75.7 718.8 -3.8 631.8 -47.4 544.8 -67.4 457.7 -67.4 370.7 -47.4z"/>
        <path d="M 721.8 -4.6 L  721.8 -4.6 634.4 -48.4 547.1 -68.4 459.7 -68.4 372.3 -48.4 285.0 -4.6 197.6 75.2 110.2 322.3 110.2 322.3 197.6 569.4 285.0 649.2 372.3 693.0 459.7 713.0 547.1 713.0 634.4 693.0 721.8 649.2 809.2 569.4 896.5 322.3 896.5 322.3 809.2 75.2z"/>
        <path d="M 195.2 73.6 L  195.2 73.6 107.0 323.2 107.0 323.2 195.2 572.8 283.5 653.4 371.7 697.7 460.0 717.9 548.2 717.9 636.5 697.7 724.8 653.4 813.0 572.8 901.3 323.2 901.3 323.2 813.0 73.6 724.8 -7.0 636.5 -51.2 548.2 -71.5 460.0 -71.5 371.7 -51.2 283.5 -7.0z"/>
        <path d="M 725.4 653.8 L  725.4 653.8 813.7 573.1 902.0 323.3 902.0 323.3 813.7 73.6 725.4 -7.1 637.1 -51.3 548.8 -71.6 460.5 -71.6 372.2 -51.3 283.8 -7.1 195.5 73.6 107.2 323.3 107.2 323.3 195.5 573.1 283.8 653.8 372.2 698.0 460.5 718.3 548.8 718.3 637.1 698.0z"/>
        <path d="M 281.6 657.8 L  281.6 657.8 370.9 702.6 460.3 723.1 549.6 723.1 638.9 702.6 728.3 657.8 817.6 576.2 907.0 323.5 907.0 323.5 817.6 70.8 728.3 -10.7 638.9 -55.5 549.6 -76.0 460.3 -76.0 370.9 -55.5 281.6 -10.7 192.3 70.8 102.9 323.5 102.9 323.5 192.3 576.2z"/>
        <path d="M 638.5 -56.1 L  638.5 -56.1 548.9 -76.7 459.4 -76.7 369.8 -56.1 280.2 -11.2 190.6 70.6 101.0 324.0 101.0 324.0 190.6 577.4 280.2 659.2 369.8 704.1 459.4 724.7 548.9 724.7 638.5 704.1 728.1 659.2 817.7 577.4 907.3 324.0 907.3 324.0 817.7 70.6 728.1 -11.2z"/>
        <path d="M 820.3 579.7 L  820.3 579.7 910.4 324.8 910.4 324.8 820.3 69.8 730.2 -12.5 640.0 -57.6 549.9 -78.3 459.8 -78.3 369.6 -57.6 279.5 -12.5 189.4 69.8 99.2 324.8 99.2 324.8 189.4 579.7 279.5 662.0 369.6 707.2 459.8 727.9 549.9 727.9 640.0 707.2 730.2 662.0z"/>
        <path d="M 368.8 -62.0 L  368.8 -62.0 277.4 -16.2 186.0 67.2 94.6 325.7 94.6 325.7 186.0 584.2 277.4 667.7 368.8 713.5 460.2 734.5 551.6 734.5 643.0 713.5 734.4 667.7 825.7 584.2 917.1 325.7 917.1 325.7 825.7 67.2 734.4 -16.2 643.0 -62.0 551.6 -83.0 460.2 -83.0z"/>
        <path d="M 368.8 715.8 L  368.8 715.8 460.5 736.8 552.2 736.8 644.0 715.8 735.7 669.8 827.4 586.1 919.1 326.6 919.1 326.6 827.4 67.2 735.7 -16.5 644.0 -62.5 552.2 -83.5 460.5 -83.5 368.8 -62.5 277.1 -16.5 185.4 67.2 93.7 326.6 93.7 326.6 185.4 586.1 277.1 669.8z"/>
        <path d="M 736.9 -16.2 L  736.9 -16.2 645.1 -62.2 553.2 -83.3 461.4 -83.3 369.6 -62.2 277.7 -16.2 185.9 67.6 94.0 327.4 94.0 327.4 185.9 587.2 277.7 671.0 369.6 717.0 461.4 738.1 553.2 738.1 645.1 717.0 736.9 671.0 828.8 587.2 920.6 327.4 920.6 327.4 828.8 67.6z"/>
        <path d="M 273.9 675.1 L  273.9 675.1 366.8 721.7 459.6 743.0 552.5 743.0 645.4 721.7 738.2 675.1 831.1 590.3 924.0 327.7 924.0 327.7 831.1 65.0 738.2 -19.8 645.4 -66.3 552.5 -87.6 459.6 -87.6 366.8 -66.3 273.9 -19.8 181.1 65.0 88.2 327.7 88.2 327.7 181.1 590.3z"/>
        <path d="M 553.7 743.4 L  553.7 743.4 646.6 722.1 739.6 675.5 832.5 590.7 925.4 327.8 925.4 327.8 832.5 65.0 739.6 -19.9 646.6 -66.4 553.7 -87.8 460.8 -87.8 367.9 -66.4 274.9 -19.9 182.0 65.0 89.1 327.8 89.1 327.8 182.0 590.7 274.9 675.5 367.9 722.1 460.8 743.4z"/>
        <path d="M 459.6 748.0 L  459.6 748.0 553.5 748.0 647.4 726.4 741.3 679.4 835.1 593.7 929.0 328.1 929.0 328.1 835.1 62.6 741.3 -23.1 647.4 -70.1 553.5 -91.7 459.6 -91.7 365.8 -70.1 271.9 -23.1 178.0 62.6 84.1 328.1 84.1 328.1 178.0 593.7 271.9 679.4 365.8 726.4z"/>
        <path d="M 933.9 328.3 L  933.9 328.3 838.7 59.1 743.5 -27.8 648.3 -75.5 553.1 -97.4 457.9 -97.4 362.7 -75.5 267.6 -27.8 172.4 59.1 77.2 328.3 77.2 328.3 172.4 597.5 267.6 684.5 362.7 732.2 457.9 754.0 553.1 754.0 648.3 732.2 743.5 684.5 838.7 597.5 933.9 328.3z"/>
        <path d="M 267.0 686.2 L  267.0 686.2 362.6 734.1 458.3 756.1 553.9 756.1 649.5 734.1 745.1 686.2 840.8 598.9 936.4 328.4 936.4 328.4 840.8 57.9 745.1 -29.4 649.5 -77.3 553.9 -99.3 458.3 -99.3 362.6 -77.3 267.0 -29.4 171.4 57.9 75.7 328.4 75.7 328.4 171.4 598.9z"/>
        <path d="M 165.2 55.2 L  165.2 55.2 68.3 329.3 68.3 329.3 165.2 603.5 262.1 692.0 359.0 740.5 456.0 762.8 552.9 762.8 649.8 740.5 746.7 692.0 843.6 603.5 940.6 329.3 940.6 329.3 843.6 55.2 746.7 -33.3 649.8 -81.9 552.9 -104.1 456.0 -104.1 359.0 -81.9 262.1 -33.3z"/>
        <path d="M 164.3 54.9 L  164.3 54.9 67.3 329.4 67.3 329.4 164.3 603.8 261.3 692.4 358.4 741.0 455.4 763.3 552.4 763.3 649.4 741.0 746.5 692.4 843.5 603.8 940.5 329.4 940.5 329.4 843.5 54.9 746.5 -33.7 649.4 -82.3 552.4 -104.6 455.4 -104.6 358.4 -82.3 261.3 -33.7z"/>
        <path d="M 257.8 -36.9 L  257.8 -36.9 159.9 52.5 61.9 329.6 61.9 329.6 159.9 606.7 257.8 696.1 355.8 745.2 453.8 767.7 551.7 767.7 649.7 745.2 747.6 696.1 845.6 606.7 943.5 329.6 943.5 329.6 845.6 52.5 747.6 -36.9 649.7 -86.0 551.7 -108.5 453.8 -108.5 355.8 -86.0z"/>
        <path d="M 57.9 330.1 L  57.9 330.1 57.9 330.1 156.6 609.5 255.4 699.7 354.2 749.2 453.0 771.9 551.7 771.9 650.5 749.2 749.3 699.7 848.1 609.5 946.8 330.1 946.8 330.1 848.1 50.7 749.3 -39.5 650.5 -89.0 551.7 -111.6 453.0 -111.6 354.2 -89.0 255.4 -39.5 156.6 50.7z"/>
        <path d="M 156.2 50.1 L  156.2 50.1 57.2 330.2 57.2 330.2 156.2 610.4 255.3 700.8 354.3 750.4 453.4 773.2 552.4 773.2 651.4 750.4 750.5 700.8 849.5 610.4 948.6 330.2 948.6 330.2 849.5 50.1 750.5 -40.4 651.4 -90.0 552.4 -112.7 453.4 -112.7 354.3 -90.0 255.3 -40.4z"/>
        <path d="M 57.1 330.6 L  57.1 330.6 57.1 330.6 156.2 610.9 255.3 701.4 354.3 751.0 453.4 773.8 552.5 773.8 651.6 751.0 750.7 701.4 849.8 610.9 948.9 330.6 948.9 330.6 849.8 50.3 750.7 -40.2 651.6 -89.8 552.5 -112.6 453.4 -112.6 354.3 -89.8 255.3 -40.2 156.2 50.3z"/>
        <path d="M 850.2 50.2 L  850.2 50.2 750.9 -40.5 651.6 -90.3 552.3 -113.0 453.0 -113.0 353.7 -90.3 254.4 -40.5 155.0 50.2 55.7 331.1 55.7 331.1 155.0 612.0 254.4 702.7 353.7 752.4 453.0 775.2 552.3 775.2 651.6 752.4 750.9 702.7 850.2 612.0 949.5 331.1 949.5 331.1z"/>
        <path d="M 154.2 613.7 L  154.2 613.7 254.1 704.9 353.9 754.9 453.8 777.8 553.7 777.8 653.6 754.9 753.4 704.9 853.3 613.7 953.2 331.2 953.2 331.2 853.3 48.7 753.4 -42.5 653.6 -92.6 553.7 -115.5 453.8 -115.5 353.9 -92.6 254.1 -42.5 154.2 48.7 54.3 331.2 54.3 331.2z"/>
        <path d="M 755.3 710.5 L  755.3 710.5 856.4 618.1 957.6 332.0 957.6 332.0 856.4 46.0 755.3 -46.4 654.1 -97.1 553.0 -120.3 451.9 -120.3 350.7 -97.1 249.6 -46.4 148.4 46.0 47.3 332.0 47.3 332.0 148.4 618.1 249.6 710.5 350.7 761.1 451.9 784.3 553.0 784.3 654.1 761.1z"/>
        <path d="M 553.2 -122.9 L  553.2 -122.9 451.4 -122.9 349.7 -99.6 248.0 -48.6 146.3 44.3 44.5 332.0 44.5 332.0 146.3 619.8 248.0 712.7 349.7 763.6 451.4 787.0 553.2 787.0 654.9 763.6 756.6 712.7 858.3 619.8 960.1 332.0 960.1 332.0 858.3 44.3 756.6 -48.6 654.9 -99.6z"/>
        <path d="M 144.9 44.0 L  144.9 44.0 42.8 332.7 42.8 332.7 144.9 621.4 247.0 714.7 349.0 765.8 451.1 789.2 553.2 789.2 655.3 765.8 757.4 714.7 859.4 621.4 961.5 332.7 961.5 332.7 859.4 44.0 757.4 -49.2 655.3 -100.4 553.2 -123.8 451.1 -123.8 349.0 -100.4 247.0 -49.2z"/>
        <path d="M 964.4 333.7 L  964.4 333.7 861.6 42.8 758.7 -51.1 655.9 -102.6 553.1 -126.2 450.2 -126.2 347.4 -102.6 244.6 -51.1 141.7 42.8 38.9 333.7 38.9 333.7 141.7 624.5 244.6 718.4 347.4 770.0 450.2 793.6 553.1 793.6 655.9 770.0 758.7 718.4 861.6 624.5 964.4 333.7z"/>
        <path d="M 450.7 -131.0 L  450.7 -131.0 346.6 -107.1 242.5 -55.0 138.4 40.1 34.3 334.5 34.3 334.5 138.4 628.9 242.5 723.9 346.6 776.1 450.7 800.0 554.7 800.0 658.8 776.1 762.9 723.9 867.0 628.9 971.1 334.5 971.1 334.5 867.0 40.1 762.9 -55.0 658.8 -107.1 554.7 -131.0z"/>
        <path d="M 765.0 726.4 L  765.0 726.4 869.5 630.9 974.1 335.2 974.1 335.2 869.5 39.4 765.0 -56.0 660.4 -108.4 555.8 -132.4 451.3 -132.4 346.7 -108.4 242.2 -56.0 137.6 39.4 33.1 335.2 33.1 335.2 137.6 630.9 242.2 726.4 346.7 778.8 451.3 802.8 555.8 802.8 660.4 778.8z"/>
        <path d="M 345.4 782.2 L  345.4 782.2 450.7 806.4 556.0 806.4 661.3 782.2 766.6 729.4 871.9 633.3 977.2 335.4 977.2 335.4 871.9 37.5 766.6 -58.7 661.3 -111.4 556.0 -135.6 450.7 -135.6 345.4 -111.4 240.1 -58.7 134.7 37.5 29.4 335.4 29.4 335.4 134.7 633.3 240.1 729.4z"/>
        <path d="M 980.7 335.5 L  980.7 335.5 980.7 335.5 874.7 35.5 768.6 -61.3 662.5 -114.5 556.5 -138.8 450.4 -138.8 344.3 -114.5 238.3 -61.3 132.2 35.5 26.1 335.5 26.1 335.5 132.2 635.5 238.3 732.4 344.3 785.5 450.4 809.9 556.5 809.9 662.5 785.5 768.6 732.4 874.7 635.5z"/>
        <path d="M 449.7 814.2 L  449.7 814.2 556.7 814.2 663.6 789.6 770.6 736.0 877.6 638.3 984.6 335.7 984.6 335.7 877.6 33.1 770.6 -64.6 663.6 -118.2 556.7 -142.8 449.7 -142.8 342.7 -118.2 235.7 -64.6 128.7 33.1 21.7 335.7 21.7 335.7 128.7 638.3 235.7 736.0 342.7 789.6z"/>
        <path d="M 987.5 336.1 L  987.5 336.1 879.8 31.6 772.1 -66.8 664.4 -120.7 556.7 -145.4 449.1 -145.4 341.4 -120.7 233.7 -66.8 126.0 31.6 18.4 336.1 18.4 336.1 126.0 640.7 233.7 739.0 341.4 793.0 449.1 817.7 556.7 817.7 664.4 793.0 772.1 739.0 879.8 640.7 987.5 336.1z"/>
        <path d="M 231.3 740.8 L  231.3 740.8 339.2 794.8 447.1 819.6 555.0 819.6 662.8 794.8 770.7 740.8 878.6 642.2 986.5 337.1 986.5 337.1 878.6 31.9 770.7 -66.6 662.8 -120.7 555.0 -145.4 447.1 -145.4 339.2 -120.7 231.3 -66.6 123.4 31.9 15.5 337.1 15.5 337.1 123.4 642.2z"/>
        <path d="M 773.7 -69.6 L  773.7 -69.6 664.9 -124.1 556.1 -149.0 447.3 -149.0 338.5 -124.1 229.7 -69.6 120.9 29.8 12.1 337.5 12.1 337.5 120.9 645.3 229.7 744.6 338.5 799.1 447.3 824.1 556.1 824.1 664.9 799.1 773.7 744.6 882.5 645.3 991.3 337.5 991.3 337.5 882.5 29.8z"/>
        <path d="M 996.2 338.5 L  996.2 338.5 886.5 28.2 776.8 -72.0 667.1 -127.0 557.4 -152.2 447.7 -152.2 337.9 -127.0 228.2 -72.0 118.5 28.2 8.8 338.5 8.8 338.5 118.5 648.8 228.2 749.0 337.9 803.9 447.7 829.1 557.4 829.1 667.1 803.9 776.8 749.0 886.5 648.8 996.2 338.5z"/>
        <path d="M 558.8 833.4 L  558.8 833.4 669.4 808.0 780.0 752.6 890.6 651.6 1001.2 338.8 1001.2 338.8 890.6 25.9 780.0 -75.1 669.4 -130.5 558.8 -155.8 448.2 -155.8 337.6 -130.5 227.1 -75.1 116.5 25.9 5.9 338.8 5.9 338.8 116.5 651.6 227.1 752.6 337.6 808.0 448.2 833.4z"/>
        <path d="M 670.0 -131.7 L  670.0 -131.7 558.9 -157.2 447.9 -157.2 336.9 -131.7 225.9 -76.1 114.8 25.3 3.8 339.3 3.8 339.3 114.8 653.3 225.9 754.7 336.9 810.4 447.9 835.8 558.9 835.8 670.0 810.4 781.0 754.7 892.0 653.3 1003.0 339.3 1003.0 339.3 892.0 25.3 781.0 -76.1z"/>
        <path d="M 225.9 755.5 L  225.9 755.5 336.9 811.1 447.9 836.6 559.0 836.6 670.0 811.1 781.0 755.5 892.1 654.1 1003.1 340.0 1003.1 340.0 892.1 26.0 781.0 -75.4 670.0 -131.1 559.0 -156.5 447.9 -156.5 336.9 -131.1 225.9 -75.4 114.8 26.0 3.8 340.0 3.8 340.0 114.8 654.1z"/>
        <path d="M 111.2 24.7 L  111.2 24.7 -0.5 340.7 -0.5 340.7 111.2 656.6 222.9 758.6 334.6 814.6 446.3 840.2 558.0 840.2 669.7 814.6 781.4 758.6 893.1 656.6 1004.8 340.7 1004.8 340.7 893.1 24.7 781.4 -77.3 669.7 -133.2 558.0 -158.9 446.3 -158.9 334.6 -133.2 222.9 -77.3z"/>
        <path d="M 671.1 818.0 L  671.1 818.0 783.4 761.7 895.8 659.1 1008.1 341.4 1008.1 341.4 895.8 23.6 783.4 -79.0 671.1 -135.3 558.7 -161.1 446.4 -161.1 334.1 -135.3 221.7 -79.0 109.4 23.6 -3.0 341.4 -3.0 341.4 109.4 659.1 221.7 761.7 334.1 818.0 446.4 843.8 558.7 843.8z"/>
        <path d="M 109.9 660.1 L  109.9 660.1 222.3 762.7 334.7 819.0 447.1 844.8 559.5 844.8 671.9 819.0 784.3 762.7 896.7 660.1 1009.1 342.1 1009.1 342.1 896.7 24.2 784.3 -78.5 671.9 -134.8 559.5 -160.6 447.1 -160.6 334.7 -134.8 222.3 -78.5 109.9 24.2 -2.6 342.1 -2.6 342.1z"/>
        <path d="M 107.3 22.9 L  107.3 22.9 -5.8 343.0 -5.8 343.0 107.3 663.0 220.4 766.3 333.6 823.0 446.7 849.0 559.9 849.0 673.0 823.0 786.2 766.3 899.3 663.0 1012.5 343.0 1012.5 343.0 899.3 22.9 786.2 -80.4 673.0 -137.1 559.9 -163.0 446.7 -163.0 333.6 -137.1 220.4 -80.4z"/>
        <path d="M 219.1 768.7 L  219.1 768.7 332.8 825.7 446.5 851.8 560.3 851.8 674.0 825.7 787.8 768.7 901.5 664.9 1015.2 343.2 1015.2 343.2 901.5 21.5 787.8 -82.4 674.0 -139.4 560.3 -165.5 446.5 -165.5 332.8 -139.4 219.1 -82.4 105.3 21.5 -8.4 343.2 -8.4 343.2 105.3 664.9z"/>
        <path d="M 1016.7 343.2 L  1016.7 343.2 1016.7 343.2 903.0 21.5 789.2 -82.4 675.5 -139.4 561.7 -165.5 448.0 -165.5 334.2 -139.4 220.4 -82.4 106.7 21.5 -7.1 343.2 -7.1 343.2 106.7 665.0 220.4 768.9 334.2 825.9 448.0 852.0 561.7 852.0 675.5 825.9 789.2 768.9 903.0 665.0z"/>
        <path d="M 560.6 -168.2 L  560.6 -168.2 446.1 -168.2 331.7 -141.9 217.2 -84.6 102.8 19.9 -11.7 343.7 -11.7 343.7 102.8 667.4 217.2 771.9 331.7 829.3 446.1 855.5 560.6 855.5 675.0 829.3 789.5 771.9 904.0 667.4 1018.4 343.7 1018.4 343.7 904.0 19.9 789.5 -84.6 675.0 -141.9z"/>
        <path d="M 1024.0 343.9 L  1024.0 343.9 1024.0 343.9 908.4 16.9 792.8 -88.7 677.2 -146.6 561.5 -173.1 445.9 -173.1 330.3 -146.6 214.7 -88.7 99.1 16.9 -16.5 343.9 -16.5 343.9 99.1 670.9 214.7 776.5 330.3 834.4 445.9 860.9 561.5 860.9 677.2 834.4 792.8 776.5 908.4 670.9z"/>
        <path d="M 563.1 867.3 L  563.1 867.3 680.0 840.5 796.9 781.9 913.7 675.2 1030.6 344.7 1030.6 344.7 913.7 14.2 796.9 -92.5 680.0 -151.0 563.1 -177.8 446.3 -177.8 329.4 -151.0 212.6 -92.5 95.7 14.2 -21.1 344.7 -21.1 344.7 95.7 675.2 212.6 781.9 329.4 840.5 446.3 867.3z"/>
        <path d="M 562.7 -178.6 L  562.7 -178.6 445.6 -178.6 328.6 -151.8 211.5 -93.1 94.5 13.8 -22.6 344.8 -22.6 344.8 94.5 675.9 211.5 782.8 328.6 841.5 445.6 868.3 562.7 868.3 679.7 841.5 796.8 782.8 913.9 675.9 1030.9 344.8 1030.9 344.8 913.9 13.8 796.8 -93.1 679.7 -151.8z"/>
        <path d="M 445.6 871.0 L  445.6 871.0 563.2 871.0 680.8 844.0 798.3 785.1 915.9 677.7 1033.5 345.1 1033.5 345.1 915.9 12.6 798.3 -94.8 680.8 -153.7 563.2 -180.7 445.6 -180.7 328.0 -153.7 210.4 -94.8 92.9 12.6 -24.7 345.1 -24.7 345.1 92.9 677.7 210.4 785.1 328.0 844.0z"/>
        <path d="M 800.2 -97.8 L  800.2 -97.8 681.8 -157.1 563.4 -184.3 444.9 -184.3 326.5 -157.1 208.1 -97.8 89.6 10.4 -28.8 345.3 -28.8 345.3 89.6 680.3 208.1 788.5 326.5 847.8 444.9 875.0 563.4 875.0 681.8 847.8 800.2 788.5 918.6 680.3 1037.1 345.3 1037.1 345.3 918.6 10.4z"/>
        <path d="M 803.7 792.6 L  803.7 792.6 923.2 683.5 1042.7 345.5 1042.7 345.5 923.2 7.6 803.7 -101.5 684.2 -161.4 564.7 -188.8 445.2 -188.8 325.7 -161.4 206.3 -101.5 86.8 7.6 -32.7 345.5 -32.7 345.5 86.8 683.5 206.3 792.6 325.7 852.5 445.2 879.9 564.7 879.9 684.2 852.5z"/>
        <path d="M 205.0 795.7 L  205.0 795.7 325.4 856.0 445.7 883.6 566.0 883.6 686.3 856.0 806.6 795.7 926.9 685.8 1047.2 345.6 1047.2 345.6 926.9 5.3 806.6 -104.6 686.3 -164.8 566.0 -192.4 445.7 -192.4 325.4 -164.8 205.0 -104.6 84.7 5.3 -35.6 345.6 -35.6 345.6 84.7 685.8z"/>
        <path d="M 688.9 -169.7 L  688.9 -169.7 567.4 -197.6 445.8 -197.6 324.3 -169.7 202.8 -108.8 81.2 2.2 -40.3 345.9 -40.3 345.9 81.2 689.7 202.8 800.7 324.3 861.5 445.8 889.4 567.4 889.4 688.9 861.5 810.4 800.7 932.0 689.7 1053.5 345.9 1053.5 345.9 932.0 2.2 810.4 -108.8z"/>
        <path d="M 1054.7 346.6 L  1054.7 346.6 932.7 1.4 810.6 -110.1 688.6 -171.2 566.6 -199.2 444.5 -199.2 322.5 -171.2 200.4 -110.1 78.4 1.4 -43.7 346.6 -43.7 346.6 78.4 691.8 200.4 803.2 322.5 864.4 444.5 892.4 566.6 892.4 688.6 864.4 810.6 803.2 932.7 691.8 1054.7 346.6z"/>
        <path d="M 1057.3 347.1 L  1057.3 347.1 1057.3 347.1 934.4 -0.5 811.5 -112.7 688.6 -174.3 565.7 -202.5 442.8 -202.5 319.9 -174.3 197.0 -112.7 74.1 -0.5 -48.8 347.1 -48.8 347.1 74.1 694.7 197.0 807.0 319.9 868.5 442.8 896.7 565.7 896.7 688.6 868.5 811.5 807.0 934.4 694.7z"/>
        <path d="M 196.5 -113.5 L  196.5 -113.5 73.3 -1.1 -49.8 347.2 -49.8 347.2 73.3 695.5 196.5 808.0 319.6 869.7 442.8 898.0 565.9 898.0 689.1 869.7 812.2 808.0 935.3 695.5 1058.5 347.2 1058.5 347.2 935.3 -1.1 812.2 -113.5 689.1 -175.2 565.9 -203.5 442.8 -203.5 319.6 -175.2z"/>
        <path d="M 442.5 903.7 L  442.5 903.7 566.8 903.7 691.1 875.2 815.4 812.9 939.7 699.4 1064.0 347.8 1064.0 347.8 939.7 -3.7 815.4 -117.2 691.1 -179.5 566.8 -208.0 442.5 -208.0 318.2 -179.5 193.9 -117.2 69.6 -3.7 -54.7 347.8 -54.7 347.8 69.6 699.4 193.9 812.9 318.2 875.2z"/>
        <path d="M 316.8 -184.5 L  316.8 -184.5 191.3 -121.6 65.8 -7.0 -59.7 348.0 -59.7 348.0 65.8 703.0 191.3 817.6 316.8 880.5 442.4 909.3 567.9 909.3 693.4 880.5 818.9 817.6 944.4 703.0 1069.9 348.0 1069.9 348.0 944.4 -7.0 818.9 -121.6 693.4 -184.5 567.9 -213.3 442.4 -213.3z"/>
        <path d="M 567.0 -213.9 L  567.0 -213.9 441.4 -213.9 315.7 -185.1 190.0 -122.1 64.3 -7.3 -61.4 348.2 -61.4 348.2 64.3 703.7 190.0 818.5 315.7 881.4 441.4 910.3 567.0 910.3 692.7 881.4 818.4 818.5 944.1 703.7 1069.8 348.2 1069.8 348.2 944.1 -7.3 818.4 -122.1 692.7 -185.1z"/>
        <path d="M 440.8 911.4 L  440.8 911.4 566.6 911.4 692.5 882.5 818.4 819.5 944.2 704.5 1070.1 348.5 1070.1 348.5 944.2 -7.5 818.4 -122.4 692.5 -185.5 566.6 -214.3 440.8 -214.3 314.9 -185.5 189.1 -122.4 63.2 -7.5 -62.7 348.5 -62.7 348.5 63.2 704.5 189.1 819.5 314.9 882.5z"/>
        <path d="M 692.6 887.6 L  692.6 887.6 819.5 824.0 946.4 708.1 1073.3 349.1 1073.3 349.1 946.4 -9.8 819.5 -125.7 692.6 -189.3 565.7 -218.4 438.7 -218.4 311.8 -189.3 184.9 -125.7 58.0 -9.8 -68.9 349.1 -68.9 349.1 58.0 708.1 184.9 824.0 311.8 887.6 438.7 916.7 565.7 916.7z"/>
        <path d="M 565.0 -221.1 L  565.0 -221.1 437.4 -221.1 309.8 -191.8 182.1 -127.9 54.5 -11.3 -73.1 349.6 -73.1 349.6 54.5 710.6 182.1 827.1 309.8 891.0 437.4 920.3 565.0 920.3 692.6 891.0 820.2 827.1 947.8 710.6 1075.4 349.6 1075.4 349.6 947.8 -11.3 820.2 -127.9 692.6 -191.8z"/>
        <path d="M 563.4 -220.7 L  563.4 -220.7 435.7 -220.7 308.0 -191.4 180.3 -127.4 52.6 -10.8 -75.1 350.4 -75.1 350.4 52.6 711.6 180.3 828.2 308.0 892.2 435.7 921.5 563.4 921.5 691.1 892.2 818.8 828.2 946.5 711.6 1074.2 350.4 1074.2 350.4 946.5 -10.8 818.8 -127.4 691.1 -191.4z"/>
        <path d="M 949.6 714.1 L  949.6 714.1 1078.1 350.7 1078.1 350.7 949.6 -12.7 821.2 -130.0 692.7 -194.4 564.2 -223.9 435.7 -223.9 307.2 -194.4 178.7 -130.0 50.3 -12.7 -78.2 350.7 -78.2 350.7 50.3 714.1 178.7 831.4 307.2 895.8 435.7 925.3 564.2 925.3 692.7 895.8 821.2 831.4z"/>
        <path d="M 566.2 -229.0 L  566.2 -229.0 436.4 -229.0 306.7 -199.2 176.9 -134.2 47.2 -15.7 -82.6 351.3 -82.6 351.3 47.2 718.4 176.9 836.9 306.7 901.9 436.4 931.6 566.2 931.6 696.0 901.9 825.7 836.9 955.5 718.4 1085.3 351.3 1085.3 351.3 955.5 -15.7 825.7 -134.2 696.0 -199.2z"/>
        <path d="M 955.2 -16.5 L  955.2 -16.5 825.1 -135.4 695.0 -200.5 564.8 -230.4 434.7 -230.4 304.6 -200.5 174.4 -135.4 44.3 -16.5 -85.8 351.6 -85.8 351.6 44.3 719.6 174.4 838.5 304.6 903.7 434.7 933.5 564.8 933.5 695.0 903.7 825.1 838.5 955.2 719.6 1085.4 351.6 1085.4 351.6z"/>
        <path d="M 956.4 -16.9 L  956.4 -16.9 825.8 -136.2 695.1 -201.7 564.5 -231.7 433.9 -231.7 303.2 -201.7 172.6 -136.2 42.0 -16.9 -88.7 352.5 -88.7 352.5 42.0 722.0 172.6 841.3 303.2 906.8 433.9 936.8 564.5 936.8 695.1 906.8 825.8 841.3 956.4 722.0 1087.0 352.5 1087.0 352.5z"/>
        <path d="M 566.1 -234.6 L  566.1 -234.6 434.7 -234.6 303.4 -204.5 172.1 -138.7 40.8 -18.8 -90.5 352.6 -90.5 352.6 40.8 724.0 172.1 843.9 303.4 909.7 434.7 939.8 566.1 939.8 697.4 909.7 828.7 843.9 960.0 724.0 1091.3 352.6 1091.3 352.6 960.0 -18.8 828.7 -138.7 697.4 -204.5z"/>
        <path d="M 698.3 -207.9 L  698.3 -207.9 566.1 -238.2 433.9 -238.2 301.7 -207.9 169.5 -141.6 37.3 -20.9 -94.9 353.0 -94.9 353.0 37.3 727.0 169.5 847.7 301.7 913.9 433.9 944.3 566.1 944.3 698.3 913.9 830.5 847.7 962.7 727.0 1094.9 353.0 1094.9 353.0 962.7 -20.9 830.5 -141.6z"/>
        <path d="M 433.4 947.1 L  433.4 947.1 566.0 947.1 698.6 916.7 831.2 850.2 963.9 729.1 1096.5 354.0 1096.5 354.0 963.9 -21.1 831.2 -142.2 698.6 -208.7 566.0 -239.1 433.4 -239.1 300.7 -208.7 168.1 -142.2 35.5 -21.1 -97.1 354.0 -97.1 354.0 35.5 729.1 168.1 850.2 300.7 916.7z"/>
        <path d="M 1098.7 354.7 L  1098.7 354.7 1098.7 354.7 965.5 -22.0 832.3 -143.7 699.1 -210.4 565.9 -241.0 432.7 -241.0 299.5 -210.4 166.3 -143.7 33.1 -22.0 -100.1 354.7 -100.1 354.7 33.1 731.5 166.3 853.1 299.5 919.9 432.7 950.4 565.9 950.4 699.1 919.9 832.3 853.1 965.5 731.5z"/>
        <path d="M 830.9 -143.7 L  830.9 -143.7 697.5 -210.6 564.0 -241.2 430.6 -241.2 297.1 -210.6 163.7 -143.7 30.2 -21.9 -103.2 355.6 -103.2 355.6 30.2 733.0 163.7 854.9 297.1 921.7 430.6 952.4 564.0 952.4 697.5 921.7 830.9 854.9 964.4 733.0 1097.8 355.6 1097.8 355.6 964.4 -21.9z"/>
        <path d="M 429.1 957.6 L  429.1 957.6 563.7 957.6 698.2 926.7 832.8 859.3 967.4 736.4 1101.9 355.8 1101.9 355.8 967.4 -24.9 832.8 -147.7 698.2 -215.2 563.7 -246.1 429.1 -246.1 294.5 -215.2 160.0 -147.7 25.4 -24.9 -109.2 355.8 -109.2 355.8 25.4 736.4 160.0 859.3 294.5 926.7z"/>
        <path d="M 22.8 -25.3 L  22.8 -25.3 -112.2 356.6 -112.2 356.6 22.8 738.5 157.8 861.8 292.8 929.4 427.8 960.4 562.9 960.4 697.9 929.4 832.9 861.8 967.9 738.5 1102.9 356.6 1102.9 356.6 967.9 -25.3 832.9 -148.6 697.9 -216.2 562.9 -247.2 427.8 -247.2 292.8 -216.2 157.8 -148.6z"/>
        <path d="M 967.9 -26.1 L  967.9 -26.1 832.5 -149.7 697.2 -217.5 561.8 -248.6 426.5 -248.6 291.1 -217.5 155.8 -149.7 20.4 -26.1 -115.0 356.8 -115.0 356.8 20.4 739.6 155.8 863.2 291.1 931.0 426.5 962.1 561.8 962.1 697.2 931.0 832.5 863.2 967.9 739.6 1103.2 356.8 1103.2 356.8z"/>
        <path d="M 152.2 867.7 L  152.2 867.7 288.5 936.0 424.9 967.3 561.2 967.3 697.5 936.0 833.8 867.7 970.1 743.2 1106.4 357.7 1106.4 357.7 970.1 -27.9 833.8 -152.4 697.5 -220.6 561.2 -251.9 424.9 -251.9 288.5 -220.6 152.2 -152.4 15.9 -27.9 -120.4 357.7 -120.4 357.7 15.9 743.2z"/>
        <path d="M 425.3 969.6 L  425.3 969.6 562.1 969.6 698.8 938.2 835.6 869.7 972.3 744.8 1109.1 358.0 1109.1 358.0 972.3 -28.7 835.6 -153.6 698.8 -222.1 562.1 -253.5 425.3 -253.5 288.6 -222.1 151.9 -153.6 15.1 -28.7 -121.6 358.0 -121.6 358.0 15.1 744.8 151.9 869.7 288.6 938.2z"/>
        <path d="M 425.8 -257.1 L  425.8 -257.1 288.0 -225.5 150.3 -156.5 12.6 -30.7 -125.2 358.8 -125.2 358.8 12.6 748.4 150.3 874.2 288.0 943.2 425.8 974.8 563.5 974.8 701.2 943.2 838.9 874.2 976.7 748.4 1114.4 358.8 1114.4 358.8 976.7 -30.7 838.9 -156.5 701.2 -225.5 563.5 -257.1z"/>
        <path d="M 147.8 876.4 L  147.8 876.4 286.1 945.7 424.4 977.4 562.7 977.4 701.0 945.7 839.3 876.4 977.6 750.1 1115.9 358.9 1115.9 358.9 977.6 -32.2 839.3 -158.5 701.0 -227.8 562.7 -259.6 424.4 -259.6 286.1 -227.8 147.8 -158.5 9.5 -32.2 -128.8 358.9 -128.8 358.9 9.5 750.1z"/>
        <path d="M 840.8 -159.0 L  840.8 -159.0 702.1 -228.5 563.4 -260.3 424.7 -260.3 286.1 -228.5 147.4 -159.0 8.7 -32.3 -130.0 359.9 -130.0 359.9 8.7 752.2 147.4 878.9 286.1 948.3 424.7 980.2 563.4 980.2 702.1 948.3 840.8 878.9 979.5 752.2 1118.2 359.9 1118.2 359.9 979.5 -32.3z"/>
        <path d="M 146.2 -159.9 L  146.2 -159.9 7.1 -32.8 -132.0 360.7 -132.0 360.7 7.1 754.2 146.2 881.3 285.4 951.0 424.5 982.9 563.7 982.9 702.8 951.0 841.9 881.3 981.1 754.2 1120.2 360.7 1120.2 360.7 981.1 -32.8 841.9 -159.9 702.8 -229.6 563.7 -261.5 424.5 -261.5 285.4 -229.6z"/>
        <path d="M 424.3 -264.7 L  424.3 -264.7 284.4 -232.6 144.6 -162.5 4.7 -34.8 -135.2 360.9 -135.2 360.9 4.7 756.5 144.6 884.2 284.4 954.3 424.3 986.4 564.2 986.4 704.1 954.3 843.9 884.2 983.8 756.5 1123.7 360.9 1123.7 360.9 983.8 -34.8 843.9 -162.5 704.1 -232.6 564.2 -264.7z"/>
        <path d="M 142.5 -166.6 L  142.5 -166.6 1.3 -37.7 -139.9 361.6 -139.9 361.6 1.3 760.8 142.5 889.7 283.6 960.5 424.8 992.9 565.9 992.9 707.1 960.5 848.2 889.7 989.4 760.8 1130.5 361.6 1130.5 361.6 989.4 -37.7 848.2 -166.6 707.1 -237.3 565.9 -269.7 424.8 -269.7 283.6 -237.3z"/>
        <path d="M 142.2 891.7 L  142.2 891.7 283.7 962.6 425.1 995.1 566.6 995.1 708.1 962.6 849.6 891.7 991.0 762.5 1132.5 362.4 1132.5 362.4 991.0 -37.8 849.6 -167.0 708.1 -237.9 566.6 -270.3 425.1 -270.3 283.7 -237.9 142.2 -167.0 0.7 -37.8 -140.8 362.4 -140.8 362.4 0.7 762.5z"/>
        <path d="M 140.1 895.7 L  140.1 895.7 282.6 967.1 425.1 999.8 567.6 999.8 710.1 967.1 852.5 895.7 995.0 765.5 1137.5 362.5 1137.5 362.5 995.0 -40.5 852.5 -170.6 710.1 -242.0 567.6 -274.7 425.1 -274.7 282.6 -242.0 140.1 -170.6 -2.4 -40.5 -144.9 362.5 -144.9 362.5 -2.4 765.5z"/>
        <path d="M 854.5 899.7 L  854.5 899.7 998.0 768.6 1141.6 362.6 1141.6 362.6 998.0 -43.4 854.5 -174.5 711.0 -246.4 567.4 -279.4 423.9 -279.4 280.3 -246.4 136.8 -174.5 -6.8 -43.4 -150.3 362.6 -150.3 362.6 -6.8 768.6 136.8 899.7 280.3 971.6 423.9 1004.6 567.4 1004.6 711.0 971.6z"/>
        <path d="M 277.6 977.3 L  277.6 977.3 422.4 1010.5 567.2 1010.5 712.0 977.3 856.9 904.7 1001.7 772.5 1146.5 362.9 1146.5 362.9 1001.7 -46.7 856.9 -179.0 712.0 -251.5 567.2 -284.8 422.4 -284.8 277.6 -251.5 132.8 -179.0 -12.0 -46.7 -156.8 362.9 -156.8 362.9 -12.0 772.5 132.8 904.7z"/>
        <path d="M 130.4 909.5 L  130.4 909.5 276.3 982.6 422.3 1016.1 568.2 1016.1 714.2 982.6 860.1 909.5 1006.1 776.2 1152.0 363.4 1152.0 363.4 1006.1 -49.4 860.1 -182.7 714.2 -255.8 568.2 -289.3 422.3 -289.3 276.3 -255.8 130.4 -182.7 -15.6 -49.4 -161.5 363.4 -161.5 363.4 -15.6 776.2z"/>
        <path d="M 1152.3 363.8 L  1152.3 363.8 1006.1 -49.7 859.9 -183.3 713.7 -256.5 567.5 -290.0 421.3 -290.0 275.1 -256.5 128.9 -183.3 -17.3 -49.7 -163.5 363.8 -163.5 363.8 -17.3 777.2 128.9 910.8 275.1 984.0 421.3 1017.5 567.5 1017.5 713.7 984.0 859.9 910.8 1006.1 777.2 1152.3 363.8z"/>
        <path d="M 863.1 -186.4 L  863.1 -186.4 716.0 -260.1 568.9 -293.8 421.8 -293.8 274.8 -260.1 127.7 -186.4 -19.4 -52.1 -166.5 364.0 -166.5 364.0 -19.4 780.0 127.7 914.3 274.8 988.0 421.8 1021.7 568.9 1021.7 716.0 988.0 863.1 914.3 1010.2 780.0 1157.3 364.0 1157.3 364.0 1010.2 -52.1z"/>
        <path d="M -168.6 364.5 L  -168.6 364.5 -168.6 364.5 -20.7 782.7 127.1 917.7 275.0 991.8 422.9 1025.8 570.8 1025.8 718.6 991.8 866.5 917.7 1014.4 782.7 1162.3 364.5 1162.3 364.5 1014.4 -53.8 866.5 -188.8 718.6 -262.9 570.8 -296.9 422.9 -296.9 275.0 -262.9 127.1 -188.8 -20.7 -53.8z"/>
        <path d="M 721.2 997.6 L  721.2 997.6 870.3 922.9 1019.4 786.8 1168.4 365.2 1168.4 365.2 1019.4 -56.4 870.3 -192.5 721.2 -267.2 572.2 -301.4 423.1 -301.4 274.1 -267.2 125.0 -192.5 -24.1 -56.4 -173.1 365.2 -173.1 365.2 -24.1 786.8 125.0 922.9 274.1 997.6 423.1 1031.8 572.2 1031.8z"/>
        <path d="M 124.7 -192.9 L  124.7 -192.9 -24.7 -56.4 -174.1 366.2 -174.1 366.2 -24.7 788.8 124.7 925.3 274.1 1000.1 423.5 1034.4 572.9 1034.4 722.4 1000.1 871.8 925.3 1021.2 788.8 1170.6 366.2 1170.6 366.2 1021.2 -56.4 871.8 -192.9 722.4 -267.7 572.9 -302.0 423.5 -302.0 274.1 -267.7z"/>
        <path d="M -178.3 367.1 L  -178.3 367.1 -178.3 367.1 -28.1 792.1 122.2 929.3 272.4 1004.6 422.7 1039.0 573.0 1039.0 723.2 1004.6 873.5 929.3 1023.7 792.1 1174.0 367.1 1174.0 367.1 1023.7 -57.9 873.5 -195.2 723.2 -270.5 573.0 -304.9 422.7 -304.9 272.4 -270.5 122.2 -195.2 -28.1 -57.9z"/>
        <path d="M 272.6 -271.8 L  272.6 -271.8 121.9 -196.3 -28.8 -58.7 -179.4 367.5 -179.4 367.5 -28.8 793.6 121.9 931.2 272.6 1006.7 423.3 1041.3 573.9 1041.3 724.6 1006.7 875.3 931.2 1025.9 793.6 1176.6 367.5 1176.6 367.5 1025.9 -58.7 875.3 -196.3 724.6 -271.8 573.9 -306.3 423.3 -306.3z"/>
        <path d="M 1176.3 367.6 L  1176.3 367.6 1025.3 -59.5 874.3 -197.4 723.3 -273.1 572.3 -307.7 421.3 -307.7 270.3 -273.1 119.3 -197.4 -31.7 -59.5 -182.7 367.6 -182.7 367.6 -31.7 794.7 119.3 932.6 270.3 1008.2 421.3 1042.9 572.3 1042.9 723.3 1008.2 874.3 932.6 1025.3 794.7 1176.3 367.6z"/>
        <path d="M 420.3 -312.9 L  420.3 -312.9 268.1 -277.9 116.0 -201.7 -36.2 -62.8 -188.4 367.6 -188.4 367.6 -36.2 798.0 116.0 936.9 268.1 1013.1 420.3 1048.1 572.4 1048.1 724.6 1013.1 876.7 936.9 1028.9 798.0 1181.1 367.6 1181.1 367.6 1028.9 -62.8 876.7 -201.7 724.6 -277.9 572.4 -312.9z"/>
        <path d="M 116.8 -202.7 L  116.8 -202.7 -35.8 -63.4 -188.3 368.0 -188.3 368.0 -35.8 799.5 116.8 938.8 269.3 1015.2 421.8 1050.2 574.4 1050.2 726.9 1015.2 879.5 938.8 1032.0 799.5 1184.6 368.0 1184.6 368.0 1032.0 -63.4 879.5 -202.7 726.9 -279.2 574.4 -314.2 421.8 -314.2 269.3 -279.2z"/>
        <path d="M 726.8 1018.2 L  726.8 1018.2 879.8 941.5 1032.9 801.7 1185.9 368.8 1185.9 368.8 1032.9 -64.1 879.8 -203.9 726.8 -280.5 573.7 -315.7 420.6 -315.7 267.6 -280.5 114.5 -203.9 -38.5 -64.1 -191.6 368.8 -191.6 368.8 -38.5 801.7 114.5 941.5 267.6 1018.2 420.6 1053.3 573.7 1053.3z"/>
        <path d="M -39.9 802.7 L  -39.9 802.7 113.3 942.6 266.5 1019.3 419.6 1054.4 572.8 1054.4 726.0 1019.3 879.1 942.6 1032.3 802.7 1185.5 369.5 1185.5 369.5 1032.3 -63.8 879.1 -203.6 726.0 -280.4 572.8 -315.5 419.6 -315.5 266.5 -280.4 113.3 -203.6 -39.9 -63.8 -193.0 369.5 -193.0 369.5z"/>
        <path d="M 419.6 1056.1 L  419.6 1056.1 573.0 1056.1 726.4 1020.9 879.7 944.0 1033.1 804.0 1186.5 370.2 1186.5 370.2 1033.1 -63.6 879.7 -203.7 726.4 -280.5 573.0 -315.7 419.6 -315.7 266.2 -280.5 112.9 -203.7 -40.5 -63.6 -193.9 370.2 -193.9 370.2 -40.5 804.0 112.9 944.0 266.2 1020.9z"/>
        <path d="M 1190.2 371.0 L  1190.2 371.0 1190.2 371.0 1036.1 -65.1 881.9 -205.9 727.7 -283.1 573.5 -318.5 419.4 -318.5 265.2 -283.1 111.0 -205.9 -43.2 -65.1 -197.3 371.0 -197.3 371.0 -43.2 807.1 111.0 947.9 265.2 1025.1 419.4 1060.5 573.5 1060.5 727.7 1025.1 881.9 947.9 1036.1 807.1z"/>
        <path d="M -200.5 371.9 L  -200.5 371.9 -200.5 371.9 -45.2 811.1 110.0 952.9 265.3 1030.6 420.6 1066.3 575.8 1066.3 731.1 1030.6 886.4 952.9 1041.7 811.1 1196.9 371.9 1196.9 371.9 1041.7 -67.3 886.4 -209.1 731.1 -286.9 575.8 -322.5 420.6 -322.5 265.3 -286.9 110.0 -209.1 -45.2 -67.3z"/>
        <path d="M 575.9 -327.4 L  575.9 -327.4 419.4 -327.4 262.8 -291.4 106.2 -213.0 -50.4 -70.0 -207.0 372.9 -207.0 372.9 -50.4 815.8 106.2 958.8 262.8 1037.2 419.4 1073.1 575.9 1073.1 732.5 1037.2 889.1 958.8 1045.7 815.8 1202.3 372.9 1202.3 372.9 1045.7 -70.0 889.1 -213.0 732.5 -291.4z"/>
        <path d="M 892.6 -216.0 L  892.6 -216.0 735.0 -295.0 577.3 -331.1 419.7 -331.1 262.1 -295.0 104.5 -216.0 -53.1 -72.1 -210.8 373.8 -210.8 373.8 -53.1 819.6 104.5 963.5 262.1 1042.5 419.7 1078.7 577.3 1078.7 735.0 1042.5 892.6 963.5 1050.2 819.6 1207.8 373.8 1207.8 373.8 1050.2 -72.1z"/>
        <path d="M 261.0 1044.8 L  261.0 1044.8 419.1 1081.1 577.2 1081.1 735.2 1044.8 893.3 965.6 1051.4 821.3 1209.5 374.2 1209.5 374.2 1051.4 -72.9 893.3 -217.3 735.2 -296.5 577.2 -332.7 419.1 -332.7 261.0 -296.5 103.0 -217.3 -55.1 -72.9 -213.2 374.2 -213.2 374.2 -55.1 821.3 103.0 965.6z"/>
        <path d="M 894.8 -220.3 L  894.8 -220.3 735.7 -300.0 576.6 -336.5 417.5 -336.5 258.4 -300.0 99.3 -220.3 -59.8 -75.0 -218.9 375.0 -218.9 375.0 -59.8 825.0 99.3 970.3 258.4 1050.0 417.5 1086.5 576.6 1086.5 735.7 1050.0 894.8 970.3 1053.9 825.0 1213.0 375.0 1213.0 375.0 1053.9 -75.0z"/>
        <path d="M 577.1 -340.5 L  577.1 -340.5 416.9 -340.5 256.8 -303.8 96.6 -223.5 -63.6 -77.3 -223.7 375.7 -223.7 375.7 -63.6 828.7 96.6 975.0 256.8 1055.2 416.9 1092.0 577.1 1092.0 737.2 1055.2 897.4 975.0 1057.6 828.7 1217.7 375.7 1217.7 375.7 1057.6 -77.3 897.4 -223.5 737.2 -303.8z"/>
        <path d="M 898.8 976.7 L  898.8 976.7 1059.3 830.1 1219.9 376.0 1219.9 376.0 1059.3 -78.1 898.8 -224.7 738.2 -305.1 577.7 -342.0 417.1 -342.0 256.6 -305.1 96.1 -224.7 -64.5 -78.1 -225.0 376.0 -225.0 376.0 -64.5 830.1 96.1 976.7 256.6 1057.1 417.1 1094.0 577.7 1094.0 738.2 1057.1z"/>
        <path d="M 1059.0 830.6 L  1059.0 830.6 1219.7 376.2 1219.7 376.2 1059.0 -78.2 898.3 -225.0 737.7 -305.4 577.0 -342.3 416.4 -342.3 255.7 -305.4 95.0 -225.0 -65.6 -78.2 -226.3 376.2 -226.3 376.2 -65.6 830.6 95.0 977.3 255.7 1057.8 416.4 1094.7 577.0 1094.7 737.7 1057.8 898.3 977.3z"/>
        <path d="M 900.9 -227.3 L  900.9 -227.3 739.4 -308.2 577.9 -345.2 416.5 -345.2 255.0 -308.2 93.5 -227.3 -68.0 -79.8 -229.5 376.9 -229.5 376.9 -68.0 833.7 93.5 981.1 255.0 1062.0 416.5 1099.1 577.9 1099.1 739.4 1062.0 900.9 981.1 1062.4 833.7 1223.8 376.9 1223.8 376.9 1062.4 -79.8z"/>
        <path d="M 92.4 983.6 L  92.4 983.6 254.5 1064.8 416.5 1102.0 578.6 1102.0 740.6 1064.8 902.7 983.6 1064.7 835.6 1226.8 377.3 1226.8 377.3 1064.7 -81.1 902.7 -229.1 740.6 -310.3 578.6 -347.4 416.5 -347.4 254.5 -310.3 92.4 -229.1 -69.6 -81.1 -231.7 377.3 -231.7 377.3 -69.6 835.6z"/>
        <path d="M 90.6 986.0 L  90.6 986.0 253.2 1067.4 415.7 1104.7 578.3 1104.7 740.9 1067.4 903.5 986.0 1066.0 837.5 1228.6 377.7 1228.6 377.7 1066.0 -82.1 903.5 -230.6 740.9 -312.0 578.3 -349.4 415.7 -349.4 253.2 -312.0 90.6 -230.6 -72.0 -82.1 -234.5 377.7 -234.5 377.7 -72.0 837.5z"/>
        <path d="M 1067.5 839.8 L  1067.5 839.8 1230.7 378.2 1230.7 378.2 1067.5 -83.3 904.4 -232.3 741.2 -314.0 578.0 -351.5 414.8 -351.5 251.7 -314.0 88.5 -232.3 -74.7 -83.3 -237.8 378.2 -237.8 378.2 -74.7 839.8 88.5 988.8 251.7 1070.5 414.8 1108.0 578.0 1108.0 741.2 1070.5 904.4 988.8z"/>
    </g> 
</svg>