<?xml version="1.0" encoding="UTF-8" standalone="no"?>
<svg width="1000" height="500" version="1.1" xmlns="http://www.w3.org/2000/svg">
    <g opacity="1.0">
        <style> path { stroke: #33FFC9; stroke-width: 1; fill: transparent; } </style>
        <path d="M 57.4 253.3 L  57.4 253.3 74.7 256.6 35.0 241.9 62.2 234.3 34.4 255.4 60.9 244.6 64.6 237.6 52.0 239.9 42.5 245.1 59.6 255.6 54.0 233.2 45.6 255.7 35.7 254.8 58.4 271.2 42.2 273.3 54.8 251.4z"/>
        <path d="M 67.3 270.5 L  67.3 270.5 46.4 262.5 71.3 246.9 70.3 241.7 51.2 238.4 55.3 252.3 45.6 244.6 61.5 250.3 48.4 249.3 45.6 245.8z"/>
        <path d="M 62.2 250.3 L  62.2 250.3 49.2 247.8 67.9 240.9 64.4 272.2 47.5 255.7 65.6 254.1 62.4 234.0 60.8 256.7 71.3 263.4 69.5 252.5 74.7 257.0 49.7 256.7z"/>
        <path d="M 76.1 238.2 L  76.1 238.2 67.1 245.5 73.8 247.5 47.7 253.3 52.1 245.0 65.9 250.5 44.9 245.7 34.2 256.8 62.0 252.1 49.8 262.0 67.4 269.8 75.4 252.0 60.8 247.1 73.5 246.1 60.0 252.2 35.9 262.9 90.8 250.6 58.1 253.1 63.4 259.9 70.7 249.0z"/>
        <path d="M 67.7 240.1 L  67.7 240.1 68.5 256.9 67.5 237.0 55.4 246.0 49.9 255.3 52.7 247.9 72.8 260.2 40.5 255.7 57.3 256.6 82.7 257.4 73.7 264.4 52.2 259.8 86.1 249.0 70.7 249.7 76.9 244.5 88.3 262.1 83.9 244.1 85.4 244.1 63.2 238.1 65.5 242.9z"/>
        <path d="M 68.9 239.2 L  68.9 239.2 95.4 240.9 98.5 255.7 87.5 251.8 79.0 249.4 84.0 242.7 80.7 241.3 70.3 249.9 66.6 256.5 73.0 254.6 67.4 244.8 68.4 246.4 63.9 263.9 51.1 249.7 71.9 257.1 61.4 270.2 75.5 247.7 78.5 256.6 79.4 276.8 94.9 265.0z"/>
        <path d="M 59.5 274.4 L  59.5 274.4 79.8 265.8 83.6 255.1 73.1 244.7 86.0 259.2 89.2 252.6 66.3 237.8 70.9 252.7 63.4 253.3 79.7 241.2 59.8 263.2 59.9 236.9 50.5 250.4 57.3 268.8z"/>
        <path d="M 78.9 260.3 L  78.9 260.3 74.6 273.3 83.6 243.9 73.8 250.3 79.5 253.2 66.5 235.2 79.0 249.4 69.0 254.1 63.7 250.2 73.1 251.7z"/>
        <path d="M 84.2 246.7 L  84.2 246.7 91.1 250.6 75.3 258.2 96.3 258.4 99.7 239.0 84.4 234.5 65.7 248.6 68.2 235.3 66.4 258.9 61.9 241.5 66.1 246.9 94.5 272.2 63.8 246.0 63.0 255.3z"/>
        <path d="M 68.0 238.5 L  68.0 238.5 56.4 249.7 68.5 235.0 58.6 231.8 72.1 259.0 73.2 241.3 101.4 259.2 84.8 276.4 89.9 241.5 108.6 246.7 74.2 252.0 86.5 239.5z"/>
        <path d="M 112.2 263.4 L  112.2 263.4 101.6 256.9 84.7 246.3 114.7 251.5 81.2 243.6 84.0 243.2 68.6 245.2 75.2 243.6 73.8 235.0 73.9 246.1 74.9 239.0 66.8 246.5 69.3 261.3 77.3 248.8 70.1 259.5 81.0 257.2 63.9 258.2 76.1 264.0 67.2 260.9 87.9 274.2z"/>
        <path d="M 83.0 253.4 L  83.0 253.4 85.7 259.0 72.9 270.0 87.2 274.5 78.7 260.7 86.4 254.9 73.6 261.1 78.4 238.9 89.7 232.9 91.4 242.0 89.3 229.6 94.0 252.7 72.0 237.4 72.1 256.8 74.6 231.2 50.1 243.4 68.2 237.9 74.6 271.0 73.0 268.5 84.6 251.2z"/>
        <path d="M 82.8 265.0 L  82.8 265.0 77.0 274.3 83.9 261.9 88.1 258.5 87.4 256.1 105.6 238.2 82.8 244.5 79.1 244.6 51.0 247.0 80.0 247.3 71.8 238.3 74.4 240.9z"/>
        <path d="M 79.9 264.4 L  79.9 264.4 81.6 258.0 107.0 271.4 104.7 241.7 88.8 230.8 104.6 226.2 84.5 248.8 94.7 241.6 86.9 234.0 85.6 245.8 90.6 234.5 59.1 240.1 77.2 235.4 55.5 251.6 70.5 249.4 67.1 265.4 72.7 261.6 74.7 257.1 88.6 263.9 89.6 283.3z"/>
        <path d="M 92.4 275.4 L  92.4 275.4 89.3 259.0 110.2 272.6 109.5 240.0 89.4 252.5 101.7 250.3 75.8 241.1 83.0 223.3 68.2 249.8 71.5 248.6z"/>
        <path d="M 73.3 226.5 L  73.3 226.5 78.1 249.2 96.1 241.4 81.1 257.6 86.7 234.5 60.8 252.4 85.8 276.6 79.8 275.9 80.3 267.2 94.7 264.5 85.4 260.3 109.9 255.1 102.0 271.3 110.1 258.3 106.1 257.2 99.6 246.9 103.5 245.2 98.8 239.4z"/>
        <path d="M 83.8 236.8 L  83.8 236.8 80.0 215.5 62.6 251.9 96.3 257.1 77.6 273.3 78.9 248.3 93.8 277.4 83.4 257.2 89.3 265.2 102.1 254.5 90.1 245.1 107.0 241.8 101.5 254.8 99.4 218.6 89.0 234.6 92.5 246.3 74.9 229.8 106.8 238.4z"/>
        <path d="M 84.3 263.8 L  84.3 263.8 98.6 265.4 105.5 268.8 113.2 259.1 105.0 256.2 101.8 244.9 101.8 227.8 74.3 228.6 82.4 230.9 68.8 247.8 74.3 229.9 71.6 258.5z"/>
        <path d="M 134.9 244.3 L  134.9 244.3 121.5 232.9 110.4 237.8 97.6 228.4 96.2 229.5 76.8 206.5 79.2 228.6 74.0 252.3 71.0 238.5 78.5 239.7 91.7 283.2 94.6 288.2 92.0 268.3 90.8 268.3 102.3 260.7 98.9 262.6z"/>
        <path d="M 89.4 218.5 L  89.4 218.5 71.4 257.3 88.5 281.4 106.6 262.0 125.7 247.2 120.1 251.1 123.3 269.6 102.7 225.3 92.5 231.7 98.7 223.5z"/>
        <path d="M 101.5 248.0 L  101.5 248.0 105.6 239.9 98.9 241.6 90.5 259.5 76.8 268.9 103.8 279.1 118.1 271.1 117.1 283.4 135.7 254.2 126.3 256.5 112.0 233.3 111.0 234.0z"/>
        <path d="M 147.8 249.1 L  147.8 249.1 141.1 261.6 128.3 230.6 112.2 225.1 116.9 228.7 109.6 231.8 88.4 225.5 88.7 239.4 104.0 255.0 79.0 242.8 95.8 277.5 91.8 278.3 113.1 267.6 104.3 266.4 119.1 257.5 130.3 269.7z"/>
        <path d="M 97.3 248.7 L  97.3 248.7 89.2 250.1 93.7 274.5 88.0 273.8 88.2 272.2 110.8 272.5 126.0 280.3 132.9 282.1 142.1 275.2 131.6 260.1 137.3 229.1 146.7 235.3 108.4 217.6 109.6 211.1 107.4 225.6 94.3 214.6z"/>
        <path d="M 162.9 243.0 L  162.9 243.0 122.6 232.7 123.1 210.6 120.9 219.8 85.6 221.0 104.8 228.8 106.4 236.8 82.2 268.9 72.3 250.9 103.6 291.3 108.3 281.6 117.7 286.9 115.2 279.3 119.5 269.4 145.7 270.0 145.9 257.8z"/>
        <path d="M 127.7 234.9 L  127.7 234.9 115.0 204.5 124.5 215.9 111.0 223.0 106.4 250.9 98.5 243.9 99.5 282.6 108.6 269.6 128.4 268.3 131.9 285.6 141.2 269.3 145.6 259.7 162.9 251.1 146.1 223.9z"/>
        <path d="M 108.9 223.4 L  108.9 223.4 102.6 258.0 114.5 248.9 106.7 293.3 140.4 282.5 134.2 242.8 144.2 252.9 151.4 257.8 130.5 227.6 128.5 207.9z"/>
        <path d="M 148.2 246.1 L  148.2 246.1 129.9 227.4 141.9 231.1 119.9 221.0 100.8 235.1 91.4 223.4 87.3 253.2 110.7 249.4 105.2 270.4 115.6 251.4 128.1 282.1 124.8 265.2 126.6 272.4 150.6 270.9 133.2 273.3 138.1 262.3 153.6 259.3 149.2 252.6 156.8 217.4 140.0 213.8z"/>
        <path d="M 150.9 283.9 L  150.9 283.9 160.9 271.0 140.4 270.1 170.2 246.5 170.0 249.8 144.4 231.0 151.7 217.7 137.6 204.5 117.6 206.6 117.5 223.6 111.5 239.8 109.1 224.2 95.0 244.0 108.0 255.0 107.9 272.3 107.8 272.6 122.0 298.2 111.7 265.5z"/>
        <path d="M 120.1 235.4 L  120.1 235.4 113.8 259.6 110.1 247.5 127.7 284.0 142.3 285.1 130.6 287.4 158.8 273.6 170.3 276.2 180.3 234.4 155.6 258.4 164.6 230.3 127.6 228.1 140.7 222.3 137.8 211.5 129.5 225.3 116.4 225.0z"/>
        <path d="M 122.7 247.5 L  122.7 247.5 114.0 241.5 117.9 280.3 147.6 269.3 146.4 260.8 189.3 229.2 183.4 235.8 157.1 225.1 144.2 232.0 131.4 221.0z"/>
        <path d="M 163.9 236.4 L  163.9 236.4 137.7 223.9 143.6 246.9 127.3 221.7 108.2 258.6 102.6 246.9 131.7 270.3 119.7 276.9 156.0 279.0 154.6 294.2 167.3 297.9 172.2 248.0 175.6 244.4 147.4 244.8z"/>
        <path d="M 174.0 211.5 L  174.0 211.5 151.2 223.9 147.7 196.7 143.3 215.4 123.9 262.2 98.9 238.4 127.5 268.4 131.0 268.0 144.8 280.2 144.6 277.4 184.0 268.4 179.8 251.8 184.4 249.9 153.9 231.8z"/>
        <path d="M 143.4 219.3 L  143.4 219.3 135.6 255.0 114.1 250.8 132.9 280.2 146.5 277.6 143.7 281.0 179.3 240.5 197.2 252.3 164.1 218.7 159.1 220.4z"/>
        <path d="M 125.7 250.8 L  125.7 250.8 130.5 254.1 143.8 285.3 162.6 288.4 156.1 288.5 189.1 248.0 197.3 227.2 169.3 216.3 140.5 216.4 138.2 217.9z"/>
        <path d="M 166.8 208.3 L  166.8 208.3 156.5 219.0 133.5 230.5 114.3 236.7 132.4 233.2 127.8 284.7 138.4 279.9 163.1 255.1 173.1 293.0 174.5 295.9 173.7 284.2 181.4 241.5 195.2 264.7 176.8 213.6 174.3 211.6 158.3 231.3z"/>
        <path d="M 195.4 278.9 L  195.4 278.9 189.5 250.4 202.9 246.6 186.7 227.7 178.9 220.7 145.0 207.3 156.4 203.3 153.6 210.3 128.6 225.5 99.2 249.5 127.6 242.0 134.7 268.0 158.9 295.6 159.2 286.0 142.9 297.9 181.3 265.3z"/>
        <path d="M 198.8 239.5 L  198.8 239.5 204.3 220.8 183.9 211.8 183.8 188.4 151.8 201.5 165.6 216.7 159.5 253.2 121.2 238.4 113.5 246.4 120.2 231.4 140.9 286.7 161.8 284.4 151.1 283.3 165.0 294.5 176.9 277.7 186.5 290.5 168.2 258.8 214.6 256.0z"/>
        <path d="M 182.0 285.2 L  182.0 285.2 217.8 248.5 196.9 257.9 186.8 211.8 153.8 208.3 159.8 214.2 133.1 256.3 139.1 252.3 141.0 306.2 183.7 291.4z"/>
        <path d="M 190.0 204.9 L  190.0 204.9 155.2 199.4 115.7 257.5 137.0 245.2 128.4 305.0 174.8 281.5 185.4 287.3 213.4 256.2 221.2 251.6 188.5 219.0z"/>
        <path d="M 176.0 304.5 L  176.0 304.5 219.4 248.1 222.7 270.3 186.6 212.6 192.5 223.2 145.8 230.2 116.4 234.5 127.9 254.8 161.4 292.3 192.2 306.4z"/>
        <path d="M 229.4 244.2 L  229.4 244.2 204.9 223.4 197.4 214.9 186.8 213.7 169.9 215.4 185.8 212.7 155.0 218.8 154.7 211.7 150.0 219.6 132.3 236.6 129.6 253.7 146.6 284.9 132.2 276.1 143.7 309.8 182.6 292.3 162.3 297.5 196.9 293.3 199.0 264.0 189.5 265.6 221.2 251.0z"/>
        <path d="M 183.1 207.7 L  183.1 207.7 174.4 188.1 175.2 207.5 153.1 202.4 144.3 211.7 136.8 246.5 142.6 266.3 147.8 289.2 149.6 286.2 154.8 283.5 181.9 300.5 196.8 278.8 206.2 288.5 215.2 290.1 230.3 237.0 199.5 261.9 219.7 226.6 205.3 221.3z"/>
        <path d="M 149.1 228.0 L  149.1 228.0 161.4 210.7 152.8 266.4 132.0 239.2 139.9 283.6 156.3 289.8 185.5 299.2 189.3 310.7 204.0 293.8 226.9 292.8 231.8 245.8 225.5 263.3 216.8 222.7 214.7 214.3 188.0 201.1 173.5 206.9z"/>
        <path d="M 228.4 239.0 L  228.4 239.0 230.0 257.0 222.1 218.4 200.5 200.8 202.1 216.6 192.7 188.4 165.0 186.7 166.9 198.4 148.2 218.4 147.3 249.0 154.4 246.4 151.4 289.8 153.3 285.4 167.3 320.2 178.0 295.3 187.9 300.9 190.8 270.4 216.7 286.2z"/>
        <path d="M 152.2 245.2 L  152.2 245.2 114.8 228.8 148.5 295.7 173.8 282.9 187.6 291.2 215.1 285.3 236.3 249.5 232.9 231.5 206.6 220.1 190.2 202.2 172.3 206.5 162.8 214.9z"/>
        <path d="M 156.4 214.0 L  156.4 214.0 154.8 209.9 132.8 254.3 149.2 265.3 149.6 275.9 164.1 306.3 173.2 292.2 180.3 286.9 209.7 295.6 224.5 278.9 241.3 249.5 228.1 255.7 232.1 204.0 194.0 192.9 194.1 203.5 188.9 191.0z"/>
        <path d="M 153.6 228.3 L  153.6 228.3 157.1 243.0 137.9 250.2 161.1 274.9 165.2 289.3 199.5 309.6 176.9 286.6 198.6 293.9 217.6 302.5 209.0 281.2 238.0 262.0 254.0 251.8 227.7 252.0 221.1 216.2 202.2 223.6 211.5 203.8 208.8 185.9 176.2 198.2 175.7 184.4 159.9 229.2z"/>
        <path d="M 148.0 250.0 L  148.0 250.0 141.8 270.8 174.6 272.6 180.5 312.8 217.7 289.1 215.5 312.8 224.5 283.4 234.9 254.9 239.7 225.5 242.2 198.6 216.0 208.1 196.0 193.3 179.7 194.0 172.7 218.3z"/>
        <path d="M 179.2 282.8 L  179.2 282.8 182.7 277.9 184.9 296.4 228.9 305.5 228.5 293.8 244.1 281.3 249.4 259.0 246.4 248.1 252.6 219.6 222.8 213.4 220.0 190.4 202.4 195.3 192.5 196.9 183.9 222.2 152.8 212.5 156.1 264.9 160.0 246.6 161.4 299.0z"/>
        <path d="M 179.3 214.0 L  179.3 214.0 151.8 206.1 152.4 252.0 159.2 241.9 156.5 280.5 184.9 287.1 198.5 294.7 195.0 300.0 204.4 290.6 209.3 302.2 227.2 275.2 244.7 287.2 258.3 265.1 256.5 250.0 252.1 224.9 247.3 200.1 204.9 181.8 208.6 191.6 184.7 196.7 187.9 186.9z"/>
        <path d="M 196.0 291.5 L  196.0 291.5 213.4 295.0 217.4 284.9 248.3 292.1 238.2 289.9 262.2 253.5 268.8 250.1 259.3 223.9 234.9 202.0 222.3 186.7 232.3 208.4 194.8 185.4 181.8 199.1 192.0 203.3 167.3 201.2 156.7 256.9 164.3 249.4 146.5 278.3 168.7 296.3 186.4 293.5z"/>
        <path d="M 198.2 300.6 L  198.2 300.6 226.6 301.4 229.2 295.3 289.0 248.5 276.7 243.4 240.0 183.9 206.9 205.2 188.4 214.1 171.1 245.4 153.3 257.0z"/>
        <path d="M 203.2 192.5 L  203.2 192.5 162.4 215.9 162.3 246.4 176.5 236.8 166.7 280.9 192.8 301.8 242.6 304.7 268.6 300.1 269.2 253.8 280.7 261.6 248.2 190.7 220.8 191.3z"/>
        <path d="M 284.7 245.7 L  284.7 245.7 252.4 182.2 207.3 184.8 214.4 203.0 164.7 246.6 171.0 238.8 191.9 306.1 219.9 317.9 252.4 289.4 275.7 252.7z"/>
        <path d="M 190.7 215.6 L  190.7 215.6 152.1 254.4 173.2 249.6 167.8 285.8 190.8 281.7 199.5 292.0 220.6 304.4 237.9 301.7 255.6 307.4 253.1 305.7 273.8 284.3 289.7 265.5 285.3 227.0 251.6 208.8 249.1 188.1 253.8 206.2 220.1 187.9 221.1 179.1 218.1 198.2 193.3 200.7z"/>
        <path d="M 241.6 187.1 L  241.6 187.1 247.6 190.5 236.1 200.3 210.2 203.1 194.5 188.7 164.2 212.6 177.0 252.5 162.7 245.2 177.2 284.2 196.2 311.3 216.9 313.9 218.5 316.2 239.1 312.8 243.2 315.9 274.5 316.6 287.1 292.6 285.0 255.1 273.2 235.7 279.7 212.5 249.1 219.5z"/>
        <path d="M 250.9 330.3 L  250.9 330.3 262.5 324.4 285.4 277.4 303.6 271.2 294.7 259.0 283.8 192.4 265.6 191.1 234.5 195.3 221.1 181.4 210.6 198.0 210.1 189.6 179.3 248.4 176.9 240.3 209.5 292.7 205.8 301.3 234.4 320.0z"/>
        <path d="M 254.7 314.1 L  254.7 314.1 272.8 298.8 320.2 250.5 306.7 242.7 279.5 179.2 260.7 199.4 202.1 175.3 193.2 252.1 176.3 250.1 216.7 311.2z"/>
        <path d="M 210.0 324.1 L  210.0 324.1 254.2 315.6 279.1 310.7 318.9 239.4 325.6 265.6 270.6 193.6 265.1 198.1 237.7 191.4 233.8 193.4 194.9 201.1 179.6 257.6 176.6 249.9 184.3 304.1 202.2 312.9z"/>
        <path d="M 190.1 295.9 L  190.1 295.9 201.6 314.0 228.9 322.2 254.0 316.6 281.4 294.5 295.5 310.5 299.0 241.7 292.8 256.3 303.1 206.6 283.4 195.8 256.6 205.9 207.6 177.5 227.3 187.5 183.7 215.1 185.3 257.1 185.5 250.1z"/>
        <path d="M 250.7 311.5 L  250.7 311.5 273.9 321.9 286.2 304.9 296.2 237.7 321.5 239.0 302.0 202.7 274.0 204.7 252.7 180.4 222.7 187.0 196.5 198.1 191.3 264.4 181.0 248.4 203.5 315.9 231.5 325.2z"/>
        <path d="M 221.8 318.1 L  221.8 318.1 278.0 324.3 282.5 312.7 303.8 254.7 286.6 256.2 298.0 213.6 252.8 176.7 236.6 190.4 203.5 201.0 183.6 251.2 184.0 254.7 204.8 298.8z"/>
        <path d="M 209.7 299.9 L  209.7 299.9 229.0 307.2 243.0 311.3 240.4 317.1 283.8 313.5 292.5 293.1 311.9 278.7 318.6 251.1 323.8 254.8 300.0 207.3 305.2 195.7 262.5 187.2 251.1 187.4 244.9 181.6 223.7 191.5 196.6 221.2 185.1 271.6 174.8 262.8z"/>
        <path d="M 342.3 253.6 L  342.3 253.6 283.3 193.2 270.6 172.3 223.2 184.0 193.9 246.6 198.4 244.2 222.0 317.5 257.0 321.7 308.4 306.6 319.8 253.8z"/>
        <path d="M 191.5 255.4 L  191.5 255.4 194.8 263.8 213.9 297.9 234.6 319.6 253.5 311.5 293.2 326.0 306.3 306.5 318.1 225.3 328.2 259.0 314.4 202.9 283.6 175.9 253.3 169.4 226.1 178.0 219.4 198.4z"/>
        <path d="M 302.5 189.1 L  302.5 189.1 271.1 182.1 237.0 186.5 222.2 192.7 196.8 262.5 177.4 240.8 206.3 305.1 242.7 316.4 264.3 326.2 294.9 324.1 289.3 288.2 333.2 238.8 345.3 254.5 299.3 187.6z"/>
        <path d="M 281.2 204.0 L  281.2 204.0 255.0 163.4 243.0 187.7 253.4 185.0 200.3 204.2 209.9 236.6 189.9 282.3 222.7 302.4 224.7 312.7 232.2 313.8 254.5 315.8 265.2 327.4 304.2 312.4 326.3 329.7 325.0 281.7 339.5 247.7 357.0 261.0 309.3 219.1 303.4 196.4 290.5 193.6z"/>
        <path d="M 209.9 191.5 L  209.9 191.5 211.5 253.5 204.3 245.8 236.4 313.8 274.5 309.8 302.1 316.6 330.4 319.5 359.0 252.2 367.6 238.6 308.6 192.8 278.4 170.6 262.9 174.5z"/>
        <path d="M 305.6 317.8 L  305.6 317.8 340.0 314.7 341.3 244.7 344.5 243.2 331.0 179.8 297.8 170.8 291.9 191.3 270.9 163.4 232.0 191.5 220.8 207.6 213.8 230.4 206.2 262.2 218.4 293.6 228.5 321.3 265.5 313.0 294.7 325.4z"/>
        <path d="M 358.0 245.5 L  358.0 245.5 331.8 198.8 288.0 166.2 264.5 164.6 242.8 175.2 195.0 257.6 204.7 256.3 223.0 309.8 242.9 316.6 299.8 312.3 310.9 322.2 328.0 244.1z"/>
        <path d="M 301.6 176.4 L  301.6 176.4 255.6 170.8 199.7 260.2 208.3 245.9 233.5 321.8 301.4 340.7 330.0 313.7 362.1 251.5 355.5 272.8 321.9 205.4z"/>
        <path d="M 342.2 313.6 L  342.2 313.6 360.5 275.1 356.8 271.6 348.7 194.6 313.7 176.7 274.1 181.5 223.5 178.9 221.5 243.5 208.0 252.3 246.8 306.3 278.0 327.4 294.8 324.7z"/>
        <path d="M 368.2 245.4 L  368.2 245.4 334.1 194.1 309.8 180.9 231.5 182.7 222.7 261.9 224.8 259.2 236.1 343.3 287.4 338.0 336.6 317.4 376.8 232.8z"/>
        <path d="M 362.9 264.8 L  362.9 264.8 375.9 246.4 351.5 184.1 303.0 173.3 265.4 192.4 203.3 247.9 195.2 255.3 246.5 302.6 287.1 333.2 314.4 321.3z"/>
        <path d="M 366.2 244.7 L  366.2 244.7 366.5 246.2 349.6 182.3 328.7 170.3 291.7 178.2 296.3 173.7 244.7 202.5 212.2 258.2 226.7 251.4 251.8 303.1 278.9 326.0 295.2 318.4 324.9 324.2 352.7 307.2z"/>
        <path d="M 388.9 256.6 L  388.9 256.6 357.9 177.2 311.2 184.3 280.1 165.5 240.2 178.0 204.5 242.7 211.8 239.1 218.8 314.2 285.8 310.8 320.1 309.4 348.3 315.0 387.1 252.7z"/>
        <path d="M 290.1 175.8 L  290.1 175.8 271.7 193.5 211.4 239.9 215.5 252.2 268.5 298.5 292.6 341.0 308.7 336.7 333.0 322.4 350.6 313.6 381.0 252.2 384.9 242.6 355.6 193.0 332.9 171.2 309.6 145.1z"/>
        <path d="M 300.6 184.0 L  300.6 184.0 293.2 171.5 279.1 196.6 261.5 164.8 252.8 209.1 231.5 240.4 231.1 246.3 236.2 298.2 248.6 317.2 283.0 318.9 306.6 346.0 333.5 317.7 334.1 345.3 341.2 330.6 373.9 305.5 386.1 245.0 395.6 244.0 369.7 193.2 379.0 184.7 361.4 170.5z"/>
        <path d="M 310.7 165.7 L  310.7 165.7 299.6 167.0 291.8 158.9 258.2 173.9 257.2 185.9 220.8 248.1 239.0 252.6 240.3 283.7 277.2 325.5 284.7 320.7 293.8 324.9 313.6 353.0 340.3 335.9 373.1 332.9 363.6 307.7 388.9 244.2 401.4 228.2 376.5 208.0 350.7 170.8 320.2 159.0z"/>
        <path d="M 357.2 315.9 L  357.2 315.9 395.1 234.5 405.3 239.8 367.3 188.0 325.0 164.9 290.6 165.8 249.5 188.5 219.6 247.3 231.2 253.9 252.1 308.1 309.2 344.7 341.3 321.0z"/>
        <path d="M 301.0 344.9 L  301.0 344.9 336.6 336.1 330.8 317.4 370.3 320.8 379.6 295.1 411.2 239.9 405.1 245.8 376.3 186.4 369.7 176.6 343.4 163.5 323.3 172.9 313.4 184.1 264.8 162.6 261.3 198.2 260.1 266.3 231.6 253.7 244.4 317.2 286.1 315.0z"/>
        <path d="M 358.3 182.7 L  358.3 182.7 315.9 169.2 271.1 186.3 269.9 256.5 237.2 249.6 282.9 317.4 328.3 351.2 375.1 322.8 411.1 242.1 404.7 250.5z"/>
        <path d="M 302.7 152.1 L  302.7 152.1 276.2 176.2 241.7 250.8 235.9 245.3 276.3 316.1 297.4 347.1 316.0 338.1 370.0 335.5 398.0 303.8 419.7 268.3 425.2 246.8 400.4 199.1 361.0 178.6 326.3 161.2z"/>
        <path d="M 408.7 313.5 L  408.7 313.5 429.7 251.9 427.0 236.9 409.6 220.8 386.8 174.9 362.2 164.8 349.0 150.0 317.7 156.2 293.4 164.8 282.6 176.4 290.0 186.2 245.6 246.2 247.6 258.1 270.1 292.7 299.4 315.4 314.9 311.7 308.3 344.2 332.7 338.9 366.9 328.4 374.6 312.2z"/>
        <path d="M 388.0 176.1 L  388.0 176.1 337.8 175.4 310.4 162.8 240.2 246.7 235.6 260.5 293.8 327.7 350.7 343.7 383.2 343.5 422.1 243.7 444.6 257.8z"/>
        <path d="M 363.2 334.9 L  363.2 334.9 411.7 325.7 428.8 261.9 427.9 251.3 390.6 170.1 366.0 169.2 340.3 142.5 323.8 158.3 283.2 188.7 253.8 252.6 261.4 260.8 282.3 304.1 307.3 336.6 349.9 330.2z"/>
        <path d="M 432.2 244.0 L  432.2 244.0 440.6 237.4 387.9 176.1 352.6 167.3 294.1 173.4 237.7 244.4 243.8 238.3 299.3 341.5 330.0 346.8 396.6 337.2z"/>
        <path d="M 284.1 339.2 L  284.1 339.2 328.9 350.8 352.9 347.9 382.1 352.1 409.7 342.7 413.2 319.6 429.4 268.2 445.5 251.9 411.0 192.3 413.7 166.1 370.4 152.9 352.2 163.1 330.8 144.9 287.6 162.7 269.2 177.1 246.5 246.0 261.0 246.8 264.9 294.4z"/>
        <path d="M 291.2 160.7 L  291.2 160.7 265.5 183.6 256.1 261.8 258.3 270.2 271.1 309.3 288.9 319.9 325.6 325.3 342.7 331.6 349.9 357.1 377.6 322.3 402.5 330.8 420.6 315.4 435.7 270.5 445.3 262.2 404.8 205.8 408.2 165.3 368.8 188.1 346.2 166.3 359.5 161.8 323.9 167.5z"/>
        <path d="M 331.6 340.1 L  331.6 340.1 356.0 354.6 381.5 344.0 417.4 320.1 438.9 258.9 461.9 253.0 419.4 183.1 379.9 158.7 363.2 160.5 328.2 164.1 291.3 175.9 275.0 188.7 246.5 240.2 260.3 257.3 287.8 327.0 290.0 333.6z"/>
        <path d="M 264.8 269.1 L  264.8 269.1 267.4 235.9 292.3 315.5 306.8 341.1 342.3 340.6 352.9 361.2 363.7 338.5 397.5 335.4 405.0 319.5 444.2 314.0 449.4 255.3 443.0 237.9 435.0 198.8 391.4 178.6 388.3 167.9 369.9 173.4 332.3 149.3 325.6 174.6 301.8 165.5 272.7 183.9z"/>
        <path d="M 446.1 236.9 L  446.1 236.9 455.3 269.8 412.0 178.7 375.6 160.3 345.1 157.5 311.7 165.5 270.4 251.7 255.3 258.1 303.9 330.9 351.9 343.3 373.4 338.8 418.7 315.0z"/>
        <path d="M 293.1 316.9 L  293.1 316.9 320.6 342.3 361.0 363.8 395.3 351.6 438.5 326.4 453.3 255.9 451.9 248.2 408.8 196.4 392.6 148.7 370.1 176.9 335.1 162.7 304.5 181.4 271.3 236.2 259.8 263.8z"/>
        <path d="M 325.3 147.6 L  325.3 147.6 260.6 250.2 266.2 243.8 316.1 340.9 358.2 349.9 398.0 343.7 445.6 252.2 468.8 250.5 420.4 171.6 374.0 143.1z"/>
        <path d="M 382.5 146.4 L  382.5 146.4 347.0 150.8 312.6 141.4 276.4 241.7 268.2 242.9 310.6 336.4 342.5 349.9 374.7 340.0 429.8 322.9 467.2 243.3 460.1 260.8 432.2 174.1z"/>
        <path d="M 270.8 248.2 L  270.8 248.2 283.4 256.8 332.0 308.3 403.1 374.0 396.4 327.4 495.1 246.3 465.1 243.3 423.5 157.0 374.8 172.4 320.6 142.1z"/>
        <path d="M 478.2 264.2 L  478.2 264.2 474.6 224.5 430.0 168.8 374.5 147.8 319.4 179.6 271.2 268.5 259.9 252.2 312.4 349.4 374.3 343.9 444.5 338.5z"/>
        <path d="M 383.5 352.0 L  383.5 352.0 440.9 380.2 502.4 250.6 464.3 236.5 443.8 149.8 382.9 139.8 323.3 159.1 289.1 262.7 281.8 252.6 333.3 335.0z"/>
        <path d="M 351.3 332.7 L  351.3 332.7 366.1 355.0 399.1 356.2 411.0 326.3 460.7 333.9 484.3 237.3 479.0 242.8 443.4 169.0 443.2 174.4 394.8 151.7 390.0 124.1 347.9 145.0 300.7 179.4 266.5 250.8 301.4 243.7 296.5 327.1z"/>
        <path d="M 377.0 145.3 L  377.0 145.3 334.0 158.5 296.6 247.3 284.7 241.7 299.4 327.5 358.6 351.6 380.3 356.4 429.1 334.4 461.8 335.8 502.3 255.7 483.9 262.0 445.4 174.7 433.5 158.9 380.2 143.0z"/>
        <path d="M 513.2 255.0 L  513.2 255.0 454.9 160.1 417.0 157.1 349.2 151.4 318.3 171.7 260.2 253.3 275.0 247.2 324.0 335.4 370.8 363.1 405.8 362.2 469.8 331.8 499.9 241.1z"/>
        <path d="M 386.3 158.1 L  386.3 158.1 393.9 153.8 359.9 147.4 337.1 173.1 301.3 200.2 291.0 241.2 291.3 254.5 308.8 318.3 346.6 347.7 359.1 345.1 393.3 360.5 398.6 344.7 430.1 359.8 455.6 350.8 476.7 334.4 505.7 251.2 515.4 247.4 479.2 187.6 455.6 161.1 438.8 166.4z"/>
        <path d="M 469.8 323.1 L  469.8 323.1 513.9 246.2 511.2 249.3 465.3 192.6 456.4 141.0 425.3 152.8 404.4 143.6 362.4 158.9 349.4 169.5 324.0 182.3 284.6 252.9 294.4 244.7 318.2 319.3 338.6 337.3 365.8 350.5 405.1 348.1 434.9 364.5 450.1 332.5z"/>
        <path d="M 289.4 272.6 L  289.4 272.6 290.6 241.7 317.5 331.4 341.4 339.6 357.4 356.1 407.2 364.4 432.0 351.4 455.9 311.4 485.3 314.0 505.4 237.5 502.9 240.7 491.3 173.1 459.5 164.8 423.5 160.3 414.2 142.8 374.2 146.2 334.5 165.6 328.3 174.2z"/>
        <path d="M 372.2 154.5 L  372.2 154.5 351.9 165.0 325.2 165.5 294.2 272.7 283.9 251.9 318.0 327.7 367.7 369.0 391.0 354.6 436.0 348.9 453.2 331.7 496.1 336.6 520.7 244.0 512.2 258.7 470.6 178.7 468.4 143.6 410.7 162.6z"/>
        <path d="M 522.2 237.2 L  522.2 237.2 514.4 241.8 473.8 169.6 422.4 165.2 381.6 147.1 329.1 174.7 294.3 245.7 303.4 236.6 342.2 342.3 370.8 354.4 428.2 349.3 468.0 340.3z"/>
        <path d="M 500.3 247.2 L  500.3 247.2 494.3 155.5 426.3 145.0 378.7 143.1 348.5 159.4 308.6 248.3 306.6 259.0 361.4 350.4 388.1 352.0 424.9 355.6 468.4 335.7 519.4 242.9z"/>
        <path d="M 401.5 369.5 L  401.5 369.5 448.1 371.8 478.9 340.9 503.0 340.6 541.3 259.6 515.6 252.4 514.0 178.9 466.5 145.1 469.7 158.8 434.0 144.5 397.0 142.6 366.2 163.0 342.4 170.8 303.1 249.5 308.2 248.0 333.6 330.9 352.4 346.7 379.2 363.3z"/>
        <path d="M 425.3 374.2 L  425.3 374.2 442.1 342.5 480.8 340.0 494.5 318.5 544.8 252.4 536.8 222.6 483.0 186.8 468.2 152.2 448.2 130.8 424.3 130.9 388.9 164.7 344.3 166.4 334.8 173.2 319.0 254.0 299.5 238.9 336.0 326.0 370.0 339.8 391.8 365.4z"/>
        <path d="M 398.6 363.1 L  398.6 363.1 443.7 355.7 453.5 353.3 491.0 351.8 495.8 336.0 552.1 247.2 551.2 256.3 495.1 176.3 479.3 157.1 456.3 128.0 437.2 133.8 425.1 138.6 385.0 141.1 360.2 167.6 348.4 175.6 317.4 238.5 311.7 248.2 337.5 309.3 345.0 333.8 385.7 360.7z"/>
        <path d="M 382.9 338.8 L  382.9 338.8 402.8 357.8 434.8 353.0 470.2 358.2 505.5 326.3 541.1 269.3 530.4 242.1 504.6 156.0 470.7 155.2 435.8 128.1 408.6 145.7 375.0 158.0 343.9 160.6 309.5 257.2 322.2 261.1 339.7 332.4z"/>
        <path d="M 542.3 250.5 L  542.3 250.5 541.6 260.1 524.9 176.1 487.7 147.1 465.7 150.9 448.3 129.8 407.7 124.7 384.0 142.0 365.4 156.3 334.0 166.9 285.1 254.6 303.1 239.7 344.0 330.2 353.2 350.0 392.2 345.4 427.6 379.1 440.4 358.2 447.7 354.7 482.0 348.6 497.8 318.6z"/>
        <path d="M 372.1 171.1 L  372.1 171.1 316.5 246.6 320.9 264.2 367.2 346.9 456.9 362.7 490.0 348.2 549.7 244.9 550.9 241.5 492.6 149.9 440.2 151.2z"/>
        <path d="M 410.6 127.0 L  410.6 127.0 362.4 160.3 307.5 251.4 316.1 257.2 365.9 339.3 389.4 352.6 450.8 361.0 470.4 367.1 514.7 338.1 570.1 232.6 536.6 240.1 503.3 157.7 466.4 139.6 431.0 140.0z"/>
        <path d="M 428.3 363.9 L  428.3 363.9 454.9 356.1 485.8 353.0 519.6 338.1 535.9 244.7 554.0 240.0 518.9 178.2 482.6 151.9 461.3 114.5 431.3 138.1 404.0 135.5 351.1 166.0 326.4 242.2 318.8 244.7 340.8 317.0 394.8 350.8z"/>
        <path d="M 554.8 231.8 L  554.8 231.8 542.7 258.8 504.8 148.9 472.3 114.7 435.2 130.2 360.9 146.4 321.3 260.2 346.3 254.0 363.1 348.4 409.8 362.2 471.7 346.7 500.4 332.1z"/>
        <path d="M 465.6 134.6 L  465.6 134.6 437.9 135.0 406.0 146.1 383.3 159.4 328.0 171.6 333.7 256.4 330.9 234.3 356.9 330.6 391.8 337.8 414.2 349.9 420.0 368.9 474.8 361.0 487.0 348.0 521.1 337.0 537.1 312.7 555.3 258.3 565.2 249.4 527.0 173.4 509.8 142.4 488.1 125.6z"/>
        <path d="M 473.2 139.3 L  473.2 139.3 435.3 128.9 407.4 126.2 393.2 143.2 346.6 168.7 308.3 252.9 335.0 261.3 372.6 317.7 389.0 341.7 413.8 360.4 452.9 370.0 465.3 366.7 508.5 348.6 535.5 329.6 565.9 271.9 551.1 244.3 540.2 175.0 516.5 142.8z"/>
        <path d="M 514.1 155.8 L  514.1 155.8 441.9 120.9 401.0 135.9 334.4 244.0 328.8 242.2 389.1 352.5 450.8 367.1 497.5 363.7 553.7 244.0 590.9 269.9z"/>
        <path d="M 491.8 355.6 L  491.8 355.6 524.8 338.8 570.8 245.0 568.7 253.8 529.3 150.6 495.8 131.8 448.5 129.1 420.2 150.2 381.7 150.0 325.1 260.7 362.0 240.1 365.2 335.6 401.3 361.4 434.5 343.1z"/>
        <path d="M 536.4 340.3 L  536.4 340.3 577.8 257.4 587.4 250.7 511.7 158.6 466.7 125.5 439.9 134.1 375.8 153.8 329.3 262.1 341.4 251.4 382.0 348.1 432.2 359.6 495.9 360.6z"/>
        <path d="M 401.3 347.9 L  401.3 347.9 441.0 367.7 485.3 379.5 502.1 348.7 548.1 336.2 585.2 250.3 594.1 261.6 535.1 162.6 496.4 130.3 476.9 139.4 437.4 131.6 419.3 125.8 370.3 160.7 341.9 251.0 333.8 255.5 361.3 324.5z"/>
        <path d="M 537.3 334.8 L  537.3 334.8 582.6 249.8 583.1 273.2 537.1 151.3 495.9 132.2 468.1 128.3 399.6 140.4 391.6 153.4 344.6 249.4 325.2 246.0 374.8 363.8 434.4 336.2 453.0 373.9 500.3 355.2z"/>
        <path d="M 412.2 151.3 L  412.2 151.3 340.3 242.4 350.7 243.9 402.5 345.2 477.5 369.1 514.9 356.4 602.5 239.9 586.1 245.0 505.5 143.7 461.6 135.3z"/>
        <path d="M 588.9 246.7 L  588.9 246.7 569.7 165.4 513.3 150.2 483.3 127.3 467.4 115.9 425.1 125.2 401.7 162.3 363.7 167.3 339.6 245.0 364.1 235.0 368.1 326.9 398.9 355.0 439.9 363.5 463.9 357.0 502.0 364.0 509.1 358.8 551.8 335.1 579.5 246.5z"/>
        <path d="M 594.9 245.4 L  594.9 245.4 578.7 237.9 530.0 159.9 515.5 132.3 478.8 130.3 426.8 130.0 387.1 191.8 337.4 250.2 334.9 258.1 386.3 342.4 420.8 375.0 454.8 365.3 508.3 339.1 554.6 345.9z"/>
        <path d="M 348.6 258.5 L  348.6 258.5 355.2 249.4 377.6 341.5 423.7 366.5 478.1 372.1 533.1 357.1 557.3 348.7 564.8 260.9 590.6 245.5 541.1 165.9 514.0 138.7 465.8 135.9 420.1 152.3 360.6 154.7z"/>
        <path d="M 372.6 335.2 L  372.6 335.2 409.0 346.5 448.1 380.5 493.3 381.9 514.8 364.7 550.9 345.0 605.1 255.0 586.9 250.1 557.0 144.4 535.6 145.3 490.5 121.9 444.2 126.2 418.9 151.9 385.9 153.6 342.6 271.6 341.2 245.1z"/>
        <path d="M 517.1 366.7 L  517.1 366.7 568.2 327.2 595.5 246.2 586.1 249.6 551.9 160.6 533.0 128.7 493.3 119.7 436.6 121.1 419.1 145.0 363.8 155.0 352.0 271.8 333.3 248.6 375.2 339.3 426.8 371.8 468.4 386.5 491.2 381.9z"/>
        <path d="M 620.0 248.5 L  620.0 248.5 597.3 242.1 533.2 143.8 470.7 110.5 418.5 138.3 353.7 240.2 358.7 247.9 415.9 359.8 489.1 401.8 531.0 354.6z"/>
        <path d="M 412.8 151.9 L  412.8 151.9 384.4 162.9 353.7 267.4 344.5 250.7 378.2 316.2 401.2 340.9 436.1 395.9 451.5 378.8 507.6 380.9 523.8 370.7 538.1 371.6 580.3 334.9 609.2 249.9 606.5 258.5 576.2 164.6 547.0 143.8 523.2 136.0 484.5 119.2 471.0 123.6 443.5 133.0z"/>
        <path d="M 392.4 146.7 L  392.4 146.7 365.3 269.1 339.2 259.3 383.7 349.0 451.2 360.8 499.8 398.7 524.4 383.2 558.6 334.9 626.0 239.0 601.0 253.2 551.0 153.9 513.4 123.4 479.9 112.0 440.7 155.5z"/>
        <path d="M 426.4 133.7 L  426.4 133.7 393.3 163.7 364.6 234.0 328.5 254.2 378.0 320.8 416.4 370.2 436.7 358.3 483.7 388.2 518.3 377.8 514.9 369.1 569.3 352.3 594.3 338.3 618.2 260.7 620.5 250.0 593.6 164.4 555.4 141.3 519.1 130.2 513.7 99.8 473.4 110.5 457.4 125.7z"/>
        <path d="M 509.9 107.6 L  509.9 107.6 468.5 107.8 457.4 122.8 397.0 142.9 375.5 160.5 353.5 271.5 347.6 259.3 374.1 334.7 402.2 365.8 455.6 357.0 465.0 401.6 503.2 390.5 531.7 391.6 568.2 351.3 591.5 324.5 635.4 233.6 632.4 231.4 583.6 153.4 549.4 150.8 529.2 135.9z"/>
        <path d="M 498.5 370.6 L  498.5 370.6 543.0 366.7 601.5 253.9 627.1 241.2 553.6 128.5 497.3 125.8 411.1 135.4 377.4 259.5 356.8 246.5 416.9 366.5z"/>
        <path d="M 471.8 106.7 L  471.8 106.7 422.1 147.8 346.2 252.8 353.5 254.0 397.3 367.5 464.7 375.1 544.1 377.5 567.5 340.4 624.7 250.8 628.6 241.7 591.1 159.2 527.9 109.5z"/>
        <path d="M 581.9 347.2 L  581.9 347.2 604.6 336.7 629.5 253.5 636.1 251.1 607.9 150.4 570.5 143.9 557.7 105.3 524.8 123.6 477.9 103.9 475.6 131.7 392.4 130.0 387.6 177.0 364.6 266.5 371.6 262.1 395.9 345.7 433.9 349.9 456.7 360.9 493.9 381.1 502.6 397.9 543.1 387.2z"/>
        <path d="M 450.2 373.4 L  450.2 373.4 527.5 391.3 576.1 356.9 640.7 254.4 630.9 252.2 583.0 128.9 499.7 122.5 438.7 130.0 366.1 268.2 376.7 246.7z"/>
        <path d="M 638.4 267.9 L  638.4 267.9 584.9 145.0 523.9 126.4 475.2 125.9 442.6 148.6 361.3 253.9 366.7 248.1 419.7 353.4 474.6 386.9 538.9 372.5 587.2 364.0 646.6 249.5z"/>
        <path d="M 430.6 378.3 L  430.6 378.3 475.4 380.7 513.2 391.1 542.4 379.9 593.1 387.1 618.4 330.0 641.3 249.2 629.0 246.8 615.6 142.1 584.5 138.5 529.4 111.3 507.8 124.1 467.6 113.8 450.2 128.7 405.1 149.9 377.1 240.2 363.4 241.7 384.6 346.5z"/>
        <path d="M 604.7 370.6 L  604.7 370.6 632.6 363.9 662.9 236.4 643.9 258.2 594.4 163.2 576.8 129.8 539.5 120.6 508.4 120.3 473.2 118.0 439.3 130.1 399.6 159.0 374.1 256.9 376.8 265.2 396.8 343.8 459.8 372.9 498.3 387.6 500.4 389.8 570.0 377.5z"/>
        <path d="M 587.7 140.5 L  587.7 140.5 539.0 123.1 512.9 147.8 452.5 115.9 412.7 163.3 385.0 236.7 388.0 235.8 424.0 341.0 447.6 376.2 503.9 384.2 535.1 408.8 590.9 348.1 625.2 348.0 657.0 246.1 674.9 273.3 619.1 130.5z"/>
        <path d="M 659.4 255.6 L  659.4 255.6 638.8 147.4 596.2 130.7 579.5 116.2 521.7 98.1 502.3 106.7 465.4 101.6 453.6 113.9 398.3 156.4 365.7 254.1 393.2 237.1 407.5 341.5 438.6 373.5 485.5 391.4 509.1 398.5 540.9 391.8 563.0 376.4 588.9 341.5 624.1 341.6 651.5 248.9z"/>
        <path d="M 648.1 239.6 L  648.1 239.6 682.3 261.6 623.0 139.3 560.0 109.0 505.8 118.2 464.9 105.3 420.0 135.7 370.4 254.0 376.1 249.2 441.3 364.1 466.8 382.9 518.0 410.4 586.0 374.0 614.6 359.9z"/>
        <path d="M 535.6 93.1 L  535.6 93.1 474.8 100.8 441.7 133.6 417.2 148.9 369.8 264.2 394.1 257.3 420.1 352.5 453.4 392.5 484.2 406.7 526.8 402.6 572.4 380.0 590.8 383.5 642.1 353.6 663.3 252.1 675.1 264.3 633.1 134.5 604.0 119.8 546.3 107.0z"/>
        <path d="M 477.5 109.8 L  477.5 109.8 430.2 151.1 375.1 250.1 391.0 270.6 415.9 356.1 468.6 392.1 505.0 404.3 552.7 388.8 580.2 398.3 657.7 344.5 665.6 241.5 694.8 259.6 636.8 157.7 596.2 83.4 550.3 98.7 504.1 100.6z"/>
        <path d="M 584.3 376.1 L  584.3 376.1 614.6 378.0 653.3 348.4 670.1 245.5 692.8 246.3 669.4 160.0 606.0 122.4 581.0 115.5 528.4 105.5 481.5 82.6 464.5 123.2 432.3 148.5 388.8 260.5 389.7 249.5 441.5 345.0 472.4 366.3 503.0 386.3 551.6 383.8z"/>
        <path d="M 519.0 397.5 L  519.0 397.5 565.4 393.5 625.6 369.6 683.3 250.8 687.5 242.2 635.7 119.6 573.9 97.5 500.7 101.3 437.5 112.8 403.6 249.3 375.3 239.0 441.8 348.5z"/>
        <path d="M 689.2 237.8 L  689.2 237.8 693.3 242.4 642.5 136.7 604.4 129.4 556.0 115.0 515.4 103.7 472.5 124.2 432.6 168.2 399.0 255.9 397.5 259.3 434.4 350.9 464.3 376.2 537.4 393.4 562.2 398.0 585.0 382.5 636.6 340.7z"/>
        <path d="M 642.7 157.4 L  642.7 157.4 593.8 111.0 534.2 124.9 500.1 91.6 442.1 155.2 400.6 261.6 406.2 259.9 432.2 375.7 492.9 397.2 547.1 404.2 583.2 390.4 632.6 369.0 698.1 234.9 701.7 258.8z"/>
        <path d="M 537.7 401.3 L  537.7 401.3 617.3 393.4 649.2 365.1 709.6 248.1 703.5 257.2 638.6 135.5 617.6 107.4 530.1 95.5 523.5 106.2 442.0 133.8 389.9 249.8 415.8 245.7 450.2 369.6 491.4 385.6z"/>
        <path d="M 703.8 240.6 L  703.8 240.6 667.7 138.0 628.2 117.6 591.9 106.8 579.5 91.1 537.1 90.9 501.2 134.1 478.6 119.6 429.1 159.4 411.6 224.8 388.2 247.6 427.6 320.7 468.9 380.3 503.2 384.4 534.0 392.8 561.3 391.5 591.5 386.8 633.8 382.0 670.2 335.6 697.9 248.6z"/>
        <path d="M 521.1 388.0 L  521.1 388.0 564.2 408.7 583.9 400.6 656.4 385.7 650.8 351.5 710.4 240.4 693.0 239.4 678.9 149.8 632.6 101.6 608.1 110.3 550.8 116.9 516.0 92.3 473.6 122.3 434.7 149.4 408.4 244.8 407.6 267.7 431.0 352.1 487.3 400.3z"/>
        <path d="M 454.7 168.7 L  454.7 168.7 403.5 235.5 408.1 237.8 448.7 348.1 475.7 381.3 520.4 395.1 559.5 421.0 597.2 376.5 649.3 387.4 679.0 331.2 701.9 241.4 720.6 233.8 682.1 140.3 617.3 105.6 599.2 115.6 578.5 108.7 521.6 95.1 476.7 97.1z"/>
        <path d="M 588.5 112.4 L  588.5 112.4 536.0 83.9 504.0 101.5 458.6 131.8 437.5 163.7 394.0 248.5 395.1 230.3 433.9 345.6 469.3 391.4 521.3 401.5 550.8 423.7 581.7 411.9 609.4 411.6 657.9 401.1 670.6 352.2 716.7 261.1 725.5 244.6 680.7 141.5 657.2 98.8 615.9 102.9z"/>
        <path d="M 507.5 411.2 L  507.5 411.2 554.9 405.1 621.8 392.8 667.9 363.0 735.9 222.6 735.9 249.9 676.9 148.0 631.6 103.8 565.9 82.4 512.6 96.0 470.8 117.5 403.2 241.7 414.2 244.1 472.0 371.4z"/>
        <path d="M 405.9 267.5 L  405.9 267.5 413.4 236.2 497.8 403.5 549.8 427.6 622.3 367.9 724.2 250.5 738.8 250.3 653.7 112.0 574.6 98.1 481.5 106.5z"/>
        <path d="M 505.1 391.2 L  505.1 391.2 601.5 415.2 638.8 373.1 725.3 257.7 738.8 229.1 659.7 109.3 558.0 79.1 488.6 99.4 398.9 272.9 420.9 245.6z"/>
        <path d="M 573.4 89.9 L  573.4 89.9 532.3 94.6 467.4 129.3 412.1 261.5 410.3 248.3 464.4 369.5 507.3 411.1 578.3 413.9 622.2 409.2 697.6 365.0 728.4 260.6 738.6 239.5 664.5 136.8 621.7 104.2z"/>
        <path d="M 509.0 397.4 L  509.0 397.4 578.6 437.1 637.2 409.5 674.7 362.5 736.6 252.9 725.3 261.5 690.7 121.5 637.8 82.6 575.5 65.4 536.5 88.0 455.5 126.5 410.1 262.2 430.7 251.3 463.2 352.8z"/>
        <path d="M 674.1 126.1 L  674.1 126.1 643.6 84.6 580.1 75.7 548.7 74.0 492.6 97.9 454.5 171.7 411.0 246.3 421.7 226.4 447.1 366.4 491.5 393.7 527.9 406.7 576.4 420.8 620.4 410.5 654.1 395.8 702.3 368.4 750.1 256.6 749.0 263.3 687.4 137.4z"/>
        <path d="M 491.7 356.5 L  491.7 356.5 541.8 413.4 612.1 394.7 678.8 389.2 750.2 255.6 744.1 249.2 686.7 123.5 615.2 98.4 564.6 91.2 490.2 110.6 411.0 256.9 406.8 242.1z"/>
        <path d="M 775.8 258.5 L  775.8 258.5 738.7 237.6 685.0 132.5 611.1 93.2 558.0 108.8 497.6 123.5 431.3 239.5 407.5 256.4 482.2 377.5 555.5 404.0 620.7 402.4 673.4 385.2z"/>
        <path d="M 767.1 236.6 L  767.1 236.6 735.3 243.7 709.5 134.6 658.9 109.3 573.1 83.5 545.5 101.4 483.6 136.9 409.5 241.0 434.8 260.3 477.2 364.2 532.8 408.3 608.5 425.4 660.3 387.1 718.8 389.5z"/>
        <path d="M 759.6 245.8 L  759.6 245.8 744.2 245.6 668.3 118.9 616.7 85.4 519.0 101.4 416.0 243.4 416.2 240.5 507.1 396.4 579.0 426.0 684.8 397.9z"/>
        <path d="M 504.6 112.1 L  504.6 112.1 463.9 129.9 413.1 243.0 428.8 247.3 477.5 357.9 516.5 375.1 544.4 403.9 576.6 441.6 609.9 411.4 667.1 406.9 688.5 384.0 723.0 367.7 770.5 246.0 765.9 252.4 734.0 131.9 677.7 101.5 636.5 93.2 628.7 76.6 567.3 85.1 537.6 71.8z"/>
        <path d="M 767.1 260.5 L  767.1 260.5 693.4 113.3 625.7 95.2 558.9 86.7 501.0 109.0 416.6 237.7 443.9 248.5 490.5 373.8 567.5 423.4 633.3 413.6 700.6 393.6 762.4 260.3z"/>
        <path d="M 446.9 236.8 L  446.9 236.8 432.6 256.4 511.0 385.4 584.6 415.3 690.6 407.8 761.9 260.4 766.2 255.1 660.9 115.0 624.9 105.7 516.5 112.4z"/>
        <path d="M 584.6 83.6 L  584.6 83.6 544.5 86.8 480.7 130.1 442.1 259.8 441.7 244.4 497.7 364.2 540.8 398.5 576.5 435.7 629.3 414.7 667.4 400.6 737.4 371.0 781.7 246.6 779.0 247.9 722.8 125.2 691.0 82.5 629.4 62.8z"/>
        <path d="M 445.4 246.7 L  445.4 246.7 435.2 252.9 487.9 376.8 555.0 411.9 608.3 404.2 682.2 419.8 736.7 368.8 785.3 251.0 784.9 249.3 743.2 124.0 680.3 93.9 602.0 83.5 573.0 87.2 485.1 134.4z"/>
        <path d="M 491.8 390.0 L  491.8 390.0 554.0 410.1 609.1 436.9 648.2 410.5 742.5 379.9 778.7 229.2 793.7 246.4 713.0 105.1 662.3 76.9 606.0 79.7 556.0 97.3 488.2 128.4 438.6 235.4 451.4 244.4z"/>
        <path d="M 741.4 128.1 L  741.4 128.1 716.4 91.1 655.3 84.7 619.6 72.3 579.7 97.9 516.5 92.0 478.7 131.5 441.4 232.3 428.7 239.9 478.7 365.5 526.0 410.3 571.3 426.1 617.5 418.8 626.2 412.4 693.4 409.0 755.8 365.1 783.5 260.3 794.8 235.9z"/>
        <path d="M 642.2 73.4 L  642.2 73.4 585.0 80.9 497.7 125.0 430.6 246.8 437.0 240.2 501.4 400.9 580.4 424.1 665.4 423.4 717.7 407.7 783.5 244.7 787.0 239.0 712.7 105.7z"/>
        <path d="M 609.9 428.7 L  609.9 428.7 736.2 390.1 789.0 254.5 794.7 261.1 699.2 107.3 617.0 98.2 530.1 100.6 443.5 243.4 416.3 264.3 526.0 388.6z"/>
        <path d="M 632.0 73.1 L  632.0 73.1 578.7 56.7 531.7 73.2 505.6 122.3 439.1 252.9 438.5 244.5 488.7 358.3 539.0 419.5 608.5 431.1 639.2 425.9 704.7 416.8 743.1 366.3 813.8 254.4 796.1 245.5 742.1 121.8 695.5 79.9z"/>
        <path d="M 614.4 436.4 L  614.4 436.4 645.0 413.0 688.2 430.9 725.8 396.7 762.2 357.2 790.0 264.1 803.2 238.5 768.7 147.6 713.1 103.0 688.9 90.2 648.1 48.6 612.1 60.0 576.6 95.4 532.7 91.4 486.7 144.5 435.3 242.0 445.2 241.0 472.5 362.4 519.4 391.7 578.4 410.5z"/>
        <path d="M 497.5 130.6 L  497.5 130.6 458.4 256.3 456.1 250.1 520.9 367.2 559.0 410.4 599.7 437.8 647.7 428.0 724.2 400.3 757.4 348.7 807.4 244.2 803.8 243.0 766.4 135.8 710.0 91.6 655.3 80.9 609.9 58.0 552.1 92.4z"/>
        <path d="M 764.6 98.3 L  764.6 98.3 688.1 84.0 635.2 72.0 578.8 103.5 507.4 120.8 461.7 263.7 430.7 258.0 518.1 383.0 562.2 414.2 633.2 438.6 696.0 422.3 760.9 379.6 795.4 243.6 811.5 250.6z"/>
        <path d="M 540.5 94.5 L  540.5 94.5 488.5 134.4 446.8 245.5 454.3 238.5 509.7 372.2 538.8 409.6 600.1 419.0 655.5 421.1 664.5 438.5 751.0 423.9 765.7 366.9 823.4 267.2 822.8 235.8 764.3 129.2 725.8 91.5 697.8 71.5 642.6 69.1 593.0 69.2z"/>
        <path d="M 768.6 103.3 L  768.6 103.3 658.8 76.1 597.6 78.5 513.3 91.4 452.1 245.7 450.8 240.8 537.7 392.0 617.2 433.1 673.7 418.5 742.1 382.4 817.3 243.7 818.0 228.4z"/>
        <path d="M 532.4 100.5 L  532.4 100.5 453.7 258.6 465.8 239.0 514.3 392.1 583.0 420.6 634.6 454.2 707.3 424.1 752.7 385.9 839.7 238.2 822.2 249.1 782.2 120.2 701.2 72.6 651.2 54.2 590.4 83.6z"/>
        <path d="M 838.0 244.6 L  838.0 244.6 787.9 132.8 744.6 111.5 694.3 84.4 654.8 64.4 623.6 83.4 586.0 63.1 532.1 77.0 512.5 141.3 471.4 253.2 477.7 244.0 494.9 356.9 561.3 412.7 572.3 424.7 628.1 427.9 683.3 427.3 719.5 448.5 746.3 404.8 789.7 351.8 847.9 244.8z"/>
        <path d="M 456.3 221.0 L  456.3 221.0 449.4 249.8 512.9 368.0 545.4 419.6 592.3 425.1 630.4 432.8 647.3 440.2 718.1 422.7 754.3 401.3 789.1 357.0 838.6 244.1 837.7 239.2 790.6 137.0 753.3 73.8 705.0 65.7 672.7 84.2 644.5 66.4 600.0 58.1 521.9 91.3 512.5 130.1z"/>
        <path d="M 657.8 462.1 L  657.8 462.1 727.4 435.9 774.1 377.2 847.5 272.3 838.1 265.7 780.6 96.9 722.7 85.0 634.4 58.5 591.2 65.5 529.6 103.8 458.9 253.3 475.2 255.9 532.8 394.9 598.2 420.8z"/>
        <path d="M 618.5 420.5 L  618.5 420.5 694.7 435.4 723.8 397.8 813.6 392.9 851.6 269.7 838.1 237.9 784.9 113.2 738.9 68.1 683.3 65.0 635.6 81.1 569.6 77.8 528.8 106.5 473.8 259.2 452.6 252.7 523.7 388.1 572.2 406.1z"/>
        <path d="M 564.4 400.5 L  564.4 400.5 600.9 420.7 643.4 453.8 660.2 437.1 718.3 431.0 765.1 380.2 809.7 374.3 830.1 253.5 857.3 255.7 797.7 130.4 785.5 112.3 723.2 85.0 684.0 58.8 634.3 56.2 592.6 69.5 544.6 109.3 494.8 110.0 456.4 241.9 460.7 248.4 517.6 354.6z"/>
        <path d="M 636.8 427.7 L  636.8 427.7 681.3 440.4 763.5 400.0 790.3 406.4 849.7 263.6 841.1 248.3 791.7 105.8 766.9 87.5 672.9 76.1 624.3 81.5 586.3 77.0 538.6 95.8 484.5 252.1 478.9 257.2 522.7 371.6 579.5 418.1z"/>
        <path d="M 594.8 76.1 L  594.8 76.1 539.1 126.5 476.0 246.6 469.2 231.1 525.9 387.7 608.5 455.1 666.2 444.9 727.6 428.0 798.7 393.6 858.5 250.3 853.3 234.4 785.9 110.4 716.9 63.0 667.2 49.3z"/>
        <path d="M 744.5 77.6 L  744.5 77.6 662.2 52.4 600.2 66.8 532.8 95.0 474.3 243.0 462.5 250.5 543.8 394.0 599.5 413.8 662.2 447.9 727.4 434.4 797.1 392.9 851.6 262.9 851.5 247.2 826.3 93.8z"/>
        <path d="M 688.2 55.8 L  688.2 55.8 653.3 50.4 587.8 69.1 526.3 117.3 496.2 242.9 477.1 255.6 532.3 377.8 585.3 419.8 633.0 438.8 692.1 449.6 762.4 422.4 799.4 387.4 870.5 244.5 859.2 249.7 794.8 133.9 746.7 79.9z"/>
        <path d="M 777.1 69.3 L  777.1 69.3 666.1 67.5 595.8 78.0 475.6 248.8 482.7 256.2 573.8 423.1 671.3 464.0 775.9 410.8 883.8 264.8 857.0 222.7z"/>
        <path d="M 757.1 61.6 L  757.1 61.6 689.8 45.3 651.8 53.8 608.5 68.8 566.3 75.2 514.3 150.9 477.5 260.0 471.2 256.3 515.1 365.3 560.7 395.3 614.2 441.4 639.2 449.3 689.3 444.9 739.0 434.3 793.3 420.8 829.4 373.5 883.8 252.8 866.1 268.8 819.0 113.6 787.5 88.4z"/>
        <path d="M 703.1 73.5 L  703.1 73.5 634.8 49.3 547.3 104.7 471.3 254.7 462.1 265.6 555.9 389.9 623.8 443.1 723.3 442.1 782.8 423.8 874.0 242.2 878.0 265.9 786.4 89.8z"/>
        <path d="M 777.6 75.7 L  777.6 75.7 755.0 72.8 703.6 66.6 682.2 49.2 603.4 59.9 566.9 81.5 523.5 126.0 478.8 244.9 481.5 231.8 518.7 374.4 568.4 390.9 599.2 429.3 659.8 459.3 704.4 461.0 740.9 436.7 806.6 419.0 818.0 375.9 852.1 246.3 879.0 242.8 834.8 113.3z"/>
        <path d="M 534.2 104.5 L  534.2 104.5 507.2 248.5 491.1 257.5 568.6 397.6 625.1 416.6 690.0 443.3 745.5 437.6 834.4 398.6 886.2 252.3 895.3 241.6 813.1 82.9 753.0 45.7 679.6 57.4 617.0 76.7z"/>
        <path d="M 649.2 51.5 L  649.2 51.5 574.6 76.8 494.1 231.7 491.5 248.1 565.8 413.6 666.2 442.4 729.1 468.8 808.7 423.8 885.4 280.6 888.8 265.9 820.2 99.2 732.7 51.2z"/>
        <path d="M 679.2 457.8 L  679.2 457.8 788.0 415.9 878.2 263.0 886.5 244.8 780.1 72.2 681.2 46.7 601.5 64.2 479.4 243.0 475.1 245.3 591.4 409.1z"/>
        <path d="M 655.4 443.4 L  655.4 443.4 717.1 453.5 768.5 447.3 796.0 405.7 841.7 358.7 896.6 252.1 874.2 261.3 843.4 122.9 786.0 76.1 742.2 77.2 717.8 61.2 669.6 43.8 621.5 71.5 575.7 74.1 512.0 138.8 496.6 257.7 489.0 248.1 542.7 375.1 558.1 413.5 624.6 436.4z"/>
        <path d="M 886.6 265.6 L  886.6 265.6 866.6 136.2 815.2 75.5 766.1 46.8 714.1 41.2 665.3 38.1 640.1 55.1 589.8 73.3 516.4 128.0 492.3 240.7 503.2 254.2 544.9 389.5 599.3 418.9 626.6 434.9 673.1 455.3 729.0 441.0 776.7 439.4 799.4 421.2 849.0 378.6 911.3 254.8z"/>
        <path d="M 834.5 400.7 L  834.5 400.7 888.8 237.3 908.5 261.5 804.7 80.9 761.8 47.8 652.9 62.7 555.2 79.9 501.3 275.6 502.7 246.7 571.6 405.6 659.6 454.0 728.2 448.1z"/>
    </g> 
</svg>