<?xml version="1.0" encoding="UTF-8" standalone="no"?>
<svg width="200" height="200" version="1.1" xmlns="http://www.w3.org/2000/svg">
    <g opacity="1.0">
        <path d="M 5.6 4.0 L  5.6 4.0 4.4 5.1 6.3 3.9 5.3 3.6 5.2 4.2 3.6 5.6 5.7 4.2 5.7 4.0 5.6 5.3 6.6 4.7 5.1 5.3 7.3 3.1 4.8 6.3 4.9 4.7 6.7 5.3 8.7 5.7 7.7 3.8 8.3 4.5 7.7 5.2 7.0 7.0 5.6 3.7 8.9 6.5 5.5 5.4 7.7 5.1 6.8 4.1 5.9 4.9 6.1 6.1 8.9 5.7 5.8 4.9 8.8 5.6 6.6 6.5 5.9 4.9 7.8 4.7 6.0 5.9 7.4 5.8 5.9 6.9 6.7 8.1 7.0 8.5 8.3 8.3 6.3 7.1 8.4 8.5 7.2 8.0 6.8 7.2 7.1 7.7 7.1 5.5 8.0 7.1 5.1 8.1 7.9 7.8 5.8 7.4 7.2 7.0 5.6 6.5 6.6 7.9 6.7 6.5 4.8 6.9 5.4 7.2 6.8 7.1 5.1 6.7 6.5 8.6 5.1 9.7 5.8 6.8 5.5 7.9 4.3 6.0 6.1 6.2 4.6 7.3 4.8 7.0 6.0 7.3 3.7 4.7 3.6 5.2 4.8 6.5 3.0 5.6 4.0 5.5 5.2 5.3 3.7 5.4 3.1 5.1 5.7 4.4 5.8 5.8 4.3 5.0 4.8 5.2 6.3 4.9 5.6 4.9z" stroke="#0B6715" stroke-width="1" fill="transparent" />
        <path d="M 3.9 4.9 L  3.9 4.9 4.9 6.8 5.2 2.8 6.2 5.8 4.5 5.3 6.1 4.2 6.9 5.5 5.4 6.3 6.8 4.4 6.0 5.5 7.5 4.0 5.9 4.6 5.7 5.5 5.5 4.6 9.4 4.4 8.1 5.4 7.1 4.6 9.0 4.8 8.6 4.5 10.0 6.4 7.9 4.3 8.2 5.4 8.4 4.0 7.7 4.8 9.0 5.5 9.3 6.5 7.5 6.2 7.3 6.4 7.8 6.5 7.9 5.8 8.0 7.5 6.6 8.3 8.3 6.9 9.9 7.3 8.7 7.9 8.8 7.3 10.1 7.7 7.7 7.9 8.1 9.2 8.7 9.9 8.0 6.4 8.3 9.4 7.1 8.3 8.3 9.5 8.4 8.9 7.5 7.9 9.5 9.2 6.8 6.8 5.5 9.3 6.0 8.1 8.7 7.9 6.8 7.3 6.7 8.4 6.8 8.3 7.2 7.7 5.5 11.0 4.1 8.5 5.2 7.4 4.7 7.8 3.1 7.3 5.0 8.7 5.6 7.9 4.5 6.6 6.5 7.9 7.3 8.7 3.7 7.2 5.1 7.5 4.5 6.2 3.8 8.6 6.6 6.7 5.7 6.3 5.4 6.1 5.0 6.3 6.5 5.0 4.5 6.5 4.6 5.9 4.6 5.6 4.7 6.4 2.9 4.7 4.3 5.0z" stroke="#66C57D" stroke-width="1" fill="transparent" />
        <path d="M 5.9 3.3 L  5.9 3.3 6.1 5.6 4.8 5.4 6.4 4.6 5.7 4.2 7.7 4.4 7.6 4.8 6.8 4.3 8.1 4.9 8.3 5.0 8.5 4.9 8.7 4.8 8.8 5.8 10.6 6.1 9.3 3.9 10.8 3.5 11.6 4.5 11.2 4.5 11.7 4.9 10.0 4.1 13.2 5.4 11.2 3.3 14.2 6.6 11.9 7.4 12.8 7.4 11.1 8.4 11.4 6.3 12.3 6.8 12.0 6.8 12.4 6.2 13.0 7.5 11.8 10.1 13.8 9.6 11.8 8.9 12.6 10.0 10.6 10.0 11.8 10.6 12.9 10.9 12.7 12.1 12.0 12.0 12.1 13.3 12.3 11.3 11.3 10.5 10.6 11.4 12.1 12.7 8.3 11.9 11.3 11.8 9.4 10.7 8.8 12.6 9.4 11.3 8.4 11.9 7.3 10.2 7.2 12.3 9.3 11.6 8.2 11.9 5.3 11.5 4.7 13.9 5.0 10.9 3.7 13.0 3.6 13.6 5.1 12.9 4.4 13.0 4.8 10.8 5.0 10.4 3.8 10.5 4.7 8.7 6.3 9.2 5.1 8.5 5.9 8.7 6.4 10.0 4.3 9.6 4.7 8.4 4.4 6.0 6.1 7.0 4.3 5.7 3.8 6.2 5.7 4.9 5.3 4.2 4.3 5.6 6.1 5.0z" stroke="#6D843F" stroke-width="1" fill="transparent" />
        <path d="M 6.5 3.8 L  6.5 3.8 5.4 5.9 6.6 2.6 7.0 7.4 8.8 2.6 7.7 4.0 8.5 5.4 7.8 5.7 7.7 4.9 10.7 3.3 10.2 3.3 11.0 5.2 11.0 4.5 10.4 5.1 12.3 3.5 13.5 5.8 14.3 5.1 12.9 5.0 13.0 6.3 16.3 4.7 14.9 6.2 14.0 5.5 16.0 6.9 15.4 8.1 14.9 8.7 14.8 6.6 16.6 7.5 15.8 8.3 17.2 9.1 14.5 10.3 16.0 10.4 15.9 11.2 14.1 11.7 15.0 12.8 13.9 11.7 17.2 13.7 15.7 13.7 14.6 13.8 14.7 15.6 16.3 15.3 16.6 16.0 15.5 15.7 15.2 16.0 13.6 17.0 12.8 16.9 12.2 14.2 11.8 16.0 10.8 16.9 10.1 16.0 10.6 15.2 10.1 13.3 11.7 14.1 8.8 15.2 8.3 15.1 7.5 15.5 6.5 14.2 7.2 15.1 7.2 14.6 6.8 14.4 6.9 13.3 4.1 15.0 5.3 16.7 6.6 13.9 4.2 14.1 5.5 14.8 3.4 13.1 5.0 13.7 3.7 11.9 5.4 12.1 5.1 10.1 5.8 11.3 3.9 9.0 3.6 11.0 5.9 8.1 4.7 7.5 3.5 7.6 4.4 6.7 4.8 5.0 4.9 6.3 6.4 6.1z" stroke="#6D03A7" stroke-width="1" fill="transparent" />
        <path d="M 5.0 3.9 L  5.0 3.9 5.0 3.1 5.8 5.1 8.2 4.2 7.0 5.1 6.8 3.5 7.8 4.2 7.9 4.5 7.5 4.2 10.8 5.3 11.3 4.4 12.5 4.3 13.2 5.7 13.7 4.0 13.8 3.8 13.8 2.8 13.7 5.1 15.1 5.8 15.8 5.4 16.4 4.3 13.6 2.9 15.9 4.0 16.1 7.1 16.1 5.6 17.5 6.4 16.9 7.5 17.5 8.2 16.8 8.4 15.8 10.4 14.5 11.1 14.4 11.2 15.5 11.1 15.1 12.7 15.3 13.1 16.2 14.4 15.3 14.5 18.6 14.3 17.3 14.4 16.3 16.2 16.5 16.0 16.0 16.5 18.3 15.9 15.5 15.3 13.0 15.6 13.2 14.7 14.8 14.9 12.8 12.7 12.6 15.3 10.9 16.9 9.5 16.8 9.7 15.9 11.3 16.6 8.6 16.1 8.3 15.4 9.0 16.2 8.5 16.6 5.2 14.3 6.9 15.3 3.8 16.4 7.1 16.1 4.3 17.2 4.3 15.3 4.7 16.6 4.9 14.1 5.8 12.9 5.0 14.5 4.0 12.3 5.7 12.6 6.2 11.1 5.9 11.9 4.2 10.6 7.1 8.3 5.4 7.7 4.5 8.1 4.7 8.2 5.5 6.7 3.3 6.3 4.5 5.4 2.7 5.8 5.2 4.9z" stroke="#6B2A39" stroke-width="1" fill="transparent" />
        <path d="M 5.7 5.2 L  5.7 5.2 6.0 6.2 7.3 2.9 8.5 5.8 8.2 5.6 9.3 6.0 8.8 5.0 9.7 5.4 9.2 6.8 11.5 7.2 12.6 5.5 14.7 4.6 15.5 5.0 15.5 5.2 15.7 5.7 15.9 5.1 19.2 5.7 18.8 6.2 18.3 4.5 21.2 4.3 19.8 5.1 19.7 3.4 18.8 6.0 19.0 7.0 21.3 8.1 20.5 9.8 18.8 9.9 19.2 9.2 18.6 11.7 21.9 12.5 20.1 13.5 20.1 11.8 18.2 15.4 20.4 15.0 20.3 16.4 19.8 15.9 18.4 18.1 20.5 17.6 19.8 19.0 20.5 19.9 21.0 19.9 19.0 19.7 17.0 19.2 18.3 18.2 16.0 19.5 16.1 18.7 14.6 19.8 14.2 20.1 14.3 17.4 14.3 18.5 13.5 20.0 12.0 19.1 9.0 20.9 8.7 20.6 8.6 18.0 8.2 18.7 8.4 20.4 6.4 19.3 6.3 20.1 3.6 19.1 3.7 19.3 5.5 18.0 3.9 18.0 5.7 16.3 3.4 16.3 6.3 14.9 4.5 15.2 6.6 13.6 7.3 11.6 3.7 12.6 4.8 11.1 4.5 12.0 7.0 9.5 4.1 11.1 4.7 8.7 4.2 8.0 4.6 7.0 4.6 7.5 5.4 7.5 5.1 6.5z" stroke="#C5268B" stroke-width="1" fill="transparent" />
        <path d="M 4.4 5.1 L  4.4 5.1 5.7 5.8 7.3 4.9 8.3 4.8 9.6 6.7 9.2 5.6 10.7 5.9 11.2 5.1 12.6 3.9 15.9 4.7 12.4 5.0 16.1 4.2 16.5 6.0 20.2 5.7 16.6 6.2 20.4 3.2 18.3 6.4 21.1 3.8 20.9 5.2 22.8 5.9 21.4 5.0 21.5 5.7 24.2 6.4 23.2 8.4 23.9 9.8 22.9 9.7 21.8 10.4 23.9 13.4 23.9 10.6 23.4 13.1 23.4 15.0 23.1 15.1 22.3 14.0 21.5 17.5 24.7 18.9 23.4 18.4 22.3 19.8 22.6 21.4 23.1 22.6 22.6 23.7 21.6 23.1 23.5 24.2 21.2 23.2 19.4 22.1 18.6 23.6 17.9 23.5 17.3 24.1 15.9 23.1 14.7 21.8 14.1 21.9 13.7 23.0 13.1 24.4 11.9 21.9 9.9 21.7 10.9 22.0 8.5 24.4 8.4 24.0 6.1 20.8 5.5 21.2 5.1 23.2 5.0 22.3 3.4 22.7 6.1 23.0 4.7 20.3 5.2 17.3 4.4 17.6 5.5 17.9 4.3 16.1 4.2 14.9 5.3 15.1 5.4 12.3 5.7 12.3 4.1 11.8 3.4 11.5 8.1 8.4 3.3 8.7 4.7 8.5 6.2 6.6 6.0 7.1 5.2 4.9z" stroke="#B21EFE" stroke-width="1" fill="transparent" />
        <path d="M 5.7 4.8 L  5.7 4.8 7.2 5.6 6.5 5.4 8.3 6.1 9.6 5.9 13.4 6.3 9.7 3.9 12.6 5.6 13.4 4.9 15.4 4.1 17.1 4.5 17.1 5.0 18.6 3.5 19.4 5.0 21.4 7.0 22.5 5.0 24.1 7.0 24.4 5.3 24.1 6.0 24.3 5.4 28.6 5.5 24.9 5.3 26.3 6.1 24.4 8.7 25.1 7.9 25.5 8.2 25.8 12.8 24.2 12.8 25.8 12.3 24.8 14.7 25.9 16.5 26.3 18.5 27.2 19.0 26.1 18.8 25.6 20.1 25.8 21.9 24.5 22.7 25.5 23.0 26.6 23.1 25.5 24.3 26.2 24.9 25.8 25.6 24.0 25.5 23.4 26.3 22.2 26.2 19.5 24.0 20.5 27.3 18.5 25.8 17.2 24.9 16.1 25.8 15.0 25.8 13.5 26.1 13.1 25.7 8.8 24.7 9.8 25.4 9.7 26.7 8.0 25.8 7.3 27.3 7.2 26.5 4.1 26.3 3.5 24.6 5.1 26.3 5.5 24.8 5.4 22.5 4.3 21.3 5.8 20.6 4.8 19.4 5.1 18.1 5.1 16.0 4.5 15.8 4.2 13.3 4.7 12.3 4.3 12.7 5.9 10.6 4.7 10.8 4.5 9.6 6.9 7.8 3.8 6.5 5.3 5.3 5.3 5.5z" stroke="#BC26C8" stroke-width="1" fill="transparent" />
        <path d="M 5.0 7.0 L  5.0 7.0 6.6 5.6 6.4 3.5 10.6 3.9 10.2 5.7 11.7 5.3 11.4 4.4 11.6 4.3 13.3 3.9 17.1 6.3 17.6 5.1 19.0 4.7 19.2 5.2 20.3 3.3 21.6 3.4 23.0 4.7 25.0 2.8 24.5 5.0 29.2 4.6 26.3 4.6 27.3 6.0 27.9 7.6 28.7 7.3 28.9 10.1 27.2 7.8 26.7 12.4 28.2 12.7 29.0 13.0 27.2 15.1 27.6 15.8 27.4 18.0 28.4 17.3 28.5 19.9 28.1 19.0 27.2 22.6 28.5 23.2 28.8 25.5 28.4 24.2 28.3 27.2 28.5 29.2 27.6 29.8 25.7 27.9 24.4 25.6 24.3 29.6 22.3 28.5 21.4 27.2 21.1 29.5 19.6 29.1 18.0 27.5 15.5 29.5 14.9 28.7 15.3 26.5 13.1 27.5 12.7 27.0 10.6 29.1 9.0 27.1 8.6 29.6 8.2 28.6 6.9 26.6 4.9 29.0 4.5 28.7 5.2 25.7 4.7 26.6 3.5 25.2 3.6 24.6 6.2 21.1 4.4 21.8 5.3 18.6 6.4 18.8 4.9 16.1 5.8 15.2 4.2 15.1 3.5 12.5 4.3 12.0 3.8 9.7 4.8 11.3 4.6 8.1 4.8 7.2 5.3 7.7 4.3 3.9z" stroke="#9DAED8" stroke-width="1" fill="transparent" />
        <path d="M 4.2 6.2 L  4.2 6.2 6.1 3.1 7.7 6.0 9.3 5.1 10.5 3.9 12.8 5.8 12.1 5.7 14.8 4.4 14.1 6.1 17.2 8.3 19.8 4.5 19.8 5.4 20.0 5.7 22.8 6.6 25.4 5.9 26.2 4.7 26.3 3.6 27.4 5.2 30.2 5.3 30.2 7.5 32.1 4.6 31.1 6.0 31.7 7.1 33.1 10.7 28.9 9.6 30.0 12.2 29.7 11.0 30.6 14.5 29.7 14.9 30.5 17.1 30.1 21.1 28.7 19.4 32.0 19.9 31.0 22.1 29.9 23.3 29.7 26.0 29.8 28.0 30.8 28.8 30.7 30.4 32.3 29.1 32.4 32.0 30.1 32.5 27.8 30.8 26.8 31.9 24.7 30.6 24.0 31.1 22.7 29.7 21.5 30.4 20.0 30.6 17.8 31.4 16.4 30.6 16.8 31.7 13.9 30.6 13.4 31.6 11.2 30.9 11.0 30.0 8.8 30.8 7.2 31.3 5.7 31.5 4.2 29.5 6.0 31.2 3.9 30.4 4.5 29.4 5.4 26.1 4.3 25.9 5.2 23.6 5.1 22.6 6.1 22.5 4.6 19.6 3.8 19.8 5.1 17.6 4.7 16.2 4.0 13.5 3.2 13.3 4.7 12.1 4.4 11.4 5.3 10.2 5.1 7.3 3.5 7.3 4.3 4.9z" stroke="#97256C" stroke-width="1" fill="transparent" />
        <path d="M 5.6 5.3 L  5.6 5.3 7.2 5.3 7.4 7.2 9.8 6.2 11.3 5.0 13.1 7.8 14.2 3.8 16.2 5.9 18.8 4.6 19.4 5.2 20.7 5.6 21.7 3.2 22.9 4.2 24.5 5.2 26.7 6.3 27.1 5.2 28.7 5.0 29.6 4.1 29.3 4.4 35.2 6.6 34.3 5.8 34.1 5.8 34.2 9.2 34.4 7.3 34.7 10.4 34.4 13.4 34.1 13.0 34.3 15.7 34.5 17.4 33.8 21.0 33.0 20.2 33.4 19.2 33.3 22.1 34.1 26.8 33.9 24.9 34.0 26.0 33.1 29.1 33.4 30.3 35.8 31.1 33.2 33.2 35.1 32.7 32.8 33.8 30.4 34.3 28.8 33.9 28.8 34.4 26.3 33.4 26.0 32.7 23.0 34.9 22.0 32.5 21.5 31.3 18.5 33.9 14.7 33.8 15.0 32.4 14.1 34.4 14.0 34.3 10.6 33.7 11.6 33.2 8.8 34.5 6.1 32.6 7.6 34.8 5.3 33.2 4.9 31.3 4.3 30.8 5.8 29.8 4.2 26.7 4.9 26.9 7.2 26.0 5.0 24.0 3.8 21.0 4.6 21.8 4.8 18.9 5.1 16.1 5.4 15.4 4.7 15.4 5.7 12.0 4.5 10.0 4.8 9.0 5.0 8.6 5.5 6.2 4.0 4.8z" stroke="#03C474" stroke-width="1" fill="transparent" />
        <path d="M 5.2 6.6 L  5.2 6.6 5.8 4.7 8.5 5.3 9.8 3.3 12.2 6.1 14.2 4.0 14.7 3.4 16.2 4.9 18.5 6.2 18.6 6.0 20.5 4.8 21.6 5.5 22.1 4.1 23.9 4.3 26.3 5.3 26.1 6.4 30.3 6.0 32.7 4.8 33.3 3.2 34.9 6.3 34.4 4.3 34.6 7.1 34.5 8.5 35.2 9.8 35.2 10.9 34.2 12.8 33.9 13.7 34.5 14.9 34.8 16.9 34.7 18.7 34.5 20.5 35.9 20.9 35.6 24.7 35.2 25.1 33.0 26.1 34.7 26.1 35.2 29.3 34.8 30.8 34.6 32.9 36.6 35.5 35.3 33.5 32.5 33.2 32.0 33.5 29.7 34.7 28.2 34.8 26.7 34.2 24.5 34.4 24.0 34.9 21.8 36.0 21.0 34.1 17.2 32.9 18.2 33.4 16.4 34.0 13.7 33.4 13.8 34.7 9.6 36.2 7.3 33.9 6.0 34.3 6.4 34.7 6.3 34.4 6.1 34.3 4.5 32.1 5.4 30.7 6.4 30.3 2.1 29.1 3.3 26.1 3.3 26.8 7.7 23.9 4.9 20.6 3.9 19.5 5.1 19.5 5.1 16.9 5.5 16.9 2.7 15.5 6.4 12.9 5.1 9.2 5.8 10.7 5.0 7.5 4.6 4.9 4.6 6.1z" stroke="#E23222" stroke-width="1" fill="transparent" />
        <path d="M 3.7 3.9 L  3.7 3.9 6.5 4.5 10.0 4.7 10.9 5.0 12.3 4.2 14.5 3.2 16.0 6.0 16.3 6.6 18.1 5.6 18.6 4.9 20.2 4.4 22.8 3.9 23.6 4.9 26.9 6.2 27.7 3.5 29.8 6.9 29.4 5.0 32.3 4.5 35.2 5.6 35.9 6.0 35.1 4.9 36.0 6.5 35.8 7.7 35.7 11.4 36.0 12.9 37.4 13.0 34.7 14.6 33.8 17.0 37.6 19.0 35.6 20.0 33.6 20.2 37.5 23.3 36.6 23.1 35.8 26.2 36.9 27.0 35.5 30.1 36.0 30.9 36.4 32.6 36.6 33.1 37.3 37.5 36.6 36.7 35.4 36.0 34.1 35.1 30.7 36.7 31.6 36.3 28.9 36.4 26.1 37.4 23.7 35.8 23.8 35.0 21.9 36.5 20.0 36.4 17.0 35.3 15.8 36.8 14.2 37.0 13.3 35.9 9.2 36.3 9.7 36.9 10.2 34.4 8.0 35.8 5.5 35.4 4.9 36.7 4.4 34.4 6.4 32.0 4.0 32.7 3.1 29.4 3.0 25.9 5.7 25.9 5.8 23.6 6.0 22.3 3.1 22.2 4.6 20.6 5.4 16.4 3.7 17.1 4.5 13.2 3.3 11.3 3.5 10.3 5.0 10.3 5.1 10.3 4.0 5.5 5.4 3.2z" stroke="#6F6EDC" stroke-width="1" fill="transparent" />
        <path d="M 5.1 3.6 L  5.1 3.6 5.9 4.1 8.5 5.6 10.8 4.5 12.0 6.5 16.0 4.4 14.3 5.7 18.6 4.1 19.0 4.5 23.1 5.1 21.1 6.2 25.5 5.5 28.6 3.5 30.1 6.5 32.1 4.6 32.0 5.2 32.7 4.0 36.1 3.3 38.0 4.0 40.5 5.7 41.1 3.7 42.4 6.6 40.5 8.9 39.9 10.2 39.3 12.8 41.2 15.2 40.0 16.7 40.4 18.3 41.0 21.7 39.4 22.2 38.8 23.9 40.8 26.0 39.0 28.4 38.9 30.3 41.2 31.2 42.0 31.9 41.0 34.3 41.1 36.4 40.6 39.6 38.9 42.1 39.3 38.8 38.4 38.6 38.1 40.2 34.5 38.2 32.0 40.5 31.0 40.8 29.4 39.3 27.1 38.6 24.1 42.1 24.9 40.2 20.6 38.7 18.8 39.8 17.1 40.6 14.2 41.1 15.4 41.6 12.0 41.0 9.3 40.8 10.4 40.0 6.5 38.9 4.0 39.9 6.4 39.1 4.1 38.4 4.2 37.0 2.4 34.8 5.9 33.2 5.3 29.4 5.4 29.1 4.0 28.0 4.3 26.0 5.1 24.3 5.9 20.6 6.6 20.4 4.7 17.5 5.8 15.4 4.6 14.8 3.6 9.8 6.3 8.7 5.0 10.6 5.7 6.0 6.0 3.9z" stroke="#587C5E" stroke-width="1" fill="transparent" />
        <path d="M 5.8 6.1 L  5.8 6.1 7.4 4.6 10.3 3.7 9.7 4.4 12.7 4.5 16.2 4.9 16.7 5.5 18.4 4.1 21.7 5.8 22.8 4.2 24.7 6.1 28.1 5.0 31.0 4.4 31.0 4.8 34.5 4.1 33.3 6.4 37.4 5.4 40.1 6.2 40.9 6.0 42.9 4.6 41.8 6.9 42.7 8.5 42.8 9.3 43.9 11.6 43.7 13.0 42.4 14.5 44.3 17.3 44.1 20.5 42.1 18.8 44.7 22.0 43.0 25.0 43.2 27.1 42.8 26.4 44.2 30.7 42.0 33.2 43.7 35.5 42.8 36.3 41.9 38.6 43.1 42.0 43.5 43.6 42.3 43.1 41.8 44.2 40.3 44.0 36.0 40.8 34.2 43.0 31.4 41.5 31.4 43.5 30.4 41.8 25.9 42.8 24.4 42.7 24.2 43.3 18.6 41.1 20.8 44.1 17.3 44.0 14.5 42.8 12.9 42.3 10.1 41.4 9.2 42.7 7.5 43.9 3.0 42.1 5.4 43.4 5.1 42.1 6.0 40.7 3.1 37.4 4.9 34.7 4.3 31.6 4.0 29.6 5.1 26.5 6.0 27.3 6.2 24.2 5.2 23.3 5.7 22.9 4.2 17.7 5.4 16.9 5.9 16.0 6.0 12.7 5.4 11.2 6.3 7.2 3.9 8.7 6.0 4.8z" stroke="#90CF7F" stroke-width="1" fill="transparent" />
        <path d="M 4.4 6.2 L  4.4 6.2 8.0 6.3 9.1 6.1 10.7 5.3 10.9 5.2 15.9 6.2 17.3 5.5 19.1 3.6 22.0 4.0 24.0 5.9 26.6 4.3 28.8 6.6 30.3 6.8 32.1 5.4 34.8 5.2 35.9 4.7 38.7 5.0 42.2 3.8 41.4 5.8 45.1 3.8 45.8 5.1 47.1 7.6 45.3 8.0 46.3 11.1 44.4 14.3 46.0 15.6 47.2 17.9 45.5 20.5 45.5 21.9 43.7 21.7 44.7 26.6 46.7 28.9 44.2 31.4 46.2 31.6 46.0 33.8 45.8 34.3 44.3 39.2 46.2 41.9 44.1 43.0 47.9 45.7 44.9 43.2 42.8 45.1 43.5 45.4 41.7 46.5 34.9 45.0 34.6 45.7 32.5 45.1 29.7 45.0 29.1 46.3 27.6 44.9 24.4 44.7 21.9 46.2 19.5 45.8 16.0 45.2 16.8 45.8 12.6 45.5 10.8 45.8 8.7 44.4 7.6 45.3 5.4 45.8 6.6 43.3 5.8 43.1 3.3 40.0 5.2 38.1 4.7 35.1 6.5 35.7 6.5 31.3 5.3 31.2 4.1 28.0 3.8 24.9 6.2 23.8 4.7 22.5 4.7 20.1 2.2 15.8 5.9 15.0 3.9 14.1 5.9 11.4 5.6 9.6 4.5 6.3 5.4 4.8z" stroke="#420727" stroke-width="1" fill="transparent" />
        <path d="M 6.1 5.0 L  6.1 5.0 7.5 5.7 9.2 5.3 11.8 6.2 13.1 6.6 16.6 4.5 17.9 6.0 21.2 5.8 22.3 5.0 27.3 4.9 30.2 5.3 30.7 5.0 33.4 4.6 34.9 5.8 36.1 3.4 41.9 5.1 40.6 3.1 45.9 4.2 45.5 5.0 49.0 4.5 51.7 3.5 49.2 7.4 51.3 10.9 49.9 12.5 50.4 15.0 48.8 16.6 50.0 19.3 48.8 22.1 50.2 23.1 48.7 26.6 47.8 29.6 48.7 33.5 48.6 34.0 50.9 36.5 49.4 36.1 47.3 39.3 50.3 44.5 48.1 44.3 48.8 45.2 47.3 50.0 50.6 51.8 47.6 49.8 44.0 50.3 41.5 48.4 39.9 47.8 37.0 49.2 35.1 48.7 36.3 50.3 31.4 47.7 27.3 50.4 26.3 49.1 24.5 49.3 20.2 48.3 19.7 48.4 17.7 49.0 12.5 49.2 12.8 48.0 10.4 48.0 6.7 48.8 5.7 49.2 6.9 48.9 6.0 46.3 5.2 43.6 3.9 43.3 5.1 41.0 5.2 39.1 4.7 35.9 5.1 32.2 4.1 32.1 4.5 26.4 6.5 26.4 5.7 22.8 4.1 20.6 4.8 19.9 4.3 16.6 5.7 15.1 5.9 10.1 4.8 9.7 3.2 7.8 5.4 5.0z" stroke="#C4A803" stroke-width="1" fill="transparent" />
        <path d="M 5.3 4.5 L  5.3 4.5 6.4 5.3 11.4 5.3 12.4 5.7 14.0 4.7 13.6 6.4 18.7 6.7 21.0 7.0 24.8 4.3 27.5 5.6 29.8 7.3 32.4 6.0 33.9 4.8 35.0 5.6 40.1 4.8 38.9 4.8 41.4 6.3 45.4 6.4 48.3 5.6 48.9 5.2 50.8 4.7 51.2 8.0 52.3 10.0 49.3 12.2 48.8 14.0 51.4 17.8 51.2 21.0 51.0 23.8 49.5 23.7 51.5 27.6 51.3 27.8 52.6 30.4 49.8 32.9 51.4 36.5 49.5 39.7 50.8 41.2 49.6 42.3 48.8 43.1 49.8 48.3 50.3 48.8 51.4 49.8 48.1 50.8 45.7 48.8 44.0 51.3 40.2 49.3 38.2 50.7 36.6 50.9 34.6 49.4 31.0 50.5 29.6 50.4 26.2 51.0 24.6 50.0 21.3 49.3 18.3 51.3 17.9 50.7 15.3 49.5 9.6 51.6 10.6 49.1 7.0 51.0 5.6 50.4 4.0 48.6 6.7 47.3 4.2 44.5 6.1 42.8 6.0 39.7 4.1 38.4 4.4 35.6 4.2 32.3 5.8 34.3 4.6 27.5 5.7 26.9 3.9 25.7 3.0 21.9 7.0 16.9 3.7 18.6 3.8 14.2 4.5 11.6 6.1 9.1 3.5 7.5 5.3 5.5z" stroke="#E089B4" stroke-width="1" fill="transparent" />
        <path d="M 4.1 5.8 L  4.1 5.8 6.8 4.6 11.1 4.9 12.7 5.9 16.8 3.6 19.2 4.9 22.4 6.1 21.3 3.1 26.0 5.5 28.9 5.1 32.1 4.2 32.5 4.7 37.8 5.0 38.9 4.8 39.5 4.1 44.3 5.0 45.8 5.2 46.6 5.0 50.3 5.1 51.6 4.0 54.0 4.8 54.4 8.3 55.3 9.4 53.9 12.9 51.9 17.0 54.7 17.1 53.3 22.2 52.2 23.3 53.7 24.3 55.2 27.9 53.4 30.9 54.4 33.7 55.5 35.5 54.4 37.1 54.6 39.7 54.9 43.0 53.3 46.1 53.6 49.7 55.1 51.1 55.0 52.1 54.9 53.6 51.2 53.6 48.6 52.5 45.3 52.9 43.0 53.7 41.0 53.2 39.3 53.1 36.9 53.2 33.2 52.9 31.7 53.4 26.5 52.5 24.3 54.8 23.5 52.2 20.1 53.4 16.9 53.1 15.7 54.0 13.5 54.7 11.0 52.8 9.5 52.6 4.2 54.4 4.8 53.3 4.7 51.2 6.2 49.9 5.5 46.5 4.9 40.8 5.1 42.5 5.1 36.8 4.5 35.1 6.8 33.8 6.5 31.3 3.2 27.2 5.4 25.8 4.8 22.6 4.2 20.1 5.7 18.2 4.5 15.8 4.7 12.5 4.5 11.1 4.7 7.4 6.9 4.6z" stroke="#64916C" stroke-width="1" fill="transparent" />
        <path d="M 4.3 3.5 L  4.3 3.5 8.9 6.2 11.3 6.3 12.5 5.0 14.6 4.8 18.4 4.3 22.4 4.8 23.8 5.5 24.1 4.2 29.1 4.8 32.6 4.3 34.2 6.1 36.2 3.8 39.4 7.2 42.7 5.0 43.8 7.5 47.7 3.2 52.1 5.3 53.3 4.9 54.8 4.9 55.4 6.9 55.3 9.1 54.9 10.2 55.7 11.7 55.8 15.1 55.1 19.1 54.1 22.4 55.7 24.4 55.8 26.9 56.4 30.7 55.3 33.3 55.4 35.0 57.0 38.6 54.1 40.9 54.0 42.9 58.1 45.9 56.9 48.7 55.6 50.0 57.4 53.9 55.1 52.9 56.8 54.1 52.6 54.9 49.8 56.3 47.8 55.2 46.2 55.5 41.6 54.1 39.6 55.6 37.6 56.3 32.5 56.2 31.3 55.7 29.0 55.4 27.7 55.5 24.8 55.1 20.8 56.4 18.0 54.1 17.8 57.4 13.9 55.8 9.7 57.1 6.7 55.8 4.9 56.7 4.6 56.0 5.3 52.5 3.5 50.2 4.7 48.7 2.6 45.9 4.1 41.7 4.9 39.9 5.5 37.0 4.4 34.2 4.4 31.5 6.0 30.0 3.4 25.6 6.0 23.7 6.4 19.6 6.1 20.1 3.4 17.1 4.8 13.7 3.9 9.3 4.9 7.9 3.9 6.1z" stroke="#C7F0C4" stroke-width="1" fill="transparent" />
        <path d="M 4.8 7.9 L  4.8 7.9 6.9 5.7 10.3 5.0 15.7 4.4 16.1 6.6 18.0 4.7 21.5 5.4 25.0 2.9 28.3 5.4 30.3 4.8 33.1 3.5 35.5 5.1 37.4 4.1 41.2 6.6 44.1 5.2 47.0 2.8 51.4 5.4 53.1 4.6 55.4 5.7 57.7 6.7 57.3 6.4 58.5 9.6 56.5 10.4 58.4 13.2 57.7 15.2 57.8 17.4 57.8 21.3 57.5 23.7 56.9 25.7 59.2 29.9 58.8 32.3 58.5 35.5 57.1 38.8 56.4 40.9 58.7 44.3 57.2 44.4 56.4 48.6 56.3 51.2 57.2 55.8 58.1 57.2 58.7 57.9 54.8 59.1 52.4 57.2 49.6 57.7 46.0 59.4 44.3 58.0 42.3 57.7 38.7 59.1 35.2 57.9 33.3 58.5 29.6 57.4 28.3 56.5 25.1 59.2 21.6 58.7 17.9 58.4 14.4 56.4 13.3 59.2 12.0 56.3 6.8 58.1 6.4 56.3 5.0 58.5 4.9 54.0 3.1 50.6 3.8 49.2 3.5 47.7 4.4 43.5 5.7 40.9 4.1 37.0 4.4 35.7 3.7 33.5 2.8 30.7 3.1 28.1 5.1 23.3 6.0 20.4 4.9 17.9 4.7 17.2 4.6 13.8 4.1 9.3 4.6 7.6 4.3 5.2z" stroke="#26BE1B" stroke-width="1" fill="transparent" />
        <path d="M 4.5 4.6 L  4.5 4.6 9.0 4.5 12.0 4.7 11.9 5.1 16.0 5.1 17.9 6.0 22.1 6.5 25.4 4.3 27.2 4.4 30.2 4.2 33.1 5.1 36.2 5.5 39.6 5.3 40.7 5.0 44.4 5.3 46.0 5.0 49.3 7.6 53.8 7.6 56.6 5.1 57.2 3.0 59.0 5.1 57.0 6.6 60.3 10.2 60.5 13.5 59.9 16.6 58.6 18.4 58.5 22.2 58.1 25.0 60.7 27.2 58.9 31.0 58.9 31.9 58.4 36.1 57.8 39.0 58.1 41.1 56.4 45.5 57.7 47.4 60.0 50.4 57.4 53.4 58.0 56.1 59.4 59.1 58.5 59.6 54.9 59.6 53.8 58.1 51.8 56.6 49.5 60.1 47.2 60.3 43.2 57.8 36.4 58.6 34.6 60.1 33.8 58.8 31.4 57.7 26.7 57.4 24.7 59.2 23.5 58.4 18.8 57.5 15.3 58.7 12.3 59.7 9.6 56.9 8.6 58.2 3.5 58.2 5.9 61.1 3.8 56.7 3.8 54.0 5.2 50.9 6.0 48.6 4.2 45.6 5.0 42.0 5.0 38.7 5.6 34.9 6.5 33.6 7.5 30.3 4.9 26.8 4.8 26.4 4.2 21.3 5.9 20.7 3.4 15.3 5.4 11.7 4.4 12.1 6.7 6.2 7.3 3.2z" stroke="#7AF6CD" stroke-width="1" fill="transparent" />
        <path d="M 4.8 3.5 L  4.8 3.5 7.6 6.2 10.6 3.9 11.9 4.3 17.5 4.3 19.1 4.4 22.0 4.1 26.2 4.7 26.8 4.2 30.5 4.0 34.8 4.1 39.9 3.3 41.1 5.1 44.3 4.7 46.8 6.6 50.6 5.3 54.0 5.2 56.4 6.1 58.5 4.0 61.8 7.5 61.0 4.5 62.5 5.5 61.6 13.4 61.5 14.8 62.5 16.0 62.3 21.3 63.5 23.7 60.3 25.0 61.3 29.0 60.9 32.4 61.3 35.7 62.9 36.7 61.7 40.6 64.5 42.4 63.2 46.6 62.1 51.7 62.9 52.6 62.3 55.1 61.7 58.3 59.9 62.7 60.4 62.4 58.7 61.1 55.8 62.2 52.6 60.7 50.0 61.5 46.3 61.9 43.7 60.8 41.7 61.0 36.6 62.5 35.5 60.7 32.9 61.0 28.7 62.0 25.2 61.9 22.9 60.6 19.2 61.2 16.2 62.0 13.5 63.0 12.4 61.0 7.8 61.2 5.6 60.1 4.3 60.7 4.6 57.8 3.7 57.2 4.5 54.4 4.4 49.8 5.4 47.9 4.0 44.1 5.9 41.7 4.9 39.9 5.4 33.2 4.8 31.3 5.0 27.8 4.4 26.4 4.7 21.8 4.3 17.6 5.2 18.9 3.2 14.4 4.9 10.1 4.6 7.7 6.6 4.5z" stroke="#F840BB" stroke-width="1" fill="transparent" />
        <path d="M 6.6 6.3 L  6.6 6.3 9.0 7.0 10.7 3.9 14.4 6.6 19.4 5.5 21.0 6.0 23.6 3.7 26.4 4.7 30.5 6.0 34.3 3.8 36.7 5.1 40.1 4.7 42.4 6.4 46.9 6.2 49.4 4.8 51.9 4.7 55.6 5.8 58.5 6.6 61.5 5.3 64.1 5.5 64.2 4.4 62.7 10.0 64.2 11.7 66.3 13.5 64.5 16.8 65.1 20.8 63.6 25.2 64.6 25.3 63.7 27.2 65.6 33.3 63.2 37.6 64.2 39.2 63.7 42.6 65.5 45.2 64.8 49.2 64.5 50.7 65.0 56.2 63.5 56.0 63.4 61.4 60.6 65.3 65.2 67.7 60.3 63.1 58.3 63.7 55.2 64.5 52.1 64.8 51.1 65.4 44.2 65.5 42.9 64.1 39.0 64.6 36.6 63.8 33.6 63.8 29.4 64.7 26.5 64.5 24.8 64.3 20.3 64.5 16.2 63.0 16.5 65.2 10.8 63.6 7.5 64.9 4.7 64.8 3.4 64.3 4.1 62.6 4.0 56.6 4.5 54.9 4.6 51.8 6.2 49.0 5.5 45.5 4.4 42.1 5.3 41.0 3.1 36.0 4.9 33.1 6.5 30.2 4.8 27.0 5.7 22.2 4.8 19.8 3.1 18.3 5.6 12.2 4.4 12.3 4.5 6.5 5.1 3.5z" stroke="#335D6F" stroke-width="1" fill="transparent" />
        <path d="M 4.4 5.2 L  4.4 5.2 6.1 4.7 12.1 4.5 15.8 2.8 16.5 4.6 21.9 5.4 25.2 4.8 27.4 4.7 30.8 5.5 34.4 3.7 36.6 4.9 41.1 5.2 44.8 4.3 46.4 3.9 51.6 3.9 53.4 4.5 59.1 4.0 64.0 5.1 64.9 3.0 66.7 4.4 66.3 2.8 66.9 8.7 65.7 11.7 65.9 14.6 66.9 18.4 66.6 21.2 67.6 24.1 67.6 27.1 67.9 31.1 67.2 33.1 66.8 38.6 65.8 41.1 67.9 44.2 66.2 45.7 66.7 53.4 66.2 54.1 67.1 57.8 67.6 59.5 66.8 65.1 66.9 65.4 67.5 68.0 62.1 67.2 59.6 65.9 56.5 66.5 54.7 67.4 50.4 67.2 46.5 67.8 45.1 66.8 40.7 66.9 38.3 66.6 35.7 67.5 30.0 66.7 28.2 67.8 25.8 65.7 21.6 66.8 17.7 66.4 15.5 66.4 10.9 68.6 8.0 65.2 5.0 65.5 4.9 66.0 5.9 63.5 3.8 60.3 6.5 57.3 3.8 53.0 3.0 49.1 4.5 47.4 4.6 45.4 4.1 41.2 6.0 36.5 4.8 33.6 4.2 30.2 3.5 28.3 4.5 23.8 5.8 21.2 4.1 18.2 4.2 14.9 3.3 13.1 5.3 7.4 4.6 6.6z" stroke="#B94B30" stroke-width="1" fill="transparent" />
        <path d="M 3.9 6.3 L  3.9 6.3 9.8 5.4 10.8 3.9 15.0 3.8 17.7 2.1 22.1 5.4 24.8 5.6 30.7 4.9 32.9 4.5 34.4 5.5 39.7 6.1 41.6 3.6 46.5 4.5 50.6 5.3 52.7 2.7 55.9 5.8 56.3 5.4 61.4 4.4 65.3 4.5 68.5 6.7 68.5 5.6 68.3 8.1 66.5 14.2 68.7 14.2 69.7 18.7 67.1 22.9 71.4 26.6 70.2 29.3 69.4 33.3 67.6 36.4 67.7 39.5 68.0 41.0 68.8 45.5 69.5 50.2 69.2 54.2 67.9 57.1 69.4 59.0 70.5 62.9 67.7 64.7 68.9 70.6 70.3 68.8 65.8 69.4 62.6 68.2 59.1 69.8 56.3 68.6 53.6 69.2 48.6 69.6 46.8 67.6 41.8 69.5 38.3 69.4 34.3 68.1 32.0 69.6 27.6 69.4 26.0 70.0 22.9 70.4 19.5 71.1 14.9 69.8 11.7 68.3 7.6 69.1 5.3 69.5 6.0 69.7 3.9 66.1 3.3 60.7 4.7 60.1 5.1 57.4 5.3 52.8 5.4 49.1 5.7 47.0 3.4 43.3 5.5 37.9 5.0 34.4 4.2 32.6 5.0 29.3 5.7 25.4 5.4 22.7 5.5 18.8 4.0 14.5 5.6 12.3 5.8 7.3 6.0 5.2z" stroke="#23EA25" stroke-width="1" fill="transparent" />
        <path d="M 4.3 4.7 L  4.3 4.7 9.2 5.0 11.0 5.1 14.0 4.0 19.5 5.3 22.2 4.5 25.1 4.5 29.2 4.4 33.2 4.8 35.9 4.6 38.8 3.1 44.5 5.9 44.8 6.4 50.6 6.6 53.3 6.4 57.9 4.2 60.0 4.7 63.9 3.8 67.9 5.2 69.7 4.8 70.0 6.7 72.6 7.9 71.8 12.3 69.2 13.6 71.2 18.0 70.3 21.9 69.7 26.2 70.6 29.4 70.9 30.5 70.5 36.0 71.3 38.5 69.1 43.4 69.3 47.2 72.2 49.7 70.5 53.6 71.9 57.9 69.4 60.2 67.9 62.7 70.8 65.9 71.1 68.2 72.6 70.5 67.4 72.0 63.8 70.3 59.2 70.5 58.5 70.8 54.2 71.8 51.1 71.3 47.1 70.3 44.5 71.0 40.2 70.9 36.1 70.8 33.3 69.4 29.5 70.8 25.4 70.4 22.6 72.2 18.4 71.2 16.4 71.3 12.0 70.3 8.7 69.8 6.1 71.0 4.0 71.7 7.3 66.8 5.3 64.0 4.9 59.8 3.4 58.0 4.1 53.0 4.0 49.6 4.2 47.2 5.3 43.0 4.7 37.6 4.9 35.5 5.4 32.0 5.4 28.2 4.2 24.1 6.8 21.4 5.4 18.4 3.7 14.5 4.4 11.0 3.6 9.5 5.3 4.8z" stroke="#76F06A" stroke-width="1" fill="transparent" />
        <path d="M 4.8 6.0 L  4.8 6.0 7.9 3.5 12.6 4.7 16.8 4.7 17.9 3.8 21.5 4.1 25.8 3.5 29.2 5.0 33.2 5.8 37.8 5.3 39.9 3.9 44.3 6.9 46.2 4.2 49.4 3.7 54.1 4.6 58.8 5.8 60.3 3.7 64.3 3.7 68.3 5.4 74.6 5.0 71.4 4.2 72.3 8.8 71.2 13.0 71.7 14.9 70.4 18.4 70.8 23.1 69.7 26.5 71.9 29.1 71.1 31.4 71.2 38.2 71.1 39.6 70.8 44.3 71.9 46.4 69.9 51.3 70.4 54.5 71.3 59.3 71.2 59.8 70.2 62.5 71.9 70.4 72.1 72.4 69.9 69.0 66.7 71.5 66.4 71.5 61.5 71.4 57.8 71.7 56.1 70.3 50.4 70.8 46.4 72.9 44.2 70.5 40.1 70.9 35.8 73.2 33.9 72.1 29.2 71.6 24.2 71.2 21.7 71.7 18.1 70.6 15.5 71.9 12.1 72.5 7.7 73.5 4.9 69.3 5.8 71.2 4.4 68.6 6.6 64.7 3.7 62.3 4.8 57.6 4.2 51.8 5.0 51.0 5.7 48.9 5.8 45.6 6.0 41.5 4.4 36.1 5.0 34.1 4.5 29.0 4.8 25.9 7.3 21.6 6.7 18.8 5.6 13.8 4.5 12.9 5.0 7.0 4.6 3.0z" stroke="#007B0E" stroke-width="1" fill="transparent" />
        <path d="M 5.7 5.6 L  5.7 5.6 8.4 5.5 12.6 3.7 16.7 4.1 20.0 3.4 24.0 6.5 26.3 5.3 29.9 5.3 34.4 4.7 36.3 6.3 41.5 4.7 45.4 4.7 48.2 3.8 52.3 4.5 55.8 3.6 59.5 4.6 63.7 3.9 66.9 6.3 69.2 4.8 77.1 4.8 73.5 4.7 74.5 6.7 74.2 11.1 71.8 16.6 73.3 19.1 74.8 24.0 72.9 27.9 74.2 30.5 74.2 33.3 74.1 40.4 75.2 42.5 75.1 45.6 73.2 49.2 73.8 50.7 75.3 57.0 74.8 59.2 73.6 62.6 75.4 66.9 73.7 69.4 75.9 74.9 74.9 75.2 70.9 74.3 66.4 74.4 64.6 74.5 59.0 74.7 55.1 76.7 51.8 73.0 48.1 73.8 45.5 72.0 41.7 75.1 39.3 75.2 34.2 73.9 32.4 73.0 27.8 73.9 24.3 75.3 17.7 73.8 16.9 73.0 11.5 74.2 10.3 74.8 3.5 74.2 4.8 73.9 4.1 71.0 3.5 66.4 5.7 62.9 5.1 59.3 4.7 57.3 5.5 51.3 4.7 49.0 5.1 46.3 5.8 41.6 5.7 39.8 6.2 31.9 4.5 31.0 6.8 27.1 4.4 23.5 6.9 18.2 5.6 16.1 4.7 13.1 5.7 8.4 6.7 5.7z" stroke="#4B4464" stroke-width="1" fill="transparent" />
        <path d="M 5.1 5.3 L  5.1 5.3 10.1 4.2 14.0 6.9 15.1 6.4 20.6 4.8 26.9 4.1 26.9 3.9 30.7 6.6 34.9 4.6 39.6 6.2 43.0 6.4 47.2 5.6 50.1 4.6 56.3 5.1 58.3 4.9 62.2 6.1 66.4 3.3 70.8 4.0 75.0 4.5 77.2 6.5 77.3 3.4 77.2 8.1 76.9 12.6 78.0 15.1 77.5 19.6 77.0 24.5 77.8 27.3 77.9 30.6 76.7 35.1 78.2 38.7 75.4 43.6 76.6 47.0 78.3 52.1 77.0 53.9 76.1 57.8 76.6 62.4 77.0 64.8 77.9 69.7 77.4 71.9 78.5 78.8 76.9 76.2 73.8 76.9 69.9 77.4 64.2 78.4 61.9 78.1 58.3 77.7 53.4 78.6 50.2 76.5 45.4 79.4 42.9 76.1 39.9 78.1 35.4 74.1 32.2 76.1 29.9 76.4 24.0 76.8 19.5 76.5 16.0 76.4 11.1 76.3 11.9 74.8 3.9 77.6 4.8 79.1 6.3 72.1 4.7 70.2 6.1 65.0 4.5 63.6 4.2 57.7 4.4 52.7 4.3 51.3 4.8 45.8 4.3 44.8 4.9 40.6 5.4 34.7 4.2 32.6 4.7 26.5 5.3 24.9 5.4 19.8 5.9 16.2 5.7 12.9 4.9 9.6 4.6 5.6z" stroke="#89A892" stroke-width="1" fill="transparent" />
        <path d="M 5.7 6.8 L  5.7 6.8 7.7 4.6 10.5 3.0 17.2 4.2 21.8 4.0 24.8 5.9 28.1 4.4 33.5 5.8 37.4 4.8 40.3 4.5 45.0 3.9 46.9 7.1 52.9 3.6 56.1 3.1 61.3 6.5 64.3 6.7 69.3 6.5 72.8 3.5 77.5 5.4 80.2 5.2 81.8 5.2 79.6 8.4 80.4 13.6 82.5 16.8 80.1 21.5 80.0 24.3 80.1 28.0 80.6 34.2 81.0 37.2 80.5 41.0 81.7 45.4 80.2 46.9 80.5 52.2 80.7 57.0 82.2 60.9 82.1 64.0 79.7 68.4 80.9 72.4 80.9 77.3 81.3 79.9 79.3 80.5 78.1 78.1 72.4 80.9 68.5 80.1 66.1 81.1 60.9 81.1 56.6 81.3 55.3 81.0 47.9 81.8 42.7 82.0 39.4 81.2 36.9 80.6 31.4 82.3 28.1 80.8 24.1 81.0 21.1 79.7 16.5 79.4 12.9 80.7 9.2 81.9 4.8 79.3 5.7 80.8 5.5 75.1 4.9 74.7 4.8 68.6 7.1 63.9 5.1 60.3 4.0 55.4 6.8 52.3 5.0 51.7 5.5 45.7 4.8 41.2 5.2 36.1 4.6 34.6 4.2 29.6 4.7 26.2 6.4 20.2 4.8 17.9 6.1 13.4 4.4 10.3 5.1 5.0z" stroke="#DDEC15" stroke-width="1" fill="transparent" />
        <path d="M 4.7 5.5 L  4.7 5.5 7.0 5.2 13.1 5.9 16.2 5.8 21.6 3.7 24.8 4.1 28.4 5.1 32.3 6.3 37.3 2.0 41.1 4.7 46.6 5.0 49.4 3.7 52.9 5.5 56.2 5.6 62.9 5.9 64.7 4.8 69.3 3.7 73.1 5.3 79.3 3.5 80.9 3.1 83.7 5.6 81.0 9.6 81.1 12.5 82.6 18.1 82.6 20.8 80.7 27.6 82.3 28.4 81.6 32.0 83.1 38.4 82.2 40.7 81.5 45.3 80.4 50.3 81.7 54.0 79.4 58.8 80.5 60.0 82.0 67.4 79.1 70.5 81.8 73.7 80.3 77.9 79.5 83.9 80.4 83.1 76.8 80.7 73.9 82.1 71.0 81.8 64.7 80.9 60.8 82.6 58.5 81.8 51.8 80.2 49.4 83.3 45.1 83.7 41.8 81.8 38.2 80.9 32.1 81.3 28.5 80.2 26.0 81.1 21.4 82.9 18.2 82.9 14.2 79.8 9.2 83.5 7.1 82.6 5.6 81.3 4.9 77.1 5.4 74.6 6.1 70.9 3.0 64.9 5.6 61.9 6.4 56.9 5.5 53.4 6.4 52.1 7.1 43.9 4.4 42.4 6.0 36.6 5.7 31.6 5.6 29.8 8.1 26.5 3.0 20.5 4.7 16.6 4.7 13.7 4.6 9.0 5.6 6.0z" stroke="#F2F0CE" stroke-width="1" fill="transparent" />
        <path d="M 5.5 7.5 L  5.5 7.5 9.6 4.1 11.7 3.2 16.3 4.7 22.0 4.0 25.4 5.5 30.7 7.1 34.1 4.9 38.1 3.3 42.0 5.6 46.6 3.1 51.6 4.8 54.0 4.7 58.7 4.5 63.6 3.9 66.9 6.5 72.9 5.8 75.7 4.4 81.3 4.9 83.8 5.2 84.5 3.9 84.0 9.8 85.3 12.0 85.9 16.5 83.6 22.1 83.9 25.5 85.0 30.0 83.1 34.2 84.8 40.5 86.0 43.6 85.5 48.0 85.6 53.2 84.7 55.9 85.6 60.7 85.0 64.1 84.1 68.5 84.5 71.8 84.6 75.4 83.8 81.3 85.2 84.5 83.3 85.1 79.0 86.4 77.1 85.0 71.5 84.9 67.6 85.8 63.7 84.0 57.2 86.0 55.7 85.4 49.4 84.3 46.8 84.6 41.9 84.1 39.9 84.9 33.9 84.0 30.5 83.0 27.6 84.8 20.4 84.1 16.8 85.4 13.1 84.4 9.3 86.0 4.7 83.8 5.5 84.2 6.5 80.1 3.8 75.7 6.0 72.7 3.6 67.9 4.5 61.9 6.0 58.6 6.9 52.6 5.0 53.0 6.6 47.4 5.7 42.9 4.9 40.8 5.5 34.0 7.4 31.0 3.8 25.7 5.7 21.8 5.3 16.7 4.0 14.1 3.9 9.6 4.7 4.8z" stroke="#B85E74" stroke-width="1" fill="transparent" />
        <path d="M 5.6 3.8 L  5.6 3.8 8.7 5.3 12.4 3.2 16.3 5.0 24.1 5.8 25.9 3.9 29.6 6.7 35.1 7.1 37.5 5.1 44.7 4.6 48.9 4.2 52.6 4.8 56.8 5.3 61.1 3.0 65.2 5.0 70.0 4.8 74.1 4.8 78.1 6.0 80.6 4.6 86.2 4.7 86.6 7.2 85.6 10.3 84.8 14.3 86.9 21.0 86.2 22.1 85.6 24.0 86.7 30.6 86.4 34.3 85.1 40.4 88.2 43.1 86.3 46.9 85.6 52.8 85.7 56.2 88.0 59.8 87.0 64.4 85.7 68.2 85.6 72.2 87.5 76.6 86.6 82.8 84.5 87.6 87.8 87.5 81.2 85.4 78.0 86.1 72.5 85.5 67.4 86.2 66.2 85.5 61.3 86.8 56.4 86.6 50.5 85.4 45.0 86.3 42.5 87.7 40.1 88.1 36.1 86.7 31.1 84.9 26.6 86.3 22.2 86.4 18.1 87.3 13.2 86.4 8.2 84.8 4.5 86.5 3.1 85.3 4.3 82.1 4.8 78.6 5.5 74.7 4.7 68.8 7.0 64.9 6.2 60.2 5.7 57.8 5.2 49.1 5.6 47.2 4.6 43.9 5.1 38.6 5.4 35.5 4.1 30.9 4.4 27.6 5.9 21.3 6.6 18.2 5.3 13.9 6.1 9.5 5.7 3.5z" stroke="#357B35" stroke-width="1" fill="transparent" />
        <path d="M 5.0 6.5 L  5.0 6.5 9.4 3.8 15.3 4.4 17.9 4.6 22.1 6.7 25.3 7.0 31.7 4.2 35.6 5.3 40.5 2.4 45.5 5.5 48.7 4.1 53.4 5.7 56.3 3.6 59.4 5.7 65.0 6.9 71.4 4.9 73.5 5.7 79.8 3.8 83.3 3.4 88.4 6.3 87.7 4.2 86.7 11.3 87.5 12.9 88.1 17.0 88.0 22.6 87.7 26.0 87.8 29.9 87.3 35.2 88.3 40.7 86.4 41.9 88.9 48.5 88.6 53.3 86.4 57.3 87.2 60.0 87.3 65.5 88.4 70.2 87.3 75.9 87.3 78.4 88.5 84.0 86.5 87.8 87.6 86.7 82.8 87.0 77.7 87.3 74.7 86.6 70.7 89.6 66.3 86.3 59.2 87.3 57.1 86.8 53.3 88.5 47.9 87.5 42.9 88.0 39.4 86.6 34.5 89.1 32.2 86.6 26.2 87.7 20.8 87.9 17.3 85.8 13.0 88.3 9.9 86.4 5.5 88.9 6.1 88.0 5.8 81.8 5.3 77.8 4.5 75.0 5.4 72.4 5.0 65.7 4.8 62.5 5.6 57.1 4.9 53.0 4.1 48.6 6.1 45.4 6.2 40.3 6.1 35.1 5.4 32.5 4.2 26.6 3.8 22.6 5.6 18.6 4.3 14.5 5.2 10.5 5.2 5.2z" stroke="#31904E" stroke-width="1" fill="transparent" />
        <path d="M 5.0 3.8 L  5.0 3.8 12.3 6.1 14.3 6.1 17.7 4.9 23.2 4.9 28.8 4.2 34.4 5.0 36.2 5.4 41.2 6.7 44.2 4.5 48.0 3.4 52.0 5.4 59.7 4.7 63.1 5.2 67.1 4.1 73.4 5.0 76.9 6.1 79.9 5.9 84.2 3.7 90.4 6.0 89.0 4.7 89.5 8.4 88.3 12.8 91.3 17.5 90.7 23.1 90.0 27.8 92.1 32.5 91.9 36.9 89.8 40.3 89.8 43.4 90.7 49.4 87.8 56.1 90.0 58.5 89.4 64.4 89.1 67.7 88.8 73.6 89.3 75.5 90.3 81.8 88.2 85.4 90.2 91.9 90.5 88.3 84.6 89.8 80.6 90.6 76.5 89.8 72.5 90.5 66.6 92.9 64.0 89.7 59.2 88.4 54.6 90.8 49.4 91.5 44.8 89.3 39.5 89.8 38.5 88.3 31.8 88.8 27.5 89.8 24.2 90.3 19.8 89.5 14.0 90.1 8.5 89.7 6.2 89.5 4.0 89.8 4.9 86.2 6.2 80.6 5.4 75.8 4.1 73.2 7.6 67.8 4.3 61.2 6.0 59.0 5.0 54.1 4.7 49.8 3.7 45.9 3.4 39.7 5.7 37.7 2.8 33.4 7.0 27.8 6.3 23.3 4.8 18.9 4.4 14.8 6.8 9.0 3.9 4.9z" stroke="#62E512" stroke-width="1" fill="transparent" />
        <path d="M 5.1 3.5 L  5.1 3.5 8.0 3.9 13.2 5.6 18.1 6.6 23.3 5.5 27.6 5.0 33.3 3.4 37.9 6.5 40.6 4.3 45.9 3.4 50.2 5.4 55.5 6.7 59.6 5.1 62.8 3.9 68.6 4.4 73.7 5.4 77.5 7.2 80.1 3.6 85.5 6.9 90.6 4.1 88.7 3.3 91.9 8.9 90.0 13.6 89.9 17.5 89.6 24.5 89.5 27.3 89.2 32.3 91.1 36.7 90.2 41.3 90.1 44.8 90.4 51.3 91.1 53.6 87.8 61.3 90.3 62.4 90.5 67.0 89.1 71.6 91.4 78.1 88.7 81.5 90.1 84.9 90.6 89.5 90.3 89.7 84.9 92.7 80.5 89.4 76.2 90.5 71.9 89.9 68.6 91.1 63.6 88.8 57.8 91.2 53.9 87.8 49.8 91.1 46.3 89.7 41.9 89.7 35.2 89.4 33.0 89.5 28.6 89.2 23.9 90.8 19.3 91.6 13.6 89.4 9.2 91.4 4.3 88.7 5.2 90.6 7.2 86.5 5.4 81.4 4.4 76.8 5.0 72.2 4.4 68.0 4.2 63.1 4.9 59.4 5.7 54.1 5.3 49.7 6.8 44.3 6.7 43.0 4.5 35.9 6.0 32.6 5.6 28.0 5.2 23.1 5.0 19.9 5.9 14.7 4.0 10.0 4.4 5.4z" stroke="#3F89A9" stroke-width="1" fill="transparent" />
        <path d="M 7.8 5.2 L  7.8 5.2 10.5 4.8 14.1 5.2 18.5 6.0 23.9 5.0 29.2 4.4 30.4 4.0 38.3 4.0 41.9 3.8 47.7 3.6 52.6 7.6 56.5 3.8 62.9 3.5 67.1 4.3 70.8 6.3 73.9 5.6 78.4 3.5 83.5 3.9 89.9 4.3 94.4 5.9 93.3 5.2 93.6 9.4 93.5 13.9 93.0 19.6 94.8 23.4 96.6 27.2 93.1 34.1 96.0 37.4 93.9 44.2 94.4 47.6 94.4 52.4 92.6 55.9 95.4 59.5 95.1 66.3 93.6 69.3 92.8 75.4 93.7 79.6 93.0 83.4 94.3 88.5 93.2 92.9 94.8 94.1 89.2 94.7 85.5 91.8 79.3 93.4 76.4 93.9 69.7 94.0 65.8 93.7 60.5 94.4 56.8 94.6 52.2 92.3 47.6 92.8 42.7 93.6 39.2 94.8 32.7 94.1 29.7 95.2 23.8 94.9 18.4 95.2 14.7 93.4 9.6 93.4 6.2 93.7 4.2 94.2 5.4 88.2 5.4 84.6 6.5 79.3 5.0 75.5 3.6 71.5 5.3 64.3 7.0 60.7 4.9 56.0 3.7 51.8 4.8 45.7 3.8 41.4 4.6 36.6 6.0 32.4 3.3 29.4 3.9 24.0 4.6 19.0 5.3 15.1 4.2 8.5 6.2 5.6z" stroke="#F8D0FB" stroke-width="1" fill="transparent" />
        <path d="M 5.4 5.9 L  5.4 5.9 10.1 5.6 13.2 6.2 20.6 6.3 24.0 5.5 27.9 4.5 33.3 6.8 37.6 5.0 42.9 8.1 48.5 5.1 53.6 5.0 58.1 4.7 63.1 5.7 65.8 3.9 72.6 5.9 74.5 4.3 80.8 5.0 85.5 5.2 90.6 5.3 93.2 4.2 96.4 5.2 95.4 9.3 95.1 15.6 93.6 18.3 95.0 23.8 94.1 29.5 96.3 33.3 93.4 39.3 93.3 42.7 95.5 48.0 95.6 53.1 94.3 57.1 92.8 60.7 94.3 67.0 94.7 72.1 95.2 75.1 94.2 81.2 94.9 85.9 94.2 88.7 92.8 96.1 95.8 94.4 90.8 95.5 85.2 95.7 81.0 94.6 76.9 94.3 70.6 93.6 66.2 96.0 63.3 95.1 54.8 94.3 52.3 93.8 46.8 94.6 42.9 95.9 37.6 95.6 33.8 92.5 27.8 95.7 23.6 94.9 20.6 94.8 13.8 96.9 9.0 94.7 4.7 97.3 4.6 95.0 3.5 88.8 5.2 82.8 5.2 79.8 4.2 75.1 8.4 71.9 4.6 66.1 3.8 60.5 3.9 58.3 5.3 53.7 4.5 46.6 4.0 42.6 5.3 38.3 3.8 34.5 4.8 29.5 4.0 23.7 5.2 21.0 5.1 13.7 7.0 9.0 4.9 4.3z" stroke="#6871E0" stroke-width="1" fill="transparent" />
        <path d="M 5.6 5.5 L  5.6 5.5 6.8 5.0 13.5 2.8 20.0 5.4 25.8 3.7 29.6 5.4 32.4 6.7 37.9 4.5 43.7 4.9 47.4 4.0 53.5 5.9 60.2 5.7 62.3 5.0 69.2 3.7 73.4 4.4 78.8 5.7 83.6 5.9 87.4 4.8 90.8 5.1 96.4 6.0 97.6 4.5 97.6 8.8 97.0 15.6 98.5 19.0 96.5 26.0 97.5 29.8 99.1 33.4 99.0 39.2 96.8 42.6 97.9 49.5 96.8 54.7 97.5 58.4 96.3 64.0 98.1 67.9 96.3 71.6 96.5 77.3 97.8 81.1 99.0 86.9 97.6 92.4 98.0 95.3 98.3 97.0 92.3 96.9 86.8 95.3 84.4 97.9 78.1 99.1 71.8 98.2 68.3 95.5 63.2 96.2 58.2 96.7 52.9 97.2 48.9 98.4 42.8 97.5 38.4 97.2 33.3 96.6 30.0 97.5 25.2 95.0 19.3 97.5 14.0 97.3 9.1 96.4 4.0 95.6 4.8 98.2 4.7 92.1 4.1 88.5 4.5 81.7 6.4 77.5 5.8 73.8 5.2 67.9 3.3 63.3 5.3 57.7 5.4 51.5 6.5 48.4 5.4 45.0 5.6 37.9 5.2 33.5 5.5 29.4 6.2 24.4 6.0 20.5 5.6 13.8 5.2 9.4 4.4 4.4z" stroke="#C74979" stroke-width="1" fill="transparent" />
        <path d="M 5.9 5.1 L  5.9 5.1 7.4 4.9 13.8 4.0 19.7 6.1 24.6 3.8 31.4 4.3 35.0 6.0 38.9 5.0 44.6 4.4 49.3 5.8 55.5 5.6 58.9 5.4 64.0 4.2 68.7 6.4 74.7 4.3 77.5 5.0 83.2 6.2 89.4 5.6 93.8 5.7 98.4 6.9 97.3 5.3 98.6 8.8 97.1 15.7 98.0 20.3 97.7 23.8 98.9 29.0 97.3 35.7 97.9 40.6 98.4 42.5 98.4 48.0 98.9 55.7 98.8 60.0 100.1 63.7 96.1 70.0 98.3 71.9 97.8 77.4 98.6 82.7 97.4 87.3 99.2 91.3 97.2 96.9 97.6 99.0 92.6 97.7 88.2 100.3 84.4 96.8 78.9 98.6 74.2 97.8 68.0 96.7 63.2 98.6 59.1 98.7 53.3 99.1 48.7 97.1 43.5 96.6 39.6 97.5 32.1 100.4 30.3 99.6 25.8 97.8 20.9 98.1 14.3 96.7 9.6 98.5 3.6 97.6 5.6 98.7 7.0 92.9 5.7 88.8 3.7 84.6 3.9 78.6 4.4 71.1 5.2 69.7 6.3 62.9 6.7 59.1 5.2 54.7 3.9 49.9 7.0 43.0 6.7 39.4 5.3 37.1 4.6 30.6 5.6 23.4 5.0 19.6 5.1 12.9 5.5 9.8 7.4 3.4z" stroke="#D4EBC2" stroke-width="1" fill="transparent" />
        <path d="M 5.3 5.5 L  5.3 5.5 7.7 4.5 15.0 5.3 21.0 6.5 24.9 5.0 28.2 3.9 36.0 6.1 37.9 6.4 45.3 4.8 52.3 3.9 55.4 4.1 59.8 5.3 65.2 5.7 70.5 5.2 76.6 5.6 78.6 5.8 85.9 6.2 91.6 6.2 95.3 4.6 99.3 5.2 100.9 5.0 101.2 9.5 101.3 14.5 101.2 20.2 100.9 25.7 100.3 29.9 100.1 34.7 101.2 40.1 100.0 47.0 101.5 51.1 100.1 54.1 100.1 60.2 102.3 65.2 101.2 70.1 100.2 75.9 100.7 80.7 100.6 83.5 101.0 89.2 99.4 96.2 100.4 101.1 99.7 99.6 93.6 100.0 91.7 100.8 86.5 101.6 81.4 99.9 74.5 100.7 70.4 101.6 64.2 99.7 60.2 100.9 54.0 101.2 50.7 100.7 46.4 99.6 39.1 101.0 33.7 101.1 29.4 99.9 24.8 100.9 18.6 100.7 16.3 101.0 10.3 98.5 5.9 99.8 3.8 100.3 5.8 95.6 5.1 91.1 5.7 86.2 4.6 81.3 3.9 76.4 4.1 70.8 5.0 63.5 4.7 60.7 4.2 55.3 3.6 49.8 6.3 44.1 4.8 38.9 5.8 34.6 4.9 30.1 4.1 25.0 3.4 19.5 6.4 14.8 5.5 12.1 3.9 5.3z" stroke="#39E852" stroke-width="1" fill="transparent" />
        <path d="M 6.3 4.4 L  6.3 4.4 10.6 2.7 13.9 3.5 17.4 5.4 25.6 5.4 29.9 6.9 34.9 6.1 38.9 4.9 44.2 5.2 49.5 5.5 56.8 4.5 56.7 5.5 64.6 5.5 71.1 5.0 76.1 3.3 80.9 4.0 85.5 4.2 92.3 3.7 94.1 4.5 100.6 3.3 100.7 3.2 100.8 11.6 100.5 15.6 100.4 17.8 100.4 23.9 100.2 28.6 100.9 34.5 97.6 39.8 101.1 45.7 101.3 52.4 100.1 55.4 102.0 60.3 100.3 67.8 100.2 71.3 99.8 75.1 100.9 80.9 100.9 85.6 101.3 91.1 99.4 95.5 101.2 100.0 101.0 98.8 96.3 100.6 90.0 100.6 84.8 102.8 81.8 99.4 74.5 100.2 70.8 99.7 65.1 98.9 60.4 101.5 55.5 100.9 50.5 100.2 46.4 101.0 39.9 101.2 36.2 101.7 31.4 100.6 25.3 101.4 19.5 102.0 15.5 101.4 10.2 100.7 4.8 100.3 5.9 101.5 6.5 95.8 4.4 90.0 5.6 85.7 6.8 81.9 4.9 75.2 4.0 71.7 4.8 64.2 5.2 59.2 4.3 54.5 3.8 48.8 5.2 45.8 6.0 41.4 5.4 36.5 5.4 30.6 5.6 25.9 6.3 20.5 4.6 15.1 6.0 10.7 4.7 3.4z" stroke="#5F4FBA" stroke-width="1" fill="transparent" />
        <path d="M 5.9 6.0 L  5.9 6.0 10.6 3.5 14.0 4.1 20.7 4.4 26.2 5.0 29.6 5.1 36.4 5.6 41.3 4.2 44.2 3.6 50.5 4.6 55.5 5.5 60.6 4.4 67.8 4.6 73.1 4.2 77.3 4.5 82.9 6.6 85.7 5.6 93.6 4.7 96.7 4.8 103.8 4.6 103.2 5.7 101.9 9.1 100.7 14.8 102.5 19.9 104.0 25.6 104.5 33.1 101.9 36.2 102.5 40.5 102.1 45.9 103.4 51.0 102.4 55.8 102.8 61.0 103.0 65.7 102.7 71.4 101.3 77.1 102.9 80.8 101.7 86.0 102.0 90.9 102.8 97.0 103.0 101.1 101.7 102.8 98.1 101.0 91.5 102.7 87.5 102.8 83.0 104.6 76.9 102.0 73.1 104.4 67.1 103.6 60.8 103.4 55.0 101.7 52.5 102.5 45.1 103.5 41.8 103.3 35.6 103.0 31.5 102.7 24.0 103.2 18.7 103.9 16.9 101.6 8.9 102.9 6.5 102.7 5.1 103.6 5.2 95.6 4.0 93.0 4.0 86.8 4.3 82.0 6.4 76.8 3.5 70.3 4.5 64.8 4.7 62.1 4.3 56.4 6.3 52.7 4.2 45.4 5.6 41.9 5.0 34.8 4.0 30.9 3.6 24.6 5.3 21.7 5.2 16.0 5.4 10.0 6.0 3.2z" stroke="#11985C" stroke-width="1" fill="transparent" />
        <path d="M 3.5 3.8 L  3.5 3.8 11.0 5.9 14.4 6.0 19.0 6.3 25.3 6.5 30.7 4.7 37.0 5.7 41.7 6.2 47.0 4.5 51.7 5.0 57.4 5.9 62.9 7.4 67.7 4.7 73.8 5.2 78.0 5.7 84.0 5.5 89.2 5.8 93.9 4.0 98.3 5.6 103.8 5.2 103.8 6.1 101.9 11.2 104.4 17.5 104.4 21.9 102.6 25.1 106.6 30.7 104.5 36.3 105.3 42.1 103.7 46.2 104.9 52.7 104.0 58.0 104.5 59.7 103.5 68.5 104.4 73.0 103.1 77.3 103.5 83.1 104.6 88.7 104.9 93.3 102.6 97.7 102.3 103.3 105.8 103.8 99.2 105.4 93.5 103.4 87.2 104.8 84.2 103.0 75.5 104.8 72.6 102.8 67.5 103.8 63.5 104.5 56.5 103.4 52.3 103.7 46.3 105.4 42.0 104.8 35.4 102.9 30.7 105.3 24.8 102.5 19.2 104.7 14.9 101.4 9.2 103.0 4.5 103.4 4.1 103.7 4.5 98.6 5.3 93.9 5.5 87.0 6.4 83.2 4.8 77.2 4.4 74.1 4.9 68.5 4.2 61.1 5.3 56.5 5.1 51.5 6.4 47.2 5.4 41.1 5.9 34.4 4.6 32.7 5.9 25.4 3.7 21.7 4.9 14.3 2.6 9.6 3.8 4.0z" stroke="#C81AF5" stroke-width="1" fill="transparent" />
        <path d="M 5.5 3.1 L  5.5 3.1 8.9 3.4 16.5 4.5 22.2 4.1 25.5 5.6 32.8 7.6 37.1 4.0 40.9 6.3 45.3 4.0 54.0 4.4 58.3 5.3 62.6 5.6 69.1 3.6 73.7 5.5 77.8 6.9 82.5 5.3 87.7 4.2 93.9 3.7 97.2 5.9 105.2 2.2 105.0 5.6 105.3 11.2 104.2 14.7 103.6 21.4 102.4 23.5 103.8 31.8 106.3 37.8 104.5 41.0 103.9 46.9 101.6 50.7 102.8 57.0 103.1 62.1 104.6 68.3 104.8 73.3 105.2 80.8 105.1 84.6 104.2 88.5 103.3 93.5 104.7 100.5 103.8 104.5 103.2 103.3 98.9 103.7 93.1 104.6 88.1 103.2 83.7 103.8 77.2 106.1 72.5 104.7 67.0 103.4 60.6 103.7 56.6 103.8 50.6 105.7 46.5 105.0 40.9 103.9 35.7 103.2 29.3 104.6 26.8 104.0 20.5 106.0 15.3 104.0 9.4 103.8 5.1 103.3 6.5 103.6 5.2 99.3 6.7 92.9 4.3 88.7 5.0 84.1 5.2 78.3 5.0 72.7 4.9 68.6 4.4 61.4 5.6 57.9 3.9 51.1 3.8 46.8 5.8 41.5 4.6 34.6 6.2 31.0 4.8 25.5 4.3 18.9 4.3 15.0 6.1 10.1 4.1 4.9z" stroke="#1A3869" stroke-width="1" fill="transparent" />
        <path d="M 6.8 4.4 L  6.8 4.4 9.3 5.9 16.6 5.4 20.0 4.7 26.9 5.4 31.2 4.3 36.0 6.2 40.7 5.1 46.4 5.2 54.0 5.6 61.3 5.4 62.0 5.4 69.3 3.0 74.6 5.8 80.3 3.8 83.9 6.1 91.0 5.5 95.8 6.8 100.7 6.0 105.1 4.9 105.1 5.6 106.2 9.2 106.1 17.6 107.0 21.7 106.3 26.4 105.8 31.4 106.0 35.7 106.2 42.0 104.9 46.8 104.5 52.2 104.5 59.4 104.8 63.8 105.8 70.1 105.8 72.8 105.5 81.1 107.0 83.5 105.0 90.8 106.8 96.4 105.5 99.2 105.5 105.0 107.3 106.5 101.4 105.7 95.0 106.0 89.1 107.3 87.3 105.8 78.4 105.2 72.3 104.7 70.1 104.5 61.6 106.0 57.5 106.6 53.1 105.5 45.5 106.2 41.4 106.0 36.2 105.5 31.0 106.2 26.3 105.8 22.2 105.6 16.6 105.4 10.6 106.1 5.5 106.9 6.0 106.1 4.9 102.1 4.8 96.2 5.2 90.9 7.6 86.7 5.4 78.7 5.7 75.1 5.2 69.2 5.4 63.7 5.4 57.7 5.3 53.5 3.3 46.2 4.6 41.9 6.4 37.0 5.9 33.4 4.4 26.0 4.2 20.2 4.2 14.6 4.4 9.2 5.5 5.8z" stroke="#B13D4F" stroke-width="1" fill="transparent" />
        <path d="M 5.7 3.9 L  5.7 3.9 8.8 5.8 15.5 5.1 21.7 4.8 26.6 5.5 32.6 4.3 37.8 3.8 43.6 4.4 48.8 3.9 53.4 4.2 60.0 5.9 64.9 4.5 70.5 6.9 75.0 6.0 81.7 6.2 84.9 6.5 92.5 7.1 98.6 5.7 102.9 5.5 109.1 4.6 110.4 3.7 109.2 11.7 108.4 16.6 108.8 21.1 109.2 25.9 109.3 32.6 108.8 37.9 110.8 43.5 109.8 49.1 109.4 51.9 110.6 59.7 108.2 65.5 109.3 71.8 109.6 76.5 108.3 82.0 109.9 87.7 109.1 93.2 110.6 99.0 108.1 103.6 107.1 109.0 106.9 110.9 102.6 108.9 98.0 111.2 92.2 108.7 86.8 112.4 81.1 109.3 76.9 109.3 71.8 112.0 66.4 110.1 61.3 109.3 53.4 109.0 48.2 106.8 44.0 108.9 38.7 107.9 32.0 110.1 27.7 106.8 20.0 108.8 16.5 109.3 9.5 109.7 6.0 108.8 8.1 110.0 5.0 102.5 3.9 98.1 3.8 93.3 4.7 89.0 4.9 84.5 4.5 76.8 4.8 71.2 4.0 66.2 5.0 58.9 5.2 54.9 4.0 47.1 3.6 42.5 4.9 37.7 4.3 33.0 4.5 26.8 4.7 24.0 4.1 14.7 5.0 10.9 5.6 6.0z" stroke="#3876B4" stroke-width="1" fill="transparent" />
        <path d="M 6.1 6.3 L  6.1 6.3 8.8 3.6 16.7 2.9 20.9 4.7 27.7 5.0 32.5 5.5 38.3 6.4 43.2 3.6 49.0 6.4 54.2 3.9 60.3 3.5 68.4 4.7 71.2 5.0 78.8 4.3 84.5 4.1 91.2 5.5 94.8 5.1 99.9 5.1 103.0 5.8 111.7 3.7 110.1 5.2 113.1 10.2 111.2 14.4 111.5 21.6 113.1 28.0 109.9 30.9 111.5 39.1 111.4 45.2 111.9 50.6 111.9 54.9 111.5 59.4 111.4 66.5 112.8 72.7 111.2 77.3 111.7 83.4 111.6 89.8 113.4 94.6 110.6 99.3 112.6 107.1 110.3 111.7 111.6 111.5 104.7 113.7 99.4 110.0 93.0 111.8 87.9 110.9 84.4 112.5 76.8 112.7 72.8 112.8 67.0 110.4 60.0 110.9 56.0 110.9 47.6 112.4 45.1 110.6 39.7 111.8 32.9 112.1 26.4 111.0 20.3 111.6 15.1 110.3 8.2 112.6 6.1 111.5 4.6 112.2 4.9 105.4 3.9 99.8 5.3 94.3 5.3 89.7 4.5 84.1 5.4 76.2 6.2 72.7 5.0 66.1 6.2 60.1 2.3 55.3 4.3 50.4 4.9 43.6 4.9 38.8 4.1 33.4 5.5 28.1 3.1 22.1 5.3 17.6 4.4 10.3 6.4 4.9z" stroke="#373E68" stroke-width="1" fill="transparent" />
        <path d="M 4.8 2.1 L  4.8 2.1 11.5 7.1 15.3 5.4 23.7 3.0 31.5 4.2 33.5 6.2 41.7 6.1 44.5 6.0 52.5 4.6 57.0 5.7 61.4 4.4 69.9 4.6 76.8 4.9 79.2 1.8 85.3 2.8 92.7 4.4 98.7 4.7 102.7 5.5 110.2 4.2 116.2 6.3 115.9 5.2 114.5 8.8 114.2 16.7 116.0 21.7 115.5 28.2 116.9 33.8 117.2 40.4 113.0 46.4 114.4 52.4 116.0 53.4 114.7 61.0 115.9 67.8 116.2 75.2 116.1 80.7 114.0 86.9 114.8 91.8 115.7 98.3 115.7 102.2 116.0 108.7 112.3 115.6 115.8 115.8 110.7 114.1 103.4 115.1 96.7 115.0 90.7 115.8 86.6 115.7 77.8 115.8 75.8 115.9 69.3 114.0 63.2 116.2 56.7 115.6 50.7 115.3 44.1 115.4 40.1 114.7 34.7 116.7 28.4 112.8 22.3 115.8 16.0 115.1 11.4 114.2 4.0 115.3 4.2 115.8 5.7 109.7 5.5 103.3 6.6 96.1 5.9 93.2 5.2 87.2 5.4 80.4 5.6 73.9 5.5 68.4 2.7 60.8 3.3 57.1 4.5 50.3 6.4 45.6 5.3 40.9 6.0 34.3 3.5 27.8 4.1 23.0 5.5 18.1 4.9 11.9 4.5 4.9z" stroke="#488A9D" stroke-width="1" fill="transparent" />
        <path d="M 5.1 5.2 L  5.1 5.2 12.0 5.5 17.9 4.7 23.1 4.9 28.4 5.5 34.2 5.1 40.4 3.7 45.0 6.0 51.4 3.6 58.1 7.0 63.8 5.3 71.0 6.5 72.6 3.9 81.7 4.4 85.7 4.8 93.9 5.6 99.9 4.0 106.0 5.4 109.8 5.3 117.1 3.8 116.7 5.5 117.9 12.0 116.5 16.3 115.1 22.1 116.5 27.3 114.6 34.6 115.2 39.3 116.4 43.4 117.0 52.5 118.0 57.9 116.1 64.9 115.3 69.9 115.4 75.6 115.6 84.1 116.3 86.6 115.8 94.0 115.1 96.8 116.2 103.3 117.6 110.7 115.9 116.8 115.4 117.9 110.2 115.6 104.4 115.7 98.3 116.3 94.2 116.1 86.8 115.3 82.5 114.7 75.1 117.0 70.4 117.4 62.9 116.4 57.2 115.1 51.4 117.4 45.8 114.8 40.7 115.7 35.7 115.9 28.7 117.5 24.4 115.9 17.4 114.9 11.1 114.3 6.0 117.0 2.6 116.7 4.9 111.3 2.7 103.8 5.3 97.6 6.1 92.4 4.3 85.8 6.0 82.4 5.0 74.5 5.3 71.3 5.5 65.3 4.4 58.5 5.0 51.7 4.2 45.8 6.0 40.3 4.9 34.2 4.9 29.2 5.5 22.5 5.3 16.3 5.4 11.5 3.9 4.3z" stroke="#BC6BDF" stroke-width="1" fill="transparent" />
        <path d="M 3.5 5.5 L  3.5 5.5 10.8 6.6 15.8 5.2 24.0 5.8 27.3 3.1 35.3 4.7 41.0 4.7 47.9 5.6 52.5 5.6 57.3 5.3 64.6 6.0 70.3 6.5 73.2 3.8 82.6 4.8 86.0 4.6 92.3 4.0 99.1 5.2 105.7 5.3 111.8 4.8 116.9 4.3 116.3 6.2 118.4 9.8 117.7 16.6 116.9 23.3 116.8 28.8 118.4 35.4 118.8 39.1 117.9 46.5 117.3 52.5 116.5 56.5 116.1 63.1 117.0 70.1 118.7 76.8 117.9 81.6 117.7 88.4 118.2 92.1 117.0 99.7 117.5 106.5 114.9 110.4 117.3 117.7 119.0 118.2 112.0 117.7 106.8 116.4 101.3 117.1 94.5 116.7 87.6 116.8 83.4 117.5 75.0 118.0 71.6 118.9 63.3 118.4 57.8 119.5 52.3 116.0 46.2 117.7 39.5 118.3 34.0 118.5 28.1 117.4 22.8 118.4 16.0 118.1 10.4 116.2 5.7 116.7 5.9 117.3 4.4 111.3 3.6 105.7 2.9 99.9 3.9 93.2 5.2 87.2 4.8 79.8 4.7 77.3 3.8 70.6 3.9 63.6 3.8 58.6 4.9 53.1 4.6 46.0 6.4 39.9 5.3 34.7 6.2 28.2 4.4 21.4 6.1 17.8 4.4 11.9 6.4 5.3z" stroke="#D6DB52" stroke-width="1" fill="transparent" />
        <path d="M 5.3 6.0 L  5.3 6.0 11.0 5.1 14.9 4.4 23.7 4.2 29.6 4.9 35.4 6.1 41.1 3.3 46.4 4.2 51.6 4.8 60.5 6.6 64.4 4.8 71.2 6.0 77.5 3.6 82.6 4.5 88.9 5.7 94.7 4.7 99.9 5.1 106.3 3.8 112.5 5.5 118.5 3.9 119.9 5.5 119.1 9.8 117.8 15.6 118.0 24.6 118.2 28.0 118.1 34.5 118.6 41.2 117.7 46.4 117.4 52.0 119.8 59.4 118.2 65.6 119.3 69.9 120.0 77.2 118.4 81.8 117.8 85.3 120.8 93.5 117.6 99.1 119.1 106.8 118.5 112.8 117.7 119.6 118.2 117.0 111.7 119.6 107.3 119.1 99.7 119.9 94.8 118.8 88.9 118.0 82.0 117.5 76.3 117.5 71.7 120.2 65.0 117.0 59.6 118.2 53.1 117.2 45.7 116.8 41.1 119.1 34.9 119.9 29.2 119.9 23.6 118.3 17.1 118.5 10.9 118.6 5.4 120.8 4.0 118.5 6.7 111.0 4.2 106.5 3.4 101.7 5.1 94.4 4.4 88.5 5.4 83.2 4.7 77.4 3.9 69.8 3.8 65.0 6.8 60.0 7.3 51.9 6.3 47.8 5.4 40.0 4.8 34.9 5.6 29.5 4.8 23.5 5.7 16.6 5.8 9.9 6.3 5.2z" stroke="#E20E2D" stroke-width="1" fill="transparent" />
        <path d="M 5.0 3.0 L  5.0 3.0 11.0 5.0 16.4 3.4 24.1 5.4 28.3 4.0 35.8 5.8 39.7 5.6 45.4 4.1 52.5 5.8 55.5 5.2 63.6 6.2 70.3 4.2 76.4 5.1 83.8 5.6 89.4 5.4 94.5 3.5 100.2 5.4 106.3 2.6 111.8 4.0 118.9 5.7 117.8 8.5 118.6 10.0 118.1 15.6 117.1 21.9 116.9 28.2 117.1 35.4 118.9 39.7 118.8 47.5 119.5 54.3 118.6 59.5 118.6 65.7 119.1 71.2 117.0 77.1 115.9 82.5 120.2 89.8 118.9 93.1 118.3 100.5 118.6 107.2 120.1 112.3 118.7 118.6 118.8 119.2 111.7 118.9 108.5 118.7 100.1 116.2 94.3 119.6 88.6 118.6 82.8 118.7 77.9 119.7 71.6 119.8 65.0 115.9 60.1 118.2 53.1 118.4 48.0 118.1 39.5 118.1 35.8 118.3 27.7 120.1 22.8 119.1 17.2 117.3 10.3 119.1 6.5 117.2 4.6 118.1 5.7 113.7 6.2 105.4 4.1 100.1 7.9 95.6 3.2 88.3 4.3 83.3 5.5 77.6 5.9 71.4 5.2 64.2 5.7 59.3 4.2 51.1 5.2 46.7 3.1 42.2 4.6 34.6 3.7 29.1 5.0 22.0 5.6 18.6 6.2 10.1 4.7 5.6z" stroke="#52B443" stroke-width="1" fill="transparent" />
        <path d="M 4.7 5.8 L  4.7 5.8 11.9 6.6 18.1 3.4 23.8 4.2 29.8 5.8 36.6 5.5 41.3 4.6 47.0 2.6 52.5 6.6 59.7 3.5 64.9 5.8 70.7 3.9 78.3 4.4 84.6 5.4 88.7 5.8 96.3 7.1 101.6 4.8 106.4 5.3 113.8 6.1 119.9 4.4 120.5 4.4 119.2 11.1 119.7 15.7 120.0 22.9 121.7 28.9 120.4 35.6 120.5 41.7 120.2 46.9 121.0 53.6 120.1 59.3 119.6 64.2 121.4 72.3 119.9 77.0 119.1 84.9 119.9 89.6 119.6 94.8 120.6 101.8 121.4 109.1 120.2 116.0 120.3 120.9 120.1 120.4 114.9 121.0 106.8 119.5 100.9 121.2 96.3 120.7 90.7 120.8 83.4 119.5 79.3 119.6 71.1 120.8 65.8 120.5 60.5 121.0 53.6 120.4 45.7 118.8 41.1 121.2 34.2 119.0 29.8 120.5 23.0 120.6 16.5 119.8 12.7 119.8 7.3 118.7 4.6 119.9 6.0 114.8 4.0 106.7 5.2 101.8 4.7 95.5 5.4 89.9 5.6 83.9 4.8 78.0 4.3 72.9 4.3 67.5 4.1 60.5 3.7 54.6 4.2 45.9 4.7 41.5 4.7 36.2 3.4 30.4 4.4 23.1 4.1 17.4 5.3 11.5 5.3 4.9z" stroke="#136719" stroke-width="1" fill="transparent" />
        <path d="M 4.3 4.4 L  4.3 4.4 12.5 4.9 18.6 4.3 26.1 3.3 28.9 5.8 35.9 5.8 43.0 4.2 50.3 3.3 54.5 3.5 61.1 4.9 67.1 5.5 71.1 5.6 80.4 4.1 85.4 4.0 92.5 5.3 99.2 5.1 104.3 4.7 111.9 6.7 116.9 4.3 124.3 3.6 123.8 6.0 122.8 10.7 122.5 17.7 122.9 22.3 123.6 30.9 123.5 37.5 123.8 40.9 122.9 49.4 124.7 57.0 121.1 59.8 122.2 67.4 125.3 73.1 125.2 80.9 123.9 84.3 124.3 92.2 124.2 99.3 123.2 104.6 122.7 110.9 123.9 117.1 123.3 122.6 122.9 124.1 118.4 124.7 111.0 123.6 105.8 124.0 97.2 124.1 91.1 124.1 85.8 122.8 79.2 126.7 72.8 125.1 65.5 122.8 61.5 123.5 54.9 123.8 48.3 123.9 42.6 123.7 35.3 124.2 30.8 124.1 23.7 123.9 16.8 122.4 11.8 123.6 4.7 123.0 2.3 123.8 5.9 116.8 4.0 109.7 4.1 105.3 6.2 96.5 4.3 91.3 4.4 87.3 5.4 78.2 4.8 74.4 4.7 67.4 5.6 61.1 5.9 56.3 5.3 50.1 4.4 42.0 6.5 35.3 6.4 30.4 4.0 23.2 4.4 17.4 5.3 11.4 4.9 4.3z" stroke="#61F543" stroke-width="1" fill="transparent" />
        <path d="M 5.7 8.0 L  5.7 8.0 11.9 5.6 17.0 5.0 23.8 4.4 29.1 5.0 36.2 5.5 43.1 5.8 49.2 6.1 54.9 4.6 61.6 3.4 69.7 4.4 76.2 5.8 80.5 5.2 88.6 7.7 94.0 3.8 100.8 2.5 107.5 6.6 115.0 4.8 120.6 7.1 126.1 3.0 126.3 5.3 127.5 11.8 126.2 19.0 125.6 24.9 124.9 30.0 128.1 36.7 126.6 43.6 127.7 49.3 127.8 55.6 127.0 61.3 124.3 67.7 127.5 73.6 127.0 82.0 125.9 86.3 126.6 95.1 125.2 101.6 125.4 106.0 126.7 114.8 126.2 121.0 126.0 125.7 124.2 126.0 118.7 126.5 114.9 127.5 107.4 125.3 100.6 125.9 94.0 127.0 87.7 126.8 80.2 126.4 75.4 126.5 69.0 126.0 62.5 125.9 56.3 127.5 49.3 125.5 44.1 127.6 38.1 125.7 29.6 125.1 23.2 126.4 18.6 125.6 12.2 126.1 3.4 128.2 5.9 126.3 5.4 121.4 4.5 111.9 3.5 105.9 5.6 99.3 3.0 93.9 4.9 88.3 5.2 82.1 6.5 74.8 7.1 69.2 6.2 62.5 3.7 55.1 3.8 49.1 4.1 43.7 4.0 38.5 4.5 28.7 4.9 24.7 5.5 17.9 4.7 12.3 5.2 4.9z" stroke="#8553DC" stroke-width="1" fill="transparent" />
        <path d="M 4.9 4.4 L  4.9 4.4 10.2 4.0 17.7 6.1 23.1 4.0 30.5 4.8 38.1 5.8 42.5 5.3 51.2 5.8 59.3 5.4 63.8 6.4 69.9 5.4 77.4 6.0 84.0 6.5 88.8 5.6 97.2 4.9 104.1 5.5 108.6 5.1 117.1 5.7 123.3 4.4 128.0 6.3 128.1 5.9 129.9 11.4 129.5 17.3 128.3 22.8 128.4 33.0 129.5 37.0 128.2 44.4 128.6 50.7 128.3 58.3 129.8 62.8 128.9 71.0 128.8 78.7 128.9 82.6 128.4 89.5 130.2 96.6 130.6 104.0 128.4 110.2 128.2 115.8 129.9 122.6 129.7 128.7 130.5 131.8 122.3 129.5 115.0 128.9 110.4 128.7 104.6 129.7 96.2 129.4 88.5 131.2 83.2 128.1 75.3 129.1 69.7 129.3 64.1 129.8 58.0 130.3 51.3 128.4 44.5 128.9 38.0 130.5 31.5 130.3 24.5 130.5 18.8 131.3 10.8 129.2 3.8 129.9 6.0 129.9 4.0 123.1 6.5 116.9 7.3 109.2 3.6 103.8 5.8 95.5 4.3 89.8 6.4 85.5 5.5 77.9 5.9 72.0 5.6 64.3 4.7 58.5 3.7 50.6 4.9 45.0 5.9 37.9 3.9 31.1 4.4 26.3 4.5 18.3 5.5 13.1 4.7 4.3z" stroke="#E6A3A6" stroke-width="1" fill="transparent" />
        <path d="M 3.6 3.7 L  3.6 3.7 10.2 5.0 17.5 6.2 24.5 5.1 31.2 5.4 37.9 4.3 46.7 3.4 51.2 4.8 57.8 5.9 64.6 5.5 70.7 4.4 76.7 4.7 84.7 5.4 91.6 5.0 97.3 5.6 104.7 4.5 112.1 5.5 116.7 6.6 122.5 4.4 128.6 5.3 129.6 4.5 129.2 11.3 130.3 17.3 132.0 24.7 129.1 30.9 127.7 37.6 131.0 44.0 129.9 52.8 130.7 58.9 130.5 65.0 131.6 71.4 129.5 77.3 130.2 84.4 129.9 90.4 129.6 96.5 128.8 106.3 131.4 110.7 130.4 117.3 130.6 123.3 131.4 129.8 130.7 131.2 126.1 129.4 117.9 127.7 111.0 129.9 103.3 130.0 97.5 130.6 91.9 129.3 83.8 130.4 76.8 129.0 70.3 128.0 64.2 129.9 58.8 129.8 50.8 129.1 43.3 131.3 37.0 131.4 32.7 128.7 24.1 129.5 18.8 131.0 11.2 130.7 5.4 129.8 4.7 130.3 5.2 122.6 6.2 118.0 5.5 109.0 4.2 104.0 5.8 97.8 5.5 90.9 5.7 83.6 4.0 77.9 7.8 71.9 5.6 64.2 4.3 58.3 6.3 50.6 4.5 45.5 4.6 38.9 5.0 32.8 3.3 24.0 3.5 18.4 5.2 10.7 6.4 4.5z" stroke="#013130" stroke-width="1" fill="transparent" />
        <path d="M 4.6 4.9 L  4.6 4.9 11.2 5.6 18.6 4.3 25.6 5.0 32.3 5.2 39.8 5.6 46.0 4.0 53.8 4.1 60.6 6.5 64.8 5.0 72.8 4.8 81.6 4.3 86.3 3.7 93.5 4.9 98.8 4.8 104.5 5.5 112.9 3.9 118.9 6.5 128.2 5.1 134.8 5.5 134.9 4.3 133.4 10.4 133.0 16.7 132.1 26.1 133.6 31.8 134.5 39.2 134.0 44.4 131.9 51.3 133.6 58.4 135.1 63.7 132.9 72.8 132.2 78.9 134.1 85.7 132.7 94.0 132.1 101.3 131.3 105.8 133.8 113.7 134.5 119.2 133.0 126.0 133.9 132.2 132.6 132.8 126.3 132.4 121.9 133.6 114.0 133.8 108.2 132.2 99.8 134.6 92.7 134.4 86.8 134.5 79.1 133.4 72.7 134.6 66.6 131.9 58.0 132.8 53.3 132.1 44.5 134.9 37.5 131.9 33.2 133.1 25.6 135.1 17.0 131.9 11.8 133.3 4.5 132.2 6.0 133.5 5.3 127.0 5.9 120.2 6.9 112.2 5.1 106.1 4.5 101.9 6.1 93.7 5.6 85.3 5.5 79.6 4.0 72.9 4.8 66.8 5.9 59.8 5.3 52.2 5.3 46.3 6.3 39.9 6.0 31.2 5.3 26.9 3.9 18.7 4.9 11.6 4.2 5.1z" stroke="#BF61BC" stroke-width="1" fill="transparent" />
        <path d="M 4.3 3.9 L  4.3 3.9 13.3 5.2 19.8 4.0 27.2 4.2 33.8 4.6 39.8 4.5 45.5 5.3 52.2 4.1 60.0 4.0 69.8 5.6 74.6 4.6 81.5 5.0 89.2 5.3 96.6 4.3 102.0 4.3 109.2 4.3 117.2 5.1 123.8 3.7 132.4 5.5 136.4 5.6 137.2 5.6 137.5 12.9 138.3 20.0 138.4 26.8 137.8 29.7 139.3 39.6 138.9 47.8 137.1 54.5 136.6 61.0 136.0 67.6 137.9 76.1 138.6 81.2 138.8 89.3 139.0 96.5 139.9 103.7 136.8 110.1 136.9 116.5 137.3 123.4 135.5 131.3 136.0 137.0 136.9 137.4 131.0 137.0 123.7 137.0 115.4 136.5 111.1 137.1 102.5 136.3 95.7 137.3 88.9 136.6 81.9 137.7 73.8 136.1 67.0 140.1 60.0 138.4 53.6 137.6 46.4 135.3 38.0 137.3 33.4 135.8 25.7 137.7 18.7 138.5 11.8 135.9 3.6 137.5 5.2 138.9 5.1 130.7 3.7 121.9 6.4 116.4 4.3 109.1 5.3 101.2 2.9 94.1 5.1 88.0 3.7 80.9 6.3 75.0 5.1 68.0 4.9 61.7 5.0 54.4 3.9 47.0 4.9 40.6 4.7 32.4 6.7 25.9 4.4 19.1 5.4 12.3 3.6 4.2z" stroke="#817FCB" stroke-width="1" fill="transparent" />
        <path d="M 6.2 4.2 L  6.2 4.2 10.8 5.7 20.4 6.0 25.4 5.1 32.6 4.7 38.9 5.6 45.6 3.8 54.0 4.9 63.7 6.1 68.8 4.7 74.6 3.8 82.8 5.1 90.9 5.2 97.8 4.8 104.8 4.7 110.1 5.7 118.8 3.6 126.8 5.3 133.0 5.1 140.8 4.3 139.4 5.1 140.0 12.9 139.3 20.5 141.6 27.5 141.9 32.5 138.5 40.8 139.7 47.1 140.2 52.6 140.1 62.0 140.8 69.7 141.3 76.8 139.3 85.3 140.1 91.4 139.8 95.8 138.9 104.9 139.2 112.0 141.2 119.5 139.9 126.3 138.8 132.6 138.4 139.6 139.7 140.1 132.9 141.2 127.9 140.9 119.1 139.7 112.9 140.2 104.3 138.1 96.9 139.4 89.9 140.2 82.4 141.6 75.9 139.3 68.2 138.8 63.2 139.5 53.8 138.9 48.8 139.6 40.0 140.9 32.3 140.2 27.2 140.2 18.1 138.4 11.3 141.2 6.4 139.1 6.8 140.0 5.9 133.1 5.4 126.6 4.5 119.4 4.8 111.3 5.6 104.9 2.7 96.7 4.5 91.0 4.4 81.6 4.4 77.4 5.2 70.0 3.9 61.2 4.5 53.4 4.5 46.8 6.8 40.4 6.2 32.6 4.3 27.9 4.1 20.0 4.8 12.2 3.6 5.3z" stroke="#25E678" stroke-width="1" fill="transparent" />
        <path d="M 4.3 5.0 L  4.3 5.0 15.2 4.3 18.9 4.2 26.0 6.3 33.1 4.2 42.2 6.0 48.1 6.5 55.4 8.1 62.6 4.7 71.5 4.6 77.5 4.2 86.8 5.5 91.8 5.8 102.1 4.6 106.6 4.5 116.3 4.7 120.7 3.7 129.2 5.2 136.7 5.7 143.3 3.6 144.5 5.0 144.3 12.0 144.1 18.2 143.3 24.5 143.5 34.8 142.9 40.7 142.2 50.6 141.7 57.2 144.3 62.8 143.0 70.1 142.7 77.8 142.3 86.4 142.8 93.1 145.1 100.3 143.6 106.1 143.6 114.0 142.2 123.4 144.0 130.2 142.8 135.1 143.4 144.3 145.0 143.0 135.9 143.8 128.9 142.7 121.4 143.4 115.7 143.1 107.0 143.0 100.3 143.1 89.6 142.9 84.4 142.9 75.9 142.2 71.0 141.7 65.3 143.0 55.7 141.8 50.5 141.5 41.4 142.2 35.0 142.2 28.1 143.6 20.3 143.1 12.1 143.1 5.8 143.7 5.2 143.4 4.2 137.7 4.6 129.7 4.5 122.8 7.6 114.3 5.1 107.8 4.9 100.9 5.5 92.2 5.5 86.4 4.1 77.8 6.2 70.3 3.8 62.0 5.4 56.5 5.0 47.0 4.6 42.8 6.0 34.9 5.5 27.8 4.7 20.7 4.3 11.7 5.1 4.2z" stroke="#387CC7" stroke-width="1" fill="transparent" />
        <path d="M 5.5 5.6 L  5.5 5.6 11.5 3.9 22.0 4.1 25.7 3.7 33.7 5.8 41.1 5.2 49.0 4.9 55.4 4.2 64.9 4.5 70.7 5.6 78.3 6.3 89.5 3.6 93.6 5.2 100.7 6.1 107.1 5.3 114.6 3.2 121.7 3.0 128.6 3.4 137.5 5.1 145.0 4.5 144.7 6.7 143.7 12.2 144.6 18.3 143.7 27.6 146.2 33.4 143.6 41.0 144.8 50.4 146.1 55.6 143.3 65.5 146.0 72.0 144.3 76.8 146.0 83.9 146.9 91.7 144.0 101.5 144.6 107.2 144.9 114.5 143.2 122.9 146.2 130.4 143.2 137.9 144.6 146.2 144.4 145.4 138.2 145.8 130.7 144.6 123.8 145.3 114.1 145.6 108.5 143.2 101.8 145.6 93.0 143.6 85.4 142.4 77.9 143.8 71.3 144.0 63.8 144.6 57.4 146.0 46.7 142.7 41.8 144.0 36.5 144.4 26.7 144.9 19.5 144.7 11.6 146.0 5.1 144.4 3.6 144.8 4.2 136.1 5.2 131.5 5.0 123.7 5.8 114.0 6.5 109.3 3.5 102.2 2.2 92.1 4.9 85.5 5.7 79.5 4.4 71.7 4.5 64.0 5.6 56.4 5.2 49.2 4.1 43.2 4.1 35.2 5.6 28.6 6.1 17.8 5.8 13.0 4.2 3.8z" stroke="#CB7ABF" stroke-width="1" fill="transparent" />
        <path d="M 5.4 5.5 L  5.4 5.5 12.8 6.2 21.2 5.5 27.2 4.2 34.2 5.9 43.3 4.5 49.5 3.4 57.6 5.7 64.9 4.5 72.6 3.9 79.7 4.5 85.9 5.6 94.9 3.1 103.8 4.9 110.6 4.5 116.4 5.9 124.9 5.3 132.7 4.5 140.0 6.3 147.0 5.0 148.1 5.3 145.3 12.4 149.0 20.1 147.1 26.5 147.9 35.9 147.3 43.3 147.7 51.1 147.1 57.9 147.2 65.6 147.4 73.5 147.9 80.1 148.4 88.6 148.1 94.1 146.9 102.9 149.7 108.9 146.9 116.5 146.2 124.7 145.7 133.1 148.6 142.4 147.9 148.5 148.5 145.6 141.3 146.9 133.9 148.2 126.2 146.9 117.0 148.9 109.9 147.4 101.4 146.2 95.0 147.4 86.6 147.6 79.2 146.8 70.9 147.1 64.2 146.4 59.2 147.4 50.2 149.4 43.2 146.6 32.6 148.0 28.2 147.0 19.0 147.9 10.0 146.7 6.3 147.2 3.8 148.2 4.2 141.0 4.6 132.0 4.4 126.6 5.6 117.3 3.2 110.2 6.0 103.4 3.4 95.2 5.2 86.2 3.2 81.5 3.8 70.5 3.0 65.1 6.9 55.7 3.8 48.4 2.3 42.9 4.9 34.4 6.4 28.6 4.1 19.9 4.6 11.5 8.0 5.2z" stroke="#DBA584" stroke-width="1" fill="transparent" />
        <path d="M 5.7 5.1 L  5.7 5.1 11.2 4.9 20.3 4.6 28.3 4.8 35.9 3.5 43.0 3.6 48.3 4.5 57.4 5.1 64.1 4.1 72.3 4.8 79.4 5.7 88.9 5.7 95.2 6.4 102.3 2.9 109.9 4.3 116.4 6.4 128.0 5.2 133.1 6.2 139.5 4.2 148.0 5.0 147.4 3.9 147.0 12.3 147.9 19.8 148.3 28.4 149.9 34.9 146.9 42.5 147.8 50.4 147.5 56.9 146.4 65.5 146.1 71.1 147.0 79.9 150.0 88.1 147.0 93.9 147.2 103.9 148.8 109.7 145.3 117.9 147.9 125.0 147.6 132.9 148.9 141.3 150.5 148.2 148.2 147.4 140.8 146.6 133.2 146.6 127.4 148.1 117.1 146.7 109.4 148.6 101.3 147.3 95.2 148.7 86.9 148.3 79.8 146.6 72.8 146.7 65.6 146.2 57.7 147.8 49.4 150.8 43.3 145.7 34.0 146.9 29.1 147.9 19.2 146.5 12.2 147.3 5.0 146.2 5.8 146.6 5.2 139.6 5.9 134.3 4.9 125.8 5.3 118.0 4.6 108.6 4.6 101.9 6.0 94.9 6.2 86.2 5.1 79.6 4.3 72.9 2.1 64.9 4.7 56.0 4.9 49.6 3.6 44.6 5.1 35.6 5.1 29.2 5.7 19.7 3.9 12.8 5.3 4.7z" stroke="#309A85" stroke-width="1" fill="transparent" />
        <path d="M 5.8 6.1 L  5.8 6.1 13.2 5.6 20.0 6.2 26.8 2.4 34.1 3.5 43.1 7.0 50.7 5.4 58.5 4.4 66.1 6.0 73.8 5.5 80.9 4.5 88.6 5.2 94.3 6.8 103.6 4.3 111.1 4.2 116.6 5.6 124.1 5.1 133.3 4.2 142.9 6.4 146.8 3.9 148.0 6.7 149.2 12.1 149.5 20.0 148.7 28.0 147.0 32.2 148.3 43.0 148.9 49.8 148.1 58.4 148.9 65.5 146.7 73.8 150.0 80.4 147.3 86.8 148.2 96.1 149.1 103.9 147.6 107.5 147.7 118.7 149.1 124.7 148.7 133.2 149.2 140.1 148.2 147.5 148.4 147.8 139.8 148.6 132.6 147.6 126.0 149.2 119.5 148.1 108.1 149.5 103.2 147.6 96.7 148.4 88.6 146.9 79.9 148.3 71.4 147.1 64.5 148.8 58.2 149.9 50.1 147.0 42.1 149.6 35.7 149.8 28.1 148.2 19.0 146.8 10.3 147.7 3.6 148.2 5.5 149.3 4.7 141.0 7.7 134.4 5.3 124.9 4.9 118.2 5.1 111.7 3.2 103.0 5.3 94.7 4.7 87.8 6.1 78.9 4.9 72.3 5.7 66.4 4.6 58.5 5.1 50.3 6.4 43.5 5.2 33.9 5.5 28.0 4.2 20.1 5.3 12.7 4.9 5.3z" stroke="#64D6E7" stroke-width="1" fill="transparent" />
        <path d="M 3.8 3.9 L  3.8 3.9 14.0 3.1 20.5 4.6 28.9 4.7 36.9 4.9 43.3 5.2 53.0 5.3 59.3 4.5 67.1 5.9 73.3 5.1 79.3 5.4 89.5 4.2 97.1 4.7 104.4 5.4 112.7 4.0 120.5 4.2 125.7 5.3 136.4 5.3 144.5 4.9 151.3 5.6 153.1 4.6 151.5 13.1 151.6 19.4 150.8 27.9 150.7 34.1 151.7 44.9 152.9 51.1 150.2 59.5 151.6 67.3 152.3 76.0 151.5 83.9 151.5 90.7 151.3 97.3 151.5 106.5 151.5 111.5 151.2 119.5 151.8 127.9 150.2 135.3 151.8 143.3 152.3 151.2 152.7 151.3 143.3 150.8 135.3 151.8 126.4 152.7 120.3 151.6 112.8 152.1 107.5 152.4 97.1 152.1 89.3 151.9 82.0 150.9 74.5 152.5 66.9 151.5 58.2 152.3 51.1 152.9 41.0 150.0 37.1 148.9 26.5 151.9 20.9 152.8 13.3 152.0 4.7 152.2 5.2 151.9 5.1 142.4 4.6 135.5 3.9 126.3 4.5 121.0 4.4 113.6 5.5 105.8 5.3 97.1 6.0 90.7 5.5 82.8 5.7 75.1 4.6 66.5 5.0 59.4 5.6 51.8 3.4 42.8 6.9 35.3 5.8 27.0 3.4 19.9 4.0 12.5 4.3 5.6z" stroke="#A142DE" stroke-width="1" fill="transparent" />
        <path d="M 5.4 3.7 L  5.4 3.7 11.4 4.9 22.2 3.8 28.1 2.6 37.3 6.0 44.4 4.6 52.4 6.0 60.3 5.1 69.1 2.3 74.9 2.9 83.3 2.0 93.5 4.3 99.0 4.8 106.1 2.7 116.0 4.7 123.1 5.0 131.1 4.9 140.6 5.8 148.4 4.8 155.1 5.5 155.5 5.4 153.7 13.6 155.3 19.6 154.4 29.4 154.1 37.0 155.5 42.5 156.4 51.3 155.3 61.5 154.6 68.9 154.3 76.9 154.6 83.4 155.6 90.7 155.5 101.9 154.1 107.4 153.6 114.3 153.5 123.7 155.6 131.2 155.3 139.1 154.1 147.9 155.4 155.0 154.4 153.8 146.8 154.8 138.2 153.5 130.1 157.0 124.6 154.8 115.3 154.8 109.7 156.5 99.4 156.4 91.1 155.3 83.7 155.2 78.2 155.0 67.7 154.6 61.3 153.6 52.7 154.1 44.5 155.0 35.2 154.4 28.8 155.0 20.9 156.5 11.4 155.5 4.8 154.7 4.0 157.3 6.7 147.2 4.4 138.7 7.4 129.0 5.6 123.6 5.0 115.4 4.9 106.1 3.8 97.9 5.1 90.6 6.0 84.5 5.0 76.7 3.4 67.5 6.2 60.6 5.7 51.5 5.8 44.2 5.1 36.9 4.5 27.9 6.0 18.8 5.7 14.5 6.1 3.9z" stroke="#389A1E" stroke-width="1" fill="transparent" />
        <path d="M 6.0 4.4 L  6.0 4.4 12.7 5.9 21.3 4.4 27.5 5.3 36.6 4.4 44.2 5.5 54.1 4.3 60.1 5.2 68.7 2.8 75.7 4.7 83.0 4.6 92.0 4.8 99.3 5.1 109.8 6.5 116.3 4.9 123.6 4.4 129.6 6.1 139.9 3.9 146.9 4.4 155.3 3.6 154.7 4.9 155.3 12.5 153.8 21.4 155.3 29.5 156.1 35.7 157.6 44.3 156.0 52.2 155.1 61.1 154.1 68.3 156.3 75.6 154.5 83.5 154.1 93.1 154.6 100.5 155.6 107.5 155.7 116.5 155.9 122.2 156.2 131.2 158.3 139.7 154.1 146.8 155.1 154.4 156.1 156.8 146.3 156.2 140.4 156.4 130.5 155.0 124.8 154.7 114.9 155.9 106.4 153.1 99.7 156.9 89.8 155.9 82.0 154.6 75.5 154.8 69.5 155.8 60.6 154.8 52.8 155.6 44.0 155.4 36.1 156.4 27.0 154.9 21.6 155.6 12.6 156.5 7.1 157.0 5.7 155.6 6.1 148.1 5.3 140.4 5.7 130.9 3.6 124.0 5.3 116.3 5.9 108.4 5.8 102.9 5.5 91.6 4.1 84.2 3.8 75.6 5.0 68.9 4.9 60.7 3.5 52.5 6.2 46.3 5.4 35.7 5.6 29.4 4.8 19.6 5.1 12.9 4.9 3.6z" stroke="#7FFD96" stroke-width="1" fill="transparent" />
        <path d="M 6.7 6.1 L  6.7 6.1 13.1 3.8 21.7 4.7 28.9 4.8 38.6 5.2 46.3 2.5 53.7 4.9 61.3 4.6 69.3 5.0 77.9 3.2 85.1 5.3 93.2 3.2 102.6 3.3 111.4 6.4 118.1 4.1 125.9 4.8 136.7 4.9 142.7 3.6 150.4 7.0 157.9 3.7 157.8 5.3 158.8 11.8 159.7 21.0 159.8 30.2 158.6 38.0 158.2 44.9 158.3 53.8 162.0 61.6 159.4 68.8 159.8 77.6 158.6 85.1 159.4 94.1 160.2 101.3 157.9 110.5 158.7 118.7 157.1 124.6 158.7 134.6 158.8 142.5 159.4 152.0 158.5 159.0 157.4 158.9 151.8 158.9 143.0 158.8 134.5 158.3 126.8 159.1 118.1 159.0 109.3 157.4 103.6 158.3 94.0 161.5 86.8 158.3 78.9 159.1 72.6 159.4 60.7 155.8 54.8 157.9 46.2 159.0 36.7 158.5 29.6 158.8 20.9 157.8 14.7 158.3 5.6 158.5 2.8 160.0 5.7 150.0 4.7 143.7 3.0 134.7 3.9 126.7 4.1 120.5 5.2 111.1 6.1 103.5 4.6 92.3 4.8 85.0 4.0 77.4 3.7 68.0 6.5 62.2 5.5 56.2 5.1 46.2 3.2 37.0 4.1 28.8 6.6 20.6 6.5 12.2 5.7 5.6z" stroke="#71FBB7" stroke-width="1" fill="transparent" />
        <path d="M 4.7 6.6 L  4.7 6.6 12.2 5.0 21.7 5.4 30.0 3.6 35.6 4.7 47.3 6.7 53.7 4.6 62.6 5.7 70.5 5.0 79.8 5.3 88.1 5.6 95.9 4.7 102.7 6.0 112.3 4.2 122.6 4.7 129.8 4.7 139.3 5.5 144.9 5.3 155.7 6.1 164.7 5.7 160.9 4.6 163.2 12.9 162.8 22.0 162.2 30.0 164.0 39.3 162.9 48.5 164.1 54.4 162.9 63.3 162.3 71.6 161.5 80.9 162.0 88.2 164.8 96.2 161.4 105.0 162.6 113.3 162.6 122.3 161.9 128.7 163.7 138.8 163.6 146.4 162.6 154.5 162.4 163.7 160.3 163.0 154.4 163.2 146.9 163.3 138.0 162.1 129.4 163.6 122.3 164.2 112.4 163.0 104.2 163.5 96.9 162.1 88.2 163.3 79.3 162.7 71.4 162.2 62.2 161.5 53.4 161.6 47.4 162.9 38.1 163.3 30.2 163.3 22.3 162.9 14.6 164.5 5.9 162.6 4.4 164.2 4.2 155.5 5.7 145.2 4.3 138.0 5.2 130.3 4.6 119.7 4.7 112.2 5.1 104.7 3.1 96.3 4.7 86.3 5.4 78.9 2.5 72.3 4.7 62.1 4.0 55.4 5.0 47.0 4.6 40.0 4.3 29.1 2.6 23.5 5.6 12.2 5.8 6.3z" stroke="#9800E7" stroke-width="1" fill="transparent" />
        <path d="M 5.2 4.5 L  5.2 4.5 13.1 3.9 22.8 4.5 30.2 5.1 37.8 4.8 47.5 3.7 53.8 3.8 64.5 4.8 73.1 4.9 80.6 4.3 87.3 4.2 97.5 6.1 104.9 2.4 114.3 3.5 121.6 2.9 129.8 4.8 140.0 3.8 147.7 4.9 155.4 3.8 165.4 3.3 163.3 6.7 164.3 12.3 164.4 21.4 164.2 29.8 164.7 39.3 163.2 45.4 164.2 54.8 164.8 64.8 164.8 71.8 166.6 81.9 163.6 89.2 164.7 96.5 165.0 107.1 165.2 112.7 167.1 121.7 166.9 129.9 165.9 139.4 163.9 146.3 165.2 157.2 164.6 165.3 166.1 166.7 155.8 165.2 146.3 164.3 138.7 163.7 131.3 164.8 121.6 165.6 115.3 165.8 105.6 164.6 97.1 164.8 87.8 163.7 79.8 164.2 72.3 166.1 65.0 163.0 56.6 165.8 47.1 165.4 36.7 162.6 30.0 165.4 22.0 163.9 13.9 164.9 6.5 165.5 5.6 166.1 5.5 157.0 4.5 147.5 5.1 139.3 6.6 131.0 5.1 122.2 5.6 115.2 4.6 103.8 4.7 97.6 3.6 89.5 6.3 81.2 5.6 70.0 4.3 63.4 6.0 56.7 5.5 46.0 5.1 38.7 6.6 30.2 5.0 22.3 5.8 14.1 4.7 5.4z" stroke="#0FB387" stroke-width="1" fill="transparent" />
        <path d="M 6.3 5.0 L  6.3 5.0 13.8 6.7 21.0 3.6 29.7 4.6 39.1 5.2 46.0 4.3 56.8 3.5 63.4 5.3 72.4 5.8 81.8 4.1 88.1 5.6 96.4 4.7 106.4 6.7 113.1 5.4 124.2 6.1 131.0 5.4 139.6 4.7 147.4 5.5 156.6 4.8 165.3 5.5 165.2 6.3 164.3 14.5 165.6 21.1 164.6 29.8 165.5 37.5 165.1 47.0 163.0 56.1 165.6 64.5 163.2 73.9 165.6 79.8 165.0 90.2 166.2 96.8 164.8 107.2 164.0 114.5 164.9 122.6 163.5 133.6 163.1 140.4 165.8 147.1 164.2 156.4 163.6 164.1 164.5 163.5 155.0 165.1 147.8 166.3 139.9 165.8 130.5 164.7 123.6 165.2 113.1 165.5 105.5 164.6 99.0 165.1 88.4 165.4 80.0 167.0 72.1 165.1 63.6 164.9 56.2 164.5 47.9 164.4 38.4 164.9 31.3 166.6 21.0 162.7 13.2 164.6 4.5 162.7 5.7 164.8 3.4 156.5 5.9 148.4 6.7 138.6 5.7 131.7 4.0 123.9 3.6 116.0 3.8 107.2 4.5 96.8 5.8 89.4 4.1 82.5 3.8 72.7 4.5 64.5 4.6 57.9 5.3 48.2 5.8 38.4 4.9 30.9 4.7 22.9 3.7 14.4 5.4 5.8z" stroke="#8AC063" stroke-width="1" fill="transparent" />
        <path d="M 4.8 6.6 L  4.8 6.6 15.3 4.5 21.8 5.3 30.0 4.6 39.9 3.9 47.5 4.6 56.6 5.3 63.2 4.7 74.9 4.6 81.8 5.5 89.5 6.1 98.2 5.8 106.0 4.5 113.9 3.2 125.5 5.1 133.3 4.3 141.7 5.1 152.9 3.8 159.4 4.3 166.4 4.9 169.6 5.2 167.4 13.0 165.8 21.4 165.8 30.6 168.4 41.3 168.2 47.9 166.9 56.3 166.9 65.6 168.2 73.1 169.0 82.0 167.9 90.9 166.5 98.1 167.8 108.1 168.0 116.0 169.1 125.5 166.0 130.8 168.2 140.5 167.0 152.5 167.9 159.2 167.9 167.2 167.2 166.2 159.0 167.4 151.0 167.3 141.8 167.2 133.0 168.1 123.0 168.0 116.8 168.5 106.6 167.1 99.9 167.5 89.2 167.4 80.9 167.6 71.0 166.1 65.3 166.9 54.8 168.3 47.1 169.8 40.0 168.0 32.1 167.0 22.2 165.3 13.8 168.2 5.7 167.3 5.5 167.0 4.7 159.1 4.6 152.5 5.6 142.6 5.6 133.4 6.9 126.9 5.6 116.8 5.6 108.9 4.2 99.2 6.4 90.2 6.6 81.5 6.5 72.9 4.3 67.1 6.9 57.6 4.4 48.5 1.9 38.4 7.8 29.5 3.8 23.9 3.7 13.7 4.5 3.5z" stroke="#B3111E" stroke-width="1" fill="transparent" />
        <path d="M 6.3 3.9 L  6.3 3.9 12.2 3.2 24.5 3.3 33.0 5.0 39.6 5.9 48.9 3.5 56.2 3.7 66.9 5.1 74.9 6.0 83.8 6.2 93.3 6.3 101.6 5.2 108.2 4.4 116.5 5.3 127.5 3.7 134.6 6.1 145.2 4.6 151.9 4.6 161.6 4.0 171.9 5.8 170.8 4.4 171.3 15.5 172.0 23.5 170.8 32.5 171.3 40.5 172.0 48.8 170.1 56.0 171.3 65.4 170.9 75.2 170.5 82.6 170.3 92.1 171.7 101.8 171.2 109.4 172.2 117.1 169.8 126.6 172.0 135.5 168.8 145.0 171.4 153.0 172.1 161.2 172.5 174.2 173.1 170.7 159.9 171.8 154.4 170.4 143.5 169.9 136.2 169.9 127.6 172.2 120.1 171.3 111.3 170.5 100.4 171.5 93.0 170.3 84.7 171.6 75.1 171.0 66.9 171.3 55.2 170.9 49.3 170.8 40.4 170.3 33.4 171.5 23.2 170.5 13.2 172.7 5.2 168.8 4.2 170.1 6.3 162.1 5.0 154.4 4.5 146.7 3.6 136.2 4.1 127.3 4.2 118.8 4.6 112.4 5.5 100.2 5.0 91.9 4.2 85.1 5.5 75.3 5.7 67.1 4.2 58.0 6.8 49.8 3.9 39.1 6.7 33.9 6.3 21.6 5.7 15.4 6.4 3.9z" stroke="#A49617" stroke-width="1" fill="transparent" />
        <path d="M 4.5 5.5 L  4.5 5.5 12.2 5.4 23.3 3.6 31.6 5.8 40.7 5.5 48.9 7.1 57.5 6.0 65.9 3.6 75.8 5.9 83.0 5.5 93.4 5.6 99.8 6.5 109.5 5.9 116.6 3.8 128.0 6.4 139.2 5.5 146.2 6.1 154.3 5.3 162.8 4.3 170.8 5.3 171.5 5.2 171.9 14.1 170.3 21.9 171.8 31.1 174.3 38.8 172.5 49.7 170.9 55.6 169.9 65.7 172.2 75.6 171.8 84.5 170.7 94.8 170.5 103.5 172.8 109.4 171.9 118.2 172.1 128.1 172.5 138.0 171.4 144.9 172.7 153.1 172.0 163.4 170.0 169.2 170.8 170.7 162.7 173.5 156.1 172.3 145.1 174.9 136.4 170.5 127.8 172.0 119.1 171.7 111.4 171.0 102.0 171.4 93.4 172.7 84.4 171.9 74.0 171.1 68.8 170.2 57.2 171.6 48.5 172.3 39.5 173.1 31.9 171.5 21.3 171.8 13.0 170.7 5.1 172.4 4.4 170.8 4.1 162.5 7.0 152.9 5.9 144.4 3.9 137.1 3.8 128.3 3.4 118.3 3.9 111.4 5.4 102.2 4.8 93.3 3.6 81.0 3.7 74.6 3.1 66.1 5.5 58.2 5.6 48.0 4.6 39.3 5.2 29.8 4.7 21.6 4.5 13.8 6.4 8.0z" stroke="#13F112" stroke-width="1" fill="transparent" />
        <path d="M 5.2 4.5 L  5.2 4.5 14.4 6.1 24.1 4.2 31.9 6.0 40.2 6.0 51.7 4.3 59.7 4.9 67.8 4.5 77.3 5.8 84.5 6.7 94.3 5.9 103.1 3.1 112.1 3.8 122.2 6.6 129.6 4.3 140.9 5.4 145.8 3.1 158.8 4.8 167.0 2.8 176.7 5.1 176.6 2.7 174.6 15.1 175.3 23.5 175.7 31.5 175.8 41.0 176.7 51.1 176.9 58.8 176.2 66.0 174.9 76.7 175.8 88.4 175.8 93.6 175.5 104.2 174.7 113.8 175.5 121.2 176.5 130.2 174.5 140.8 175.6 148.7 175.0 158.5 175.0 168.1 176.0 175.6 175.2 174.2 166.5 174.7 158.3 176.8 150.2 175.5 137.5 175.1 130.7 175.4 120.5 175.7 112.4 176.2 103.3 174.7 94.8 175.5 84.1 175.3 76.6 174.9 68.5 174.4 60.0 175.6 49.1 174.5 39.2 175.2 33.9 175.9 24.6 174.6 14.4 174.3 3.7 175.9 4.1 176.3 6.0 166.7 4.5 157.0 4.4 148.3 5.0 138.7 6.2 129.0 3.7 122.0 5.4 113.1 4.3 102.8 5.9 95.0 5.0 84.7 5.6 76.9 5.7 66.8 4.2 59.0 6.3 50.9 6.1 40.2 6.0 32.6 5.3 24.9 3.8 14.0 3.7 4.3z" stroke="#3F434E" stroke-width="1" fill="transparent" />
        <path d="M 5.6 6.2 L  5.6 6.2 13.4 3.8 23.8 3.8 33.2 6.1 40.9 6.4 49.7 5.0 56.4 3.5 67.3 5.0 77.3 5.0 85.9 4.9 96.2 5.4 104.7 6.4 112.3 5.2 123.0 5.2 130.6 4.7 139.0 5.9 148.6 3.8 157.4 6.4 166.0 5.5 176.0 5.6 175.0 5.0 175.9 13.9 176.6 23.9 176.3 32.1 175.4 41.9 175.7 48.3 174.9 59.5 176.5 67.4 176.7 76.1 175.8 88.1 174.4 94.0 174.8 105.9 175.3 112.5 176.5 122.3 174.8 132.9 176.5 140.5 175.0 148.6 175.2 158.3 175.7 167.3 175.1 176.8 176.4 174.2 168.1 174.1 157.0 174.9 148.8 176.7 141.2 176.5 131.0 176.7 120.7 176.2 113.6 176.2 102.7 175.5 94.6 175.5 88.0 175.7 76.8 176.6 68.2 175.5 57.9 175.6 50.5 176.2 42.9 174.3 31.6 174.4 22.4 176.2 14.6 177.0 5.0 178.0 5.3 177.2 4.6 167.4 5.3 156.9 6.1 149.6 5.4 139.0 4.0 130.6 4.0 123.4 4.4 113.8 5.6 103.3 6.3 95.3 5.1 86.8 5.6 77.7 4.1 67.4 4.6 57.6 4.8 49.6 5.5 42.0 5.0 31.0 3.3 22.9 5.6 13.1 4.9 7.3z" stroke="#C01E6C" stroke-width="1" fill="transparent" />
        <path d="M 5.6 4.6 L  5.6 4.6 15.1 4.2 24.2 5.5 31.1 6.1 41.9 4.2 51.1 4.9 60.1 4.8 67.7 4.9 77.5 4.3 88.1 4.2 97.6 6.2 106.9 4.6 114.4 5.6 124.0 5.9 132.1 4.3 141.0 4.5 152.0 5.1 161.1 5.5 168.0 4.0 177.7 3.5 177.5 5.1 178.9 13.4 178.0 23.1 177.2 31.7 177.8 41.4 178.1 51.8 177.4 59.7 177.3 69.5 178.3 77.7 179.4 87.6 180.3 96.6 178.5 105.1 178.7 115.3 179.9 121.9 177.4 132.2 179.4 141.7 178.3 150.1 177.7 159.3 177.8 168.8 176.8 177.3 179.3 178.9 169.6 179.9 161.7 178.0 151.5 178.6 141.8 178.2 134.2 179.4 125.7 177.9 114.8 178.4 104.5 179.5 97.5 177.9 84.4 178.3 78.7 179.0 69.4 179.5 59.5 179.5 50.4 178.5 42.2 179.5 30.6 179.5 22.8 180.5 13.5 179.4 3.2 179.5 2.8 178.6 4.9 168.6 4.7 160.4 4.5 150.7 4.0 141.0 5.0 132.8 4.1 122.6 5.4 112.9 4.2 106.1 2.2 96.5 5.2 88.3 6.8 79.5 3.9 69.1 6.6 59.6 5.5 50.7 3.9 40.0 6.2 33.7 5.1 22.2 3.8 14.3 7.5 5.3z" stroke="#2B2706" stroke-width="1" fill="transparent" />
    </g> 
</svg>