<?xml version="1.0" encoding="UTF-8" standalone="no"?>
<svg width="1000" height="500" version="1.1" xmlns="http://www.w3.org/2000/svg">
    <g opacity="1.0">
        <style> path { stroke: #33FFC9; stroke-width: 1; fill: transparent; } </style>
        <path d="M 46.2 255.3 L  46.2 255.3 48.0 256.9 49.7 257.7 51.4 258.1 53.1 258.1 54.8 257.7 56.6 256.9 58.3 255.3 60.0 250.4 60.0 250.4 58.3 245.6 56.6 244.0 54.8 243.1 53.1 242.8 51.4 242.8 49.7 243.1 48.0 244.0 46.2 245.6 44.5 250.4 44.5 250.4z"/>
        <path d="M 53.0 263.4 L  53.0 263.4 56.1 264.1 59.1 264.1 62.1 263.4 65.1 261.9 68.1 259.2 71.2 250.6 71.2 250.6 68.1 242.1 65.1 239.3 62.1 237.8 59.1 237.1 56.1 237.1 53.0 237.8 50.0 239.3 47.0 242.1 44.0 250.6 44.0 250.6 47.0 259.2 50.0 261.9z"/>
        <path d="M 54.0 239.3 L  54.0 239.3 50.7 242.2 47.5 251.3 47.5 251.3 50.7 260.4 54.0 263.4 57.2 265.0 60.4 265.7 63.6 265.7 66.8 265.0 70.1 263.4 73.3 260.4 76.5 251.3 76.5 251.3 73.3 242.2 70.1 239.3 66.8 237.7 63.6 236.9 60.4 236.9 57.2 237.7z"/>
        <path d="M 77.9 264.3 L  77.9 264.3 81.1 261.3 84.4 252.1 84.4 252.1 81.1 243.0 77.9 240.0 74.7 238.4 71.4 237.6 68.2 237.6 64.9 238.4 61.7 240.0 58.5 243.0 55.2 252.1 55.2 252.1 58.5 261.3 61.7 264.3 64.9 265.9 68.2 266.6 71.4 266.6 74.7 265.9z"/>
        <path d="M 58.6 240.2 L  58.6 240.2 54.2 252.8 54.2 252.8 58.6 265.4 63.1 269.4 67.5 271.7 72.0 272.7 76.4 272.7 80.9 271.7 85.3 269.4 89.8 265.4 94.2 252.8 94.2 252.8 89.8 240.2 85.3 236.2 80.9 233.9 76.4 232.9 72.0 232.9 67.5 233.9 63.1 236.2z"/>
        <path d="M 61.7 267.7 L  61.7 267.7 66.7 272.3 71.7 274.8 76.6 275.9 81.6 275.9 86.6 274.8 91.6 272.3 96.6 267.7 101.6 253.6 101.6 253.6 96.6 239.5 91.6 234.9 86.6 232.4 81.6 231.3 76.6 231.3 71.7 232.4 66.7 234.9 61.7 239.5 56.7 253.6 56.7 253.6z"/>
        <path d="M 99.0 268.6 L  99.0 268.6 104.0 254.4 104.0 254.4 99.0 240.1 94.0 235.5 88.9 233.0 83.9 231.8 78.8 231.8 73.8 233.0 68.8 235.5 63.7 240.1 58.7 254.4 58.7 254.4 63.7 268.6 68.8 273.2 73.8 275.7 78.8 276.9 83.9 276.9 88.9 275.7 94.0 273.2z"/>
        <path d="M 81.4 231.4 L  81.4 231.4 76.1 232.7 70.8 235.3 65.5 240.1 60.2 255.1 60.2 255.1 65.5 270.1 70.8 274.9 76.1 277.6 81.4 278.8 86.7 278.8 91.9 277.6 97.2 274.9 102.5 270.1 107.8 255.1 107.8 255.1 102.5 240.1 97.2 235.3 91.9 232.7 86.7 231.4z"/>
        <path d="M 75.7 276.2 L  75.7 276.2 81.2 279.0 86.6 280.2 92.0 280.2 97.5 279.0 102.9 276.2 108.3 271.3 113.8 255.9 113.8 255.9 108.3 240.5 102.9 235.6 97.5 232.9 92.0 231.6 86.6 231.6 81.2 232.9 75.7 235.6 70.3 240.5 64.9 255.9 64.9 255.9 70.3 271.3z"/>
        <path d="M 87.4 279.8 L  87.4 279.8 92.8 281.0 98.2 281.0 103.7 279.8 109.1 277.0 114.6 272.1 120.0 256.7 120.0 256.7 114.6 241.3 109.1 236.3 103.7 233.6 98.2 232.3 92.8 232.3 87.4 233.6 81.9 236.3 76.5 241.3 71.0 256.7 71.0 256.7 76.5 272.1 81.9 277.0z"/>
        <path d="M 114.8 234.5 L  114.8 234.5 108.7 231.4 102.5 230.0 96.4 230.0 90.3 231.4 84.2 234.5 78.1 240.1 71.9 257.4 71.9 257.4 78.1 274.7 84.2 280.3 90.3 283.4 96.4 284.8 102.5 284.8 108.7 283.4 114.8 280.3 120.9 274.7 127.0 257.4 127.0 257.4 120.9 240.1z"/>
        <path d="M 89.2 288.6 L  89.2 288.6 96.6 290.3 103.9 290.3 111.3 288.6 118.6 284.9 126.0 278.2 133.3 257.4 133.3 257.4 126.0 236.6 118.6 229.9 111.3 226.2 103.9 224.6 96.6 224.6 89.2 226.2 81.9 229.9 74.5 236.6 67.2 257.4 67.2 257.4 74.5 278.2 81.9 284.9z"/>
        <path d="M 126.1 225.8 L  126.1 225.8 117.5 221.5 109.0 219.5 100.4 219.5 91.9 221.5 83.3 225.8 74.8 233.6 66.2 257.8 66.2 257.8 74.8 281.9 83.3 289.7 91.9 294.0 100.4 296.0 109.0 296.0 117.5 294.0 126.1 289.7 134.6 281.9 143.1 257.8 143.1 257.8 134.6 233.6z"/>
        <path d="M 82.6 282.8 L  82.6 282.8 91.2 290.6 99.8 294.9 108.3 296.9 116.9 296.9 125.4 294.9 134.0 290.6 142.5 282.8 151.1 258.6 151.1 258.6 142.5 234.4 134.0 226.6 125.4 222.3 116.9 220.3 108.3 220.3 99.8 222.3 91.2 226.6 82.6 234.4 74.1 258.6 74.1 258.6z"/>
        <path d="M 81.9 286.3 L  81.9 286.3 91.7 295.2 101.4 300.1 111.2 302.3 120.9 302.3 130.7 300.1 140.4 295.2 150.2 286.3 159.9 258.7 159.9 258.7 150.2 231.1 140.4 222.2 130.7 217.3 120.9 215.1 111.2 215.1 101.4 217.3 91.7 222.2 81.9 231.1 72.2 258.7 72.2 258.7z"/>
        <path d="M 166.1 259.6 L  166.1 259.6 166.1 259.6 156.2 231.6 146.4 222.6 136.5 217.7 126.6 215.4 116.7 215.4 106.8 217.7 96.9 222.6 87.0 231.6 77.1 259.6 77.1 259.6 87.0 287.6 96.9 296.6 106.8 301.5 116.7 303.8 126.6 303.8 136.5 301.5 146.4 296.6 156.2 287.6z"/>
        <path d="M 132.8 309.5 L  132.8 309.5 143.8 307.0 154.8 301.5 165.7 291.5 176.7 260.4 176.7 260.4 165.7 229.4 154.8 219.4 143.8 213.9 132.8 211.4 121.9 211.4 110.9 213.9 99.9 219.4 89.0 229.4 78.0 260.4 78.0 260.4 89.0 291.5 99.9 301.5 110.9 307.0 121.9 309.5z"/>
        <path d="M 186.6 260.6 L  186.6 260.6 186.6 260.6 174.5 226.4 162.4 215.4 150.3 209.3 138.2 206.5 126.1 206.5 114.0 209.3 101.9 215.4 89.8 226.4 77.7 260.6 77.7 260.6 89.8 294.9 101.9 305.9 114.0 312.0 126.1 314.7 138.2 314.7 150.3 312.0 162.4 305.9 174.5 294.9z"/>
        <path d="M 182.9 225.0 L  182.9 225.0 170.3 213.5 157.7 207.2 145.1 204.3 132.5 204.3 119.9 207.2 107.3 213.5 94.7 225.0 82.1 260.7 82.1 260.7 94.7 296.3 107.3 307.8 119.9 314.1 132.5 317.0 145.1 317.0 157.7 314.1 170.3 307.8 182.9 296.3 195.5 260.7 195.5 260.7z"/>
        <path d="M 162.9 318.6 L  162.9 318.6 176.4 311.9 189.9 299.5 203.4 261.3 203.4 261.3 189.9 223.1 176.4 210.8 162.9 204.0 149.3 200.9 135.8 200.9 122.3 204.0 108.8 210.8 95.3 223.1 81.8 261.3 81.8 261.3 95.3 299.5 108.8 311.9 122.3 318.6 135.8 321.7 149.3 321.7z"/>
        <path d="M 98.6 221.7 L  98.6 221.7 84.2 262.2 84.2 262.2 98.6 302.6 112.9 315.7 127.2 322.9 141.5 326.2 155.8 326.2 170.1 322.9 184.4 315.7 198.7 302.6 213.0 262.2 213.0 262.2 198.7 221.7 184.4 208.6 170.1 201.5 155.8 198.2 141.5 198.2 127.2 201.5 112.9 208.6z"/>
        <path d="M 175.7 200.1 L  175.7 200.1 161.0 196.7 146.4 196.7 131.7 200.1 117.0 207.4 102.4 220.8 87.7 262.3 87.7 262.3 102.4 303.7 117.0 317.1 131.7 324.5 146.4 327.8 161.0 327.8 175.7 324.5 190.3 317.1 205.0 303.7 219.7 262.3 219.7 262.3 205.0 220.8 190.3 207.4z"/>
        <path d="M 116.3 321.0 L  116.3 321.0 131.8 328.8 147.2 332.3 162.7 332.3 178.2 328.8 193.7 321.0 209.1 306.9 224.6 263.1 224.6 263.1 209.1 219.4 193.7 205.2 178.2 197.5 162.7 193.9 147.2 193.9 131.8 197.5 116.3 205.2 100.8 219.4 85.3 263.1 85.3 263.1 100.8 306.9z"/>
        <path d="M 136.0 332.7 L  136.0 332.7 152.2 336.4 168.4 336.4 184.6 332.7 200.8 324.6 216.9 309.8 233.1 264.0 233.1 264.0 216.9 218.2 200.8 203.4 184.6 195.3 168.4 191.6 152.2 191.6 136.0 195.3 119.8 203.4 103.6 218.2 87.4 264.0 87.4 264.0 103.6 309.8 119.8 324.6z"/>
        <path d="M 135.5 338.6 L  135.5 338.6 152.8 342.5 170.2 342.5 187.6 338.6 204.9 329.9 222.3 314.0 239.7 264.9 239.7 264.9 222.3 215.8 204.9 199.9 187.6 191.2 170.2 187.2 152.8 187.2 135.5 191.2 118.1 199.9 100.8 215.8 83.4 264.9 83.4 264.9 100.8 314.0 118.1 329.9z"/>
        <path d="M 141.8 189.2 L  141.8 189.2 123.9 198.1 106.1 214.5 88.2 265.1 88.2 265.1 106.1 315.7 123.9 332.1 141.8 341.0 159.7 345.1 177.6 345.1 195.5 341.0 213.4 332.1 231.3 315.7 249.2 265.1 249.2 265.1 231.3 214.5 213.4 198.1 195.5 189.2 177.6 185.1 159.7 185.1z"/>
        <path d="M 160.7 185.1 L  160.7 185.1 142.7 189.2 124.7 198.2 106.7 214.7 88.6 265.6 88.6 265.6 106.7 316.6 124.7 333.1 142.7 342.1 160.7 346.2 178.7 346.2 196.8 342.1 214.8 333.1 232.8 316.6 250.8 265.6 250.8 265.6 232.8 214.7 214.8 198.2 196.8 189.2 178.7 185.1z"/>
        <path d="M 85.1 265.7 L  85.1 265.7 85.1 265.7 104.3 320.2 123.6 337.8 142.9 347.4 162.1 351.9 181.4 351.9 200.7 347.4 219.9 337.8 239.2 320.2 258.5 265.7 258.5 265.7 239.2 211.2 219.9 193.6 200.7 184.0 181.4 179.6 162.1 179.6 142.9 184.0 123.6 193.6 104.3 211.2z"/>
        <path d="M 125.3 338.2 L  125.3 338.2 144.5 347.9 163.8 352.3 183.1 352.3 202.3 347.9 221.6 338.2 240.9 320.6 260.1 266.1 260.1 266.1 240.9 211.6 221.6 194.1 202.3 184.4 183.1 180.0 163.8 180.0 144.5 184.4 125.3 194.1 106.0 211.6 86.8 266.1 86.8 266.1 106.0 320.6z"/>
        <path d="M 92.7 266.5 L  92.7 266.5 92.7 266.5 112.3 322.1 132.0 340.0 151.7 349.9 171.3 354.4 191.0 354.4 210.6 349.9 230.3 340.0 250.0 322.1 269.6 266.5 269.6 266.5 250.0 210.9 230.3 192.9 210.6 183.1 191.0 178.5 171.3 178.5 151.7 183.1 132.0 192.9 112.3 210.9z"/>
        <path d="M 216.5 178.9 L  216.5 178.9 195.8 174.2 175.1 174.2 154.5 178.9 133.8 189.3 113.1 208.2 92.4 266.6 92.4 266.6 113.1 325.1 133.8 344.0 154.5 354.3 175.1 359.1 195.8 359.1 216.5 354.3 237.1 344.0 257.8 325.1 278.5 266.6 278.5 266.6 257.8 208.2 237.1 189.3z"/>
        <path d="M 289.9 267.5 L  289.9 267.5 268.3 206.5 246.7 186.7 225.1 175.9 203.5 171.0 182.0 171.0 160.4 175.9 138.8 186.7 117.2 206.5 95.6 267.5 95.6 267.5 117.2 328.5 138.8 348.3 160.4 359.1 182.0 364.0 203.5 364.0 225.1 359.1 246.7 348.3 268.3 328.5 289.9 267.5z"/>
        <path d="M 252.6 185.0 L  252.6 185.0 230.3 173.9 208.1 168.8 185.8 168.8 163.6 173.9 141.4 185.0 119.1 205.4 96.9 268.3 96.9 268.3 119.1 331.2 141.4 351.5 163.6 362.6 185.8 367.7 208.1 367.7 230.3 362.6 252.6 351.5 274.8 331.2 297.0 268.3 297.0 268.3 274.8 205.4z"/>
        <path d="M 187.0 373.8 L  187.0 373.8 210.5 373.8 234.0 368.4 257.6 356.6 281.1 335.1 304.7 268.5 304.7 268.5 281.1 201.9 257.6 180.4 234.0 168.6 210.5 163.2 187.0 163.2 163.4 168.6 139.9 180.4 116.3 201.9 92.8 268.5 92.8 268.5 116.3 335.1 139.9 356.6 163.4 368.4z"/>
        <path d="M 311.5 269.0 L  311.5 269.0 287.0 199.9 262.6 177.6 238.1 165.3 213.7 159.7 189.3 159.7 164.8 165.3 140.4 177.6 115.9 199.9 91.5 269.0 91.5 269.0 115.9 338.2 140.4 360.5 164.8 372.7 189.3 378.4 213.7 378.4 238.1 372.7 262.6 360.5 287.0 338.2 311.5 269.0z"/>
        <path d="M 216.6 155.2 L  216.6 155.2 191.1 155.2 165.6 161.1 140.1 173.9 114.6 197.1 89.1 269.3 89.1 269.3 114.6 341.4 140.1 364.7 165.6 377.4 191.1 383.3 216.6 383.3 242.1 377.4 267.6 364.7 293.1 341.4 318.6 269.3 318.6 269.3 293.1 197.1 267.6 173.9 242.1 161.1z"/>
        <path d="M 323.7 269.7 L  323.7 269.7 297.3 195.0 270.9 171.0 244.5 157.7 218.1 151.7 191.7 151.7 165.3 157.7 139.0 171.0 112.6 195.0 86.2 269.7 86.2 269.7 112.6 344.3 139.0 368.4 165.3 381.6 191.7 387.7 218.1 387.7 244.5 381.6 270.9 368.4 297.3 344.3 323.7 269.7z"/>
        <path d="M 142.4 372.6 L  142.4 372.6 169.8 386.3 197.2 392.6 224.6 392.6 252.0 386.3 279.4 372.6 306.8 347.6 334.2 270.1 334.2 270.1 306.8 192.6 279.4 167.5 252.0 153.8 224.6 147.5 197.2 147.5 169.8 153.8 142.4 167.5 115.0 192.6 87.6 270.1 87.6 270.1 115.0 347.6z"/>
        <path d="M 200.6 396.1 L  200.6 396.1 228.5 396.1 256.5 389.6 284.4 375.6 312.4 350.1 340.4 271.0 340.4 271.0 312.4 191.9 284.4 166.4 256.5 152.4 228.5 146.0 200.6 146.0 172.6 152.4 144.6 166.4 116.7 191.9 88.7 271.0 88.7 271.0 116.7 350.1 144.6 375.6 172.6 389.6z"/>
        <path d="M 204.1 146.2 L  204.1 146.2 176.1 152.6 148.1 166.6 120.1 192.2 92.1 271.3 92.1 271.3 120.1 350.4 148.1 376.0 176.1 390.0 204.1 396.4 232.1 396.4 260.0 390.0 288.0 376.0 316.0 350.4 344.0 271.3 344.0 271.3 316.0 192.2 288.0 166.6 260.0 152.6 232.1 146.2z"/>
        <path d="M 181.4 391.7 L  181.4 391.7 209.8 398.2 238.1 398.2 266.4 391.7 294.7 377.5 323.0 351.6 351.3 271.5 351.3 271.5 323.0 191.4 294.7 165.6 266.4 151.4 238.1 144.9 209.8 144.9 181.4 151.4 153.1 165.6 124.8 191.4 96.5 271.5 96.5 271.5 124.8 351.6 153.1 377.5z"/>
        <path d="M 181.5 396.8 L  181.5 396.8 210.9 403.6 240.2 403.6 269.5 396.8 298.9 382.1 328.2 355.4 357.5 272.4 357.5 272.4 328.2 189.4 298.9 162.6 269.5 147.9 240.2 141.2 210.9 141.2 181.5 147.9 152.2 162.6 122.9 189.4 93.6 272.4 93.6 272.4 122.9 355.4 152.2 382.1z"/>
        <path d="M 128.9 356.3 L  128.9 356.3 158.4 383.3 188.0 398.1 217.6 404.9 247.1 404.9 276.7 398.1 306.2 383.3 335.8 356.3 365.4 272.7 365.4 272.7 335.8 189.1 306.2 162.1 276.7 147.3 247.1 140.5 217.6 140.5 188.0 147.3 158.4 162.1 128.9 189.1 99.3 272.7 99.3 272.7z"/>
        <path d="M 344.7 358.8 L  344.7 358.8 375.1 272.7 375.1 272.7 344.7 186.7 314.3 158.9 283.9 143.7 253.4 136.7 223.0 136.7 192.6 143.7 162.2 158.9 131.8 186.7 101.4 272.7 101.4 272.7 131.8 358.8 162.2 386.5 192.6 401.8 223.0 408.8 253.4 408.8 283.9 401.8 314.3 386.5z"/>
        <path d="M 197.7 139.5 L  197.7 139.5 166.1 155.4 134.5 184.2 102.9 273.6 102.9 273.6 134.5 363.0 166.1 391.9 197.7 407.7 229.3 414.9 260.9 414.9 292.5 407.7 324.1 391.9 355.7 363.0 387.3 273.6 387.3 273.6 355.7 184.2 324.1 155.4 292.5 139.5 260.9 132.3 229.3 132.3z"/>
        <path d="M 133.2 366.3 L  133.2 366.3 165.9 396.1 198.5 412.4 231.1 419.9 263.8 419.9 296.4 412.4 329.0 396.1 361.6 366.3 394.3 274.0 394.3 274.0 361.6 181.7 329.0 151.9 296.4 135.6 263.8 128.1 231.1 128.1 198.5 135.6 165.9 151.9 133.2 181.7 100.6 274.0 100.6 274.0z"/>
        <path d="M 298.6 416.8 L  298.6 416.8 332.2 400.0 365.8 369.2 399.5 274.1 399.5 274.1 365.8 179.0 332.2 148.2 298.6 131.4 264.9 123.7 231.3 123.7 197.6 131.4 164.0 148.2 130.4 179.0 96.7 274.1 96.7 274.1 130.4 369.2 164.0 400.0 197.6 416.8 231.3 424.5 264.9 424.5z"/>
        <path d="M 201.8 418.0 L  201.8 418.0 235.5 425.7 269.2 425.7 302.8 418.0 336.5 401.1 370.2 370.3 403.9 275.1 403.9 275.1 370.2 179.8 336.5 149.1 302.8 132.2 269.2 124.5 235.5 124.5 201.8 132.2 168.1 149.1 134.5 179.8 100.8 275.1 100.8 275.1 134.5 370.3 168.1 401.1z"/>
        <path d="M 343.9 144.9 L  343.9 144.9 309.1 127.4 274.3 119.4 239.5 119.4 204.6 127.4 169.8 144.9 135.0 176.7 100.2 275.2 100.2 275.2 135.0 373.7 169.8 405.5 204.6 422.9 239.5 430.9 274.3 430.9 309.1 422.9 343.9 405.5 378.8 373.7 413.6 275.2 413.6 275.2 378.8 176.7z"/>
        <path d="M 275.2 114.1 L  275.2 114.1 239.1 114.1 202.9 122.4 166.8 140.5 130.6 173.5 94.5 275.8 94.5 275.8 130.6 378.1 166.8 411.1 202.9 429.2 239.1 437.5 275.2 437.5 311.4 429.2 347.5 411.1 383.7 378.1 419.8 275.8 419.8 275.8 383.7 173.5 347.5 140.5 311.4 122.4z"/>
        <path d="M 169.4 412.9 L  169.4 412.9 205.9 431.2 242.4 439.6 278.9 439.6 315.4 431.2 351.9 412.9 388.4 379.6 424.9 276.4 424.9 276.4 388.4 173.2 351.9 139.8 315.4 121.5 278.9 113.2 242.4 113.2 205.9 121.5 169.4 139.8 132.9 173.2 96.4 276.4 96.4 276.4 132.9 379.6z"/>
        <path d="M 322.8 433.5 L  322.8 433.5 359.7 415.0 396.5 381.3 433.4 277.0 433.4 277.0 396.5 172.7 359.7 139.0 322.8 120.6 285.9 112.1 249.0 112.1 212.2 120.6 175.3 139.0 138.4 172.7 101.5 277.0 101.5 277.0 138.4 381.3 175.3 415.0 212.2 433.5 249.0 441.9 285.9 441.9z"/>
        <path d="M 401.0 383.0 L  401.0 383.0 438.2 277.8 438.2 277.8 401.0 172.7 363.9 138.7 326.7 120.1 289.5 111.5 252.3 111.5 215.1 120.1 177.9 138.7 140.7 172.7 103.6 277.8 103.6 277.8 140.7 383.0 177.9 417.0 215.1 435.6 252.3 444.1 289.5 444.1 326.7 435.6 363.9 417.0z"/>
        <path d="M 259.6 444.4 L  259.6 444.4 296.8 444.4 334.0 435.9 371.2 417.2 408.4 383.2 445.7 278.0 445.7 278.0 408.4 172.7 371.2 138.7 334.0 120.1 296.8 111.6 259.6 111.6 222.4 120.1 185.2 138.7 148.0 172.7 110.7 278.0 110.7 278.0 148.0 383.2 185.2 417.2 222.4 435.9z"/>
        <path d="M 149.5 172.7 L  149.5 172.7 112.2 278.1 112.2 278.1 149.5 383.4 186.8 417.5 224.0 436.1 261.3 444.7 298.5 444.7 335.8 436.1 373.1 417.5 410.3 383.4 447.6 278.1 447.6 278.1 410.3 172.7 373.1 138.7 335.8 120.0 298.5 111.4 261.3 111.4 224.0 120.0 186.8 138.7z"/>
        <path d="M 113.1 278.2 L  113.1 278.2 113.1 278.2 150.7 384.5 188.3 418.8 225.9 437.7 263.4 446.3 301.0 446.3 338.6 437.7 376.2 418.8 413.8 384.5 451.3 278.2 451.3 278.2 413.8 171.9 376.2 137.6 338.6 118.8 301.0 110.2 263.4 110.2 225.9 118.8 188.3 137.6 150.7 171.9z"/>
        <path d="M 454.1 278.8 L  454.1 278.8 416.1 171.5 378.2 136.8 340.2 117.8 302.3 109.1 264.3 109.1 226.3 117.8 188.4 136.8 150.4 171.5 112.5 278.8 112.5 278.8 150.4 386.2 188.4 420.9 226.3 439.9 264.3 448.6 302.3 448.6 340.2 439.9 378.2 420.9 416.1 386.2 454.1 278.8z"/>
        <path d="M 148.4 169.5 L  148.4 169.5 109.6 279.2 109.6 279.2 148.4 388.8 187.2 424.3 225.9 443.7 264.7 452.6 303.5 452.6 342.3 443.7 381.0 424.3 419.8 388.8 458.6 279.2 458.6 279.2 419.8 169.5 381.0 134.1 342.3 114.7 303.5 105.8 264.7 105.8 225.9 114.7 187.2 134.1z"/>
        <path d="M 464.6 279.3 L  464.6 279.3 425.6 169.2 386.7 133.6 347.8 114.1 308.9 105.2 269.9 105.2 231.0 114.1 192.1 133.6 153.1 169.2 114.2 279.3 114.2 279.3 153.1 389.4 192.1 425.0 231.0 444.5 269.9 453.4 308.9 453.4 347.8 444.5 386.7 425.0 425.6 389.4 464.6 279.3z"/>
        <path d="M 471.4 279.3 L  471.4 279.3 432.4 169.1 393.4 133.6 354.5 114.0 315.5 105.1 276.6 105.1 237.6 114.0 198.7 133.6 159.7 169.1 120.7 279.3 120.7 279.3 159.7 389.5 198.7 425.1 237.6 444.6 276.6 453.5 315.5 453.5 354.5 444.6 393.4 425.1 432.4 389.5 471.4 279.3z"/>
        <path d="M 282.7 105.0 L  282.7 105.0 243.7 114.0 204.7 133.5 165.7 169.1 126.8 279.3 126.8 279.3 165.7 389.6 204.7 425.2 243.7 444.7 282.7 453.6 321.6 453.6 360.6 444.7 399.6 425.2 438.5 389.6 477.5 279.3 477.5 279.3 438.5 169.1 399.6 133.5 360.6 114.0 321.6 105.0z"/>
        <path d="M 444.9 390.2 L  444.9 390.2 483.9 279.7 483.9 279.7 444.9 169.2 405.8 133.5 366.7 113.9 327.7 105.0 288.6 105.0 249.5 113.9 210.5 133.5 171.4 169.2 132.3 279.7 132.3 279.7 171.4 390.2 210.5 425.8 249.5 445.4 288.6 454.4 327.7 454.4 366.7 445.4 405.8 425.8z"/>
        <path d="M 296.2 104.6 L  296.2 104.6 257.1 113.6 217.9 133.2 178.8 169.0 139.6 279.7 139.6 279.7 178.8 390.4 217.9 426.2 257.1 445.8 296.2 454.8 335.4 454.8 374.5 445.8 413.7 426.2 452.8 390.4 492.0 279.7 492.0 279.7 452.8 169.0 413.7 133.2 374.5 113.6 335.4 104.6z"/>
        <path d="M 302.2 458.6 L  302.2 458.6 342.0 458.6 381.9 449.5 421.7 429.5 461.5 393.1 501.4 280.5 501.4 280.5 461.5 167.8 421.7 131.4 381.9 111.4 342.0 102.3 302.2 102.3 262.3 111.4 222.5 131.4 182.6 167.8 142.8 280.5 142.8 280.5 182.6 393.1 222.5 429.5 262.3 449.5z"/>
        <path d="M 387.4 110.2 L  387.4 110.2 347.2 101.0 306.9 101.0 266.7 110.2 226.4 130.4 186.2 167.2 145.9 281.0 145.9 281.0 186.2 394.9 226.4 431.6 266.7 451.8 306.9 461.0 347.2 461.0 387.4 451.8 427.7 431.6 467.9 394.9 508.2 281.0 508.2 281.0 467.9 167.2 427.7 130.4z"/>
        <path d="M 473.7 395.2 L  473.7 395.2 514.0 281.1 514.0 281.1 473.7 166.9 433.3 130.1 392.9 109.8 352.6 100.6 312.2 100.6 271.8 109.8 231.5 130.1 191.1 166.9 150.8 281.1 150.8 281.1 191.1 395.2 231.5 432.1 271.8 452.3 312.2 461.6 352.6 461.6 392.9 452.3 433.3 432.1z"/>
        <path d="M 436.3 127.1 L  436.3 127.1 394.9 106.4 353.6 96.9 312.3 96.9 270.9 106.4 229.6 127.1 188.2 164.9 146.9 281.8 146.9 281.8 188.2 398.7 229.6 436.5 270.9 457.2 312.3 466.7 353.6 466.7 394.9 457.2 436.3 436.5 477.6 398.7 519.0 281.8 519.0 281.8 477.6 164.9z"/>
        <path d="M 526.9 282.4 L  526.9 282.4 484.6 162.8 442.3 124.1 400.0 103.0 357.7 93.3 315.4 93.3 273.2 103.0 230.9 124.1 188.6 162.8 146.3 282.4 146.3 282.4 188.6 402.0 230.9 440.6 273.2 461.8 315.4 471.5 357.7 471.5 400.0 461.8 442.3 440.6 484.6 402.0 526.9 282.4z"/>
        <path d="M 277.4 467.1 L  277.4 467.1 320.7 477.0 364.0 477.0 407.3 467.1 450.6 445.4 493.9 405.8 537.3 283.3 537.3 283.3 493.9 160.9 450.6 121.3 407.3 99.6 364.0 89.7 320.7 89.7 277.4 99.6 234.1 121.3 190.8 160.9 147.5 283.3 147.5 283.3 190.8 405.8 234.1 445.4z"/>
        <path d="M 367.5 86.2 L  367.5 86.2 323.3 86.2 279.1 96.3 234.9 118.5 190.7 158.8 146.6 283.8 146.6 283.8 190.7 408.7 234.9 449.1 279.1 471.2 323.3 481.4 367.5 481.4 411.6 471.2 455.8 449.1 500.0 408.7 544.2 283.8 544.2 283.8 500.0 158.8 455.8 118.5 411.6 96.3z"/>
        <path d="M 147.9 284.0 L  147.9 284.0 147.9 284.0 192.8 410.9 237.7 451.9 282.6 474.4 327.5 484.7 372.4 484.7 417.2 474.4 462.1 451.9 507.0 410.9 551.9 284.0 551.9 284.0 507.0 157.0 462.1 116.0 417.2 93.5 372.4 83.2 327.5 83.2 282.6 93.5 237.7 116.0 192.8 157.0z"/>
        <path d="M 331.3 487.1 L  331.3 487.1 376.7 487.1 422.1 476.7 467.5 453.9 512.8 412.5 558.2 284.2 558.2 284.2 512.8 155.8 467.5 114.4 422.1 91.7 376.7 81.3 331.3 81.3 286.0 91.7 240.6 114.4 195.2 155.8 149.9 284.2 149.9 284.2 195.2 412.5 240.6 453.9 286.0 476.7z"/>
        <path d="M 285.9 478.0 L  285.9 478.0 331.4 488.4 376.9 488.4 422.4 478.0 467.9 455.2 513.4 413.6 558.9 285.0 558.9 285.0 513.4 156.3 467.9 114.8 422.4 92.0 376.9 81.5 331.4 81.5 285.9 92.0 240.4 114.8 195.0 156.3 149.5 285.0 149.5 285.0 195.0 413.6 240.4 455.2z"/>
        <path d="M 195.2 415.7 L  195.2 415.7 241.2 457.7 287.3 480.8 333.3 491.3 379.3 491.3 425.3 480.8 471.3 457.7 517.3 415.7 563.3 285.5 563.3 285.5 517.3 155.4 471.3 113.4 425.3 90.3 379.3 79.8 333.3 79.8 287.3 90.3 241.2 113.4 195.2 155.4 149.2 285.5 149.2 285.5z"/>
        <path d="M 146.7 286.5 L  146.7 286.5 146.7 286.5 193.9 420.0 241.1 463.2 288.4 486.8 335.6 497.7 382.8 497.7 430.1 486.8 477.3 463.2 524.5 420.0 571.7 286.5 571.7 286.5 524.5 152.9 477.3 109.7 430.1 86.1 382.8 75.2 335.6 75.2 288.4 86.1 241.1 109.7 193.9 152.9z"/>
        <path d="M 483.9 463.6 L  483.9 463.6 531.2 420.4 578.4 286.8 578.4 286.8 531.2 153.1 483.9 110.0 436.7 86.3 389.4 75.5 342.2 75.5 294.9 86.3 247.7 110.0 200.4 153.1 153.2 286.8 153.2 286.8 200.4 420.4 247.7 463.6 294.9 487.2 342.2 498.1 389.4 498.1 436.7 487.2z"/>
        <path d="M 246.5 108.0 L  246.5 108.0 198.5 151.8 150.6 287.3 150.6 287.3 198.5 422.8 246.5 466.6 294.4 490.6 342.3 501.6 390.2 501.6 438.1 490.6 486.0 466.6 533.9 422.8 581.8 287.3 581.8 287.3 533.9 151.8 486.0 108.0 438.1 84.0 390.2 73.0 342.3 73.0 294.4 84.0z"/>
        <path d="M 490.3 106.8 L  490.3 106.8 441.8 82.5 393.4 71.4 345.0 71.4 296.6 82.5 248.2 106.8 199.7 151.0 151.3 287.9 151.3 287.9 199.7 424.9 248.2 469.1 296.6 493.4 345.0 504.5 393.4 504.5 441.8 493.4 490.3 469.1 538.7 424.9 587.1 287.9 587.1 287.9 538.7 151.0z"/>
        <path d="M 542.7 149.8 L  542.7 149.8 493.8 105.1 444.8 80.6 395.8 69.3 346.9 69.3 297.9 80.6 248.9 105.1 199.9 149.8 151.0 288.3 151.0 288.3 199.9 426.8 248.9 471.5 297.9 496.1 346.9 507.3 395.8 507.3 444.8 496.1 493.8 471.5 542.7 426.8 591.7 288.3 591.7 288.3z"/>
        <path d="M 351.2 65.8 L  351.2 65.8 301.3 77.2 251.4 102.2 201.6 147.7 151.7 288.8 151.7 288.8 201.6 429.8 251.4 475.3 301.3 500.3 351.2 511.8 401.0 511.8 450.9 500.3 500.7 475.3 550.6 429.8 600.5 288.8 600.5 288.8 550.6 147.7 500.7 102.2 450.9 77.2 401.0 65.8z"/>
        <path d="M 304.9 503.5 L  304.9 503.5 355.4 515.1 405.9 515.1 456.4 503.5 506.8 478.2 557.3 432.1 607.8 289.3 607.8 289.3 557.3 146.5 506.8 100.4 456.4 75.2 405.9 63.6 355.4 63.6 304.9 75.2 254.4 100.4 203.9 146.5 153.5 289.3 153.5 289.3 203.9 432.1 254.4 478.2z"/>
        <path d="M 412.2 519.8 L  412.2 519.8 463.7 508.0 515.1 482.2 566.6 435.2 618.0 289.7 618.0 289.7 566.6 144.1 515.1 97.1 463.7 71.4 412.2 59.6 360.7 59.6 309.3 71.4 257.8 97.1 206.4 144.1 154.9 289.7 154.9 289.7 206.4 435.2 257.8 482.2 309.3 508.0 360.7 519.8z"/>
        <path d="M 523.0 486.6 L  523.0 486.6 575.5 438.6 628.1 289.9 628.1 289.9 575.5 141.2 523.0 93.2 470.4 66.9 417.8 54.8 365.3 54.8 312.7 66.9 260.1 93.2 207.6 141.2 155.0 289.9 155.0 289.9 207.6 438.6 260.1 486.6 312.7 512.9 365.3 525.0 417.8 525.0 470.4 512.9z"/>
        <path d="M 212.4 141.3 L  212.4 141.3 159.7 290.3 159.7 290.3 212.4 439.3 265.1 487.4 317.8 513.8 370.5 525.9 423.2 525.9 475.8 513.8 528.5 487.4 581.2 439.3 633.9 290.3 633.9 290.3 581.2 141.3 528.5 93.2 475.8 66.8 423.2 54.7 370.5 54.7 317.8 66.8 265.1 93.2z"/>
        <path d="M 166.5 290.8 L  166.5 290.8 166.5 290.8 219.2 440.0 272.0 488.2 324.7 514.6 377.5 526.7 430.3 526.7 483.0 514.6 535.8 488.2 588.5 440.0 641.3 290.8 641.3 290.8 588.5 141.6 535.8 93.4 483.0 67.0 430.3 54.9 377.5 54.9 324.7 67.0 272.0 93.4 219.2 141.6z"/>
        <path d="M 432.9 528.8 L  432.9 528.8 486.1 516.6 539.3 489.9 592.5 441.3 645.7 290.9 645.7 290.9 592.5 140.4 539.3 91.8 486.1 65.1 432.9 52.9 379.7 52.9 326.5 65.1 273.3 91.8 220.1 140.4 166.9 290.9 166.9 290.9 220.1 441.3 273.3 489.9 326.5 516.6 379.7 528.8z"/>
        <path d="M 326.0 63.5 L  326.0 63.5 272.4 90.3 218.8 139.3 165.2 290.9 165.2 290.9 218.8 442.5 272.4 491.5 326.0 518.4 379.6 530.7 433.2 530.7 486.8 518.4 540.4 491.5 594.1 442.5 647.7 290.9 647.7 290.9 594.1 139.3 540.4 90.3 486.8 63.5 433.2 51.2 379.6 51.2z"/>
        <path d="M 217.0 446.0 L  217.0 446.0 271.8 496.1 326.6 523.5 381.4 536.1 436.2 536.1 491.0 523.5 545.8 496.1 600.7 446.0 655.5 291.0 655.5 291.0 600.7 136.0 545.8 85.9 491.0 58.5 436.2 45.9 381.4 45.9 326.6 58.5 271.8 85.9 217.0 136.0 162.2 291.0 162.2 291.0z"/>
        <path d="M 663.3 291.9 L  663.3 291.9 608.3 136.2 553.3 85.9 498.2 58.4 443.2 45.7 388.2 45.7 333.1 58.4 278.1 85.9 223.1 136.2 168.0 291.9 168.0 291.9 223.1 447.5 278.1 497.8 333.1 525.3 388.2 538.0 443.2 538.0 498.2 525.3 553.3 497.8 608.3 447.5 663.3 291.9z"/>
        <path d="M 278.6 500.5 L  278.6 500.5 334.2 528.4 389.7 541.1 445.3 541.1 500.9 528.4 556.4 500.5 612.0 449.8 667.5 292.7 667.5 292.7 612.0 135.5 556.4 84.8 500.9 56.9 445.3 44.2 389.7 44.2 334.2 56.9 278.6 84.8 223.1 135.5 167.5 292.7 167.5 292.7 223.1 449.8z"/>
        <path d="M 280.5 83.1 L  280.5 83.1 224.5 134.2 168.4 292.7 168.4 292.7 224.5 451.2 280.5 502.4 336.6 530.5 392.6 543.4 448.6 543.4 504.7 530.5 560.7 502.4 616.8 451.2 672.8 292.7 672.8 292.7 616.8 134.2 560.7 83.1 504.7 55.0 448.6 42.1 392.6 42.1 336.6 55.0z"/>
        <path d="M 452.4 39.7 L  452.4 39.7 395.7 39.7 339.0 52.7 282.3 81.2 225.5 133.0 168.8 293.4 168.8 293.4 225.5 453.9 282.3 505.7 339.0 534.1 395.7 547.1 452.4 547.1 509.2 534.1 565.9 505.7 622.6 453.9 679.3 293.4 679.3 293.4 622.6 133.0 565.9 81.2 509.2 52.7z"/>
        <path d="M 282.1 76.5 L  282.1 76.5 224.0 129.5 166.0 293.7 166.0 293.7 224.0 457.8 282.1 510.8 340.1 539.9 398.1 553.2 456.2 553.2 514.2 539.9 572.2 510.8 630.3 457.8 688.3 293.7 688.3 293.7 630.3 129.5 572.2 76.5 514.2 47.5 456.2 34.1 398.1 34.1 340.1 47.5z"/>
        <path d="M 575.5 74.3 L  575.5 74.3 516.6 44.8 457.7 31.3 398.8 31.3 339.9 44.8 281.0 74.3 222.1 128.1 163.2 294.7 163.2 294.7 222.1 461.2 281.0 515.0 339.9 544.5 398.8 558.0 457.7 558.0 516.6 544.5 575.5 515.0 634.3 461.2 693.2 294.7 693.2 294.7 634.3 128.1z"/>
        <path d="M 403.6 561.3 L  403.6 561.3 463.1 561.3 522.7 547.6 582.2 517.8 641.8 463.4 701.3 294.9 701.3 294.9 641.8 126.5 582.2 72.1 522.7 42.3 463.1 28.6 403.6 28.6 344.0 42.3 284.5 72.1 224.9 126.5 165.3 294.9 165.3 294.9 224.9 463.4 284.5 517.8 344.0 547.6z"/>
        <path d="M 644.1 464.1 L  644.1 464.1 703.9 295.0 703.9 295.0 644.1 126.0 584.4 71.4 524.6 41.5 464.8 27.7 405.1 27.7 345.3 41.5 285.5 71.4 225.7 126.0 166.0 295.0 166.0 295.0 225.7 464.1 285.5 518.7 345.3 548.6 405.1 562.3 464.8 562.3 524.6 548.6 584.4 518.7z"/>
        <path d="M 230.3 465.5 L  230.3 465.5 290.5 520.5 350.7 550.7 411.0 564.5 471.2 564.5 531.4 550.7 591.6 520.5 651.8 465.5 712.0 295.2 712.0 295.2 651.8 124.9 591.6 69.9 531.4 39.7 471.2 25.9 411.0 25.9 350.7 39.7 290.5 69.9 230.3 124.9 170.1 295.2 170.1 295.2z"/>
        <path d="M 656.2 125.1 L  656.2 125.1 595.8 70.0 535.5 39.7 475.1 25.9 414.7 25.9 354.4 39.7 294.0 70.0 233.6 125.1 173.2 295.9 173.2 295.9 233.6 466.6 294.0 521.8 354.4 552.0 414.7 565.9 475.1 565.9 535.5 552.0 595.8 521.8 656.2 466.6 716.6 295.9 716.6 295.9z"/>
        <path d="M 298.4 67.0 L  298.4 67.0 237.0 123.1 175.6 296.7 175.6 296.7 237.0 470.3 298.4 526.4 359.7 557.2 421.1 571.3 482.5 571.3 543.9 557.2 605.3 526.4 666.7 470.3 728.1 296.7 728.1 296.7 666.7 123.1 605.3 67.0 543.9 36.2 482.5 22.1 421.1 22.1 359.7 36.2z"/>
        <path d="M 238.6 120.6 L  238.6 120.6 176.2 297.3 176.2 297.3 238.6 474.0 301.1 531.1 363.6 562.4 426.1 576.7 488.5 576.7 551.0 562.4 613.5 531.1 676.0 474.0 738.5 297.3 738.5 297.3 676.0 120.6 613.5 63.5 551.0 32.2 488.5 17.9 426.1 17.9 363.6 32.2 301.1 63.5z"/>
        <path d="M 244.2 120.3 L  244.2 120.3 181.4 297.9 181.4 297.9 244.2 475.5 307.0 532.8 369.7 564.2 432.5 578.7 495.3 578.7 558.1 564.2 620.9 532.8 683.7 475.5 746.4 297.9 746.4 297.9 683.7 120.3 620.9 63.0 558.1 31.5 495.3 17.1 432.5 17.1 369.7 31.5 307.0 63.0z"/>
        <path d="M 628.6 62.9 L  628.6 62.9 565.6 31.3 502.6 16.8 439.6 16.8 376.6 31.3 313.6 62.9 250.6 120.4 187.6 298.6 187.6 298.6 250.6 476.7 313.6 534.3 376.6 565.8 439.6 580.3 502.6 580.3 565.6 565.8 628.6 534.3 691.5 476.7 754.5 298.6 754.5 298.6 691.5 120.4z"/>
        <path d="M 762.2 298.8 L  762.2 298.8 762.2 298.8 698.5 118.9 634.9 60.7 571.3 28.9 507.6 14.3 444.0 14.3 380.4 28.9 316.7 60.7 253.1 118.9 189.5 298.8 189.5 298.8 253.1 478.8 316.7 536.9 380.4 568.8 444.0 583.4 507.6 583.4 571.3 568.8 634.9 536.9 698.5 478.8z"/>
        <path d="M 384.2 28.5 L  384.2 28.5 320.4 60.4 256.7 118.6 192.9 299.0 192.9 299.0 256.7 479.3 320.4 537.6 384.2 569.5 447.9 584.2 511.7 584.2 575.5 569.5 639.2 537.6 703.0 479.3 766.8 299.0 766.8 299.0 703.0 118.6 639.2 60.4 575.5 28.5 511.7 13.8 447.9 13.8z"/>
        <path d="M 578.6 575.1 L  578.6 575.1 643.6 542.6 708.6 483.2 773.6 299.3 773.6 299.3 708.6 115.4 643.6 56.0 578.6 23.4 513.5 8.5 448.5 8.5 383.5 23.4 318.5 56.0 253.5 115.4 188.5 299.3 188.5 299.3 253.5 483.2 318.5 542.6 383.5 575.1 448.5 590.1 513.5 590.1z"/>
        <path d="M 254.1 112.8 L  254.1 112.8 188.0 299.9 188.0 299.9 254.1 487.0 320.3 547.4 386.4 580.5 452.6 595.7 518.8 595.7 584.9 580.5 651.1 547.4 717.2 487.0 783.4 299.9 783.4 299.9 717.2 112.8 651.1 52.3 584.9 19.2 518.8 4.0 452.6 4.0 386.4 19.2 320.3 52.3z"/>
        <path d="M 194.1 300.3 L  194.1 300.3 194.1 300.3 260.5 488.3 327.0 548.9 393.4 582.2 459.9 597.5 526.3 597.5 592.7 582.2 659.2 548.9 725.6 488.3 792.1 300.3 792.1 300.3 725.6 112.4 659.2 51.7 592.7 18.4 526.3 3.2 459.9 3.2 393.4 18.4 327.0 51.7 260.5 112.4z"/>
        <path d="M 331.3 50.7 L  331.3 50.7 264.5 111.8 197.7 300.8 197.7 300.8 264.5 489.8 331.3 550.8 398.2 584.3 465.0 599.6 531.8 599.6 598.6 584.3 665.5 550.8 732.3 489.8 799.1 300.8 799.1 300.8 732.3 111.8 665.5 50.7 598.6 17.3 531.8 1.9 465.0 1.9 398.2 17.3z"/>
        <path d="M 331.6 51.3 L  331.6 51.3 264.7 112.3 197.9 301.3 197.9 301.3 264.7 490.4 331.6 551.4 398.4 584.9 465.2 600.2 532.0 600.2 598.9 584.9 665.7 551.4 732.5 490.4 799.4 301.3 799.4 301.3 732.5 112.3 665.7 51.3 598.9 17.8 532.0 2.5 465.2 2.5 398.4 17.8z"/>
        <path d="M 335.0 552.2 L  335.0 552.2 401.9 585.6 468.7 601.0 535.6 601.0 602.5 585.6 669.3 552.2 736.2 491.1 803.0 302.0 803.0 302.0 736.2 112.9 669.3 51.9 602.5 18.4 535.6 3.0 468.7 3.0 401.9 18.4 335.0 51.9 268.2 112.9 201.3 302.0 201.3 302.0 268.2 491.1z"/>
        <path d="M 271.1 494.2 L  271.1 494.2 338.7 556.0 406.4 589.9 474.1 605.5 541.8 605.5 609.4 589.9 677.1 556.0 744.8 494.2 812.4 302.8 812.4 302.8 744.8 111.4 677.1 49.6 609.4 15.7 541.8 0.2 474.1 0.2 406.4 15.7 338.7 49.6 271.1 111.4 203.4 302.8 203.4 302.8z"/>
        <path d="M 207.9 303.1 L  207.9 303.1 207.9 303.1 275.8 495.2 343.7 557.2 411.6 591.2 479.5 606.8 547.4 606.8 615.3 591.2 683.2 557.2 751.1 495.2 819.0 303.1 819.0 303.1 751.1 111.0 683.2 49.0 615.3 15.0 547.4 -0.6 479.5 -0.6 411.6 15.0 343.7 49.0 275.8 111.0z"/>
        <path d="M 279.8 111.4 L  279.8 111.4 211.9 303.6 211.9 303.6 279.8 495.8 347.8 557.9 415.8 592.0 483.7 607.5 551.7 607.5 619.6 592.0 687.6 557.9 755.5 495.8 823.5 303.6 823.5 303.6 755.5 111.4 687.6 49.4 619.6 15.3 551.7 -0.3 483.7 -0.3 415.8 15.3 347.8 49.4z"/>
        <path d="M 282.2 497.3 L  282.2 497.3 350.6 559.7 419.1 594.0 487.5 609.7 555.9 609.7 624.3 594.0 692.7 559.7 761.1 497.3 829.6 303.7 829.6 303.7 761.1 110.2 692.7 47.8 624.3 13.5 555.9 -2.2 487.5 -2.2 419.1 13.5 350.6 47.8 282.2 110.2 213.8 303.7 213.8 303.7z"/>
        <path d="M 762.6 110.1 L  762.6 110.1 694.1 47.5 625.5 13.2 556.9 -2.6 488.4 -2.6 419.8 13.2 351.2 47.5 282.7 110.1 214.1 304.1 214.1 304.1 282.7 498.0 351.2 560.6 419.8 595.0 488.4 610.7 556.9 610.7 625.5 595.0 694.1 560.6 762.6 498.0 831.2 304.1 831.2 304.1z"/>
        <path d="M 217.5 304.8 L  217.5 304.8 217.5 304.8 286.6 500.3 355.7 563.4 424.8 598.0 493.9 613.9 563.0 613.9 632.1 598.0 701.2 563.4 770.3 500.3 839.4 304.8 839.4 304.8 770.3 109.4 701.2 46.3 632.1 11.7 563.0 -4.2 493.9 -4.2 424.8 11.7 355.7 46.3 286.6 109.4z"/>
        <path d="M 497.7 617.0 L  497.7 617.0 567.5 617.0 637.2 601.0 707.0 566.0 776.8 502.3 846.5 305.0 846.5 305.0 776.8 107.6 707.0 43.9 637.2 9.0 567.5 -7.0 497.7 -7.0 428.0 9.0 358.2 43.9 288.4 107.6 218.7 305.0 218.7 305.0 288.4 502.3 358.2 566.0 428.0 601.0z"/>
        <path d="M 429.1 604.5 L  429.1 604.5 499.7 620.7 570.2 620.7 640.8 604.5 711.3 569.2 781.9 504.7 852.4 305.2 852.4 305.2 781.9 105.7 711.3 41.2 640.8 5.9 570.2 -10.3 499.7 -10.3 429.1 5.9 358.6 41.2 288.1 105.7 217.5 305.2 217.5 305.2 288.1 504.7 358.6 569.2z"/>
        <path d="M 503.3 622.3 L  503.3 622.3 574.1 622.3 645.0 606.0 715.8 570.5 786.7 505.8 857.5 305.4 857.5 305.4 786.7 105.0 715.8 40.3 645.0 4.8 574.1 -11.5 503.3 -11.5 432.4 4.8 361.6 40.3 290.7 105.0 219.9 305.4 219.9 305.4 290.7 505.8 361.6 570.5 432.4 606.0z"/>
        <path d="M 791.3 509.7 L  791.3 509.7 863.3 306.0 863.3 306.0 791.3 102.4 719.3 36.6 647.3 0.6 575.3 -15.9 503.3 -15.9 431.3 0.6 359.3 36.6 287.3 102.4 215.3 306.0 215.3 306.0 287.3 509.7 359.3 575.4 431.3 611.5 503.3 628.0 575.3 628.0 647.3 611.5 719.3 575.4z"/>
        <path d="M 721.2 36.9 L  721.2 36.9 649.1 0.8 576.9 -15.8 504.8 -15.8 432.6 0.8 360.5 36.9 288.3 102.8 216.2 306.8 216.2 306.8 288.3 510.9 360.5 576.8 432.6 612.9 504.8 629.5 576.9 629.5 649.1 612.9 721.2 576.8 793.4 510.9 865.5 306.8 865.5 306.8 793.4 102.8z"/>
        <path d="M 870.8 307.2 L  870.8 307.2 798.6 103.0 726.5 37.1 654.3 0.9 582.1 -15.7 509.9 -15.7 437.7 0.9 365.5 37.1 293.4 103.0 221.2 307.2 221.2 307.2 293.4 511.3 365.5 577.2 437.7 613.4 509.9 630.0 582.1 630.0 654.3 613.4 726.5 577.2 798.6 511.3 870.8 307.2z"/>
        <path d="M 223.5 308.0 L  223.5 308.0 223.5 308.0 296.0 512.9 368.4 579.1 440.8 615.4 513.3 632.0 585.7 632.0 658.1 615.4 730.6 579.1 803.0 512.9 875.5 308.0 875.5 308.0 803.0 103.2 730.6 37.0 658.1 0.7 585.7 -15.9 513.3 -15.9 440.8 0.7 368.4 37.0 296.0 103.2z"/>
        <path d="M 659.3 616.3 L  659.3 616.3 731.7 580.0 804.2 513.8 876.6 308.9 876.6 308.9 804.2 104.0 731.7 37.8 659.3 1.5 586.8 -15.1 514.4 -15.1 441.9 1.5 369.5 37.8 297.0 104.0 224.6 308.9 224.6 308.9 297.0 513.8 369.5 580.0 441.9 616.3 514.4 632.9 586.8 632.9z"/>
        <path d="M 806.0 514.7 L  806.0 514.7 878.6 309.4 878.6 309.4 806.0 104.1 733.4 37.8 660.8 1.5 588.2 -15.2 515.7 -15.2 443.1 1.5 370.5 37.8 297.9 104.1 225.3 309.4 225.3 309.4 297.9 514.7 370.5 581.0 443.1 617.4 515.7 634.0 588.2 634.0 660.8 617.4 733.4 581.0z"/>
        <path d="M 589.2 -19.5 L  589.2 -19.5 515.5 -19.5 441.9 -2.6 368.2 34.3 294.5 101.6 220.8 310.0 220.8 310.0 294.5 518.5 368.2 585.8 441.9 622.7 515.5 639.6 589.2 639.6 662.9 622.7 736.6 585.8 810.3 518.5 884.0 310.0 884.0 310.0 810.3 101.6 736.6 34.3 662.9 -2.6z"/>
        <path d="M 669.3 -2.5 L  669.3 -2.5 595.4 -19.5 521.5 -19.5 447.6 -2.5 373.7 34.5 299.8 102.0 225.9 311.0 225.9 311.0 299.8 520.0 373.7 587.5 447.6 624.5 521.5 641.5 595.4 641.5 669.3 624.5 743.2 587.5 817.1 520.0 891.0 311.0 891.0 311.0 817.1 102.0 743.2 34.5z"/>
        <path d="M 821.1 101.0 L  821.1 101.0 746.5 33.0 672.0 -4.4 597.4 -21.5 522.9 -21.5 448.4 -4.4 373.8 33.0 299.3 101.0 224.8 311.8 224.8 311.8 299.3 522.7 373.8 590.7 448.4 628.1 522.9 645.2 597.4 645.2 672.0 628.1 746.5 590.7 821.1 522.7 895.6 311.8 895.6 311.8z"/>
        <path d="M 681.2 -7.7 L  681.2 -7.7 605.8 -25.0 530.4 -25.0 454.9 -7.7 379.5 30.1 304.1 99.0 228.6 312.3 228.6 312.3 304.1 525.7 379.5 594.6 454.9 632.4 530.4 649.7 605.8 649.7 681.2 632.4 756.7 594.6 832.1 525.7 907.5 312.3 907.5 312.3 832.1 99.0 756.7 30.1z"/>
        <path d="M 384.4 596.3 L  384.4 596.3 460.3 634.3 536.1 651.7 611.9 651.7 687.7 634.3 763.5 596.3 839.3 527.1 915.2 312.6 915.2 312.6 839.3 98.2 763.5 29.0 687.7 -9.0 611.9 -26.4 536.1 -26.4 460.3 -9.0 384.4 29.0 308.6 98.2 232.8 312.6 232.8 312.6 308.6 527.1z"/>
        <path d="M 466.8 635.5 L  466.8 635.5 542.9 652.9 619.0 652.9 695.1 635.5 771.2 597.3 847.3 527.8 923.4 312.6 923.4 312.6 847.3 97.4 771.2 27.9 695.1 -10.2 619.0 -27.6 542.9 -27.6 466.8 -10.2 390.8 27.9 314.7 97.4 238.6 312.6 238.6 312.6 314.7 527.8 390.8 597.3z"/>
        <path d="M 701.5 638.2 L  701.5 638.2 778.2 599.8 854.9 529.8 931.5 313.0 931.5 313.0 854.9 96.2 778.2 26.1 701.5 -12.3 624.9 -29.9 548.2 -29.9 471.5 -12.3 394.9 26.1 318.2 96.2 241.6 313.0 241.6 313.0 318.2 529.8 394.9 599.8 471.5 638.2 548.2 655.8 624.9 655.8z"/>
        <path d="M 245.0 313.4 L  245.0 313.4 245.0 313.4 322.5 532.5 400.0 603.3 477.5 642.1 555.0 659.9 632.4 659.9 709.9 642.1 787.4 603.3 864.9 532.5 942.4 313.4 942.4 313.4 864.9 94.2 787.4 23.4 709.9 -15.4 632.4 -33.2 555.0 -33.2 477.5 -15.4 400.0 23.4 322.5 94.2z"/>
        <path d="M 718.3 644.3 L  718.3 644.3 796.2 605.3 874.1 534.2 951.9 313.9 951.9 313.9 874.1 93.7 796.2 22.6 718.3 -16.5 640.4 -34.3 562.6 -34.3 484.7 -16.5 406.8 22.6 328.9 93.7 251.1 313.9 251.1 313.9 328.9 534.2 406.8 605.3 484.7 644.3 562.6 662.2 640.4 662.2z"/>
        <path d="M 406.3 608.9 L  406.3 608.9 484.9 648.3 563.5 666.3 642.1 666.3 720.7 648.3 799.3 608.9 877.9 537.1 956.5 314.8 956.5 314.8 877.9 92.5 799.3 20.7 720.7 -18.6 642.1 -36.7 563.5 -36.7 484.9 -18.6 406.3 20.7 327.7 92.5 249.1 314.8 249.1 314.8 327.7 537.1z"/>
        <path d="M 807.6 16.1 L  807.6 16.1 727.7 -23.9 647.8 -42.3 567.8 -42.3 487.9 -23.9 408.0 16.1 328.1 89.1 248.2 315.2 248.2 315.2 328.1 541.2 408.0 614.2 487.9 654.2 567.8 672.6 647.8 672.6 727.7 654.2 807.6 614.2 887.5 541.2 967.4 315.2 967.4 315.2 887.5 89.1z"/>
        <path d="M 330.8 86.4 L  330.8 86.4 249.6 315.8 249.6 315.8 330.8 545.2 411.9 619.3 493.0 660.0 574.1 678.6 655.2 678.6 736.3 660.0 817.5 619.3 898.6 545.2 979.7 315.8 979.7 315.8 898.6 86.4 817.5 12.3 736.3 -28.4 655.2 -47.0 574.1 -47.0 493.0 -28.4 411.9 12.3z"/>
        <path d="M 416.0 10.2 L  416.0 10.2 334.2 84.8 252.4 316.2 252.4 316.2 334.2 547.5 416.0 622.2 497.8 663.1 579.6 681.9 661.4 681.9 743.2 663.1 824.9 622.2 906.7 547.5 988.5 316.2 988.5 316.2 906.7 84.8 824.9 10.2 743.2 -30.8 661.4 -49.6 579.6 -49.6 497.8 -30.8z"/>
        <path d="M 250.6 316.6 L  250.6 316.6 250.6 316.6 333.1 549.9 415.6 625.3 498.1 666.6 580.6 685.5 663.1 685.5 745.6 666.6 828.1 625.3 910.6 549.9 993.1 316.6 993.1 316.6 910.6 83.2 828.1 7.9 745.6 -33.5 663.1 -52.4 580.6 -52.4 498.1 -33.5 415.6 7.9 333.1 83.2z"/>
        <path d="M 913.0 551.4 L  913.0 551.4 995.9 317.0 995.9 317.0 913.0 82.7 830.2 7.0 747.3 -34.5 664.4 -53.5 581.6 -53.5 498.7 -34.5 415.8 7.0 333.0 82.7 250.1 317.0 250.1 317.0 333.0 551.4 415.8 627.1 498.7 668.6 581.6 687.6 664.4 687.6 747.3 668.6 830.2 627.1z"/>
        <path d="M 833.8 631.8 L  833.8 631.8 917.8 555.1 1001.8 317.5 1001.8 317.5 917.8 79.9 833.8 3.2 749.8 -38.8 665.9 -58.1 581.9 -58.1 497.9 -38.8 413.9 3.2 329.9 79.9 245.9 317.5 245.9 317.5 329.9 555.1 413.9 631.8 497.9 673.8 581.9 693.1 665.9 693.1 749.8 673.8z"/>
        <path d="M 756.0 -43.8 L  756.0 -43.8 670.8 -63.4 585.6 -63.4 500.3 -43.8 415.1 -1.1 329.8 76.7 244.6 317.8 244.6 317.8 329.8 558.9 415.1 636.8 500.3 679.5 585.6 699.1 670.8 699.1 756.0 679.5 841.3 636.8 926.5 558.9 1011.8 317.8 1011.8 317.8 926.5 76.7 841.3 -1.1z"/>
        <path d="M 414.2 640.8 L  414.2 640.8 500.3 684.0 586.4 703.8 672.5 703.8 758.7 684.0 844.8 640.8 930.9 562.2 1017.1 318.6 1017.1 318.6 930.9 75.0 844.8 -3.7 758.7 -46.8 672.5 -66.6 586.4 -66.6 500.3 -46.8 414.2 -3.7 328.0 75.0 241.9 318.6 241.9 318.6 328.0 562.2z"/>
        <path d="M 853.0 -7.3 L  853.0 -7.3 765.7 -51.0 678.5 -71.0 591.2 -71.0 503.9 -51.0 416.7 -7.3 329.4 72.4 242.2 319.2 242.2 319.2 329.4 566.0 416.7 645.7 503.9 689.4 591.2 709.4 678.5 709.4 765.7 689.4 853.0 645.7 940.2 566.0 1027.5 319.2 1027.5 319.2 940.2 72.4z"/>
        <path d="M 335.4 71.6 L  335.4 71.6 247.7 319.6 247.7 319.6 335.4 567.7 423.1 647.7 510.8 691.7 598.5 711.8 686.1 711.8 773.8 691.7 861.5 647.7 949.2 567.7 1036.9 319.6 1036.9 319.6 949.2 71.6 861.5 -8.4 773.8 -52.4 686.1 -72.5 598.5 -72.5 510.8 -52.4 423.1 -8.4z"/>
        <path d="M 775.3 696.4 L  775.3 696.4 863.9 651.9 952.6 571.0 1041.2 320.3 1041.2 320.3 952.6 69.6 863.9 -11.3 775.3 -55.7 686.7 -76.0 598.0 -76.0 509.4 -55.7 420.8 -11.3 332.2 69.6 243.5 320.3 243.5 320.3 332.2 571.0 420.8 651.9 509.4 696.4 598.0 716.7 686.7 716.7z"/>
        <path d="M 335.7 69.9 L  335.7 69.9 246.8 321.3 246.8 321.3 335.7 572.7 424.6 653.8 513.5 698.4 602.4 718.8 691.2 718.8 780.1 698.4 869.0 653.8 957.9 572.7 1046.8 321.3 1046.8 321.3 957.9 69.9 869.0 -11.3 780.1 -55.8 691.2 -76.2 602.4 -76.2 513.5 -55.8 424.6 -11.3z"/>
        <path d="M 782.1 701.8 L  782.1 701.8 871.8 656.9 961.4 575.1 1051.0 321.6 1051.0 321.6 961.4 68.2 871.8 -13.7 782.1 -58.6 692.5 -79.1 602.9 -79.1 513.3 -58.6 423.7 -13.7 334.1 68.2 244.5 321.6 244.5 321.6 334.1 575.1 423.7 656.9 513.3 701.8 602.9 722.4 692.5 722.4z"/>
        <path d="M 333.4 66.7 L  333.4 66.7 243.2 322.0 243.2 322.0 333.4 577.4 423.7 659.9 514.0 705.1 604.3 725.8 694.6 725.8 784.9 705.1 875.2 659.9 965.5 577.4 1055.8 322.0 1055.8 322.0 965.5 66.7 875.2 -15.8 784.9 -61.0 694.6 -81.7 604.3 -81.7 514.0 -61.0 423.7 -15.8z"/>
        <path d="M 430.2 661.5 L  430.2 661.5 520.9 706.9 611.6 727.7 702.2 727.7 792.9 706.9 883.6 661.5 974.3 578.7 1065.0 322.2 1065.0 322.2 974.3 65.7 883.6 -17.1 792.9 -62.6 702.2 -83.4 611.6 -83.4 520.9 -62.6 430.2 -17.1 339.5 65.7 248.8 322.2 248.8 322.2 339.5 578.7z"/>
        <path d="M 615.0 -84.6 L  615.0 -84.6 524.0 -63.7 433.0 -18.2 342.0 64.9 251.1 322.2 251.1 322.2 342.0 579.5 433.0 662.6 524.0 708.2 615.0 729.1 705.9 729.1 796.9 708.2 887.9 662.6 978.8 579.5 1069.8 322.2 1069.8 322.2 978.8 64.9 887.9 -18.2 796.9 -63.7 705.9 -84.6z"/>
        <path d="M 342.6 583.1 L  342.6 583.1 434.8 667.4 527.0 713.6 619.2 734.7 711.5 734.7 803.7 713.6 895.9 667.4 988.2 583.1 1080.4 322.3 1080.4 322.3 988.2 61.4 895.9 -22.8 803.7 -69.0 711.5 -90.2 619.2 -90.2 527.0 -69.0 434.8 -22.8 342.6 61.4 250.3 322.3 250.3 322.3z"/>
        <path d="M 251.4 323.1 L  251.4 323.1 251.4 323.1 344.3 585.8 437.2 670.6 530.0 717.1 622.9 738.4 715.7 738.4 808.6 717.1 901.5 670.6 994.3 585.8 1087.2 323.1 1087.2 323.1 994.3 60.5 901.5 -24.3 808.6 -70.9 715.7 -92.2 622.9 -92.2 530.0 -70.9 437.2 -24.3 344.3 60.5z"/>
        <path d="M 809.5 -71.9 L  809.5 -71.9 716.2 -93.3 622.9 -93.3 529.6 -71.9 436.3 -25.2 343.0 60.0 249.7 323.9 249.7 323.9 343.0 587.8 436.3 673.0 529.6 719.7 622.9 741.1 716.2 741.1 809.5 719.7 902.7 673.0 996.0 587.8 1089.3 323.9 1089.3 323.9 996.0 60.0 902.7 -25.2z"/>
        <path d="M 907.9 -25.0 L  907.9 -25.0 814.4 -71.9 720.9 -93.3 627.4 -93.3 533.9 -71.9 440.4 -25.0 346.9 60.3 253.4 324.8 253.4 324.8 346.9 589.3 440.4 674.7 533.9 721.5 627.4 743.0 720.9 743.0 814.4 721.5 907.9 674.7 1001.4 589.3 1094.9 324.8 1094.9 324.8 1001.4 60.3z"/>
        <path d="M 1003.8 59.4 L  1003.8 59.4 909.9 -26.3 816.0 -73.4 722.2 -94.9 628.3 -94.9 534.4 -73.4 440.6 -26.3 346.7 59.4 252.9 324.9 252.9 324.9 346.7 590.3 440.6 676.1 534.4 723.1 628.3 744.6 722.2 744.6 816.0 723.1 909.9 676.1 1003.8 590.3 1097.6 324.9 1097.6 324.9z"/>
        <path d="M 439.1 680.4 L  439.1 680.4 534.1 728.1 629.1 749.9 724.1 749.9 819.2 728.1 914.2 680.4 1009.2 593.7 1104.3 324.9 1104.3 324.9 1009.2 56.1 914.2 -30.7 819.2 -78.3 724.1 -100.1 629.1 -100.1 534.1 -78.3 439.1 -30.7 344.0 56.1 249.0 324.9 249.0 324.9 344.0 593.7z"/>
        <path d="M 341.4 597.9 L  341.4 597.9 437.7 685.8 534.0 734.1 630.3 756.2 726.6 756.2 822.9 734.1 919.2 685.8 1015.5 597.9 1111.8 325.5 1111.8 325.5 1015.5 53.1 919.2 -34.8 822.9 -83.1 726.6 -105.2 630.3 -105.2 534.0 -83.1 437.7 -34.8 341.4 53.1 245.1 325.5 245.1 325.5z"/>
        <path d="M 1023.2 52.9 L  1023.2 52.9 926.7 -35.3 830.1 -83.7 733.6 -105.9 637.0 -105.9 540.4 -83.7 443.9 -35.3 347.3 52.9 250.7 326.0 250.7 326.0 347.3 599.1 443.9 687.3 540.4 735.7 637.0 757.8 733.6 757.8 830.1 735.7 926.7 687.3 1023.2 599.1 1119.8 326.0 1119.8 326.0z"/>
        <path d="M 931.8 690.7 L  931.8 690.7 1029.2 601.8 1126.5 326.4 1126.5 326.4 1029.2 51.0 931.8 -37.9 834.4 -86.7 737.1 -109.0 639.7 -109.0 542.3 -86.7 444.9 -37.9 347.6 51.0 250.2 326.4 250.2 326.4 347.6 601.8 444.9 690.7 542.3 739.5 639.7 761.9 737.1 761.9 834.4 739.5z"/>
        <path d="M 1130.8 326.6 L  1130.8 326.6 1130.8 326.6 1033.0 50.1 935.2 -39.2 837.5 -88.2 739.7 -110.6 641.9 -110.6 544.2 -88.2 446.4 -39.2 348.7 50.1 250.9 326.6 250.9 326.6 348.7 603.1 446.4 692.4 544.2 741.4 641.9 763.8 739.7 763.8 837.5 741.4 935.2 692.4 1033.0 603.1z"/>
        <path d="M 742.2 765.4 L  742.2 765.4 840.2 742.9 938.3 693.8 1036.3 604.3 1134.3 327.0 1134.3 327.0 1036.3 49.8 938.3 -39.7 840.2 -88.8 742.2 -111.3 644.2 -111.3 546.2 -88.8 448.2 -39.7 350.2 49.8 252.1 327.0 252.1 327.0 350.2 604.3 448.2 693.8 546.2 742.9 644.2 765.4z"/>
        <path d="M 747.0 -115.6 L  747.0 -115.6 647.8 -115.6 548.7 -92.9 449.6 -43.2 350.5 47.3 251.4 327.7 251.4 327.7 350.5 608.0 449.6 698.5 548.7 748.2 647.8 770.9 747.0 770.9 846.1 748.2 945.2 698.5 1044.3 608.0 1143.4 327.7 1143.4 327.7 1044.3 47.3 945.2 -43.2 846.1 -92.9z"/>
        <path d="M 854.7 -94.9 L  854.7 -94.9 755.0 -117.8 655.3 -117.8 555.5 -94.9 455.8 -44.9 356.1 46.2 256.3 328.2 256.3 328.2 356.1 610.3 455.8 701.4 555.5 751.3 655.3 774.2 755.0 774.2 854.7 751.3 954.4 701.4 1054.2 610.3 1153.9 328.2 1153.9 328.2 1054.2 46.2 954.4 -44.9z"/>
        <path d="M 658.5 -117.8 L  658.5 -117.8 558.6 -94.9 458.8 -44.9 358.9 46.4 259.0 328.8 259.0 328.8 358.9 611.3 458.8 702.5 558.6 752.6 658.5 775.5 758.4 775.5 858.3 752.6 958.1 702.5 1058.0 611.3 1157.9 328.8 1157.9 328.8 1058.0 46.4 958.1 -44.9 858.3 -94.9 758.4 -117.8z"/>
        <path d="M 1163.8 329.8 L  1163.8 329.8 1063.0 44.7 962.2 -47.3 861.4 -97.8 760.6 -121.0 659.8 -121.0 559.0 -97.8 458.2 -47.3 357.4 44.7 256.6 329.8 256.6 329.8 357.4 614.9 458.2 707.0 559.0 757.5 659.8 780.6 760.6 780.6 861.4 757.5 962.2 707.0 1063.0 614.9 1163.8 329.8z"/>
        <path d="M 969.0 -51.0 L  969.0 -51.0 867.1 -102.1 765.3 -125.4 663.4 -125.4 561.5 -102.1 459.6 -51.0 357.8 42.0 255.9 330.2 255.9 330.2 357.8 618.3 459.6 711.3 561.5 762.4 663.4 785.7 765.3 785.7 867.1 762.4 969.0 711.3 1070.9 618.3 1172.7 330.2 1172.7 330.2 1070.9 42.0z"/>
        <path d="M 356.6 41.3 L  356.6 41.3 254.1 331.1 254.1 331.1 356.6 620.9 459.1 714.5 561.5 765.8 664.0 789.3 766.5 789.3 868.9 765.8 971.4 714.5 1073.9 620.9 1176.3 331.1 1176.3 331.1 1073.9 41.3 971.4 -52.3 868.9 -103.7 766.5 -127.2 664.0 -127.2 561.5 -103.7 459.1 -52.3z"/>
        <path d="M 768.5 -131.9 L  768.5 -131.9 664.9 -131.9 561.2 -108.2 457.6 -56.2 354.0 38.4 250.4 331.5 250.4 331.5 354.0 624.5 457.6 719.2 561.2 771.1 664.9 794.9 768.5 794.9 872.1 771.1 975.7 719.2 1079.3 624.5 1182.9 331.5 1182.9 331.5 1079.3 38.4 975.7 -56.2 872.1 -108.2z"/>
        <path d="M 561.7 -109.6 L  561.7 -109.6 457.7 -57.4 353.7 37.5 249.6 331.7 249.6 331.7 353.7 625.9 457.7 720.9 561.7 773.0 665.7 796.9 769.7 796.9 873.7 773.0 977.7 720.9 1081.7 625.9 1185.8 331.7 1185.8 331.7 1081.7 37.5 977.7 -57.4 873.7 -109.6 769.7 -133.4 665.7 -133.4z"/>
        <path d="M 984.6 -58.5 L  984.6 -58.5 880.3 -110.8 775.9 -134.7 671.5 -134.7 567.2 -110.8 462.8 -58.5 358.4 36.8 254.1 332.0 254.1 332.0 358.4 627.2 462.8 722.5 567.2 774.8 671.5 798.8 775.9 798.8 880.3 774.8 984.6 722.5 1089.0 627.2 1193.4 332.0 1193.4 332.0 1089.0 36.8z"/>
        <path d="M 1090.1 627.6 L  1090.1 627.6 1194.5 332.3 1194.5 332.3 1090.1 37.1 985.7 -58.3 881.3 -110.6 776.9 -134.5 672.5 -134.5 568.1 -110.6 463.7 -58.3 359.3 37.1 254.9 332.3 254.9 332.3 359.3 627.6 463.7 723.0 568.1 775.3 672.5 799.2 776.9 799.2 881.3 775.3 985.7 723.0z"/>
        <path d="M 1095.1 35.5 L  1095.1 35.5 990.0 -60.3 885.0 -113.0 780.0 -137.0 675.0 -137.0 570.0 -113.0 465.0 -60.3 360.0 35.5 255.0 332.5 255.0 332.5 360.0 629.6 465.0 725.4 570.0 778.1 675.0 802.1 780.0 802.1 885.0 778.1 990.0 725.4 1095.1 629.6 1200.1 332.5 1200.1 332.5z"/>
        <path d="M 1000.6 -64.0 L  1000.6 -64.0 894.5 -117.2 788.3 -141.5 682.1 -141.5 575.9 -117.2 469.8 -64.0 363.6 33.0 257.4 333.3 257.4 333.3 363.6 633.6 469.8 730.5 575.9 783.7 682.1 808.1 788.3 808.1 894.5 783.7 1000.6 730.5 1106.8 633.6 1213.0 333.3 1213.0 333.3 1106.8 33.0z"/>
        <path d="M 1009.5 -65.3 L  1009.5 -65.3 902.8 -118.8 796.2 -143.2 689.5 -143.2 582.9 -118.8 476.2 -65.3 369.5 32.1 262.9 333.7 262.9 333.7 369.5 635.4 476.2 732.8 582.9 786.3 689.5 810.7 796.2 810.7 902.8 786.3 1009.5 732.8 1116.1 635.4 1222.8 333.7 1222.8 333.7 1116.1 32.1z"/>
        <path d="M 1016.0 -67.9 L  1016.0 -67.9 908.5 -121.8 801.0 -146.4 693.6 -146.4 586.1 -121.8 478.6 -67.9 371.1 30.3 263.6 334.3 263.6 334.3 371.1 638.3 478.6 736.5 586.1 790.3 693.6 815.0 801.0 815.0 908.5 790.3 1016.0 736.5 1123.5 638.3 1231.0 334.3 1231.0 334.3 1123.5 30.3z"/>
        <path d="M 699.7 817.4 L  699.7 817.4 807.6 817.4 915.6 792.6 1023.5 738.5 1131.5 640.0 1239.4 334.7 1239.4 334.7 1131.5 29.3 1023.5 -69.2 915.6 -123.3 807.6 -148.1 699.7 -148.1 591.8 -123.3 483.8 -69.2 375.9 29.3 267.9 334.7 267.9 334.7 375.9 640.0 483.8 738.5 591.8 792.6z"/>
        <path d="M 1134.0 29.0 L  1134.0 29.0 1025.8 -69.7 917.6 -123.9 809.5 -148.8 701.3 -148.8 593.1 -123.9 484.9 -69.7 376.7 29.0 268.5 335.0 268.5 335.0 376.7 641.0 484.9 739.8 593.1 794.0 701.3 818.8 809.5 818.8 917.6 794.0 1025.8 739.8 1134.0 641.0 1242.2 335.0 1242.2 335.0z"/>
        <path d="M 705.0 821.1 L  705.0 821.1 813.5 821.1 922.0 796.2 1030.5 741.8 1139.0 642.7 1247.5 335.8 1247.5 335.8 1139.0 28.9 1030.5 -70.2 922.0 -124.6 813.5 -149.5 705.0 -149.5 596.5 -124.6 488.0 -70.2 379.5 28.9 271.0 335.8 271.0 335.8 379.5 642.7 488.0 741.8 596.5 796.2z"/>
        <path d="M 1258.8 336.7 L  1258.8 336.7 1149.1 26.4 1039.4 -73.7 929.7 -128.7 820.0 -153.9 710.3 -153.9 600.6 -128.7 490.9 -73.7 381.2 26.4 271.5 336.7 271.5 336.7 381.2 647.0 490.9 747.1 600.6 802.1 710.3 827.3 820.0 827.3 929.7 802.1 1039.4 747.1 1149.1 647.0 1258.8 336.7z"/>
        <path d="M 1156.4 24.4 L  1156.4 24.4 1046.0 -76.5 935.5 -131.9 825.0 -157.2 714.5 -157.2 604.0 -131.9 493.5 -76.5 383.1 24.4 272.6 336.9 272.6 336.9 383.1 649.4 493.5 750.3 604.0 805.6 714.5 831.0 825.0 831.0 935.5 805.6 1046.0 750.3 1156.4 649.4 1266.9 336.9 1266.9 336.9z"/>
        <path d="M 499.3 752.9 L  499.3 752.9 610.5 808.6 721.6 834.1 832.8 834.1 943.9 808.6 1055.0 752.9 1166.2 651.4 1277.3 337.1 1277.3 337.1 1166.2 22.8 1055.0 -78.7 943.9 -134.4 832.8 -159.9 721.6 -159.9 610.5 -134.4 499.3 -78.7 388.2 22.8 277.1 337.1 277.1 337.1 388.2 651.4z"/>
        <path d="M 1060.6 -79.7 L  1060.6 -79.7 949.2 -135.6 837.8 -161.1 726.3 -161.1 614.9 -135.6 503.5 -79.7 392.1 22.0 280.7 337.2 280.7 337.2 392.1 652.3 503.5 754.0 614.9 809.9 726.3 835.4 837.8 835.4 949.2 809.9 1060.6 754.0 1172.0 652.3 1283.4 337.2 1283.4 337.2 1172.0 22.0z"/>
        <path d="M 957.8 -140.6 L  957.8 -140.6 845.1 -166.5 732.3 -166.5 619.6 -140.6 506.9 -84.1 394.2 18.8 281.4 337.7 281.4 337.7 394.2 656.5 506.9 759.4 619.6 815.9 732.3 841.8 845.1 841.8 957.8 815.9 1070.5 759.4 1183.2 656.5 1296.0 337.7 1296.0 337.7 1183.2 18.8 1070.5 -84.1z"/>
        <path d="M 397.2 658.5 L  397.2 658.5 510.5 762.0 623.7 818.7 737.0 844.7 850.3 844.7 963.6 818.7 1076.8 762.0 1190.1 658.5 1303.4 338.1 1303.4 338.1 1190.1 17.7 1076.8 -85.7 963.6 -142.5 850.3 -168.5 737.0 -168.5 623.7 -142.5 510.5 -85.7 397.2 17.7 283.9 338.1 283.9 338.1z"/>
        <path d="M 1082.6 -87.9 L  1082.6 -87.9 968.8 -145.0 854.9 -171.1 741.0 -171.1 627.1 -145.0 513.3 -87.9 399.4 16.1 285.5 338.2 285.5 338.2 399.4 660.3 513.3 764.2 627.1 821.3 741.0 847.4 854.9 847.4 968.8 821.3 1082.6 764.2 1196.5 660.3 1310.4 338.2 1310.4 338.2 1196.5 16.1z"/>
        <path d="M 859.3 -174.9 L  859.3 -174.9 744.3 -174.9 629.4 -148.5 514.4 -91.0 399.5 14.0 284.5 339.2 284.5 339.2 399.5 664.3 514.4 769.3 629.4 826.9 744.3 853.3 859.3 853.3 974.2 826.9 1089.2 769.3 1204.1 664.3 1319.1 339.2 1319.1 339.2 1204.1 14.0 1089.2 -91.0 974.2 -148.5z"/>
        <path d="M 745.5 854.3 L  745.5 854.3 860.5 854.3 975.5 827.9 1090.5 770.3 1205.5 665.2 1320.5 340.0 1320.5 340.0 1205.5 14.7 1090.5 -90.3 975.5 -147.9 860.5 -174.3 745.5 -174.3 630.5 -147.9 515.5 -90.3 400.5 14.7 285.5 340.0 285.5 340.0 400.5 665.2 515.5 770.3 630.5 827.9z"/>
        <path d="M 630.6 834.4 L  630.6 834.4 746.9 861.0 863.2 861.0 979.5 834.4 1095.8 776.1 1212.1 669.9 1328.4 340.9 1328.4 340.9 1212.1 12.0 1095.8 -94.2 979.5 -152.5 863.2 -179.1 746.9 -179.1 630.6 -152.5 514.3 -94.2 398.0 12.0 281.7 340.9 281.7 340.9 398.0 669.9 514.3 776.1z"/>
        <path d="M 630.6 839.9 L  630.6 839.9 748.2 866.9 865.8 866.9 983.4 839.9 1101.0 781.0 1218.6 673.6 1336.2 341.0 1336.2 341.0 1218.6 8.3 1101.0 -99.1 983.4 -158.0 865.8 -185.0 748.2 -185.0 630.6 -158.0 513.0 -99.1 395.4 8.3 277.8 341.0 277.8 341.0 395.4 673.6 513.0 781.0z"/>
        <path d="M 873.0 -184.8 L  873.0 -184.8 755.3 -184.8 637.5 -157.7 519.8 -98.8 402.0 8.8 284.3 341.9 284.3 341.9 402.0 674.9 519.8 782.5 637.5 841.5 755.3 868.5 873.0 868.5 990.8 841.5 1108.6 782.5 1226.3 674.9 1344.1 341.9 1344.1 341.9 1226.3 8.8 1108.6 -98.8 990.8 -157.7z"/>
        <path d="M 1353.7 341.9 L  1353.7 341.9 1353.7 341.9 1235.5 7.6 1117.3 -100.3 999.1 -159.5 881.0 -186.6 762.8 -186.6 644.6 -159.5 526.4 -100.3 408.2 7.6 290.0 341.9 290.0 341.9 408.2 676.2 526.4 784.1 644.6 843.3 762.8 870.4 881.0 870.4 999.1 843.3 1117.3 784.1 1235.5 676.2z"/>
        <path d="M 1124.4 -103.7 L  1124.4 -103.7 1005.2 -163.4 886.1 -190.8 767.0 -190.8 647.8 -163.4 528.7 -103.7 409.6 5.1 290.4 342.0 290.4 342.0 409.6 679.0 528.7 787.8 647.8 847.5 767.0 874.8 886.1 874.8 1005.2 847.5 1124.4 787.8 1243.5 679.0 1362.7 342.0 1362.7 342.0 1243.5 5.1z"/>
        <path d="M 294.2 342.7 L  294.2 342.7 294.2 342.7 414.2 682.0 534.2 791.5 654.1 851.6 774.1 879.2 894.0 879.2 1014.0 851.6 1134.0 791.5 1253.9 682.0 1373.9 342.7 1373.9 342.7 1253.9 3.4 1134.0 -106.2 1014.0 -166.3 894.0 -193.8 774.1 -193.8 654.1 -166.3 534.2 -106.2 414.2 3.4z"/>
        <path d="M 902.3 884.5 L  902.3 884.5 1023.4 856.7 1144.4 796.1 1265.5 685.5 1386.5 343.1 1386.5 343.1 1265.5 0.7 1144.4 -109.8 1023.4 -170.5 902.3 -198.3 781.3 -198.3 660.2 -170.5 539.2 -109.8 418.1 0.7 297.0 343.1 297.0 343.1 418.1 685.5 539.2 796.1 660.2 856.7 781.3 884.5z"/>
        <path d="M 781.2 889.2 L  781.2 889.2 903.1 889.2 1025.1 861.2 1147.0 800.2 1269.0 688.8 1390.9 343.9 1390.9 343.9 1269.0 -1.0 1147.0 -112.4 1025.1 -173.5 903.1 -201.4 781.2 -201.4 659.3 -173.5 537.3 -112.4 415.4 -1.0 293.4 343.9 293.4 343.9 415.4 688.8 537.3 800.2 659.3 861.2z"/>
        <path d="M 907.6 -202.5 L  907.6 -202.5 785.2 -202.5 662.8 -174.4 540.4 -113.1 418.0 -1.3 295.6 344.9 295.6 344.9 418.0 691.1 540.4 802.9 662.8 864.2 785.2 892.3 907.6 892.3 1030.0 864.2 1152.4 802.9 1274.8 691.1 1397.2 344.9 1397.2 344.9 1274.8 -1.3 1152.4 -113.1 1030.0 -174.4z"/>
        <path d="M 423.7 692.9 L  423.7 692.9 546.4 804.9 669.1 866.4 791.8 894.5 914.5 894.5 1037.1 866.4 1159.8 804.9 1282.5 692.9 1405.2 345.8 1405.2 345.8 1282.5 -1.2 1159.8 -113.2 1037.1 -174.7 914.5 -202.8 791.8 -202.8 669.1 -174.7 546.4 -113.2 423.7 -1.2 301.0 345.8 301.0 345.8z"/>
        <path d="M 1044.2 -178.9 L  1044.2 -178.9 920.3 -207.3 796.4 -207.3 672.6 -178.9 548.7 -116.8 424.8 -3.7 301.0 346.6 301.0 346.6 424.8 697.0 548.7 810.1 672.6 872.2 796.4 900.6 920.3 900.6 1044.2 872.2 1168.0 810.1 1291.9 697.0 1415.8 346.6 1415.8 346.6 1291.9 -3.7 1168.0 -116.8z"/>
        <path d="M 1047.7 -180.3 L  1047.7 -180.3 923.3 -208.8 798.9 -208.8 674.4 -180.3 550.0 -118.0 425.6 -4.3 301.2 347.5 301.2 347.5 425.6 699.4 550.0 813.0 674.4 875.3 798.9 903.9 923.3 903.9 1047.7 875.3 1172.1 813.0 1296.5 699.4 1420.9 347.5 1420.9 347.5 1296.5 -4.3 1172.1 -118.0z"/>
    </g> 
</svg>