<?xml version="1.0" encoding="UTF-8" standalone="no"?>
<svg width="1000" height="500" version="1.1" xmlns="http://www.w3.org/2000/svg">
    <g opacity="1.0">
        <path d="M 43.8 260.6 L  43.8 260.6 53.0 231.8 50.4 247.5 53.0 253.8 44.9 263.6 52.4 237.8 56.9 252.9 49.0 252.2 51.8 247.1 57.8 248.8 39.2 248.8 75.1 267.8 83.2 245.8 47.5 257.7z" stroke="#1B3973" stroke-width="1" fill="transparent" />
        <path d="M 87.7 263.2 L  87.7 263.2 63.1 257.0 62.0 240.4 56.9 242.1 63.7 250.2 60.7 240.8 74.0 248.9 67.2 254.2 45.6 248.3 67.9 255.5 50.2 253.2 51.5 242.6 53.1 258.8 39.4 247.1 53.0 260.7 57.5 234.8 61.8 261.2 56.3 261.9 44.8 262.8 73.3 263.7z" stroke="#4DDD82" stroke-width="1" fill="transparent" />
        <path d="M 64.8 243.6 L  64.8 243.6 66.4 253.6 71.8 250.4 40.7 249.9 56.6 240.9 58.8 251.5 48.8 273.0 59.1 251.4 53.7 251.4 59.0 234.7z" stroke="#397A0C" stroke-width="1" fill="transparent" />
        <path d="M 57.5 241.4 L  57.5 241.4 63.5 252.1 65.0 239.4 60.2 265.8 76.6 247.7 66.1 249.7 50.3 264.6 54.9 270.4 54.4 259.0 59.8 269.8 53.0 246.8 58.8 239.3 75.5 255.2 37.4 251.2 58.5 243.9 64.4 248.7 68.7 245.8 36.2 232.6z" stroke="#A26C33" stroke-width="1" fill="transparent" />
        <path d="M 72.4 260.1 L  72.4 260.1 57.5 271.8 58.7 245.8 74.5 276.7 69.7 260.8 67.6 253.2 74.4 259.4 67.9 244.9 75.8 237.1 84.6 244.4 65.5 238.4 59.5 250.6 79.9 245.0 63.9 243.4 52.5 251.3 59.4 254.6 50.6 257.1 60.6 261.8z" stroke="#A544AD" stroke-width="1" fill="transparent" />
        <path d="M 53.6 242.8 L  53.6 242.8 59.0 262.5 64.2 249.5 58.8 262.4 74.3 254.7 83.5 240.9 70.5 248.6 66.5 270.5 77.4 248.6 83.1 250.3 82.5 244.2 72.1 251.7 78.3 258.7 79.2 239.8 89.0 229.2 79.4 242.9 64.7 243.0 63.0 238.9z" stroke="#CFF1E0" stroke-width="1" fill="transparent" />
        <path d="M 59.6 250.2 L  59.6 250.2 65.2 247.7 77.4 253.3 71.0 258.1 80.7 272.4 84.9 231.3 101.4 238.0 84.0 239.0 83.6 235.7 88.4 231.9z" stroke="#CB832C" stroke-width="1" fill="transparent" />
        <path d="M 63.7 240.8 L  63.7 240.8 71.8 243.0 52.9 260.2 55.4 253.2 67.7 253.5 58.7 250.3 69.5 255.1 57.4 259.6 68.3 270.4 63.0 254.9 90.1 247.6 73.4 259.8 78.6 261.2 82.2 254.5 76.1 249.9 78.6 236.6 79.2 225.0 59.5 228.3z" stroke="#F939CE" stroke-width="1" fill="transparent" />
        <path d="M 96.1 247.9 L  96.1 247.9 63.5 241.2 65.6 242.3 54.6 257.6 82.5 260.7 61.3 271.6 57.4 257.7 71.0 271.1 83.3 260.7 106.5 251.3 84.2 237.8 88.5 249.2z" stroke="#63DAEE" stroke-width="1" fill="transparent" />
        <path d="M 64.9 260.5 L  64.9 260.5 81.0 255.2 79.7 265.5 85.3 269.9 84.8 268.5 79.0 264.6 95.7 255.4 101.7 255.8 103.2 230.9 88.0 245.7 79.3 245.4 77.3 231.9z" stroke="#33B48C" stroke-width="1" fill="transparent" />
        <path d="M 93.3 257.7 L  93.3 257.7 116.4 252.5 91.3 242.1 84.9 236.3 70.7 235.0 81.9 238.8 79.5 230.0 61.8 245.8 52.4 258.2 85.7 240.2 67.2 253.6 57.5 254.1 79.0 266.6 72.4 271.3 93.5 271.7 88.3 256.9z" stroke="#2F0CD2" stroke-width="1" fill="transparent" />
        <path d="M 63.6 227.4 L  63.6 227.4 62.0 238.7 57.3 240.6 69.4 231.3 62.5 253.9 83.0 251.5 69.5 264.3 68.5 259.2 96.1 269.7 86.3 251.1 101.2 239.8 84.1 234.4 75.6 221.3 98.3 236.6z" stroke="#24A95A" stroke-width="1" fill="transparent" />
        <path d="M 100.1 232.4 L  100.1 232.4 92.3 242.7 86.7 231.5 65.8 238.6 58.5 240.8 55.0 246.0 75.0 248.9 77.8 265.9 72.1 259.0 71.0 285.3 69.6 267.2 79.3 268.4 104.4 261.1 108.3 245.0 107.0 285.4 98.8 246.2z" stroke="#A224BD" stroke-width="1" fill="transparent" />
        <path d="M 100.4 232.9 L  100.4 232.9 108.1 240.5 62.6 253.3 67.0 222.5 88.8 249.9 83.9 275.4 88.6 287.0 98.4 258.2 101.5 253.1 98.0 233.2z" stroke="#C51081" stroke-width="1" fill="transparent" />
        <path d="M 96.1 245.4 L  96.1 245.4 112.1 235.1 75.4 230.5 83.4 244.0 76.3 238.0 68.8 263.4 51.7 237.9 81.4 263.0 59.0 265.8 78.6 264.4 99.3 260.0 77.4 257.0 105.2 244.8 110.6 241.2z" stroke="#D62600" stroke-width="1" fill="transparent" />
        <path d="M 92.2 229.8 L  92.2 229.8 72.3 239.1 86.2 268.0 86.7 263.9 86.5 268.9 106.9 254.8 135.7 258.9 106.0 247.5 100.5 247.8 103.1 235.5z" stroke="#B701F0" stroke-width="1" fill="transparent" />
        <path d="M 94.1 227.7 L  94.1 227.7 80.1 251.2 62.6 271.3 81.0 261.1 76.3 268.3 70.2 265.3 87.2 273.1 118.5 281.7 112.3 271.2 105.4 269.4 112.3 252.5 115.3 242.4 106.4 219.2 106.6 227.2 92.8 229.8 102.5 223.5 85.0 253.2 81.0 230.2z" stroke="#E57A43" stroke-width="1" fill="transparent" />
        <path d="M 103.9 223.8 L  103.9 223.8 76.6 233.4 82.5 263.0 67.7 253.6 63.3 287.1 80.2 265.7 122.8 271.9 116.4 245.5 111.1 248.5 113.1 260.9z" stroke="#228C9C" stroke-width="1" fill="transparent" />
        <path d="M 82.7 234.0 L  82.7 234.0 108.1 288.1 97.5 266.6 108.5 267.7 104.7 280.3 121.5 247.0 124.9 240.0 113.8 210.6 108.9 241.3 91.1 229.4 85.4 225.6 108.4 238.7 77.1 241.1 85.3 232.4z" stroke="#7ED3A1" stroke-width="1" fill="transparent" />
        <path d="M 76.7 246.0 L  76.7 246.0 82.8 221.5 82.2 232.1 70.8 251.4 91.2 274.9 72.7 265.2 111.6 271.0 104.4 269.3 118.7 263.7 133.0 255.0 133.2 251.4 114.9 230.3 124.6 243.9 107.5 225.6z" stroke="#178B51" stroke-width="1" fill="transparent" />
        <path d="M 91.2 218.7 L  91.2 218.7 85.1 221.5 97.2 235.0 69.1 198.2 81.0 247.4 90.3 252.2 69.8 267.2 88.1 272.5 89.6 261.7 108.5 261.6 103.8 269.5 106.3 263.9 136.4 285.3 122.6 260.2 139.9 260.0 109.9 227.9 109.7 212.5 115.4 225.2z" stroke="#F12396" stroke-width="1" fill="transparent" />
        <path d="M 128.2 231.3 L  128.2 231.3 97.3 241.1 113.9 226.5 72.6 215.9 71.4 256.5 68.8 240.6 88.7 275.7 109.0 273.4 109.7 284.9 120.3 276.9 131.1 250.3 139.8 241.9z" stroke="#5D34D9" stroke-width="1" fill="transparent" />
        <path d="M 126.5 228.9 L  126.5 228.9 116.3 227.8 92.8 221.3 76.5 234.0 74.1 260.5 113.3 277.3 96.8 292.3 103.1 262.3 123.7 266.5 137.7 247.9 136.1 243.5 136.2 227.4z" stroke="#97BDEB" stroke-width="1" fill="transparent" />
        <path d="M 100.1 263.9 L  100.1 263.9 100.5 275.8 130.5 297.1 131.4 252.8 130.1 248.0 131.0 249.9 119.1 220.7 112.0 219.2 100.8 217.8 81.9 213.0 72.5 247.3 82.7 233.9z" stroke="#EDC87D" stroke-width="1" fill="transparent" />
        <path d="M 128.2 277.9 L  128.2 277.9 123.7 255.9 141.5 240.8 136.8 219.7 136.8 214.1 108.1 227.9 118.7 220.2 106.9 209.4 98.8 245.1 111.6 208.2 83.3 220.0 78.7 242.8 82.9 258.5 81.1 267.4 114.6 279.7 94.9 270.7 107.4 283.0 115.3 266.4 119.3 288.3 124.6 271.0z" stroke="#DDE9AE" stroke-width="1" fill="transparent" />
        <path d="M 123.9 277.1 L  123.9 277.1 142.2 280.7 158.3 260.7 134.5 251.4 149.5 245.7 131.7 212.6 158.9 239.6 134.0 234.2 106.7 241.4 113.0 222.4 91.5 211.2 69.7 261.2 72.6 242.9 96.2 266.2 105.0 274.6 118.5 283.7z" stroke="#215B1F" stroke-width="1" fill="transparent" />
        <path d="M 82.2 246.9 L  82.2 246.9 106.6 237.6 93.9 272.6 120.9 286.6 124.4 273.8 116.8 262.7 128.8 259.7 158.1 280.6 163.1 247.7 158.0 230.5 126.4 225.9 140.3 206.7 144.7 214.8 119.2 218.3 112.1 219.1 113.6 196.9z" stroke="#F8B575" stroke-width="1" fill="transparent" />
        <path d="M 101.1 265.5 L  101.1 265.5 86.9 223.7 107.0 276.0 109.5 257.0 126.9 284.3 125.8 276.7 154.9 268.2 130.7 273.0 165.7 263.9 156.0 249.0 179.1 248.1 134.2 223.7 142.2 224.7 130.1 220.4 143.5 208.3 113.3 221.2 115.8 215.3 123.7 222.4z" stroke="#8F23E8" stroke-width="1" fill="transparent" />
        <path d="M 118.8 273.9 L  118.8 273.9 138.2 272.0 141.5 277.0 166.8 250.2 164.0 268.8 156.2 205.4 136.5 212.5 136.6 221.4 116.4 220.6 103.0 261.8 98.4 252.1 108.0 275.3z" stroke="#C80D59" stroke-width="1" fill="transparent" />
        <path d="M 163.9 258.3 L  163.9 258.3 154.9 242.4 159.3 211.1 145.8 236.0 131.9 220.7 125.4 222.7 109.8 220.5 107.5 258.5 108.6 270.4 129.2 267.3 128.7 271.5 126.4 296.4 135.9 277.6 157.2 275.9z" stroke="#BD76F0" stroke-width="1" fill="transparent" />
        <path d="M 156.4 223.7 L  156.4 223.7 151.1 211.9 154.6 210.5 128.1 219.2 138.7 198.3 125.0 218.0 105.0 245.1 110.5 257.2 120.5 264.9 118.3 295.1 127.7 269.0 117.6 284.4 140.3 291.5 152.8 292.5 158.9 275.2 162.5 248.6 164.7 254.4 161.1 229.4z" stroke="#88981E" stroke-width="1" fill="transparent" />
        <path d="M 147.9 198.0 L  147.9 198.0 137.4 218.7 130.8 220.1 94.8 245.9 92.2 252.9 104.3 293.8 134.7 276.9 163.9 284.5 164.0 273.0 186.0 245.8 164.0 252.3 171.8 232.6z" stroke="#EF2416" stroke-width="1" fill="transparent" />
        <path d="M 137.4 207.0 L  137.4 207.0 124.0 207.1 126.9 185.2 121.4 212.9 109.4 243.7 120.2 253.7 94.7 283.0 128.1 284.3 118.0 297.3 118.3 292.0 147.6 273.3 160.5 273.5 152.4 277.6 187.5 268.6 170.9 258.8 187.8 257.0 156.7 231.3 157.5 207.8 142.7 210.0 152.6 206.7z" stroke="#C252B6" stroke-width="1" fill="transparent" />
        <path d="M 95.4 264.0 L  95.4 264.0 125.4 275.6 156.1 294.5 159.8 277.0 150.9 275.9 171.9 275.4 187.3 244.5 176.2 249.0 156.3 223.9 170.2 207.2 151.2 208.3 124.7 203.3 115.4 209.3 109.3 234.7 95.6 246.4 115.0 267.1z" stroke="#290D3A" stroke-width="1" fill="transparent" />
        <path d="M 131.3 274.2 L  131.3 274.2 143.7 299.6 147.5 286.0 189.1 267.4 196.9 255.8 192.3 251.4 166.2 219.7 161.9 218.5 144.3 215.0 116.6 214.4 121.0 260.5 111.7 284.0z" stroke="#0CAFEA" stroke-width="1" fill="transparent" />
        <path d="M 172.9 191.1 L  172.9 191.1 113.5 217.2 121.9 253.7 139.2 241.5 134.5 285.2 155.7 301.4 185.0 295.3 178.2 245.1 192.0 251.2 165.1 227.3z" stroke="#877C82" stroke-width="1" fill="transparent" />
        <path d="M 179.1 210.4 L  179.1 210.4 141.4 211.3 121.7 216.6 123.7 227.7 101.1 243.6 108.7 255.5 118.5 273.5 136.3 300.7 157.0 298.5 159.6 285.8 173.7 299.9 174.8 266.3 192.7 260.6 208.6 231.9 194.6 259.0 190.3 222.7 179.6 219.7 169.1 215.1z" stroke="#A680EF" stroke-width="1" fill="transparent" />
        <path d="M 141.0 208.0 L  141.0 208.0 121.8 243.7 129.7 258.5 129.6 255.0 122.1 279.8 131.5 282.1 150.2 296.9 152.0 292.7 155.4 283.8 170.2 282.2 177.9 289.8 185.6 268.7 205.1 245.7 206.8 234.8 194.2 225.2 179.2 202.9 170.7 210.3 181.6 209.9 155.1 200.0 135.3 214.0z" stroke="#D1BDFA" stroke-width="1" fill="transparent" />
        <path d="M 171.6 290.3 L  171.6 290.3 184.0 285.8 185.9 254.7 218.3 240.5 188.9 212.1 186.8 199.2 173.7 204.3 151.2 194.6 137.8 219.8 129.6 212.9 104.5 256.6 115.1 247.5 119.5 297.6 151.1 282.8 157.9 298.2 141.9 274.8z" stroke="#B3B027" stroke-width="1" fill="transparent" />
        <path d="M 156.2 298.1 L  156.2 298.1 180.7 280.2 184.3 280.9 202.3 264.0 234.1 267.3 185.3 216.7 190.2 215.0 173.1 202.3 160.6 207.8 151.3 209.0 121.7 214.8 96.6 243.1 103.0 247.7 107.9 283.1 146.9 300.0 163.2 303.3z" stroke="#360A7E" stroke-width="1" fill="transparent" />
        <path d="M 179.0 281.6 L  179.0 281.6 210.6 262.4 214.7 250.1 207.8 241.9 214.8 216.9 203.1 206.9 164.7 199.5 160.2 201.1 154.4 198.7 141.7 222.0 163.5 241.2 105.6 224.6 119.4 261.9 119.1 253.8 121.9 282.9 121.9 286.5 158.1 291.6 148.7 296.2 183.1 296.3 188.2 299.7z" stroke="#B8FB2A" stroke-width="1" fill="transparent" />
        <path d="M 222.0 256.7 L  222.0 256.7 179.1 201.0 178.5 212.4 153.2 204.0 136.2 234.0 145.5 257.2 147.9 292.3 160.1 277.1 191.9 299.6 197.6 233.4z" stroke="#F7C935" stroke-width="1" fill="transparent" />
        <path d="M 134.2 253.1 L  134.2 253.1 132.6 243.3 132.7 298.0 163.8 303.9 191.5 293.8 218.2 253.0 223.4 275.2 182.7 219.2 171.1 213.8 145.5 206.9z" stroke="#670582" stroke-width="1" fill="transparent" />
        <path d="M 125.3 215.0 L  125.3 215.0 133.4 269.1 104.0 263.3 137.0 279.1 165.1 288.7 137.5 289.4 169.8 305.7 191.8 294.4 192.8 290.8 193.6 295.4 198.1 276.0 210.3 242.9 222.0 256.8 196.5 219.2 202.2 216.1 196.9 193.5 151.3 209.7 172.1 193.6 156.3 204.5 148.0 204.1z" stroke="#1F1BC7" stroke-width="1" fill="transparent" />
        <path d="M 220.6 247.3 L  220.6 247.3 190.3 205.4 190.4 210.0 166.8 187.9 155.3 205.2 146.5 207.9 134.7 253.0 122.2 264.1 119.4 279.5 157.5 299.5 176.4 307.3 185.1 305.8 187.8 275.7 229.4 251.2z" stroke="#434976" stroke-width="1" fill="transparent" />
        <path d="M 169.7 194.2 L  169.7 194.2 167.1 214.1 158.0 191.8 158.9 218.5 125.1 243.5 118.7 250.5 129.6 278.9 142.0 271.9 175.2 293.0 189.5 287.6 178.1 314.3 205.9 294.3 233.0 282.1 220.1 251.9 213.8 240.9 215.8 219.2 195.2 220.1 205.0 203.2z" stroke="#AF103D" stroke-width="1" fill="transparent" />
        <path d="M 190.7 292.3 L  190.7 292.3 219.5 276.3 240.1 245.6 222.1 240.5 210.1 215.7 189.9 196.5 166.6 209.3 175.4 200.1 146.9 210.7 122.3 258.5 131.3 249.5 177.4 278.9 166.4 323.5 173.1 295.6z" stroke="#693574" stroke-width="1" fill="transparent" />
        <path d="M 222.1 245.2 L  222.1 245.2 212.4 213.0 197.7 199.3 206.5 209.6 186.9 191.6 186.3 214.2 158.5 202.8 123.7 220.6 145.6 249.9 132.7 240.0 139.2 290.0 148.7 294.4 174.2 311.4 184.1 287.1 200.4 283.7 221.2 287.0 197.6 268.0 259.6 245.1z" stroke="#E16775" stroke-width="1" fill="transparent" />
        <path d="M 161.7 195.8 L  161.7 195.8 160.6 207.1 147.5 200.7 145.9 208.1 126.0 224.8 114.3 238.3 141.7 266.5 154.8 279.1 161.4 308.7 156.5 284.5 179.6 299.2 190.1 296.2 214.1 272.4 221.3 278.0 236.0 246.8 216.5 248.1 220.1 233.3 214.9 199.0 203.1 210.6 206.8 212.7z" stroke="#EC60D9" stroke-width="1" fill="transparent" />
        <path d="M 202.2 297.8 L  202.2 297.8 222.5 270.6 237.5 259.0 238.0 251.9 226.0 225.2 204.0 199.8 202.7 207.6 175.4 216.6 180.5 208.7 163.3 196.1 148.0 217.3 164.5 227.2 113.1 248.8 142.5 254.7 138.6 294.1 138.1 292.8 162.5 285.7 165.4 305.9 198.8 299.7 207.4 299.2z" stroke="#8E33AD" stroke-width="1" fill="transparent" />
        <path d="M 222.6 216.3 L  222.6 216.3 196.7 183.3 165.6 187.0 138.4 205.0 127.0 250.4 127.2 247.8 145.9 285.2 162.8 295.1 184.9 327.9 204.7 295.1 226.0 286.4 240.9 256.6 243.3 258.0 226.9 204.3z" stroke="#E2E94A" stroke-width="1" fill="transparent" />
        <path d="M 191.0 298.8 L  191.0 298.8 194.0 296.4 230.9 294.2 231.6 249.6 231.8 254.5 228.8 226.2 204.4 201.3 192.5 184.8 154.5 178.8 148.9 208.0 122.8 240.5 119.1 254.6 162.3 292.3 189.7 299.1z" stroke="#CDF1ED" stroke-width="1" fill="transparent" />
        <path d="M 215.3 211.1 L  215.3 211.1 192.9 195.4 177.3 212.4 151.4 254.4 143.8 253.5 170.5 295.9 171.6 288.4 240.8 307.0 253.6 244.1 236.3 255.7z" stroke="#4AB495" stroke-width="1" fill="transparent" />
        <path d="M 197.9 305.0 L  197.9 305.0 213.6 288.5 228.0 307.4 239.2 228.4 251.8 241.2 239.9 211.1 197.5 183.6 178.3 204.8 168.3 206.7 142.5 273.5 148.0 270.3 152.2 298.8z" stroke="#FF2129" stroke-width="1" fill="transparent" />
        <path d="M 125.6 243.4 L  125.6 243.4 136.4 258.0 158.7 274.4 144.7 299.4 194.2 295.6 208.4 309.3 220.2 302.2 242.5 283.1 263.2 252.6 258.4 247.4 259.7 224.5 238.7 177.3 199.9 186.5 203.8 201.5 170.8 189.8 148.4 231.2z" stroke="#F80A0B" stroke-width="1" fill="transparent" />
        <path d="M 182.2 314.4 L  182.2 314.4 194.1 291.3 231.8 282.9 250.6 239.7 263.4 242.0 230.9 195.6 188.8 195.2 172.5 182.1 179.5 205.1 145.1 252.6 142.8 238.1 167.0 304.6z" stroke="#D1530E" stroke-width="1" fill="transparent" />
        <path d="M 267.3 264.8 L  267.3 264.8 270.4 254.0 251.4 208.1 217.7 192.4 202.8 197.2 185.4 195.5 157.4 212.2 136.9 247.0 142.8 265.2 171.0 306.2 193.0 293.2 193.7 297.1 224.8 304.1 250.2 289.1z" stroke="#A3D51B" stroke-width="1" fill="transparent" />
        <path d="M 182.8 193.1 L  182.8 193.1 180.3 191.8 172.5 210.7 144.9 236.9 132.5 259.6 163.0 290.3 164.5 313.5 188.7 305.2 201.9 298.8 221.6 307.2 231.0 284.4 242.5 280.8 264.8 252.0 257.7 250.6 244.7 228.2 229.7 199.8 229.8 209.2 214.3 194.5z" stroke="#E8EA9F" stroke-width="1" fill="transparent" />
        <path d="M 200.2 312.3 L  200.2 312.3 238.7 273.9 286.2 235.3 275.4 247.4 241.7 204.2 231.3 193.8 191.3 178.3 167.3 198.8 128.1 270.6 135.0 259.6 185.0 297.3 177.7 320.5z" stroke="#F907D7" stroke-width="1" fill="transparent" />
        <path d="M 283.6 264.4 L  283.6 264.4 246.8 197.7 218.6 183.4 187.1 179.9 161.5 200.6 144.6 243.0 140.8 246.0 155.7 309.4 196.1 312.8 227.0 308.7 255.5 312.6 264.4 266.3z" stroke="#E54F66" stroke-width="1" fill="transparent" />
        <path d="M 195.9 181.3 L  195.9 181.3 157.6 210.7 164.0 264.2 154.6 233.8 167.6 294.9 222.4 317.1 234.2 301.3 240.3 279.7 257.1 248.0 263.6 251.8 241.6 192.9 210.3 183.9z" stroke="#67CB19" stroke-width="1" fill="transparent" />
        <path d="M 253.9 297.5 L  253.9 297.5 270.9 234.9 283.8 245.7 258.1 201.9 208.5 182.3 191.2 196.4 167.3 265.1 165.2 253.2 187.8 312.1 215.8 328.7z" stroke="#B321AA" stroke-width="1" fill="transparent" />
        <path d="M 224.7 199.4 L  224.7 199.4 218.8 191.6 184.5 194.3 149.6 203.4 170.1 253.3 151.6 237.1 203.1 306.3 183.2 309.3 210.1 292.3 232.6 308.5 220.9 292.3 241.4 321.5 256.3 324.7 270.3 290.2 275.6 256.8 291.1 245.4 278.6 204.8 248.8 193.3 242.0 192.5 221.2 172.5z" stroke="#1C5102" stroke-width="1" fill="transparent" />
        <path d="M 265.7 214.7 L  265.7 214.7 243.1 184.8 238.2 177.4 236.4 207.0 191.3 191.8 177.2 214.8 165.8 241.2 174.0 235.7 171.9 291.7 209.2 303.5 224.3 300.4 250.1 314.4 267.9 296.7 275.0 294.8 290.0 252.0 292.4 254.8z" stroke="#3A776B" stroke-width="1" fill="transparent" />
        <path d="M 206.4 176.3 L  206.4 176.3 167.0 247.5 159.4 264.5 178.0 311.3 208.9 299.5 244.7 313.6 260.3 303.1 272.1 252.5 287.3 257.2 253.2 201.4 225.8 188.0 215.9 197.6z" stroke="#D36560" stroke-width="1" fill="transparent" />
        <path d="M 261.6 325.0 L  261.6 325.0 283.7 252.2 300.1 263.8 273.8 172.1 237.4 184.7 192.3 202.9 181.9 243.0 159.3 251.6 195.7 317.6 236.0 316.7z" stroke="#0FD544" stroke-width="1" fill="transparent" />
        <path d="M 293.6 254.0 L  293.6 254.0 294.3 236.0 258.2 207.7 246.4 174.4 216.8 163.2 207.7 187.5 194.9 229.8 181.4 265.7 160.8 248.9 190.9 300.4 191.2 314.6 236.1 332.3 231.4 313.2 266.2 311.6z" stroke="#2AA9D0" stroke-width="1" fill="transparent" />
        <path d="M 239.9 185.8 L  239.9 185.8 235.5 190.7 210.2 191.8 211.9 188.7 180.3 210.1 157.8 266.8 169.6 251.1 155.9 292.9 196.8 304.4 211.2 326.6 218.5 302.4 237.8 305.9 246.1 323.8 279.1 298.8 285.4 309.1 280.0 234.9 300.6 261.3 280.4 208.9 264.7 183.7 260.9 191.5z" stroke="#02EFCD" stroke-width="1" fill="transparent" />
        <path d="M 223.9 311.2 L  223.9 311.2 258.9 313.9 260.5 301.3 313.4 232.0 314.8 254.7 276.4 194.1 254.5 180.0 242.7 164.5 212.0 178.3 183.6 198.5 144.4 249.7 174.7 266.6 207.9 295.8 217.7 308.6z" stroke="#4416D7" stroke-width="1" fill="transparent" />
        <path d="M 203.9 302.1 L  203.9 302.1 219.0 310.5 256.6 313.0 275.9 287.0 299.1 235.9 292.5 248.2 293.6 191.3 239.8 167.9 208.1 176.7 202.5 189.1 164.0 247.1 178.9 258.8z" stroke="#E8D98E" stroke-width="1" fill="transparent" />
        <path d="M 195.9 312.6 L  195.9 312.6 235.2 334.5 237.0 323.1 263.2 321.6 299.8 296.7 310.0 217.9 291.6 247.2 281.8 201.0 252.2 183.4 236.0 179.9 217.2 202.0 220.7 182.8 186.2 204.1 173.0 263.1 169.0 255.2 184.4 307.1z" stroke="#5ECDC3" stroke-width="1" fill="transparent" />
        <path d="M 277.4 185.4 L  277.4 185.4 253.3 173.1 240.3 179.0 228.6 178.2 221.4 172.8 182.6 208.2 173.6 266.4 169.9 262.6 196.0 290.8 195.8 305.5 217.5 310.8 235.0 338.2 268.9 324.4 275.3 313.2 304.4 301.4 313.9 257.2 320.2 233.3 297.4 199.9z" stroke="#296223" stroke-width="1" fill="transparent" />
        <path d="M 172.5 192.8 L  172.5 192.8 169.0 254.7 168.8 264.1 172.8 301.4 198.2 328.6 223.3 290.6 226.8 320.1 259.0 305.5 266.8 323.9 299.8 305.4 319.3 283.7 332.9 241.6 314.3 248.9 303.0 208.5 279.7 184.4 283.2 191.3 254.1 169.1 230.7 168.7 213.8 188.5 192.6 191.0z" stroke="#F8F336" stroke-width="1" fill="transparent" />
        <path d="M 277.5 326.4 L  277.5 326.4 312.9 297.9 305.5 250.3 342.0 244.2 286.2 194.0 284.0 178.0 259.1 183.0 224.1 173.4 256.7 162.2 227.9 200.6 193.1 204.3 179.1 219.3 178.3 262.9 189.4 299.1 217.1 312.9 233.6 332.9 235.2 319.3 251.2 338.6z" stroke="#5A8960" stroke-width="1" fill="transparent" />
        <path d="M 269.7 191.6 L  269.7 191.6 239.8 175.0 206.1 206.8 163.1 241.6 169.8 254.7 187.5 301.4 250.8 321.6 270.1 315.2 312.7 258.0 338.9 255.3z" stroke="#75ABF1" stroke-width="1" fill="transparent" />
        <path d="M 188.8 297.5 L  188.8 297.5 204.9 306.8 223.0 315.7 247.2 317.1 259.3 340.1 275.7 315.6 291.9 307.3 300.8 303.2 319.1 234.4 322.2 243.1 307.1 205.7 290.8 194.3 280.4 174.8 247.6 174.3 229.0 181.7 226.7 200.0 216.6 189.9 195.9 197.9 147.3 235.6 152.8 242.0z" stroke="#504A6B" stroke-width="1" fill="transparent" />
        <path d="M 209.2 188.7 L  209.2 188.7 161.2 258.6 161.1 257.8 201.2 325.1 242.2 329.0 277.4 308.5 332.9 252.4 323.6 250.2 278.0 193.4 242.5 177.1z" stroke="#9C8878" stroke-width="1" fill="transparent" />
        <path d="M 317.2 264.8 L  317.2 264.8 319.3 245.2 296.8 177.1 263.4 175.6 219.1 173.6 178.5 241.4 182.4 252.1 207.2 332.0 244.3 316.1 279.7 316.4z" stroke="#19534A" stroke-width="1" fill="transparent" />
        <path d="M 260.6 171.1 L  260.6 171.1 256.4 203.0 214.8 191.9 177.8 252.9 163.6 257.1 206.4 314.5 238.3 322.7 257.0 314.0 303.6 304.2 325.6 247.0 333.4 249.4 302.7 196.4z" stroke="#514C64" stroke-width="1" fill="transparent" />
        <path d="M 181.1 206.3 L  181.1 206.3 167.6 216.7 175.8 244.9 201.5 304.4 222.6 318.9 236.2 336.6 263.0 325.0 263.4 336.5 291.2 308.2 305.8 304.1 323.4 252.6 338.4 230.1 292.1 212.9 288.5 187.0 262.8 187.5 257.2 193.3 227.4 170.6 212.3 176.0z" stroke="#FADE66" stroke-width="1" fill="transparent" />
        <path d="M 299.5 307.8 L  299.5 307.8 321.2 315.0 363.3 256.8 350.3 259.5 322.2 206.5 299.1 181.1 279.3 181.8 267.9 169.2 222.0 179.8 173.5 198.7 167.1 261.1 162.6 240.4 201.9 314.7 229.3 324.3 234.5 326.3 281.3 310.4z" stroke="#F29E24" stroke-width="1" fill="transparent" />
        <path d="M 207.1 196.0 L  207.1 196.0 185.3 246.7 184.1 258.1 200.2 315.3 210.5 327.1 250.3 317.1 283.6 337.3 291.3 315.5 334.7 299.0 350.5 255.3 344.7 245.1 320.6 187.0 309.1 175.9 263.6 162.8 245.3 158.1 235.5 161.9z" stroke="#108773" stroke-width="1" fill="transparent" />
        <path d="M 337.3 327.8 L  337.3 327.8 351.6 252.8 348.3 248.3 323.6 197.4 313.1 160.3 267.0 173.6 228.2 177.1 222.1 204.6 173.5 234.7 189.3 264.1 220.7 303.5 249.0 324.5 274.8 334.8 293.5 321.7z" stroke="#0D7E4B" stroke-width="1" fill="transparent" />
        <path d="M 235.5 165.2 L  235.5 165.2 212.5 180.5 179.3 235.5 206.8 264.3 211.8 310.8 237.8 327.3 269.8 327.1 297.3 316.3 305.7 317.8 352.2 278.1 350.5 247.7 326.6 201.7 295.7 169.1 264.8 147.9z" stroke="#FB372C" stroke-width="1" fill="transparent" />
        <path d="M 238.9 170.9 L  238.9 170.9 191.0 184.3 180.7 240.3 185.8 257.9 217.7 297.4 221.7 321.7 251.6 344.7 277.8 323.3 273.6 342.5 296.3 329.1 325.3 334.2 334.0 304.1 375.9 229.1 353.7 253.0 326.5 177.9 325.5 163.4 290.1 185.1 274.8 172.8 250.7 181.5 261.6 170.6z" stroke="#7A70C6" stroke-width="1" fill="transparent" />
        <path d="M 344.2 235.0 L  344.2 235.0 360.6 229.8 323.5 194.5 306.1 191.5 296.0 173.4 296.9 167.7 247.9 167.7 233.3 167.3 215.1 187.6 218.9 199.5 179.5 249.2 182.6 236.9 215.9 316.6 222.0 297.7 237.8 328.4 251.0 347.9 287.3 330.8 294.7 317.5 333.7 324.5 341.3 316.7z" stroke="#C762DE" stroke-width="1" fill="transparent" />
        <path d="M 228.5 192.3 L  228.5 192.3 208.9 205.9 192.7 250.5 203.2 251.9 199.8 298.0 242.0 336.1 247.3 338.7 277.4 351.1 274.6 342.1 314.0 321.5 322.6 313.7 337.9 310.7 380.3 246.1 364.4 250.0 347.7 206.6 331.8 177.9 308.1 170.0 297.4 169.9 261.6 166.7 249.5 176.0z" stroke="#A7FD85" stroke-width="1" fill="transparent" />
        <path d="M 336.4 298.4 L  336.4 298.4 335.8 247.6 368.0 240.1 359.4 212.5 322.9 175.0 318.4 178.3 321.0 176.6 276.2 159.7 256.6 179.0 223.3 186.2 193.4 197.9 190.9 244.5 191.0 248.0 205.9 282.8 223.2 322.3 257.2 322.6 271.9 338.4 288.4 333.8 304.5 324.2 314.2 334.8z" stroke="#BAC340" stroke-width="1" fill="transparent" />
        <path d="M 313.4 324.3 L  313.4 324.3 324.4 332.5 357.6 311.8 374.7 242.8 375.9 242.4 358.8 197.1 341.7 170.2 300.9 178.6 295.1 164.2 280.4 166.4 262.6 169.7 234.0 177.7 234.6 200.2 199.5 262.3 209.6 232.2 217.5 310.6 237.2 325.7 246.3 329.7 285.2 334.3 292.7 321.0z" stroke="#36F4EE" stroke-width="1" fill="transparent" />
        <path d="M 380.3 244.6 L  380.3 244.6 376.1 248.4 338.6 184.3 311.7 156.6 285.0 150.7 250.5 149.6 218.4 183.7 177.4 254.9 205.3 245.6 221.3 306.6 256.7 338.1 283.7 335.0 332.6 342.7 350.6 338.6z" stroke="#02D1E8" stroke-width="1" fill="transparent" />
        <path d="M 207.5 268.9 L  207.5 268.9 191.3 257.2 238.5 316.0 268.1 336.1 304.1 346.7 330.9 304.7 371.4 246.2 373.1 247.2 330.3 188.2 299.2 141.0 290.0 142.0 243.9 161.9z" stroke="#49860C" stroke-width="1" fill="transparent" />
        <path d="M 230.3 189.9 L  230.3 189.9 197.0 249.7 202.8 246.2 251.3 324.5 290.1 338.2 319.1 347.6 360.4 312.6 376.9 249.4 385.3 250.9 342.0 209.1 322.5 185.6 280.3 142.4z" stroke="#47F134" stroke-width="1" fill="transparent" />
        <path d="M 294.0 169.8 L  294.0 169.8 273.3 184.1 243.1 179.6 201.1 189.7 198.5 239.1 209.8 229.4 235.6 315.1 269.7 331.8 251.9 338.9 289.4 345.7 297.5 353.7 311.7 335.4 340.9 319.8 357.9 296.0 378.0 250.4 395.3 241.0 368.0 188.0 344.3 178.6 335.2 155.2 303.1 173.0z" stroke="#0F395F" stroke-width="1" fill="transparent" />
        <path d="M 276.9 327.5 L  276.9 327.5 316.1 337.9 317.7 332.8 342.2 308.8 377.0 240.7 374.5 246.0 350.3 190.1 332.9 174.8 298.3 145.9 281.3 164.5 254.7 158.1 229.3 184.2 211.3 250.3 182.8 256.1 232.9 323.5 261.8 333.2z" stroke="#D210A8" stroke-width="1" fill="transparent" />
        <path d="M 307.4 183.9 L  307.4 183.9 293.7 154.1 266.5 176.1 236.9 185.2 234.4 193.1 204.5 258.1 206.9 244.5 236.3 304.1 252.3 335.3 258.9 314.3 285.6 342.2 315.3 336.0 320.9 343.9 352.2 329.3 367.5 328.2 380.6 233.4 395.1 247.5 361.3 182.8 351.3 190.7 321.6 161.4z" stroke="#5FC67A" stroke-width="1" fill="transparent" />
        <path d="M 351.9 177.0 L  351.9 177.0 315.6 160.9 301.3 146.7 256.0 155.4 215.4 187.6 197.0 239.1 206.3 269.8 232.4 306.8 258.4 337.0 287.4 350.5 314.7 335.6 347.2 325.3 383.9 254.4 396.7 238.1z" stroke="#387008" stroke-width="1" fill="transparent" />
        <path d="M 312.1 341.2 L  312.1 341.2 351.5 333.4 367.3 301.5 403.4 230.4 389.9 248.7 348.5 169.9 344.1 152.8 318.4 147.2 275.0 147.7 248.9 176.8 228.9 197.4 196.9 234.5 215.5 242.4 234.3 312.9 265.4 333.3 287.9 340.6z" stroke="#457475" stroke-width="1" fill="transparent" />
        <path d="M 341.0 157.4 L  341.0 157.4 294.6 153.5 255.2 161.6 204.9 254.2 203.1 215.5 254.8 335.8 295.6 349.7 363.2 336.4 400.5 239.2 393.6 257.4z" stroke="#6C5770" stroke-width="1" fill="transparent" />
        <path d="M 335.7 333.9 L  335.7 333.9 370.1 311.7 395.7 259.7 393.2 231.1 380.0 188.5 354.2 160.4 296.6 155.5 284.0 147.9 263.5 141.2 219.9 199.9 200.5 263.5 206.1 241.8 235.5 316.5 259.5 349.7 301.0 335.0 303.0 350.7z" stroke="#9B7FAD" stroke-width="1" fill="transparent" />
        <path d="M 244.5 191.6 L  244.5 191.6 200.2 263.1 192.4 232.1 229.7 330.7 271.2 326.2 311.6 348.8 326.4 337.4 368.0 319.1 404.6 243.0 395.5 246.7 372.4 170.4 327.0 172.3 304.2 143.2 266.4 153.0z" stroke="#CD5B54" stroke-width="1" fill="transparent" />
        <path d="M 361.2 325.5 L  361.2 325.5 392.1 319.1 427.8 240.2 407.5 258.5 381.4 175.1 362.4 165.9 343.6 149.6 296.3 148.4 282.9 139.7 266.9 175.2 229.3 183.2 190.7 244.5 210.8 250.9 234.9 323.7 266.5 337.9 287.7 355.1 314.4 363.3 325.1 322.5z" stroke="#D69AF9" stroke-width="1" fill="transparent" />
        <path d="M 322.7 352.3 L  322.7 352.3 367.0 332.6 401.1 317.6 424.4 237.6 401.8 256.3 380.2 188.8 365.1 148.8 326.5 151.3 322.0 136.0 291.0 169.9 269.4 171.2 235.7 200.3 204.7 250.3 213.1 247.9 236.7 293.8 261.8 336.0 298.4 365.9 310.6 349.9z" stroke="#61B0C7" stroke-width="1" fill="transparent" />
        <path d="M 250.9 308.4 L  250.9 308.4 296.6 335.0 276.2 350.6 309.3 353.8 369.0 332.3 377.3 316.5 419.4 246.5 417.4 270.2 401.2 186.1 365.9 151.4 321.4 149.9 310.3 149.8 260.1 156.9 248.9 178.6 222.4 251.0 199.9 245.3z" stroke="#6EC1B3" stroke-width="1" fill="transparent" />
        <path d="M 386.5 313.4 L  386.5 313.4 431.3 245.7 427.8 247.1 370.6 187.0 371.2 161.4 325.3 158.3 302.6 165.6 265.5 149.0 245.0 202.9 229.3 239.3 213.8 259.8 242.7 308.1 243.5 344.6 300.1 351.1 345.4 341.5 332.3 359.2z" stroke="#91EE53" stroke-width="1" fill="transparent" />
        <path d="M 286.0 146.7 L  286.0 146.7 279.1 156.9 275.7 140.8 224.5 181.7 218.6 250.2 226.2 227.8 254.5 329.0 267.3 360.1 306.3 337.1 303.9 335.5 309.3 339.4 359.4 345.1 365.3 336.6 412.7 324.8 422.9 250.1 454.6 230.4 392.8 182.5 379.5 163.4 366.5 138.3 324.5 180.8z" stroke="#258E5E" stroke-width="1" fill="transparent" />
        <path d="M 373.1 325.5 L  373.1 325.5 434.9 272.0 419.1 256.3 381.1 178.3 325.7 129.3 278.8 167.5 207.4 259.1 223.7 258.4 271.4 351.8 344.9 347.0z" stroke="#8866C2" stroke-width="1" fill="transparent" />
        <path d="M 428.4 266.0 L  428.4 266.0 427.2 275.8 386.4 179.1 316.4 136.2 276.2 149.4 228.8 239.2 228.7 239.5 261.2 333.1 325.5 358.0 372.6 355.6z" stroke="#55ADF0" stroke-width="1" fill="transparent" />
        <path d="M 270.2 343.3 L  270.2 343.3 328.9 369.0 376.3 345.4 449.5 241.3 433.4 261.2 381.0 158.5 334.1 144.2 270.9 140.8 208.1 256.6 237.3 240.6z" stroke="#173874" stroke-width="1" fill="transparent" />
        <path d="M 343.2 358.1 L  343.2 358.1 370.0 345.0 376.8 306.8 447.5 250.9 435.6 253.1 404.8 168.5 358.9 163.3 343.6 155.6 320.6 144.8 272.3 158.9 258.7 160.9 203.5 249.9 215.5 237.0 243.9 316.7 290.9 346.5 312.4 371.2z" stroke="#3128A2" stroke-width="1" fill="transparent" />
        <path d="M 442.6 232.6 L  442.6 232.6 439.1 265.6 408.4 168.1 373.5 166.2 342.8 140.6 307.3 137.2 274.9 169.7 260.0 157.6 223.7 243.5 238.1 254.6 252.7 348.7 306.7 358.9 326.1 363.8 370.9 386.6 386.4 341.5 390.7 338.2z" stroke="#723B79" stroke-width="1" fill="transparent" />
        <path d="M 301.2 340.2 L  301.2 340.2 323.1 361.1 354.6 361.9 374.5 363.0 397.6 340.1 429.2 328.0 441.4 258.9 454.4 268.4 426.1 170.5 376.1 149.7 374.8 146.8 368.8 143.6 341.6 147.1 303.7 147.7 277.7 159.6 237.3 181.3 234.5 261.1 233.0 244.8 232.0 291.7 274.8 342.4z" stroke="#A9AB4D" stroke-width="1" fill="transparent" />
        <path d="M 452.3 255.4 L  452.3 255.4 454.4 243.9 413.5 174.6 402.4 138.8 348.8 152.6 321.7 149.4 277.9 172.1 254.5 165.4 230.8 249.1 236.6 256.3 264.7 329.2 301.6 363.5 342.9 356.0 353.7 351.0 386.4 339.0 423.6 321.5z" stroke="#DCBF08" stroke-width="1" fill="transparent" />
        <path d="M 367.4 361.5 L  367.4 361.5 388.1 336.7 423.5 308.2 462.1 237.4 462.1 275.8 429.8 171.0 393.2 148.8 372.5 138.8 350.6 133.3 319.1 137.6 283.4 135.7 268.2 176.2 247.2 248.1 227.9 251.8 261.9 321.9 303.1 356.3 324.9 398.6 356.7 367.3z" stroke="#F8ACF0" stroke-width="1" fill="transparent" />
        <path d="M 337.7 140.8 L  337.7 140.8 291.3 156.7 277.5 182.2 240.7 254.0 237.4 261.1 281.8 326.0 314.5 362.1 326.3 368.2 358.6 371.2 404.2 358.7 434.5 348.7 450.8 257.0 457.2 245.1 422.5 196.5 381.9 149.7 379.3 149.4z" stroke="#D834B1" stroke-width="1" fill="transparent" />
        <path d="M 382.2 139.7 L  382.2 139.7 325.9 140.4 298.5 164.5 224.9 253.0 246.7 240.6 287.2 344.3 321.4 358.8 379.3 346.8 426.0 337.3 463.2 261.6 443.6 241.5 415.2 150.9z" stroke="#96BB55" stroke-width="1" fill="transparent" />
        <path d="M 356.0 351.3 L  356.0 351.3 364.9 375.3 406.9 352.1 434.8 317.0 467.5 246.1 472.1 254.8 430.5 170.9 399.7 148.8 367.2 142.8 321.0 143.1 318.9 163.5 285.8 155.5 225.1 247.1 240.1 264.2 269.4 328.7 308.2 348.6z" stroke="#834CD5" stroke-width="1" fill="transparent" />
        <path d="M 416.7 163.7 L  416.7 163.7 376.2 113.9 372.2 117.2 289.4 135.0 280.5 163.3 231.2 254.3 238.6 248.5 278.3 319.7 309.5 342.5 343.6 378.8 376.8 362.8 390.0 351.4 450.1 340.2 468.7 239.3 460.9 251.1 447.4 159.6z" stroke="#964432" stroke-width="1" fill="transparent" />
        <path d="M 387.2 133.1 L  387.2 133.1 331.4 132.8 271.7 171.9 257.5 248.1 239.9 239.4 279.4 338.6 341.6 350.9 404.0 369.7 413.2 343.7 467.1 238.5 472.8 245.1 409.6 152.4z" stroke="#AF3FBD" stroke-width="1" fill="transparent" />
        <path d="M 385.0 361.8 L  385.0 361.8 451.2 346.6 455.1 272.5 486.4 247.9 460.1 159.2 406.6 136.9 349.8 120.4 330.6 143.3 290.3 169.5 261.2 242.0 258.0 262.2 298.8 330.2 338.6 365.7 333.7 368.9z" stroke="#33F0A7" stroke-width="1" fill="transparent" />
        <path d="M 376.3 137.0 L  376.3 137.0 353.2 124.2 321.9 128.6 299.9 168.8 283.7 177.5 252.9 254.6 235.5 226.2 283.9 326.8 296.2 334.7 352.0 353.7 369.3 383.7 368.2 372.9 392.6 351.7 431.9 358.5 471.8 321.0 509.3 242.5 487.9 250.8 444.1 163.1 429.3 157.3 415.3 151.4z" stroke="#6B1209" stroke-width="1" fill="transparent" />
        <path d="M 501.2 249.3 L  501.2 249.3 463.2 175.3 434.8 148.7 425.7 135.5 391.9 108.2 360.3 122.4 336.1 131.7 313.1 133.0 272.8 207.1 252.9 237.9 241.0 270.7 272.9 314.2 322.7 351.9 343.7 372.5 353.3 356.9 392.5 358.1 410.6 379.7 458.8 339.8 472.5 326.5 481.7 238.9z" stroke="#3D1D86" stroke-width="1" fill="transparent" />
        <path d="M 440.0 146.3 L  440.0 146.3 387.8 131.7 364.5 141.4 329.6 139.1 273.9 168.8 249.1 252.1 251.4 266.0 273.9 329.0 316.6 356.6 352.6 357.8 387.5 370.9 447.7 334.8 447.0 348.8 508.1 243.8 499.1 246.7 466.1 179.1z" stroke="#6DE084" stroke-width="1" fill="transparent" />
        <path d="M 495.2 251.1 L  495.2 251.1 475.5 168.7 439.6 150.9 423.3 139.0 382.1 125.4 338.6 138.9 325.3 134.2 287.4 145.6 258.2 264.8 267.4 258.7 300.9 314.9 325.8 348.4 350.1 355.2 386.2 357.9 420.4 360.7 434.3 357.6 466.5 361.1 493.8 240.6z" stroke="#91AD69" stroke-width="1" fill="transparent" />
        <path d="M 379.9 122.5 L  379.9 122.5 303.1 155.3 252.9 268.0 244.1 249.9 321.3 362.2 412.7 361.9 434.8 347.5 509.6 256.6 505.1 252.3 450.0 143.9z" stroke="#E75B6A" stroke-width="1" fill="transparent" />
        <path d="M 517.2 230.6 L  517.2 230.6 513.6 237.5 481.2 161.7 401.9 132.9 351.2 132.0 307.8 158.8 299.1 257.6 268.8 228.0 302.4 351.0 348.5 382.6 397.6 394.5 454.6 352.3z" stroke="#0515FC" stroke-width="1" fill="transparent" />
        <path d="M 510.1 243.3 L  510.1 243.3 490.1 171.3 468.9 129.8 422.2 117.8 399.1 131.2 351.0 140.1 329.5 139.7 305.1 162.7 292.9 236.0 262.3 250.3 314.8 330.2 317.1 368.6 366.9 362.0 402.4 387.0 432.2 373.9 450.0 362.5 502.7 333.3 521.5 247.8z" stroke="#7B06F8" stroke-width="1" fill="transparent" />
        <path d="M 370.4 372.3 L  370.4 372.3 381.7 382.2 444.3 368.4 446.2 348.5 498.4 330.5 529.3 243.0 544.7 260.0 517.2 160.5 452.4 135.1 423.2 143.0 389.3 111.8 360.4 132.7 344.1 137.6 309.3 165.8 274.0 236.5 283.9 247.4 295.8 325.8 342.7 352.9z" stroke="#377576" stroke-width="1" fill="transparent" />
        <path d="M 536.6 256.7 L  536.6 256.7 456.9 124.3 400.4 116.2 340.4 129.5 263.2 238.7 280.8 266.6 330.6 370.1 403.5 370.7 448.1 360.2 542.6 263.3z" stroke="#AE6CBD" stroke-width="1" fill="transparent" />
        <path d="M 435.8 369.3 L  435.8 369.3 497.2 351.9 534.6 240.8 533.5 244.5 487.6 148.8 432.3 122.3 411.4 132.9 357.7 140.9 312.4 147.0 267.3 257.2 278.5 252.3 313.3 337.2 363.8 372.7 404.3 389.6z" stroke="#285F26" stroke-width="1" fill="transparent" />
        <path d="M 361.3 369.1 L  361.3 369.1 402.8 382.8 455.7 368.1 526.9 242.5 528.2 247.5 481.3 128.5 410.1 113.8 349.1 151.2 268.0 254.3 282.2 269.8z" stroke="#61835D" stroke-width="1" fill="transparent" />
        <path d="M 287.8 247.0 L  287.8 247.0 292.7 230.6 295.9 348.9 355.4 362.6 372.3 393.0 414.7 384.9 442.0 404.1 472.6 362.2 526.8 338.4 541.9 243.5 543.6 245.3 533.3 184.4 482.6 158.4 438.9 137.3 402.5 109.2 375.4 135.1 341.4 129.9 309.1 174.1z" stroke="#AD8082" stroke-width="1" fill="transparent" />
        <path d="M 450.9 383.5 L  450.9 383.5 481.9 375.1 516.2 340.0 552.0 246.0 556.4 256.2 520.8 181.3 492.3 128.2 447.7 127.8 435.2 104.7 379.5 104.2 348.3 124.4 313.9 179.0 281.8 268.0 278.9 240.8 311.2 343.1 352.5 353.6 382.1 386.3 414.2 394.7z" stroke="#1BF10B" stroke-width="1" fill="transparent" />
        <path d="M 553.3 250.9 L  553.3 250.9 483.7 140.3 419.3 102.7 355.1 144.0 273.6 249.5 279.7 240.8 332.3 353.1 418.3 367.4 500.1 366.0 561.8 242.2z" stroke="#0CED7B" stroke-width="1" fill="transparent" />
        <path d="M 417.2 121.1 L  417.2 121.1 379.0 110.7 347.4 132.6 304.9 146.1 276.7 240.7 287.9 259.4 332.8 354.4 338.7 365.9 399.0 379.5 424.5 390.3 453.7 376.4 474.0 385.9 526.8 338.0 559.1 246.2 558.5 260.9 541.7 167.2 477.3 139.0 445.7 138.7z" stroke="#9CD9BE" stroke-width="1" fill="transparent" />
        <path d="M 327.5 153.8 L  327.5 153.8 288.1 252.7 267.3 257.9 320.6 366.0 382.1 384.4 438.5 385.6 462.1 378.3 510.8 346.7 556.7 251.4 576.0 263.6 497.5 145.1 465.0 127.9 428.1 122.1 382.0 139.7z" stroke="#1E4105" stroke-width="1" fill="transparent" />
        <path d="M 478.5 364.9 L  478.5 364.9 512.2 328.9 561.8 246.9 552.1 247.5 532.2 163.2 452.0 145.0 451.0 123.3 404.0 126.8 336.0 121.9 336.1 156.8 281.4 244.4 270.8 249.2 323.1 335.1 361.2 385.1 412.7 384.1 444.4 382.2z" stroke="#0C7D28" stroke-width="1" fill="transparent" />
        <path d="M 332.0 382.3 L  332.0 382.3 381.0 378.8 468.5 367.7 515.0 361.4 554.8 256.3 563.9 235.8 513.5 146.8 444.2 112.3 404.3 126.4 349.3 127.3 286.7 247.9 282.9 258.5z" stroke="#F92E45" stroke-width="1" fill="transparent" />
        <path d="M 281.8 256.7 L  281.8 256.7 292.7 248.9 318.3 362.7 390.2 381.5 413.7 391.0 482.1 388.8 520.6 361.5 556.7 241.3 568.6 232.3 524.9 141.9 481.2 130.8 410.5 100.4 372.3 115.5 342.2 144.9z" stroke="#BDA8F4" stroke-width="1" fill="transparent" />
        <path d="M 363.6 375.1 L  363.6 375.1 385.0 369.9 431.8 390.1 446.7 399.3 458.7 388.6 506.7 362.6 530.8 343.5 575.4 242.4 583.6 263.0 520.8 176.7 501.2 120.1 478.0 109.7 451.7 111.8 416.9 113.3 397.8 132.6 346.2 129.9 313.1 157.1 283.3 239.2 288.3 254.8 311.0 363.9z" stroke="#70215B" stroke-width="1" fill="transparent" />
        <path d="M 480.2 123.8 L  480.2 123.8 450.7 107.6 418.5 98.4 390.2 110.5 365.7 137.7 333.2 151.2 309.6 249.6 292.2 255.0 325.1 343.1 351.8 367.2 383.9 375.1 407.5 393.8 443.6 392.2 479.2 397.0 516.4 357.5 548.0 341.4 576.3 256.2 566.2 254.1 548.0 173.4 501.0 144.8z" stroke="#EAA6C7" stroke-width="1" fill="transparent" />
        <path d="M 522.4 356.6 L  522.4 356.6 585.5 245.9 574.4 263.3 516.6 147.0 499.2 120.4 420.7 103.5 385.1 132.5 354.3 134.2 294.2 252.4 290.6 241.5 339.5 360.2 371.9 370.4 415.9 396.8 463.1 388.0z" stroke="#CD7560" stroke-width="1" fill="transparent" />
        <path d="M 524.1 362.0 L  524.1 362.0 592.1 245.2 587.7 239.5 517.1 132.0 470.0 120.8 409.6 114.6 353.7 110.1 303.0 250.2 281.6 254.1 335.9 360.8 397.9 381.2 478.5 395.9z" stroke="#A4B983" stroke-width="1" fill="transparent" />
        <path d="M 599.0 247.1 L  599.0 247.1 582.1 235.0 541.7 157.8 521.4 132.8 483.7 120.2 430.5 106.2 407.7 108.7 359.2 127.9 324.8 168.6 299.7 236.3 304.6 244.2 343.0 338.6 364.6 368.6 391.8 395.5 445.9 395.3 480.1 391.7 517.1 384.5 542.4 355.6z" stroke="#987888" stroke-width="1" fill="transparent" />
        <path d="M 362.4 137.1 L  362.4 137.1 293.3 245.8 293.3 258.8 350.3 364.8 407.5 397.2 456.9 398.2 498.5 380.1 539.6 357.3 574.5 268.2 589.8 248.8 532.8 157.5 500.0 114.0 453.4 100.9 381.1 108.5z" stroke="#CD2D37" stroke-width="1" fill="transparent" />
        <path d="M 380.1 380.5 L  380.1 380.5 455.1 382.9 516.8 359.4 596.2 253.6 586.4 251.0 516.7 127.9 444.6 91.1 387.3 118.5 313.4 256.2 290.6 249.0z" stroke="#B180B5" stroke-width="1" fill="transparent" />
        <path d="M 412.7 101.6 L  412.7 101.6 399.2 134.6 341.3 160.3 296.6 256.5 286.1 260.8 337.4 337.2 372.4 389.2 412.7 392.0 451.9 391.6 488.6 388.7 511.6 383.5 550.0 325.6 615.5 248.8 600.4 260.4 556.2 148.3 520.1 139.2 500.0 97.6 453.3 103.5z" stroke="#8ACE8B" stroke-width="1" fill="transparent" />
        <path d="M 306.9 257.7 L  306.9 257.7 317.5 251.7 378.4 388.7 449.1 396.2 521.8 378.4 600.5 239.8 590.0 249.4 521.8 131.6 447.2 111.4 378.2 97.6z" stroke="#370E28" stroke-width="1" fill="transparent" />
        <path d="M 608.8 257.9 L  608.8 257.9 557.0 152.3 515.4 125.2 481.8 102.8 445.4 101.7 385.9 117.3 355.2 151.7 281.6 253.3 317.2 263.0 352.6 368.4 393.2 375.5 444.5 410.9 475.9 386.7 498.0 395.7 548.4 369.8 608.2 264.8z" stroke="#3AE33A" stroke-width="1" fill="transparent" />
        <path d="M 350.9 148.3 L  350.9 148.3 319.7 255.3 309.7 241.2 361.6 364.9 416.5 397.6 460.9 390.7 495.2 371.0 553.2 376.3 624.0 259.9 602.6 248.0 561.5 138.6 529.6 113.1 458.6 94.3 421.5 112.0z" stroke="#9C6885" stroke-width="1" fill="transparent" />
        <path d="M 443.0 119.5 L  443.0 119.5 410.6 108.8 381.4 146.6 345.4 179.4 317.1 243.9 331.4 227.1 340.9 349.8 384.6 401.7 421.8 374.8 442.4 408.3 496.6 403.0 514.1 392.9 547.6 360.2 587.8 340.2 626.5 251.5 618.9 250.3 572.2 144.0 554.0 116.7 527.8 86.1 479.4 90.6z" stroke="#8C7F04" stroke-width="1" fill="transparent" />
        <path d="M 396.8 367.1 L  396.8 367.1 452.7 402.0 486.5 392.8 557.6 374.6 611.4 243.5 605.1 265.9 559.0 126.4 491.3 95.2 429.1 94.9 390.5 141.8 334.1 241.6 299.5 248.7z" stroke="#B26153" stroke-width="1" fill="transparent" />
        <path d="M 516.6 115.7 L  516.6 115.7 473.3 80.2 420.7 99.3 405.1 123.8 370.2 154.4 301.2 249.4 304.3 245.9 351.8 344.0 391.6 378.5 439.5 403.4 465.6 409.4 505.9 373.8 540.7 381.3 583.9 335.0 605.0 246.5 615.7 248.0 586.4 163.2 541.1 114.8z" stroke="#32960B" stroke-width="1" fill="transparent" />
        <path d="M 511.4 87.1 L  511.4 87.1 445.4 80.6 387.0 113.1 304.6 226.6 339.1 240.3 384.1 387.3 463.8 413.3 505.3 388.7 559.6 360.6 620.5 259.7 630.1 251.2 583.8 144.6z" stroke="#DA693E" stroke-width="1" fill="transparent" />
        <path d="M 390.1 391.6 L  390.1 391.6 451.8 407.5 506.5 404.0 555.2 366.3 613.0 238.9 637.3 252.5 563.4 146.7 505.8 94.5 447.2 113.2 379.6 126.8 317.0 246.6 323.7 249.9z" stroke="#838395" stroke-width="1" fill="transparent" />
        <path d="M 510.2 388.6 L  510.2 388.6 558.1 384.6 600.4 355.3 620.9 263.1 622.0 243.4 608.0 167.8 564.7 129.3 538.8 100.2 503.7 109.6 419.8 109.4 422.2 97.6 395.1 118.0 367.0 147.4 332.4 257.5 303.3 261.6 357.8 359.7 393.5 371.1 436.5 385.3 440.6 392.7 485.0 413.8z" stroke="#6C22F3" stroke-width="1" fill="transparent" />
        <path d="M 379.7 361.1 L  379.7 361.1 418.5 410.8 451.7 415.3 502.4 401.4 534.8 388.0 593.7 354.6 618.8 247.5 631.7 255.0 597.6 145.7 548.9 107.6 507.8 112.9 445.9 95.5 418.1 118.4 377.8 133.8 338.9 247.4 323.6 257.2z" stroke="#E680A8" stroke-width="1" fill="transparent" />
        <path d="M 589.1 154.7 L  589.1 154.7 536.0 113.3 485.0 82.0 438.9 98.4 371.7 135.2 316.3 237.3 306.2 248.1 363.2 374.3 418.5 408.9 476.3 402.6 507.4 400.2 577.4 356.1 621.0 257.3 651.2 248.0z" stroke="#4F6A66" stroke-width="1" fill="transparent" />
        <path d="M 505.8 401.9 L  505.8 401.9 563.8 382.0 637.3 263.6 618.6 256.9 582.6 130.7 524.5 80.6 451.3 112.9 377.9 116.0 331.1 232.1 321.2 267.0 382.3 381.5 467.3 429.3z" stroke="#394B46" stroke-width="1" fill="transparent" />
        <path d="M 537.8 395.3 L  537.8 395.3 584.6 377.7 656.4 241.4 641.6 255.1 576.8 152.2 551.6 104.6 468.1 77.6 439.4 99.5 391.8 109.3 320.4 251.2 325.9 253.3 391.2 365.3 447.1 402.5 492.3 418.1z" stroke="#690EF1" stroke-width="1" fill="transparent" />
        <path d="M 551.9 92.5 L  551.9 92.5 498.1 118.1 451.5 83.9 432.7 104.9 380.2 108.2 352.0 135.7 324.9 239.1 338.8 226.9 357.9 341.0 409.1 376.3 436.7 412.1 448.3 416.0 511.0 419.6 534.4 396.9 579.2 394.4 618.1 348.5 648.8 254.7 654.9 245.6 609.1 169.6 564.4 111.5z" stroke="#445ABB" stroke-width="1" fill="transparent" />
        <path d="M 396.6 380.0 L  396.6 380.0 468.4 402.9 516.3 423.4 576.5 377.0 646.3 251.7 649.2 251.0 591.7 124.4 521.6 91.1 449.9 96.5 387.9 131.9 329.8 241.4 315.4 240.5z" stroke="#EDCA6F" stroke-width="1" fill="transparent" />
        <path d="M 624.5 353.8 L  624.5 353.8 651.7 259.7 669.8 263.5 604.4 134.4 577.1 132.3 539.5 92.5 486.3 87.7 451.1 84.6 416.9 93.8 369.8 140.6 330.5 248.2 349.5 253.1 407.8 348.2 418.3 388.0 451.2 408.8 488.6 405.2 546.5 420.9 564.2 385.4z" stroke="#ECDD6E" stroke-width="1" fill="transparent" />
        <path d="M 585.0 123.6 L  585.0 123.6 543.4 105.1 505.9 93.0 458.0 70.3 439.6 97.4 406.6 123.7 373.9 140.5 328.6 243.6 310.3 255.4 375.3 357.0 415.7 384.1 441.3 402.2 472.3 414.4 532.9 407.5 566.9 392.3 591.9 377.6 634.4 363.0 672.4 254.4 666.6 258.8 604.8 148.9z" stroke="#0FAA89" stroke-width="1" fill="transparent" />
        <path d="M 570.6 112.6 L  570.6 112.6 531.4 89.6 493.8 95.2 426.4 106.5 374.1 134.5 324.5 246.6 329.9 227.6 376.9 367.7 427.0 403.0 471.8 404.1 516.3 412.6 580.6 384.1 592.5 366.0 660.1 263.5 634.1 256.9 626.2 134.1z" stroke="#CE2287" stroke-width="1" fill="transparent" />
        <path d="M 661.9 243.0 L  661.9 243.0 627.3 145.3 582.5 114.0 524.9 102.1 503.4 83.1 464.1 94.2 408.5 97.2 360.8 135.4 331.8 248.6 334.3 237.0 366.4 363.5 432.3 388.7 450.8 400.1 492.3 420.6 528.8 418.0 583.3 389.2 607.8 385.3 665.2 236.4z" stroke="#669CE1" stroke-width="1" fill="transparent" />
        <path d="M 383.5 143.9 L  383.5 143.9 326.6 237.7 315.5 257.9 382.7 376.9 436.2 409.4 507.0 425.4 564.1 413.3 608.9 368.0 687.2 239.5 658.6 252.2 605.5 118.0 559.6 80.7 492.5 98.7 442.8 94.4z" stroke="#3D0DE6" stroke-width="1" fill="transparent" />
        <path d="M 451.6 90.9 L  451.6 90.9 384.5 124.3 330.5 237.8 343.2 247.1 396.4 375.7 451.3 427.9 514.4 435.7 565.8 405.8 612.5 369.9 677.6 247.5 678.7 251.5 610.0 135.4 557.5 88.9 512.8 86.2z" stroke="#420148" stroke-width="1" fill="transparent" />
        <path d="M 555.1 401.1 L  555.1 401.1 591.6 384.4 644.5 359.9 664.3 238.1 656.3 230.9 627.3 164.4 586.6 109.4 556.3 87.3 513.6 87.5 491.3 91.7 438.1 89.9 413.1 126.8 375.2 134.3 346.0 235.5 324.6 248.7 388.9 344.0 404.2 388.9 459.8 412.0 484.2 412.7 528.3 403.7z" stroke="#FBF5E9" stroke-width="1" fill="transparent" />
        <path d="M 667.3 253.1 L  667.3 253.1 681.2 248.8 637.8 162.8 564.8 79.1 531.1 85.7 501.0 92.4 432.2 112.0 381.3 111.1 342.8 256.7 349.6 260.5 401.3 353.3 420.4 405.1 484.5 418.2 540.1 435.4 585.9 405.7 641.4 364.5z" stroke="#D9C994" stroke-width="1" fill="transparent" />
        <path d="M 545.4 83.1 L  545.4 83.1 479.4 80.8 417.6 124.7 335.1 247.1 355.5 253.1 427.8 384.2 482.5 404.2 551.1 405.0 576.9 389.3 668.8 256.0 671.5 238.9 598.7 118.8z" stroke="#13C127" stroke-width="1" fill="transparent" />
        <path d="M 568.5 413.4 L  568.5 413.4 625.6 382.1 652.5 358.1 684.7 257.7 698.8 250.0 657.6 142.6 628.8 97.1 562.6 89.5 537.5 85.8 509.6 75.2 456.0 94.8 409.6 95.8 388.0 158.9 329.1 238.7 345.4 253.7 389.3 338.0 411.6 376.3 450.7 399.4 489.6 408.8 540.8 395.8z" stroke="#F83EEE" stroke-width="1" fill="transparent" />
        <path d="M 342.0 253.9 L  342.0 253.9 359.5 256.3 416.3 367.0 485.9 432.3 562.2 412.9 606.8 389.2 671.4 247.7 679.3 258.8 629.5 116.0 559.1 68.1 501.0 77.0 426.1 118.3z" stroke="#4057A5" stroke-width="1" fill="transparent" />
        <path d="M 529.7 417.2 L  529.7 417.2 599.6 398.6 698.5 241.1 702.4 265.7 598.8 107.8 523.5 67.0 450.5 108.5 337.8 252.4 359.4 249.8 436.4 386.3z" stroke="#35E120" stroke-width="1" fill="transparent" />
        <path d="M 481.6 82.9 L  481.6 82.9 413.3 106.0 357.3 258.5 349.1 252.0 424.9 386.0 493.5 407.2 550.3 403.2 655.1 386.3 703.9 254.4 687.8 222.6 612.1 134.7 554.6 89.6z" stroke="#F53853" stroke-width="1" fill="transparent" />
        <path d="M 540.7 421.0 L  540.7 421.0 601.3 385.0 677.6 249.0 697.4 259.8 609.9 90.6 543.2 81.5 433.8 113.3 363.7 257.5 359.4 238.8 451.7 414.8z" stroke="#614920" stroke-width="1" fill="transparent" />
        <path d="M 633.5 388.5 L  633.5 388.5 660.6 369.8 691.7 251.6 698.1 243.1 654.4 144.5 630.0 104.9 594.2 90.1 554.9 95.7 504.6 61.9 458.1 85.1 432.2 115.8 381.3 136.7 353.3 231.9 352.0 264.9 400.7 371.5 434.1 388.5 466.7 401.0 517.8 422.6 559.5 419.2 577.9 411.3z" stroke="#7CB8E9" stroke-width="1" fill="transparent" />
        <path d="M 638.1 109.1 L  638.1 109.1 522.2 76.7 448.1 101.7 345.8 265.6 367.8 252.0 438.9 397.2 531.0 399.5 605.5 393.2 703.8 248.1 703.6 246.5z" stroke="#312BBD" stroke-width="1" fill="transparent" />
        <path d="M 433.2 102.7 L  433.2 102.7 398.4 137.5 356.4 237.3 352.1 246.0 407.7 351.3 428.1 384.7 470.3 412.2 506.4 444.3 527.6 412.2 574.5 397.8 632.8 391.4 676.3 342.4 701.5 251.2 707.3 262.6 657.8 139.1 647.2 102.5 584.4 73.4 551.0 66.5 525.8 75.7 470.7 106.6z" stroke="#6A8BD1" stroke-width="1" fill="transparent" />
        <path d="M 502.8 423.6 L  502.8 423.6 553.3 418.0 646.3 395.9 692.8 242.6 702.4 238.5 669.2 108.6 568.3 83.9 509.6 91.5 423.6 113.7 364.3 252.1 356.4 246.2 435.7 389.9z" stroke="#6E932F" stroke-width="1" fill="transparent" />
        <path d="M 670.3 348.2 L  670.3 348.2 701.0 249.7 715.0 248.7 677.6 125.5 619.5 103.3 582.9 71.0 545.3 67.3 480.2 86.1 427.8 90.5 394.8 147.7 353.8 272.4 341.8 248.6 411.3 362.1 446.1 404.1 494.5 404.7 523.2 438.3 579.4 429.8 641.3 427.5z" stroke="#0DD478" stroke-width="1" fill="transparent" />
        <path d="M 486.3 413.5 L  486.3 413.5 539.7 428.9 597.2 419.2 648.8 386.0 724.6 247.9 699.6 240.4 666.7 116.4 596.8 77.2 547.3 76.6 478.8 87.3 417.7 121.8 366.7 259.9 349.6 257.1 385.3 375.9z" stroke="#092F83" stroke-width="1" fill="transparent" />
        <path d="M 521.9 423.6 L  521.9 423.6 565.8 416.7 658.5 398.9 725.0 239.7 725.7 265.4 646.8 82.0 583.3 68.3 499.7 76.0 445.1 107.1 350.5 248.2 358.0 244.5 435.0 383.8z" stroke="#500433" stroke-width="1" fill="transparent" />
        <path d="M 408.4 146.1 L  408.4 146.1 365.5 243.7 356.2 252.9 398.7 356.3 454.2 391.3 471.0 418.2 511.2 425.4 560.3 434.6 608.2 404.0 638.1 409.0 681.0 355.2 722.3 239.5 720.5 236.6 678.1 162.3 661.7 94.6 598.0 93.7 564.6 60.9 529.7 83.1 490.7 75.2 456.1 102.4z" stroke="#A3C4B2" stroke-width="1" fill="transparent" />
        <path d="M 670.7 121.8 L  670.7 121.8 616.9 57.7 547.2 71.3 506.7 91.9 424.4 114.0 397.0 250.8 359.8 248.0 429.2 386.9 487.1 420.0 542.6 417.2 606.1 415.3 683.2 375.1 731.1 244.0 715.5 241.8z" stroke="#712DA2" stroke-width="1" fill="transparent" />
        <path d="M 504.2 80.3 L  504.2 80.3 446.3 104.2 365.9 254.4 391.2 230.0 435.3 397.0 534.3 426.6 580.3 422.1 645.5 384.4 730.1 254.8 733.9 250.8 668.0 106.8 601.4 73.8z" stroke="#82EFB4" stroke-width="1" fill="transparent" />
        <path d="M 534.5 73.0 L  534.5 73.0 511.6 68.9 444.1 103.1 426.2 135.1 366.7 259.2 371.9 267.6 412.6 369.1 437.4 398.9 496.0 409.1 534.1 450.1 573.7 429.8 612.0 420.2 648.6 395.4 703.0 361.8 745.7 261.1 726.7 247.8 692.7 135.5 665.2 86.3 644.7 83.3 564.5 50.0z" stroke="#5F65A0" stroke-width="1" fill="transparent" />
        <path d="M 662.9 86.3 L  662.9 86.3 599.6 63.5 565.8 63.1 504.2 86.5 473.7 91.6 415.5 126.8 381.3 254.9 380.7 248.3 410.8 362.8 477.9 404.5 522.4 417.6 564.0 437.0 610.1 434.2 647.8 398.6 694.4 376.1 733.6 249.5 727.4 259.6 689.2 130.3z" stroke="#876C0D" stroke-width="1" fill="transparent" />
        <path d="M 750.3 250.6 L  750.3 250.6 651.0 83.7 557.3 78.0 464.2 81.6 384.1 243.5 378.8 258.7 470.4 401.2 576.1 432.5 663.7 402.5 743.6 253.3z" stroke="#E860AB" stroke-width="1" fill="transparent" />
        <path d="M 616.8 434.8 L  616.8 434.8 663.7 410.7 720.4 373.8 729.3 267.4 747.7 248.2 703.6 128.7 648.4 90.1 603.8 69.8 576.5 75.5 516.3 53.1 465.4 80.2 429.1 129.4 374.9 249.9 373.0 254.5 439.1 391.6 480.1 406.6 506.3 418.1 587.3 444.8z" stroke="#930B2B" stroke-width="1" fill="transparent" />
        <path d="M 383.7 246.4 L  383.7 246.4 387.9 254.3 418.1 366.6 493.6 401.9 526.3 413.7 573.7 431.9 619.2 429.8 649.6 396.0 686.4 374.9 758.5 251.2 750.1 254.8 693.4 111.2 674.8 92.6 623.9 69.5 562.0 69.3 529.4 76.9 457.8 78.7 429.6 156.7z" stroke="#7081C4" stroke-width="1" fill="transparent" />
        <path d="M 516.6 79.7 L  516.6 79.7 468.2 114.1 436.0 138.4 390.2 265.2 365.7 258.6 412.6 374.1 482.9 405.9 507.0 413.9 553.7 438.8 588.3 441.3 630.6 434.3 667.9 399.7 709.1 362.6 742.5 234.7 768.3 268.9 724.7 139.8 672.5 91.8 618.4 70.3 596.2 69.6 561.2 76.9z" stroke="#CAC5F0" stroke-width="1" fill="transparent" />
        <path d="M 434.3 120.3 L  434.3 120.3 401.7 251.1 387.4 241.6 439.9 381.7 485.7 411.1 553.0 437.2 595.9 426.1 664.9 403.0 703.7 387.2 747.4 245.3 762.1 258.3 722.6 133.9 659.0 72.7 579.6 55.6 562.1 84.1 505.2 85.8z" stroke="#F375E8" stroke-width="1" fill="transparent" />
        <path d="M 482.0 89.2 L  482.0 89.2 392.0 246.0 385.9 259.7 483.4 412.3 569.3 438.2 684.6 422.4 743.3 254.3 784.9 256.8 684.6 102.2 567.7 63.0z" stroke="#3A331C" stroke-width="1" fill="transparent" />
        <path d="M 616.1 444.8 L  616.1 444.8 685.5 402.1 749.6 242.3 754.0 270.6 696.5 111.5 614.4 76.3 548.5 68.3 474.1 90.1 405.6 248.1 394.2 257.7 456.7 397.7 542.9 448.9z" stroke="#5A630A" stroke-width="1" fill="transparent" />
        <path d="M 566.5 67.0 L  566.5 67.0 480.9 85.1 380.0 245.3 386.5 251.0 494.6 437.8 566.9 454.9 685.6 414.7 758.3 241.0 776.8 242.6 669.6 109.3z" stroke="#33D0B4" stroke-width="1" fill="transparent" />
        <path d="M 574.0 55.3 L  574.0 55.3 526.4 61.9 442.0 105.7 394.7 251.5 400.8 247.3 470.6 399.8 538.6 418.0 572.2 442.0 640.9 455.0 714.2 390.8 766.9 263.7 776.9 264.3 706.8 118.4 648.7 67.4z" stroke="#5AF764" stroke-width="1" fill="transparent" />
        <path d="M 570.7 51.9 L  570.7 51.9 493.0 78.9 406.1 259.2 387.5 259.5 511.0 400.2 603.1 421.5 693.7 411.8 769.2 232.2 799.0 248.1 665.4 91.7z" stroke="#1F9300" stroke-width="1" fill="transparent" />
        <path d="M 440.6 368.7 L  440.6 368.7 482.3 399.4 526.2 446.3 591.0 436.7 627.7 445.7 663.6 422.6 710.3 387.7 746.1 352.9 790.3 253.2 789.6 254.0 731.8 137.0 696.7 94.0 661.2 51.2 605.6 54.9 564.5 49.7 511.8 70.9 498.8 66.9 456.9 133.3 409.4 256.9 413.7 238.3z" stroke="#CD4632" stroke-width="1" fill="transparent" />
        <path d="M 598.6 437.0 L  598.6 437.0 708.9 415.3 780.1 249.3 789.6 234.3 687.5 86.9 596.4 46.9 495.9 60.9 400.7 249.1 405.3 264.9 520.7 388.2z" stroke="#22FB68" stroke-width="1" fill="transparent" />
        <path d="M 710.8 92.3 L  710.8 92.3 652.9 46.5 583.0 63.9 491.0 107.3 424.7 253.5 424.5 261.0 490.9 401.0 558.1 435.5 650.6 416.3 742.8 395.9 773.9 228.9 805.6 243.5z" stroke="#7DB3B6" stroke-width="1" fill="transparent" />
    </g> 
</svg>