<?xml version="1.0" encoding="UTF-8" standalone="no"?>
<svg width="1000" height="500" version="1.1" xmlns="http://www.w3.org/2000/svg">
    <g opacity="1.0">
        <style> path { stroke: #33FFC9; stroke-width: 1; fill: transparent; } </style>
        <path d="M 57.9 241.6 L  57.9 241.6 55.8 241.1 53.8 241.1 51.7 241.6 49.6 242.6 47.5 244.5 45.4 250.4 45.4 250.4 47.5 256.3 49.6 258.2 51.7 259.3 53.8 259.8 55.8 259.8 57.9 259.3 60.0 258.2 62.1 256.3 64.2 250.4 64.2 250.4 62.1 244.5 60.0 242.6z"/>
        <path d="M 56.3 239.0 L  56.3 239.0 53.6 240.3 50.9 242.8 48.2 250.5 48.2 250.5 50.9 258.2 53.6 260.7 56.3 262.0 59.1 262.7 61.8 262.7 64.5 262.0 67.2 260.7 69.9 258.2 72.7 250.5 72.7 250.5 69.9 242.8 67.2 240.3 64.5 239.0 61.8 238.3 59.1 238.3z"/>
        <path d="M 69.3 240.5 L  69.3 240.5 66.4 239.1 63.6 238.4 60.7 238.4 57.8 239.1 54.9 240.5 52.1 243.1 49.2 251.2 49.2 251.2 52.1 259.4 54.9 262.0 57.8 263.4 60.7 264.1 63.6 264.1 66.4 263.4 69.3 262.0 72.2 259.4 75.0 251.2 75.0 251.2 72.2 243.1z"/>
        <path d="M 68.3 239.2 L  68.3 239.2 65.3 238.5 62.4 238.5 59.4 239.2 56.4 240.7 53.4 243.5 50.4 251.9 50.4 251.9 53.4 260.3 56.4 263.1 59.4 264.6 62.4 265.3 65.3 265.3 68.3 264.6 71.3 263.1 74.3 260.3 77.3 251.9 77.3 251.9 74.3 243.5 71.3 240.7z"/>
        <path d="M 75.5 235.9 L  75.5 235.9 71.6 235.0 67.7 235.0 63.8 235.9 59.9 237.9 56.0 241.5 52.0 252.5 52.0 252.5 56.0 263.6 59.9 267.2 63.8 269.2 67.7 270.1 71.6 270.1 75.5 269.2 79.5 267.2 83.4 263.6 87.3 252.5 87.3 252.5 83.4 241.5 79.5 237.9z"/>
        <path d="M 88.3 252.8 L  88.3 252.8 88.3 252.8 84.3 241.6 80.3 237.9 76.4 236.0 72.4 235.0 68.4 235.0 64.5 236.0 60.5 237.9 56.5 241.6 52.6 252.8 52.6 252.8 56.5 264.0 60.5 267.6 64.5 269.6 68.4 270.5 72.4 270.5 76.4 269.6 80.3 267.6 84.3 264.0z"/>
        <path d="M 80.2 273.0 L  80.2 273.0 84.5 272.0 88.8 269.8 93.1 265.9 97.4 253.7 97.4 253.7 93.1 241.6 88.8 237.7 84.5 235.5 80.2 234.5 75.9 234.5 71.6 235.5 67.4 237.7 63.1 241.6 58.8 253.7 58.8 253.7 63.1 265.9 67.4 269.8 71.6 272.0 75.9 273.0z"/>
        <path d="M 102.3 254.7 L  102.3 254.7 102.3 254.7 97.6 241.3 92.8 237.0 88.1 234.6 83.3 233.5 78.6 233.5 73.9 234.6 69.1 237.0 64.4 241.3 59.6 254.7 59.6 254.7 64.4 268.1 69.1 272.4 73.9 274.8 78.6 275.9 83.3 275.9 88.1 274.8 92.8 272.4 97.6 268.1z"/>
        <path d="M 102.1 269.7 L  102.1 269.7 107.4 254.8 107.4 254.8 102.1 239.9 96.8 235.1 91.5 232.4 86.3 231.2 81.0 231.2 75.7 232.4 70.4 235.1 65.2 239.9 59.9 254.8 59.9 254.8 65.2 269.7 70.4 274.5 75.7 277.2 81.0 278.4 86.3 278.4 91.5 277.2 96.8 274.5z"/>
        <path d="M 108.7 273.3 L  108.7 273.3 115.1 255.3 115.1 255.3 108.7 237.3 102.3 231.5 96.0 228.3 89.6 226.8 83.2 226.8 76.9 228.3 70.5 231.5 64.1 237.3 57.7 255.3 57.7 255.3 64.1 273.3 70.5 279.1 76.9 282.3 83.2 283.8 89.6 283.8 96.0 282.3 102.3 279.1z"/>
        <path d="M 109.0 280.2 L  109.0 280.2 115.6 274.1 122.3 255.4 122.3 255.4 115.6 236.6 109.0 230.6 102.4 227.3 95.8 225.8 89.1 225.8 82.5 227.3 75.9 230.6 69.3 236.6 62.7 255.4 62.7 255.4 69.3 274.1 75.9 280.2 82.5 283.5 89.1 285.0 95.8 285.0 102.4 283.5z"/>
        <path d="M 86.4 285.0 L  86.4 285.0 93.2 286.6 100.1 286.6 106.9 285.0 113.7 281.6 120.6 275.3 127.4 256.0 127.4 256.0 120.6 236.6 113.7 230.4 106.9 227.0 100.1 225.4 93.2 225.4 86.4 227.0 79.5 230.4 72.7 236.6 65.8 256.0 65.8 256.0 72.7 275.3 79.5 281.6z"/>
        <path d="M 79.0 275.8 L  79.0 275.8 86.0 282.2 93.0 285.7 100.0 287.3 107.0 287.3 114.0 285.7 121.0 282.2 128.0 275.8 135.0 256.0 135.0 256.0 128.0 236.2 121.0 229.8 114.0 226.3 107.0 224.7 100.0 224.7 93.0 226.3 86.0 229.8 79.0 236.2 72.0 256.0 72.0 256.0z"/>
        <path d="M 72.1 256.2 L  72.1 256.2 72.1 256.2 79.5 277.2 86.9 284.0 94.4 287.7 101.8 289.4 109.2 289.4 116.7 287.7 124.1 284.0 131.6 277.2 139.0 256.2 139.0 256.2 131.6 235.2 124.1 228.4 116.7 224.6 109.2 222.9 101.8 222.9 94.4 224.6 86.9 228.4 79.5 235.2z"/>
        <path d="M 104.0 219.7 L  104.0 219.7 95.7 221.6 87.3 225.8 78.9 233.5 70.5 257.2 70.5 257.2 78.9 280.9 87.3 288.5 95.7 292.7 104.0 294.7 112.4 294.7 120.8 292.7 129.2 288.5 137.6 280.9 145.9 257.2 145.9 257.2 137.6 233.5 129.2 225.8 120.8 221.6 112.4 219.7z"/>
        <path d="M 80.3 283.5 L  80.3 283.5 89.4 291.8 98.5 296.4 107.7 298.5 116.8 298.5 125.9 296.4 135.1 291.8 144.2 283.5 153.4 257.6 153.4 257.6 144.2 231.8 135.1 223.4 125.9 218.9 116.8 216.8 107.7 216.8 98.5 218.9 89.4 223.4 80.3 231.8 71.1 257.6 71.1 257.6z"/>
        <path d="M 108.3 216.4 L  108.3 216.4 98.9 218.5 89.5 223.2 80.2 231.8 70.8 258.3 70.8 258.3 80.2 284.8 89.5 293.3 98.9 298.0 108.3 300.2 117.6 300.2 127.0 298.0 136.4 293.3 145.7 284.8 155.1 258.3 155.1 258.3 145.7 231.8 136.4 223.2 127.0 218.5 117.6 216.4z"/>
        <path d="M 124.8 216.6 L  124.8 216.6 115.2 216.6 105.7 218.8 96.2 223.5 86.7 232.2 77.2 259.1 77.2 259.1 86.7 286.1 96.2 294.8 105.7 299.5 115.2 301.7 124.8 301.7 134.3 299.5 143.8 294.8 153.3 286.1 162.8 259.1 162.8 259.1 153.3 232.2 143.8 223.5 134.3 218.8z"/>
        <path d="M 167.5 259.4 L  167.5 259.4 157.0 230.0 146.6 220.5 136.2 215.3 125.8 212.9 115.4 212.9 105.0 215.3 94.6 220.5 84.2 230.0 73.8 259.4 73.8 259.4 84.2 288.8 94.6 298.3 105.0 303.5 115.4 305.9 125.8 305.9 136.2 303.5 146.6 298.3 157.0 288.8 167.5 259.4z"/>
        <path d="M 88.4 229.4 L  88.4 229.4 77.8 259.5 77.8 259.5 88.4 289.5 99.1 299.2 109.7 304.6 120.3 307.0 131.0 307.0 141.6 304.6 152.2 299.2 162.9 289.5 173.5 259.5 173.5 259.5 162.9 229.4 152.2 219.7 141.6 214.4 131.0 211.9 120.3 211.9 109.7 214.4 99.1 219.7z"/>
        <path d="M 148.0 212.4 L  148.0 212.4 136.9 209.8 125.7 209.8 114.6 212.4 103.4 218.0 92.3 228.1 81.1 259.7 81.1 259.7 92.3 291.2 103.4 301.4 114.6 307.0 125.7 309.6 136.9 309.6 148.0 307.0 159.2 301.4 170.3 291.2 181.5 259.7 181.5 259.7 170.3 228.1 159.2 218.0z"/>
        <path d="M 172.6 291.7 L  172.6 291.7 183.8 259.9 183.8 259.9 172.6 228.1 161.3 217.8 150.1 212.2 138.8 209.6 127.6 209.6 116.4 212.2 105.1 217.8 93.9 228.1 82.7 259.9 82.7 259.9 93.9 291.7 105.1 302.0 116.4 307.6 127.6 310.2 138.8 310.2 150.1 307.6 161.3 302.0z"/>
        <path d="M 183.7 226.3 L  183.7 226.3 171.5 215.2 159.4 209.1 147.2 206.3 135.0 206.3 122.8 209.1 110.6 215.2 98.5 226.3 86.3 260.7 86.3 260.7 98.5 295.2 110.6 306.3 122.8 312.4 135.0 315.2 147.2 315.2 159.4 312.4 171.5 306.3 183.7 295.2 195.9 260.7 195.9 260.7z"/>
        <path d="M 97.8 225.9 L  97.8 225.9 85.4 261.0 85.4 261.0 97.8 296.1 110.2 307.4 122.6 313.6 135.0 316.4 147.4 316.4 159.8 313.6 172.2 307.4 184.6 296.1 197.0 261.0 197.0 261.0 184.6 225.9 172.2 214.6 159.8 208.4 147.4 205.5 135.0 205.5 122.6 208.4 110.2 214.6z"/>
        <path d="M 116.3 308.5 L  116.3 308.5 128.9 314.8 141.5 317.6 154.0 317.6 166.6 314.8 179.2 308.5 191.7 297.0 204.3 261.5 204.3 261.5 191.7 225.9 179.2 214.5 166.6 208.2 154.0 205.3 141.5 205.3 128.9 208.2 116.3 214.5 103.8 225.9 91.2 261.5 91.2 261.5 103.8 297.0z"/>
        <path d="M 158.1 204.5 L  158.1 204.5 145.3 204.5 132.5 207.4 119.7 213.9 106.9 225.6 94.1 261.8 94.1 261.8 106.9 298.1 119.7 309.8 132.5 316.2 145.3 319.1 158.1 319.1 170.9 316.2 183.8 309.8 196.6 298.1 209.4 261.8 209.4 261.8 196.6 225.6 183.8 213.9 170.9 207.4z"/>
        <path d="M 150.0 204.7 L  150.0 204.7 137.1 207.6 124.2 214.1 111.4 225.8 98.5 262.2 98.5 262.2 111.4 298.7 124.2 310.4 137.1 316.9 150.0 319.8 162.9 319.8 175.7 316.9 188.6 310.4 201.5 298.7 214.4 262.2 214.4 262.2 201.5 225.8 188.6 214.1 175.7 207.6 162.9 204.7z"/>
        <path d="M 144.7 207.2 L  144.7 207.2 131.6 213.7 118.6 225.6 105.6 262.5 105.6 262.5 118.6 299.4 131.6 311.3 144.7 317.8 157.7 320.8 170.7 320.8 183.8 317.8 196.8 311.3 209.8 299.4 222.9 262.5 222.9 262.5 209.8 225.6 196.8 213.7 183.8 207.2 170.7 204.2 157.7 204.2z"/>
        <path d="M 199.0 313.8 L  199.0 313.8 212.5 301.4 226.1 263.1 226.1 263.1 212.5 224.7 199.0 212.3 185.4 205.5 171.8 202.4 158.3 202.4 144.7 205.5 131.1 212.3 117.6 224.7 104.0 263.1 104.0 263.1 117.6 301.4 131.1 313.8 144.7 320.6 158.3 323.7 171.8 323.7 185.4 320.6z"/>
        <path d="M 118.4 303.1 L  118.4 303.1 132.4 315.9 146.5 322.9 160.5 326.1 174.6 326.1 188.6 322.9 202.7 315.9 216.7 303.1 230.8 263.3 230.8 263.3 216.7 223.6 202.7 210.8 188.6 203.7 174.6 200.5 160.5 200.5 146.5 203.7 132.4 210.8 118.4 223.6 104.4 263.3 104.4 263.3z"/>
        <path d="M 209.7 206.9 L  209.7 206.9 194.6 199.3 179.5 195.9 164.4 195.9 149.3 199.3 134.2 206.9 119.1 220.7 104.0 263.4 104.0 263.4 119.1 306.1 134.2 319.9 149.3 327.5 164.4 331.0 179.5 331.0 194.6 327.5 209.7 319.9 224.8 306.1 239.9 263.4 239.9 263.4 224.8 220.7z"/>
        <path d="M 149.2 328.7 L  149.2 328.7 164.5 332.2 179.8 332.2 195.1 328.7 210.3 321.1 225.6 307.1 240.9 263.9 240.9 263.9 225.6 220.7 210.3 206.8 195.1 199.2 179.8 195.7 164.5 195.7 149.2 199.2 134.0 206.8 118.7 220.7 103.4 263.9 103.4 263.9 118.7 307.1 134.0 321.1z"/>
        <path d="M 229.2 307.7 L  229.2 307.7 244.7 264.0 244.7 264.0 229.2 220.3 213.8 206.2 198.4 198.5 182.9 195.0 167.5 195.0 152.1 198.5 136.6 206.2 121.2 220.3 105.8 264.0 105.8 264.0 121.2 307.7 136.6 321.8 152.1 329.5 167.5 333.0 182.9 333.0 198.4 329.5 213.8 321.8z"/>
        <path d="M 248.6 264.4 L  248.6 264.4 248.6 264.4 232.3 218.3 216.1 203.4 199.8 195.3 183.5 191.5 167.2 191.5 150.9 195.3 134.6 203.4 118.3 218.3 102.0 264.4 102.0 264.4 118.3 310.4 134.6 325.3 150.9 333.5 167.2 337.2 183.5 337.2 199.8 333.5 216.1 325.3 232.3 310.4z"/>
        <path d="M 186.2 187.7 L  186.2 187.7 169.0 187.7 151.9 191.7 134.7 200.3 117.6 215.9 100.4 264.4 100.4 264.4 117.6 312.9 134.7 328.6 151.9 337.2 169.0 341.1 186.2 341.1 203.3 337.2 220.5 328.6 237.6 312.9 254.8 264.4 254.8 264.4 237.6 215.9 220.5 200.3 203.3 191.7z"/>
        <path d="M 123.1 314.0 L  123.1 314.0 140.4 329.8 157.7 338.4 175.0 342.4 192.2 342.4 209.5 338.4 226.8 329.8 244.1 314.0 261.4 265.1 261.4 265.1 244.1 216.2 226.8 200.4 209.5 191.8 192.2 187.8 175.0 187.8 157.7 191.8 140.4 200.4 123.1 216.2 105.8 265.1 105.8 265.1z"/>
        <path d="M 269.3 266.1 L  269.3 266.1 269.3 266.1 251.7 216.4 234.2 200.4 216.6 191.6 199.0 187.6 181.5 187.6 163.9 191.6 146.4 200.4 128.8 216.4 111.2 266.1 111.2 266.1 128.8 315.8 146.4 331.8 163.9 340.6 181.5 344.6 199.0 344.6 216.6 340.6 234.2 331.8 251.7 315.8z"/>
        <path d="M 151.4 334.7 L  151.4 334.7 169.7 343.9 188.0 348.1 206.3 348.1 224.7 343.9 243.0 334.7 261.3 318.0 279.7 266.1 279.7 266.1 261.3 214.3 243.0 197.5 224.7 188.4 206.3 184.2 188.0 184.2 169.7 188.4 151.4 197.5 133.0 214.3 114.7 266.1 114.7 266.1 133.0 318.0z"/>
        <path d="M 133.5 320.3 L  133.5 320.3 152.3 337.5 171.2 347.0 190.1 351.3 208.9 351.3 227.8 347.0 246.6 337.5 265.5 320.3 284.4 267.0 284.4 267.0 265.5 213.6 246.6 196.4 227.8 187.0 208.9 182.6 190.1 182.6 171.2 187.0 152.3 196.4 133.5 213.6 114.6 267.0 114.6 267.0z"/>
        <path d="M 254.4 342.3 L  254.4 342.3 274.4 324.1 294.3 267.7 294.3 267.7 274.4 211.3 254.4 193.0 234.5 183.0 214.5 178.5 194.6 178.5 174.6 183.0 154.7 193.0 134.7 211.3 114.8 267.7 114.8 267.7 134.7 324.1 154.7 342.3 174.6 352.3 194.6 356.9 214.5 356.9 234.5 352.3z"/>
        <path d="M 179.9 356.1 L  179.9 356.1 200.6 360.8 221.2 360.8 241.8 356.1 262.5 345.7 283.1 326.9 303.8 268.5 303.8 268.5 283.1 210.1 262.5 191.3 241.8 180.9 221.2 176.2 200.6 176.2 179.9 180.9 159.3 191.3 138.7 210.1 118.0 268.5 118.0 268.5 138.7 326.9 159.3 345.7z"/>
        <path d="M 183.4 177.1 L  183.4 177.1 161.7 188.0 140.0 207.8 118.2 269.2 118.2 269.2 140.0 330.7 161.7 350.5 183.4 361.4 205.1 366.4 226.8 366.4 248.6 361.4 270.3 350.5 292.0 330.7 313.7 269.2 313.7 269.2 292.0 207.8 270.3 188.0 248.6 177.1 226.8 172.1 205.1 172.1z"/>
        <path d="M 208.6 168.8 L  208.6 168.8 186.0 174.0 163.4 185.3 140.8 205.9 118.2 269.8 118.2 269.8 140.8 333.7 163.4 354.3 186.0 365.6 208.6 370.8 231.2 370.8 253.8 365.6 276.3 354.3 298.9 333.7 321.5 269.8 321.5 269.8 298.9 205.9 276.3 185.3 253.8 174.0 231.2 168.8z"/>
        <path d="M 164.4 184.0 L  164.4 184.0 141.4 205.0 118.4 270.1 118.4 270.1 141.4 335.2 164.4 356.2 187.4 367.7 210.5 373.0 233.5 373.0 256.5 367.7 279.5 356.2 302.5 335.2 325.5 270.1 325.5 270.1 302.5 205.0 279.5 184.0 256.5 172.5 233.5 167.2 210.5 167.2 187.4 172.5z"/>
        <path d="M 240.8 374.0 L  240.8 374.0 264.0 368.7 287.2 357.1 310.3 335.9 333.5 270.3 333.5 270.3 310.3 204.8 287.2 183.6 264.0 172.0 240.8 166.7 217.6 166.7 194.5 172.0 171.3 183.6 148.1 204.8 124.9 270.3 124.9 270.3 148.1 335.9 171.3 357.1 194.5 368.7 217.6 374.0z"/>
        <path d="M 200.9 170.3 L  200.9 170.3 177.2 182.2 153.4 203.9 129.7 271.0 129.7 271.0 153.4 338.2 177.2 359.9 200.9 371.8 224.7 377.2 248.4 377.2 272.2 371.8 295.9 359.9 319.7 338.2 343.4 271.0 343.4 271.0 319.7 203.9 295.9 182.2 272.2 170.3 248.4 164.8 224.7 164.8z"/>
        <path d="M 328.5 203.2 L  328.5 203.2 304.3 181.0 280.1 168.9 255.8 163.3 231.6 163.3 207.4 168.9 183.1 181.0 158.9 203.2 134.7 271.7 134.7 271.7 158.9 340.3 183.1 362.4 207.4 374.5 231.6 380.1 255.8 380.1 280.1 374.5 304.3 362.4 328.5 340.3 352.8 271.7 352.8 271.7z"/>
        <path d="M 338.0 201.5 L  338.0 201.5 313.0 178.7 288.1 166.2 263.1 160.5 238.1 160.5 213.2 166.2 188.2 178.7 163.3 201.5 138.3 272.1 138.3 272.1 163.3 342.7 188.2 365.5 213.2 378.0 238.1 383.7 263.1 383.7 288.1 378.0 313.0 365.5 338.0 342.7 362.9 272.1 362.9 272.1z"/>
        <path d="M 242.4 159.5 L  242.4 159.5 217.1 165.3 191.7 178.0 166.4 201.1 141.0 272.8 141.0 272.8 166.4 344.4 191.7 367.6 217.1 380.3 242.4 386.1 267.7 386.1 293.1 380.3 318.4 367.6 343.7 344.4 369.1 272.8 369.1 272.8 343.7 201.1 318.4 178.0 293.1 165.3 267.7 159.5z"/>
        <path d="M 243.6 388.3 L  243.6 388.3 269.4 388.3 295.2 382.4 320.9 369.5 346.7 346.0 372.5 273.1 372.5 273.1 346.7 200.2 320.9 176.6 295.2 163.7 269.4 157.8 243.6 157.8 217.8 163.7 192.1 176.6 166.3 200.2 140.5 273.1 140.5 273.1 166.3 346.0 192.1 369.5 217.8 382.4z"/>
        <path d="M 276.6 389.3 L  276.6 389.3 302.3 383.4 328.1 370.4 353.9 346.9 379.7 274.0 379.7 274.0 353.9 201.1 328.1 177.5 302.3 164.6 276.6 158.7 250.8 158.7 225.0 164.6 199.2 177.5 173.4 201.1 147.7 274.0 147.7 274.0 173.4 346.9 199.2 370.4 225.0 383.4 250.8 389.3z"/>
        <path d="M 171.3 350.3 L  171.3 350.3 198.0 374.6 224.7 388.0 251.4 394.1 278.1 394.1 304.8 388.0 331.5 374.6 358.2 350.3 384.9 274.8 384.9 274.8 358.2 199.3 331.5 174.9 304.8 161.5 278.1 155.4 251.4 155.4 224.7 161.5 198.0 174.9 171.3 199.3 144.7 274.8 144.7 274.8z"/>
        <path d="M 148.2 275.1 L  148.2 275.1 148.2 275.1 175.2 351.6 202.2 376.3 229.3 389.9 256.3 396.1 283.4 396.1 310.4 389.9 337.4 376.3 364.5 351.6 391.5 275.1 391.5 275.1 364.5 198.7 337.4 174.0 310.4 160.4 283.4 154.2 256.3 154.2 229.3 160.4 202.2 174.0 175.2 198.7z"/>
        <path d="M 403.2 275.2 L  403.2 275.2 375.2 196.0 347.2 170.5 319.2 156.5 291.2 150.0 263.3 150.0 235.3 156.5 207.3 170.5 179.3 196.0 151.3 275.2 151.3 275.2 179.3 354.3 207.3 379.9 235.3 393.9 263.3 400.3 291.2 400.3 319.2 393.9 347.2 379.9 375.2 354.3 403.2 275.2z"/>
        <path d="M 383.8 194.8 L  383.8 194.8 355.3 168.8 326.8 154.6 298.3 148.0 269.8 148.0 241.3 154.6 212.8 168.8 184.3 194.8 155.8 275.4 155.8 275.4 184.3 356.0 212.8 382.0 241.3 396.3 269.8 402.8 298.3 402.8 326.8 396.3 355.3 382.0 383.8 356.0 412.2 275.4 412.2 275.4z"/>
        <path d="M 331.2 150.6 L  331.2 150.6 301.8 143.9 272.3 143.9 242.9 150.6 213.4 165.4 183.9 192.3 154.5 275.6 154.5 275.6 183.9 358.9 213.4 385.8 242.9 400.6 272.3 407.3 301.8 407.3 331.2 400.6 360.7 385.8 390.2 358.9 419.6 275.6 419.6 275.6 390.2 192.3 360.7 165.4z"/>
        <path d="M 213.4 165.1 L  213.4 165.1 183.8 192.1 154.1 275.9 154.1 275.9 183.8 359.7 213.4 386.8 243.0 401.6 272.6 408.4 302.3 408.4 331.9 401.6 361.5 386.8 391.1 359.7 420.8 275.9 420.8 275.9 391.1 192.1 361.5 165.1 331.9 150.3 302.3 143.5 272.6 143.5 243.0 150.3z"/>
        <path d="M 308.1 411.9 L  308.1 411.9 338.3 405.0 368.5 389.9 398.7 362.2 429.0 276.7 429.0 276.7 398.7 191.2 368.5 163.6 338.3 148.5 308.1 141.6 277.8 141.6 247.6 148.5 217.4 163.6 187.1 191.2 156.9 276.7 156.9 276.7 187.1 362.2 217.4 389.9 247.6 405.0 277.8 411.9z"/>
        <path d="M 253.3 410.0 L  253.3 410.0 284.6 417.2 315.8 417.2 347.1 410.0 378.4 394.3 409.7 365.8 440.9 277.3 440.9 277.3 409.7 188.9 378.4 160.3 347.1 144.6 315.8 137.5 284.6 137.5 253.3 144.6 222.0 160.3 190.7 188.9 159.5 277.3 159.5 277.3 190.7 365.8 222.0 394.3z"/>
        <path d="M 286.9 136.5 L  286.9 136.5 255.3 143.8 223.7 159.6 192.1 188.5 160.4 278.0 160.4 278.0 192.1 367.4 223.7 396.3 255.3 412.1 286.9 419.4 318.6 419.4 350.2 412.1 381.8 396.3 413.4 367.4 445.1 278.0 445.1 278.0 413.4 188.5 381.8 159.6 350.2 143.8 318.6 136.5z"/>
        <path d="M 452.0 278.2 L  452.0 278.2 420.1 188.1 388.3 159.0 356.4 143.1 324.5 135.7 292.7 135.7 260.8 143.1 229.0 159.0 197.1 188.1 165.3 278.2 165.3 278.2 197.1 368.3 229.0 397.4 260.8 413.4 292.7 420.7 324.5 420.7 356.4 413.4 388.3 397.4 420.1 368.3 452.0 278.2z"/>
        <path d="M 229.5 400.9 L  229.5 400.9 262.1 417.2 294.8 424.7 327.4 424.7 360.1 417.2 392.7 400.9 425.4 371.1 458.0 278.7 458.0 278.7 425.4 186.4 392.7 156.6 360.1 140.2 327.4 132.7 294.8 132.7 262.1 140.2 229.5 156.6 196.8 186.4 164.2 278.7 164.2 278.7 196.8 371.1z"/>
        <path d="M 333.9 429.6 L  333.9 429.6 367.6 421.9 401.3 405.0 434.9 374.2 468.6 278.9 468.6 278.9 434.9 183.7 401.3 152.9 367.6 136.0 333.9 128.3 300.2 128.3 266.5 136.0 232.8 152.9 199.1 183.7 165.5 278.9 165.5 278.9 199.1 374.2 232.8 405.0 266.5 421.9 300.2 429.6z"/>
        <path d="M 307.3 126.7 L  307.3 126.7 273.2 134.5 239.2 151.6 205.1 182.7 171.0 279.0 171.0 279.0 205.1 375.3 239.2 406.4 273.2 423.5 307.3 431.3 341.3 431.3 375.4 423.5 409.4 406.4 443.5 375.3 477.5 279.0 477.5 279.0 443.5 182.7 409.4 151.6 375.4 134.5 341.3 126.7z"/>
        <path d="M 206.5 376.6 L  206.5 376.6 240.8 408.0 275.1 425.1 309.4 433.0 343.6 433.0 377.9 425.1 412.2 408.0 446.5 376.6 480.8 279.6 480.8 279.6 446.5 182.6 412.2 151.3 377.9 134.1 343.6 126.3 309.4 126.3 275.1 134.1 240.8 151.3 206.5 182.6 172.2 279.6 172.2 279.6z"/>
        <path d="M 246.8 408.2 L  246.8 408.2 281.2 425.4 315.5 433.3 349.9 433.3 384.2 425.4 418.6 408.2 452.9 376.8 487.2 279.7 487.2 279.7 452.9 182.6 418.6 151.2 384.2 134.0 349.9 126.1 315.5 126.1 281.2 134.0 246.8 151.2 212.5 182.6 178.2 279.7 178.2 279.7 212.5 376.8z"/>
        <path d="M 316.0 124.5 L  316.0 124.5 281.2 132.5 246.5 149.9 211.7 181.6 177.0 279.9 177.0 279.9 211.7 378.2 246.5 409.9 281.2 427.3 316.0 435.3 350.7 435.3 385.4 427.3 420.2 409.9 454.9 378.2 489.7 279.9 489.7 279.9 454.9 181.6 420.2 149.9 385.4 132.5 350.7 124.5z"/>
        <path d="M 493.7 280.6 L  493.7 280.6 493.7 280.6 458.5 180.8 423.2 148.6 387.9 130.9 352.6 122.8 317.4 122.8 282.1 130.9 246.8 148.6 211.5 180.8 176.3 280.6 176.3 280.6 211.5 380.3 246.8 412.6 282.1 430.2 317.4 438.3 352.6 438.3 387.9 430.2 423.2 412.6 458.5 380.3z"/>
        <path d="M 285.1 433.6 L  285.1 433.6 321.1 441.9 357.1 441.9 393.1 433.6 429.1 415.6 465.1 382.7 501.1 280.9 501.1 280.9 465.1 179.1 429.1 146.2 393.1 128.2 357.1 119.9 321.1 119.9 285.1 128.2 249.1 146.2 213.1 179.1 177.1 280.9 177.1 280.9 213.1 382.7 249.1 415.6z"/>
        <path d="M 506.9 281.5 L  506.9 281.5 506.9 281.5 470.7 178.9 434.4 145.8 398.2 127.6 361.9 119.3 325.6 119.3 289.4 127.6 253.1 145.8 216.8 178.9 180.6 281.5 180.6 281.5 216.8 384.0 253.1 417.1 289.4 435.3 325.6 443.6 361.9 443.6 398.2 435.3 434.4 417.1 470.7 384.0z"/>
        <path d="M 477.1 177.2 L  477.1 177.2 440.0 143.3 402.9 124.7 365.7 116.2 328.6 116.2 291.5 124.7 254.3 143.3 217.2 177.2 180.1 282.3 180.1 282.3 217.2 387.3 254.3 421.2 291.5 439.8 328.6 448.4 365.7 448.4 402.9 439.8 440.0 421.2 477.1 387.3 514.3 282.3 514.3 282.3z"/>
        <path d="M 332.0 451.5 L  332.0 451.5 369.7 451.5 407.3 442.8 444.9 424.0 482.6 389.6 520.2 283.2 520.2 283.2 482.6 176.7 444.9 142.3 407.3 123.5 369.7 114.8 332.0 114.8 294.4 123.5 256.8 142.3 219.1 176.7 181.5 283.2 181.5 283.2 219.1 389.6 256.8 424.0 294.4 442.8z"/>
        <path d="M 187.9 283.7 L  187.9 283.7 187.9 283.7 225.8 390.8 263.6 425.4 301.5 444.3 339.3 453.0 377.2 453.0 415.0 444.3 452.9 425.4 490.7 390.8 528.6 283.7 528.6 283.7 490.7 176.7 452.9 142.1 415.0 123.2 377.2 114.5 339.3 114.5 301.5 123.2 263.6 142.1 225.8 176.7z"/>
        <path d="M 269.3 428.6 L  269.3 428.6 307.9 447.9 346.5 456.8 385.2 456.8 423.8 447.9 462.4 428.6 501.0 393.3 539.7 284.1 539.7 284.1 501.0 174.8 462.4 139.5 423.8 120.2 385.2 111.3 346.5 111.3 307.9 120.2 269.3 139.5 230.7 174.8 192.0 284.1 192.0 284.1 230.7 393.3z"/>
        <path d="M 545.4 285.0 L  545.4 285.0 545.4 285.0 506.1 173.8 466.7 137.8 427.4 118.1 388.1 109.1 348.7 109.1 309.4 118.1 270.0 137.8 230.7 173.8 191.4 285.0 191.4 285.0 230.7 396.3 270.0 432.2 309.4 451.9 348.7 460.9 388.1 460.9 427.4 451.9 466.7 432.2 506.1 396.3z"/>
        <path d="M 510.9 173.4 L  510.9 173.4 471.4 137.3 431.9 117.6 392.4 108.5 352.9 108.5 313.5 117.6 274.0 137.3 234.5 173.4 195.0 285.1 195.0 285.1 234.5 396.7 274.0 432.8 313.5 452.6 352.9 461.6 392.4 461.6 431.9 452.6 471.4 432.8 510.9 396.7 550.3 285.1 550.3 285.1z"/>
        <path d="M 436.5 114.6 L  436.5 114.6 396.2 105.4 355.9 105.4 315.6 114.6 275.3 134.8 235.0 171.6 194.7 285.6 194.7 285.6 235.0 399.6 275.3 436.4 315.6 456.6 355.9 465.9 396.2 465.9 436.5 456.6 476.8 436.4 517.1 399.6 557.4 285.6 557.4 285.6 517.1 171.6 476.8 134.8z"/>
        <path d="M 242.2 172.0 L  242.2 172.0 201.7 286.6 201.7 286.6 242.2 401.2 282.7 438.2 323.2 458.5 363.7 467.8 404.3 467.8 444.8 458.5 485.3 438.2 525.8 401.2 566.3 286.6 566.3 286.6 525.8 172.0 485.3 135.0 444.8 114.7 404.3 105.4 363.7 105.4 323.2 114.7 282.7 135.0z"/>
        <path d="M 408.4 103.9 L  408.4 103.9 367.5 103.9 326.6 113.3 285.6 133.8 244.7 171.2 203.8 286.9 203.8 286.9 244.7 402.7 285.6 440.1 326.6 460.6 367.5 470.0 408.4 470.0 449.3 460.6 490.3 440.1 531.2 402.7 572.1 286.9 572.1 286.9 531.2 171.2 490.3 133.8 449.3 113.3z"/>
        <path d="M 287.9 133.0 L  287.9 133.0 246.5 170.8 205.1 287.9 205.1 287.9 246.5 405.1 287.9 442.9 329.4 463.6 370.8 473.1 412.2 473.1 453.6 463.6 495.0 442.9 536.4 405.1 577.8 287.9 577.8 287.9 536.4 170.8 495.0 133.0 453.6 112.2 412.2 102.7 370.8 102.7 329.4 112.2z"/>
        <path d="M 330.2 465.2 L  330.2 465.2 371.8 474.8 413.5 474.8 455.1 465.2 496.7 444.4 538.3 406.4 579.9 288.7 579.9 288.7 538.3 171.0 496.7 133.0 455.1 112.1 413.5 102.6 371.8 102.6 330.2 112.1 288.6 133.0 247.0 171.0 205.4 288.7 205.4 288.7 247.0 406.4 288.6 444.4z"/>
        <path d="M 543.0 170.0 L  543.0 170.0 500.8 131.4 458.6 110.3 416.4 100.6 374.2 100.6 332.0 110.3 289.8 131.4 247.6 170.0 205.4 289.3 205.4 289.3 247.6 408.6 289.8 447.1 332.0 468.3 374.2 478.0 416.4 478.0 458.6 468.3 500.8 447.1 543.0 408.6 585.1 289.3 585.1 289.3z"/>
        <path d="M 206.8 289.6 L  206.8 289.6 206.8 289.6 249.7 410.9 292.5 450.0 335.4 471.5 378.3 481.3 421.2 481.3 464.1 471.5 506.9 450.0 549.8 410.9 592.7 289.6 592.7 289.6 549.8 168.3 506.9 129.1 464.1 107.6 421.2 97.8 378.3 97.8 335.4 107.6 292.5 129.1 249.7 168.3z"/>
        <path d="M 252.0 412.8 L  252.0 412.8 295.2 452.3 338.5 473.9 381.7 483.9 425.0 483.9 468.2 473.9 511.5 452.3 554.7 412.8 598.0 290.4 598.0 290.4 554.7 168.1 511.5 128.6 468.2 106.9 425.0 97.0 381.7 97.0 338.5 106.9 295.2 128.6 252.0 168.1 208.7 290.4 208.7 290.4z"/>
        <path d="M 253.4 168.0 L  253.4 168.0 210.0 291.0 210.0 291.0 253.4 413.9 296.9 453.6 340.4 475.4 383.8 485.4 427.3 485.4 470.8 475.4 514.2 453.6 557.7 413.9 601.2 291.0 601.2 291.0 557.7 168.0 514.2 128.4 470.8 106.6 427.3 96.6 383.8 96.6 340.4 106.6 296.9 128.4z"/>
        <path d="M 472.4 103.6 L  472.4 103.6 428.0 93.4 383.7 93.4 339.4 103.6 295.0 125.8 250.7 166.3 206.4 291.7 206.4 291.7 250.7 417.1 295.0 457.6 339.4 479.8 383.7 490.0 428.0 490.0 472.4 479.8 516.7 457.6 561.0 417.1 605.4 291.7 605.4 291.7 561.0 166.3 516.7 125.8z"/>
        <path d="M 481.1 100.0 L  481.1 100.0 435.9 89.6 390.7 89.6 345.5 100.0 300.2 122.6 255.0 163.9 209.8 291.8 209.8 291.8 255.0 419.7 300.2 461.0 345.5 483.6 390.7 494.0 435.9 494.0 481.1 483.6 526.3 461.0 571.5 419.7 616.8 291.8 616.8 291.8 571.5 163.9 526.3 122.6z"/>
        <path d="M 345.5 98.7 L  345.5 98.7 299.8 121.6 254.0 163.4 208.3 292.8 208.3 292.8 254.0 422.1 299.8 463.9 345.5 486.8 391.2 497.3 437.0 497.3 482.7 486.8 528.5 463.9 574.2 422.1 619.9 292.8 619.9 292.8 574.2 163.4 528.5 121.6 482.7 98.7 437.0 88.2 391.2 88.2z"/>
        <path d="M 350.0 488.5 L  350.0 488.5 396.1 499.1 442.3 499.1 488.4 488.5 534.5 465.4 580.7 423.3 626.8 292.8 626.8 292.8 580.7 162.3 534.5 120.2 488.4 97.1 442.3 86.5 396.1 86.5 350.0 97.1 303.9 120.2 257.7 162.3 211.6 292.8 211.6 292.8 257.7 423.3 303.9 465.4z"/>
        <path d="M 449.0 500.1 L  449.0 500.1 495.2 489.5 541.4 466.3 587.6 424.2 633.7 293.5 633.7 293.5 587.6 162.9 541.4 120.7 495.2 97.6 449.0 87.0 402.8 87.0 356.7 97.6 310.5 120.7 264.3 162.9 218.1 293.5 218.1 293.5 264.3 424.2 310.5 466.3 356.7 489.5 402.8 500.1z"/>
        <path d="M 645.0 294.1 L  645.0 294.1 597.9 161.0 550.9 118.0 503.9 94.5 456.8 83.7 409.8 83.7 362.7 94.5 315.7 118.0 268.6 161.0 221.6 294.1 221.6 294.1 268.6 427.1 315.7 470.1 362.7 493.7 409.8 504.5 456.8 504.5 503.9 493.7 550.9 470.1 597.9 427.1 645.0 294.1z"/>
        <path d="M 464.8 83.2 L  464.8 83.2 417.5 83.2 370.2 94.0 323.0 117.7 275.7 160.8 228.4 294.5 228.4 294.5 275.7 428.2 323.0 471.4 370.2 495.0 417.5 505.9 464.8 505.9 512.0 495.0 559.3 471.4 606.6 428.2 653.8 294.5 653.8 294.5 606.6 160.8 559.3 117.7 512.0 94.0z"/>
        <path d="M 661.1 294.6 L  661.1 294.6 613.5 160.0 566.0 116.6 518.4 92.7 470.8 81.8 423.2 81.8 375.7 92.7 328.1 116.6 280.5 160.0 232.9 294.6 232.9 294.6 280.5 429.2 328.1 472.6 375.7 496.5 423.2 507.4 470.8 507.4 518.4 496.5 566.0 472.6 613.5 429.2 661.1 294.6z"/>
        <path d="M 286.2 159.9 L  286.2 159.9 238.3 295.5 238.3 295.5 286.2 431.0 334.1 474.8 382.1 498.8 430.0 509.8 477.9 509.8 525.8 498.8 573.8 474.8 621.7 431.0 669.6 295.5 669.6 295.5 621.7 159.9 573.8 116.2 525.8 92.1 477.9 81.1 430.0 81.1 382.1 92.1 334.1 116.2z"/>
        <path d="M 288.2 431.3 L  288.2 431.3 336.2 475.2 384.3 499.2 432.3 510.3 480.3 510.3 528.3 499.2 576.3 475.2 624.3 431.3 672.3 295.5 672.3 295.5 624.3 159.7 576.3 115.9 528.3 91.8 480.3 80.8 432.3 80.8 384.3 91.8 336.2 115.9 288.2 159.7 240.2 295.5 240.2 295.5z"/>
        <path d="M 339.5 478.4 L  339.5 478.4 388.1 502.8 436.8 514.0 485.5 514.0 534.1 502.8 582.8 478.4 631.5 434.0 680.1 296.3 680.1 296.3 631.5 158.7 582.8 114.2 534.1 89.9 485.5 78.7 436.8 78.7 388.1 89.9 339.5 114.2 290.8 158.7 242.1 296.3 242.1 296.3 290.8 434.0z"/>
        <path d="M 584.2 113.6 L  584.2 113.6 535.2 89.1 486.2 77.8 437.3 77.8 388.3 89.1 339.3 113.6 290.3 158.4 241.3 296.9 241.3 296.9 290.3 435.4 339.3 480.2 388.3 504.7 437.3 515.9 486.2 515.9 535.2 504.7 584.2 480.2 633.2 435.4 682.2 296.9 682.2 296.9 633.2 158.4z"/>
        <path d="M 441.4 519.1 L  441.4 519.1 491.1 519.1 540.8 507.7 590.5 482.8 640.1 437.5 689.8 297.0 689.8 297.0 640.1 156.5 590.5 111.1 540.8 86.2 491.1 74.8 441.4 74.8 391.8 86.2 342.1 111.1 292.4 156.5 242.7 297.0 242.7 297.0 292.4 437.5 342.1 482.8 391.8 507.7z"/>
        <path d="M 693.8 297.2 L  693.8 297.2 693.8 297.2 643.4 154.6 592.9 108.6 542.5 83.3 492.1 71.7 441.6 71.7 391.2 83.3 340.8 108.6 290.4 154.6 239.9 297.2 239.9 297.2 290.4 439.9 340.8 485.9 391.2 511.2 441.6 522.8 492.1 522.8 542.5 511.2 592.9 485.9 643.4 439.9z"/>
        <path d="M 549.8 79.7 L  549.8 79.7 498.3 67.8 446.7 67.8 395.2 79.7 343.7 105.5 292.2 152.5 240.7 298.2 240.7 298.2 292.2 443.9 343.7 491.0 395.2 516.8 446.7 528.6 498.3 528.6 549.8 516.8 601.3 491.0 652.8 443.9 704.3 298.2 704.3 298.2 652.8 152.5 601.3 105.5z"/>
        <path d="M 296.0 151.0 L  296.0 151.0 243.7 298.9 243.7 298.9 296.0 446.8 348.3 494.6 400.6 520.8 452.9 532.8 505.2 532.8 557.5 520.8 609.8 494.6 662.1 446.8 714.4 298.9 714.4 298.9 662.1 151.0 609.8 103.2 557.5 77.0 505.2 65.0 452.9 65.0 400.6 77.0 348.3 103.2z"/>
        <path d="M 400.7 77.4 L  400.7 77.4 348.4 103.6 296.0 151.4 243.6 299.5 243.6 299.5 296.0 447.7 348.4 495.5 400.7 521.7 453.1 533.7 505.5 533.7 557.8 521.7 610.2 495.5 662.6 447.7 715.0 299.5 715.0 299.5 662.6 151.4 610.2 103.6 557.8 77.4 505.5 65.3 453.1 65.3z"/>
        <path d="M 454.7 64.9 L  454.7 64.9 402.1 77.0 349.5 103.4 296.9 151.4 244.2 300.3 244.2 300.3 296.9 449.1 349.5 497.2 402.1 523.5 454.7 535.6 507.3 535.6 560.0 523.5 612.6 497.2 665.2 449.1 717.8 300.3 717.8 300.3 665.2 151.4 612.6 103.4 560.0 77.0 507.3 64.9z"/>
        <path d="M 348.2 500.0 L  348.2 500.0 401.5 526.7 454.7 539.0 508.0 539.0 561.2 526.7 614.5 500.0 667.8 451.4 721.0 300.8 721.0 300.8 667.8 150.2 614.5 101.5 561.2 74.9 508.0 62.6 454.7 62.6 401.5 74.9 348.2 101.5 295.0 150.2 241.7 300.8 241.7 300.8 295.0 451.4z"/>
        <path d="M 457.4 59.5 L  457.4 59.5 403.3 71.9 349.3 99.0 295.3 148.3 241.3 301.1 241.3 301.1 295.3 453.8 349.3 503.2 403.3 530.2 457.4 542.6 511.4 542.6 565.4 530.2 619.4 503.2 673.4 453.8 727.4 301.1 727.4 301.1 673.4 148.3 619.4 99.0 565.4 71.9 511.4 59.5z"/>
        <path d="M 570.8 532.2 L  570.8 532.2 625.1 505.0 679.4 455.4 733.7 301.7 733.7 301.7 679.4 148.1 625.1 98.5 570.8 71.3 516.5 58.8 462.1 58.8 407.8 71.3 353.5 98.5 299.2 148.1 244.9 301.7 244.9 301.7 299.2 455.4 353.5 505.0 407.8 532.2 462.1 544.6 516.5 544.6z"/>
        <path d="M 412.1 535.1 L  412.1 535.1 467.0 547.7 522.0 547.7 577.0 535.1 631.9 507.5 686.9 457.3 741.9 301.9 741.9 301.9 686.9 146.4 631.9 96.2 577.0 68.7 522.0 56.1 467.0 56.1 412.1 68.7 357.1 96.2 302.2 146.4 247.2 301.9 247.2 301.9 302.2 457.3 357.1 507.5z"/>
        <path d="M 638.9 94.7 L  638.9 94.7 583.4 66.9 527.9 54.2 472.4 54.2 416.9 66.9 361.4 94.7 305.9 145.4 250.4 302.4 250.4 302.4 305.9 459.4 361.4 510.1 416.9 537.9 472.4 550.6 527.9 550.6 583.4 537.9 638.9 510.1 694.4 459.4 749.9 302.4 749.9 302.4 694.4 145.4z"/>
        <path d="M 364.9 92.3 L  364.9 92.3 308.7 143.7 252.4 302.9 252.4 302.9 308.7 462.1 364.9 513.5 421.2 541.7 477.5 554.6 533.8 554.6 590.1 541.7 646.4 513.5 702.7 462.1 759.0 302.9 759.0 302.9 702.7 143.7 646.4 92.3 590.1 64.1 533.8 51.2 477.5 51.2 421.2 64.1z"/>
        <path d="M 765.2 303.0 L  765.2 303.0 765.2 303.0 708.3 141.8 651.3 89.8 594.3 61.2 537.3 48.1 480.3 48.1 423.3 61.2 366.3 89.8 309.3 141.8 252.3 303.0 252.3 303.0 309.3 464.2 366.3 516.2 423.3 544.8 480.3 557.9 537.3 557.9 594.3 544.8 651.3 516.2 708.3 464.2z"/>
        <path d="M 714.9 140.8 L  714.9 140.8 657.3 88.3 599.8 59.4 542.2 46.2 484.7 46.2 427.1 59.4 369.6 88.3 312.0 140.8 254.5 303.6 254.5 303.6 312.0 466.4 369.6 518.9 427.1 547.7 484.7 561.0 542.2 561.0 599.8 547.7 657.3 518.9 714.9 466.4 772.4 303.6 772.4 303.6z"/>
        <path d="M 375.2 85.6 L  375.2 85.6 316.8 138.9 258.4 304.0 258.4 304.0 316.8 469.2 375.2 522.5 433.6 551.7 491.9 565.1 550.3 565.1 608.7 551.7 667.1 522.5 725.5 469.2 783.9 304.0 783.9 304.0 725.5 138.9 667.1 85.6 608.7 56.3 550.3 42.9 491.9 42.9 433.6 56.3z"/>
        <path d="M 674.3 525.9 L  674.3 525.9 733.4 471.9 792.6 304.6 792.6 304.6 733.4 137.2 674.3 83.2 615.1 53.6 556.0 40.0 496.8 40.0 437.6 53.6 378.5 83.2 319.3 137.2 260.2 304.6 260.2 304.6 319.3 471.9 378.5 525.9 437.6 555.6 496.8 569.1 556.0 569.1 615.1 555.6z"/>
        <path d="M 616.3 557.8 L  616.3 557.8 676.0 527.9 735.7 473.4 795.4 304.6 795.4 304.6 735.7 135.8 676.0 81.3 616.3 51.4 556.6 37.7 497.0 37.7 437.3 51.4 377.6 81.3 317.9 135.8 258.2 304.6 258.2 304.6 317.9 473.4 377.6 527.9 437.3 557.8 497.0 571.5 556.6 571.5z"/>
        <path d="M 500.8 33.6 L  500.8 33.6 440.1 47.5 379.4 77.9 318.8 133.3 258.1 305.0 258.1 305.0 318.8 476.6 379.4 532.0 440.1 562.4 500.8 576.4 561.5 576.4 622.2 562.4 682.9 532.0 743.5 476.6 804.2 305.0 804.2 305.0 743.5 133.3 682.9 77.9 622.2 47.5 561.5 33.6z"/>
        <path d="M 811.2 305.2 L  811.2 305.2 750.3 132.8 689.3 77.1 628.4 46.6 567.5 32.6 506.5 32.6 445.6 46.6 384.6 77.1 323.7 132.8 262.7 305.2 262.7 305.2 323.7 477.5 384.6 533.2 445.6 563.7 506.5 577.7 567.5 577.7 628.4 563.7 689.3 533.2 750.3 477.5 811.2 305.2z"/>
        <path d="M 385.1 537.1 L  385.1 537.1 446.9 568.0 508.7 582.2 570.5 582.2 632.3 568.0 694.1 537.1 755.9 480.6 817.7 305.8 817.7 305.8 755.9 131.0 694.1 74.5 632.3 43.6 570.5 29.4 508.7 29.4 446.9 43.6 385.1 74.5 323.3 131.0 261.5 305.8 261.5 305.8 323.3 480.6z"/>
        <path d="M 447.5 572.2 L  447.5 572.2 510.3 586.6 573.0 586.6 635.8 572.2 698.6 540.8 761.3 483.5 824.1 305.9 824.1 305.9 761.3 128.4 698.6 71.0 635.8 39.6 573.0 25.2 510.3 25.2 447.5 39.6 384.7 71.0 321.9 128.4 259.2 305.9 259.2 305.9 321.9 483.5 384.7 540.8z"/>
        <path d="M 320.3 126.9 L  320.3 126.9 256.9 306.3 256.9 306.3 320.3 485.7 383.8 543.6 447.2 575.4 510.6 590.0 574.1 590.0 637.5 575.4 700.9 543.6 764.4 485.7 827.8 306.3 827.8 306.3 764.4 126.9 700.9 68.9 637.5 37.2 574.1 22.6 510.6 22.6 447.2 37.2 383.8 68.9z"/>
        <path d="M 768.7 125.3 L  768.7 125.3 704.5 66.6 640.2 34.4 576.0 19.7 511.7 19.7 447.5 34.4 383.2 66.6 319.0 125.3 254.7 307.0 254.7 307.0 319.0 488.7 383.2 547.3 447.5 579.5 511.7 594.3 576.0 594.3 640.2 579.5 704.5 547.3 768.7 488.7 832.9 307.0 832.9 307.0z"/>
    </g> 
</svg>