<?xml version='1.0' encoding='UTF-8' standalone='no'?>
<svg xmlns="http://www.w3.org/2000/svg" xmlns:xlink="http://www.w3.org/1999/xlink" version="1.1" width="330" height="100" viewBox="0 0 330 100">
  <circle cx="10" cy="10" r="10" fill="#FFC10E"/>
  <circle cx="6.7" cy="6.6000000000000005" r="1.6" fill="#333333"/>
  <circle cx="13.3" cy="6.6000000000000005" r="1.6" fill="#333333"/>
  <path stroke="black" stroke-width="1.1" fill="transparent" fill-rule="nonzero" d="M 4.0 10.5 C 6.0 17.8, 14.0 17.8, 16.0 10.5"/>
  <circle cx="4.0" cy="10.5" r="0.55" fill="black"/>
  <circle cx="16.0" cy="10.5" r="0.55" fill="black"/>
  <circle cx="45" cy="20" r="20" fill="#FFC10E"/>
  <circle cx="38.4" cy="13.200000000000001" r="3.2" fill="#333333"/>
  <circle cx="51.6" cy="13.200000000000001" r="3.2" fill="#333333"/>
  <path stroke="black" stroke-width="2.2" fill="transparent" fill-rule="nonzero" d="M 33.0 21.0 C 37.0 35.6, 53.0 35.6, 57.0 21.0"/>
  <circle cx="33.0" cy="21.0" r="1.1" fill="black"/>
  <circle cx="57.0" cy="21.0" r="1.1" fill="black"/>
  <circle cx="100" cy="30" r="30" fill="#FFC10E"/>
  <circle cx="90.1" cy="19.8" r="4.8" fill="#333333"/>
  <circle cx="109.9" cy="19.8" r="4.8" fill="#333333"/>
  <path stroke="black" stroke-width="3.3" fill="transparent" fill-rule="nonzero" d="M 82.0 31.5 C 88.0 53.4, 112.0 53.4, 118.0 31.5"/>
  <circle cx="82.0" cy="31.5" r="1.65" fill="black"/>
  <circle cx="118.0" cy="31.5" r="1.65" fill="black"/>
  <circle cx="175" cy="40" r="40" fill="#FFC10E"/>
  <circle cx="161.8" cy="26.400000000000002" r="6.4" fill="#333333"/>
  <circle cx="188.2" cy="26.400000000000002" r="6.4" fill="#333333"/>
  <path stroke="black" stroke-width="4.4" fill="transparent" fill-rule="nonzero" d="M 151.0 42.0 C 159.0 71.2, 191.0 71.2, 199.0 42.0"/>
  <circle cx="151.0" cy="42.0" r="2.2" fill="black"/>
  <circle cx="199.0" cy="42.0" r="2.2" fill="black"/>
  <circle cx="270" cy="50" r="50" fill="#FFC10E"/>
  <circle cx="253.5" cy="33.0" r="8.0" fill="#333333"/>
  <circle cx="286.5" cy="33.0" r="8.0" fill="#333333"/>
  <path stroke="black" stroke-width="5.5" fill="transparent" fill-rule="nonzero" d="M 240.0 52.5 C 250.0 89.0, 290.0 89.0, 300.0 52.5"/>
  <circle cx="240.0" cy="52.5" r="2.75" fill="black"/>
  <circle cx="300.0" cy="52.5" r="2.75" fill="black"/>
</svg>
