<?xml version='1.0' encoding='UTF-8' standalone='no'?>
<svg xmlns="http://www.w3.org/2000/svg" xmlns:xlink="http://www.w3.org/1999/xlink" version="1.1" width="200" height="200" viewBox="0 0 200 200" style="border:1px solid black">
  <path stroke="green" stroke-width="0.3" fill="transparent" fill-rule="nonzero" d="M38 0 V200"/>
  <path stroke="green" stroke-width="0.3" fill="transparent" fill-rule="nonzero" d="M0 0 h200"/>
  <path stroke="green" stroke-width="0.3" fill="transparent" fill-rule="nonzero" d="M0 40 h200"/>
  <path stroke="green" stroke-width="0.3" fill="transparent" fill-rule="nonzero" d="M0 80 h200"/>
  <path stroke="green" stroke-width="0.3" fill="transparent" fill-rule="nonzero" d="M0 120 h200"/>
  <path stroke="green" stroke-width="0.3" fill="transparent" fill-rule="nonzero" d="M0 160 h200"/>
  <text x="2" y="20" fill="black" white-space="pre" font-family="Consolas" font-size="5px" font-style="normal" font-variant="normal">Translation:</text>
  <path stroke="None" stroke-width="None" fill="green" fill-rule="nonzero" d="M 63.0 2.0 L 68.9 11.9 80.1 14.4 72.5 23.1 73.6 34.6 63.0 30.0 52.4 34.6 53.5 23.1 45.9 14.4 57.1 11.9 Z"/>
  <path stroke="None" stroke-width="None" fill="green" fill-rule="nonzero" d="M 144.0 2.0 L 149.9 11.9 161.1 14.4 153.5 23.1 154.6 34.6 144.0 30.0 133.4 34.6 134.5 23.1 126.9 14.4 138.1 11.9 Z"/>
  <text x="2" y="60" fill="black" white-space="pre" font-family="Consolas" font-size="5px" font-style="normal" font-variant="normal">Rotation:</text>
  <path stroke="None" stroke-width="None" fill="green" fill-rule="nonzero" d="M 63.0 42.0 L 68.9 51.9 80.1 54.4 72.5 63.1 73.6 74.6 63.0 70.0 52.4 74.6 53.5 63.1 45.9 54.4 57.1 51.9 Z"/>
  <path stroke="None" stroke-width="None" fill="green" fill-rule="nonzero" d="M 153.0 44.4 L 153.1 55.9 161.6 63.7 150.7 67.4 145.9 77.9 139.0 68.7 127.6 67.3 134.2 57.9 132.0 46.6 143.0 50.1 Z"/>
  <text x="2" y="100" fill="black" white-space="pre" font-family="Consolas" font-size="5px" font-style="normal" font-variant="normal">Zoom:</text>
  <path stroke="None" stroke-width="None" fill="green" fill-rule="nonzero" d="M 63.0 82.0 L 68.9 91.9 80.1 94.4 72.5 103.1 73.6 114.6 63.0 110.0 52.4 114.6 53.5 103.1 45.9 94.4 57.1 91.9 Z"/>
  <path stroke="None" stroke-width="None" fill="green" fill-rule="nonzero" d="M 144.0 87.4 L 148.1 94.3 156.0 96.1 150.7 102.2 151.4 110.2 144.0 107.0 136.6 110.2 137.3 102.2 132.0 96.1 139.9 94.3 Z"/>
  <text x="2" y="140" fill="black" white-space="pre" font-family="Consolas" font-size="5px" font-style="normal" font-variant="normal">Shear:</text>
  <path stroke="None" stroke-width="None" fill="green" fill-rule="nonzero" d="M 63.0 122.0 L 68.9 131.9 80.1 134.4 72.5 143.1 73.6 154.6 63.0 150.0 52.4 154.6 53.5 143.1 45.9 134.4 57.1 131.9 Z"/>
  <path stroke="None" stroke-width="None" fill="green" fill-rule="nonzero" d="M 131.4 122.0 L 144.2 131.9 157.2 134.4 155.7 143.1 164.8 154.6 151.0 150.0 143.6 154.6 136.7 143.1 123.0 134.4 132.5 131.9 Z"/>
  <text x="2" y="180" fill="black" white-space="pre" font-family="Consolas" font-size="5px" font-style="normal" font-variant="normal">Reflection:</text>
  <path stroke="None" stroke-width="None" fill="green" fill-rule="nonzero" d="M 63.0 162.0 L 68.9 171.9 80.1 174.4 72.5 183.1 73.6 194.6 63.0 190.0 52.4 194.6 53.5 183.1 45.9 174.4 57.1 171.9 Z"/>
  <path stroke="None" stroke-width="None" fill="green" fill-rule="nonzero" d="M 144.0 198.0 L 149.9 188.1 161.1 185.6 153.5 176.9 154.6 165.4 144.0 170.0 133.4 165.4 134.5 176.9 126.9 185.6 138.1 188.1 Z"/>
</svg>
