<?xml version='1.0' encoding='ASCII' standalone='no'?>
<svg xmlns="http://www.w3.org/2000/svg" xmlns:xlink="http://www.w3.org/1999/xlink" version="1.1" width="200" height="200" viewBox="0 0 200 200" style="border:1px solid black;background-color:#eeeeee">
  <path stroke="green" stroke-width="0.2" fill="transparent" fill-rule="nonzero" d="M0 0 V200"/>
  <path stroke="green" stroke-width="0.2" fill="transparent" fill-rule="nonzero" d="M0 0 H200"/>
  <path stroke="green" stroke-width="0.2" fill="transparent" fill-rule="nonzero" d="M20 0 V200"/>
  <path stroke="green" stroke-width="0.2" fill="transparent" fill-rule="nonzero" d="M0 20 H200"/>
  <path stroke="green" stroke-width="0.2" fill="transparent" fill-rule="nonzero" d="M40 0 V200"/>
  <path stroke="green" stroke-width="0.2" fill="transparent" fill-rule="nonzero" d="M0 40 H200"/>
  <path stroke="green" stroke-width="0.2" fill="transparent" fill-rule="nonzero" d="M60 0 V200"/>
  <path stroke="green" stroke-width="0.2" fill="transparent" fill-rule="nonzero" d="M0 60 H200"/>
  <path stroke="green" stroke-width="0.2" fill="transparent" fill-rule="nonzero" d="M80 0 V200"/>
  <path stroke="green" stroke-width="0.2" fill="transparent" fill-rule="nonzero" d="M0 80 H200"/>
  <path stroke="green" stroke-width="0.2" fill="transparent" fill-rule="nonzero" d="M100 0 V200"/>
  <path stroke="green" stroke-width="0.2" fill="transparent" fill-rule="nonzero" d="M0 100 H200"/>
  <path stroke="green" stroke-width="0.2" fill="transparent" fill-rule="nonzero" d="M120 0 V200"/>
  <path stroke="green" stroke-width="0.2" fill="transparent" fill-rule="nonzero" d="M0 120 H200"/>
  <path stroke="green" stroke-width="0.2" fill="transparent" fill-rule="nonzero" d="M140 0 V200"/>
  <path stroke="green" stroke-width="0.2" fill="transparent" fill-rule="nonzero" d="M0 140 H200"/>
  <path stroke="green" stroke-width="0.2" fill="transparent" fill-rule="nonzero" d="M160 0 V200"/>
  <path stroke="green" stroke-width="0.2" fill="transparent" fill-rule="nonzero" d="M0 160 H200"/>
  <path stroke="green" stroke-width="0.2" fill="transparent" fill-rule="nonzero" d="M180 0 V200"/>
  <path stroke="green" stroke-width="0.2" fill="transparent" fill-rule="nonzero" d="M0 180 H200"/>
  <path stroke="green" stroke-width="0.2" fill="transparent" fill-rule="nonzero" d="M200 0 V200"/>
  <path stroke="green" stroke-width="0.2" fill="transparent" fill-rule="nonzero" d="M0 200 H200"/>
  <path stroke="green" stroke-width="0.6" fill="transparent" fill-rule="nonzero" d="M 100.0 30.0 L 117.6 75.7 166.6 78.4 128.5 109.3 141.1 156.6 100.0 130.0 58.9 156.6 71.5 109.3 33.4 78.4 82.4 75.7 Z"/>
</svg>
