<?xml version='1.0' encoding='UTF-8' standalone='no'?>
<svg xmlns="http://www.w3.org/2000/svg" xmlns:xlink="http://www.w3.org/1999/xlink" version="1.1" viewBox="0 0 100 100">
  <rect x="0" y="0" width="100" height="100" fill="none" stroke="black" stroke-width="1" id="border" opacity="0.8"/>
  <path d="M 50.0 50.0 L 50.0 50.0 50.0 50.0 50.0 50.0 50.0 50.0 50.0 50.0 50.0 50.0 50.0 50.0 50.0 50.0 50.0 50.0 Z" stroke="#ff0024" stroke-width="0.4" fill="transparent"/>
  <path d="M 50.0 49.9 L 50.0 50.0 50.1 50.0 50.0 50.0 50.0 50.1 50.0 50.0 50.0 50.1 50.0 50.0 49.9 50.0 50.0 50.0 Z" stroke="#ff00e4" stroke-width="0.4" fill="transparent"/>
  <path d="M 50.0 49.7 L 50.1 49.9 50.3 49.9 50.2 50.1 50.2 50.2 50.0 50.2 49.8 50.2 49.8 50.1 49.7 49.9 49.9 49.9 Z" stroke="#00ffe0" stroke-width="0.4" fill="transparent"/>
  <path d="M 50.0 49.4 L 50.2 49.7 50.6 49.8 50.4 50.1 50.4 50.5 50.0 50.4 49.6 50.5 49.6 50.1 49.4 49.8 49.8 49.7 Z" stroke="#6000ff" stroke-width="0.4" fill="transparent"/>
  <path d="M 50.0 48.9 L 50.4 49.4 51.0 49.7 50.7 50.2 50.6 50.9 50.0 50.7 49.4 50.9 49.3 50.2 49.0 49.7 49.6 49.4 Z" stroke="#1500ff" stroke-width="0.4" fill="transparent"/>
  <path d="M 50.0 48.3 L 50.7 49.1 51.6 49.5 51.1 50.3 51.0 51.3 50.0 51.1 49.0 51.3 48.9 50.3 48.4 49.5 49.3 49.1 Z" stroke="#004bff" stroke-width="0.4" fill="transparent"/>
  <path d="M 50.0 47.6 L 50.9 48.7 52.3 49.3 51.5 50.5 51.4 51.9 50.0 51.6 48.6 51.9 48.5 50.5 47.7 49.3 49.1 48.7 Z" stroke="#00ff75" stroke-width="0.4" fill="transparent"/>
  <path d="M 50.0 46.7 L 51.3 48.2 53.1 49.0 52.1 50.7 51.9 52.6 50.0 52.2 48.1 52.6 47.9 50.7 46.9 49.0 48.7 48.2 Z" stroke="#96ff00" stroke-width="0.4" fill="transparent"/>
  <path d="M 50.0 45.7 L 51.7 47.7 54.1 48.7 52.7 50.9 52.5 53.5 50.0 52.8 47.5 53.5 47.3 50.9 45.9 48.7 48.3 47.7 Z" stroke="#ff9900" stroke-width="0.4" fill="transparent"/>
  <path d="M 50.0 44.6 L 52.1 47.1 55.1 48.3 53.4 51.1 53.2 54.4 50.0 53.6 46.8 54.4 46.6 51.1 44.9 48.3 47.9 47.1 Z" stroke="#ff6d00" stroke-width="0.4" fill="transparent"/>
  <path d="M 50.0 43.3 L 52.6 46.4 56.3 47.9 54.2 51.4 53.9 55.4 50.0 54.4 46.1 55.4 45.8 51.4 43.7 47.9 47.4 46.4 Z" stroke="#0037ff" stroke-width="0.4" fill="transparent"/>
  <path d="M 50.0 41.9 L 53.2 45.6 57.7 47.5 55.1 51.7 54.7 56.5 50.0 55.4 45.3 56.5 44.9 51.7 42.3 47.5 46.8 45.6 Z" stroke="#ff0001" stroke-width="0.4" fill="transparent"/>
  <path d="M 50.0 40.4 L 53.8 44.8 59.1 47.0 56.1 52.0 55.6 57.8 50.0 56.4 44.4 57.8 43.9 52.0 40.9 47.0 46.2 44.8 Z" stroke="#008cff" stroke-width="0.4" fill="transparent"/>
  <path d="M 50.0 38.7 L 54.4 43.9 60.7 46.5 57.1 52.3 56.6 59.1 50.0 57.5 43.4 59.1 42.9 52.3 39.3 46.5 45.6 43.9 Z" stroke="#00ffa8" stroke-width="0.4" fill="transparent"/>
  <path d="M 50.0 36.9 L 55.1 43.0 62.4 46.0 58.3 52.7 57.7 60.6 50.0 58.7 42.3 60.6 41.7 52.7 37.6 46.0 44.9 43.0 Z" stroke="#ff0000" stroke-width="0.4" fill="transparent"/>
  <path d="M 50.0 35.0 L 55.9 41.9 64.3 45.4 59.5 53.1 58.8 62.1 50.0 60.0 41.2 62.1 40.5 53.1 35.7 45.4 44.1 41.9 Z" stroke="#ff007b" stroke-width="0.4" fill="transparent"/>
  <path d="M 50.0 32.9 L 56.7 40.8 66.2 44.7 60.8 53.5 60.0 63.8 50.0 61.4 40.0 63.8 39.2 53.5 33.8 44.7 43.3 40.8 Z" stroke="#67ff00" stroke-width="0.4" fill="transparent"/>
  <path d="M 50.0 30.7 L 57.5 39.6 68.3 44.0 62.2 54.0 61.3 65.6 50.0 62.8 38.7 65.6 37.8 54.0 31.7 44.0 42.5 39.6 Z" stroke="#1500ff" stroke-width="0.4" fill="transparent"/>
  <path d="M 50.0 28.4 L 58.5 38.4 70.5 43.3 63.7 54.4 62.7 67.5 50.0 64.4 37.3 67.5 36.3 54.4 29.5 43.3 41.5 38.4 Z" stroke="#ff0087" stroke-width="0.4" fill="transparent"/>
  <path d="M 50.0 25.9 L 59.4 37.0 72.9 42.6 65.3 55.0 64.1 69.5 50.0 66.0 35.9 69.5 34.7 55.0 27.1 42.6 40.6 37.0 Z" stroke="#8bff00" stroke-width="0.4" fill="transparent"/>
  <path d="M 50.0 23.3 L 60.4 35.6 75.4 41.8 66.9 55.5 65.7 71.6 50.0 67.8 34.3 71.6 33.1 55.5 24.6 41.8 39.6 35.6 Z" stroke="#001aff" stroke-width="0.4" fill="transparent"/>
  <path d="M 50.0 20.6 L 61.5 34.1 78.0 40.9 68.6 56.1 67.3 73.8 50.0 69.6 32.7 73.8 31.4 56.1 22.0 40.9 38.5 34.1 Z" stroke="#cf00ff" stroke-width="0.4" fill="transparent"/>
  <path d="M 50.0 17.7 L 62.6 32.6 80.7 40.0 70.5 56.6 69.0 76.1 50.0 71.5 31.0 76.1 29.5 56.6 19.3 40.0 37.4 32.6 Z" stroke="#00a3ff" stroke-width="0.4" fill="transparent"/>
  <path d="M 50.0 14.7 L 63.8 31.0 83.5 39.1 72.4 57.3 70.7 78.5 50.0 73.5 29.3 78.5 27.6 57.3 16.5 39.1 36.2 31.0 Z" stroke="#00ff48" stroke-width="0.4" fill="transparent"/>
  <path d="M 50.0 11.6 L 65.0 29.3 86.5 38.1 74.3 57.9 72.6 81.1 50.0 75.6 27.4 81.1 25.7 57.9 13.5 38.1 35.0 29.3 Z" stroke="#0080ff" stroke-width="0.4" fill="transparent"/>
  <path d="M 50.0 8.3 L 66.3 27.5 89.6 37.1 76.4 58.6 74.5 83.7 50.0 77.8 25.5 83.7 23.6 58.6 10.4 37.1 33.7 27.5 Z" stroke="#00b9ff" stroke-width="0.4" fill="transparent"/>
  <path d="M 50.0 4.9 L 67.7 25.7 92.9 36.1 78.6 59.3 76.5 86.5 50.0 80.0 23.5 86.5 21.4 59.3 7.1 36.1 32.3 25.7 Z" stroke="#ff6c00" stroke-width="0.4" fill="transparent"/>
  <path d="M 50.0 1.4 L 69.0 23.8 96.2 35.0 80.8 60.0 78.6 89.3 50.0 82.4 21.4 89.3 19.2 60.0 3.8 35.0 31.0 23.8 Z" stroke="#4900ff" stroke-width="0.4" fill="transparent"/>
</svg>
