<?xml version='1.0' encoding='UTF-8' standalone='no'?>
<svg xmlns="http://www.w3.org/2000/svg" xmlns:xlink="http://www.w3.org/1999/xlink" version="1.1" width="100%" viewBox="0 0 200 200">
  <rect x="0" y="0" width="200" height="200" fill="none" stroke="black" stroke-width="1" id="border" opacity="0.8"/>
  <path d="M 104.0 101.1 L  104.2 101.2 104.5 101.3 104.7 101.3 104.9 101.4 105.2 101.5 105.4 101.5 105.6 101.5 105.8 101.6 106.1 101.6 106.3 101.6 106.5 101.5 106.8 101.5 107.0 101.4 107.2 101.4 107.5 101.3 107.7 101.2 107.9 101.1 108.2 101.0 108.4 100.8 108.6 100.7 108.8 100.5 109.1 100.3 109.3 100.1 109.5 99.9 109.8 99.7 110.0 99.5 110.2 99.2 110.5 99.0 110.7 98.8 110.9 98.5 111.1 98.3 111.4 98.0 111.6 97.8 111.8 97.6 112.1 97.3 112.3 97.1 112.5 96.9 112.8 96.7 113.0 96.6 113.2 96.4 113.5 96.3 113.7 96.1 113.9 96.0 114.1 96.0 114.4 95.9 114.6 95.9 114.8 95.9 115.1 95.9 115.3 96.0 115.5 96.0 115.8 96.1 116.0 96.3 116.2 96.4 116.5 96.6 116.7 96.8 116.9 97.1 117.1 97.4 117.4 97.7 117.6 98.0 117.8 98.3 118.1 98.7 118.3 99.0 118.5 99.4 118.8 99.8 119.0 100.2 119.2 100.7 119.4 101.1 119.7 101.5 119.9 102.0 120.1 102.4 120.4 102.8 120.6 103.2 120.8 103.7 121.1 104.0 121.3 104.4 121.5 104.8 121.8 105.1 122.0 105.4 122.2 105.7 122.4 106.0 122.7 106.2 122.9 106.4 123.1 106.5 123.4 106.7 123.6 106.7 123.8 106.8 124.1 106.8 124.3 106.7 124.5 106.7 124.8 106.5 125.0 106.4 125.2 106.1 125.4 105.9 125.7 105.6 125.9 105.3 126.1 104.9 126.4 104.5 126.6 104.0 126.8 103.6 127.1 103.1 127.3 102.5 127.5 102.0 127.7 101.4 128.0 100.8 128.2 100.2 128.4 99.5 128.7 98.9 128.9 98.3 129.1 97.7 129.4 97.0 129.6 96.4 129.8 95.8 130.1 95.2 130.3 94.6 130.5 94.1 130.7 93.6 131.0 93.1 131.2 92.6 131.4 92.2 131.7 91.8 131.9 91.5 132.1 91.2 132.4 91.0 132.6 90.8 132.8 90.6 133.1 90.6 133.3 90.5 133.5 90.6 133.7 90.7 134.0 90.8 134.2 91.0 134.4 91.3 134.7 91.6 134.9 92.0 135.1 92.4 135.4 92.9 135.6 93.4 135.8 94.0 136.1 94.6 136.3 95.3 136.5 96.0 136.7 96.7 137.0 97.5 137.2 98.3 137.4 99.1 137.7 99.9 137.9 100.7 138.1 101.5 138.4 102.4 138.6 103.2 138.8 104.0 139.0 104.8 139.3 105.6 139.5 106.4 139.7 107.1 140.0 107.8 140.2 108.5 140.4 109.1 140.7 109.7 140.9 110.2 141.1 110.7 141.4 111.1 141.6 111.4 141.8 111.7 142.0 111.9 142.3 112.1 142.5 112.1 142.7 112.1 143.0 112.1 143.2 111.9 143.4 111.7 143.7 111.4 143.9 111.0 144.1 110.6 144.4 110.1 144.6 109.5 144.8 108.9 145.0 108.2 145.3 107.5 145.5 106.7 145.7 105.8 146.0 104.9 146.2 104.0 146.4 103.1 146.7 102.1 146.9 101.1 147.1 100.0 147.3 99.0 147.6 97.9 147.8 96.9 148.0 95.9 148.3 94.9 148.5 93.9 148.7 92.9 149.0 92.0 149.2 91.1 149.4 90.2 149.7 89.4 149.9 88.7 150.1 88.0 150.3 87.4 150.6 86.8 150.8 86.3 151.0 85.9 151.3 85.6 151.5 85.4 151.7 85.2 152.0 85.2 152.2 85.2 152.4 85.3 152.7 85.5 152.9 85.8 153.1 86.2 153.3 86.6 153.6 87.2 153.8 87.8 154.0 88.5 154.3 89.3 154.5 90.2 154.7 91.1 155.0 92.1 155.2 93.1 155.4 94.2 155.6 95.3 155.9 96.5 156.1 97.7 156.3 98.9 156.6 100.1 156.8 101.4 157.0 102.6 157.3 103.9 157.5 105.1 157.7 106.3 158.0 107.5 158.2 108.6 158.4 109.7 158.6 110.8 158.9 111.8 159.1 112.7 159.3 113.6 159.6 114.4 159.8 115.1 160.0 115.7 160.3 116.3 160.5 116.7 160.7 117.1 161.0 117.3 161.2 117.5 161.4 117.5 161.6 117.5 161.9 117.3 162.1 117.0 162.3 116.7 162.6 116.2 162.8 115.6 163.0 115.0 163.3 114.2 163.5 113.4 163.7 112.4 163.9 111.4 164.2 110.3 164.4 109.2 164.6 107.9 164.9 106.7 165.1 105.3 165.3 104.0 165.6 102.5 165.8 101.1 166.0 99.7 166.3 98.2 166.5 96.8 166.7 95.3 166.9 93.9 167.2 92.5 167.4 91.1 167.6 89.8 167.9 88.5 168.1 87.3 168.3 86.2 168.6 85.1 168.8 84.1 169.0 83.2 169.3 82.4 169.5 81.7 169.7 81.1 169.9 80.6 170.2 80.2 170.4 80.0 170.6 79.8 170.9 79.8 171.1 79.9 171.3 80.1 171.6 80.4 171.8 80.9 172.0 81.4 172.3 82.1 172.5 82.9 172.7 83.8 172.9 84.8 173.2 85.9 173.4 87.1 173.6 88.3 173.9 89.7 174.1 91.1 174.3 92.6 174.6 94.1 174.8 95.7 175.0 97.3 175.2 98.9 175.5 100.6 175.7 102.2 175.9 103.9 176.2 105.5 176.4 107.2 176.6 108.7 176.9 110.3 177.1 111.8 177.3 113.2 177.6 114.6 177.8 115.9 178.0 117.1 178.2 118.2 178.5 119.2 178.7 120.1 178.9 120.9 179.2 121.5 179.4 122.0 179.6 122.5 179.9 122.7 180.1 122.9 180.3 122.9 180.6 122.8 180.8 122.5 181.0 122.1 181.2 121.6 181.5 120.9 181.7 120.1 181.9 119.2 182.2 118.2 182.4 117.0 182.6 115.8 182.9 114.4 183.1 113.0 183.3 111.4 183.5 109.8 183.8 108.2 184.0 106.4 184.2 104.6 184.5 102.8 184.7 101.0 184.9 99.1 185.2 97.2 185.4 95.4 185.6 93.5 185.9 91.7 186.1 90.0 186.3 88.2 186.5 86.6 186.8 85.0 187.0 83.5 187.2 82.0 187.5 80.7 187.7 79.5 187.9 78.4 188.2 77.4 188.4 76.6 188.6 75.8 188.9 75.3 189.1 74.8 189.3 74.6 189.5 74.4 189.8 74.4 190.0 74.6 190.2 74.9 190.5 75.4 190.7 76.0 190.9 76.8 191.2 77.7 191.4 78.7 191.6 79.9 191.8 81.2 192.1 82.6 192.3 84.1 192.5 85.8 192.8 87.5 193.0 89.3 193.2 91.2 193.5 93.1 193.7 95.1 193.9 97.1 194.2 99.2 194.4 101.2 194.6 103.3 194.8 105.4 195.1 107.4 195.3 109.4 195.5 111.4 195.8 113.3 196.0 115.1" stroke="#7fff00" stroke-width="0.6" fill="transparent"/>
  <path d="M 104.0 101.1 L  104.2 101.2 104.5 101.3 104.7 101.3 104.9 101.4 105.2 101.5 105.4 101.5 105.6 101.5 105.8 101.6 106.1 101.6 106.3 101.6 106.5 101.5 106.8 101.5 107.0 101.4 107.2 101.4 107.5 101.3 107.7 101.2 107.9 101.1 108.2 101.0 108.4 100.8 108.6 100.7 108.8 100.5 109.1 100.3 109.3 100.1 109.5 99.9 109.8 99.7 110.0 99.5 110.2 99.2 110.5 99.0 110.7 98.8 110.9 98.5 111.1 98.3 111.4 98.0 111.6 97.8 111.8 97.6 112.1 97.3 112.3 97.1 112.5 96.9 112.8 96.7 113.0 96.6 113.2 96.4 113.5 96.3 113.7 96.1 113.9 96.0 114.1 96.0 114.4 95.9 114.6 95.9 114.8 95.9 115.1 95.9 115.3 96.0 115.5 96.0 115.8 96.1 116.0 96.3 116.2 96.4 116.5 96.6 116.7 96.8 116.9 97.1 117.1 97.4 117.4 97.7 117.6 98.0 117.8 98.3 118.1 98.7 118.3 99.0 118.5 99.4 118.8 99.8 119.0 100.2 119.2 100.7 119.4 101.1 119.7 101.5 119.9 102.0 120.1 102.4 120.4 102.8 120.6 103.2 120.8 103.7 121.1 104.0 121.3 104.4 121.5 104.8 121.8 105.1 122.0 105.4 122.2 105.7 122.4 106.0 122.7 106.2 122.9 106.4 123.1 106.5 123.4 106.7 123.6 106.7 123.8 106.8 124.1 106.8 124.3 106.7 124.5 106.7 124.8 106.5 125.0 106.4 125.2 106.1 125.4 105.9 125.7 105.6 125.9 105.3 126.1 104.9 126.4 104.5 126.6 104.0 126.8 103.6 127.1 103.1 127.3 102.5 127.5 102.0 127.7 101.4 128.0 100.8 128.2 100.2 128.4 99.5 128.7 98.9 128.9 98.3 129.1 97.7 129.4 97.0 129.6 96.4 129.8 95.8 130.1 95.2 130.3 94.6 130.5 94.1 130.7 93.6 131.0 93.1 131.2 92.6 131.4 92.2 131.7 91.8 131.9 91.5 132.1 91.2 132.4 91.0 132.6 90.8 132.8 90.6 133.1 90.6 133.3 90.5 133.5 90.6 133.7 90.7 134.0 90.8 134.2 91.0 134.4 91.3 134.7 91.6 134.9 92.0 135.1 92.4 135.4 92.9 135.6 93.4 135.8 94.0 136.1 94.6 136.3 95.3 136.5 96.0 136.7 96.7 137.0 97.5 137.2 98.3 137.4 99.1 137.7 99.9 137.9 100.7 138.1 101.5 138.4 102.4 138.6 103.2 138.8 104.0 139.0 104.8 139.3 105.6 139.5 106.4 139.7 107.1 140.0 107.8 140.2 108.5 140.4 109.1 140.7 109.7 140.9 110.2 141.1 110.7 141.4 111.1 141.6 111.4 141.8 111.7 142.0 111.9 142.3 112.1 142.5 112.1 142.7 112.1 143.0 112.1 143.2 111.9 143.4 111.7 143.7 111.4 143.9 111.0 144.1 110.6 144.4 110.1 144.6 109.5 144.8 108.9 145.0 108.2 145.3 107.5 145.5 106.7 145.7 105.8 146.0 104.9 146.2 104.0 146.4 103.1 146.7 102.1 146.9 101.1 147.1 100.0 147.3 99.0 147.6 97.9 147.8 96.9 148.0 95.9 148.3 94.9 148.5 93.9 148.7 92.9 149.0 92.0 149.2 91.1 149.4 90.2 149.7 89.4 149.9 88.7 150.1 88.0 150.3 87.4 150.6 86.8 150.8 86.3 151.0 85.9 151.3 85.6 151.5 85.4 151.7 85.2 152.0 85.2 152.2 85.2 152.4 85.3 152.7 85.5 152.9 85.8 153.1 86.2 153.3 86.6 153.6 87.2 153.8 87.8 154.0 88.5 154.3 89.3 154.5 90.2 154.7 91.1 155.0 92.1 155.2 93.1 155.4 94.2 155.6 95.3 155.9 96.5 156.1 97.7 156.3 98.9 156.6 100.1 156.8 101.4 157.0 102.6 157.3 103.9 157.5 105.1 157.7 106.3 158.0 107.5 158.2 108.6 158.4 109.7 158.6 110.8 158.9 111.8 159.1 112.7 159.3 113.6 159.6 114.4 159.8 115.1 160.0 115.7 160.3 116.3 160.5 116.7 160.7 117.1 161.0 117.3 161.2 117.5 161.4 117.5 161.6 117.5 161.9 117.3 162.1 117.0 162.3 116.7 162.6 116.2 162.8 115.6 163.0 115.0 163.3 114.2 163.5 113.4 163.7 112.4 163.9 111.4 164.2 110.3 164.4 109.2 164.6 107.9 164.9 106.7 165.1 105.3 165.3 104.0 165.6 102.5 165.8 101.1 166.0 99.7 166.3 98.2 166.5 96.8 166.7 95.3 166.9 93.9 167.2 92.5 167.4 91.1 167.6 89.8 167.9 88.5 168.1 87.3 168.3 86.2 168.6 85.1 168.8 84.1 169.0 83.2 169.3 82.4 169.5 81.7 169.7 81.1 169.9 80.6 170.2 80.2 170.4 80.0 170.6 79.8 170.9 79.8 171.1 79.9 171.3 80.1 171.6 80.4 171.8 80.9 172.0 81.4 172.3 82.1 172.5 82.9 172.7 83.8 172.9 84.8 173.2 85.9 173.4 87.1 173.6 88.3 173.9 89.7 174.1 91.1 174.3 92.6 174.6 94.1 174.8 95.7 175.0 97.3 175.2 98.9 175.5 100.6 175.7 102.2 175.9 103.9 176.2 105.5 176.4 107.2 176.6 108.7 176.9 110.3 177.1 111.8 177.3 113.2 177.6 114.6 177.8 115.9 178.0 117.1 178.2 118.2 178.5 119.2 178.7 120.1 178.9 120.9 179.2 121.5 179.4 122.0 179.6 122.5 179.9 122.7 180.1 122.9 180.3 122.9 180.6 122.8 180.8 122.5 181.0 122.1 181.2 121.6 181.5 120.9 181.7 120.1 181.9 119.2 182.2 118.2 182.4 117.0 182.6 115.8 182.9 114.4 183.1 113.0 183.3 111.4 183.5 109.8 183.8 108.2 184.0 106.4 184.2 104.6 184.5 102.8 184.7 101.0 184.9 99.1 185.2 97.2 185.4 95.4 185.6 93.5 185.9 91.7 186.1 90.0 186.3 88.2 186.5 86.6 186.8 85.0 187.0 83.5 187.2 82.0 187.5 80.7 187.7 79.5 187.9 78.4 188.2 77.4 188.4 76.6 188.6 75.8 188.9 75.3 189.1 74.8 189.3 74.6 189.5 74.4 189.8 74.4 190.0 74.6 190.2 74.9 190.5 75.4 190.7 76.0 190.9 76.8 191.2 77.7 191.4 78.7 191.6 79.9 191.8 81.2 192.1 82.6 192.3 84.1 192.5 85.8 192.8 87.5 193.0 89.3 193.2 91.2 193.5 93.1 193.7 95.1 193.9 97.1 194.2 99.2 194.4 101.2 194.6 103.3 194.8 105.4 195.1 107.4 195.3 109.4 195.5 111.4 195.8 113.3 196.0 115.1" stroke="#ffd500" stroke-width="0.6" fill="transparent"/>
  <path d="M 102.6 103.2 L  102.7 103.5 102.9 103.6 103.0 103.8 103.2 104.0 103.3 104.2 103.5 104.4 103.6 104.5 103.8 104.7 104.0 104.8 104.2 105.0 104.4 105.1 104.6 105.2 104.8 105.3 105.0 105.4 105.3 105.4 105.5 105.5 105.8 105.5 106.0 105.6 106.3 105.6 106.6 105.6 106.9 105.6 107.2 105.6 107.5 105.6 107.8 105.5 108.1 105.5 108.4 105.4 108.7 105.4 109.1 105.3 109.4 105.3 109.7 105.2 110.0 105.2 110.4 105.1 110.7 105.0 111.0 105.0 111.3 104.9 111.6 104.9 111.9 104.9 112.2 104.9 112.5 104.8 112.8 104.9 113.1 104.9 113.3 104.9 113.6 105.0 113.8 105.0 114.0 105.1 114.2 105.3 114.4 105.4 114.6 105.5 114.8 105.7 114.9 105.9 115.0 106.1 115.1 106.4 115.2 106.7 115.3 106.9 115.3 107.3 115.4 107.6 115.4 107.9 115.4 108.3 115.4 108.7 115.4 109.1 115.4 109.5 115.4 110.0 115.3 110.4 115.3 110.9 115.2 111.4 115.2 111.8 115.1 112.3 115.0 112.8 115.0 113.3 114.9 113.8 114.8 114.3 114.8 114.7 114.7 115.2 114.7 115.7 114.6 116.1 114.6 116.5 114.6 116.9 114.6 117.3 114.6 117.7 114.6 118.0 114.7 118.3 114.8 118.6 114.9 118.9 115.0 119.1 115.1 119.3 115.3 119.5 115.5 119.6 115.7 119.7 115.9 119.8 116.2 119.8 116.5 119.8 116.8 119.8 117.1 119.7 117.5 119.6 117.9 119.5 118.3 119.3 118.7 119.1 119.1 118.9 119.6 118.6 120.1 118.4 120.6 118.1 121.1 117.8 121.6 117.4 122.2 117.1 122.7 116.7 123.3 116.4 123.8 116.0 124.4 115.6 125.0 115.2 125.5 114.8 126.1 114.5 126.6 114.1 127.1 113.8 127.7 113.5 128.2 113.1 128.7 112.9 129.1 112.6 129.6 112.4 130.0 112.2 130.4 112.0 130.8 111.9 131.2 111.8 131.5 111.7 131.8 111.7 132.1 111.7 132.3 111.8 132.5 111.9 132.7 112.1 132.8 112.3 132.9 112.5 132.9 112.8 133.0 113.2 133.0 113.6 132.9 114.0 132.9 114.5 132.8 115.0 132.7 115.6 132.5 116.2 132.3 116.8 132.1 117.5 131.9 118.2 131.7 118.9 131.4 119.7 131.1 120.5 130.8 121.2 130.5 122.0 130.2 122.8 129.9 123.7 129.6 124.5 129.3 125.3 129.0 126.1 128.7 126.9 128.5 127.6 128.2 128.4 128.0 129.1 127.7 129.8 127.5 130.5 127.3 131.1 127.2 131.7 127.1 132.3 127.0 132.8 126.9 133.3 126.9 133.7 126.9 134.1 127.0 134.4 127.1 134.6 127.3 134.8 127.4 134.9 127.7 135.0 127.9 135.0 128.3 135.0 128.6 134.9 129.0 134.7 129.5 134.5 129.9 134.3 130.5 133.9 131.0 133.6 131.6 133.1 132.2 132.7 132.9 132.2 133.6 131.6 134.3 131.0 135.0 130.4 135.8 129.8 136.5 129.1 137.3 128.4 138.1 127.7 138.9 127.0 139.7 126.3 140.5 125.6 141.3 124.9 142.1 124.2 142.8 123.5 143.6 122.9 144.3 122.3 145.1 121.7 145.7 121.1 146.4 120.6 147.0 120.1 147.6 119.7 148.2 119.4 148.7 119.1 149.1 118.8 149.6 118.6 149.9 118.5 150.3 118.4 150.5 118.5 150.8 118.5 150.9 118.7 151.0 118.9 151.1 119.2 151.1 119.6 151.1 120.0 151.0 120.5 150.9 121.1 150.7 121.8 150.5 122.5 150.2 123.2 149.9 124.1 149.5 124.9 149.1 125.9 148.7 126.8 148.3 127.9 147.8 128.9 147.3 130.0 146.8 131.1 146.2 132.2 145.7 133.4 145.1 134.5 144.6 135.6 144.1 136.8 143.5 137.9 143.0 139.0 142.5 140.1 142.0 141.2 141.5 142.2 141.1 143.2 140.7 144.1 140.3 145.0 140.0 145.9 139.7 146.7 139.5 147.4 139.3 148.0 139.2 148.6 139.1 149.1 139.1 149.5 139.1 149.8 139.2 150.1 139.4 150.3 139.6 150.4 139.9 150.4 140.2 150.3 140.6 150.1 141.1 149.9 141.6 149.6 142.2 149.2 142.8 148.7 143.5 148.1 144.2 147.5 145.0 146.8 145.9 146.1 146.7 145.3 147.6 144.4 148.6 143.5 149.5 142.6 150.5 141.6 151.5 140.6 152.6 139.6 153.6 138.5 154.6 137.5 155.7 136.5 156.7 135.4 157.7 134.4 158.8 133.4 159.7 132.4 160.7 131.5 161.6 130.6 162.5 129.8 163.4 129.0 164.2 128.3 165.0 127.6 165.7 127.0 166.4 126.5 167.0 126.1 167.5 125.7 168.0 125.4 168.4 125.3 168.7 125.2 169.0 125.2 169.2 125.3 169.3 125.5 169.4 125.8 169.4 126.2 169.3 126.7 169.2 127.3 169.0 128.0 168.7 128.8 168.4 129.6 168.0 130.6 167.5 131.6 167.0 132.7 166.4 133.8 165.8 135.1 165.2 136.3 164.5 137.7 163.8 139.1 163.0 140.5 162.3 141.9 161.5 143.4 160.7 144.8 159.9 146.3 159.1 147.8 158.4 149.3 157.6 150.7 156.9 152.1 156.1 153.5 155.4 154.9 154.8 156.1 154.2 157.4 153.6 158.6 153.1 159.7 152.6 160.7 152.2 161.6 151.9 162.5 151.6 163.3 151.4 163.9 151.3 164.5 151.2 165.0 151.2 165.3 151.3 165.6 151.5 165.7 151.8 165.8 152.1 165.7 152.5 165.5 153.0 165.2 153.6 164.8 154.3 164.3 155.0 163.7 155.8 163.0 156.6 162.2 157.6 161.3 158.6 160.4 159.6 159.3 160.7 158.2 161.8 157.1 163.0 155.8 164.2 154.6 165.4 153.3 166.7 151.9 168.0 150.6 169.2 149.2 170.5 147.8 171.8 146.5 173.1 145.1 174.3 143.8 175.5 142.5 176.7 141.2 177.9 140.0 179.0 138.8 180.1 137.8 181.1 136.7 182.1 135.8 183.0 135.0 183.8 134.2 184.6 133.5 185.3 133.0 185.9 132.5 186.4 132.2 186.9 132.0 187.2 131.9 187.5 131.9 187.7 132.1 187.7 132.4 187.7 132.7 187.7 133.3 187.5 133.9 187.2 134.7 186.9 135.5 186.4 136.5 185.9 137.6 185.4 138.8 184.7 140.0 184.0 141.4 183.2 142.9 182.4 144.4 181.5 146.0 180.6 147.7 179.7 149.4 178.7 151.1 177.7 152.9 176.7 154.7 175.6 156.5 174.6 158.3 173.6 160.1 172.6 161.9 171.6 163.6 170.6 165.4 169.7 167.0 168.8 168.7" stroke="#ffb600" stroke-width="0.6" fill="transparent"/>
  <path d="M 100.2 104.1 L  100.2 104.4 100.2 104.6 100.2 104.9 100.2 105.1 100.2 105.4 100.2 105.6 100.3 105.8 100.3 106.0 100.4 106.3 100.5 106.5 100.6 106.7 100.7 106.9 100.8 107.1 100.9 107.3 101.1 107.5 101.2 107.7 101.4 107.9 101.6 108.0 101.8 108.2 102.0 108.4 102.3 108.6 102.5 108.7 102.8 108.9 103.0 109.0 103.3 109.2 103.6 109.3 103.9 109.5 104.2 109.6 104.5 109.8 104.8 109.9 105.1 110.1 105.4 110.2 105.7 110.4 106.0 110.5 106.3 110.7 106.5 110.8 106.8 111.0 107.1 111.1 107.3 111.3 107.5 111.5 107.7 111.6 107.9 111.8 108.1 112.0 108.2 112.2 108.3 112.4 108.4 112.6 108.5 112.8 108.6 113.1 108.6 113.3 108.6 113.5 108.5 113.8 108.5 114.1 108.4 114.3 108.3 114.6 108.2 114.9 108.0 115.2 107.8 115.5 107.6 115.8 107.4 116.1 107.1 116.4 106.9 116.8 106.6 117.1 106.3 117.4 106.0 117.8 105.6 118.1 105.3 118.5 105.0 118.8 104.6 119.2 104.3 119.5 103.9 119.9 103.6 120.2 103.3 120.6 103.0 120.9 102.7 121.3 102.4 121.6 102.1 121.9 101.9 122.3 101.6 122.6 101.4 122.9 101.3 123.2 101.1 123.5 101.0 123.8 100.9 124.0 100.9 124.3 100.9 124.5 100.9 124.8 101.0 125.0 101.1 125.2 101.3 125.4 101.4 125.6 101.7 125.7 102.0 125.9 102.3 126.0 102.6 126.1 103.0 126.3 103.4 126.4 103.9 126.5 104.4 126.5 104.9 126.6 105.5 126.7 106.0 126.7 106.6 126.8 107.3 126.8 107.9 126.9 108.6 126.9 109.2 126.9 109.9 126.9 110.6 127.0 111.2 127.0 111.9 127.0 112.6 127.0 113.2 127.1 113.9 127.1 114.5 127.1 115.1 127.2 115.6 127.2 116.2 127.3 116.7 127.4 117.1 127.5 117.6 127.6 118.0 127.7 118.3 127.8 118.6 128.0 118.9 128.1 119.0 128.3 119.2 128.5 119.3 128.7 119.3 129.0 119.3 129.2 119.2 129.5 119.1 129.8 118.9 130.1 118.7 130.4 118.4 130.7 118.1 131.1 117.7 131.4 117.3 131.8 116.8 132.2 116.3 132.6 115.7 133.0 115.1 133.5 114.5 133.9 113.8 134.4 113.2 134.8 112.5 135.3 111.8 135.8 111.0 136.3 110.3 136.7 109.6 137.2 108.9 137.7 108.2 138.2 107.5 138.6 106.8 139.1 106.1 139.6 105.5 140.0 104.9 140.4 104.3 140.9 103.8 141.3 103.3 141.7 102.9 142.0 102.5 142.4 102.2 142.8 102.0 143.1 101.8 143.4 101.7 143.7 101.6 143.9 101.6 144.2 101.7 144.4 101.8 144.6 102.0 144.8 102.3 144.9 102.6 145.0 103.1 145.2 103.5 145.2 104.1 145.3 104.7 145.4 105.4 145.4 106.1 145.4 106.9 145.4 107.7 145.3 108.6 145.3 109.5 145.2 110.5 145.2 111.4 145.1 112.5 145.0 113.5 144.9 114.5 144.8 115.6 144.7 116.7 144.6 117.7 144.5 118.8 144.4 119.8 144.3 120.8 144.2 121.8 144.1 122.8 144.1 123.7 144.0 124.6 144.0 125.4 143.9 126.2 143.9 126.9 143.9 127.6 144.0 128.2 144.0 128.7 144.1 129.2 144.2 129.5 144.3 129.8 144.5 130.0 144.6 130.2 144.8 130.2 145.1 130.2 145.3 130.1 145.6 129.8 145.9 129.6 146.2 129.2 146.6 128.7 147.0 128.2 147.4 127.6 147.8 126.9 148.3 126.2 148.8 125.4 149.3 124.5 149.8 123.6 150.4 122.7 150.9 121.7 151.5 120.6 152.1 119.6 152.6 118.5 153.2 117.4 153.8 116.3 154.4 115.1 155.0 114.0 155.7 112.9 156.3 111.8 156.8 110.8 157.4 109.8 158.0 108.8 158.6 107.9 159.1 107.0 159.6 106.2 160.1 105.4 160.6 104.7 161.1 104.1 161.5 103.6 162.0 103.1 162.3 102.8 162.7 102.5 163.0 102.4 163.3 102.3 163.6 102.3 163.8 102.4 164.0 102.7 164.2 103.0 164.3 103.4 164.4 103.9 164.5 104.5 164.6 105.2 164.6 106.0 164.6 106.9 164.5 107.9 164.4 108.9 164.3 110.0 164.2 111.2 164.1 112.4 163.9 113.7 163.8 115.1 163.6 116.4 163.4 117.8 163.1 119.3 162.9 120.7 162.7 122.2 162.5 123.6 162.2 125.1 162.0 126.5 161.8 127.9 161.6 129.3 161.4 130.6 161.2 131.9 161.0 133.1 160.9 134.2 160.7 135.3 160.6 136.3 160.5 137.3 160.5 138.1 160.4 138.9 160.4 139.5 160.5 140.0 160.5 140.5 160.6 140.8 160.8 141.0 160.9 141.1 161.2 141.1 161.4 141.0 161.7 140.7 162.0 140.4 162.4 139.9 162.8 139.3 163.2 138.7 163.6 137.9 164.1 137.0 164.7 136.0 165.2 135.0 165.8 133.9 166.4 132.6 167.1 131.4 167.7 130.0 168.4 128.6 169.1 127.2 169.8 125.8 170.5 124.3 171.2 122.8 172.0 121.3 172.7 119.8 173.4 118.3 174.2 116.8 174.9 115.4 175.6 114.0 176.3 112.6 177.0 111.3 177.6 110.1 178.3 108.9 178.9 107.9 179.5 106.9 180.0 106.0 180.6 105.2 181.1 104.6 181.5 104.0 181.9 103.6 182.3 103.2 182.7 103.1 183.0 103.0 183.2 103.0 183.5 103.2 183.6 103.6 183.8 104.0 183.9 104.6 183.9 105.3 183.9 106.1 183.9 107.0 183.9 108.1 183.8 109.3 183.6 110.5 183.5 111.9 183.3 113.3 183.0 114.9 182.8 116.5 182.5 118.1 182.2 119.8 181.9 121.6 181.6 123.4 181.2 125.2 180.9 127.1 180.5 128.9 180.1 130.8 179.8 132.6 179.4 134.4 179.1 136.2 178.8 137.9 178.5 139.5 178.2 141.1 177.9 142.6 177.6 144.0 177.4 145.4 177.2 146.6 177.1 147.7 176.9 148.7 176.9 149.6 176.8 150.4 176.8 151.0 176.9 151.5 176.9 151.8 177.1 152.0 177.3 152.1 177.5 152.0 177.8 151.7 178.1 151.4 178.4 150.8 178.8 150.2 179.3 149.4 179.8 148.5 180.3 147.4 180.9 146.3 181.5 145.0 182.2 143.6 182.9 142.1 183.6 140.6 184.4 138.9 185.1 137.2 185.9 135.4 186.8 133.6 187.6 131.8 188.4 129.9 189.3 128.0 190.2 126.1 191.0 124.2 191.9 122.3 192.7 120.5 193.6 118.7 194.4 117.0 195.2 115.3 196.0" stroke="#ff004f" stroke-width="0.6" fill="transparent"/>
  <path d="M 97.7 103.5 L  97.6 103.7 97.4 103.9 97.3 104.0 97.1 104.2 97.0 104.5 96.9 104.7 96.8 104.9 96.7 105.1 96.6 105.3 96.6 105.5 96.5 105.7 96.5 106.0 96.5 106.2 96.5 106.4 96.5 106.7 96.5 106.9 96.5 107.2 96.6 107.5 96.6 107.7 96.7 108.0 96.8 108.3 96.9 108.5 97.0 108.8 97.1 109.1 97.3 109.4 97.4 109.7 97.6 110.0 97.7 110.3 97.9 110.5 98.0 110.8 98.2 111.1 98.4 111.4 98.5 111.7 98.7 112.0 98.8 112.3 98.9 112.6 99.1 112.9 99.2 113.1 99.3 113.4 99.3 113.7 99.4 114.0 99.4 114.2 99.5 114.5 99.5 114.7 99.5 114.9 99.4 115.2 99.3 115.4 99.2 115.6 99.1 115.8 99.0 116.0 98.8 116.2 98.6 116.4 98.4 116.5 98.1 116.7 97.8 116.8 97.5 117.0 97.2 117.1 96.9 117.2 96.5 117.4 96.1 117.5 95.7 117.6 95.3 117.7 94.8 117.8 94.4 117.9 93.9 118.0 93.4 118.1 92.9 118.2 92.5 118.2 92.0 118.3 91.5 118.4 91.0 118.5 90.5 118.6 90.1 118.7 89.6 118.8 89.2 118.9 88.8 119.0 88.4 119.1 88.0 119.2 87.7 119.4 87.4 119.5 87.1 119.7 86.8 119.8 86.6 120.0 86.4 120.2 86.3 120.4 86.2 120.6 86.1 120.8 86.1 121.0 86.1 121.3 86.1 121.5 86.2 121.8 86.4 122.1 86.5 122.4 86.7 122.7 87.0 123.0 87.3 123.3 87.6 123.7 87.9 124.0 88.3 124.4 88.7 124.8 89.2 125.2 89.6 125.6 90.1 126.0 90.6 126.4 91.1 126.8 91.6 127.2 92.2 127.6 92.7 128.0 93.2 128.4 93.8 128.8 94.3 129.3 94.8 129.7 95.3 130.1 95.8 130.5 96.2 130.9 96.6 131.2 97.0 131.6 97.4 132.0 97.7 132.3 98.0 132.6 98.2 133.0 98.4 133.3 98.6 133.6 98.7 133.8 98.8 134.1 98.8 134.4 98.7 134.6 98.6 134.8 98.5 135.0 98.2 135.2 98.0 135.3 97.6 135.4 97.3 135.6 96.8 135.7 96.4 135.8 95.8 135.8 95.3 135.9 94.6 135.9 94.0 135.9 93.3 136.0 92.5 136.0 91.8 136.0 91.0 135.9 90.2 135.9 89.3 135.9 88.5 135.9 87.6 135.8 86.8 135.8 85.9 135.7 85.0 135.7 84.2 135.7 83.3 135.6 82.5 135.6 81.7 135.6 80.9 135.6 80.2 135.6 79.5 135.6 78.8 135.6 78.2 135.7 77.6 135.7 77.1 135.8 76.7 135.9 76.3 136.0 75.9 136.1 75.7 136.3 75.5 136.5 75.3 136.7 75.2 136.9 75.2 137.1 75.3 137.4 75.5 137.7 75.7 138.0 75.9 138.3 76.3 138.7 76.7 139.1 77.1 139.4 77.7 139.9 78.3 140.3 78.9 140.7 79.6 141.2 80.3 141.7 81.1 142.2 81.9 142.7 82.7 143.2 83.6 143.7 84.5 144.3 85.4 144.8 86.3 145.3 87.3 145.9 88.2 146.4 89.1 147.0 90.0 147.5 90.9 148.0 91.7 148.5 92.5 149.1 93.3 149.5 94.0 150.0 94.7 150.5 95.4 150.9 96.0 151.4 96.5 151.8 96.9 152.2 97.3 152.5 97.6 152.9 97.8 153.2 98.0 153.5 98.1 153.8 98.1 154.0 98.0 154.2 97.8 154.4 97.5 154.6 97.2 154.7 96.7 154.8 96.2 154.9 95.6 154.9 95.0 154.9 94.2 154.9 93.4 154.9 92.5 154.9 91.6 154.8 90.6 154.7 89.5 154.6 88.4 154.5 87.3 154.4 86.1 154.2 84.9 154.1 83.6 153.9 82.4 153.8 81.1 153.6 79.9 153.4 78.6 153.3 77.4 153.1 76.2 153.0 75.0 152.8 73.8 152.7 72.7 152.5 71.6 152.4 70.6 152.4 69.6 152.3 68.7 152.2 67.9 152.2 67.2 152.2 66.5 152.2 65.9 152.3 65.4 152.4 65.0 152.5 64.7 152.6 64.5 152.8 64.4 153.0 64.3 153.2 64.4 153.5 64.6 153.8 64.9 154.1 65.2 154.5 65.7 154.9 66.3 155.3 66.9 155.8 67.7 156.3 68.5 156.8 69.4 157.3 70.4 157.9 71.4 158.4 72.5 159.0 73.6 159.6 74.8 160.3 76.1 160.9 77.3 161.6 78.6 162.2 79.9 162.9 81.2 163.6 82.5 164.2 83.8 164.9 85.1 165.6 86.4 166.2 87.6 166.8 88.8 167.5 89.9 168.1 91.0 168.7 92.0 169.3 93.0 169.8 93.8 170.3 94.6 170.8 95.3 171.3 95.9 171.7 96.4 172.1 96.8 172.5 97.1 172.8 97.3 173.1 97.4 173.4 97.3 173.6 97.2 173.8 96.9 174.0 96.5 174.1 96.0 174.2 95.4 174.2 94.7 174.2 93.9 174.2 93.0 174.2 91.9 174.1 90.8 174.0 89.6 173.8 88.3 173.6 87.0 173.4 85.6 173.2 84.1 173.0 82.6 172.7 81.0 172.5 79.4 172.2 77.8 171.9 76.1 171.6 74.5 171.3 72.8 171.0 71.2 170.7 69.6 170.4 68.0 170.2 66.5 169.9 65.0 169.7 63.5 169.5 62.2 169.3 60.9 169.1 59.7 168.9 58.5 168.8 57.5 168.7 56.6 168.7 55.8 168.6 55.1 168.6 54.5 168.7 54.0 168.8 53.7 168.9 53.5 169.1 53.4 169.3 53.5 169.6 53.6 169.9 53.9 170.2 54.4 170.6 54.9 171.0 55.6 171.5 56.4 172.0 57.3 172.5 58.3 173.1 59.5 173.7 60.7 174.3 62.0 175.0 63.4 175.7 64.8 176.4 66.4 177.2 67.9 177.9 69.6 178.7 71.2 179.5 72.9 180.3 74.6 181.0 76.3 181.8 78.0 182.6 79.7 183.4 81.3 184.2 83.0 185.0 84.5 185.7 86.0 186.5 87.5 187.2 88.8 187.9 90.1 188.5 91.3 189.1 92.4 189.7 93.4 190.3 94.2 190.8 95.0 191.3 95.6 191.7 96.1 192.1 96.4 192.5 96.6 192.8 96.7 193.1 96.6 193.3 96.3 193.4 96.0 193.6 95.5 193.6 94.8 193.7 94.0 193.7 93.1 193.6 92.0 193.5 90.8 193.4 89.5 193.2 88.1 192.9 86.6 192.7 84.9 192.4 83.2 192.1 81.5 191.8 79.6 191.4 77.7 191.0 75.7 190.6 73.7 190.2 71.7 189.8 69.7 189.4 67.6 189.0 65.6 188.5 63.6 188.1 61.6 187.7 59.6 187.3 57.8 187.0 55.9 186.6" stroke="#d3ff00" stroke-width="0.6" fill="transparent"/>
  <path d="M 96.1 101.5 L  95.9 101.5 95.6 101.6 95.4 101.7 95.2 101.8 95.0 101.9 94.8 102.0 94.6 102.1 94.4 102.2 94.2 102.3 94.0 102.4 93.8 102.6 93.6 102.8 93.5 102.9 93.3 103.1 93.2 103.3 93.1 103.5 93.0 103.8 92.8 104.0 92.7 104.3 92.6 104.5 92.6 104.8 92.5 105.1 92.4 105.4 92.3 105.7 92.3 106.0 92.2 106.3 92.2 106.6 92.1 107.0 92.1 107.3 92.0 107.6 92.0 108.0 92.0 108.3 91.9 108.6 91.9 108.9 91.8 109.2 91.7 109.6 91.7 109.9 91.6 110.1 91.5 110.4 91.4 110.7 91.3 110.9 91.2 111.2 91.1 111.4 90.9 111.6 90.8 111.8 90.6 111.9 90.4 112.1 90.2 112.2 90.0 112.3 89.8 112.3 89.5 112.4 89.3 112.4 89.0 112.4 88.7 112.4 88.4 112.4 88.0 112.3 87.7 112.2 87.3 112.1 87.0 112.0 86.6 111.9 86.2 111.7 85.8 111.5 85.3 111.4 84.9 111.2 84.5 111.0 84.1 110.8 83.6 110.5 83.2 110.3 82.7 110.1 82.3 109.9 81.9 109.7 81.4 109.5 81.0 109.3 80.6 109.1 80.2 108.9 79.8 108.8 79.4 108.6 79.0 108.5 78.7 108.4 78.3 108.4 78.0 108.3 77.7 108.3 77.4 108.3 77.2 108.3 76.9 108.4 76.7 108.5 76.5 108.7 76.4 108.8 76.3 109.0 76.1 109.3 76.1 109.5 76.0 109.9 76.0 110.2 75.9 110.6 76.0 111.0 76.0 111.4 76.0 111.9 76.1 112.4 76.2 112.9 76.3 113.4 76.4 114.0 76.6 114.6 76.7 115.2 76.9 115.8 77.1 116.4 77.3 117.1 77.4 117.7 77.6 118.4 77.8 119.0 78.0 119.7 78.2 120.3 78.3 120.9 78.5 121.6 78.7 122.2 78.8 122.7 78.9 123.3 79.0 123.8 79.1 124.3 79.2 124.8 79.2 125.2 79.2 125.6 79.2 126.0 79.1 126.3 79.1 126.6 79.0 126.9 78.8 127.1 78.6 127.2 78.4 127.3 78.2 127.4 77.9 127.4 77.6 127.4 77.3 127.3 76.9 127.2 76.5 127.0 76.0 126.8 75.6 126.5 75.1 126.2 74.5 125.9 74.0 125.5 73.4 125.1 72.8 124.7 72.2 124.3 71.6 123.8 70.9 123.3 70.3 122.8 69.6 122.2 68.9 121.7 68.2 121.2 67.6 120.6 66.9 120.1 66.2 119.5 65.6 119.0 64.9 118.5 64.3 118.0 63.7 117.6 63.1 117.1 62.5 116.7 61.9 116.4 61.4 116.1 60.9 115.8 60.5 115.5 60.0 115.3 59.6 115.2 59.3 115.1 59.0 115.1 58.7 115.1 58.5 115.2 58.3 115.3 58.1 115.5 58.0 115.7 58.0 116.1 58.0 116.4 58.0 116.9 58.1 117.3 58.2 117.9 58.3 118.5 58.5 119.1 58.7 119.8 59.0 120.6 59.3 121.3 59.6 122.2 59.9 123.0 60.3 123.9 60.6 124.8 61.0 125.8 61.4 126.7 61.9 127.7 62.3 128.6 62.7 129.6 63.1 130.6 63.6 131.6 64.0 132.5 64.4 133.5 64.8 134.4 65.1 135.3 65.5 136.2 65.8 137.0 66.1 137.8 66.3 138.5 66.5 139.2 66.7 139.8 66.8 140.4 66.9 140.9 67.0 141.4 67.0 141.8 66.9 142.1 66.8 142.4 66.7 142.5 66.5 142.7 66.2 142.7 65.9 142.7 65.6 142.6 65.2 142.4 64.7 142.2 64.2 141.9 63.6 141.5 63.0 141.0 62.4 140.5 61.7 140.0 61.0 139.4 60.2 138.7 59.4 138.0 58.6 137.3 57.7 136.5 56.9 135.7 56.0 134.9 55.1 134.0 54.2 133.2 53.2 132.3 52.3 131.4 51.4 130.5 50.5 129.7 49.6 128.8 48.7 128.0 47.9 127.2 47.0 126.5 46.2 125.7 45.4 125.1 44.7 124.5 44.0 123.9 43.4 123.4 42.7 122.9 42.2 122.6 41.7 122.3 41.2 122.0 40.8 121.9 40.5 121.8 40.2 121.8 40.0 121.9 39.9 122.1 39.8 122.4 39.7 122.7 39.8 123.1 39.9 123.7 40.0 124.3 40.2 124.9 40.5 125.7 40.8 126.5 41.1 127.4 41.6 128.4 42.0 129.4 42.5 130.5 43.0 131.6 43.6 132.7 44.2 134.0 44.8 135.2 45.5 136.5 46.1 137.8 46.8 139.1 47.4 140.4 48.1 141.7 48.8 143.0 49.4 144.3 50.1 145.6 50.7 146.8 51.3 148.0 51.8 149.2 52.4 150.3 52.8 151.3 53.3 152.3 53.7 153.3 54.0 154.1 54.3 154.9 54.5 155.6 54.7 156.3 54.8 156.8 54.8 157.2 54.8 157.6 54.7 157.8 54.5 158.0 54.3 158.1 54.0 158.0 53.6 157.9 53.2 157.7 52.7 157.4 52.1 156.9 51.4 156.4 50.7 155.9 49.9 155.2 49.1 154.4 48.2 153.6 47.3 152.7 46.3 151.8 45.3 150.8 44.2 149.7 43.2 148.6 42.0 147.5 40.9 146.3 39.8 145.1 38.6 143.9 37.4 142.7 36.3 141.5 35.1 140.3 34.0 139.1 32.9 138.0 31.8 136.8 30.7 135.8 29.7 134.8 28.7 133.8 27.7 132.9 26.9 132.0 26.0 131.3 25.2 130.6 24.5 130.0 23.9 129.5 23.3 129.1 22.8 128.8 22.4 128.6 22.0 128.5 21.8 128.6 21.6 128.7 21.5 128.9 21.4 129.3 21.5 129.7 21.6 130.3 21.8 131.0 22.1 131.7 22.4 132.6 22.8 133.6 23.3 134.6 23.9 135.8 24.5 137.0 25.2 138.3 25.9 139.7 26.6 141.2 27.4 142.6 28.3 144.2 29.1 145.8 30.0 147.4 30.9 149.0 31.8 150.6 32.7 152.3 33.6 153.9 34.5 155.6 35.4 157.2 36.3 158.7 37.1 160.3 37.9 161.7 38.6 163.2 39.3 164.5 40.0 165.8 40.6 167.0 41.1 168.1 41.6 169.2 42.0 170.1 42.3 170.9 42.5 171.6 42.7 172.2 42.7 172.7 42.7 173.1 42.6 173.3 42.4 173.5 42.1 173.5 41.7 173.3 41.3 173.1 40.7 172.7 40.1 172.2 39.4 171.6 38.6 170.9 37.7 170.1 36.8 169.2 35.7 168.2 34.6 167.1 33.5 165.9 32.3 164.7 31.1 163.3 29.8 162.0 28.4 160.5 27.1 159.0 25.7 157.5 24.3 156.0 22.9 154.5 21.5 152.9 20.1 151.4 18.7 149.9 17.4 148.4 16.0 146.9 14.7 145.5 13.4 144.2" stroke="#00ff9b" stroke-width="0.6" fill="transparent"/>
  <path d="M 96.0 98.9 L  95.8 98.8 95.5 98.7 95.3 98.7 95.1 98.6 94.8 98.5 94.6 98.5 94.4 98.5 94.2 98.4 93.9 98.4 93.7 98.4 93.5 98.5 93.2 98.5 93.0 98.6 92.8 98.6 92.5 98.7 92.3 98.8 92.1 98.9 91.8 99.0 91.6 99.2 91.4 99.3 91.2 99.5 90.9 99.7 90.7 99.9 90.5 100.1 90.2 100.3 90.0 100.5 89.8 100.8 89.5 101.0 89.3 101.2 89.1 101.5 88.9 101.7 88.6 102.0 88.4 102.2 88.2 102.4 87.9 102.7 87.7 102.9 87.5 103.1 87.2 103.3 87.0 103.4 86.8 103.6 86.5 103.7 86.3 103.9 86.1 104.0 85.9 104.0 85.6 104.1 85.4 104.1 85.2 104.1 84.9 104.1 84.7 104.0 84.5 104.0 84.2 103.9 84.0 103.7 83.8 103.6 83.5 103.4 83.3 103.2 83.1 102.9 82.9 102.6 82.6 102.3 82.4 102.0 82.2 101.7 81.9 101.3 81.7 101.0 81.5 100.6 81.2 100.2 81.0 99.8 80.8 99.3 80.6 98.9 80.3 98.5 80.1 98.0 79.9 97.6 79.6 97.2 79.4 96.8 79.2 96.3 78.9 96.0 78.7 95.6 78.5 95.2 78.2 94.9 78.0 94.6 77.8 94.3 77.6 94.0 77.3 93.8 77.1 93.6 76.9 93.5 76.6 93.3 76.4 93.3 76.2 93.2 75.9 93.2 75.7 93.3 75.5 93.3 75.2 93.5 75.0 93.6 74.8 93.9 74.6 94.1 74.3 94.4 74.1 94.7 73.9 95.1 73.6 95.5 73.4 96.0 73.2 96.4 72.9 96.9 72.7 97.5 72.5 98.0 72.3 98.6 72.0 99.2 71.8 99.8 71.6 100.5 71.3 101.1 71.1 101.7 70.9 102.3 70.6 103.0 70.4 103.6 70.2 104.2 69.9 104.8 69.7 105.4 69.5 105.9 69.3 106.4 69.0 106.9 68.8 107.4 68.6 107.8 68.3 108.2 68.1 108.5 67.9 108.8 67.6 109.0 67.4 109.2 67.2 109.4 66.9 109.4 66.7 109.5 66.5 109.4 66.3 109.3 66.0 109.2 65.8 109.0 65.6 108.7 65.3 108.4 65.1 108.0 64.9 107.6 64.6 107.1 64.4 106.6 64.2 106.0 63.9 105.4 63.7 104.7 63.5 104.0 63.3 103.3 63.0 102.5 62.8 101.7 62.6 100.9 62.3 100.1 62.1 99.3 61.9 98.5 61.6 97.6 61.4 96.8 61.2 96.0 61.0 95.2 60.7 94.4 60.5 93.6 60.3 92.9 60.0 92.2 59.8 91.5 59.6 90.9 59.3 90.3 59.1 89.8 58.9 89.3 58.6 88.9 58.4 88.6 58.2 88.3 58.0 88.1 57.7 87.9 57.5 87.9 57.3 87.9 57.0 87.9 56.8 88.1 56.6 88.3 56.3 88.6 56.1 89.0 55.9 89.4 55.6 89.9 55.4 90.5 55.2 91.1 55.0 91.8 54.7 92.5 54.5 93.3 54.3 94.2 54.0 95.1 53.8 96.0 53.6 96.9 53.3 97.9 53.1 98.9 52.9 100.0 52.7 101.0 52.4 102.1 52.2 103.1 52.0 104.1 51.7 105.1 51.5 106.1 51.3 107.1 51.0 108.0 50.8 108.9 50.6 109.8 50.3 110.6 50.1 111.3 49.9 112.0 49.7 112.6 49.4 113.2 49.2 113.7 49.0 114.1 48.7 114.4 48.5 114.6 48.3 114.8 48.0 114.8 47.8 114.8 47.6 114.7 47.3 114.5 47.1 114.2 46.9 113.8 46.7 113.4 46.4 112.8 46.2 112.2 46.0 111.5 45.7 110.7 45.5 109.8 45.3 108.9 45.0 107.9 44.8 106.9 44.6 105.8 44.4 104.7 44.1 103.5 43.9 102.3 43.7 101.1 43.4 99.9 43.2 98.6 43.0 97.4 42.7 96.1 42.5 94.9 42.3 93.7 42.0 92.5 41.8 91.4 41.6 90.3 41.4 89.2 41.1 88.2 40.9 87.3 40.7 86.4 40.4 85.6 40.2 84.9 40.0 84.3 39.7 83.7 39.5 83.3 39.3 82.9 39.0 82.7 38.8 82.5 38.6 82.5 38.4 82.5 38.1 82.7 37.9 83.0 37.7 83.3 37.4 83.8 37.2 84.4 37.0 85.0 36.7 85.8 36.5 86.6 36.3 87.6 36.1 88.6 35.8 89.7 35.6 90.8 35.4 92.1 35.1 93.3 34.9 94.7 34.7 96.0 34.4 97.5 34.2 98.9 34.0 100.3 33.7 101.8 33.5 103.2 33.3 104.7 33.1 106.1 32.8 107.5 32.6 108.9 32.4 110.2 32.1 111.5 31.9 112.7 31.7 113.8 31.4 114.9 31.2 115.9 31.0 116.8 30.7 117.6 30.5 118.3 30.3 118.9 30.1 119.4 29.8 119.8 29.6 120.0 29.4 120.2 29.1 120.2 28.9 120.1 28.7 119.9 28.4 119.6 28.2 119.1 28.0 118.6 27.7 117.9 27.5 117.1 27.3 116.2 27.1 115.2 26.8 114.1 26.6 112.9 26.4 111.7 26.1 110.3 25.9 108.9 25.7 107.4 25.4 105.9 25.2 104.3 25.0 102.7 24.8 101.1 24.5 99.4 24.3 97.8 24.1 96.1 23.8 94.5 23.6 92.8 23.4 91.3 23.1 89.7 22.9 88.2 22.7 86.8 22.4 85.4 22.2 84.1 22.0 82.9 21.8 81.8 21.5 80.8 21.3 79.9 21.1 79.1 20.8 78.5 20.6 78.0 20.4 77.5 20.1 77.3 19.9 77.1 19.7 77.1 19.4 77.2 19.2 77.5 19.0 77.9 18.8 78.4 18.5 79.1 18.3 79.9 18.1 80.8 17.8 81.8 17.6 83.0 17.4 84.2 17.1 85.6 16.9 87.0 16.7 88.6 16.5 90.2 16.2 91.8 16.0 93.6 15.8 95.4 15.5 97.2 15.3 99.0 15.1 100.9 14.8 102.8 14.6 104.6 14.4 106.5 14.1 108.3 13.9 110.0 13.7 111.8 13.5 113.4 13.2 115.0 13.0 116.5 12.8 118.0 12.5 119.3 12.3 120.5 12.1 121.6 11.8 122.6 11.6 123.4 11.4 124.2 11.1 124.7 10.9 125.2 10.7 125.4 10.5 125.6 10.2 125.6 10.0 125.4 9.8 125.1 9.5 124.6 9.3 124.0 9.1 123.2 8.8 122.3 8.6 121.3 8.4 120.1 8.2 118.8 7.9 117.4 7.7 115.9 7.5 114.2 7.2 112.5 7.0 110.7 6.8 108.8 6.5 106.9 6.3 104.9 6.1 102.9 5.8 100.8 5.6 98.8 5.4 96.7 5.2 94.6 4.9 92.6 4.7 90.6 4.5 88.6 4.2 86.7 4.0 84.9" stroke="#9cff00" stroke-width="0.6" fill="transparent"/>
  <path d="M 97.4 96.8 L  97.3 96.5 97.1 96.4 97.0 96.2 96.8 96.0 96.7 95.8 96.5 95.6 96.4 95.5 96.2 95.3 96.0 95.2 95.8 95.0 95.6 94.9 95.4 94.8 95.2 94.7 95.0 94.6 94.7 94.6 94.5 94.5 94.2 94.5 94.0 94.4 93.7 94.4 93.4 94.4 93.1 94.4 92.8 94.4 92.5 94.4 92.2 94.5 91.9 94.5 91.6 94.6 91.3 94.6 90.9 94.7 90.6 94.7 90.3 94.8 90.0 94.8 89.6 94.9 89.3 95.0 89.0 95.0 88.7 95.1 88.4 95.1 88.1 95.1 87.8 95.1 87.5 95.2 87.2 95.1 86.9 95.1 86.7 95.1 86.4 95.0 86.2 95.0 86.0 94.9 85.8 94.7 85.6 94.6 85.4 94.5 85.2 94.3 85.1 94.1 85.0 93.9 84.9 93.6 84.8 93.3 84.7 93.1 84.7 92.7 84.6 92.4 84.6 92.1 84.6 91.7 84.6 91.3 84.6 90.9 84.6 90.5 84.6 90.0 84.7 89.6 84.7 89.1 84.8 88.6 84.8 88.2 84.9 87.7 85.0 87.2 85.0 86.7 85.1 86.2 85.2 85.7 85.2 85.3 85.3 84.8 85.3 84.3 85.4 83.9 85.4 83.5 85.4 83.1 85.4 82.7 85.4 82.3 85.4 82.0 85.3 81.7 85.2 81.4 85.1 81.1 85.0 80.9 84.9 80.7 84.7 80.5 84.5 80.4 84.3 80.3 84.1 80.2 83.8 80.2 83.5 80.2 83.2 80.2 82.9 80.3 82.5 80.4 82.1 80.5 81.7 80.7 81.3 80.9 80.9 81.1 80.4 81.4 79.9 81.6 79.4 81.9 78.9 82.2 78.4 82.6 77.8 82.9 77.3 83.3 76.7 83.6 76.2 84.0 75.6 84.4 75.0 84.8 74.5 85.2 73.9 85.5 73.4 85.9 72.9 86.2 72.3 86.5 71.8 86.9 71.3 87.1 70.9 87.4 70.4 87.6 70.0 87.8 69.6 88.0 69.2 88.1 68.8 88.2 68.5 88.3 68.2 88.3 67.9 88.3 67.7 88.2 67.5 88.1 67.3 87.9 67.2 87.7 67.1 87.5 67.1 87.2 67.0 86.8 67.0 86.4 67.1 86.0 67.1 85.5 67.2 85.0 67.3 84.4 67.5 83.8 67.7 83.2 67.9 82.5 68.1 81.8 68.3 81.1 68.6 80.3 68.9 79.5 69.2 78.8 69.5 78.0 69.8 77.2 70.1 76.3 70.4 75.5 70.7 74.7 71.0 73.9 71.3 73.1 71.5 72.4 71.8 71.6 72.0 70.9 72.3 70.2 72.5 69.5 72.7 68.9 72.8 68.3 72.9 67.7 73.0 67.2 73.1 66.7 73.1 66.3 73.1 65.9 73.0 65.6 72.9 65.4 72.7 65.2 72.6 65.1 72.3 65.0 72.1 65.0 71.7 65.0 71.4 65.1 71.0 65.3 70.5 65.5 70.1 65.7 69.5 66.1 69.0 66.4 68.4 66.9 67.8 67.3 67.1 67.8 66.4 68.4 65.7 69.0 65.0 69.6 64.2 70.2 63.5 70.9 62.7 71.6 61.9 72.3 61.1 73.0 60.3 73.7 59.5 74.4 58.7 75.1 57.9 75.8 57.2 76.5 56.4 77.1 55.7 77.7 54.9 78.3 54.3 78.9 53.6 79.4 53.0 79.9 52.4 80.3 51.8 80.6 51.3 80.9 50.9 81.2 50.4 81.4 50.1 81.5 49.7 81.6 49.5 81.5 49.2 81.5 49.1 81.3 49.0 81.1 48.9 80.8 48.9 80.4 48.9 80.0 49.0 79.5 49.1 78.9 49.3 78.2 49.5 77.5 49.8 76.8 50.1 75.9 50.5 75.1 50.9 74.1 51.3 73.2 51.7 72.1 52.2 71.1 52.7 70.0 53.2 68.9 53.8 67.8 54.3 66.6 54.9 65.5 55.4 64.4 55.9 63.2 56.5 62.1 57.0 61.0 57.5 59.9 58.0 58.8 58.5 57.8 58.9 56.8 59.3 55.9 59.7 55.0 60.0 54.1 60.3 53.3 60.5 52.6 60.7 52.0 60.8 51.4 60.9 50.9 60.9 50.5 60.9 50.2 60.8 49.9 60.6 49.7 60.4 49.6 60.1 49.6 59.8 49.7 59.4 49.9 58.9 50.1 58.4 50.4 57.8 50.8 57.2 51.3 56.5 51.9 55.8 52.5 55.0 53.2 54.1 53.9 53.3 54.7 52.4 55.6 51.4 56.5 50.5 57.4 49.5 58.4 48.5 59.4 47.4 60.4 46.4 61.5 45.4 62.5 44.3 63.5 43.3 64.6 42.3 65.6 41.2 66.6 40.3 67.6 39.3 68.5 38.4 69.4 37.5 70.2 36.6 71.0 35.8 71.7 35.0 72.4 34.3 73.0 33.6 73.5 33.0 73.9 32.5 74.3 32.0 74.6 31.6 74.7 31.3 74.8 31.0 74.8 30.8 74.7 30.7 74.5 30.6 74.2 30.6 73.8 30.7 73.3 30.8 72.7 31.0 72.0 31.3 71.2 31.6 70.4 32.0 69.4 32.5 68.4 33.0 67.3 33.6 66.2 34.2 64.9 34.8 63.7 35.5 62.3 36.2 60.9 37.0 59.5 37.7 58.1 38.5 56.6 39.3 55.2 40.1 53.7 40.9 52.2 41.6 50.7 42.4 49.3 43.1 47.9 43.9 46.5 44.6 45.1 45.2 43.9 45.8 42.6 46.4 41.4 46.9 40.3 47.4 39.3 47.8 38.4 48.1 37.5 48.4 36.7 48.6 36.1 48.7 35.5 48.8 35.0 48.8 34.7 48.7 34.4 48.5 34.3 48.2 34.2 47.9 34.3 47.5 34.5 47.0 34.8 46.4 35.2 45.7 35.7 45.0 36.3 44.2 37.0 43.4 37.8 42.4 38.7 41.4 39.6 40.4 40.7 39.3 41.8 38.2 42.9 37.0 44.2 35.8 45.4 34.6 46.7 33.3 48.1 32.0 49.4 30.8 50.8 29.5 52.2 28.2 53.5 26.9 54.9 25.7 56.2 24.5 57.5 23.3 58.8 22.1 60.0 21.0 61.2 19.9 62.2 18.9 63.3 17.9 64.2 17.0 65.0 16.2 65.8 15.4 66.5 14.7 67.0 14.1 67.5 13.6 67.8 13.1 68.0 12.8 68.1 12.5 68.1 12.3 67.9 12.3 67.6 12.3 67.3 12.3 66.7 12.5 66.1 12.8 65.3 13.1 64.5 13.6 63.5 14.1 62.4 14.6 61.2 15.3 60.0 16.0 58.6 16.8 57.1 17.6 55.6 18.5 54.0 19.4 52.3 20.3 50.6 21.3 48.9 22.3 47.1 23.3 45.3 24.4 43.5 25.4 41.7 26.4 39.9 27.4 38.1 28.4 36.4 29.4 34.6 30.3 33.0 31.2 31.3" stroke="#4600ff" stroke-width="0.6" fill="transparent"/>
  <path d="M 99.8 95.9 L  99.8 95.6 99.8 95.4 99.8 95.1 99.8 94.9 99.8 94.6 99.8 94.4 99.7 94.2 99.7 94.0 99.6 93.7 99.5 93.5 99.4 93.3 99.3 93.1 99.2 92.9 99.1 92.7 98.9 92.5 98.8 92.3 98.6 92.1 98.4 92.0 98.2 91.8 98.0 91.6 97.7 91.4 97.5 91.3 97.2 91.1 97.0 91.0 96.7 90.8 96.4 90.7 96.1 90.5 95.8 90.4 95.5 90.2 95.2 90.1 94.9 89.9 94.6 89.8 94.3 89.6 94.0 89.5 93.7 89.3 93.5 89.2 93.2 89.0 92.9 88.9 92.7 88.7 92.5 88.5 92.3 88.4 92.1 88.2 91.9 88.0 91.8 87.8 91.7 87.6 91.6 87.4 91.5 87.2 91.4 86.9 91.4 86.7 91.4 86.5 91.5 86.2 91.5 85.9 91.6 85.7 91.7 85.4 91.8 85.1 92.0 84.8 92.2 84.5 92.4 84.2 92.6 83.9 92.9 83.6 93.1 83.2 93.4 82.9 93.7 82.6 94.0 82.2 94.4 81.9 94.7 81.5 95.0 81.2 95.4 80.8 95.7 80.5 96.1 80.1 96.4 79.8 96.7 79.4 97.0 79.1 97.3 78.7 97.6 78.4 97.9 78.1 98.1 77.7 98.4 77.4 98.6 77.1 98.7 76.8 98.9 76.5 99.0 76.2 99.1 76.0 99.1 75.7 99.1 75.5 99.1 75.2 99.0 75.0 98.9 74.8 98.7 74.6 98.6 74.4 98.3 74.3 98.0 74.1 97.7 74.0 97.4 73.9 97.0 73.7 96.6 73.6 96.1 73.5 95.6 73.5 95.1 73.4 94.5 73.3 94.0 73.3 93.4 73.2 92.7 73.2 92.1 73.1 91.4 73.1 90.8 73.1 90.1 73.1 89.4 73.0 88.8 73.0 88.1 73.0 87.4 73.0 86.8 72.9 86.1 72.9 85.5 72.9 84.9 72.8 84.4 72.8 83.8 72.7 83.3 72.6 82.9 72.5 82.4 72.4 82.0 72.3 81.7 72.2 81.4 72.0 81.1 71.9 81.0 71.7 80.8 71.5 80.7 71.3 80.7 71.0 80.7 70.8 80.8 70.5 80.9 70.2 81.1 69.9 81.3 69.6 81.6 69.3 81.9 68.9 82.3 68.6 82.7 68.2 83.2 67.8 83.7 67.4 84.3 67.0 84.9 66.5 85.5 66.1 86.2 65.6 86.8 65.2 87.5 64.7 88.2 64.2 89.0 63.7 89.7 63.3 90.4 62.8 91.1 62.3 91.8 61.8 92.5 61.4 93.2 60.9 93.9 60.4 94.5 60.0 95.1 59.6 95.7 59.1 96.2 58.7 96.7 58.3 97.1 58.0 97.5 57.6 97.8 57.2 98.0 56.9 98.2 56.6 98.3 56.3 98.4 56.1 98.4 55.8 98.3 55.6 98.2 55.4 98.0 55.2 97.7 55.1 97.4 55.0 96.9 54.8 96.5 54.8 95.9 54.7 95.3 54.6 94.6 54.6 93.9 54.6 93.1 54.6 92.3 54.7 91.4 54.7 90.5 54.8 89.5 54.8 88.6 54.9 87.5 55.0 86.5 55.1 85.5 55.2 84.4 55.3 83.3 55.4 82.3 55.5 81.2 55.6 80.2 55.7 79.2 55.8 78.2 55.9 77.2 55.9 76.3 56.0 75.4 56.0 74.6 56.1 73.8 56.1 73.1 56.1 72.4 56.0 71.8 56.0 71.3 55.9 70.8 55.8 70.5 55.7 70.2 55.5 70.0 55.4 69.8 55.2 69.8 54.9 69.8 54.7 69.9 54.4 70.2 54.1 70.4 53.8 70.8 53.4 71.3 53.0 71.8 52.6 72.4 52.2 73.1 51.7 73.8 51.2 74.6 50.7 75.5 50.2 76.4 49.6 77.3 49.1 78.3 48.5 79.4 47.9 80.4 47.4 81.5 46.8 82.6 46.2 83.7 45.6 84.9 45.0 86.0 44.3 87.1 43.7 88.2 43.2 89.2 42.6 90.2 42.0 91.2 41.4 92.1 40.9 93.0 40.4 93.8 39.9 94.6 39.4 95.3 38.9 95.9 38.5 96.4 38.0 96.9 37.7 97.2 37.3 97.5 37.0 97.6 36.7 97.7 36.4 97.7 36.2 97.6 36.0 97.3 35.8 97.0 35.7 96.6 35.6 96.1 35.5 95.5 35.4 94.8 35.4 94.0 35.4 93.1 35.5 92.1 35.6 91.1 35.7 90.0 35.8 88.8 35.9 87.6 36.1 86.3 36.2 84.9 36.4 83.6 36.6 82.2 36.9 80.7 37.1 79.3 37.3 77.8 37.5 76.4 37.8 74.9 38.0 73.5 38.2 72.1 38.4 70.7 38.6 69.4 38.8 68.1 39.0 66.9 39.1 65.8 39.3 64.7 39.4 63.7 39.5 62.7 39.5 61.9 39.6 61.1 39.6 60.5 39.5 60.0 39.5 59.5 39.4 59.2 39.2 59.0 39.1 58.9 38.8 58.9 38.6 59.0 38.3 59.3 38.0 59.6 37.6 60.1 37.2 60.7 36.8 61.3 36.4 62.1 35.9 63.0 35.3 64.0 34.8 65.0 34.2 66.1 33.6 67.4 32.9 68.6 32.3 70.0 31.6 71.4 30.9 72.8 30.2 74.2 29.5 75.7 28.8 77.2 28.0 78.7 27.3 80.2 26.6 81.7 25.8 83.2 25.1 84.6 24.4 86.0 23.7 87.4 23.0 88.7 22.4 89.9 21.7 91.1 21.1 92.1 20.5 93.1 20.0 94.0 19.4 94.8 18.9 95.4 18.5 96.0 18.1 96.4 17.7 96.8 17.3 96.9 17.0 97.0 16.8 97.0 16.5 96.8 16.4 96.4 16.2 96.0 16.1 95.4 16.1 94.7 16.1 93.9 16.1 93.0 16.1 91.9 16.2 90.7 16.4 89.5 16.5 88.1 16.7 86.7 17.0 85.1 17.2 83.5 17.5 81.9 17.8 80.2 18.1 78.4 18.4 76.6 18.8 74.8 19.1 72.9 19.5 71.1 19.9 69.2 20.2 67.4 20.6 65.6 20.9 63.8 21.2 62.1 21.5 60.5 21.8 58.9 22.1 57.4 22.4 56.0 22.6 54.6 22.8 53.4 22.9 52.3 23.1 51.3 23.1 50.4 23.2 49.6 23.2 49.0 23.1 48.5 23.1 48.2 22.9 48.0 22.7 47.9 22.5 48.0 22.2 48.3 21.9 48.6 21.6 49.2 21.2 49.8 20.7 50.6 20.2 51.5 19.7 52.6 19.1 53.7 18.5 55.0 17.8 56.4 17.1 57.9 16.4 59.4 15.6 61.1 14.9 62.8 14.1 64.6 13.2 66.4 12.4 68.2 11.6 70.1 10.7 72.0 9.8 73.9 9.0 75.8 8.1 77.7 7.3 79.5 6.4 81.3 5.6 83.0 4.8 84.7 4.0" stroke="#ff0500" stroke-width="0.6" fill="transparent"/>
  <path d="M 102.3 96.5 L  102.4 96.3 102.6 96.1 102.7 96.0 102.9 95.8 103.0 95.5 103.1 95.3 103.2 95.1 103.3 94.9 103.4 94.7 103.4 94.5 103.5 94.3 103.5 94.0 103.5 93.8 103.5 93.6 103.5 93.3 103.5 93.1 103.5 92.8 103.4 92.5 103.4 92.3 103.3 92.0 103.2 91.7 103.1 91.5 103.0 91.2 102.9 90.9 102.7 90.6 102.6 90.3 102.4 90.0 102.3 89.7 102.1 89.5 102.0 89.2 101.8 88.9 101.6 88.6 101.5 88.3 101.3 88.0 101.2 87.7 101.1 87.4 100.9 87.1 100.8 86.9 100.7 86.6 100.7 86.3 100.6 86.0 100.6 85.8 100.5 85.5 100.5 85.3 100.5 85.1 100.6 84.8 100.7 84.6 100.8 84.4 100.9 84.2 101.0 84.0 101.2 83.8 101.4 83.6 101.6 83.5 101.9 83.3 102.2 83.2 102.5 83.0 102.8 82.9 103.1 82.8 103.5 82.6 103.9 82.5 104.3 82.4 104.7 82.3 105.2 82.2 105.6 82.1 106.1 82.0 106.6 81.9 107.1 81.8 107.5 81.8 108.0 81.7 108.5 81.6 109.0 81.5 109.5 81.4 109.9 81.3 110.4 81.2 110.8 81.1 111.2 81.0 111.6 80.9 112.0 80.8 112.3 80.6 112.6 80.5 112.9 80.3 113.2 80.2 113.4 80.0 113.6 79.8 113.7 79.6 113.8 79.4 113.9 79.2 113.9 79.0 113.9 78.7 113.9 78.5 113.8 78.2 113.6 77.9 113.5 77.6 113.3 77.3 113.0 77.0 112.7 76.7 112.4 76.3 112.1 76.0 111.7 75.6 111.3 75.2 110.8 74.8 110.4 74.4 109.9 74.0 109.4 73.6 108.9 73.2 108.4 72.8 107.8 72.4 107.3 72.0 106.8 71.6 106.2 71.2 105.7 70.7 105.2 70.3 104.7 69.9 104.2 69.5 103.8 69.1 103.4 68.8 103.0 68.4 102.6 68.0 102.3 67.7 102.0 67.4 101.8 67.0 101.6 66.7 101.4 66.4 101.3 66.2 101.2 65.9 101.2 65.6 101.3 65.4 101.4 65.2 101.5 65.0 101.8 64.8 102.0 64.7 102.4 64.6 102.7 64.4 103.2 64.3 103.6 64.2 104.2 64.2 104.7 64.1 105.4 64.1 106.0 64.1 106.7 64.0 107.5 64.0 108.2 64.0 109.0 64.1 109.8 64.1 110.7 64.1 111.5 64.1 112.4 64.2 113.2 64.2 114.1 64.3 115.0 64.3 115.8 64.3 116.7 64.4 117.5 64.4 118.3 64.4 119.1 64.4 119.8 64.4 120.5 64.4 121.2 64.4 121.8 64.3 122.4 64.3 122.9 64.2 123.3 64.1 123.7 64.0 124.1 63.9 124.3 63.7 124.5 63.5 124.7 63.3 124.8 63.1 124.8 62.9 124.7 62.6 124.5 62.3 124.3 62.0 124.1 61.7 123.7 61.3 123.3 60.9 122.9 60.6 122.3 60.1 121.7 59.7 121.1 59.3 120.4 58.8 119.7 58.3 118.9 57.8 118.1 57.3 117.3 56.8 116.4 56.3 115.5 55.7 114.6 55.2 113.7 54.7 112.7 54.1 111.8 53.6 110.9 53.0 110.0 52.5 109.1 52.0 108.3 51.5 107.5 50.9 106.7 50.5 106.0 50.0 105.3 49.5 104.6 49.1 104.0 48.6 103.5 48.2 103.1 47.8 102.7 47.5 102.4 47.1 102.2 46.8 102.0 46.5 101.9 46.2 101.9 46.0 102.0 45.8 102.2 45.6 102.5 45.4 102.8 45.3 103.3 45.2 103.8 45.1 104.4 45.1 105.0 45.1 105.8 45.1 106.6 45.1 107.5 45.1 108.4 45.2 109.4 45.3 110.5 45.4 111.6 45.5 112.7 45.6 113.9 45.8 115.1 45.9 116.4 46.1 117.6 46.2 118.9 46.4 120.1 46.6 121.4 46.7 122.6 46.9 123.8 47.0 125.0 47.2 126.2 47.3 127.3 47.5 128.4 47.6 129.4 47.6 130.4 47.7 131.3 47.8 132.1 47.8 132.8 47.8 133.5 47.8 134.1 47.7 134.6 47.6 135.0 47.5 135.3 47.4 135.5 47.2 135.6 47.0 135.7 46.8 135.6 46.5 135.4 46.2 135.1 45.9 134.8 45.5 134.3 45.1 133.7 44.7 133.1 44.2 132.3 43.7 131.5 43.2 130.6 42.7 129.6 42.1 128.6 41.6 127.5 41.0 126.4 40.4 125.2 39.7 123.9 39.1 122.7 38.4 121.4 37.8 120.1 37.1 118.8 36.4 117.5 35.8 116.2 35.1 114.9 34.4 113.6 33.8 112.4 33.2 111.2 32.5 110.1 31.9 109.0 31.3 108.0 30.7 107.0 30.2 106.2 29.7 105.4 29.2 104.7 28.7 104.1 28.3 103.6 27.9 103.2 27.5 102.9 27.2 102.7 26.9 102.6 26.6 102.7 26.4 102.8 26.2 103.1 26.0 103.5 25.9 104.0 25.8 104.6 25.8 105.3 25.8 106.1 25.8 107.0 25.8 108.1 25.9 109.2 26.0 110.4 26.2 111.7 26.4 113.0 26.6 114.4 26.8 115.9 27.0 117.4 27.3 119.0 27.5 120.6 27.8 122.2 28.1 123.9 28.4 125.5 28.7 127.2 29.0 128.8 29.3 130.4 29.6 132.0 29.8 133.5 30.1 135.0 30.3 136.5 30.5 137.8 30.7 139.1 30.9 140.3 31.1 141.5 31.2 142.5 31.3 143.4 31.3 144.2 31.4 144.9 31.4 145.5 31.3 146.0 31.2 146.3 31.1 146.5 30.9 146.6 30.7 146.5 30.4 146.4 30.1 146.1 29.8 145.6 29.4 145.1 29.0 144.4 28.5 143.6 28.0 142.7 27.5 141.7 26.9 140.5 26.3 139.3 25.7 138.0 25.0 136.6 24.3 135.2 23.6 133.6 22.8 132.1 22.1 130.4 21.3 128.8 20.5 127.1 19.7 125.4 19.0 123.7 18.2 122.0 17.4 120.3 16.6 118.7 15.8 117.0 15.0 115.5 14.3 114.0 13.5 112.5 12.8 111.2 12.1 109.9 11.5 108.7 10.9 107.6 10.3 106.6 9.7 105.8 9.2 105.0 8.7 104.4 8.3 103.9 7.9 103.6 7.5 103.4 7.2 103.3 6.9 103.4 6.7 103.7 6.6 104.0 6.4 104.5 6.4 105.2 6.3 106.0 6.3 106.9 6.4 108.0 6.5 109.2 6.6 110.5 6.8 111.9 7.1 113.4 7.3 115.1 7.6 116.8 7.9 118.5 8.2 120.4 8.6 122.3 9.0 124.3 9.4 126.3 9.8 128.3 10.2 130.3 10.6 132.4 11.0 134.4 11.5 136.4 11.9 138.4 12.3 140.4 12.7 142.2 13.0 144.1 13.4" stroke="#00ff57" stroke-width="0.6" fill="transparent"/>
  <path d="M 103.9 98.5 L  104.1 98.5 104.4 98.4 104.6 98.3 104.8 98.2 105.0 98.1 105.2 98.0 105.4 97.9 105.6 97.8 105.8 97.7 106.0 97.6 106.2 97.4 106.4 97.2 106.5 97.1 106.7 96.9 106.8 96.7 106.9 96.5 107.0 96.2 107.2 96.0 107.3 95.7 107.4 95.5 107.4 95.2 107.5 94.9 107.6 94.6 107.7 94.3 107.7 94.0 107.8 93.7 107.8 93.4 107.9 93.0 107.9 92.7 108.0 92.4 108.0 92.0 108.0 91.7 108.1 91.4 108.1 91.1 108.2 90.8 108.3 90.4 108.3 90.1 108.4 89.9 108.5 89.6 108.6 89.3 108.7 89.1 108.8 88.8 108.9 88.6 109.1 88.4 109.2 88.2 109.4 88.1 109.6 87.9 109.8 87.8 110.0 87.7 110.2 87.7 110.5 87.6 110.7 87.6 111.0 87.6 111.3 87.6 111.6 87.6 112.0 87.7 112.3 87.8 112.7 87.9 113.0 88.0 113.4 88.1 113.8 88.3 114.2 88.5 114.7 88.6 115.1 88.8 115.5 89.0 115.9 89.2 116.4 89.5 116.8 89.7 117.3 89.9 117.7 90.1 118.1 90.3 118.6 90.5 119.0 90.7 119.4 90.9 119.8 91.1 120.2 91.2 120.6 91.4 121.0 91.5 121.3 91.6 121.7 91.6 122.0 91.7 122.3 91.7 122.6 91.7 122.8 91.7 123.1 91.6 123.3 91.5 123.5 91.3 123.6 91.2 123.7 91.0 123.9 90.7 123.9 90.5 124.0 90.1 124.0 89.8 124.1 89.4 124.0 89.0 124.0 88.6 124.0 88.1 123.9 87.6 123.8 87.1 123.7 86.6 123.6 86.0 123.4 85.4 123.3 84.8 123.1 84.2 122.9 83.6 122.7 82.9 122.6 82.3 122.4 81.6 122.2 81.0 122.0 80.3 121.8 79.7 121.7 79.1 121.5 78.4 121.3 77.8 121.2 77.3 121.1 76.7 121.0 76.2 120.9 75.7 120.8 75.2 120.8 74.8 120.8 74.4 120.8 74.0 120.9 73.7 120.9 73.4 121.0 73.1 121.2 72.9 121.4 72.8 121.6 72.7 121.8 72.6 122.1 72.6 122.4 72.6 122.7 72.7 123.1 72.8 123.5 73.0 124.0 73.2 124.4 73.5 124.9 73.8 125.5 74.1 126.0 74.5 126.6 74.9 127.2 75.3 127.8 75.7 128.4 76.2 129.1 76.7 129.7 77.2 130.4 77.8 131.1 78.3 131.8 78.8 132.4 79.4 133.1 79.9 133.8 80.5 134.4 81.0 135.1 81.5 135.7 82.0 136.3 82.4 136.9 82.9 137.5 83.3 138.1 83.6 138.6 83.9 139.1 84.2 139.5 84.5 140.0 84.7 140.4 84.8 140.7 84.9 141.0 84.9 141.3 84.9 141.5 84.8 141.7 84.7 141.9 84.5 142.0 84.3 142.0 83.9 142.0 83.6 142.0 83.1 141.9 82.7 141.8 82.1 141.7 81.5 141.5 80.9 141.3 80.2 141.0 79.4 140.7 78.7 140.4 77.8 140.1 77.0 139.7 76.1 139.4 75.2 139.0 74.2 138.6 73.3 138.1 72.3 137.7 71.4 137.3 70.4 136.9 69.4 136.4 68.4 136.0 67.5 135.6 66.5 135.2 65.6 134.9 64.7 134.5 63.8 134.2 63.0 133.9 62.2 133.7 61.5 133.5 60.8 133.3 60.2 133.2 59.6 133.1 59.1 133.0 58.6 133.0 58.2 133.1 57.9 133.2 57.6 133.3 57.5 133.5 57.3 133.8 57.3 134.1 57.3 134.4 57.4 134.8 57.6 135.3 57.8 135.8 58.1 136.4 58.5 137.0 59.0 137.6 59.5 138.3 60.0 139.0 60.6 139.8 61.3 140.6 62.0 141.4 62.7 142.3 63.5 143.1 64.3 144.0 65.1 144.9 66.0 145.8 66.8 146.8 67.7 147.7 68.6 148.6 69.5 149.5 70.3 150.4 71.2 151.3 72.0 152.1 72.8 153.0 73.5 153.8 74.3 154.6 74.9 155.3 75.5 156.0 76.1 156.6 76.6 157.3 77.1 157.8 77.4 158.3 77.7 158.8 78.0 159.2 78.1 159.5 78.2 159.8 78.2 160.0 78.1 160.1 77.9 160.2 77.6 160.3 77.3 160.2 76.9 160.1 76.3 160.0 75.7 159.8 75.1 159.5 74.3 159.2 73.5 158.9 72.6 158.4 71.6 158.0 70.6 157.5 69.5 157.0 68.4 156.4 67.3 155.8 66.0 155.2 64.8 154.5 63.5 153.9 62.2 153.2 60.9 152.6 59.6 151.9 58.3 151.2 57.0 150.6 55.7 149.9 54.4 149.3 53.2 148.7 52.0 148.2 50.8 147.6 49.7 147.2 48.7 146.7 47.7 146.3 46.7 146.0 45.9 145.7 45.1 145.5 44.4 145.3 43.7 145.2 43.2 145.2 42.8 145.2 42.4 145.3 42.2 145.5 42.0 145.7 41.9 146.0 42.0 146.4 42.1 146.8 42.3 147.3 42.6 147.9 43.1 148.6 43.6 149.3 44.1 150.1 44.8 150.9 45.6 151.8 46.4 152.7 47.3 153.7 48.2 154.7 49.2 155.8 50.3 156.8 51.4 158.0 52.5 159.1 53.7 160.2 54.9 161.4 56.1 162.6 57.3 163.7 58.5 164.9 59.7 166.0 60.9 167.1 62.0 168.2 63.2 169.3 64.2 170.3 65.2 171.3 66.2 172.3 67.1 173.1 68.0 174.0 68.7 174.8 69.4 175.5 70.0 176.1 70.5 176.7 70.9 177.2 71.2 177.6 71.4 178.0 71.5 178.2 71.4 178.4 71.3 178.5 71.1 178.6 70.7 178.5 70.3 178.4 69.7 178.2 69.0 177.9 68.3 177.6 67.4 177.2 66.4 176.7 65.4 176.1 64.2 175.5 63.0 174.8 61.7 174.1 60.3 173.4 58.8 172.6 57.4 171.7 55.8 170.9 54.2 170.0 52.6 169.1 51.0 168.2 49.4 167.3 47.7 166.4 46.1 165.5 44.4 164.6 42.8 163.7 41.3 162.9 39.7 162.1 38.3 161.4 36.8 160.7 35.5 160.0 34.2 159.4 33.0 158.9 31.9 158.4 30.8 158.0 29.9 157.7 29.1 157.5 28.4 157.3 27.8 157.3 27.3 157.3 26.9 157.4 26.7 157.6 26.5 157.9 26.5 158.3 26.7 158.7 26.9 159.3 27.3 159.9 27.8 160.6 28.4 161.4 29.1 162.3 29.9 163.2 30.8 164.3 31.8 165.4 32.9 166.5 34.1 167.7 35.3 168.9 36.7 170.2 38.0 171.6 39.5 172.9 41.0 174.3 42.5 175.7 44.0 177.1 45.5 178.5 47.1 179.9 48.6 181.3 50.1 182.6 51.6 184.0 53.1 185.3 54.5 186.6 55.8" stroke="#ffa200" stroke-width="0.6" fill="transparent"/>
</svg>
