<?xml version='1.0' encoding='UTF-8' standalone='no'?>
<svg xmlns="http://www.w3.org/2000/svg" xmlns:xlink="http://www.w3.org/1999/xlink" version="1.1" viewBox="0 0 100 100">
  <rect x="0" y="0" width="100" height="100" fill="none" stroke="black" stroke-width="1" id="border" opacity="0.8"/>
  <style> path { stroke-width: 0.4; stroke: green;  } </style>
  <path d="M 64.1 9.7 L 64.1 9.7 64.1 9.7 64.1 9.7 64.1 9.7 64.1 9.7 64.1 9.7 64.1 9.7 64.1 9.7 64.1 9.7 Z" stroke="None" stroke-width="None" fill="#00ff34"/>
  <path d="M 67.5 71.5 L 67.6 71.6 67.7 71.7 67.6 71.7 67.6 71.9 67.5 71.8 67.4 71.9 67.4 71.7 67.4 71.7 67.5 71.6 Z" stroke="None" stroke-width="None" fill="#ff2b00"/>
  <path d="M 29.2 37.8 L 29.3 38.0 29.5 38.1 29.4 38.2 29.4 38.4 29.2 38.4 29.0 38.4 28.9 38.2 28.8 38.1 29.0 38.0 Z" stroke="None" stroke-width="None" fill="#ff6200"/>
  <path d="M 14.0 20.9 L 14.2 21.1 14.5 21.3 14.3 21.5 14.3 21.8 14.0 21.8 13.6 21.8 13.6 21.5 13.5 21.3 13.8 21.1 Z" stroke="None" stroke-width="None" fill="#4aff00"/>
  <path d="M 50.7 57.8 L 51.0 58.1 51.4 58.3 51.1 58.6 51.1 59.1 50.7 59.0 50.3 59.1 50.3 58.6 50.0 58.3 50.4 58.1 Z" stroke="None" stroke-width="None" fill="#00ffb0"/>
  <path d="M 56.4 13.7 L 56.8 14.1 57.3 14.3 57.0 14.8 57.0 15.3 56.4 15.2 55.9 15.3 55.9 14.8 55.6 14.3 56.1 14.1 Z" stroke="None" stroke-width="None" fill="#4300ff"/>
  <path d="M 4.4 34.3 L 4.9 34.8 5.4 35.0 5.1 35.6 5.1 36.2 4.4 36.1 3.8 36.2 3.8 35.6 3.4 35.0 4.0 34.8 Z" stroke="None" stroke-width="None" fill="#70ff00"/>
  <path d="M 60.0 49.3 L 60.5 49.9 61.2 50.2 60.8 50.8 60.7 51.6 60.0 51.4 59.3 51.6 59.2 50.8 58.8 50.2 59.5 49.9 Z" stroke="None" stroke-width="None" fill="#fff400"/>
  <path d="M 7.2 44.5 L 7.8 45.1 8.5 45.4 8.1 46.2 8.0 47.0 7.2 46.8 6.4 47.0 6.3 46.2 5.9 45.4 6.7 45.1 Z" stroke="None" stroke-width="None" fill="#41ff00"/>
  <path d="M 21.6 88.5 L 22.3 89.2 23.1 89.6 22.6 90.4 22.6 91.4 21.6 91.1 20.7 91.4 20.6 90.4 20.1 89.6 21.0 89.2 Z" stroke="None" stroke-width="None" fill="#00e5ff"/>
  <path d="M 88.0 40.3 L 88.7 41.1 89.7 41.5 89.2 42.4 89.1 43.5 88.0 43.3 87.0 43.5 86.9 42.4 86.4 41.5 87.4 41.1 Z" stroke="None" stroke-width="None" fill="#00f2ff"/>
  <path d="M 36.2 82.5 L 36.9 83.4 38.0 83.8 37.4 84.8 37.3 86.0 36.2 85.7 35.0 86.0 34.9 84.8 34.3 83.8 35.4 83.4 Z" stroke="None" stroke-width="None" fill="#5a00ff"/>
  <path d="M 9.8 26.8 L 10.7 27.8 11.8 28.3 11.2 29.3 11.1 30.6 9.8 30.3 8.6 30.6 8.5 29.3 7.8 28.3 9.0 27.8 Z" stroke="None" stroke-width="None" fill="#007aff"/>
  <path d="M 15.0 74.5 L 15.9 75.6 17.2 76.1 16.5 77.3 16.4 78.7 15.0 78.3 13.7 78.7 13.5 77.3 12.8 76.1 14.1 75.6 Z" stroke="None" stroke-width="None" fill="#00ffca"/>
  <path d="M 18.8 60.0 L 19.7 61.1 21.1 61.7 20.3 62.9 20.2 64.4 18.8 64.1 17.3 64.4 17.2 62.9 16.4 61.7 17.8 61.1 Z" stroke="None" stroke-width="None" fill="#ffa100"/>
  <path d="M 40.7 13.1 L 41.7 14.3 43.2 14.9 42.3 16.3 42.2 17.9 40.7 17.5 39.1 17.9 39.0 16.3 38.1 14.9 39.6 14.3 Z" stroke="None" stroke-width="None" fill="#cc00ff"/>
  <path d="M 33.3 29.9 L 34.4 31.2 36.0 31.8 35.1 33.3 35.0 35.0 33.3 34.6 31.7 35.0 31.5 33.3 30.6 31.8 32.2 31.2 Z" stroke="None" stroke-width="None" fill="#ff9100"/>
  <path d="M 15.5 84.4 L 16.6 85.8 18.3 86.5 17.4 88.0 17.2 89.8 15.5 89.4 13.7 89.8 13.6 88.0 12.6 86.5 14.3 85.8 Z" stroke="None" stroke-width="None" fill="#ff0030"/>
  <path d="M 40.0 73.3 L 41.3 74.7 43.1 75.5 42.1 77.1 41.9 79.0 40.0 78.6 38.2 79.0 38.0 77.1 37.0 75.5 38.8 74.7 Z" stroke="None" stroke-width="None" fill="#00ff47"/>
  <path d="M 50.2 71.6 L 51.5 73.2 53.4 73.9 52.3 75.7 52.2 77.7 50.2 77.2 48.2 77.7 48.1 75.7 47.0 73.9 48.9 73.2 Z" stroke="None" stroke-width="None" fill="#b100ff"/>
  <path d="M 27.3 53.8 L 28.6 55.4 30.6 56.2 29.5 58.1 29.3 60.2 27.3 59.7 25.2 60.2 25.0 58.1 23.9 56.2 25.9 55.4 Z" stroke="None" stroke-width="None" fill="#c500ff"/>
  <path d="M 19.2 37.6 L 20.7 39.3 22.8 40.1 21.6 42.0 21.4 44.3 19.2 43.7 17.1 44.3 16.9 42.0 15.7 40.1 17.8 39.3 Z" stroke="None" stroke-width="None" fill="#ffc700"/>
  <path d="M 67.9 23.4 L 69.4 25.2 71.5 26.1 70.3 28.1 70.1 30.4 67.9 29.9 65.6 30.4 65.4 28.1 64.2 26.1 66.3 25.2 Z" stroke="None" stroke-width="None" fill="#eb00ff"/>
  <path d="M 20.7 61.4 L 22.3 63.3 24.6 64.2 23.3 66.3 23.1 68.7 20.7 68.2 18.3 68.7 18.2 66.3 16.9 64.2 19.1 63.3 Z" stroke="None" stroke-width="None" fill="#ff7700"/>
  <path d="M 80.2 77.3 L 81.9 79.2 84.3 80.2 82.9 82.4 82.7 84.9 80.2 84.3 77.8 84.9 77.6 82.4 76.2 80.2 78.6 79.2 Z" stroke="None" stroke-width="None" fill="#9b00ff"/>
  <path d="M 28.1 63.3 L 29.8 65.3 32.3 66.4 30.9 68.6 30.7 71.3 28.1 70.7 25.5 71.3 25.3 68.6 23.9 66.4 26.3 65.3 Z" stroke="None" stroke-width="None" fill="#00ffa8"/>
  <path d="M 45.8 24.1 L 47.6 26.2 50.2 27.3 48.7 29.6 48.5 32.4 45.8 31.7 43.1 32.4 42.9 29.6 41.4 27.3 44.0 26.2 Z" stroke="None" stroke-width="None" fill="#0089ff"/>
  <path d="M 45.1 71.1 L 47.0 73.3 49.6 74.4 48.1 76.8 47.9 79.7 45.1 79.0 42.3 79.7 42.1 76.8 40.6 74.4 43.2 73.3 Z" stroke="None" stroke-width="None" fill="#ff6e00"/>
  <path d="M 34.6 57.2 L 36.6 59.5 39.3 60.6 37.8 63.2 37.6 66.2 34.6 65.5 31.7 66.2 31.5 63.2 29.9 60.6 32.7 59.5 Z" stroke="None" stroke-width="None" fill="#2400ff"/>
  <path d="M 74.7 53.4 L 76.7 55.8 79.6 57.0 77.9 59.6 77.7 62.7 74.7 62.0 71.7 62.7 71.4 59.6 69.8 57.0 72.7 55.8 Z" stroke="None" stroke-width="None" fill="#ff0059"/>
  <path d="M 63.9 49.5 L 66.0 52.0 68.9 53.2 67.3 55.9 67.0 59.1 63.9 58.4 60.8 59.1 60.5 55.9 58.9 53.2 61.8 52.0 Z" stroke="None" stroke-width="None" fill="#4b00ff"/>
  <path d="M 28.1 35.5 L 30.3 38.0 33.3 39.3 31.6 42.1 31.4 45.4 28.1 44.6 24.9 45.4 24.7 42.1 22.9 39.3 26.0 38.0 Z" stroke="None" stroke-width="None" fill="#a600ff"/>
  <path d="M 32.0 22.2 L 34.2 24.8 37.4 26.1 35.6 29.0 35.3 32.4 32.0 31.6 28.7 32.4 28.4 29.0 26.6 26.1 29.8 24.8 Z" stroke="None" stroke-width="None" fill="#96ff00"/>
  <path d="M 47.6 53.9 L 49.9 56.5 53.2 57.9 51.3 60.9 51.1 64.4 47.6 63.6 44.2 64.4 44.0 60.9 42.1 57.9 45.4 56.5 Z" stroke="None" stroke-width="None" fill="#ff001a"/>
  <path d="M 43.2 24.8 L 45.5 27.6 48.9 28.9 47.0 32.0 46.7 35.6 43.2 34.8 39.7 35.6 39.4 32.0 37.5 28.9 40.8 27.6 Z" stroke="None" stroke-width="None" fill="#ff0073"/>
  <path d="M 52.2 28.6 L 54.6 31.4 58.1 32.8 56.1 36.0 55.9 39.7 52.2 38.8 48.6 39.7 48.3 36.0 46.3 32.8 49.8 31.4 Z" stroke="None" stroke-width="None" fill="#2e00ff"/>
  <path d="M 54.3 26.7 L 56.8 29.6 60.4 31.0 58.4 34.3 58.1 38.1 54.3 37.2 50.6 38.1 50.3 34.3 48.3 31.0 51.8 29.6 Z" stroke="None" stroke-width="None" fill="#ff4d00"/>
  <path d="M 48.0 25.1 L 50.5 28.1 54.2 29.6 52.1 32.9 51.8 36.9 48.0 35.9 44.1 36.9 43.8 32.9 41.8 29.6 45.4 28.1 Z" stroke="None" stroke-width="None" fill="#ffc100"/>
  <path d="M 68.6 28.1 L 71.2 31.2 75.0 32.8 72.8 36.2 72.5 40.3 68.6 39.3 64.6 40.3 64.3 36.2 62.2 32.8 65.9 31.2 Z" stroke="None" stroke-width="None" fill="#0002ff"/>
  <path d="M 38.3 43.0 L 41.0 46.2 44.8 47.7 42.7 51.3 42.3 55.4 38.3 54.5 34.3 55.4 33.9 51.3 31.8 47.7 35.6 46.2 Z" stroke="None" stroke-width="None" fill="#4800ff"/>
  <path d="M 68.0 47.9 L 70.7 51.2 74.7 52.8 72.5 56.5 72.1 60.7 68.0 59.7 63.8 60.7 63.5 56.5 61.3 52.8 65.2 51.2 Z" stroke="None" stroke-width="None" fill="#004eff"/>
  <path d="M 65.7 50.3 L 68.6 53.6 72.6 55.3 70.3 59.0 70.0 63.3 65.7 62.3 61.5 63.3 61.2 59.0 58.9 55.3 62.9 53.6 Z" stroke="None" stroke-width="None" fill="#ff4800"/>
  <path d="M 40.7 43.8 L 43.6 47.2 47.8 49.0 45.4 52.8 45.1 57.2 40.7 56.2 36.4 57.2 36.0 52.8 33.7 49.0 37.8 47.2 Z" stroke="None" stroke-width="None" fill="#1500ff"/>
  <path d="M 59.1 52.0 L 62.1 55.5 66.3 57.2 63.9 61.1 63.6 65.7 59.1 64.6 54.7 65.7 54.3 61.1 51.9 57.2 56.2 55.5 Z" stroke="None" stroke-width="None" fill="#00ff93"/>
  <path d="M 42.3 53.1 L 45.3 56.6 49.7 58.4 47.2 62.4 46.8 67.1 42.3 66.0 37.7 67.1 37.3 62.4 34.9 58.4 39.2 56.6 Z" stroke="None" stroke-width="None" fill="#0024ff"/>
  <path d="M 43.8 44.7 L 46.9 48.3 51.3 50.1 48.8 54.2 48.4 59.0 43.8 57.9 39.1 59.0 38.7 54.2 36.2 50.1 40.7 48.3 Z" stroke="None" stroke-width="None" fill="#ff0900"/>
  <path d="M 45.5 28.9 L 48.7 32.6 53.2 34.5 50.7 38.6 50.3 43.5 45.5 42.4 40.7 43.5 40.4 38.6 37.8 34.5 42.3 32.6 Z" stroke="None" stroke-width="None" fill="#ffb000"/>
  <path d="M 47.9 34.1 L 51.2 37.9 55.8 39.8 53.2 44.1 52.8 49.1 47.9 47.9 43.1 49.1 42.7 44.1 40.1 39.8 44.7 37.9 Z" stroke="None" stroke-width="None" fill="#40ff00"/>
  <path d="M 48.1 43.7 L 51.4 47.6 56.2 49.6 53.5 53.9 53.1 59.0 48.1 57.8 43.1 59.0 42.7 53.9 40.0 49.6 44.8 47.6 Z" stroke="None" stroke-width="None" fill="#3fff00"/>
  <path d="M 51.8 46.6 L 55.2 50.6 60.0 52.6 57.3 57.0 56.9 62.2 51.8 61.0 46.7 62.2 46.3 57.0 43.6 52.6 48.4 50.6 Z" stroke="None" stroke-width="None" fill="#ff4a00"/>
  <path d="M 47.3 45.6 L 50.7 49.6 55.7 51.7 52.9 56.2 52.5 61.5 47.3 60.3 42.1 61.5 41.7 56.2 38.9 51.7 43.8 49.6 Z" stroke="None" stroke-width="None" fill="#00fbff"/>
  <path d="M 53.0 48.8 L 56.6 52.9 61.6 55.0 58.8 59.7 58.3 65.1 53.0 63.8 47.8 65.1 47.3 59.7 44.5 55.0 49.5 52.9 Z" stroke="None" stroke-width="None" fill="#00fdff"/>
  <path d="M 42.4 51.1 L 46.0 55.3 51.1 57.5 48.2 62.2 47.8 67.7 42.4 66.4 37.0 67.7 36.6 62.2 33.7 57.5 38.8 55.3 Z" stroke="None" stroke-width="None" fill="#ff0096"/>
  <path d="M 40.3 45.0 L 44.0 49.3 49.2 51.5 46.3 56.3 45.8 62.0 40.3 60.6 34.8 62.0 34.4 56.3 31.4 51.5 36.7 49.3 Z" stroke="None" stroke-width="None" fill="#ffce00"/>
  <path d="M 56.6 49.2 L 60.3 53.6 65.7 55.8 62.6 60.7 62.2 66.5 56.6 65.1 51.0 66.5 50.6 60.7 47.5 55.8 52.9 53.6 Z" stroke="None" stroke-width="None" fill="#3eff00"/>
  <path d="M 57.1 35.3 L 60.9 39.8 66.3 42.0 63.2 47.0 62.8 52.8 57.1 51.5 51.4 52.8 50.9 47.0 47.8 42.0 53.3 39.8 Z" stroke="None" stroke-width="None" fill="#ff00dd"/>
  <path d="M 47.4 40.7 L 51.2 45.2 56.8 47.5 53.6 52.6 53.2 58.6 47.4 57.1 41.6 58.6 41.1 52.6 38.0 47.5 43.5 45.2 Z" stroke="None" stroke-width="None" fill="#ff00c9"/>
  <path d="M 49.3 32.9 L 53.3 37.6 58.9 39.9 55.7 45.1 55.2 51.1 49.3 49.7 43.4 51.1 43.0 45.1 39.8 39.9 45.4 37.6 Z" stroke="None" stroke-width="None" fill="#0097ff"/>
  <path d="M 44.7 35.7 L 48.7 40.4 54.4 42.8 51.2 48.1 50.7 54.2 44.7 52.8 38.7 54.2 38.2 48.1 35.0 42.8 40.7 40.4 Z" stroke="None" stroke-width="None" fill="#ff007b"/>
  <path d="M 50.4 36.3 L 54.5 41.1 60.3 43.5 57.0 48.8 56.5 55.1 50.4 53.6 44.3 55.1 43.8 48.8 40.5 43.5 46.3 41.1 Z" stroke="None" stroke-width="None" fill="#d8ff00"/>
  <path d="M 44.6 38.4 L 48.7 43.3 54.7 45.7 51.3 51.1 50.8 57.5 44.6 56.0 38.4 57.5 37.9 51.1 34.5 45.7 40.4 43.3 Z" stroke="None" stroke-width="None" fill="#003dff"/>
  <path d="M 45.8 44.2 L 50.1 49.1 56.1 51.6 52.7 57.2 52.2 63.7 45.8 62.1 39.5 63.7 39.0 57.2 35.6 51.6 41.6 49.1 Z" stroke="None" stroke-width="None" fill="#00ff9c"/>
  <path d="M 46.3 39.4 L 50.6 44.4 56.7 47.0 53.2 52.6 52.7 59.2 46.3 57.6 39.8 59.2 39.3 52.6 35.9 47.0 42.0 44.4 Z" stroke="None" stroke-width="None" fill="#ff4d00"/>
  <path d="M 50.0 36.9 L 54.4 42.1 60.6 44.6 57.1 50.3 56.6 57.0 50.0 55.5 43.5 57.0 43.0 50.3 39.5 44.6 45.7 42.1 Z" stroke="None" stroke-width="None" fill="#ff9600"/>
  <path d="M 49.3 39.1 L 53.8 44.3 60.1 46.9 56.5 52.8 56.0 59.6 49.3 58.0 42.7 59.6 42.2 52.8 38.6 46.9 44.9 44.3 Z" stroke="None" stroke-width="None" fill="#de00ff"/>
  <path d="M 50.0 38.1 L 54.5 43.4 60.9 46.0 57.3 51.9 56.7 58.8 50.0 57.2 43.3 58.8 42.7 51.9 39.1 46.0 45.5 43.4 Z" stroke="None" stroke-width="None" fill="#ff0044"/>
  <path d="M 50.0 38.8 L 54.5 44.2 61.1 46.8 57.4 52.8 56.8 59.9 50.0 58.2 43.1 59.9 42.6 52.8 38.9 46.8 45.4 44.2 Z" stroke="None" stroke-width="None" fill="#ff00bb"/>
  <path d="M 50.1 38.2 L 54.7 43.7 61.3 46.4 57.6 52.5 57.0 59.6 50.1 57.9 43.1 59.6 42.6 52.5 38.8 46.4 45.4 43.7 Z" stroke="None" stroke-width="None" fill="#9100ff"/>
</svg>
