<?xml version='1.0' encoding='UTF-8' standalone='no'?>
<svg xmlns="http://www.w3.org/2000/svg" xmlns:xlink="http://www.w3.org/1999/xlink" version="1.1" viewBox="0 0 100 100">
  <rect x="0" y="0" width="100" height="100" fill="none" stroke="black" stroke-width="1" id="border" opacity="0.8"/>
  <path d="M 83.7 7.5 L 89.6 19.4 102.8 21.3 93.2 30.6 95.5 43.7 83.7 37.5 72.0 43.7 74.2 30.6 64.7 21.3 77.9 19.4 Z" stroke="#ff00c7" stroke-width="0.6" fill="transparent"/>
  <path d="M 43.9 1.6 L 49.7 13.5 62.9 15.4 53.4 24.7 55.6 37.8 43.9 31.6 32.1 37.8 34.3 24.7 24.8 15.4 38.0 13.5 Z" stroke="#9fff00" stroke-width="0.6" fill="transparent"/>
  <path d="M 44.8 -8.8 L 50.6 3.1 63.8 5.0 54.3 14.2 56.5 27.3 44.8 21.2 33.0 27.3 35.2 14.2 25.7 5.0 38.9 3.1 Z" stroke="#00a7ff" stroke-width="0.6" fill="transparent"/>
  <path d="M 72.8 18.7 L 78.7 30.7 91.8 32.6 82.3 41.8 84.6 54.9 72.8 48.7 61.1 54.9 63.3 41.8 53.8 32.6 66.9 30.7 Z" stroke="#ffc800" stroke-width="0.6" fill="transparent"/>
  <path d="M 47.3 -3.6 L 53.2 8.3 66.3 10.2 56.8 19.5 59.0 32.6 47.3 26.4 35.5 32.6 37.8 19.5 28.3 10.2 41.4 8.3 Z" stroke="#3600ff" stroke-width="0.6" fill="transparent"/>
  <path d="M 22.6 32.2 L 28.5 44.1 41.6 46.1 32.1 55.3 34.4 68.4 22.6 62.2 10.9 68.4 13.1 55.3 3.6 46.1 16.7 44.1 Z" stroke="#5fff00" stroke-width="0.6" fill="transparent"/>
  <path d="M 81.2 38.3 L 87.1 50.2 100.3 52.1 90.8 61.4 93.0 74.5 81.2 68.3 69.5 74.5 71.7 61.4 62.2 52.1 75.4 50.2 Z" stroke="#ff00c6" stroke-width="0.6" fill="transparent"/>
  <path d="M 75.4 59.0 L 81.3 70.9 94.5 72.8 85.0 82.1 87.2 95.2 75.4 89.0 63.7 95.2 65.9 82.1 56.4 72.8 69.6 70.9 Z" stroke="#00ffb4" stroke-width="0.6" fill="transparent"/>
  <path d="M 49.6 31.9 L 55.4 43.8 68.6 45.7 59.1 55.0 61.3 68.1 49.6 61.9 37.8 68.1 40.1 55.0 30.5 45.7 43.7 43.8 Z" stroke="#00ffe8" stroke-width="0.6" fill="transparent"/>
  <path d="M 42.2 54.9 L 48.1 66.8 61.3 68.7 51.8 78.0 54.0 91.1 42.2 84.9 30.5 91.1 32.7 78.0 23.2 68.7 36.4 66.8 Z" stroke="#0096ff" stroke-width="0.6" fill="transparent"/>
  <path d="M 44.7 24.9 L 50.5 36.8 63.7 38.7 54.2 47.9 56.4 61.0 44.7 54.9 32.9 61.0 35.1 47.9 25.6 38.7 38.8 36.8 Z" stroke="#0064ff" stroke-width="0.6" fill="transparent"/>
  <path d="M 11.9 -9.6 L 17.7 2.3 30.9 4.2 21.4 13.5 23.6 26.6 11.9 20.4 0.1 26.6 2.3 13.5 -7.2 4.2 6.0 2.3 Z" stroke="#00ff0f" stroke-width="0.6" fill="transparent"/>
  <path d="M 11.6 43.7 L 17.5 55.6 30.6 57.5 21.1 66.8 23.3 79.9 11.6 73.7 -0.2 79.9 2.1 66.8 -7.4 57.5 5.7 55.6 Z" stroke="#3a00ff" stroke-width="0.6" fill="transparent"/>
  <path d="M 80.3 35.2 L 86.2 47.1 99.3 49.0 89.8 58.3 92.0 71.3 80.3 65.2 68.5 71.3 70.8 58.3 61.3 49.0 74.4 47.1 Z" stroke="#ff005c" stroke-width="0.6" fill="transparent"/>
  <path d="M 34.7 68.9 L 40.5 80.8 53.7 82.7 44.2 92.0 46.4 105.1 34.7 98.9 22.9 105.1 25.1 92.0 15.6 82.7 28.8 80.8 Z" stroke="#e1ff00" stroke-width="0.6" fill="transparent"/>
  <path d="M 19.8 1.9 L 25.6 13.8 38.8 15.7 29.3 25.0 31.5 38.1 19.8 31.9 8.0 38.1 10.3 25.0 0.7 15.7 13.9 13.8 Z" stroke="#48ff00" stroke-width="0.6" fill="transparent"/>
  <path d="M 76.6 53.2 L 82.4 65.1 95.6 67.1 86.1 76.3 88.3 89.4 76.6 83.2 64.8 89.4 67.1 76.3 57.6 67.1 70.7 65.1 Z" stroke="#ffd100" stroke-width="0.6" fill="transparent"/>
  <path d="M 53.8 1.5 L 59.6 13.4 72.8 15.3 63.3 24.6 65.5 37.7 53.8 31.5 42.0 37.7 44.3 24.6 34.8 15.3 47.9 13.4 Z" stroke="#ff00f3" stroke-width="0.6" fill="transparent"/>
  <path d="M 75.4 -3.7 L 81.3 8.3 94.5 10.2 85.0 19.4 87.2 32.5 75.4 26.3 63.7 32.5 65.9 19.4 56.4 10.2 69.6 8.3 Z" stroke="#6dff00" stroke-width="0.6" fill="transparent"/>
  <path d="M 88.3 43.0 L 94.2 54.9 107.3 56.8 97.8 66.1 100.1 79.2 88.3 73.0 76.6 79.2 78.8 66.1 69.3 56.8 82.4 54.9 Z" stroke="#ff6200" stroke-width="0.6" fill="transparent"/>
  <path d="M 62.9 29.5 L 68.8 41.4 81.9 43.3 72.4 52.6 74.7 65.6 62.9 59.5 51.1 65.6 53.4 52.6 43.9 43.3 57.0 41.4 Z" stroke="#00ffa2" stroke-width="0.6" fill="transparent"/>
  <path d="M 75.7 9.9 L 81.5 21.9 94.7 23.8 85.2 33.0 87.4 46.1 75.7 39.9 63.9 46.1 66.2 33.0 56.6 23.8 69.8 21.9 Z" stroke="#ff00b9" stroke-width="0.6" fill="transparent"/>
  <path d="M 82.1 63.8 L 87.9 75.7 101.1 77.6 91.6 86.9 93.8 100.0 82.1 93.8 70.3 100.0 72.5 86.9 63.0 77.6 76.2 75.7 Z" stroke="#00ffe9" stroke-width="0.6" fill="transparent"/>
  <path d="M 60.4 -1.4 L 66.3 10.5 79.4 12.4 69.9 21.7 72.2 34.8 60.4 28.6 48.7 34.8 50.9 21.7 41.4 12.4 54.5 10.5 Z" stroke="#00ffd5" stroke-width="0.6" fill="transparent"/>
  <path d="M 32.2 -9.8 L 38.1 2.1 51.2 4.0 41.7 13.3 43.9 26.4 32.2 20.2 20.4 26.4 22.7 13.3 13.2 4.0 26.3 2.1 Z" stroke="#00ff54" stroke-width="0.6" fill="transparent"/>
  <path d="M 76.4 -6.6 L 82.3 5.3 95.4 7.2 85.9 16.4 88.2 29.5 76.4 23.4 64.7 29.5 66.9 16.4 57.4 7.2 70.5 5.3 Z" stroke="#00f4ff" stroke-width="0.6" fill="transparent"/>
  <path d="M 31.7 1.1 L 37.5 13.0 50.7 14.9 41.2 24.2 43.4 37.3 31.7 31.1 19.9 37.3 22.1 24.2 12.6 14.9 25.8 13.0 Z" stroke="#00ff60" stroke-width="0.6" fill="transparent"/>
  <path d="M 53.2 64.5 L 59.1 76.4 72.3 78.3 62.7 87.6 65.0 100.7 53.2 94.5 41.5 100.7 43.7 87.6 34.2 78.3 47.4 76.4 Z" stroke="#ff8900" stroke-width="0.6" fill="transparent"/>
  <path d="M 54.4 28.1 L 60.3 40.1 73.4 42.0 63.9 51.2 66.1 64.3 54.4 58.1 42.6 64.3 44.9 51.2 35.4 42.0 48.5 40.1 Z" stroke="#1d00ff" stroke-width="0.6" fill="transparent"/>
  <path d="M 20.0 59.6 L 25.9 71.6 39.1 73.5 29.6 82.7 31.8 95.8 20.0 89.6 8.3 95.8 10.5 82.7 1.0 73.5 14.2 71.6 Z" stroke="#00ffc7" stroke-width="0.6" fill="transparent"/>
</svg>
