<?xml version='1.0' encoding='UTF-8' standalone='no'?>
<svg xmlns="http://www.w3.org/2000/svg" xmlns:xlink="http://www.w3.org/1999/xlink" version="1.1" viewBox="0 0 100 100">
  <rect x="0" y="0" width="100" height="100" fill="#eeeeee" stroke="black" stroke-width="1" id="border" opacity="0.8"/>
  <path d="M0 0 V100" stroke="green" stroke-width="0.2" fill="transparent"/>
  <path d="M0 0 H100" stroke="green" stroke-width="0.2" fill="transparent"/>
  <path d="M10 0 V100" stroke="green" stroke-width="0.2" fill="transparent"/>
  <path d="M0 10 H100" stroke="green" stroke-width="0.2" fill="transparent"/>
  <path d="M20 0 V100" stroke="green" stroke-width="0.2" fill="transparent"/>
  <path d="M0 20 H100" stroke="green" stroke-width="0.2" fill="transparent"/>
  <path d="M30 0 V100" stroke="green" stroke-width="0.2" fill="transparent"/>
  <path d="M0 30 H100" stroke="green" stroke-width="0.2" fill="transparent"/>
  <path d="M40 0 V100" stroke="green" stroke-width="0.2" fill="transparent"/>
  <path d="M0 40 H100" stroke="green" stroke-width="0.2" fill="transparent"/>
  <path d="M50 0 V100" stroke="green" stroke-width="0.2" fill="transparent"/>
  <path d="M0 50 H100" stroke="green" stroke-width="0.2" fill="transparent"/>
  <path d="M60 0 V100" stroke="green" stroke-width="0.2" fill="transparent"/>
  <path d="M0 60 H100" stroke="green" stroke-width="0.2" fill="transparent"/>
  <path d="M70 0 V100" stroke="green" stroke-width="0.2" fill="transparent"/>
  <path d="M0 70 H100" stroke="green" stroke-width="0.2" fill="transparent"/>
  <path d="M80 0 V100" stroke="green" stroke-width="0.2" fill="transparent"/>
  <path d="M0 80 H100" stroke="green" stroke-width="0.2" fill="transparent"/>
  <path d="M90 0 V100" stroke="green" stroke-width="0.2" fill="transparent"/>
  <path d="M0 90 H100" stroke="green" stroke-width="0.2" fill="transparent"/>
  <path d="M100 0 V100" stroke="green" stroke-width="0.2" fill="transparent"/>
  <path d="M0 100 H100" stroke="green" stroke-width="0.2" fill="transparent"/>
  <path d="M 50.0 10.0 L 58.8 37.9 88.0 37.6 64.3 54.6 73.5 82.4 50.0 65.0 26.5 82.4 35.7 54.6 12.0 37.6 41.2 37.9 Z" stroke="green" stroke-width="0.6" fill="transparent"/>
</svg>
