<?xml version='1.0' encoding='UTF-8' standalone='no'?>
<svg xmlns="http://www.w3.org/2000/svg" xmlns:xlink="http://www.w3.org/1999/xlink" version="1.1" width="100%" viewBox="0 0 200 200">
  <rect x="0" y="0" width="200" height="200" fill="none" stroke="black" stroke-width="1" id="border" opacity="0.8"/>
  <path d="M 104.0 100.5 L  104.2 101.0 104.5 101.4 104.7 101.6 104.9 101.5 105.2 101.3 105.4 100.8 105.6 100.1 105.8 99.4 106.1 98.7 106.3 98.1 106.5 97.8 106.8 97.8 107.0 98.2 107.2 98.8 107.5 99.7 107.7 100.6 107.9 101.6 108.2 102.3 108.4 102.8 108.6 102.8 108.8 102.4 109.1 101.7 109.3 100.6 109.5 99.4 109.8 98.3 110.0 97.3 110.2 96.7 110.5 96.6 110.7 96.9 110.9 97.8 111.1 99.0 111.4 100.4 111.6 101.9 111.8 103.0 112.1 103.8 112.3 104.1 112.5 103.7 112.8 102.8 113.0 101.4 113.2 99.8 113.5 98.1 113.7 96.7 113.9 95.7 114.1 95.3 114.4 95.6 114.6 96.5 114.8 98.1 115.1 99.9 115.3 101.8 115.5 103.5 115.8 104.8 116.0 105.3 116.2 105.1 116.5 104.1 116.7 102.5 116.9 100.5 117.1 98.3 117.4 96.4 117.6 94.9 117.8 94.1 118.1 94.2 118.3 95.1 118.5 96.8 118.8 99.0 119.0 101.4 119.2 103.7 119.4 105.4 119.7 106.4 119.9 106.5 120.1 105.6 120.4 103.9 120.6 101.5 120.8 98.9 121.1 96.3 121.3 94.3 121.5 93.1 121.8 92.8 122.0 93.6 122.2 95.4 122.4 97.9 122.7 100.7 122.9 103.5 123.1 105.9 123.4 107.4 123.6 107.9 123.8 107.2 124.1 105.4 124.3 102.8 124.5 99.8 124.8 96.7 125.0 94.0 125.2 92.2 125.4 91.5 125.7 92.0 125.9 93.8 126.1 96.4 126.4 99.7 126.6 103.0 126.8 106.0 127.1 108.1 127.3 109.1 127.5 108.7 127.7 107.1 128.0 104.4 128.2 101.0 128.4 97.4 128.7 94.1 128.9 91.7 129.1 90.4 129.4 90.5 129.6 92.0 129.8 94.7 130.1 98.3 130.3 102.1 130.5 105.7 130.7 108.5 131.0 110.1 131.2 110.2 131.4 108.9 131.7 106.2 131.9 102.5 132.1 98.5 132.4 94.6 132.6 91.4 132.8 89.5 133.1 89.0 133.3 90.2 133.5 92.9 133.7 96.6 134.0 100.9 134.2 105.1 134.4 108.6 134.7 110.9 134.9 111.6 135.1 110.7 135.4 108.1 135.6 104.3 135.8 99.9 136.1 95.4 136.3 91.5 136.5 88.8 136.7 87.8 137.0 88.5 137.2 90.9 137.4 94.7 137.7 99.3 137.9 104.0 138.1 108.3 138.4 111.4 138.6 112.8 138.8 112.4 139.0 110.1 139.3 106.4 139.5 101.6 139.7 96.6 140.0 92.0 140.2 88.5 140.4 86.7 140.7 86.8 140.9 88.8 141.1 92.5 141.4 97.4 141.6 102.6 141.8 107.6 142.0 111.5 142.3 113.7 142.5 114.0 142.7 112.2 143.0 108.6 143.2 103.7 143.4 98.2 143.7 92.9 143.9 88.6 144.1 85.9 144.4 85.3 144.6 86.8 144.8 90.2 145.0 95.2 145.3 100.9 145.5 106.5 145.7 111.2 146.0 114.3 146.2 115.4 146.4 114.2 146.7 110.9 146.9 106.0 147.1 100.2 147.3 94.2 147.6 89.1 147.8 85.5 148.0 84.0 148.3 84.8 148.5 87.9 148.7 92.8 149.0 98.7 149.2 105.0 149.4 110.5 149.7 114.6 149.9 116.5 150.1 116.1 150.3 113.3 150.6 108.5 150.8 102.4 151.0 96.0 151.3 90.0 151.5 85.5 151.7 83.0 152.0 83.0 152.2 85.5 152.4 90.2 152.7 96.3 152.9 103.0 153.1 109.4 153.3 114.4 153.6 117.3 153.8 117.8 154.0 115.6 154.3 111.1 154.5 105.0 154.7 98.1 155.0 91.4 155.2 85.9 155.4 82.4 155.6 81.5 155.9 83.3 156.1 87.5 156.3 93.6 156.6 100.7 156.8 107.8 157.0 113.7 157.3 117.7 157.5 119.2 157.7 117.8 158.0 113.8 158.2 107.8 158.4 100.6 158.6 93.2 158.9 86.8 159.1 82.2 159.3 80.3 159.6 81.2 159.8 84.8 160.0 90.7 160.3 98.1 160.5 105.7 160.7 112.6 161.0 117.7 161.2 120.2 161.4 119.8 161.6 116.5 161.9 110.7 162.1 103.4 162.3 95.5 162.6 88.1 162.8 82.5 163.0 79.4 163.3 79.3 163.5 82.2 163.7 87.7 163.9 95.1 164.2 103.3 164.4 111.0 164.6 117.2 164.9 120.9 165.1 121.5 165.3 119.1 165.6 113.8 165.8 106.4 166.0 98.1 166.3 90.0 166.5 83.3 166.7 79.0 166.9 77.7 167.2 79.7 167.4 84.7 167.6 91.9 167.9 100.4 168.1 108.9 168.3 116.1 168.6 121.1 168.8 122.9 169.0 121.5 169.3 116.8 169.5 109.7 169.7 101.1 169.9 92.3 170.2 84.6 170.4 79.0 170.6 76.5 170.9 77.4 171.1 81.7 171.3 88.6 171.6 97.2 171.8 106.4 172.0 114.6 172.3 120.7 172.5 123.9 172.7 123.6 172.9 119.8 173.2 113.1 173.4 104.5 173.6 95.1 173.9 86.4 174.1 79.6 174.3 75.8 174.6 75.5 174.8 78.8 175.0 85.2 175.2 93.8 175.5 103.4 175.7 112.5 175.9 119.9 176.2 124.4 176.4 125.3 176.6 122.6 176.9 116.5 177.1 108.0 177.3 98.3 177.6 88.7 177.8 80.8 178.0 75.6 178.2 73.9 178.5 76.1 178.7 81.8 178.9 90.1 179.2 100.0 179.4 109.9 179.6 118.4 179.9 124.3 180.1 126.7 180.3 125.1 180.6 119.9 180.8 111.8 181.0 101.8 181.2 91.6 181.5 82.5 181.7 75.9 181.9 72.8 182.2 73.7 182.4 78.4 182.6 86.3 182.9 96.3 183.1 106.8 183.3 116.4 183.5 123.7 183.8 127.5 184.0 127.4 184.2 123.2 184.5 115.6 184.7 105.7 184.9 94.9 185.2 84.8 185.4 76.8 185.6 72.2 185.9 71.7 186.1 75.3 186.3 82.5 186.5 92.3 186.8 103.3 187.0 113.9 187.2 122.5 187.5 127.8 187.7 129.1 187.9 126.2 188.2 119.4 188.4 109.7 188.6 98.6 188.9 87.6 189.1 78.4 189.3 72.2 189.5 70.2 189.8 72.4 190.0 78.7 190.2 88.2 190.5 99.4 190.7 110.8 190.9 120.6 191.2 127.5 191.4 130.4 191.6 128.9 191.8 123.1 192.1 113.9 192.3 102.7 192.5 91.0 192.8 80.5 193.0 72.9 193.2 69.1 193.5 69.9 193.7 75.1 193.9 83.9 194.2 95.2 194.4 107.2 194.6 118.2 194.8 126.6 195.1 131.1 195.3 131.2 195.5 126.6 195.8 118.2 196.0 107.0" stroke="#ff1500" stroke-width="0.6" fill="transparent">
    <animateTransform attributeName="transform" attributeType="xml" type="rotate" from="0 100 100" to="360 100 100" dur="8s" repeatCount="indefinite"/>
  </path>
  <path d="M 102.9 102.8 L  102.8 103.3 102.8 103.7 102.9 104.0 103.1 104.1 103.4 104.1 103.9 103.8 104.5 103.4 105.1 102.9 105.7 102.5 106.2 102.2 106.6 102.1 106.7 102.2 106.7 102.6 106.6 103.3 106.2 104.1 105.8 105.0 105.5 105.9 105.2 106.7 105.2 107.2 105.3 107.3 105.7 107.2 106.4 106.7 107.2 106.0 108.1 105.1 108.9 104.3 109.7 103.7 110.2 103.3 110.5 103.4 110.4 103.8 110.1 104.6 109.6 105.8 109.0 107.0 108.3 108.3 107.8 109.4 107.5 110.2 107.5 110.5 107.9 110.4 108.7 109.8 109.7 108.8 110.8 107.6 112.0 106.4 113.0 105.4 113.8 104.7 114.2 104.5 114.2 104.9 113.8 105.8 113.1 107.1 112.2 108.8 111.3 110.5 110.5 112.0 110.0 113.1 109.8 113.7 110.1 113.7 110.9 113.0 112.0 111.8 113.4 110.3 114.9 108.7 116.2 107.3 117.3 106.2 117.9 105.7 118.0 105.9 117.7 106.8 116.9 108.3 115.7 110.2 114.5 112.3 113.4 114.3 112.5 115.8 112.1 116.8 112.3 117.0 113.0 116.4 114.2 115.1 115.8 113.3 117.5 111.3 119.2 109.4 120.6 107.9 121.5 107.0 121.8 107.0 121.5 107.8 120.7 109.3 119.4 111.5 117.9 113.9 116.5 116.3 115.3 118.3 114.6 119.7 114.5 120.2 115.1 119.8 116.3 118.5 118.0 116.6 120.0 114.2 122.0 111.9 123.7 109.9 125.0 108.5 125.6 108.1 125.4 108.7 124.6 110.2 123.2 112.5 121.5 115.2 119.8 118.1 118.2 120.6 117.1 122.5 116.7 123.4 117.1 123.2 118.3 122.1 120.1 120.0 122.2 117.4 124.5 114.6 126.7 112.1 128.3 110.2 129.2 109.3 129.3 109.6 128.6 110.9 127.2 113.3 125.3 116.3 123.3 119.5 121.3 122.5 119.9 125.0 119.1 126.4 119.2 126.6 120.2 125.7 122.0 123.6 124.3 120.8 126.9 117.6 129.4 114.6 131.4 112.2 132.7 110.8 133.2 110.6 132.7 111.7 131.3 113.9 129.3 117.1 127.0 120.7 124.7 124.2 122.8 127.2 121.6 129.2 121.4 129.9 122.2 129.3 123.8 127.3 126.2 124.4 129.0 121.0 131.9 117.5 134.3 114.5 136.1 112.4 136.9 111.7 136.7 112.4 135.5 114.5 133.4 117.7 130.9 121.5 128.3 125.5 126.0 129.1 124.4 131.7 123.7 133.0 124.1 132.8 125.6 131.2 128.0 128.3 131.0 124.6 134.1 120.6 137.0 117.0 139.3 114.3 140.5 113.0 140.7 113.2 139.7 115.0 137.7 118.1 135.0 122.2 132.1 126.6 129.4 130.7 127.3 134.0 126.1 136.0 126.2 136.3 127.4 135.0 129.7 132.2 132.8 128.4 136.2 124.1 139.5 119.9 142.2 116.6 144.0 114.5 144.5 114.2 143.8 115.5 142.0 118.4 139.3 122.6 136.1 127.3 133.0 132.0 130.4 135.9 128.8 138.6 128.3 139.6 129.2 138.8 131.3 136.3 134.4 132.4 138.0 127.8 141.7 123.2 144.9 119.1 147.2 116.4 148.3 115.3 148.0 116.1 146.4 118.7 143.7 122.8 140.4 127.8 136.9 132.9 133.8 137.5 131.6 141.0 130.6 142.7 131.1 142.5 132.9 140.3 135.9 136.6 139.7 131.8 143.7 126.7 147.3 122.1 150.2 118.5 151.8 116.7 152.0 116.8 150.7 119.0 148.2 122.9 144.8 128.0 141.0 133.5 137.5 138.8 134.7 143.0 133.2 145.5 133.1 146.0 134.5 144.4 137.4 140.9 141.1 136.1 145.4 130.6 149.5 125.3 152.9 121.0 155.2 118.4 155.9 117.7 155.0 119.3 152.7 122.9 149.3 128.0 145.3 133.8 141.4 139.7 138.1 144.6 135.9 148.0 135.2 149.3 136.2 148.3 138.8 145.3 142.5 140.5 146.9 134.8 151.4 129.0 155.4 123.9 158.3 120.4 159.6 118.9 159.3 119.8 157.3 122.9 154.0 127.8 149.9 133.9 145.6 140.2 141.7 145.9 138.9 150.1 137.6 152.3 138.0 152.1 140.2 149.6 143.7 145.1 148.3 139.2 153.1 133.0 157.6 127.2 161.1 122.8 163.1 120.4 163.4 120.4 161.8 122.9 158.8 127.5 154.6 133.6 150.0 140.4 145.6 146.8 142.2 151.9 140.2 155.0 140.0 155.7 141.6 153.8 144.9 149.7 149.4 143.9 154.5 137.3 159.5 130.8 163.6 125.6 166.3 122.2 167.3 121.3 166.3 123.1 163.5 127.2 159.5 133.2 154.7 140.2 149.9 147.2 145.8 153.2 143.1 157.3 142.2 159.0 143.2 157.9 146.1 154.3 150.5 148.7 155.7 141.9 161.1 134.9 165.8 128.8 169.3 124.4 170.9 122.5 170.6 123.4 168.3 127.0 164.4 132.7 159.5 139.8 154.3 147.3 149.7 154.1 146.3 159.2 144.6 161.9 145.0 161.8 147.4 158.9 151.5 153.6 156.8 146.7 162.5 139.3 167.8 132.4 171.9 127.1 174.4 124.1 174.7 124.0 173.0 126.8 169.4 132.1 164.5 139.2 159.1 147.1 153.9 154.6 149.8 160.7 147.3 164.5 146.9 165.4 148.7 163.3 152.5 158.6 157.7 151.8 163.6 144.1 169.4 136.5 174.2 130.2 177.5 126.1 178.6 124.9 177.5 126.8 174.4 131.5 169.7 138.4 164.1 146.5 158.4 154.7 153.6 161.7 150.3 166.6 149.1 168.7 150.2 167.6 153.5 163.5 158.4 157.0 164.5 149.1 170.7 140.9 176.2 133.7 180.3 128.5 182.3 126.2 181.9 127.0 179.3 131.0 174.9 137.5 169.2 145.7 163.2 154.4 157.7 162.3 153.7 168.3 151.6 171.5 151.9 171.5 154.5 168.3 159.2 162.3 165.2 154.4 171.7 145.8 177.9 137.7 182.7 131.5 185.6 127.9 186.1 127.6 184.2 130.6 180.1 136.6 174.5 144.7 168.3 153.7 162.2 162.4 157.4 169.5 154.4 173.9 153.8 175.1 155.7 172.9 159.9 167.5 165.8 159.8 172.5 151.0 179.2 142.2 184.8 134.9 188.6 130.0 190.0 128.5 188.8 130.5 185.3 135.7 179.9 143.5 173.5 152.7 167.0 162.0 161.4 170.1 157.6 175.8 156.1 178.3 157.1 177.2 160.7 172.7 166.3 165.4 173.1 156.4 180.2 147.1 186.5 138.8 191.2 132.7 193.6 129.8 193.3 130.6 190.4 134.9 185.4 142.2 179.0 151.4 172.1 161.3 165.9 170.3 161.1 177.3 158.6 181.1 158.8 181.2 161.6 177.7 166.8 171.0 173.5 162.1" stroke="#ffaa00" stroke-width="0.6" fill="transparent">
    <animateTransform attributeName="transform" attributeType="xml" type="rotate" from="0 100 100" to="360 100 100" dur="8s" repeatCount="indefinite"/>
  </path>
  <path d="M 100.8 104.0 L  100.4 104.3 100.1 104.7 100.0 104.9 100.1 105.2 100.4 105.3 100.9 105.4 101.6 105.4 102.4 105.4 103.1 105.4 103.7 105.4 104.1 105.5 104.2 105.8 103.9 106.1 103.4 106.5 102.6 107.0 101.8 107.5 101.0 108.0 100.3 108.5 100.0 108.8 100.0 109.1 100.4 109.2 101.2 109.1 102.3 109.0 103.5 108.9 104.7 108.7 105.7 108.7 106.3 108.7 106.5 108.9 106.2 109.2 105.5 109.7 104.4 110.3 103.1 111.0 101.8 111.6 100.8 112.2 100.1 112.7 99.9 113.0 100.3 113.1 101.3 113.0 102.7 112.8 104.3 112.5 105.9 112.2 107.4 112.0 108.4 111.9 108.9 112.0 108.6 112.3 107.8 112.8 106.4 113.5 104.8 114.3 103.0 115.1 101.4 115.9 100.3 116.5 99.9 116.9 100.1 117.0 101.1 116.9 102.8 116.6 104.8 116.2 106.9 115.8 108.8 115.4 110.3 115.2 111.1 115.1 111.1 115.4 110.3 115.9 108.7 116.6 106.7 117.5 104.5 118.5 102.4 119.4 100.8 120.2 100.0 120.7 100.0 120.9 100.9 120.9 102.6 120.6 104.9 120.1 107.5 119.5 110.0 118.9 112.0 118.5 113.3 118.3 113.6 118.5 112.9 118.9 111.3 119.7 109.0 120.7 106.3 121.8 103.7 122.9 101.6 123.8 100.2 124.5 99.8 124.9 100.5 124.9 102.3 124.6 104.8 124.0 107.8 123.3 110.8 122.5 113.4 121.9 115.2 121.6 115.9 121.6 115.5 122.0 113.9 122.7 111.5 123.8 108.5 125.0 105.4 126.2 102.6 127.4 100.7 128.2 99.8 128.8 100.2 128.9 101.8 128.6 104.5 128.0 107.8 127.1 111.3 126.2 114.4 125.5 116.9 124.9 118.1 124.7 118.1 125.0 116.7 125.7 114.2 126.7 110.9 128.0 107.4 129.5 104.0 130.8 101.4 131.9 100.0 132.6 99.9 132.8 101.3 132.6 103.9 132.0 107.4 131.1 111.4 130.1 115.2 129.1 118.2 128.3 120.2 128.0 120.6 128.1 119.6 128.6 117.1 129.7 113.7 131.0 109.7 132.6 105.8 134.1 102.5 135.4 100.4 136.3 99.7 136.8 100.7 136.7 103.2 136.1 106.9 135.2 111.2 134.0 115.5 132.9 119.3 131.9 121.9 131.3 123.0 131.2 122.4 131.6 120.2 132.6 116.6 134.0 112.3 135.6 107.9 137.3 103.9 138.8 101.0 140.0 99.7 140.7 100.2 140.7 102.4 140.3 106.1 139.3 110.6 138.1 115.5 136.7 120.0 135.5 123.3 134.7 125.1 134.3 125.1 134.6 123.3 135.4 119.8 136.8 115.3 138.5 110.3 140.4 105.7 142.1 102.1 143.5 100.0 144.5 99.8 144.7 101.6 144.4 105.1 143.5 109.8 142.2 115.1 140.7 120.2 139.3 124.4 138.2 127.0 137.6 127.7 137.6 126.3 138.3 123.1 139.6 118.5 141.3 113.2 143.3 107.9 145.3 103.5 147.0 100.6 148.1 99.6 148.7 100.8 148.5 104.0 147.7 108.8 146.4 114.4 144.9 120.1 143.2 125.1 141.9 128.6 141.0 130.1 140.7 129.3 141.2 126.5 142.4 121.9 144.1 116.3 146.2 110.5 148.3 105.3 150.2 101.5 151.7 99.7 152.5 100.2 152.6 102.9 152.0 107.5 150.7 113.4 149.1 119.6 147.3 125.3 145.7 129.7 144.5 132.1 144.0 132.2 144.2 129.9 145.2 125.5 146.8 119.8 148.9 113.5 151.2 107.5 153.4 102.8 155.2 100.1 156.3 99.7 156.7 101.9 156.2 106.2 155.1 112.1 153.4 118.7 151.5 125.2 149.6 130.5 148.1 133.8 147.3 134.8 147.2 133.2 148.0 129.2 149.5 123.5 151.6 116.8 154.0 110.2 156.4 104.6 158.5 100.8 159.9 99.5 160.6 100.9 160.4 104.8 159.4 110.6 157.7 117.5 155.7 124.6 153.7 130.8 151.9 135.2 150.7 137.1 150.3 136.3 150.8 132.9 152.2 127.4 154.2 120.5 156.7 113.3 159.3 106.8 161.6 102.0 163.4 99.7 164.4 100.1 164.5 103.4 163.7 108.9 162.2 116.0 160.1 123.6 157.9 130.6 155.8 136.0 154.3 139.1 153.6 139.3 153.8 136.6 154.9 131.4 156.8 124.4 159.3 116.7 162.0 109.4 164.7 103.6 166.8 100.2 168.1 99.6 168.6 102.1 168.0 107.1 166.6 114.2 164.6 122.2 162.2 130.0 159.9 136.4 158.1 140.6 157.0 141.9 156.8 140.1 157.6 135.4 159.4 128.6 161.8 120.6 164.7 112.6 167.5 105.8 170.0 101.2 171.7 99.5 172.5 100.9 172.3 105.4 171.1 112.2 169.1 120.5 166.7 128.9 164.1 136.4 162.0 141.7 160.5 144.1 159.9 143.3 160.4 139.4 162.0 132.9 164.3 124.7 167.2 116.1 170.2 108.4 173.0 102.6 175.1 99.7 176.3 100.1 176.4 103.7 175.5 110.1 173.6 118.4 171.2 127.4 168.5 135.8 166.0 142.3 164.2 146.0 163.2 146.3 163.3 143.3 164.6 137.3 166.8 129.2 169.6 120.1 172.8 111.5 175.9 104.6 178.4 100.4 180.0 99.5 180.5 102.2 179.9 108.0 178.2 116.2 175.8 125.5 173.0 134.7 170.3 142.3 168.0 147.3 166.7 149.0 166.4 147.0 167.2 141.7 169.2 133.8 172.0 124.5 175.3 115.1 178.6 107.1 181.4 101.5 183.5 99.4 184.4 100.9 184.2 105.9 182.8 113.8 180.5 123.3 177.6 133.1 174.7 141.8 172.1 148.2 170.3 151.2 169.5 150.4 170.0 146.0 171.7 138.5 174.4 129.1 177.7 119.2 181.1 110.1 184.3 103.3 186.8 99.7 188.2 99.9 188.4 104.0 187.3 111.3 185.2 120.8 182.3 131.1 179.2 140.8 176.3 148.4 174.1 152.9 172.9 153.4 172.9 150.1 174.2 143.3 176.7 134.0 179.9 123.7 183.6 113.7 187.0 105.6 189.9 100.6 191.8 99.4 192.4 102.3 191.7 108.8 189.8 118.1 187.1 128.7 183.8 139.3 180.7 148.1 178.0 154.0 176.4 156.1 175.9 154.0 176.9 148.0 179.0 139.1 182.2 128.5 185.9 117.8 189.6 108.5 192.9 102.0 195.2 99.3 196.3 100.8 196.1 106.4 194.5 115.2 191.9 126.0 188.6 137.2 185.2 147.2 182.2 154.5 180.1 158.2 179.1 157.5 179.6 152.6 181.4 144.3 184.4 133.7 188.1 122.3 192.0 111.9 195.6 104.0 198.4 99.8 200.0 99.8 200.3 104.2 199.1 112.3 196.7 123.0 193.5" stroke="#13ff00" stroke-width="0.6" fill="transparent">
    <animateTransform attributeName="transform" attributeType="xml" type="rotate" from="0 100 100" to="360 100 100" dur="8s" repeatCount="indefinite"/>
  </path>
  <path d="M 98.3 103.7 L  97.8 103.7 97.3 103.8 97.1 104.0 97.0 104.2 97.2 104.5 97.6 104.9 98.1 105.3 98.8 105.7 99.4 106.2 99.8 106.6 100.0 106.9 100.0 107.1 99.6 107.2 98.9 107.2 98.0 107.2 97.0 107.1 96.1 107.0 95.3 107.0 94.8 107.1 94.7 107.3 95.0 107.7 95.6 108.1 96.5 108.7 97.6 109.2 98.6 109.8 99.5 110.3 100.0 110.7 100.0 111.0 99.6 111.1 98.7 111.1 97.5 110.9 96.1 110.7 94.7 110.5 93.4 110.3 92.6 110.3 92.3 110.4 92.6 110.8 93.4 111.3 94.6 111.9 96.1 112.6 97.6 113.4 98.9 114.0 99.8 114.6 100.1 114.9 99.8 115.0 98.8 115.0 97.3 114.7 95.4 114.4 93.5 114.0 91.9 113.7 90.6 113.5 90.0 113.6 90.1 113.8 91.0 114.4 92.4 115.1 94.3 115.9 96.3 116.8 98.1 117.7 99.4 118.3 100.1 118.8 99.9 119.0 99.0 118.9 97.3 118.6 95.1 118.1 92.8 117.6 90.6 117.1 88.8 116.8 87.8 116.7 87.7 116.9 88.4 117.4 90.0 118.2 92.2 119.1 94.6 120.2 97.0 121.2 98.8 122.0 100.0 122.6 100.1 122.9 99.3 122.9 97.5 122.6 95.1 122.0 92.3 121.3 89.6 120.7 87.3 120.2 85.8 119.9 85.2 120.0 85.8 120.4 87.4 121.2 89.8 122.2 92.6 123.4 95.5 124.6 97.9 125.6 99.6 126.4 100.2 126.8 99.6 126.9 97.9 126.6 95.3 126.0 92.2 125.2 88.9 124.4 86.0 123.7 83.9 123.2 82.9 123.1 83.2 123.5 84.7 124.2 87.2 125.3 90.3 126.5 93.7 127.9 96.7 129.1 99.0 130.1 100.1 130.7 100.0 130.9 98.4 130.6 95.8 130.0 92.4 129.1 88.6 128.2 85.1 127.3 82.4 126.6 80.8 126.3 80.6 126.5 81.8 127.2 84.3 128.2 87.7 129.6 91.5 131.0 95.2 132.5 98.1 133.7 99.9 134.5 100.2 134.8 99.0 134.7 96.4 134.1 92.8 133.1 88.7 132.0 84.6 131.0 81.2 130.1 78.9 129.6 78.2 129.6 79.0 130.1 81.4 131.1 84.9 132.5 89.0 134.1 93.2 135.7 96.9 137.1 99.3 138.2 100.3 138.7 99.5 138.7 97.2 138.2 93.5 137.3 89.1 136.0 84.4 134.8 80.3 133.7 77.3 133.0 75.9 132.7 76.2 133.1 78.3 134.0 81.8 135.4 86.2 137.1 90.9 138.8 95.2 140.5 98.5 141.8 100.2 142.6 100.0 142.8 98.0 142.3 94.4 141.4 89.7 140.1 84.6 138.7 79.9 137.4 76.1 136.4 73.9 136.0 73.6 136.1 75.2 136.9 78.5 138.2 83.1 139.9 88.3 141.9 93.2 143.7 97.3 145.3 99.8 146.3 100.3 146.7 98.8 146.5 95.4 145.6 90.7 144.3 85.2 142.8 79.8 141.3 75.2 140.0 72.2 139.3 71.1 139.2 72.1 139.8 75.2 141.0 79.8 142.7 85.3 144.8 90.9 146.8 95.7 148.6 99.0 149.9 100.4 150.6 99.5 150.6 96.5 149.9 91.8 148.6 86.1 147.0 80.1 145.3 74.7 143.8 70.8 142.7 68.9 142.3 69.2 142.7 71.8 143.8 76.3 145.5 82.0 147.6 88.1 149.8 93.7 151.8 97.9 153.5 100.2 154.4 100.1 154.7 97.6 154.1 93.1 152.9 87.2 151.2 80.8 149.4 74.7 147.6 69.8 146.3 67.0 145.6 66.5 145.7 68.5 146.6 72.6 148.2 78.4 150.3 84.9 152.6 91.2 154.9 96.4 156.8 99.6 158.1 100.4 158.6 98.6 158.3 94.5 157.2 88.7 155.6 81.8 153.6 75.1 151.6 69.3 150.0 65.4 149.0 64.0 148.8 65.2 149.4 68.9 150.8 74.6 152.9 81.4 155.4 88.3 157.9 94.4 160.1 98.6 161.7 100.4 162.5 99.5 162.5 96.0 161.6 90.3 160.0 83.2 157.9 75.9 155.8 69.3 153.9 64.3 152.5 61.9 151.9 62.2 152.3 65.3 153.5 70.7 155.5 77.6 158.0 85.1 160.7 91.9 163.2 97.2 165.1 100.1 166.3 100.2 166.6 97.3 165.9 92.0 164.4 84.9 162.3 77.1 160.0 69.6 157.9 63.7 156.2 60.1 155.2 59.4 155.3 61.7 156.2 66.6 158.1 73.5 160.6 81.4 163.4 89.0 166.1 95.4 168.4 99.4 169.9 100.5 170.6 98.5 170.2 93.7 168.8 86.8 166.8 78.6 164.4 70.5 162.0 63.5 160.0 58.8 158.7 56.9 158.3 58.3 159.0 62.6 160.7 69.3 163.1 77.4 166.0 85.7 168.9 93.0 171.5 98.2 173.4 100.5 174.4 99.5 174.4 95.5 173.3 88.8 171.4 80.5 168.9 71.8 166.3 63.9 164.0 58.0 162.3 54.9 161.6 55.1 161.9 58.6 163.3 64.9 165.5 73.1 168.4 81.9 171.5 90.1 174.5 96.5 176.8 100.0 178.2 100.3 178.5 97.1 177.7 90.9 175.9 82.7 173.5 73.5 170.7 64.7 168.1 57.6 166.1 53.3 164.9 52.3 164.8 54.8 165.9 60.5 168.0 68.5 170.8 77.7 174.1 86.8 177.2 94.3 179.9 99.1 181.7 100.6 182.5 98.5 182.0 93.0 180.5 85.0 178.1 75.5 175.3 66.0 172.4 57.9 170.0 52.2 168.4 49.9 167.9 51.3 168.6 56.2 170.5 63.9 173.2 73.2 176.5 82.9 179.9 91.5 182.9 97.7 185.1 100.5 186.3 99.6 186.3 95.1 185.0 87.5 182.8 77.9 179.9 67.8 176.9 58.6 174.2 51.6 172.1 47.9 171.2 48.0 171.4 51.9 173.0 59.1 175.5 68.4 178.8 78.6 182.4 88.2 185.7 95.6 188.4 99.9 190.0 100.4 190.4 96.9 189.5 90.0 187.5 80.6 184.7 70.0 181.5 59.9 178.5 51.7 176.0 46.5 174.6 45.2 174.4 47.9 175.5 54.3 177.9 63.4 181.1 74.0 184.7 84.3 188.3 93.0 191.4 98.8 193.5 100.7 194.4 98.5 193.9 92.4 192.2 83.4 189.5 72.6 186.2 61.7 182.9 52.3 180.1 45.7 178.2 42.8 177.5 44.2 178.2 49.6 180.2 58.3 183.3 68.9 187.0 80.0 190.8 89.9 194.3 97.1 196.8 100.5 198.2 99.7 198.2 94.7 196.8 86.2 194.3 75.5 191.0 64.0 187.5 53.5 184.4 45.4 182.0 41.0 180.8 40.9 181.0 45.2 182.6 53.1 185.5 63.7 189.1" stroke="#00d1ff" stroke-width="0.6" fill="transparent">
    <animateTransform attributeName="transform" attributeType="xml" type="rotate" from="0 100 100" to="360 100 100" dur="8s" repeatCount="indefinite"/>
  </path>
  <path d="M 96.5 101.9 L  96.0 101.7 95.6 101.5 95.3 101.5 95.1 101.6 95.1 102.0 95.2 102.5 95.4 103.2 95.6 103.9 95.9 104.6 96.0 105.2 96.0 105.6 95.8 105.7 95.4 105.6 94.9 105.2 94.2 104.7 93.4 104.0 92.7 103.4 92.0 102.9 91.6 102.7 91.4 102.8 91.4 103.2 91.7 104.0 92.1 105.0 92.6 106.1 93.1 107.2 93.5 108.1 93.7 108.7 93.6 108.9 93.2 108.8 92.5 108.2 91.6 107.4 90.5 106.3 89.5 105.3 88.6 104.5 88.0 104.0 87.6 103.9 87.7 104.3 88.0 105.2 88.6 106.5 89.4 107.9 90.2 109.4 90.9 110.7 91.3 111.7 91.3 112.1 91.0 112.0 90.2 111.4 89.1 110.3 87.9 108.9 86.6 107.5 85.4 106.3 84.5 105.4 83.9 105.1 83.9 105.4 84.3 106.3 85.0 107.8 86.0 109.5 87.1 111.4 88.1 113.2 88.8 114.5 89.0 115.3 88.8 115.3 88.1 114.7 86.9 113.5 85.4 111.8 83.8 110.0 82.3 108.3 81.1 107.0 80.3 106.4 80.1 106.4 80.4 107.3 81.2 108.8 82.4 110.9 83.8 113.2 85.1 115.3 86.1 117.1 86.7 118.3 86.6 118.6 86.0 118.1 84.7 116.8 83.1 114.9 81.2 112.7 79.4 110.6 77.8 108.9 76.8 107.8 76.3 107.5 76.5 108.2 77.4 109.8 78.7 112.0 80.3 114.6 81.9 117.2 83.3 119.5 84.2 121.1 84.4 121.8 83.9 121.5 82.7 120.3 81.0 118.3 78.9 115.8 76.7 113.2 74.8 110.9 73.4 109.4 72.6 108.7 72.6 109.1 73.4 110.6 74.8 112.9 76.6 115.8 78.5 118.8 80.3 121.6 81.5 123.7 82.1 124.9 81.8 124.9 80.7 123.8 79.0 121.8 76.7 119.1 74.3 116.1 72.0 113.3 70.1 111.2 69.0 110.0 68.7 110.1 69.4 111.3 70.7 113.6 72.7 116.7 74.9 120.1 77.0 123.4 78.7 126.1 79.6 127.8 79.7 128.3 78.8 127.5 77.1 125.5 74.7 122.6 72.0 119.3 69.3 116.0 67.1 113.3 65.6 111.6 64.9 111.1 65.3 112.0 66.6 114.2 68.7 117.4 71.1 121.1 73.5 124.9 75.6 128.2 77.0 130.5 77.5 131.5 76.9 131.1 75.3 129.2 72.9 126.3 70.0 122.7 67.0 119.0 64.3 115.7 62.3 113.4 61.3 112.3 61.3 112.8 62.4 114.7 64.5 117.9 67.1 121.9 69.8 126.1 72.4 130.0 74.2 132.9 75.1 134.5 74.9 134.6 73.5 133.1 71.1 130.2 68.1 126.4 64.8 122.3 61.7 118.4 59.2 115.4 57.7 113.7 57.4 113.7 58.3 115.2 60.2 118.3 62.9 122.4 65.9 127.0 68.8 131.4 71.2 135.0 72.6 137.3 72.8 138.0 71.7 136.9 69.5 134.2 66.4 130.4 62.9 125.9 59.4 121.5 56.4 117.8 54.4 115.4 53.6 114.7 54.1 115.8 55.8 118.6 58.5 122.7 61.8 127.6 65.1 132.5 67.9 136.8 69.8 139.8 70.5 141.2 69.9 140.6 67.9 138.3 64.8 134.5 61.1 129.8 57.3 124.9 53.8 120.6 51.3 117.4 49.9 116.0 50.0 116.4 51.5 118.8 54.1 122.8 57.5 127.9 61.1 133.3 64.4 138.2 66.9 142.0 68.1 144.1 67.9 144.3 66.3 142.4 63.4 138.7 59.6 133.9 55.4 128.6 51.5 123.7 48.4 119.7 46.5 117.5 46.0 117.3 47.1 119.1 49.6 122.9 53.0 128.0 56.9 133.7 60.6 139.3 63.6 143.8 65.5 146.8 65.9 147.7 64.6 146.4 61.9 143.1 58.2 138.3 53.8 132.7 49.5 127.1 45.8 122.4 43.3 119.3 42.2 118.3 42.8 119.5 45.0 122.9 48.3 127.9 52.4 133.9 56.5 140.0 60.1 145.3 62.6 149.1 63.6 150.8 62.9 150.3 60.5 147.4 56.9 142.8 52.4 137.0 47.7 130.9 43.5 125.5 40.3 121.5 38.6 119.6 38.7 120.1 40.4 122.9 43.6 127.7 47.8 133.8 52.2 140.3 56.4 146.4 59.5 151.1 61.1 153.7 61.0 153.9 59.1 151.7 55.7 147.4 51.1 141.5 46.2 135.1 41.4 129.0 37.6 124.1 35.2 121.2 34.7 120.8 35.9 123.0 38.9 127.4 43.0 133.5 47.7 140.3 52.3 147.0 56.0 152.6 58.4 156.2 58.9 157.4 57.6 155.9 54.5 152.0 50.0 146.3 44.8 139.5 39.7 132.8 35.2 127.1 32.2 123.3 30.9 121.9 31.5 123.2 34.1 127.1 38.1 133.0 42.9 140.1 47.9 147.3 52.3 153.7 55.4 158.3 56.6 160.5 55.9 159.9 53.3 156.6 49.0 151.1 43.7 144.3 38.2 137.1 33.2 130.5 29.4 125.7 27.3 123.3 27.3 123.7 29.4 126.9 33.1 132.4 38.0 139.5 43.3 147.3 48.2 154.4 52.0 160.0 54.1 163.3 54.1 163.6 52.0 161.1 48.0 156.1 42.8 149.3 37.0 141.6 31.4 134.4 26.9 128.6 24.0 125.1 23.3 124.4 24.7 126.8 28.1 131.8 32.9 138.8 38.5 146.8 43.9 154.7 48.4 161.3 51.2 165.6 52.0 167.1 50.6 165.5 47.0 161.0 41.9 154.4 36.0 146.5 29.9 138.6 24.7 131.9 21.1 127.3 19.5 125.5 20.2 126.9 23.1 131.2 27.7 138.0 33.4 146.1 39.2 154.6 44.4 162.1 48.1 167.5 49.7 170.1 49.0 169.6 46.0 165.9 41.2 159.6 35.1 151.7 28.8 143.3 22.9 135.7 18.5 129.9 16.0 127.0 16.0 127.3 18.2 130.8 22.5 137.0 28.1 145.2 34.3 154.1 40.1 162.4 44.5 168.9 47.0 172.8 47.2 173.4 44.9 170.6 40.5 164.9 34.5 157.1 27.8 148.3 21.4 139.9 16.2 133.1 12.9 128.9 11.9 128.0 13.5 130.5 17.3 136.1 22.8 144.1 29.1 153.2 35.4 162.3 40.6 169.9 44.1 175.0 45.1 176.8 43.6 175.1 39.7 170.1 33.9 162.6 27.2 153.7 20.3 144.6 14.3 136.7 10.1 131.3 8.2 129.1 8.9 130.5 12.1 135.3 17.3 142.9 23.8 152.1 30.4 161.7 36.4 170.3 40.7 176.6 42.7 179.8 42.1 179.3 38.8 175.2 33.4 168.2 26.7 159.2 19.4 149.7 12.8 140.9 7.6 134.2 4.8 130.7 4.6 130.8 7.1 134.6 11.8 141.6 18.2 150.7" stroke="#00a4ff" stroke-width="0.6" fill="transparent">
    <animateTransform attributeName="transform" attributeType="xml" type="rotate" from="0 100 100" to="360 100 100" dur="8s" repeatCount="indefinite"/>
  </path>
  <path d="M 96.0 99.5 L  95.8 99.0 95.5 98.6 95.3 98.4 95.1 98.5 94.8 98.7 94.6 99.2 94.4 99.9 94.2 100.6 93.9 101.3 93.7 101.9 93.5 102.2 93.2 102.2 93.0 101.8 92.8 101.2 92.5 100.3 92.3 99.4 92.1 98.4 91.8 97.7 91.6 97.2 91.4 97.2 91.2 97.6 90.9 98.3 90.7 99.4 90.5 100.6 90.2 101.7 90.0 102.7 89.8 103.3 89.5 103.4 89.3 103.1 89.1 102.2 88.9 101.0 88.6 99.6 88.4 98.1 88.2 97.0 87.9 96.2 87.7 95.9 87.5 96.3 87.2 97.2 87.0 98.6 86.8 100.2 86.5 101.9 86.3 103.3 86.1 104.3 85.9 104.7 85.6 104.4 85.4 103.5 85.2 101.9 84.9 100.1 84.7 98.2 84.5 96.5 84.2 95.2 84.0 94.7 83.8 94.9 83.5 95.9 83.3 97.5 83.1 99.5 82.9 101.7 82.6 103.6 82.4 105.1 82.2 105.9 81.9 105.8 81.7 104.9 81.5 103.2 81.2 101.0 81.0 98.6 80.8 96.3 80.6 94.6 80.3 93.6 80.1 93.5 79.9 94.4 79.6 96.1 79.4 98.5 79.2 101.1 78.9 103.7 78.7 105.7 78.5 106.9 78.2 107.2 78.0 106.4 77.8 104.6 77.6 102.1 77.3 99.3 77.1 96.5 76.9 94.1 76.6 92.6 76.4 92.1 76.2 92.8 75.9 94.6 75.7 97.2 75.5 100.2 75.2 103.3 75.0 106.0 74.8 107.8 74.6 108.5 74.3 108.0 74.1 106.2 73.9 103.6 73.6 100.3 73.4 97.0 73.2 94.0 72.9 91.9 72.7 90.9 72.5 91.3 72.3 92.9 72.0 95.6 71.8 99.0 71.6 102.6 71.3 105.9 71.1 108.3 70.9 109.6 70.6 109.5 70.4 108.0 70.2 105.3 69.9 101.7 69.7 97.9 69.5 94.3 69.3 91.5 69.0 89.9 68.8 89.8 68.6 91.1 68.3 93.8 68.1 97.5 67.9 101.5 67.6 105.4 67.4 108.6 67.2 110.5 66.9 111.0 66.7 109.8 66.5 107.1 66.3 103.4 66.0 99.1 65.8 94.9 65.6 91.4 65.3 89.1 65.1 88.4 64.9 89.3 64.6 91.9 64.4 95.7 64.2 100.1 63.9 104.6 63.7 108.5 63.5 111.2 63.3 112.2 63.0 111.5 62.8 109.1 62.6 105.3 62.3 100.7 62.1 96.0 61.9 91.7 61.6 88.6 61.4 87.2 61.2 87.6 61.0 89.9 60.7 93.6 60.5 98.4 60.3 103.4 60.0 108.0 59.8 111.5 59.6 113.3 59.3 113.2 59.1 111.2 58.9 107.5 58.6 102.6 58.4 97.4 58.2 92.4 58.0 88.5 57.7 86.3 57.5 86.0 57.3 87.8 57.0 91.4 56.8 96.3 56.6 101.8 56.3 107.1 56.1 111.4 55.9 114.1 55.6 114.7 55.4 113.2 55.2 109.8 55.0 104.8 54.7 99.1 54.5 93.5 54.3 88.8 54.0 85.7 53.8 84.6 53.6 85.8 53.3 89.1 53.1 94.0 52.9 99.8 52.7 105.8 52.4 110.9 52.2 114.5 52.0 116.0 51.7 115.2 51.5 112.1 51.3 107.2 51.0 101.3 50.8 95.0 50.6 89.5 50.3 85.4 50.1 83.5 49.9 83.9 49.7 86.7 49.4 91.5 49.2 97.6 49.0 104.0 48.7 110.0 48.5 114.5 48.3 117.0 48.0 117.0 47.8 114.5 47.6 109.8 47.3 103.7 47.1 97.0 46.9 90.6 46.7 85.6 46.4 82.7 46.2 82.2 46.0 84.4 45.7 88.9 45.5 95.0 45.3 101.9 45.0 108.6 44.8 114.1 44.6 117.6 44.4 118.5 44.1 116.7 43.9 112.5 43.7 106.4 43.4 99.3 43.2 92.2 43.0 86.3 42.7 82.3 42.5 80.8 42.3 82.2 42.0 86.2 41.8 92.2 41.6 99.4 41.4 106.8 41.1 113.2 40.9 117.8 40.7 119.7 40.4 118.8 40.2 115.2 40.0 109.3 39.7 101.9 39.5 94.3 39.3 87.4 39.0 82.3 38.8 79.8 38.6 80.2 38.4 83.5 38.1 89.3 37.9 96.6 37.7 104.5 37.4 111.9 37.2 117.5 37.0 120.6 36.7 120.7 36.5 117.8 36.3 112.3 36.1 104.9 35.8 96.7 35.6 89.0 35.4 82.8 35.1 79.1 34.9 78.5 34.7 80.9 34.4 86.2 34.2 93.6 34.0 101.9 33.7 110.0 33.5 116.7 33.3 121.0 33.1 122.3 32.8 120.3 32.6 115.3 32.4 108.1 32.1 99.6 31.9 91.1 31.7 83.9 31.4 78.9 31.2 77.1 31.0 78.5 30.7 83.2 30.5 90.3 30.3 98.9 30.1 107.7 29.8 115.4 29.6 121.0 29.4 123.5 29.1 122.6 28.9 118.3 28.7 111.4 28.4 102.8 28.2 93.6 28.0 85.4 27.7 79.3 27.5 76.1 27.3 76.4 27.1 80.2 26.8 86.9 26.6 95.5 26.4 104.9 26.1 113.6 25.9 120.4 25.7 124.2 25.4 124.5 25.2 121.2 25.0 114.8 24.8 106.2 24.5 96.6 24.3 87.5 24.1 80.1 23.8 75.6 23.6 74.7 23.4 77.4 23.1 83.5 22.9 92.0 22.7 101.7 22.4 111.3 22.2 119.2 22.0 124.4 21.8 126.1 21.5 123.9 21.3 118.2 21.1 109.9 20.8 100.0 20.6 90.1 20.4 81.6 20.1 75.7 19.9 73.3 19.7 74.9 19.4 80.1 19.2 88.2 19.0 98.2 18.8 108.4 18.5 117.5 18.3 124.1 18.1 127.2 17.8 126.3 17.6 121.6 17.4 113.7 17.1 103.7 16.9 93.2 16.7 83.6 16.5 76.3 16.2 72.5 16.0 72.6 15.8 76.8 15.5 84.4 15.3 94.3 15.1 105.1 14.8 115.2 14.6 123.2 14.4 127.8 14.1 128.3 13.9 124.7 13.7 117.5 13.5 107.7 13.2 96.7 13.0 86.1 12.8 77.5 12.5 72.2 12.3 70.9 12.1 73.8 11.8 80.6 11.6 90.3 11.4 101.4 11.1 112.4 10.9 121.6 10.7 127.8 10.5 129.8 10.2 127.6 10.0 121.3 9.8 111.8 9.5 100.6 9.3 89.2 9.1 79.4 8.8 72.5 8.6 69.6 8.4 71.1 8.2 76.9 7.9 86.1 7.7 97.3 7.5 109.0 7.2 119.5 7.0 127.1 6.8 130.9 6.5 130.1 6.3 124.9 6.1 116.1 5.8 104.8 5.6 92.8 5.4 81.8 5.2 73.4 4.9 68.9 4.7 68.8 4.5 73.4 4.2 81.8 4.0 93.0" stroke="#ce00ff" stroke-width="0.6" fill="transparent">
    <animateTransform attributeName="transform" attributeType="xml" type="rotate" from="0 100 100" to="360 100 100" dur="8s" repeatCount="indefinite"/>
  </path>
  <path d="M 97.1 97.2 L  97.2 96.7 97.2 96.3 97.1 96.0 96.9 95.9 96.6 95.9 96.1 96.2 95.5 96.6 94.9 97.1 94.3 97.5 93.8 97.8 93.4 97.9 93.3 97.8 93.3 97.4 93.4 96.7 93.8 95.9 94.2 95.0 94.5 94.1 94.8 93.3 94.8 92.8 94.7 92.7 94.3 92.8 93.6 93.3 92.8 94.0 91.9 94.9 91.1 95.7 90.3 96.3 89.8 96.7 89.5 96.6 89.6 96.2 89.9 95.4 90.4 94.2 91.0 93.0 91.7 91.7 92.2 90.6 92.5 89.8 92.5 89.5 92.1 89.6 91.3 90.2 90.3 91.2 89.2 92.4 88.0 93.6 87.0 94.6 86.2 95.3 85.8 95.5 85.8 95.1 86.2 94.2 86.9 92.9 87.8 91.2 88.7 89.5 89.5 88.0 90.0 86.9 90.2 86.3 89.9 86.3 89.1 87.0 88.0 88.2 86.6 89.7 85.1 91.3 83.8 92.7 82.7 93.8 82.1 94.3 82.0 94.1 82.3 93.2 83.1 91.7 84.3 89.8 85.5 87.7 86.6 85.7 87.5 84.2 87.9 83.2 87.7 83.0 87.0 83.6 85.8 84.9 84.2 86.7 82.5 88.7 80.8 90.6 79.4 92.1 78.5 93.0 78.2 93.0 78.5 92.2 79.3 90.7 80.6 88.5 82.1 86.1 83.5 83.7 84.7 81.7 85.4 80.3 85.5 79.8 84.9 80.2 83.7 81.5 82.0 83.4 80.0 85.8 78.0 88.1 76.3 90.1 75.0 91.5 74.4 91.9 74.6 91.3 75.4 89.8 76.8 87.5 78.5 84.8 80.2 81.9 81.8 79.4 82.9 77.5 83.3 76.6 82.9 76.8 81.7 77.9 79.9 80.0 77.8 82.6 75.5 85.4 73.3 87.9 71.7 89.8 70.8 90.7 70.7 90.4 71.4 89.1 72.8 86.7 74.7 83.7 76.7 80.5 78.7 77.5 80.1 75.0 80.9 73.6 80.8 73.4 79.8 74.3 78.0 76.4 75.7 79.2 73.1 82.4 70.6 85.4 68.6 87.8 67.3 89.2 66.8 89.4 67.3 88.3 68.7 86.1 70.7 82.9 73.0 79.3 75.3 75.8 77.2 72.8 78.4 70.8 78.6 70.1 77.8 70.7 76.2 72.7 73.8 75.6 71.0 79.0 68.1 82.5 65.7 85.5 63.9 87.6 63.1 88.3 63.3 87.6 64.5 85.5 66.6 82.3 69.1 78.5 71.7 74.5 74.0 70.9 75.6 68.3 76.3 67.0 75.9 67.2 74.4 68.8 72.0 71.7 69.0 75.4 65.9 79.4 63.0 83.0 60.7 85.7 59.5 87.0 59.3 86.8 60.3 85.0 62.3 81.9 65.0 77.8 67.9 73.4 70.6 69.3 72.7 66.0 73.9 64.0 73.8 63.7 72.6 65.0 70.3 67.8 67.2 71.6 63.8 75.9 60.5 80.1 57.8 83.4 56.0 85.5 55.5 85.8 56.2 84.5 58.0 81.6 60.7 77.4 63.9 72.7 67.0 68.0 69.6 64.1 71.2 61.4 71.7 60.4 70.8 61.2 68.7 63.7 65.6 67.6 62.0 72.2 58.3 76.8 55.1 80.9 52.8 83.6 51.7 84.7 52.0 83.9 53.6 81.3 56.3 77.2 59.6 72.2 63.1 67.1 66.2 62.5 68.4 59.0 69.4 57.3 68.9 57.5 67.1 59.7 64.1 63.4 60.3 68.2 56.3 73.3 52.7 77.9 49.8 81.5 48.2 83.3 48.0 83.2 49.3 81.0 51.8 77.1 55.2 72.0 59.0 66.5 62.5 61.2 65.3 57.0 66.8 54.5 66.9 54.0 65.5 55.6 62.6 59.1 58.9 63.9 54.6 69.4 50.5 74.7 47.1 79.0 44.8 81.6 44.1 82.3 45.0 80.7 47.3 77.1 50.7 72.0 54.7 66.2 58.6 60.3 61.9 55.4 64.1 52.0 64.8 50.7 63.8 51.7 61.2 54.7 57.5 59.5 53.1 65.2 48.6 71.0 44.6 76.1 41.7 79.6 40.4 81.1 40.7 80.2 42.7 77.1 46.0 72.2 50.1 66.1 54.4 59.8 58.3 54.1 61.1 49.9 62.4 47.7 62.0 47.9 59.8 50.4 56.3 54.9 51.7 60.8 46.9 67.0 42.4 72.8 38.9 77.2 36.9 79.6 36.6 79.6 38.2 77.1 41.2 72.5 45.4 66.4 50.0 59.6 54.4 53.2 57.8 48.1 59.8 45.0 60.0 44.3 58.4 46.2 55.1 50.3 50.6 56.1 45.5 62.7 40.5 69.2 36.4 74.4 33.7 77.8 32.7 78.7 33.7 76.9 36.5 72.8 40.5 66.8 45.3 59.8 50.1 52.8 54.2 46.8 56.9 42.7 57.8 41.0 56.8 42.1 53.9 45.7 49.5 51.3 44.3 58.1 38.9 65.1 34.2 71.2 30.7 75.6 29.1 77.5 29.4 76.6 31.7 73.0 35.6 67.3 40.5 60.2 45.7 52.7 50.3 45.9 53.7 40.8 55.4 38.1 55.0 38.2 52.6 41.1 48.5 46.4 43.2 53.3 37.5 60.7 32.2 67.6 28.1 72.9 25.6 75.9 25.3 76.0 27.0 73.2 30.6 67.9 35.5 60.8 40.9 52.9 46.1 45.4 50.2 39.3 52.7 35.5 53.1 34.6 51.3 36.7 47.5 41.4 42.3 48.2 36.4 55.9 30.6 63.5 25.8 69.8 22.5 73.9 21.4 75.1 22.5 73.2 25.6 68.5 30.3 61.6 35.9 53.5 41.6 45.3 46.4 38.3 49.7 33.4 50.9 31.3 49.8 32.4 46.5 36.5 41.6 43.0 35.5 50.9 29.3 59.1 23.8 66.3 19.7 71.5 17.7 73.8 18.1 73.0 20.7 69.0 25.1 62.5 30.8 54.3 36.8 45.6 42.3 37.7 46.3 31.7 48.4 28.5 48.1 28.5 45.5 31.7 40.8 37.7 34.8 45.6 28.3 54.2 22.1 62.3 17.3 68.5 14.4 72.1 13.9 72.4 15.8 69.4 19.9 63.4 25.5 55.3 31.7 46.3 37.8 37.6 42.6 30.5 45.6 26.1 46.2 24.9 44.3 27.1 40.1 32.5 34.2 40.2 27.5 49.0 20.8 57.8 15.2 65.1 11.4 70.0 10.0 71.5 11.2 69.5 14.7 64.3 20.1 56.5 26.5 47.3 33.0 38.0 38.6 29.9 42.4 24.2 43.9 21.7 42.9 22.8 39.3 27.3 33.7 34.6 26.9 43.6 19.8 52.9 13.5 61.2 8.8 67.3 6.4 70.2 6.7 69.4 9.6 65.1 14.6 57.8 21.0 48.6 27.9 38.7 34.1 29.7 38.9 22.7 41.4 18.9 41.2 18.8 38.4 22.3 33.2 29.0 26.5 37.9" stroke="#ff008c" stroke-width="0.6" fill="transparent">
    <animateTransform attributeName="transform" attributeType="xml" type="rotate" from="0 100 100" to="360 100 100" dur="8s" repeatCount="indefinite"/>
  </path>
  <path d="M 99.2 96.0 L  99.6 95.7 99.9 95.3 100.0 95.1 99.9 94.8 99.6 94.7 99.1 94.6 98.4 94.6 97.6 94.6 96.9 94.6 96.3 94.6 95.9 94.5 95.8 94.2 96.1 93.9 96.6 93.5 97.4 93.0 98.2 92.5 99.0 92.0 99.7 91.5 100.0 91.2 100.0 90.9 99.6 90.8 98.8 90.9 97.7 91.0 96.5 91.1 95.3 91.3 94.3 91.3 93.7 91.3 93.5 91.1 93.8 90.8 94.5 90.3 95.6 89.7 96.9 89.0 98.2 88.4 99.2 87.8 99.9 87.3 100.1 87.0 99.7 86.9 98.7 87.0 97.3 87.2 95.7 87.5 94.1 87.8 92.6 88.0 91.6 88.1 91.1 88.0 91.4 87.7 92.2 87.2 93.6 86.5 95.2 85.7 97.0 84.9 98.6 84.1 99.7 83.5 100.1 83.1 99.9 83.0 98.9 83.1 97.2 83.4 95.2 83.8 93.1 84.2 91.2 84.6 89.7 84.8 88.9 84.9 88.9 84.6 89.7 84.1 91.3 83.4 93.3 82.5 95.5 81.5 97.6 80.6 99.2 79.8 100.0 79.3 100.0 79.1 99.1 79.1 97.4 79.4 95.1 79.9 92.5 80.5 90.0 81.1 88.0 81.5 86.7 81.7 86.4 81.5 87.1 81.1 88.7 80.3 91.0 79.3 93.7 78.2 96.3 77.1 98.4 76.2 99.8 75.5 100.2 75.1 99.5 75.1 97.7 75.4 95.2 76.0 92.2 76.7 89.2 77.5 86.6 78.1 84.8 78.4 84.1 78.4 84.5 78.0 86.1 77.3 88.5 76.2 91.5 75.0 94.6 73.8 97.4 72.6 99.3 71.8 100.2 71.2 99.8 71.1 98.2 71.4 95.5 72.0 92.2 72.9 88.7 73.8 85.6 74.5 83.1 75.1 81.9 75.3 81.9 75.0 83.3 74.3 85.8 73.3 89.1 72.0 92.6 70.5 96.0 69.2 98.6 68.1 100.0 67.4 100.1 67.2 98.7 67.4 96.1 68.0 92.6 68.9 88.6 69.9 84.8 70.9 81.8 71.7 79.8 72.0 79.4 71.9 80.4 71.4 82.9 70.3 86.3 69.0 90.3 67.4 94.2 65.9 97.5 64.6 99.6 63.7 100.3 63.2 99.3 63.3 96.8 63.9 93.1 64.8 88.8 66.0 84.5 67.1 80.7 68.1 78.1 68.7 77.0 68.8 77.6 68.4 79.8 67.4 83.4 66.0 87.7 64.4 92.1 62.7 96.1 61.2 99.0 60.0 100.3 59.3 99.8 59.3 97.6 59.7 93.9 60.7 89.4 61.9 84.5 63.3 80.0 64.5 76.7 65.3 74.9 65.7 74.9 65.4 76.7 64.6 80.2 63.2 84.7 61.5 89.7 59.6 94.3 57.9 97.9 56.5 100.0 55.5 100.2 55.3 98.4 55.6 94.9 56.5 90.2 57.8 84.9 59.3 79.8 60.7 75.6 61.8 73.0 62.4 72.3 62.4 73.7 61.7 76.9 60.4 81.5 58.7 86.8 56.7 92.1 54.7 96.5 53.0 99.4 51.9 100.4 51.3 99.2 51.5 96.0 52.3 91.2 53.6 85.6 55.1 79.9 56.8 74.9 58.1 71.4 59.0 69.9 59.3 70.7 58.8 73.5 57.6 78.1 55.9 83.7 53.8 89.5 51.7 94.7 49.8 98.5 48.3 100.3 47.5 99.8 47.4 97.1 48.0 92.5 49.3 86.6 50.9 80.4 52.7 74.7 54.3 70.3 55.5 67.9 56.0 67.8 55.8 70.1 54.8 74.5 53.2 80.2 51.1 86.5 48.8 92.5 46.6 97.2 44.8 99.9 43.7 100.3 43.3 98.1 43.8 93.8 44.9 87.9 46.6 81.3 48.5 74.8 50.4 69.5 51.9 66.2 52.7 65.2 52.8 66.8 52.0 70.8 50.5 76.5 48.4 83.2 46.0 89.8 43.6 95.4 41.5 99.2 40.1 100.5 39.4 99.1 39.6 95.2 40.6 89.4 42.3 82.5 44.3 75.4 46.3 69.2 48.1 64.8 49.3 62.9 49.7 63.7 49.2 67.1 47.8 72.6 45.8 79.5 43.3 86.7 40.7 93.2 38.4 98.0 36.6 100.3 35.6 99.9 35.5 96.6 36.3 91.1 37.8 84.0 39.9 76.4 42.1 69.4 44.2 64.0 45.7 60.9 46.4 60.7 46.2 63.4 45.1 68.6 43.2 75.6 40.7 83.3 38.0 90.6 35.3 96.4 33.2 99.8 31.9 100.4 31.4 97.9 32.0 92.9 33.4 85.8 35.4 77.8 37.8 70.0 40.1 63.6 41.9 59.4 43.0 58.1 43.2 59.9 42.4 64.6 40.6 71.4 38.2 79.4 35.3 87.4 32.5 94.2 30.0 98.8 28.3 100.5 27.5 99.1 27.7 94.6 28.9 87.8 30.9 79.5 33.3 71.1 35.9 63.6 38.0 58.3 39.5 55.9 40.1 56.7 39.6 60.6 38.0 67.1 35.7 75.3 32.8 83.9 29.8 91.6 27.0 97.4 24.9 100.3 23.7 99.9 23.6 96.3 24.5 89.9 26.4 81.6 28.8 72.6 31.5 64.2 34.0 57.7 35.8 54.0 36.8 53.7 36.7 56.7 35.4 62.7 33.2 70.8 30.4 79.9 27.2 88.5 24.1 95.4 21.6 99.6 20.0 100.5 19.5 97.8 20.1 92.0 21.8 83.8 24.2 74.5 27.0 65.3 29.7 57.7 32.0 52.7 33.3 51.0 33.6 53.0 32.8 58.3 30.8 66.2 28.0 75.5 24.7 84.9 21.4 92.9 18.6 98.5 16.5 100.6 15.6 99.1 15.8 94.1 17.2 86.2 19.5 76.7 22.4 66.9 25.3 58.2 27.9 51.8 29.7 48.8 30.5 49.6 30.0 54.0 28.3 61.5 25.6 70.9 22.3 80.8 18.9 89.9 15.7 96.7 13.2 100.3 11.8 100.1 11.6 96.0 12.7 88.7 14.8 79.2 17.7 68.9 20.8 59.2 23.7 51.6 25.9 47.1 27.1 46.6 27.1 49.9 25.8 56.7 23.3 66.0 20.1 76.3 16.4 86.3 13.0 94.4 10.1 99.4 8.2 100.6 7.6 97.7 8.3 91.2 10.2 81.9 12.9 71.3 16.2 60.7 19.3 51.9 22.0 46.0 23.6 43.9 24.1 46.0 23.1 52.0 21.0 60.9 17.8 71.5 14.1 82.2 10.4 91.5 7.1 98.0 4.8 100.7 3.7 99.2 3.9 93.6 5.5 84.8 8.1 74.0 11.4 62.8 14.8 52.8 17.8 45.5 19.9 41.8 20.9 42.5 20.4 47.4 18.6 55.7 15.6 66.3 11.9 77.7 8.0 88.1 4.4 96.0 1.6 100.2 -0.0 100.2 -0.3 95.8 0.9 87.7 3.3 77.0 6.5" stroke="#f600ff" stroke-width="0.6" fill="transparent">
    <animateTransform attributeName="transform" attributeType="xml" type="rotate" from="0 100 100" to="360 100 100" dur="8s" repeatCount="indefinite"/>
  </path>
  <path d="M 101.7 96.3 L  102.2 96.3 102.7 96.2 102.9 96.0 103.0 95.8 102.8 95.5 102.4 95.1 101.9 94.7 101.2 94.3 100.6 93.8 100.2 93.4 100.0 93.1 100.0 92.9 100.4 92.8 101.1 92.8 102.0 92.8 103.0 92.9 103.9 93.0 104.7 93.0 105.2 92.9 105.3 92.7 105.0 92.3 104.4 91.9 103.5 91.3 102.4 90.8 101.4 90.2 100.5 89.7 100.0 89.3 100.0 89.0 100.4 88.9 101.3 88.9 102.5 89.1 103.9 89.3 105.3 89.5 106.6 89.7 107.4 89.7 107.7 89.6 107.4 89.2 106.6 88.7 105.4 88.1 103.9 87.4 102.4 86.6 101.1 86.0 100.2 85.4 99.9 85.1 100.2 85.0 101.2 85.0 102.7 85.3 104.6 85.6 106.5 86.0 108.1 86.3 109.4 86.5 110.0 86.4 109.9 86.2 109.0 85.6 107.6 84.9 105.7 84.1 103.7 83.2 101.9 82.3 100.6 81.7 99.9 81.2 100.1 81.0 101.0 81.1 102.7 81.4 104.9 81.9 107.2 82.4 109.4 82.9 111.2 83.2 112.2 83.3 112.3 83.1 111.6 82.6 110.0 81.8 107.8 80.9 105.4 79.8 103.0 78.8 101.2 78.0 100.0 77.4 99.9 77.1 100.7 77.1 102.5 77.4 104.9 78.0 107.7 78.7 110.4 79.3 112.7 79.8 114.2 80.1 114.8 80.0 114.2 79.6 112.6 78.8 110.2 77.8 107.4 76.6 104.5 75.4 102.1 74.4 100.4 73.6 99.8 73.2 100.4 73.1 102.1 73.4 104.7 74.0 107.8 74.8 111.1 75.6 114.0 76.3 116.1 76.8 117.1 76.9 116.8 76.5 115.3 75.8 112.8 74.7 109.7 73.5 106.3 72.1 103.3 70.9 101.0 69.9 99.9 69.3 100.0 69.1 101.6 69.4 104.2 70.0 107.6 70.9 111.4 71.8 114.9 72.7 117.6 73.4 119.2 73.7 119.4 73.5 118.2 72.8 115.7 71.8 112.3 70.4 108.5 69.0 104.8 67.5 101.9 66.3 100.1 65.5 99.8 65.2 101.0 65.3 103.6 65.9 107.2 66.9 111.3 68.0 115.4 69.0 118.8 69.9 121.1 70.4 121.8 70.4 121.0 69.9 118.6 68.9 115.1 67.5 111.0 65.9 106.8 64.3 103.1 62.9 100.7 61.8 99.7 61.3 100.5 61.3 102.8 61.8 106.5 62.7 110.9 64.0 115.6 65.2 119.7 66.3 122.7 67.0 124.1 67.3 123.8 66.9 121.7 66.0 118.2 64.6 113.8 62.9 109.1 61.2 104.8 59.5 101.5 58.2 99.8 57.4 100.0 57.2 102.0 57.7 105.6 58.6 110.3 59.9 115.4 61.3 120.1 62.6 123.9 63.6 126.1 64.0 126.4 63.9 124.8 63.1 121.5 61.8 116.9 60.1 111.7 58.1 106.8 56.3 102.7 54.7 100.2 53.7 99.7 53.3 101.2 53.5 104.6 54.4 109.3 55.7 114.8 57.2 120.2 58.7 124.8 60.0 127.8 60.7 128.9 60.8 127.9 60.2 124.8 59.0 120.2 57.3 114.7 55.2 109.1 53.2 104.3 51.4 101.0 50.1 99.6 49.4 100.5 49.4 103.5 50.1 108.2 51.4 113.9 53.0 119.9 54.7 125.3 56.2 129.2 57.3 131.1 57.7 130.8 57.3 128.2 56.2 123.7 54.5 118.0 52.4 111.9 50.2 106.3 48.2 102.1 46.5 99.8 45.6 99.9 45.3 102.4 45.9 106.9 47.1 112.8 48.8 119.2 50.6 125.3 52.4 130.2 53.7 133.0 54.4 133.5 54.3 131.5 53.4 127.4 51.8 121.6 49.7 115.1 47.4 108.8 45.1 103.6 43.2 100.4 41.9 99.6 41.4 101.4 41.7 105.5 42.8 111.3 44.4 118.2 46.4 124.9 48.4 130.7 50.0 134.6 51.0 136.0 51.2 134.8 50.6 131.1 49.2 125.4 47.1 118.6 44.6 111.7 42.1 105.6 39.9 101.4 38.3 99.6 37.5 100.5 37.5 104.0 38.4 109.7 40.0 116.8 42.1 124.1 44.2 130.7 46.1 135.7 47.5 138.1 48.1 137.8 47.7 134.7 46.5 129.3 44.5 122.4 42.0 114.9 39.3 108.1 36.8 102.8 34.9 99.9 33.7 99.8 33.4 102.7 34.1 108.0 35.6 115.1 37.7 122.9 40.0 130.4 42.1 136.3 43.8 139.9 44.8 140.6 44.7 138.3 43.8 133.4 41.9 126.5 39.4 118.6 36.6 111.0 33.9 104.6 31.6 100.6 30.1 99.5 29.4 101.5 29.8 106.3 31.2 113.2 33.2 121.4 35.6 129.5 38.0 136.5 40.0 141.2 41.3 143.1 41.7 141.7 41.0 137.4 39.3 130.7 36.9 122.6 34.0 114.3 31.1 107.0 28.5 101.8 26.6 99.5 25.6 100.5 25.6 104.5 26.7 111.2 28.6 119.5 31.1 128.2 33.7 136.1 36.0 142.0 37.7 145.1 38.4 144.9 38.1 141.4 36.7 135.1 34.5 126.9 31.6 118.1 28.5 109.9 25.5 103.5 23.2 100.0 21.8 99.7 21.5 102.9 22.3 109.1 24.1 117.3 26.5 126.5 29.3 135.3 31.9 142.4 33.9 146.7 35.1 147.7 35.2 145.2 34.1 139.5 32.0 131.5 29.2 122.3 25.9 113.2 22.8 105.7 20.1 100.9 18.3 99.4 17.5 101.5 18.0 107.0 19.5 115.0 21.9 124.5 24.7 134.0 27.6 142.1 30.0 147.8 31.6 150.1 32.1 148.7 31.4 143.8 29.5 136.1 26.8 126.8 23.5 117.1 20.1 108.5 17.1 102.3 14.9 99.5 13.7 100.4 13.7 104.9 15.0 112.5 17.2 122.1 20.1 132.2 23.1 141.4 25.8 148.4 27.9 152.1 28.8 152.0 28.6 148.1 27.0 140.9 24.5 131.6 21.2 121.4 17.6 111.8 14.3 104.4 11.6 100.1 10.0 99.6 9.6 103.1 10.5 110.0 12.5 119.4 15.3 130.0 18.5 140.1 21.5 148.3 24.0 153.5 25.4 154.8 25.6 152.1 24.5 145.7 22.1 136.6 18.9 126.0 15.3 115.7 11.7 107.0 8.6 101.2 6.5 99.3 5.6 101.5 6.1 107.6 7.8 116.6 10.5 127.4 13.8 138.3 17.1 147.7 19.9 154.3 21.8 157.2 22.5 155.8 21.8 150.4 19.8 141.7 16.7 131.1 13.0 120.0 9.2 110.1 5.7 102.9 3.2 99.5 1.8 100.3 1.8 105.3 3.2 113.8 5.7 124.5 9.0 136.0 12.5 146.5 15.6 154.6 18.0 159.0 19.2 159.1 19.0 154.8 17.4 146.9 14.5 136.3 10.9" stroke="#2300ff" stroke-width="0.6" fill="transparent">
    <animateTransform attributeName="transform" attributeType="xml" type="rotate" from="0 100 100" to="360 100 100" dur="8s" repeatCount="indefinite"/>
  </path>
  <path d="M 103.5 98.1 L  104.0 98.3 104.4 98.5 104.7 98.5 104.9 98.4 104.9 98.0 104.8 97.5 104.6 96.8 104.4 96.1 104.1 95.4 104.0 94.8 104.0 94.4 104.2 94.3 104.6 94.4 105.1 94.8 105.8 95.3 106.6 96.0 107.3 96.6 108.0 97.1 108.4 97.3 108.6 97.2 108.6 96.8 108.3 96.0 107.9 95.0 107.4 93.9 106.9 92.8 106.5 91.9 106.3 91.3 106.4 91.1 106.8 91.2 107.5 91.8 108.4 92.6 109.5 93.7 110.5 94.7 111.4 95.5 112.0 96.0 112.4 96.1 112.3 95.7 112.0 94.8 111.4 93.5 110.6 92.1 109.8 90.6 109.1 89.3 108.7 88.3 108.7 87.9 109.0 88.0 109.8 88.6 110.9 89.7 112.1 91.1 113.4 92.5 114.6 93.7 115.5 94.6 116.1 94.9 116.1 94.6 115.7 93.7 115.0 92.2 114.0 90.5 112.9 88.6 111.9 86.8 111.2 85.5 111.0 84.7 111.2 84.7 111.9 85.3 113.1 86.5 114.6 88.2 116.2 90.0 117.7 91.7 118.9 93.0 119.7 93.6 119.9 93.6 119.6 92.7 118.8 91.2 117.6 89.1 116.2 86.8 114.9 84.7 113.9 82.9 113.3 81.7 113.4 81.4 114.0 81.9 115.3 83.2 116.9 85.1 118.8 87.3 120.6 89.4 122.2 91.1 123.2 92.2 123.7 92.5 123.5 91.8 122.6 90.2 121.3 88.0 119.7 85.4 118.1 82.8 116.7 80.5 115.8 78.9 115.6 78.2 116.1 78.5 117.3 79.7 119.0 81.7 121.1 84.2 123.3 86.8 125.2 89.1 126.6 90.6 127.4 91.3 127.4 90.9 126.6 89.4 125.2 87.1 123.4 84.2 121.5 81.2 119.7 78.4 118.5 76.3 117.9 75.1 118.2 75.1 119.3 76.2 121.0 78.2 123.3 80.9 125.7 83.9 128.0 86.7 129.9 88.8 131.0 90.0 131.3 89.9 130.6 88.7 129.3 86.4 127.3 83.3 125.1 79.9 123.0 76.6 121.3 73.9 120.4 72.2 120.3 71.7 121.2 72.5 122.9 74.5 125.3 77.4 128.0 80.7 130.7 84.0 132.9 86.7 134.4 88.4 135.1 88.9 134.7 88.0 133.4 85.8 131.3 82.6 128.9 78.9 126.5 75.1 124.4 71.8 123.0 69.5 122.5 68.5 123.1 68.9 124.7 70.8 127.1 73.7 130.0 77.3 133.0 81.0 135.7 84.3 137.7 86.6 138.7 87.7 138.7 87.2 137.6 85.3 135.5 82.1 132.9 78.1 130.2 73.9 127.6 70.0 125.8 67.1 124.9 65.5 125.1 65.4 126.5 66.9 128.9 69.8 131.9 73.6 135.2 77.7 138.3 81.6 140.8 84.6 142.3 86.3 142.6 86.3 141.7 84.8 139.8 81.7 137.1 77.6 134.1 73.0 131.2 68.6 128.8 65.0 127.4 62.7 127.2 62.0 128.3 63.1 130.5 65.8 133.6 69.6 137.1 74.1 140.6 78.5 143.6 82.2 145.6 84.6 146.4 85.3 145.9 84.2 144.2 81.4 141.5 77.3 138.2 72.4 134.9 67.5 132.1 63.2 130.2 60.2 129.5 58.8 130.1 59.4 132.1 61.7 135.2 65.5 138.9 70.2 142.7 75.1 146.2 79.4 148.7 82.6 150.1 84.0 150.0 83.6 148.5 81.2 145.9 77.2 142.5 72.1 138.9 66.7 135.6 61.8 133.1 58.0 131.9 55.9 132.1 55.7 133.7 57.6 136.6 61.3 140.4 66.1 144.6 71.4 148.5 76.3 151.6 80.3 153.5 82.5 154.0 82.7 152.9 80.9 150.4 77.1 147.0 72.0 143.1 66.3 139.4 60.7 136.4 56.2 134.5 53.2 134.1 52.3 135.4 53.6 138.1 56.9 141.8 61.7 146.2 67.3 150.5 72.9 154.2 77.6 156.7 80.7 157.8 81.7 157.2 80.5 155.0 77.1 151.7 72.1 147.6 66.1 143.5 60.0 139.9 54.7 137.4 50.9 136.4 49.2 137.1 49.7 139.5 52.6 143.1 57.2 147.6 63.0 152.3 69.1 156.5 74.5 159.7 78.5 161.4 80.4 161.3 79.9 159.6 77.1 156.4 72.3 152.2 66.2 147.8 59.7 143.6 53.6 140.5 48.9 138.9 46.3 139.0 46.1 140.9 48.3 144.3 52.6 148.9 58.5 153.8 64.9 158.6 71.0 162.4 75.9 164.8 78.8 165.3 79.2 164.1 77.0 161.1 72.6 157.0 66.5 152.3 59.7 147.7 53.0 144.0 47.4 141.6 43.8 141.1 42.6 142.4 44.1 145.5 48.0 150.0 53.7 155.2 60.5 160.3 67.2 164.8 72.9 167.8 76.7 169.1 78.1 168.5 76.8 165.9 72.9 161.9 67.0 157.1 59.9 152.1 52.7 147.7 46.3 144.6 41.7 143.4 39.5 144.1 40.1 146.7 43.4 151.0 48.9 156.3 55.7 161.8 62.9 166.8 69.5 170.6 74.3 172.7 76.7 172.7 76.3 170.6 73.1 166.9 67.6 162.0 60.5 156.7 52.7 151.8 45.6 148.0 40.0 145.9 36.7 145.9 36.4 148.0 38.9 152.0 43.9 157.2 50.7 163.0 58.4 168.6 65.6 173.1 71.4 176.0 74.9 176.7 75.6 175.3 73.2 171.9 68.2 167.1 61.2 161.5 53.2 156.1 45.3 151.6 38.7 148.8 34.4 148.0 32.9 149.4 34.5 153.0 39.0 158.1 45.6 164.0 53.5 170.1 61.4 175.3 68.1 178.9 72.7 180.5 74.5 179.8 73.1 176.9 68.8 172.3 62.0 166.6 53.9 160.8 45.4 155.6 37.9 151.9 32.5 150.3 29.9 151.0 30.4 154.0 34.1 158.8 40.4 164.9 48.3 171.2 56.7 177.1 64.3 181.5 70.1 184.0 73.0 184.0 72.7 181.8 69.2 177.5 63.0 171.9 54.8 165.7 45.9 159.9 37.6 155.5 31.1 153.0 27.2 152.8 26.6 155.1 29.4 159.5 35.1 165.5 42.9 172.2 51.7 178.6 60.1 183.8 66.9 187.1 71.1 188.1 72.0 186.5 69.5 182.7 63.9 177.2 55.9 170.9 46.8 164.6 37.7 159.4 30.1 155.9 25.0 154.9 23.2 156.4 24.9 160.3 29.9 166.1 37.4 172.8 46.3 179.7 55.4 185.7 63.3 189.9 68.7 191.8 70.9 191.1 69.5 187.9 64.7 182.7 57.1 176.2 47.9 169.6 38.3 163.6 29.7 159.3 23.4 157.3 20.2 157.9 20.7 161.2 24.8 166.6 31.8 173.3 40.8 180.6 50.3 187.2 59.1 192.4 65.8 195.2 69.3 195.4 69.2 192.9 65.4 188.2 58.4 181.8 49.3" stroke="#00ff00" stroke-width="0.6" fill="transparent">
    <animateTransform attributeName="transform" attributeType="xml" type="rotate" from="0 100 100" to="360 100 100" dur="8s" repeatCount="indefinite"/>
  </path>
</svg>
