<?xml version='1.0' encoding='UTF-8' standalone='no'?>
<svg xmlns="http://www.w3.org/2000/svg" xmlns:xlink="http://www.w3.org/1999/xlink" version="1.1" width="100%" viewBox="0 0 200 200">
  <rect x="0" y="0" width="200" height="200" fill="none" stroke="black" stroke-width="1" id="border" opacity="0.8"/>
  <path d="M 10.0 5.8 L  10.5 7.6 10.9 10.2 11.4 13.6 11.8 17.6 12.3 21.9 12.7 26.4 13.2 30.8 13.6 35.0 14.1 38.6 14.5 41.5 15.0 43.6 15.4 44.8 15.9 44.9 16.3 44.1 16.8 42.3 17.2 39.6 17.7 36.1 18.1 32.1 18.6 27.8 19.0 23.3 19.5 18.9 19.9 14.8 20.4 11.2 20.8 8.3 21.3 6.3 21.7 5.2 22.2 5.1 22.6 6.0 23.1 7.9 23.5 10.7 24.0 14.1 24.4 18.2 24.9 22.6 25.3 27.1 25.8 31.4 26.2 35.5 26.7 39.1 27.1 41.9 27.6 43.9 28.0 44.9 28.5 44.9 28.9 43.9 29.4 41.9 29.8 39.1 30.3 35.6 30.8 31.5 31.2 27.1 31.7 22.6 32.1 18.2 32.6 14.2 33.0 10.7 33.5 7.9 33.9 6.0 34.4 5.1 34.8 5.2 35.3 6.2 35.7 8.3 36.2 11.1 36.6 14.7 37.1 18.8 37.5 23.2 38.0 27.7 38.4 32.1 38.9 36.1 39.3 39.5 39.8 42.2 40.2 44.1 40.7 44.9 41.1 44.8 41.6 43.7 42.0 41.6 42.5 38.6 42.9 35.0 43.4 30.9 43.8 26.5 44.3 22.0 44.7 17.6 45.2 13.7 45.6 10.3 46.1 7.6 46.5 5.8 47.0 5.0 47.4 5.3 47.9 6.5 48.3 8.6 48.8 11.6 49.2 15.3 49.7 19.4 50.2 23.8 50.6 28.3 51.1 32.7 51.5 36.6 52.0 40.0 52.4 42.5 52.9 44.2 53.3 45.0 53.8 44.7 54.2 43.4 54.7 41.2 55.1 38.2 55.6 34.5 56.0 30.3 56.5 25.8 56.9 21.3 57.4 17.0 57.8 13.1 58.3 9.8 58.7 7.3 59.2 5.7 59.6 5.0 60.1 5.4 60.5 6.7 61.0 9.0 61.4 12.1 61.9 15.8 62.3 20.0 62.8 24.5 63.2 29.0 63.7 33.3 64.1 37.1 64.6 40.4 65.0 42.9 65.5 44.4 65.9 45.0 66.4 44.6 66.8 43.1 67.3 40.8 67.7 37.7 68.2 33.9 68.6 29.6 69.1 25.2 69.5 20.7 70.0 16.4 70.5 12.6 70.9 9.4 71.4 7.0 71.8 5.5 72.3 5.0 72.7 5.5 73.2 7.0 73.6 9.4 74.1 12.6 74.5 16.4 75.0 20.7 75.4 25.2 75.9 29.6 76.3 33.9 76.8 37.6 77.2 40.8 77.7 43.1 78.1 44.6 78.6 45.0 79.0 44.4 79.5 42.9 79.9 40.4 80.4 37.1 80.8 33.3 81.3 29.0 81.7 24.5 82.2 20.1 82.6 15.9 83.1 12.1 83.5 9.0 84.0 6.7 84.4 5.4 84.9 5.0 85.3 5.7 85.8 7.3 86.2 9.8 86.7 13.1 87.1 17.0 87.6 21.3 88.0 25.8 88.5 30.3 88.9 34.4 89.4 38.1 89.8 41.2 90.3 43.4 90.8 44.7 91.2 45.0 91.7 44.3 92.1 42.6 92.6 40.0 93.0 36.6 93.5 32.7 93.9 28.4 94.4 23.9 94.8 19.4 95.3 15.3 95.7 11.6 96.2 8.6 96.6 6.5 97.1 5.3 97.5 5.0 98.0 5.8 98.4 7.6 98.9 10.2 99.3 13.6 99.8 17.6 100.2 22.0 100.7 26.5 101.1 30.9 101.6 35.0 102.0 38.6 102.5 41.6 102.9 43.6 103.4 44.8 103.8 44.9 104.3 44.1 104.7 42.2 105.2 39.5 105.6 36.1 106.1 32.1 106.5 27.7 107.0 23.2 107.4 18.8 107.9 14.7 108.3 11.1 108.8 8.3 109.2 6.2 109.7 5.2 110.2 5.1 110.6 6.0 111.1 7.9 111.5 10.7 112.0 14.2 112.4 18.2 112.9 22.6 113.3 27.1 113.8 31.5 114.2 35.6 114.7 39.1 115.1 41.9 115.6 43.9 116.0 44.9 116.5 44.9 116.9 43.9 117.4 41.9 117.8 39.1 118.3 35.5 118.7 31.5 119.2 27.1 119.6 22.6 120.1 18.2 120.5 14.2 121.0 10.7 121.4 7.9 121.9 6.0 122.3 5.1 122.8 5.2 123.2 6.3 123.7 8.3 124.1 11.2 124.6 14.7 125.0 18.8 125.5 23.3 125.9 27.8 126.4 32.1 126.8 36.1 127.3 39.6 127.7 42.3 128.2 44.1 128.6 44.9 129.1 44.8 129.5 43.6 130.0 41.5 130.5 38.6 130.9 35.0 131.4 30.8 131.8 26.4 132.3 21.9 132.7 17.6 133.2 13.6 133.6 10.2 134.1 7.6 134.5 5.8 135.0 5.0 135.4 5.3 135.9 6.5 136.3 8.6 136.8 11.6 137.2 15.3 137.7 19.5 138.1 23.9 138.6 28.4 139.0 32.7 139.5 36.7 139.9 40.0 140.4 42.6 140.8 44.3 141.3 45.0 141.7 44.7 142.2 43.4 142.6 41.2 143.1 38.1 143.5 34.4 144.0 30.2 144.4 25.8 144.9 21.3 145.3 17.0 145.8 13.1 146.2 9.8 146.7 7.3 147.1 5.7 147.6 5.0 148.0 5.4 148.5 6.7 148.9 9.0 149.4 12.1 149.8 15.9 150.3 20.1 150.8 24.6 151.2 29.0 151.7 33.3 152.1 37.2 152.6 40.4 153.0 42.9 153.5 44.4 153.9 45.0 154.4 44.6 154.8 43.1 155.3 40.8 155.7 37.6 156.2 33.8 156.6 29.6 157.1 25.1 157.5 20.6 158.0 16.4 158.4 12.6 158.9 9.4 159.3 7.0 159.8 5.5 160.2 5.0 160.7 5.5 161.1 7.0 161.6 9.4 162.0 12.6 162.5 16.5 162.9 20.7 163.4 25.2 163.8 29.7 164.3 33.9 164.7 37.7 165.2 40.8 165.6 43.2 166.1 44.6 166.5 45.0 167.0 44.4 167.4 42.8 167.9 40.4 168.3 37.1 168.8 33.2 169.2 29.0 169.7 24.5 170.2 20.0 170.6 15.8 171.1 12.1 171.5 9.0 172.0 6.7 172.4 5.4 172.9 5.0 173.3 5.7 173.8 7.3 174.2 9.9 174.7 13.2 175.1 17.1 175.6 21.4 176.0 25.9 176.5 30.3 176.9 34.5 177.4 38.2 177.8 41.2 178.3 43.4 178.7 44.7 179.2 45.0 179.6 44.2 180.1 42.5 180.5 39.9 181.0 36.6 181.4 32.6 181.9 28.3 182.3 23.8 182.8 19.4 183.2 15.2 183.7 11.6 184.1 8.6 184.6 6.5 185.0 5.2 185.5 5.0 185.9 5.9 186.4 7.6 186.8 10.3 187.3 13.7 187.7 17.7 188.2 22.0 188.6 26.5 189.1 30.9 189.5 35.1 190.0 38.7" stroke="#ff1500" stroke-width="0.1" fill="transparent"/>
  <path d="M 10.0 55.8 L  10.5 57.6 10.9 60.2 11.4 63.6 11.8 67.6 12.3 71.9 12.7 76.4 13.2 80.8 13.6 85.0 14.1 88.6 14.5 91.5 15.0 93.6 15.4 94.8 15.9 94.9 16.3 94.1 16.8 92.3 17.2 89.6 17.7 86.1 18.1 82.1 18.6 77.8 19.0 73.3 19.5 68.9 19.9 64.8 20.4 61.2 20.8 58.3 21.3 56.3 21.7 55.2 22.2 55.1 22.6 56.0 23.1 57.9 23.5 60.7 24.0 64.1 24.4 68.2 24.9 72.6 25.3 77.1 25.8 81.4 26.2 85.5 26.7 89.1 27.1 91.9 27.6 93.9 28.0 94.9 28.5 94.9 28.9 93.9 29.4 91.9 29.8 89.1 30.3 85.6 30.8 81.5 31.2 77.1 31.7 72.6 32.1 68.2 32.6 64.2 33.0 60.7 33.5 57.9 33.9 56.0 34.4 55.1 34.8 55.2 35.3 56.2 35.7 58.3 36.2 61.1 36.6 64.7 37.1 68.8 37.5 73.2 38.0 77.7 38.4 82.1 38.9 86.1 39.3 89.5 39.8 92.2 40.2 94.1 40.7 94.9 41.1 94.8 41.6 93.7 42.0 91.6 42.5 88.6 42.9 85.0 43.4 80.9 43.8 76.5 44.3 72.0 44.7 67.6 45.2 63.7 45.6 60.3 46.1 57.6 46.5 55.8 47.0 55.0 47.4 55.3 47.9 56.5 48.3 58.6 48.8 61.6 49.2 65.3 49.7 69.4 50.2 73.8 50.6 78.3 51.1 82.7 51.5 86.6 52.0 90.0 52.4 92.5 52.9 94.2 53.3 95.0 53.8 94.7 54.2 93.4 54.7 91.2 55.1 88.2 55.6 84.5 56.0 80.3 56.5 75.8 56.9 71.3 57.4 67.0 57.8 63.1 58.3 59.8 58.7 57.3 59.2 55.7 59.6 55.0 60.1 55.4 60.5 56.7 61.0 59.0 61.4 62.1 61.9 65.8 62.3 70.0 62.8 74.5 63.2 79.0 63.7 83.3 64.1 87.1 64.6 90.4 65.0 92.9 65.5 94.4 65.9 95.0 66.4 94.6 66.8 93.1 67.3 90.8 67.7 87.7 68.2 83.9 68.6 79.6 69.1 75.2 69.5 70.7 70.0 66.4 70.5 62.6 70.9 59.4 71.4 57.0 71.8 55.5 72.3 55.0 72.7 55.5 73.2 57.0 73.6 59.4 74.1 62.6 74.5 66.4 75.0 70.7 75.4 75.2 75.9 79.6 76.3 83.9 76.8 87.6 77.2 90.8 77.7 93.1 78.1 94.6 78.6 95.0 79.0 94.4 79.5 92.9 79.9 90.4 80.4 87.1 80.8 83.3 81.3 79.0 81.7 74.5 82.2 70.1 82.6 65.9 83.1 62.1 83.5 59.0 84.0 56.7 84.4 55.4 84.9 55.0 85.3 55.7 85.8 57.3 86.2 59.8 86.7 63.1 87.1 67.0 87.6 71.3 88.0 75.8 88.5 80.3 88.9 84.4 89.4 88.1 89.8 91.2 90.3 93.4 90.8 94.7 91.2 95.0 91.7 94.3 92.1 92.6 92.6 90.0 93.0 86.6 93.5 82.7 93.9 78.4 94.4 73.9 94.8 69.4 95.3 65.3 95.7 61.6 96.2 58.6 96.6 56.5 97.1 55.3 97.5 55.0 98.0 55.8 98.4 57.6 98.9 60.2 99.3 63.6 99.8 67.6 100.2 72.0 100.7 76.5 101.1 80.9 101.6 85.0 102.0 88.6 102.5 91.6 102.9 93.6 103.4 94.8 103.8 94.9 104.3 94.1 104.7 92.2 105.2 89.5 105.6 86.1 106.1 82.1 106.5 77.7 107.0 73.2 107.4 68.8 107.9 64.7 108.3 61.1 108.8 58.3 109.2 56.2 109.7 55.2 110.2 55.1 110.6 56.0 111.1 57.9 111.5 60.7 112.0 64.2 112.4 68.2 112.9 72.6 113.3 77.1 113.8 81.5 114.2 85.6 114.7 89.1 115.1 91.9 115.6 93.9 116.0 94.9 116.5 94.9 116.9 93.9 117.4 91.9 117.8 89.1 118.3 85.5 118.7 81.5 119.2 77.1 119.6 72.6 120.1 68.2 120.5 64.2 121.0 60.7 121.4 57.9 121.9 56.0 122.3 55.1 122.8 55.2 123.2 56.3 123.7 58.3 124.1 61.2 124.6 64.7 125.0 68.8 125.5 73.3 125.9 77.8 126.4 82.1 126.8 86.1 127.3 89.6 127.7 92.3 128.2 94.1 128.6 94.9 129.1 94.8 129.5 93.6 130.0 91.5 130.5 88.6 130.9 85.0 131.4 80.8 131.8 76.4 132.3 71.9 132.7 67.6 133.2 63.6 133.6 60.2 134.1 57.6 134.5 55.8 135.0 55.0 135.4 55.3 135.9 56.5 136.3 58.6 136.8 61.6 137.2 65.3 137.7 69.5 138.1 73.9 138.6 78.4 139.0 82.7 139.5 86.7 139.9 90.0 140.4 92.6 140.8 94.3 141.3 95.0 141.7 94.7 142.2 93.4 142.6 91.2 143.1 88.1 143.5 84.4 144.0 80.2 144.4 75.8 144.9 71.3 145.3 67.0 145.8 63.1 146.2 59.8 146.7 57.3 147.1 55.7 147.6 55.0 148.0 55.4 148.5 56.7 148.9 59.0 149.4 62.1 149.8 65.9 150.3 70.1 150.8 74.6 151.2 79.0 151.7 83.3 152.1 87.2 152.6 90.4 153.0 92.9 153.5 94.4 153.9 95.0 154.4 94.6 154.8 93.1 155.3 90.8 155.7 87.6 156.2 83.8 156.6 79.6 157.1 75.1 157.5 70.6 158.0 66.4 158.4 62.6 158.9 59.4 159.3 57.0 159.8 55.5 160.2 55.0 160.7 55.5 161.1 57.0 161.6 59.4 162.0 62.6 162.5 66.5 162.9 70.7 163.4 75.2 163.8 79.7 164.3 83.9 164.7 87.7 165.2 90.8 165.6 93.2 166.1 94.6 166.5 95.0 167.0 94.4 167.4 92.8 167.9 90.4 168.3 87.1 168.8 83.2 169.2 79.0 169.7 74.5 170.2 70.0 170.6 65.8 171.1 62.1 171.5 59.0 172.0 56.7 172.4 55.4 172.9 55.0 173.3 55.7 173.8 57.3 174.2 59.9 174.7 63.2 175.1 67.1 175.6 71.4 176.0 75.9 176.5 80.3 176.9 84.5 177.4 88.2 177.8 91.2 178.3 93.4 178.7 94.7 179.2 95.0 179.6 94.2 180.1 92.5 180.5 89.9 181.0 86.6 181.4 82.6 181.9 78.3 182.3 73.8 182.8 69.4 183.2 65.2 183.7 61.6 184.1 58.6 184.6 56.5 185.0 55.2 185.5 55.0 185.9 55.9 186.4 57.6 186.8 60.3 187.3 63.7 187.7 67.7 188.2 72.0 188.6 76.5 189.1 80.9 189.5 85.1 190.0 88.7" stroke="#00ff5a" stroke-width="0.5" fill="transparent"/>
  <path d="M 10.0 105.8 L  10.5 107.6 10.9 110.2 11.4 113.6 11.8 117.6 12.3 121.9 12.7 126.4 13.2 130.8 13.6 135.0 14.1 138.6 14.5 141.5 15.0 143.6 15.4 144.8 15.9 144.9 16.3 144.1 16.8 142.3 17.2 139.6 17.7 136.1 18.1 132.1 18.6 127.8 19.0 123.3 19.5 118.9 19.9 114.8 20.4 111.2 20.8 108.3 21.3 106.3 21.7 105.2 22.2 105.1 22.6 106.0 23.1 107.9 23.5 110.7 24.0 114.1 24.4 118.2 24.9 122.6 25.3 127.1 25.8 131.4 26.2 135.5 26.7 139.1 27.1 141.9 27.6 143.9 28.0 144.9 28.5 144.9 28.9 143.9 29.4 141.9 29.8 139.1 30.3 135.6 30.8 131.5 31.2 127.1 31.7 122.6 32.1 118.2 32.6 114.2 33.0 110.7 33.5 107.9 33.9 106.0 34.4 105.1 34.8 105.2 35.3 106.2 35.7 108.3 36.2 111.1 36.6 114.7 37.1 118.8 37.5 123.2 38.0 127.7 38.4 132.1 38.9 136.1 39.3 139.5 39.8 142.2 40.2 144.1 40.7 144.9 41.1 144.8 41.6 143.7 42.0 141.6 42.5 138.6 42.9 135.0 43.4 130.9 43.8 126.5 44.3 122.0 44.7 117.6 45.2 113.7 45.6 110.3 46.1 107.6 46.5 105.8 47.0 105.0 47.4 105.3 47.9 106.5 48.3 108.6 48.8 111.6 49.2 115.3 49.7 119.4 50.2 123.8 50.6 128.3 51.1 132.7 51.5 136.6 52.0 140.0 52.4 142.5 52.9 144.2 53.3 145.0 53.8 144.7 54.2 143.4 54.7 141.2 55.1 138.2 55.6 134.5 56.0 130.3 56.5 125.8 56.9 121.3 57.4 117.0 57.8 113.1 58.3 109.8 58.7 107.3 59.2 105.7 59.6 105.0 60.1 105.4 60.5 106.7 61.0 109.0 61.4 112.1 61.9 115.8 62.3 120.0 62.8 124.5 63.2 129.0 63.7 133.3 64.1 137.1 64.6 140.4 65.0 142.9 65.5 144.4 65.9 145.0 66.4 144.6 66.8 143.1 67.3 140.8 67.7 137.7 68.2 133.9 68.6 129.6 69.1 125.2 69.5 120.7 70.0 116.4 70.5 112.6 70.9 109.4 71.4 107.0 71.8 105.5 72.3 105.0 72.7 105.5 73.2 107.0 73.6 109.4 74.1 112.6 74.5 116.4 75.0 120.7 75.4 125.2 75.9 129.6 76.3 133.9 76.8 137.6 77.2 140.8 77.7 143.1 78.1 144.6 78.6 145.0 79.0 144.4 79.5 142.9 79.9 140.4 80.4 137.1 80.8 133.3 81.3 129.0 81.7 124.5 82.2 120.1 82.6 115.9 83.1 112.1 83.5 109.0 84.0 106.7 84.4 105.4 84.9 105.0 85.3 105.7 85.8 107.3 86.2 109.8 86.7 113.1 87.1 117.0 87.6 121.3 88.0 125.8 88.5 130.3 88.9 134.4 89.4 138.1 89.8 141.2 90.3 143.4 90.8 144.7 91.2 145.0 91.7 144.3 92.1 142.6 92.6 140.0 93.0 136.6 93.5 132.7 93.9 128.4 94.4 123.9 94.8 119.4 95.3 115.3 95.7 111.6 96.2 108.6 96.6 106.5 97.1 105.3 97.5 105.0 98.0 105.8 98.4 107.6 98.9 110.2 99.3 113.6 99.8 117.6 100.2 122.0 100.7 126.5 101.1 130.9 101.6 135.0 102.0 138.6 102.5 141.6 102.9 143.6 103.4 144.8 103.8 144.9 104.3 144.1 104.7 142.2 105.2 139.5 105.6 136.1 106.1 132.1 106.5 127.7 107.0 123.2 107.4 118.8 107.9 114.7 108.3 111.1 108.8 108.3 109.2 106.2 109.7 105.2 110.2 105.1 110.6 106.0 111.1 107.9 111.5 110.7 112.0 114.2 112.4 118.2 112.9 122.6 113.3 127.1 113.8 131.5 114.2 135.6 114.7 139.1 115.1 141.9 115.6 143.9 116.0 144.9 116.5 144.9 116.9 143.9 117.4 141.9 117.8 139.1 118.3 135.5 118.7 131.5 119.2 127.1 119.6 122.6 120.1 118.2 120.5 114.2 121.0 110.7 121.4 107.9 121.9 106.0 122.3 105.1 122.8 105.2 123.2 106.3 123.7 108.3 124.1 111.2 124.6 114.7 125.0 118.8 125.5 123.3 125.9 127.8 126.4 132.1 126.8 136.1 127.3 139.6 127.7 142.3 128.2 144.1 128.6 144.9 129.1 144.8 129.5 143.6 130.0 141.5 130.5 138.6 130.9 135.0 131.4 130.8 131.8 126.4 132.3 121.9 132.7 117.6 133.2 113.6 133.6 110.2 134.1 107.6 134.5 105.8 135.0 105.0 135.4 105.3 135.9 106.5 136.3 108.6 136.8 111.6 137.2 115.3 137.7 119.5 138.1 123.9 138.6 128.4 139.0 132.7 139.5 136.7 139.9 140.0 140.4 142.6 140.8 144.3 141.3 145.0 141.7 144.7 142.2 143.4 142.6 141.2 143.1 138.1 143.5 134.4 144.0 130.2 144.4 125.8 144.9 121.3 145.3 117.0 145.8 113.1 146.2 109.8 146.7 107.3 147.1 105.7 147.6 105.0 148.0 105.4 148.5 106.7 148.9 109.0 149.4 112.1 149.8 115.9 150.3 120.1 150.8 124.6 151.2 129.0 151.7 133.3 152.1 137.2 152.6 140.4 153.0 142.9 153.5 144.4 153.9 145.0 154.4 144.6 154.8 143.1 155.3 140.8 155.7 137.6 156.2 133.8 156.6 129.6 157.1 125.1 157.5 120.6 158.0 116.4 158.4 112.6 158.9 109.4 159.3 107.0 159.8 105.5 160.2 105.0 160.7 105.5 161.1 107.0 161.6 109.4 162.0 112.6 162.5 116.5 162.9 120.7 163.4 125.2 163.8 129.7 164.3 133.9 164.7 137.7 165.2 140.8 165.6 143.2 166.1 144.6 166.5 145.0 167.0 144.4 167.4 142.8 167.9 140.4 168.3 137.1 168.8 133.2 169.2 129.0 169.7 124.5 170.2 120.0 170.6 115.8 171.1 112.1 171.5 109.0 172.0 106.7 172.4 105.4 172.9 105.0 173.3 105.7 173.8 107.3 174.2 109.9 174.7 113.2 175.1 117.1 175.6 121.4 176.0 125.9 176.5 130.3 176.9 134.5 177.4 138.2 177.8 141.2 178.3 143.4 178.7 144.7 179.2 145.0 179.6 144.2 180.1 142.5 180.5 139.9 181.0 136.6 181.4 132.6 181.9 128.3 182.3 123.8 182.8 119.4 183.2 115.2 183.7 111.6 184.1 108.6 184.6 106.5 185.0 105.2 185.5 105.0 185.9 105.9 186.4 107.6 186.8 110.3 187.3 113.7 187.7 117.7 188.2 122.0 188.6 126.5 189.1 130.9 189.5 135.1 190.0 138.7" stroke="#f2ff00" stroke-width="1.0" fill="transparent"/>
  <path d="M 10.0 155.8 L  10.5 157.6 10.9 160.2 11.4 163.6 11.8 167.6 12.3 171.9 12.7 176.4 13.2 180.8 13.6 185.0 14.1 188.6 14.5 191.5 15.0 193.6 15.4 194.8 15.9 194.9 16.3 194.1 16.8 192.3 17.2 189.6 17.7 186.1 18.1 182.1 18.6 177.8 19.0 173.3 19.5 168.9 19.9 164.8 20.4 161.2 20.8 158.3 21.3 156.3 21.7 155.2 22.2 155.1 22.6 156.0 23.1 157.9 23.5 160.7 24.0 164.1 24.4 168.2 24.9 172.6 25.3 177.1 25.8 181.4 26.2 185.5 26.7 189.1 27.1 191.9 27.6 193.9 28.0 194.9 28.5 194.9 28.9 193.9 29.4 191.9 29.8 189.1 30.3 185.6 30.8 181.5 31.2 177.1 31.7 172.6 32.1 168.2 32.6 164.2 33.0 160.7 33.5 157.9 33.9 156.0 34.4 155.1 34.8 155.2 35.3 156.2 35.7 158.3 36.2 161.1 36.6 164.7 37.1 168.8 37.5 173.2 38.0 177.7 38.4 182.1 38.9 186.1 39.3 189.5 39.8 192.2 40.2 194.1 40.7 194.9 41.1 194.8 41.6 193.7 42.0 191.6 42.5 188.6 42.9 185.0 43.4 180.9 43.8 176.5 44.3 172.0 44.7 167.6 45.2 163.7 45.6 160.3 46.1 157.6 46.5 155.8 47.0 155.0 47.4 155.3 47.9 156.5 48.3 158.6 48.8 161.6 49.2 165.3 49.7 169.4 50.2 173.8 50.6 178.3 51.1 182.7 51.5 186.6 52.0 190.0 52.4 192.5 52.9 194.2 53.3 195.0 53.8 194.7 54.2 193.4 54.7 191.2 55.1 188.2 55.6 184.5 56.0 180.3 56.5 175.8 56.9 171.3 57.4 167.0 57.8 163.1 58.3 159.8 58.7 157.3 59.2 155.7 59.6 155.0 60.1 155.4 60.5 156.7 61.0 159.0 61.4 162.1 61.9 165.8 62.3 170.0 62.8 174.5 63.2 179.0 63.7 183.3 64.1 187.1 64.6 190.4 65.0 192.9 65.5 194.4 65.9 195.0 66.4 194.6 66.8 193.1 67.3 190.8 67.7 187.7 68.2 183.9 68.6 179.6 69.1 175.2 69.5 170.7 70.0 166.4 70.5 162.6 70.9 159.4 71.4 157.0 71.8 155.5 72.3 155.0 72.7 155.5 73.2 157.0 73.6 159.4 74.1 162.6 74.5 166.4 75.0 170.7 75.4 175.2 75.9 179.6 76.3 183.9 76.8 187.6 77.2 190.8 77.7 193.1 78.1 194.6 78.6 195.0 79.0 194.4 79.5 192.9 79.9 190.4 80.4 187.1 80.8 183.3 81.3 179.0 81.7 174.5 82.2 170.1 82.6 165.9 83.1 162.1 83.5 159.0 84.0 156.7 84.4 155.4 84.9 155.0 85.3 155.7 85.8 157.3 86.2 159.8 86.7 163.1 87.1 167.0 87.6 171.3 88.0 175.8 88.5 180.3 88.9 184.4 89.4 188.1 89.8 191.2 90.3 193.4 90.8 194.7 91.2 195.0 91.7 194.3 92.1 192.6 92.6 190.0 93.0 186.6 93.5 182.7 93.9 178.4 94.4 173.9 94.8 169.4 95.3 165.3 95.7 161.6 96.2 158.6 96.6 156.5 97.1 155.3 97.5 155.0 98.0 155.8 98.4 157.6 98.9 160.2 99.3 163.6 99.8 167.6 100.2 172.0 100.7 176.5 101.1 180.9 101.6 185.0 102.0 188.6 102.5 191.6 102.9 193.6 103.4 194.8 103.8 194.9 104.3 194.1 104.7 192.2 105.2 189.5 105.6 186.1 106.1 182.1 106.5 177.7 107.0 173.2 107.4 168.8 107.9 164.7 108.3 161.1 108.8 158.3 109.2 156.2 109.7 155.2 110.2 155.1 110.6 156.0 111.1 157.9 111.5 160.7 112.0 164.2 112.4 168.2 112.9 172.6 113.3 177.1 113.8 181.5 114.2 185.6 114.7 189.1 115.1 191.9 115.6 193.9 116.0 194.9 116.5 194.9 116.9 193.9 117.4 191.9 117.8 189.1 118.3 185.5 118.7 181.5 119.2 177.1 119.6 172.6 120.1 168.2 120.5 164.2 121.0 160.7 121.4 157.9 121.9 156.0 122.3 155.1 122.8 155.2 123.2 156.3 123.7 158.3 124.1 161.2 124.6 164.7 125.0 168.8 125.5 173.3 125.9 177.8 126.4 182.1 126.8 186.1 127.3 189.6 127.7 192.3 128.2 194.1 128.6 194.9 129.1 194.8 129.5 193.6 130.0 191.5 130.5 188.6 130.9 185.0 131.4 180.8 131.8 176.4 132.3 171.9 132.7 167.6 133.2 163.6 133.6 160.2 134.1 157.6 134.5 155.8 135.0 155.0 135.4 155.3 135.9 156.5 136.3 158.6 136.8 161.6 137.2 165.3 137.7 169.5 138.1 173.9 138.6 178.4 139.0 182.7 139.5 186.7 139.9 190.0 140.4 192.6 140.8 194.3 141.3 195.0 141.7 194.7 142.2 193.4 142.6 191.2 143.1 188.1 143.5 184.4 144.0 180.2 144.4 175.8 144.9 171.3 145.3 167.0 145.8 163.1 146.2 159.8 146.7 157.3 147.1 155.7 147.6 155.0 148.0 155.4 148.5 156.7 148.9 159.0 149.4 162.1 149.8 165.9 150.3 170.1 150.8 174.6 151.2 179.0 151.7 183.3 152.1 187.2 152.6 190.4 153.0 192.9 153.5 194.4 153.9 195.0 154.4 194.6 154.8 193.1 155.3 190.8 155.7 187.6 156.2 183.8 156.6 179.6 157.1 175.1 157.5 170.6 158.0 166.4 158.4 162.6 158.9 159.4 159.3 157.0 159.8 155.5 160.2 155.0 160.7 155.5 161.1 157.0 161.6 159.4 162.0 162.6 162.5 166.5 162.9 170.7 163.4 175.2 163.8 179.7 164.3 183.9 164.7 187.7 165.2 190.8 165.6 193.2 166.1 194.6 166.5 195.0 167.0 194.4 167.4 192.8 167.9 190.4 168.3 187.1 168.8 183.2 169.2 179.0 169.7 174.5 170.2 170.0 170.6 165.8 171.1 162.1 171.5 159.0 172.0 156.7 172.4 155.4 172.9 155.0 173.3 155.7 173.8 157.3 174.2 159.9 174.7 163.2 175.1 167.1 175.6 171.4 176.0 175.9 176.5 180.3 176.9 184.5 177.4 188.2 177.8 191.2 178.3 193.4 178.7 194.7 179.2 195.0 179.6 194.2 180.1 192.5 180.5 189.9 181.0 186.6 181.4 182.6 181.9 178.3 182.3 173.8 182.8 169.4 183.2 165.2 183.7 161.6 184.1 158.6 184.6 156.5 185.0 155.2 185.5 155.0 185.9 155.9 186.4 157.6 186.8 160.3 187.3 163.7 187.7 167.7 188.2 172.0 188.6 176.5 189.1 180.9 189.5 185.1 190.0 188.7" stroke="#004cff" stroke-width="1.8" fill="transparent"/>
</svg>
