<?xml version='1.0' encoding='UTF-8' standalone='no'?>
<svg xmlns="http://www.w3.org/2000/svg" xmlns:xlink="http://www.w3.org/1999/xlink" version="1.1" width="100%" viewBox="0 0 200 200">
  <rect x="0" y="0" width="200" height="200" fill="none" stroke="black" stroke-width="1" id="border" opacity="0.8"/>
  <path d="M 10.0 92.4 L  10.5 86.3 11.0 80.5 11.4 75.2 11.9 70.6 12.4 66.7 12.9 63.6 13.3 
  61.4 13.8 60.2 14.3 60.0 14.8 60.9 15.2 62.7 15.7 65.4 16.2 69.0 16.7 73.4 17.1 78.5 17.6 
  84.0 18.1 90.0 18.6 96.3 19.0 102.6 19.5 108.9 20.0 115.0 20.5 120.6 21.0 125.8 21.4 130.3 
  21.9 134.1 22.4 136.9 22.9 138.9 23.3 139.9 23.8 139.9 24.3 138.8 24.8 136.8 25.2 133.9 25.7 
  130.1 26.2 125.6 26.7 120.4 27.1 114.7 27.6 108.7 28.1 102.4 28.6 96.0 29.0 89.8 29.5 83.8 30.0 
  78.2 30.5 73.2 31.0 68.8 31.4 65.3 31.9 62.6 32.4 60.8 32.9 60.0 33.3 60.3 33.8 61.5 34.3 
  63.7 34.8 66.8 35.2 70.7 35.7 75.4 36.2 80.7 36.7 86.5 37.1 92.6 37.6 98.9 38.1 105.3 38.6 
  111.5 39.0 117.4 39.5 122.9 40.0 127.8 40.5 132.0 41.0 135.4 41.4 137.9 41.9 139.4 42.4 140.0 
  42.9 139.6 43.3 138.1 43.8 135.7 44.3 132.4 44.8 128.3 45.2 123.5 45.7 118.1 46.2 112.2 46.7 
  106.1 47.1 99.7 47.6 93.4 48.1 87.3 48.6 81.4 49.0 76.1 49.5 71.3 50.0 67.3 50.5 64.0 51.0 
  61.7 51.4 60.4 51.9 60.0 52.4 60.7 52.9 62.3 53.3 64.9 53.8 68.3 54.3 72.6 54.8 77.6 55.2 
  83.1 55.7 89.0 56.2 95.2 56.7 101.6 57.1 107.9 57.6 114.0 58.1 119.7 58.6 125.0 59.0 129.6 
  59.5 133.5 60.0 136.5 60.5 138.6 61.0 139.8 61.4 139.9 61.9 139.1 62.4 137.2 62.9 134.5 63.3 
  130.8 63.8 126.4 64.3 121.3 64.8 115.7 65.2 109.7 65.7 103.5 66.2 97.1 66.7 90.8 67.1 84.8 
  67.6 79.1 68.1 74.0 68.6 69.5 69.0 65.8 69.5 63.0 70.0 61.0 70.5 60.1 71.0 60.2 71.4 61.2 
  71.9 63.3 72.4 66.2 72.9 70.0 73.3 74.6 73.8 79.8 74.3 85.5 74.8 91.6 75.2 97.9 75.7 104.2 
  76.2 110.4 76.7 116.4 77.1 122.0 77.6 127.0 78.1 131.3 78.6 134.8 79.0 137.5 79.5 139.2 80.0 
  140.0 80.5 139.7 81.0 138.4 81.4 136.2 81.9 133.1 82.4 129.1 82.9 124.4 83.3 119.1 83.8 113.3 
  84.3 107.1 84.8 100.8 85.2 94.5 85.7 88.3 86.2 82.4 86.7 76.9 87.1 72.1 87.6 67.9 88.1 64.5 88.6 
  62.0 89.0 60.5 89.5 60.0 90.0 60.5 90.5 62.0 91.0 64.4 91.4 67.7 91.9 71.8 92.4 76.7 92.9 82.1 
  93.3 88.0 93.8 94.2 94.3 100.5 94.8 106.8 95.2 113.0 95.7 118.8 96.2 124.1 96.7 128.9 97.1 132.9 
  97.6 136.1 98.1 138.3 98.6 139.7 99.0 140.0 99.5 139.3 100.0 137.6 100.5 135.0 101.0 131.5 101.4 
  127.2 101.9 122.2 102.4 116.7 102.9 110.7 103.3 104.5 103.8 98.2 104.3 91.9 104.8 85.8 105.2 80.1 
  105.7 74.8 106.2 70.2 106.7 66.4 107.1 63.4 107.6 61.3 108.1 60.2 108.6 60.1 109.0 61.0 109.5 62.8 
  110.0 65.7 110.5 69.3 111.0 73.8 111.4 78.9 111.9 84.5 112.4 90.5 112.9 96.8 113.3 103.1 113.8 
  109.4 114.3 115.4 114.8 121.1 115.2 126.2 115.7 130.6 116.2 134.3 116.7 137.1 117.1 139.0 117.6 
  139.9 118.1 139.8 118.6 138.7 119.0 136.6 119.5 133.6 120.0 129.8 120.5 125.2 121.0 120.0 121.4 
  114.3 121.9 108.2 122.4 101.9 122.9 95.5 123.3 89.3 123.8 83.4 124.3 77.8 124.8 72.8 125.2 68.5 
  125.7 65.0 126.2 62.4 126.7 60.7 127.1 60.0 127.6 60.3 128.1 61.6 128.6 63.9 129.0 67.1 129.5 71.1 
  130.0 75.8 130.5 81.2 131.0 87.0 131.4 93.1 131.9 99.4 132.4 105.8 132.9 112.0 133.3 117.8 133.8 
  123.3 134.3 128.1 134.8 132.3 135.2 135.6 135.7 138.0 136.2 139.5 136.7 140.0 137.1 139.5 137.6 
  138.0 138.1 135.5 138.6 132.1 139.0 128.0 139.5 123.1 140.0 117.7 140.5 111.8 141.0 105.6 141.4 
  99.2 141.9 92.9 142.4 86.8 142.9 81.0 143.3 75.7 143.8 71.0 144.3 67.0 144.8 63.8 145.2 61.6 145.7 
  60.3 146.2 60.0 146.7 60.8 147.1 62.5 147.6 65.1 148.1 68.7 148.6 73.0 149.0 78.0 149.5 83.5 150.0 
  89.5 150.5 95.7 151.0 102.1 151.4 108.4 151.9 114.4 152.4 120.2 152.9 125.4 153.3 129.9 153.8 133.8 
  154.3 136.7 154.8 138.8 155.2 139.8 155.7 139.9 156.2 139.0 156.7 137.1 157.1 134.2 157.6 130.5 158.1 
  126.0 158.6 120.9 159.0 115.3 159.5 109.2 160.0 102.9 160.5 96.6 161.0 90.3 161.4 84.3 161.9 78.7 
  162.4 73.6 162.9 69.2 163.3 65.6 163.8 62.8 164.3 60.9 164.8 60.1 165.2 60.2 165.7 61.3 166.2 63.5 
  166.7 66.5 167.1 70.4 167.6 75.0 168.1 80.2 168.6 86.0 169.0 92.1 169.5 98.4 170.0 104.7 170.5 110.9 
  171.0 116.9 171.4 122.4 171.9 127.4 172.4 131.6 172.9 135.1 173.3 137.7 173.8 139.3 174.3 140.0 174.8 
  139.6 175.2 138.3 175.7 136.0 176.2 132.8 176.7 128.7 177.1 124.0 177.6 118.6 178.1 112.8 178.6 106.6 
  179.0 100.3 179.5 94.0 180.0 87.8 180.5 81.9 181.0 76.5 181.4 71.7 181.9 67.6 182.4 64.3 182.9 61.9 183.3 
  60.4 183.8 60.0 184.3 60.6 184.8 62.1 185.2 64.6 185.7 68.0 186.2 72.2 186.7 77.1 187.1 82.6 187.6 88.5 
  188.1 94.7 188.6 101.0 189.0 107.3 189.5 113.4 190.0 119.2 190.5 124.5 191.0 129.2 191.4 133.2 191.9 136.3 
  192.4 138.5 192.9 139.7 193.3 140.0 193.8 139.2 194.3 137.4 194.8 134.8 195.2 131.2 195.7 126.8 196.2 121.8 
  196.7 116.2 197.1 110.3 197.6 104.0 198.1 97.7 198.6 91.4 199.0 85.3 199.5 79.6 200.0 74.4" stroke="#1d00ff" stroke-width="0.6" fill="transparent"/>
  <path d="M 4.8 88.4 L  2.2 82.9 -0.3 77.6 -2.5 72.8 -4.4 68.6 -5.9 64.9 -7.1 62.0 -7.7 59.9 -7.9 58.7 -7.6 58.3 -6.8 58.7 -5.5 60.0 -3.7 62.2 -1.5 65.1 1.1 68.6 4.1 72.8 7.3 77.4 10.7 82.3 14.2 87.5 17.8 92.8 21.4 98.0 24.8 103.0 28.1 107.6 31.0 111.9 33.7 115.5 36.0 118.5 37.9 120.8 39.2 122.3 40.1 122.9 40.6 122.6 40.5 121.5 39.9 119.5 38.8 116.8 37.3 113.2 35.5 109.1 33.3 104.4 30.9 99.2 28.3 93.7 25.5 88.0 22.8 82.3 20.1 76.6 17.5 71.2 15.1 66.2 13.0 61.6 11.2 57.5 9.9 54.2 8.9 51.6 8.4 49.9 8.5 49.0 9.0 48.9 10.0 49.7 11.5 51.4 13.5 53.9 15.9 57.0 18.6 60.9 21.7 65.2 25.0 70.0 28.5 75.0 32.0 80.3 35.6 85.5 39.1 90.6 42.5 95.5 45.7 100.0 48.5 104.0 51.0 107.4 53.1 110.1 54.8 112.1 56.0 113.2 56.7 113.4 56.9 112.8 56.6 111.4 55.8 109.0 54.6 106.0 52.9 102.2 50.9 97.8 48.6 92.8 46.1 87.5 43.5 81.9 40.7 76.2 38.0 70.5 35.3 64.9 32.8 59.6 30.5 54.8 28.5 50.4 26.9 46.6 25.7 43.6 25.0 41.4 24.7 40.0 25.0 39.4 25.7 39.7 26.9 40.9 28.6 42.9 30.8 45.7 33.3 49.1 36.2 53.2 39.4 57.7 42.8 62.6 46.3 67.8 49.9 73.0 53.4 78.2 56.9 83.3 60.2 88.0 63.2 92.3 65.9 96.1 68.3 99.2 70.2 101.6 71.7 103.2 72.7 104.0 73.2 103.9 73.2 102.9 72.6 101.1 71.7 98.4 70.3 95.0 68.5 91.0 66.3 86.3 63.9 81.2 61.4 75.8 58.6 70.1 55.9 64.4 53.2 58.7 50.5 53.3 48.1 48.1 46.0 43.4 44.1 39.3 42.7 35.9 41.7 33.2 41.1 31.3 41.1 30.2 41.5 30.0 42.5 30.7 43.9 32.2 45.8 34.6 48.1 37.6 50.8 41.3 53.8 45.6 57.1 50.3 60.5 55.3 64.1 60.5 67.7 65.8 71.2 70.9 74.6 75.9 77.8 80.5 80.7 84.6 83.3 88.1 85.5 90.9 87.2 93.0 88.5 94.2 89.3 94.6 89.5 94.1 89.3 92.8 88.6 90.6 87.5 87.7 85.9 84.0 83.9 79.7 81.7 74.8 79.2 69.6 76.6 64.0 73.8 58.3 71.1 52.6 68.4 47.0 65.8 41.7 63.5 36.7 61.5 32.2 59.8 28.4 58.6 25.2 57.7 22.8 57.4 21.3 57.5 20.6 58.2 20.8 59.3 21.8 61.0 23.7 63.0 26.3 65.5 29.7 68.3 33.6 71.5 38.1 74.8 42.9 78.3 48.1 81.9 53.3 85.5 58.5 89.0 63.6 92.3 68.4 95.4 72.8 98.2 76.7 100.6 79.9 102.6 82.4 104.1 84.2 105.2 85.1 105.8 85.1 105.8 84.3 105.4 82.6 104.5 80.1 103.2 76.8 101.4 72.8 99.4 68.3 97.0 63.3 94.4 57.9 91.7 52.2 89.0 46.5 86.3 40.8 83.6 35.3 81.2 30.1 79.0 25.3 77.1 21.1 75.6 17.6 74.5 14.7 73.8 12.7 73.7 11.5 74.1 11.1 74.9 11.7 76.3 13.1 78.1 15.3 80.3 18.2 83.0 21.8 85.9 26.0 89.2 30.6 92.6 35.6 96.1 40.8 99.7 46.1 103.3 51.2 106.7 56.2 109.9 60.9 112.9 65.1 115.5 68.7 117.8 71.6 119.6 73.8 121.0 75.2 121.8 75.8 122.2 75.4 122.0 74.2 121.4 72.2 120.3 69.4 118.8 65.8 116.9 61.6 114.7 56.8 112.3 51.6 109.7 46.1 106.9 40.4 104.2 34.7 101.5 29.1 98.9 23.7 96.5 18.6 94.5 14.1 92.7 10.1 91.4 6.9 90.5 4.3 90.1 2.6 90.1 1.8 90.7 1.8 91.8 2.7 93.3 4.5 95.3 7.0 97.7 10.2 100.5 14.1 103.6 18.5 106.9 23.2 110.4 28.3 114.0 33.6 117.5 38.8 121.0 43.9 124.4 48.8 127.5 53.2 130.4 57.2 132.8 60.6 134.9 63.2 136.5 65.1 137.7 66.1 138.4 66.3 138.5 65.6 138.2 64.1 137.3 61.7 136.1 58.6 134.4 54.7 132.4 50.3 130.1 45.3 127.5 39.9 124.9 34.3 122.1 28.6 119.4 22.9 116.7 17.4 114.2 12.1 112.0 7.3 110.0 2.9 108.4 -0.7 107.3 -3.7 106.6 -5.9 106.3 -7.2 106.6 -7.7 107.4 -7.3 108.7 -6.1 110.4 -4.0 112.6 -1.2 115.2 2.3 118.1 6.4 121.3 11.0 124.7 15.9 128.2 21.1 131.8 26.3 135.3 31.5 138.8 36.6 142.0 41.3 145.1 45.5 147.8 49.3 150.1 52.3 152.0 54.7 153.4 56.2 154.4 56.9 154.8 56.7 154.8 55.7 154.2 53.8 153.2 51.1 151.8 47.6 149.9 43.5 147.8 38.8 145.4 33.7 142.8 28.2 140.0 22.6 137.3 16.8 134.6 11.2 132.0 5.7 129.6 0.6 127.4 -4.0 125.6 -8.1 124.2 -11.5 123.3 -14.1 122.7 -16.0 122.7 -17.0 123.2 -17.1 124.2 -16.3 125.7 -14.7 127.6 -12.4 129.9 -9.2 132.7 -5.5 135.7 -1.2 139.0 3.6 142.4 8.6 146.0 13.8 149.6 19.1 153.1 24.2 156.5 29.1 159.7 33.7 162.5 37.7 165.1 41.2 167.2 44.0 169.0 46.0 170.2 47.2 170.9 47.5 171.2 46.9 170.9 45.5 170.2 43.3 169.0 40.3 167.4 36.5 165.4 32.2 163.1 27.3 160.6 22.0 158.0 16.5 155.2 10.7 152.5 5.0 149.8 -0.6 147.3 -5.9 145.0 -10.8 143.0 -15.2 141.3 -19.0 140.1 -22.1 139.3 -24.4 139.0 -25.9 139.2 -26.5 139.9 -26.3 141.1 -25.2 142.7 -23.3 144.8 -20.6 147.3 -17.2 150.2 -13.2 153.4 -8.7 156.7 -3.8 160.2 1.3 163.8 6.6 167.4 11.8 170.9 16.9 174.2 21.7 177.2 26.0 180.0 29.8 182.4 33.0 184.3 35.5 185.9 37.1 186.9 38.0 187.4 37.9 187.4 37.0 187.0 35.3 186.0 32.7 184.7 29.4 182.9 25.4 180.8 20.8 178.4 15.7 175.9 10.3 173.1 4.7 170.4 -1.1 167.7 -6.7 165.0 -12.2 162.6 -17.4 160.4 -22.1" stroke="#ff0003" stroke-width="0.6" fill="transparent"/>
  <path d="M 12.5 98.4 L  15.9 93.3 19.2 88.6 22.3 84.3 25.0 80.5 27.4 77.3 29.3 74.9 30.8 73.3 31.8 72.5 32.3 72.5 32.4 73.5 31.9 75.3 30.9 77.9 29.5 81.3 27.7 85.3 25.6 89.9 23.2 95.0 20.6 100.4 17.9 106.1 15.2 111.8 12.5 117.5 9.8 123.0 7.4 128.1 5.2 132.8 3.4 137.0 1.9 140.4 0.9 143.2 0.3 145.1 0.3 146.2 0.7 146.4 1.6 145.8 3.0 144.3 4.9 142.0 7.2 139.0 9.9 135.3 12.9 131.0 16.1 126.3 19.6 121.3 23.1 116.1 26.7 110.9 30.3 105.7 33.7 100.7 36.9 96.2 39.8 92.0 42.4 88.5 44.6 85.6 46.3 83.5 47.6 82.3 48.4 81.8 48.7 82.3 48.5 83.6 47.8 85.7 46.7 88.6 45.1 92.3 43.2 96.6 41.0 101.4 38.5 106.6 35.9 112.2 33.1 117.9 30.4 123.6 27.7 129.2 25.1 134.6 22.8 139.6 20.8 144.0 19.1 147.9 17.8 151.1 16.9 153.5 16.6 155.1 16.7 155.8 17.3 155.7 18.5 154.7 20.1 152.9 22.1 150.2 24.6 146.9 27.4 143.0 30.5 138.5 33.9 133.7 37.4 128.6 41.0 123.4 44.5 118.1 48.0 113.0 51.3 108.2 54.4 103.8 57.2 99.9 59.7 96.6 61.7 94.1 63.3 92.3 64.4 91.4 64.9 91.3 65.0 92.1 64.6 93.8 63.7 96.3 62.4 99.5 60.7 103.4 58.6 107.9 56.3 113.0 53.7 118.3 51.0 124.0 48.3 129.7 45.6 135.4 42.9 140.9 40.5 146.1 38.2 150.9 36.3 155.2 34.8 158.8 33.7 161.6 33.1 163.7 32.9 164.9 33.2 165.3 34.1 164.8 35.4 163.4 37.2 161.3 39.4 158.4 42.1 154.8 45.0 150.6 48.2 146.0 51.6 141.0 55.2 135.8 58.8 130.6 62.3 125.4 65.7 120.4 69.0 115.7 72.0 111.5 74.6 107.9 76.9 104.9 78.7 102.7 80.1 101.3 81.0 100.7 81.4 101.0 81.2 102.1 80.6 104.1 79.6 106.9 78.1 110.5 76.2 114.7 74.0 119.4 71.6 124.6 69.0 130.1 66.2 135.8 63.5 141.5 60.8 147.1 58.2 152.5 55.8 157.6 53.7 162.2 52.0 166.2 50.6 169.5 49.7 172.0 49.3 173.7 49.3 174.6 49.8 174.6 50.9 173.8 52.4 172.1 54.4 169.6 56.8 166.4 59.6 162.5 62.6 158.2 66.0 153.4 69.4 148.3 73.0 143.1 76.6 137.8 80.1 132.7 83.4 127.8 86.6 123.4 89.4 119.4 91.9 116.0 94.0 113.3 95.7 111.4 96.9 110.3 97.5 110.1 97.7 110.8 97.4 112.3 96.6 114.6 95.3 117.7 93.7 121.6 91.7 126.0 89.4 130.9 86.8 136.3 84.2 141.9 81.4 147.6 78.7 153.3 76.0 158.8 73.5 164.1 71.2 169.0 69.3 173.3 67.7 177.0 66.5 180.0 65.8 182.3 65.5 183.6 65.8 184.2 66.5 183.8 67.8 182.6 69.5 180.5 71.7 177.8 74.2 174.3 77.1 170.2 80.3 165.6 83.7 160.7 87.2 155.6 90.8 150.3 94.4 145.1 97.8 140.1 101.1 135.4 104.1 131.1 106.8 127.3 109.2 124.2 111.1 121.9 112.6 120.3 113.5 119.6 114.0 119.7 114.0 120.7 113.4 122.6 112.4 125.3 111.0 128.7 109.2 132.8 107.1 137.4 104.7 142.5 102.1 148.0 99.3 153.7 96.6 159.4 93.9 165.1 91.3 170.5 88.9 175.6 86.7 180.3 84.9 184.4 83.5 187.8 82.5 190.5 81.9 192.4 81.9 193.4 82.4 193.5 83.3 192.8 84.8 191.3 86.7 188.9 89.0 185.8 91.7 182.1 94.8 177.8 98.0 173.1 101.5 168.0 105.0 162.8 108.6 157.6 112.2 152.4 115.5 147.5 118.7 142.9 121.6 138.9 124.2 135.4 126.4 132.6 128.1 130.5 129.3 129.3 130.1 128.9 130.4 129.5 130.1 130.8 129.4 133.0 128.2 136.0 126.6 139.7 124.7 144.1 122.4 148.9 119.9 154.2 117.3 159.8 114.5 165.5 111.8 171.2 109.1 176.8 106.6 182.1 104.2 187.1 102.2 191.5 100.6 195.3 99.3 198.4 98.5 200.8 98.2 202.3 98.4 203.0 99.0 202.8 100.2 201.7 101.8 199.8 103.9 197.1 106.4 193.8 109.3 189.8 112.4 185.3 115.8 180.4 119.3 175.3 122.9 170.1 126.4 164.8 129.9 159.8 133.2 155.0 136.3 150.6 139.1 146.8 141.5 143.5 143.5 141.1 145.0 139.3 146.0 138.5 146.6 138.5 146.6 139.3 146.2 141.1 145.3 143.6 143.9 146.9 142.2 150.9 140.1 155.5 137.7 160.5 135.2 165.9 132.4 171.5 129.7 177.3 127.0 183.0 124.3 188.5 121.9 193.6 119.7 198.4 117.8 202.6 116.3 206.1 115.3 208.9 114.6 211.0 114.5 212.1 114.9 212.4 115.8 211.8 117.1 210.4 119.0 208.2 121.2 205.2 123.9 201.6 126.9 197.4 130.1 192.7 133.5 187.7 137.1 182.6 140.7 177.3 144.2 172.1 147.6 167.1 150.9 162.5 153.8 158.4 156.4 154.8 158.7 151.8 160.5 149.7 161.8 148.3 162.7 147.8 163.0 148.2 162.8 149.4 162.2 151.5 161.1 154.3 159.6 157.9 157.7 162.1 155.5 166.9 153.0 172.1 150.4 177.7 147.6 183.4 144.9 189.1 142.2 194.7 139.6 200.1 137.3 205.1 135.2 209.6 133.5 213.6 132.2 216.8 131.3 219.3 130.9 221.0 130.9 221.8 131.5 221.7 132.6 220.8 134.2 219.0 136.2 216.5 138.6 213.2 141.4 209.3 144.5 204.9 147.8 200.1 151.3 195.0 154.9 189.8 158.5 184.6 162.0 179.4 165.3 174.6 168.4 170.1 171.3 166.2 173.7 162.9 175.8 160.3 177.4 158.4 178.5 157.4 179.2 157.3 179.3 158.0 179.0 159.6 178.1 162.0 176.8 165.1 175.1 169.0 173.1 173.5 170.8 178.5 168.2 183.8 165.6 189.4 162.8 195.2 160.1 200.9 157.4 206.4 154.9 211.7 152.7 216.5 150.8 220.8 149.2 224.4 148.1 227.4 147.4 229.5 147.2 230.8 147.4 231.3 148.2 230.9 149.5 229.6 151.3 227.5 153.5 224.6 156.1 221.1 159.0 217.0 162.2 212.4 165.6 207.4 169.1 202.3 172.7 197.0 176.3 191.8 179.7 186.8 183.0 182.1 186.0 177.9" stroke="#00ffd7" stroke-width="0.6" fill="transparent"/>
</svg>
