<?xml version='1.0' encoding='UTF-8' standalone='no'?>
<svg xmlns="http://www.w3.org/2000/svg" xmlns:xlink="http://www.w3.org/1999/xlink" version="1.1" viewBox="0 0 100 100">
  <rect x="0" y="0" width="100" height="100" fill="none" stroke="black" stroke-width="1" id="border" opacity="0.8"/>
  <path d="M 50.0 10.0 L 55.9 41.9 88.0 37.6 59.5 53.1 73.5 82.4 50.0 60.0 26.5 82.4 40.5 53.1 12.0 37.6 44.1 41.9 Z" stroke="green" stroke-width="0.6" fill="transparent"/>
  <path d="M 63.7 12.4 L 58.3 44.4 90.0 51.4 57.9 56.2 61.0 88.5 46.6 59.4 16.8 72.4 40.0 49.7 18.5 25.4 47.2 40.4 Z" stroke="green" stroke-width="0.6" fill="transparent"/>
  <path d="M 75.7 19.4 L 59.7 47.6 87.1 65.0 55.3 58.5 47.2 89.9 43.6 57.7 11.2 59.7 40.7 46.3 28.8 16.1 50.7 40.0 Z" stroke="green" stroke-width="0.6" fill="transparent"/>
  <path d="M 84.6 30.0 L 59.9 51.0 79.7 76.8 52.1 59.8 33.7 86.5 41.3 55.0 10.2 45.8 42.6 43.3 41.7 10.9 54.1 40.9 Z" stroke="green" stroke-width="0.6" fill="transparent"/>
  <path d="M 89.4 43.1 L 59.0 54.4 68.8 85.3 48.6 59.9 22.2 78.8 40.2 51.7 14.0 32.5 45.3 41.2 55.6 10.4 56.9 42.8 Z" stroke="green" stroke-width="0.6" fill="transparent"/>
  <path d="M 89.4 56.9 L 56.9 57.2 55.6 89.6 45.3 58.8 14.0 67.5 40.2 48.3 22.2 21.2 48.6 40.1 68.8 14.7 59.0 45.6 Z" stroke="green" stroke-width="0.6" fill="transparent"/>
  <path d="M 84.6 70.0 L 54.1 59.1 41.7 89.1 42.6 56.7 10.2 54.2 41.3 45.0 33.7 13.5 52.1 40.2 79.7 23.2 59.9 49.0 Z" stroke="green" stroke-width="0.6" fill="transparent"/>
  <path d="M 75.7 80.6 L 50.7 60.0 28.8 83.9 40.7 53.7 11.2 40.3 43.6 42.3 47.2 10.1 55.3 41.5 87.1 35.0 59.7 52.4 Z" stroke="green" stroke-width="0.6" fill="transparent"/>
  <path d="M 63.7 87.6 L 47.2 59.6 18.5 74.6 40.0 50.3 16.8 27.6 46.6 40.6 61.0 11.5 57.9 43.8 90.0 48.6 58.3 55.6 Z" stroke="green" stroke-width="0.6" fill="transparent"/>
  <path d="M 50.0 90.0 L 44.1 58.1 12.0 62.4 40.5 46.9 26.5 17.6 50.0 40.0 73.5 17.6 59.5 46.9 88.0 62.4 55.9 58.1 Z" stroke="green" stroke-width="0.6" fill="transparent"/>
  <path d="M 36.3 87.6 L 41.7 55.6 10.0 48.6 42.1 43.8 39.0 11.5 53.4 40.6 83.2 27.6 60.0 50.3 81.5 74.6 52.8 59.6 Z" stroke="green" stroke-width="0.6" fill="transparent"/>
  <path d="M 24.3 80.6 L 40.3 52.4 12.9 35.0 44.7 41.5 52.8 10.1 56.4 42.3 88.8 40.3 59.3 53.7 71.2 83.9 49.3 60.0 Z" stroke="green" stroke-width="0.6" fill="transparent"/>
  <path d="M 15.4 70.0 L 40.1 49.0 20.3 23.2 47.9 40.2 66.3 13.5 58.7 45.0 89.8 54.2 57.4 56.7 58.3 89.1 45.9 59.1 Z" stroke="green" stroke-width="0.6" fill="transparent"/>
  <path d="M 10.6 56.9 L 41.0 45.6 31.2 14.7 51.4 40.1 77.8 21.2 59.8 48.3 86.0 67.5 54.7 58.8 44.4 89.6 43.1 57.2 Z" stroke="green" stroke-width="0.6" fill="transparent"/>
  <path d="M 10.6 43.1 L 43.1 42.8 44.4 10.4 54.7 41.2 86.0 32.5 59.8 51.7 77.8 78.8 51.4 59.9 31.2 85.3 41.0 54.4 Z" stroke="green" stroke-width="0.6" fill="transparent"/>
  <path d="M 15.4 30.0 L 45.9 40.9 58.3 10.9 57.4 43.3 89.8 45.8 58.7 55.0 66.3 86.5 47.9 59.8 20.3 76.8 40.1 51.0 Z" stroke="green" stroke-width="0.6" fill="transparent"/>
  <path d="M 24.3 19.4 L 49.3 40.0 71.2 16.1 59.3 46.3 88.8 59.7 56.4 57.7 52.8 89.9 44.7 58.5 12.9 65.0 40.3 47.6 Z" stroke="green" stroke-width="0.6" fill="transparent"/>
  <path d="M 36.3 12.4 L 52.8 40.4 81.5 25.4 60.0 49.7 83.2 72.4 53.4 59.4 39.0 88.5 42.1 56.2 10.0 51.4 41.7 44.4 Z" stroke="green" stroke-width="0.6" fill="transparent"/>
</svg>
