<?xml version='1.0' encoding='UTF-8' standalone='no'?>
<svg xmlns="http://www.w3.org/2000/svg" xmlns:xlink="http://www.w3.org/1999/xlink" version="1.1" viewBox="0 0 100 100">
  <rect x="0" y="0" width="100" height="100" fill="none" stroke="black" stroke-width="1" id="border" opacity="0.8"/>
  <path d="M22 0 V100" stroke="green" stroke-width="0.3" fill="transparent"/>
  <path d="M0 0 h100" stroke="green" stroke-width="0.3" fill="transparent"/>
  <path d="M0 20 h100" stroke="green" stroke-width="0.3" fill="transparent"/>
  <path d="M0 40 h100" stroke="green" stroke-width="0.3" fill="transparent"/>
  <path d="M0 60 h100" stroke="green" stroke-width="0.3" fill="transparent"/>
  <path d="M0 80 h100" stroke="green" stroke-width="0.3" fill="transparent"/>
  <text x="1" y="10" fill="black" white-space="pre" font-family="Consolas" font-size="3px" font-style="normal" font-variant="normal">Translation:</text>
  <path d="M 37.0 2.0 L 40.5 6.1 45.6 8.2 42.7 12.9 42.3 18.3 37.0 17.0 31.7 18.3 31.3 12.9 28.4 8.2 33.5 6.1 Z" stroke="None" stroke-width="None" fill="green"/>
  <path d="M 76.0 2.0 L 79.5 6.1 84.6 8.2 81.7 12.9 81.3 18.3 76.0 17.0 70.7 18.3 70.3 12.9 67.4 8.2 72.5 6.1 Z" stroke="None" stroke-width="None" fill="green"/>
  <text x="1" y="30" fill="black" white-space="pre" font-family="Consolas" font-size="3px" font-style="normal" font-variant="normal">Rotation:</text>
  <path d="M 37.0 22.0 L 40.5 26.1 45.6 28.2 42.7 32.9 42.3 38.3 37.0 37.0 31.7 38.3 31.3 32.9 28.4 28.2 33.5 26.1 Z" stroke="None" stroke-width="None" fill="green"/>
  <path d="M 80.5 23.2 L 81.5 28.6 84.8 32.9 80.0 35.5 76.9 40.0 73.0 36.2 67.8 34.7 70.1 29.8 70.0 24.3 75.4 25.0 Z" stroke="None" stroke-width="None" fill="green"/>
  <text x="1" y="50" fill="black" white-space="pre" font-family="Consolas" font-size="3px" font-style="normal" font-variant="normal">Zoom:</text>
  <path d="M 37.0 42.0 L 40.5 46.1 45.6 48.2 42.7 52.9 42.3 58.3 37.0 57.0 31.7 58.3 31.3 52.9 28.4 48.2 33.5 46.1 Z" stroke="None" stroke-width="None" fill="green"/>
  <path d="M 76.0 44.7 L 78.5 47.6 82.0 49.1 80.0 52.3 79.7 56.1 76.0 55.2 72.3 56.1 72.0 52.3 70.0 49.1 73.5 47.6 Z" stroke="None" stroke-width="None" fill="green"/>
  <text x="1" y="70" fill="black" white-space="pre" font-family="Consolas" font-size="3px" font-style="normal" font-variant="normal">Shear:</text>
  <path d="M 37.0 62.0 L 40.5 66.1 45.6 68.2 42.7 72.9 42.3 78.3 37.0 77.0 31.7 78.3 31.3 72.9 28.4 68.2 33.5 66.1 Z" stroke="None" stroke-width="None" fill="green"/>
  <path d="M 69.7 62.0 L 76.1 66.1 82.6 68.2 83.0 72.9 86.4 78.3 80.2 77.0 75.8 78.3 71.6 72.9 65.5 68.2 69.1 66.1 Z" stroke="None" stroke-width="None" fill="green"/>
  <text x="1" y="90" fill="black" white-space="pre" font-family="Consolas" font-size="3px" font-style="normal" font-variant="normal">Reflection:</text>
  <path d="M 37.0 82.0 L 40.5 86.1 45.6 88.2 42.7 92.9 42.3 98.3 37.0 97.0 31.7 98.3 31.3 92.9 28.4 88.2 33.5 86.1 Z" stroke="None" stroke-width="None" fill="green"/>
  <path d="M 76.0 100.0 L 79.5 95.9 84.6 93.8 81.7 89.1 81.3 83.7 76.0 85.0 70.7 83.7 70.3 89.1 67.4 93.8 72.5 95.9 Z" stroke="None" stroke-width="None" fill="green"/>
</svg>
