<?xml version='1.0' encoding='UTF-8' standalone='no'?>
<svg xmlns="http://www.w3.org/2000/svg" xmlns:xlink="http://www.w3.org/1999/xlink" version="1.1" width="380" height="400" viewBox="0 0 380 400" style="border:1px solid black">
  <defs>
    <g id="JLyH9ZGC">
      <rect height="24" width="24"/>
      <path fill="#fff" fill-opacity=".7" d="m0,0 3,3 18,0 3,-3"/>
      <path fill="#000" fill-opacity=".1" d="m0,0 3,3 0,18 -3,3 m24,-24 -3,3 0,18 3,3"/>
      <path fill="#000" fill-opacity=".5" d="m0,24 3,-3 18,0 3,3"/>
    </g>
    <g id="hAQflg2T">
      <use xlink:href="#JLyH9ZGC" fill="#F8A5E7" x="0" y="0"/>
      <use xlink:href="#JLyH9ZGC" fill="#F8A5E7" x="0" y="24"/>
      <use xlink:href="#JLyH9ZGC" fill="#F8A5E7" x="0" y="48"/>
      <use xlink:href="#JLyH9ZGC" fill="#F8A5E7" x="0" y="72"/>
    </g>
    <g id="PoZqd2b4">
      <use xlink:href="#JLyH9ZGC" fill="#EF0AD6" x="24" y="0"/>
      <use xlink:href="#JLyH9ZGC" fill="#EF0AD6" x="24" y="24"/>
      <use xlink:href="#JLyH9ZGC" fill="#EF0AD6" x="24" y="48"/>
      <use xlink:href="#JLyH9ZGC" fill="#EF0AD6" x="0" y="48"/>
    </g>
    <g id="54hXsuyY">
      <use xlink:href="#JLyH9ZGC" fill="#B36D7A" x="0" y="0"/>
      <use xlink:href="#JLyH9ZGC" fill="#B36D7A" x="0" y="24"/>
      <use xlink:href="#JLyH9ZGC" fill="#B36D7A" x="0" y="48"/>
      <use xlink:href="#JLyH9ZGC" fill="#B36D7A" x="24" y="48"/>
    </g>
    <g id="UcZpHQGX">
      <use xlink:href="#JLyH9ZGC" fill="#BA6FE7" x="0" y="0"/>
      <use xlink:href="#JLyH9ZGC" fill="#BA6FE7" x="24" y="0"/>
      <use xlink:href="#JLyH9ZGC" fill="#BA6FE7" x="0" y="24"/>
      <use xlink:href="#JLyH9ZGC" fill="#BA6FE7" x="24" y="24"/>
    </g>
    <g id="N5aqEib3">
      <use xlink:href="#JLyH9ZGC" fill="#A4C786" x="24" y="0"/>
      <use xlink:href="#JLyH9ZGC" fill="#A4C786" x="48" y="0"/>
      <use xlink:href="#JLyH9ZGC" fill="#A4C786" x="0" y="24"/>
      <use xlink:href="#JLyH9ZGC" fill="#A4C786" x="24" y="24"/>
    </g>
    <g id="U5APES8c">
      <use xlink:href="#JLyH9ZGC" fill="#7148F5" x="0" y="0"/>
      <use xlink:href="#JLyH9ZGC" fill="#7148F5" x="24" y="0"/>
      <use xlink:href="#JLyH9ZGC" fill="#7148F5" x="48" y="0"/>
      <use xlink:href="#JLyH9ZGC" fill="#7148F5" x="24" y="24"/>
    </g>
    <g id="xtdZeHMo">
      <use xlink:href="#JLyH9ZGC" fill="#28047B" x="0" y="0"/>
      <use xlink:href="#JLyH9ZGC" fill="#28047B" x="24" y="0"/>
      <use xlink:href="#JLyH9ZGC" fill="#28047B" x="24" y="24"/>
      <use xlink:href="#JLyH9ZGC" fill="#28047B" x="48" y="24"/>
    </g>
    <g id="cE8uCm36">
      <use xlink:href="#JLyH9ZGC" fill="#FBC58D" x="0" y="0"/>
      <use xlink:href="#JLyH9ZGC" fill="#FBC58D" x="24" y="0"/>
      <use xlink:href="#JLyH9ZGC" fill="#FBC58D" x="48" y="0"/>
      <use xlink:href="#JLyH9ZGC" fill="#FBC58D" x="24" y="24"/>
    </g>
    <g id="jfTCNR0E">
      <use xlink:href="#JLyH9ZGC" fill="#7D0358" x="24" y="0"/>
      <use xlink:href="#JLyH9ZGC" fill="#7D0358" x="48" y="0"/>
      <use xlink:href="#JLyH9ZGC" fill="#7D0358" x="0" y="24"/>
      <use xlink:href="#JLyH9ZGC" fill="#7D0358" x="24" y="24"/>
    </g>
    <g id="9xU7Elp4">
      <use xlink:href="#JLyH9ZGC" fill="#F2B4EA" x="0" y="0"/>
      <use xlink:href="#JLyH9ZGC" fill="#F2B4EA" x="24" y="0"/>
      <use xlink:href="#JLyH9ZGC" fill="#F2B4EA" x="48" y="0"/>
      <use xlink:href="#JLyH9ZGC" fill="#F2B4EA" x="24" y="24"/>
    </g>
    <g id="or9Bx2lu">
      <use xlink:href="#JLyH9ZGC" fill="#F97D85" x="0" y="0"/>
      <use xlink:href="#JLyH9ZGC" fill="#F97D85" x="24" y="0"/>
      <use xlink:href="#JLyH9ZGC" fill="#F97D85" x="48" y="0"/>
      <use xlink:href="#JLyH9ZGC" fill="#F97D85" x="24" y="24"/>
    </g>
    <g id="fhupNLMY">
      <use xlink:href="#JLyH9ZGC" fill="#1435AF" x="0" y="0"/>
      <use xlink:href="#JLyH9ZGC" fill="#1435AF" x="24" y="0"/>
      <use xlink:href="#JLyH9ZGC" fill="#1435AF" x="48" y="0"/>
      <use xlink:href="#JLyH9ZGC" fill="#1435AF" x="24" y="24"/>
    </g>
    <g id="iRCuL9Xp">
      <use xlink:href="#JLyH9ZGC" fill="#DAF950" x="0" y="0"/>
      <use xlink:href="#JLyH9ZGC" fill="#DAF950" x="24" y="0"/>
      <use xlink:href="#JLyH9ZGC" fill="#DAF950" x="48" y="0"/>
      <use xlink:href="#JLyH9ZGC" fill="#DAF950" x="24" y="24"/>
    </g>
  </defs>
  <g>
    <use xlink:href="#hAQflg2T" x="0" y="0"/>
  </g>
  <g>
    <use xlink:href="#PoZqd2b4" x="48" y="0"/>
  </g>
  <g>
    <use xlink:href="#54hXsuyY" x="120" y="0"/>
  </g>
  <g>
    <use xlink:href="#UcZpHQGX" x="192" y="0"/>
  </g>
  <g>
    <use xlink:href="#N5aqEib3" x="264" y="0"/>
  </g>
  <g>
    <use xlink:href="#U5APES8c" x="0" y="120"/>
  </g>
  <g>
    <use xlink:href="#xtdZeHMo" x="96" y="120"/>
  </g>
  <g>
    <use xlink:href="#cE8uCm36" x="192" y="120"/>
  </g>
  <g>
    <use xlink:href="#jfTCNR0E" x="288" y="120"/>
  </g>
  <g>
    <use xlink:href="#9xU7Elp4" x="0" y="240"/>
  </g>
  <g transform="rotate(90,96,240) translate(-24 -48)">
    <use xlink:href="#or9Bx2lu" x="96" y="240"/>
  </g>
  <g transform="rotate(180,192,240) translate(-48 -24)">
    <use xlink:href="#fhupNLMY" x="192" y="240"/>
  </g>
  <g transform="rotate(270,288,240) translate(-48 -24)">
    <use xlink:href="#iRCuL9Xp" x="288" y="240"/>
  </g>
</svg>
