<?xml version='1.0' encoding='UTF-8' standalone='no'?>
<svg xmlns="http://www.w3.org/2000/svg" xmlns:xlink="http://www.w3.org/1999/xlink" version="1.1" width="350" height="400" viewBox="0 0 350 400" style="border:1px solid black">
  <title>Tetris</title>
  <defs>
    <g id="x">
      <rect height="24" width="24"/>
      <path fill="#fff" fill-opacity=".7" d="m0,0 3,3 18,0 3,-3"/>
      <path fill="#000" fill-opacity=".1" d="m0,0 3,3 0,18 -3,3 m24,-24 -3,3 0,18 3,3"/>
      <path fill="#000" fill-opacity=".5" d="m0,24 3,-3 18,0 3,3"/>
    </g>
  </defs>
  <g id="i">
    <use xlink:href="#x" fill="#DA40E2" x="0" y="0"/>
    <use xlink:href="#x" fill="#DA40E2" x="0" y="24"/>
    <use xlink:href="#x" fill="#DA40E2" x="0" y="48"/>
    <use xlink:href="#x" fill="#DA40E2" x="0" y="72"/>
  </g>
  <g id="j">
    <use xlink:href="#x" fill="#473CA0" x="72" y="0"/>
    <use xlink:href="#x" fill="#473CA0" x="72" y="24"/>
    <use xlink:href="#x" fill="#473CA0" x="72" y="48"/>
    <use xlink:href="#x" fill="#473CA0" x="48" y="48"/>
  </g>
  <g id="l">
    <use xlink:href="#x" fill="#B7D9A4" x="144" y="0"/>
    <use xlink:href="#x" fill="#B7D9A4" x="144" y="24"/>
    <use xlink:href="#x" fill="#B7D9A4" x="144" y="48"/>
    <use xlink:href="#x" fill="#B7D9A4" x="168" y="48"/>
  </g>
  <g id="o">
    <use xlink:href="#x" fill="#53BC80" x="216" y="0"/>
    <use xlink:href="#x" fill="#53BC80" x="240" y="0"/>
    <use xlink:href="#x" fill="#53BC80" x="216" y="24"/>
    <use xlink:href="#x" fill="#53BC80" x="240" y="24"/>
  </g>
  <g id="s">
    <use xlink:href="#x" fill="#2D059C" x="24" y="120"/>
    <use xlink:href="#x" fill="#2D059C" x="48" y="120"/>
    <use xlink:href="#x" fill="#2D059C" x="0" y="144"/>
    <use xlink:href="#x" fill="#2D059C" x="24" y="144"/>
  </g>
  <g id="t">
    <use xlink:href="#x" fill="#41ADEB" x="96" y="120"/>
    <use xlink:href="#x" fill="#41ADEB" x="120" y="120"/>
    <use xlink:href="#x" fill="#41ADEB" x="144" y="120"/>
    <use xlink:href="#x" fill="#41ADEB" x="120" y="144"/>
  </g>
  <g id="z">
    <use xlink:href="#x" fill="#BC36A2" x="192" y="120"/>
    <use xlink:href="#x" fill="#BC36A2" x="216" y="120"/>
    <use xlink:href="#x" fill="#BC36A2" x="216" y="144"/>
    <use xlink:href="#x" fill="#BC36A2" x="240" y="144"/>
  </g>
  <g id="bgRd6W">
    <use xlink:href="#x" fill="#7948EF" x="0" y="192"/>
    <use xlink:href="#x" fill="#7948EF" x="24" y="216"/>
    <use xlink:href="#x" fill="#7948EF" x="48" y="240"/>
  </g>
  <g id="xXvLoT">
    <use xlink:href="#x" fill="#EF05B9" x="120" y="192"/>
    <use xlink:href="#x" fill="#EF05B9" x="96" y="216"/>
    <use xlink:href="#x" fill="#EF05B9" x="120" y="216"/>
    <use xlink:href="#x" fill="#EF05B9" x="144" y="216"/>
    <use xlink:href="#x" fill="#EF05B9" x="120" y="240"/>
  </g>
  <g id="uXq67f">
    <use xlink:href="#x" fill="#2F03EC" x="192" y="192"/>
    <use xlink:href="#x" fill="#2F03EC" x="192" y="216"/>
    <use xlink:href="#x" fill="#2F03EC" x="216" y="216"/>
    <use xlink:href="#x" fill="#2F03EC" x="240" y="216"/>
    <use xlink:href="#x" fill="#2F03EC" x="240" y="240"/>
  </g>
</svg>
