<?xml version='1.0' encoding='UTF-8' standalone='no'?>
<svg xmlns="http://www.w3.org/2000/svg" xmlns:xlink="http://www.w3.org/1999/xlink" version="1.1" width="350" height="400" viewBox="0 0 350 400" style="border:1px solid black">
  <title>Tetris</title>
  <defs>
    <g id="x">
      <rect height="24" width="24"/>
      <path fill="#fff" fill-opacity=".7" d="m0,0 3,3 18,0 3,-3"/>
      <path fill="#000" fill-opacity=".1" d="m0,0 3,3 0,18 -3,3 m24,-24 -3,3 0,18 3,3"/>
      <path fill="#000" fill-opacity=".5" d="m0,24 3,-3 18,0 3,3"/>
    </g>
  </defs>
  <g id="i">
    <use xlink:href="#x" fill="#6E0254" x="0" y="0"/>
    <use xlink:href="#x" fill="#6E0254" x="0" y="24"/>
    <use xlink:href="#x" fill="#6E0254" x="0" y="48"/>
    <use xlink:href="#x" fill="#6E0254" x="0" y="72"/>
  </g>
  <g id="j">
    <use xlink:href="#x" fill="#35A420" x="72" y="0"/>
    <use xlink:href="#x" fill="#35A420" x="72" y="24"/>
    <use xlink:href="#x" fill="#35A420" x="72" y="48"/>
    <use xlink:href="#x" fill="#35A420" x="48" y="48"/>
  </g>
  <g id="l">
    <use xlink:href="#x" fill="#715420" x="144" y="0"/>
    <use xlink:href="#x" fill="#715420" x="144" y="24"/>
    <use xlink:href="#x" fill="#715420" x="144" y="48"/>
    <use xlink:href="#x" fill="#715420" x="168" y="48"/>
  </g>
  <g id="o">
    <use xlink:href="#x" fill="#2FDB84" x="216" y="0"/>
    <use xlink:href="#x" fill="#2FDB84" x="240" y="0"/>
    <use xlink:href="#x" fill="#2FDB84" x="216" y="24"/>
    <use xlink:href="#x" fill="#2FDB84" x="240" y="24"/>
  </g>
  <g id="s">
    <use xlink:href="#x" fill="#80D924" x="24" y="120"/>
    <use xlink:href="#x" fill="#80D924" x="48" y="120"/>
    <use xlink:href="#x" fill="#80D924" x="0" y="144"/>
    <use xlink:href="#x" fill="#80D924" x="24" y="144"/>
  </g>
  <g id="t">
    <use xlink:href="#x" fill="#9A82BD" x="96" y="120"/>
    <use xlink:href="#x" fill="#9A82BD" x="120" y="120"/>
    <use xlink:href="#x" fill="#9A82BD" x="144" y="120"/>
    <use xlink:href="#x" fill="#9A82BD" x="120" y="144"/>
  </g>
  <g id="z">
    <use xlink:href="#x" fill="#AE2510" x="192" y="120"/>
    <use xlink:href="#x" fill="#AE2510" x="216" y="120"/>
    <use xlink:href="#x" fill="#AE2510" x="216" y="144"/>
    <use xlink:href="#x" fill="#AE2510" x="240" y="144"/>
  </g>
  <g id="1SXokG">
    <use xlink:href="#x" fill="#D12973" x="0" y="192"/>
    <use xlink:href="#x" fill="#D12973" x="24" y="216"/>
    <use xlink:href="#x" fill="#D12973" x="48" y="240"/>
  </g>
  <g id="CcrxuX">
    <use xlink:href="#x" fill="#E940C3" x="120" y="192"/>
    <use xlink:href="#x" fill="#E940C3" x="96" y="216"/>
    <use xlink:href="#x" fill="#E940C3" x="120" y="216"/>
    <use xlink:href="#x" fill="#E940C3" x="144" y="216"/>
    <use xlink:href="#x" fill="#E940C3" x="120" y="240"/>
  </g>
  <g id="4ifaXp">
    <use xlink:href="#x" fill="#413280" x="192" y="192"/>
    <use xlink:href="#x" fill="#413280" x="192" y="216"/>
    <use xlink:href="#x" fill="#413280" x="216" y="216"/>
    <use xlink:href="#x" fill="#413280" x="240" y="216"/>
    <use xlink:href="#x" fill="#413280" x="240" y="240"/>
  </g>
</svg>
