<?xml version='1.0' encoding='UTF-8' standalone='no'?>
<svg xmlns="http://www.w3.org/2000/svg" xmlns:xlink="http://www.w3.org/1999/xlink" version="1.1" viewBox="0 0 768 507">
  <path stroke="none" stroke-width="1.8" fill="black" fill-rule="evenodd" d="M0.000000,477.393011C0.000000,449.548251 0.104161,447.835128 1.750000,448.611046C2.712500,449.064809 5.750000,449.457709 8.500000,449.484159C11.250000,449.510608 14.467727,449.878606 15.650505,450.301933C17.108847,450.823887 19.120476,450.383874 21.900505,448.934842C24.155227,447.759615 26.000000,446.673457 26.000000,446.521157C26.000000,446.368857 25.294218,444.555074 24.431596,442.490528C23.319049,439.827828 23.173723,438.426277 23.931596,437.668404C25.582170,436.017830 25.207573,433.849854 22.835530,431.324929C20.810811,429.169715 20.778009,428.902779 22.327493,427.190618C24.772973,424.488393 22.419758,421.620895 17.889730,421.783002C6.131639,422.203766 4.799122,422.571106 5.185081,425.285346C5.457836,427.203482 6.202917,427.540469 10.750000,427.802260C13.637500,427.968502 16.000000,428.461258 16.000000,428.897272C16.000000,430.726563 12.066118,433.155760 10.109436,432.534734C7.616032,431.743358 4.000000,433.533903 4.000000,435.559935C4.000000,437.302401 8.664201,439.321076 11.173847,438.664789C13.300808,438.108576 16.542643,440.312968 15.671236,441.722935C15.322362,442.287424 12.666114,442.993197 9.768460,443.291320C6.870807,443.589442 3.487500,444.148339 2.250000,444.533312L0.000000,445.233263L0.000000,222.616631C0.000000,27.078809 0.179417,0.000000 1.475000,0.000000C2.545010,0.000000 2.805497,0.755067 2.423711,2.750000C1.746747,6.287310 8.344170,17.270205 10.859724,16.793643C13.521795,16.289324 13.390746,11.346418 10.572402,5.956437C9.157581,3.250643 8.000000,0.803529 8.000000,0.518406C8.000000,0.233283 19.009167,-0.000000 32.464816,-0.000000C55.629007,-0.000000 56.984666,0.102831 57.964816,1.934259C59.531143,4.860967 59.218938,10.102423 56.542953,25.805203C53.850451,41.604912 54.041462,44.654051 57.572168,42.234687C58.161861,41.830609 61.934222,35.323825 65.955192,27.775167C70.364586,19.497315 74.013181,13.813204 75.148609,13.452833C76.380971,13.061697 79.045252,14.200285 82.862671,16.749460C89.856533,21.419781 99.386863,25.449260 101.511087,24.634119C104.610150,23.444897 104.053289,20.894357 98.586615,11.239416C95.513977,5.812691 93.000000,1.063799 93.000000,0.686322C93.000000,0.308845 120.377973,0.000000 153.839940,0.000000L214.679881,0.000000L215.886913,4.250000C218.365892,12.978568 224.974140,30.914936 227.400268,35.500000C228.273344,37.150000 228.990451,39.651492 228.993839,41.058870C228.997228,42.466249 229.660688,44.491249 230.468197,45.558870C232.162792,47.799326 232.489147,52.000000 230.968615,52.000000C230.401354,52.000000 229.726354,51.325000 229.468615,50.500000C227.899065,45.475995 227.797592,45.411042 226.451036,48.568457C225.731297,50.256108 224.435375,52.223708 223.571209,52.940901C221.271364,54.849604 221.650284,55.789509 224.500000,55.244751C226.734121,54.817672 227.000000,55.098299 227.000000,57.883423C227.000000,59.597540 226.499919,61.000000 225.888709,61.000000C225.155774,61.000000 225.005811,62.217437 225.448243,64.575803C225.865100,66.797841 225.675026,68.686643 224.946186,69.564841C223.381329,71.450380 224.507240,77.125824 227.021192,80.024435C228.109537,81.279306 229.000000,82.938723 229.000000,83.712027C229.000000,84.485331 229.413793,84.862296 229.919539,84.549728C230.425285,84.237159 232.225285,85.663131 233.919539,87.718555C235.613793,89.773978 237.000000,90.873574 237.000000,90.162102C237.000000,88.552645 235.123415,84.980558 233.342064,83.199207C232.603929,82.461072 232.000000,80.594386 232.000000,79.051016C232.000000,77.507646 231.329350,75.688299 230.509666,75.008022C229.014413,73.767073 229.328726,69.714648 231.096037,67.447964C231.547181,66.869344 231.654463,65.394668 231.334442,64.170906C230.768639,62.007273 230.925681,61.960368 237.026375,62.470830C241.003148,62.803577 243.803257,62.578246 244.674248,61.855387C245.429994,61.228173 246.351251,61.017918 246.721485,61.388152C247.706225,62.372892 247.347317,69.158707 246.272232,69.882126C244.892963,70.810229 245.977826,79.000000 247.480035,79.000000C248.178516,79.000000 248.783331,77.987500 248.824069,76.750000C248.864807,75.512500 249.540842,72.738913 250.326368,70.586472C251.708298,66.799813 251.793254,66.745175 252.947038,68.901039C253.904094,70.689315 254.421806,70.894822 255.569739,69.942122C256.735749,68.974420 257.000000,69.158152 257.000000,70.936572C257.000000,72.337917 256.552985,72.901561 255.750000,72.512705C255.062500,72.179774 255.512500,72.658104 256.750000,73.575660C257.987500,74.493216 259.000000,75.848224 259.000000,76.586788C259.000000,77.325353 259.968234,78.447815 261.151630,79.081150C262.984335,80.061984 263.211325,79.993086 262.683015,78.616334C261.950243,76.706761 262.815684,74.000000 264.159008,74.000000C264.678775,74.000000 265.574652,75.350000 266.149845,77.000000C266.725038,78.650000 267.563484,80.000000 268.013059,80.000000C268.462634,80.000000 270.065342,81.308352 271.574633,82.907448C273.083923,84.506545 274.938828,85.576968 275.696644,85.286167C276.454459,84.995366 277.957730,85.556759 279.037245,86.533706C280.116760,87.510654 281.000000,88.038640 281.000000,87.707007C281.000000,87.375375 282.350000,87.574652 284.000000,88.149845C285.650000,88.725038 287.000000,89.585796 287.000000,90.062641C287.000000,91.405367 282.991195,93.230960 281.118239,92.741171C278.771917,92.127594 276.742221,94.612449 277.539040,97.123005C278.019015,98.635270 278.498453,98.901547 279.299337,98.100663C279.904702,97.495298 281.570000,97.000000 283.000000,97.000000C284.430000,97.000000 286.140000,96.460000 286.800000,95.800000C287.466667,95.133333 288.000000,95.044444 288.000000,95.600000C288.000000,96.150000 287.510790,97.089210 286.912868,97.687132C285.324271,99.275729 287.709384,100.486079 289.500000,99.000000C290.276815,98.355301 291.456120,98.163864 292.120679,98.574584C292.785238,98.985304 294.690129,99.428424 296.353771,99.559296C298.017412,99.690168 299.905503,100.517865 300.549529,101.398622C301.193555,102.279380 302.608376,103.000000 303.693576,103.000000C304.778776,103.000000 305.935661,103.268995 306.264432,103.597766C307.275519,104.608853 305.874197,107.000000 304.270566,107.000000C300.788078,107.000000 305.312679,109.904254 309.250164,110.196308C314.143878,110.559288 315.739716,113.000000 311.083333,113.000000C309.387500,113.000000 308.000000,113.438444 308.000000,113.974320C308.000000,114.510196 306.635287,115.654360 304.967304,116.516908C301.310008,118.408169 301.942014,120.161597 305.989239,119.352152C307.590669,119.031866 310.263274,119.244729 311.928360,119.825182C313.593447,120.405634 315.185150,120.509438 315.465479,120.055857C316.159364,118.933127 326.053726,119.653726 327.319151,120.919151C328.728065,122.328065 327.007442,122.821110 317.500000,123.732834C311.568954,124.301596 309.500000,124.871489 309.500000,125.936432C309.500000,126.736805 307.960572,127.771771 306.023462,128.273726C302.969599,129.065062 302.288144,128.873737 300.418425,126.700059C297.089840,122.830349 294.417928,121.722052 292.023032,123.217689C288.277415,125.556865 289.398583,126.853879 298.000000,130.132098L301.500000,131.466037L298.500000,131.994789L295.500000,132.523540L298.348816,134.511770C299.915665,135.605297 302.895206,137.962500 304.970017,139.750000C307.044829,141.537500 309.475361,143.000000 310.371201,143.000000C311.267040,143.000000 312.000000,143.450000 312.000000,144.000000C312.000000,145.298360 309.302431,145.298360 308.500000,144.000000C308.160081,143.450000 306.558524,143.000000 304.940983,143.000000C302.722073,143.000000 302.000000,143.464774 302.000000,144.893011C302.000000,145.934167 301.301628,147.054013 300.448062,147.381557C299.558137,147.723053 299.156740,147.555406 299.507079,146.988546C299.843104,146.444846 299.443034,146.000000 298.618034,146.000000C297.793034,146.000000 296.817114,146.486899 296.449323,147.081997C296.025969,147.766998 294.760373,147.186544 293.000000,145.500000C291.465562,144.029915 289.948719,143.273958 289.615438,143.813218C289.283265,144.350685 289.759150,145.077336 290.672961,145.427998C291.971982,145.926479 292.070721,146.329279 291.125577,147.274423C290.180432,148.219568 289.703141,148.157878 288.937686,146.991641C288.131197,145.762886 287.416484,146.160898 284.882332,149.250000C282.881078,151.689504 280.966243,153.000000 279.403005,153.000000C278.081352,153.000000 277.000000,152.629934 277.000000,152.177632C277.000000,151.725330 275.282855,150.231017 273.184123,148.856937C268.584108,145.845220 262.501791,145.973147 261.684413,149.098806C261.286875,150.618992 260.266657,151.000000 256.593620,151.000000C254.067129,151.000000 252.000000,150.634853 252.000000,150.188561C252.000000,149.742270 250.987500,148.288417 249.750000,146.957776C247.513637,144.553092 247.336247,144.132807 247.115350,140.715557C247.014867,139.161100 246.356437,139.016486 242.006634,139.593508C238.712561,140.030482 236.526342,139.851788 235.582437,139.068417C234.660161,138.302996 232.806314,138.133311 230.366599,138.591004C226.999522,139.222671 226.825526,139.391313 228.790796,140.118314C231.854753,141.251745 231.597425,142.215001 226.934060,147.068630C224.023632,150.097803 223.223827,151.520298 224.119758,152.074014C226.243552,153.386592 223.168321,156.000000 219.500000,156.000000C216.000702,156.000000 212.859820,158.408429 215.208262,159.290906C215.918718,159.557874 214.587500,159.542384 212.250000,159.256482C208.016167,158.738639 206.972501,159.572501 209.140718,161.740718C210.675476,163.275476 205.328523,169.000000 202.360236,169.000000C201.179794,169.000000 199.972165,169.630152 199.676617,170.400339C199.381069,171.170525 197.211328,172.126399 194.854970,172.524503C190.838043,173.203158 190.390527,173.037765 187.683785,169.874164L184.796887,166.500000L185.229594,174.500000C185.493201,179.373632 186.339033,183.798159 187.393978,185.821835C188.635847,188.204083 188.827486,189.502940 188.071503,190.413844C187.491720,191.112440 187.347199,192.013866 187.750345,192.417012C188.153492,192.820159 187.699588,193.588615 186.741670,194.124693C184.656178,195.291793 184.510669,198.118008 186.346522,201.799660C187.089101,203.288840 187.756181,208.088171 187.833810,212.500000C187.911231,216.900000 188.430296,222.072029 188.987288,223.993398C189.544279,225.914767 190.006891,229.739767 190.015313,232.493398C190.023735,235.247029 190.466844,238.175000 191.000000,239.000000C192.382744,241.139643 192.315917,229.458814 190.930606,226.870336C190.154555,225.420271 190.183387,224.483959 191.035714,223.456968C191.916891,222.395214 191.930944,221.240662 191.091982,218.834015C189.675326,214.770194 190.770194,213.675326 194.834015,215.091982C197.162521,215.903704 198.403903,215.909679 199.362899,215.113783C200.909316,213.830372 202.000000,214.628786 202.000000,217.044222C202.000000,217.985211 202.709297,219.343775 203.576215,220.063253C204.882426,221.147311 205.312902,221.125461 206.089219,219.935698C206.604453,219.146064 206.837402,217.712948 206.606884,216.750996C206.376366,215.789044 206.553268,214.776096 207.000000,214.500000C207.446732,214.223904 207.610340,213.210956 207.363573,212.249004C207.046039,211.011185 208.299171,209.623184 211.651128,207.500000C214.256051,205.850000 217.353418,203.825000 218.534167,203.000000C224.740801,198.663369 229.060154,196.000000 229.886508,196.000000C230.395947,196.000000 230.558820,196.971069 230.248449,198.157931C229.757391,200.035739 229.996714,200.232228 232.092069,199.671586C233.416431,199.317234 235.044970,199.021165 235.711045,199.013655C236.377120,199.006145 237.800721,198.056900 238.874603,196.904223C240.797340,194.840407 240.843060,194.838239 241.872658,196.762060C242.447707,197.836547 243.028001,200.346060 243.162202,202.338755C243.371271,205.443140 242.840260,206.465531 239.453102,209.480136C234.623608,213.778433 233.000000,213.930198 233.000000,210.083333C233.000000,206.760615 231.661709,205.980053 227.822250,207.063393C225.914571,207.601664 224.990819,207.418457 224.610105,206.426332C223.874283,204.508812 221.000000,205.790043 221.000000,208.035560C221.000000,209.037431 221.675000,210.532143 222.500000,211.357143C224.396578,213.253720 224.445913,216.000000 222.583407,216.000000C221.804280,216.000000 220.328063,214.848581 219.302923,213.441291C217.658531,211.183903 217.111688,211.007038 214.659342,211.939418C211.483472,213.146882 211.970590,215.000000 215.463860,215.000000C217.620542,215.000000 217.766743,215.320173 217.277081,218.970874C216.930819,221.552452 217.313983,224.141898 218.372237,226.372003C219.267507,228.258644 220.000000,230.248605 220.000000,230.794140C220.000000,231.339675 220.652741,232.036502 221.450535,232.342645C222.248329,232.648787 223.878744,235.171932 225.073679,237.949634C226.268614,240.727335 227.640873,243.000000 228.123144,243.000000C229.404140,243.000000 229.196822,248.760323 227.886685,249.570033C227.274361,249.948469 225.948637,252.122543 224.940632,254.401308C222.529148,259.852866 223.605361,264.713900 228.398366,270.019183C231.926915,273.924866 233.258433,279.104212 231.080075,280.450511C230.040429,281.093048 226.000000,276.376328 226.000000,274.520129C226.000000,272.515814 222.513782,270.000000 219.736359,270.000000C216.206894,270.000000 212.000000,268.310352 212.000000,266.892785C212.000000,266.256591 211.038678,264.180616 209.863729,262.279508C207.349854,258.211974 205.666524,259.497131 206.627819,264.750000C207.007329,266.823782 206.820391,268.000000 206.111291,268.000000C205.500081,268.000000 205.000000,266.904295 205.000000,265.565100C205.000000,264.225904 204.620768,262.088404 204.157263,260.815100C203.693757,259.541795 203.713458,251.132201 204.201042,242.127113C204.688626,233.122025 204.872797,225.539464 204.610311,225.276977C203.562051,224.228718 201.916919,226.194968 202.875677,227.350200C203.513814,228.119109 203.363886,230.582592 202.439856,234.511172C201.665118,237.805027 201.024212,241.933205 201.015621,243.684900C201.007029,245.436596 200.501106,248.136596 199.891347,249.684900C198.796964,252.463764 198.769588,252.471789 197.764563,250.308337C196.777118,248.182729 194.000000,246.323466 194.000000,247.787987C194.000000,248.186856 194.467300,250.085233 195.038444,252.006602C195.609589,253.927971 196.784110,259.550000 197.648492,264.500000C199.214372,273.467223 200.642779,277.690554 201.739011,276.594322C202.056345,276.276989 202.919886,276.518548 203.657991,277.131121C204.658442,277.961421 205.000000,277.928049 205.000000,277.000000C205.000000,276.071951 205.341558,276.038579 206.342009,276.868879C208.131428,278.353965 209.095025,277.226791 208.400764,274.460636C207.644231,271.446366 209.671409,270.392654 212.063013,272.557026C214.522068,274.782440 214.493429,275.392231 211.750000,279.221657C207.355798,285.355321 206.427855,285.999284 204.607143,284.178571C203.130952,282.702381 203.000000,282.715770 203.000000,284.342894C203.000000,290.947010 207.405763,300.000000 210.619748,300.000000C211.318864,300.000000 212.497060,301.237500 213.237961,302.750000C214.169399,304.651468 215.189046,305.382923 216.542527,305.120565C217.619137,304.911875 221.272132,304.820579 224.660292,304.917684C229.948462,305.069244 231.034328,304.789077 232.330375,302.938711C234.371307,300.024873 236.000000,301.314068 236.000000,305.843409C236.000000,308.910124 235.477238,309.877588 233.043271,311.315368C229.865474,313.192539 229.849022,315.228054 232.989244,318.000000C235.253617,319.998815 237.554911,328.161158 239.533586,341.211798C241.368011,353.311021 240.968802,356.808309 235.962090,372.500000C230.408184,389.906668 229.821168,398.905826 233.019351,417.613193C234.753216,427.755216 243.583243,458.870077 254.980806,495.000000C256.629086,500.225000 257.982702,505.062500 257.988840,505.750000C257.997711,506.743598 231.539285,507.000000 129.000000,507.000000L0.000000,507.000000L0.000000,477.393011zM335.000000,506.075806C335.000000,505.567500 340.175000,499.840484 346.500000,493.349105C352.825000,486.857726 357.998784,481.086113 357.997298,480.523299C357.995812,479.960484 356.450523,478.600000 354.563323,477.500000C352.676122,476.400000 344.085542,469.200000 335.473144,461.500000C326.860746,453.800000 315.918535,444.452464 311.157119,440.727698C306.395704,437.002932 298.675000,430.460011 294.000000,426.187874C289.325000,421.915736 282.800000,416.342100 279.500000,413.802017C268.529676,405.357915 257.115619,391.785330 252.755643,382.000000C247.496612,370.196870 243.726673,356.716478 243.380757,348.477671C243.066006,340.981117 243.189954,340.391266 245.271965,339.477671C246.744454,338.831537 247.841583,337.084572 248.507297,334.326037C249.061310,332.030357 249.826935,329.839732 250.208686,329.457981C250.590436,329.076230 250.643403,327.467014 250.326389,325.881944C249.999897,324.249486 250.181750,323.000000 250.745834,323.000000C251.293542,323.000000 252.051886,325.741966 252.431041,329.093258C253.199776,335.887974 254.445607,339.800792 256.355369,341.418505C257.057575,342.013327 258.408045,345.072167 259.356413,348.215926C261.395442,354.975133 262.633175,356.095021 264.023368,352.438538C264.768404,350.478945 264.706395,349.351153 263.793110,348.250713C262.752222,346.996520 263.083049,346.294037 265.771615,344.049523C269.246677,341.148413 269.782354,340.000000 267.660515,340.000000C265.801605,340.000000 263.964690,335.666635 265.078075,333.907912C265.568290,333.133560 265.976265,331.037500 265.984687,329.250000C265.993109,327.462500 266.450000,326.000000 267.000000,326.000000C267.550000,326.000000 268.000000,326.675000 268.000000,327.500000C268.000000,328.325000 268.450000,329.000000 269.000000,329.000000C269.550000,329.000000 270.000000,327.425000 270.000000,325.500000C270.000000,323.055556 269.547619,322.000000 268.500000,322.000000C267.675000,322.000000 267.006549,321.212500 267.014553,320.250000C267.038651,317.352346 270.024876,309.635597 271.948545,307.500000C272.939386,306.400000 274.272140,304.487500 274.910221,303.250000C275.548301,302.012500 276.777075,301.000000 277.640828,301.000000C278.504581,301.000000 280.521927,299.897170 282.123818,298.549267C284.542357,296.514201 285.838909,296.169969 289.768174,296.519702C305.459734,297.916364 309.935127,297.939893 310.709369,296.629796C311.984076,294.472863 315.552376,292.952376 316.683965,294.083965C318.062180,295.462180 322.522417,293.626508 326.693172,289.964537C328.550203,288.334041 330.744101,287.000000 331.568500,287.000000C332.392899,287.000000 334.387074,285.650000 336.000000,284.000000C337.612926,282.350000 339.735259,280.997631 340.716296,280.994735C342.646286,280.989039 345.727766,279.151732 351.442779,274.599157C353.946557,272.604649 356.555225,271.561778 359.792157,271.261315C364.349790,270.838260 364.603696,270.960545 367.750000,275.093944C369.973306,278.014770 371.000000,280.460775 371.000000,282.836773C371.000000,286.141092 370.910876,286.229319 369.167091,284.651216C367.749251,283.368087 366.266886,283.138745 362.621084,283.638458C358.428639,284.213096 357.747363,284.668882 356.453993,287.764354C355.654297,289.678296 355.000000,292.756463 355.000000,294.604727L355.000000,297.965206L362.885664,297.797502C370.146291,297.643090 371.029565,297.847090 374.029334,300.371229C376.290237,302.273654 377.606448,302.793552 378.330016,302.069984C379.053585,301.346415 379.851244,301.455092 380.936346,302.425084C382.650561,303.957450 389.463918,304.869415 390.613030,303.720304C391.995123,302.338211 398.763547,302.941429 399.361626,304.500000C399.997983,306.158319 404.000000,306.589722 404.000000,305.000000C404.000000,304.450000 404.884342,304.000000 405.965204,304.000000C407.046066,304.000000 409.469718,302.648467 411.351098,300.996594C414.051037,298.626016 416.055218,297.859043 420.862959,297.356535C429.613711,296.441900 429.981856,293.874051 422.670323,284.750000C421.017544,282.687500 418.870909,281.000000 417.900023,281.000000C415.458519,281.000000 414.606620,277.585174 416.220111,274.266094C417.361548,271.918068 418.088877,271.546474 421.032391,271.807489C422.939576,271.976608 425.692358,272.969205 427.149683,274.013259C428.607009,275.057314 431.082009,276.209979 432.649683,276.574738C434.217358,276.939496 436.414574,277.805610 437.532386,278.499434C440.091511,280.087880 453.201601,285.429661 458.500000,287.042808C460.700000,287.712619 462.950000,288.612104 463.500000,289.041664C464.655326,289.943996 469.789475,289.149654 470.528262,287.954271C470.802551,287.510462 472.389418,287.538091 474.054634,288.015669C476.412875,288.692004 477.855140,288.428004 480.577700,286.821654C484.804122,284.328005 486.879466,280.594055 487.455712,274.446770C487.693199,271.913307 488.430855,269.185778 489.094948,268.385595C489.759041,267.585411 490.262085,265.513135 490.212823,263.780537C490.161557,261.977443 490.798147,260.136866 491.701497,259.476320C492.859183,258.629800 493.018659,257.855760 492.299975,256.571541C491.761105,255.608634 491.023164,254.861121 490.660105,254.910400C488.852478,255.155759 488.117706,254.749825 484.695417,251.615130C480.625073,247.886840 479.873987,245.000000 482.974320,245.000000C484.129059,245.000000 485.554609,246.171816 486.408383,247.822833C487.211242,249.375391 488.637709,251.284362 489.578309,252.064991C491.116200,253.341327 491.220904,253.271368 490.617615,251.370571C490.248632,250.208011 488.574980,246.724145 486.898386,243.628645C483.254891,236.901651 480.349294,235.626307 475.997307,238.843870C474.434297,239.999453 469.284441,242.733351 464.553181,244.919199C459.821921,247.105048 454.776254,249.817439 453.340586,250.946735C450.517539,253.167344 444.343259,253.544169 434.279483,252.110059C430.040802,251.506038 429.262676,251.611579 430.142107,252.671229C430.950818,253.645666 430.794641,254.141573 429.525697,254.628513C428.411618,255.056025 426.908755,254.360500 425.163073,252.609489C422.910738,250.350278 422.731352,249.791172 424.000000,248.984456C425.214251,248.212329 425.082620,248.027708 423.309017,248.015313C422.103976,248.006891 420.835382,248.457340 420.489919,249.016312C419.540967,250.551748 417.776978,249.023568 418.455937,247.254232C419.018144,245.789142 416.504235,242.000000 414.970012,242.000000C414.574006,242.000000 413.997023,243.264886 413.687828,244.810858C413.007145,248.214276 408.528436,250.819465 407.584956,248.360796C407.264211,247.524949 407.257954,245.820410 407.571051,244.572933C407.884148,243.325456 407.385862,239.873714 406.463749,236.902396C401.681358,221.492130 400.588309,220.318806 392.102055,221.485964C387.758944,222.083294 386.151027,222.974912 381.520771,227.353469C377.445308,231.207390 376.194830,233.029026 376.589283,234.537419C377.313989,237.308698 373.801200,241.401200 372.131208,239.731208C371.202255,238.802255 370.803852,239.034067 370.350615,240.767247C370.022878,242.020516 368.987460,243.000000 367.990357,243.000000C367.013349,243.000000 365.944011,243.703522 365.614052,244.563382C364.783771,246.727058 362.710797,245.213914 363.319002,242.888137C363.927368,240.561742 362.215062,239.275982 361.385948,241.436618C361.055989,242.296478 360.269017,243.000000 359.637123,243.000000C359.005228,243.000000 357.907121,244.312799 357.196886,245.917331C355.024582,250.824908 349.626840,254.077286 340.143132,256.192970C332.972010,257.792748 330.478141,257.943998 325.500000,257.081057C312.903596,254.897520 304.000000,252.534565 304.000000,251.375101C304.000000,250.172179 294.620059,245.000000 292.438514,245.000000C291.795676,245.000000 290.196531,244.168621 288.884859,243.152491C285.478479,240.513626 282.156400,239.937721 275.976179,240.914683C272.999797,241.385185 269.987546,241.548715 269.282287,241.278082C267.132776,240.453237 267.846042,239.071839 270.750000,238.435529C275.940908,237.298107 276.565746,236.967684 275.163984,236.101348C274.339827,235.591991 274.121330,234.364764 274.550418,232.655143C275.313106,229.616351 275.371681,229.590661 277.915473,231.179285C280.386548,232.722497 285.264504,229.852862 284.326282,227.407894C283.856573,226.183853 284.272453,225.892572 286.140323,226.137345C290.583392,226.719581 303.949701,217.168744 303.981974,213.388672C303.996651,211.669597 303.532860,211.366643 301.485593,211.758003C299.434866,212.150024 299.091799,211.924350 299.625235,210.534237C300.131955,209.213748 301.018667,208.968521 303.561662,209.445590C305.425943,209.795331 307.119243,209.616078 307.481036,209.030684C307.851967,208.430505 312.583534,207.986716 318.809017,207.968197C328.427725,207.939583 329.305310,207.789137 327.558870,206.468197C325.645030,205.020641 325.646041,205.000000 327.630732,205.000000C328.737876,205.000000 331.798282,205.734132 334.431632,206.631405C337.805204,207.780896 339.419931,207.938571 339.897916,207.165175C340.379541,206.385890 341.320567,206.453675 343.142472,207.398890C347.056606,209.429567 352.060067,209.850230 354.882514,208.385927C356.279671,207.661074 358.480232,207.333410 359.772650,207.657787C361.598110,208.115948 362.246439,207.773621 362.677882,206.123781C363.399302,203.365065 364.588219,203.419041 365.458122,206.250000C366.118308,208.398467 366.190085,208.365705 367.048721,205.523967C367.608427,203.671565 367.580203,202.180203 366.973967,201.573967C366.438285,201.038285 366.000000,199.590517 366.000000,198.356704C366.000000,197.122891 365.051216,195.448854 363.891591,194.636621C362.657794,193.772436 362.088708,192.665484 362.519707,191.968114C362.924795,191.312667 362.700535,190.432955 362.021353,190.013197C361.142534,189.470057 361.105593,189.052774 361.893237,188.565983C362.501957,188.189774 363.000000,188.350943 363.000000,188.924137C363.000000,189.497331 365.191784,191.076969 367.870631,192.434444C370.642439,193.839025 372.972123,195.785397 373.277011,196.951289C373.775848,198.858845 377.000000,199.953759 377.000000,198.215608C377.000000,197.784192 378.370877,196.621418 380.046394,195.631666C383.686542,193.481378 385.953560,194.699254 386.078947,198.872445C386.122368,200.317600 386.384868,200.937500 386.662281,200.250000C386.939693,199.562500 388.029167,199.000000 389.083333,199.000000C390.137500,199.000000 391.000000,198.550000 391.000000,198.000000C391.000000,197.450000 391.505100,197.000000 392.122445,197.000000C392.897951,197.000000 392.860104,197.463637 392.000000,198.500000C390.959934,199.753202 391.104320,200.000000 392.877555,200.000000C394.138062,200.000000 395.000000,199.363474 395.000000,198.432612C395.000000,197.332485 395.582639,197.050147 396.954417,197.485532C400.005643,198.453954 404.109536,195.284607 403.410545,192.499607C403.095616,191.244827 403.324408,189.917539 403.918973,189.550077C404.513538,189.182616 405.000000,188.008524 405.000000,186.940983C405.000000,185.873442 405.622516,185.000000 406.383369,185.000000C407.958935,185.000000 408.966387,187.999547 408.986345,192.750000C408.993855,194.537500 409.450000,196.000000 410.000000,196.000000C410.550000,196.000000 411.000000,195.070416 411.000000,193.934259C411.000000,189.168060 415.275338,184.530493 418.063835,186.271939C419.342447,187.070445 420.508971,186.724212 423.113286,184.773222C427.873954,181.206829 432.955759,178.769046 434.441278,179.339092C435.134697,179.605183 438.806582,178.721006 442.601020,177.374255C446.395459,176.027505 450.312951,174.658214 451.306558,174.331387C452.411336,173.967993 452.887548,173.149338 452.532447,172.223961C452.213080,171.391703 452.633530,169.957438 453.466781,169.036706C454.838365,167.521124 454.705529,167.158405 452.063560,165.205113C450.458537,164.018468 449.000136,162.062740 448.822668,160.859050C448.587817,159.266152 447.411360,158.367512 444.500000,157.557167C441.559212,156.738631 440.415382,155.855444 440.180449,154.221906C440.004696,152.999857 439.412612,152.000000 438.864708,152.000000C437.037183,152.000000 434.000000,154.054715 434.000000,155.291072C434.000000,156.827742 428.412423,159.372926 426.981021,158.488270C425.957436,157.855660 417.512977,160.205488 413.632102,162.202855C412.390586,162.841825 411.401332,162.801332 410.682102,162.082102C409.157809,160.557809 408.000000,160.738207 408.000000,162.500000C408.000000,163.325000 407.501855,164.000000 406.893011,164.000000C406.281530,164.000000 406.065444,163.271839 406.410264,162.373252C407.341908,159.945427 405.170228,157.919171 402.385578,158.618074C400.672870,159.047936 400.000000,158.797556 400.000000,157.730380C400.000000,156.912840 398.987500,155.538330 397.750000,154.675913L395.500000,153.107882L398.776758,150.460522C404.658462,145.708573 411.037458,142.786198 412.634754,144.111836C413.412222,144.757077 414.368234,144.965099 414.759225,144.574108C415.917542,143.415791 410.729049,140.046324 407.750000,140.022236C404.553620,139.996391 404.090182,137.743960 406.556704,134.222506C408.343480,131.671526 412.173923,131.299712 414.000000,133.500000C415.305663,135.073228 414.807213,135.374295 411.500000,135.010014C409.563752,134.796741 409.557594,134.853364 411.306817,136.786382C413.470135,139.177005 417.000000,138.617123 417.000000,135.883369C417.000000,133.453381 418.543657,133.495880 421.744933,136.014004C424.656082,138.303915 425.580363,138.051501 424.185959,135.347379C420.281279,127.775158 420.233194,125.415518 424.031910,127.787855C425.099434,128.454535 427.302411,129.000000 428.927414,129.000000C430.552418,129.000000 432.141841,129.420487 432.459466,129.934415C432.777091,130.448343 435.391149,131.530511 438.268483,132.339232C443.910197,133.924927 453.367136,133.786045 459.921095,132.021247C463.116812,131.160730 464.673091,131.254395 467.616975,132.484428C469.646533,133.332432 471.527113,133.806221 471.796041,133.537292C472.714570,132.618763 469.759314,130.000000 467.804231,130.000000C466.474132,130.000000 465.969278,129.443141 466.217664,128.250000C466.452393,127.122461 467.367703,126.584729 468.790988,126.738210C470.309279,126.901936 471.004788,126.432912 471.015313,125.238210C471.023735,124.282195 471.454704,122.829235 471.973022,122.009411C472.803417,120.695974 473.247275,120.709536 475.707709,122.123520C479.249995,124.159231 484.000000,125.314529 484.000000,124.140372C484.000000,122.850866 488.990342,121.107194 492.460328,121.184256C494.942763,121.239387 503.000000,125.415924 503.000000,126.647585C503.000000,126.857581 501.537500,127.921100 499.750000,129.010960C497.962500,130.100820 497.175000,131.001394 498.000000,131.012235C498.825000,131.023076 501.034887,132.384719 502.910860,134.038107C506.085618,136.836179 506.197990,137.134741 504.534248,138.351299C503.091422,139.406319 502.959949,140.056646 503.852375,141.724160C504.712808,143.331894 504.632451,144.060149 503.489997,145.008302C502.682610,145.678373 502.299718,146.675937 502.639126,147.225110C502.978533,147.774283 502.702118,148.566067 502.024870,148.984629C500.380491,150.000911 501.901660,152.879617 507.713518,159.750000C510.156138,162.637500 511.674255,165.000000 511.087111,165.000000C510.499966,165.000000 510.790179,165.900000 511.732028,167.000000C512.673878,168.100000 513.735661,169.000000 514.091546,169.000000C514.847936,169.000000 514.346093,158.012760 513.553501,157.220168C513.258619,156.925286 513.462478,156.147675 514.006520,155.492143C514.970875,154.330168 514.515448,150.923969 512.168412,141.744674C511.272600,138.241143 512.142048,135.808715 513.724522,137.391189C514.049825,137.716491 514.898291,137.499374 515.610003,136.908706C518.594886,134.431473 520.910482,136.917287 523.487168,145.364918C526.597182,155.561060 526.597907,156.591000 523.500000,163.595917C520.820342,169.655100 520.231764,177.318068 521.941714,183.883980C522.459657,185.872791 523.616267,190.875000 524.511958,195.000000C525.407650,199.125000 526.879300,204.075000 527.782292,206.000000C530.421848,211.627010 529.807592,226.542779 527.115677,222.187170C526.151541,220.627164 523.000000,221.714377 523.000000,223.606989C523.000000,224.373145 522.577573,225.000000 522.061273,225.000000C521.544973,225.000000 520.803937,227.137500 520.414527,229.750000C520.025116,232.362500 519.096153,235.435634 518.350165,236.579186C517.410333,238.019889 516.882713,243.240300 516.631996,253.579186C516.255539,269.103296 514.379495,278.533408 511.443413,279.660088C509.591501,280.370733 506.076987,276.206640 506.033269,273.250000C505.999098,270.939026 504.499838,270.396514 502.192154,271.860081C501.135610,272.530156 501.210907,273.374423 502.584022,276.253874C503.573256,278.328320 503.985582,280.587705 503.570448,281.659106C502.878413,283.445149 502.816576,283.444873 501.495115,281.649862C498.945221,278.186207 498.000000,280.843926 498.000000,291.477230C498.000000,306.352201 499.260139,308.147278 504.899554,301.305691C508.310092,297.168117 509.891640,297.433176 508.067662,301.836649C506.823425,304.840504 502.284163,309.521832 498.087973,312.128673C495.719376,313.600140 495.679997,313.860049 495.900928,326.563560C496.236979,345.886459 493.468633,357.103636 483.388923,377.261467C478.683507,386.671555 474.309094,394.365063 468.336686,403.734616C466.501509,406.613654 465.000000,409.346243 465.000000,409.807034C465.000000,411.154608 470.914605,421.689629 472.265968,422.749085C472.944686,423.281193 475.525000,424.413362 478.000000,425.265016C480.475000,426.116670 494.373544,431.155248 508.885654,436.461856C523.397763,441.768464 543.315215,448.341163 553.146658,451.067852C572.747877,456.504128 578.109848,458.378310 594.500000,465.522179C609.814840,472.197358 628.838371,479.000000 632.190615,479.000000C634.994739,479.000000 634.999954,478.987360 634.975554,472.250000C634.962109,468.537500 634.481447,463.475000 633.907418,461.000000C633.086974,457.462556 633.231849,454.738818 634.584718,448.266379C636.206058,440.509509 636.207493,439.669916 634.609509,433.766379C632.421252,425.682160 632.423400,426.002701 634.443592,409.013278C635.391021,401.045581 636.109209,389.570581 636.039565,383.513278C635.969922,377.455975 635.907988,365.316538 635.901934,356.536751C635.894953,346.411563 635.488577,340.088699 634.790764,339.247886C633.980959,338.272130 634.167976,335.832126 635.499367,330.002771C637.126445,322.878781 637.189152,320.697912 636.123630,308.291636C633.550010,278.326017 633.516578,281.546770 636.421000,279.643720C638.924449,278.003397 639.008013,277.622713 638.927890,268.223417C638.882302,262.875537 639.128508,253.183082 639.475014,246.684628C639.953986,237.701884 639.716894,232.966291 638.486063,226.931670C637.595634,222.565999 637.193426,217.982916 637.592268,216.747043C637.991109,215.511169 638.447982,212.475000 638.607541,210.000000C638.982863,204.178188 641.302633,192.536485 643.042155,187.745008C644.154218,184.681855 644.183797,182.697802 643.202693,176.976449C642.541212,173.118987 642.001250,167.158733 642.002778,163.731441C642.004771,159.258522 641.393153,156.343717 639.835467,153.402634L637.665378,149.305268L640.254831,145.902634C641.679030,144.031185 643.138683,141.319954 643.498505,139.877676C644.551108,135.658517 645.541336,93.232706 644.919404,79.000000C644.520450,69.870063 646.033333,29.968668 647.049937,22.808447C647.572472,19.128093 648.000000,12.490593 648.000000,8.058447L648.000000,0.000000L707.009906,0.000000L766.019811,0.000000L765.988897,220.972959C765.971895,342.508087 765.694292,442.633087 765.372003,443.472959C764.924296,444.639665 763.145987,445.000000 757.835831,445.000000C748.973255,445.000000 742.749132,446.573683 739.988242,449.512515C737.910056,451.724644 737.895086,451.871973 739.656000,452.782363C742.423900,454.213361 750.745187,455.908308 757.500000,456.416973C760.800000,456.665476 763.795273,456.898317 764.156162,456.934398C765.420033,457.060757 766.165895,466.997560 766.406397,486.913314L766.648964,507.000000L611.324482,507.000000L456.000000,507.000000L456.000000,500.136490C456.000000,496.361559 456.478312,490.849059 457.062915,487.886490C458.980683,478.167894 457.436186,424.118072 455.174802,421.811804C454.187799,420.805211 425.842452,444.384158 411.500000,458.142490C408.200000,461.308092 400.805377,467.633550 395.067505,472.199065C384.808163,480.362225 382.417680,483.000000 385.279162,483.000000C387.520113,483.000000 393.872909,488.438862 400.842312,496.324182C411.339996,508.201471 414.581990,507.000000 372.035184,507.000000C350.036912,507.000000 335.000000,506.624762 335.000000,506.075806zM139.261258,431.582646C145.442566,429.703101 153.650000,427.048734 157.500000,425.684053C161.350000,424.319371 167.425000,422.289476 171.000000,421.173176C174.575000,420.056875 183.125000,416.472292 190.000000,413.207435C201.767473,407.619201 202.922701,406.802226 209.713067,399.266387C214.263499,394.216390 217.694543,389.311971 219.007751,385.980337C220.152640,383.075729 222.869260,377.703230 225.044684,374.041449C227.220108,370.379668 228.987323,366.509841 228.971829,365.441833C228.956335,364.373825 226.908406,357.875000 224.420875,351.000000C221.933343,344.125000 219.316118,336.475000 218.604819,334.000000C217.893520,331.525000 216.552578,328.033021 215.624947,326.240047C214.697317,324.447073 213.112252,320.325850 212.102582,317.081774C211.092912,313.837697 209.336705,309.877228 208.199899,308.280732C207.063093,306.684235 205.808998,304.055458 205.413022,302.439005C205.017046,300.822552 203.862125,297.931664 202.846533,296.014809C201.830940,294.097954 201.000000,291.880887 201.000000,291.087994C201.000000,290.295100 199.438375,287.363436 197.529722,284.573185C195.621069,281.782933 193.409241,276.800000 192.614548,273.500000C191.132216,267.344548 184.937125,251.834092 183.055162,249.566466C182.476261,248.868934 181.723479,246.093625 181.382312,243.399113C181.041145,240.704601 179.690556,236.619869 178.381004,234.321930C177.071452,232.023992 176.000000,229.503514 176.000000,228.720869C176.000000,227.938224 174.946289,225.316121 173.658420,222.893972C172.370551,220.471824 170.772533,216.840797 170.107268,214.825025C169.442003,212.809253 168.241686,210.615545 167.439898,209.950120C166.638109,209.284694 165.696219,206.952453 165.346809,204.767362C164.997399,202.582271 162.510954,196.453213 159.821375,191.147234C157.131796,185.841255 153.830664,178.409695 152.485526,174.632656C151.140388,170.855617 148.862129,165.680617 147.422730,163.132656C145.983330,160.584695 144.151519,156.025000 143.352038,153.000000C142.552557,149.975000 141.081222,146.113358 140.082405,144.418574C139.083588,142.723790 137.698971,139.573790 137.005479,137.418574C136.311987,135.263358 133.719885,129.225000 131.245253,124.000000C128.770620,118.775000 126.119260,112.730902 125.353342,110.568671C124.587424,108.406439 122.844592,105.173964 121.480382,103.385392C120.116172,101.596821 118.999645,99.540919 118.999211,98.816722C118.997384,95.766723 113.084498,85.161594 111.020567,84.506528C107.141874,83.275478 95.728589,92.557576 82.409856,107.774798C76.715835,114.280462 75.020015,116.952936 74.477974,120.274798C73.230645,127.918972 71.109017,130.308987 43.652245,155.000000C36.618751,161.325000 29.432158,167.518418 27.682037,168.763151C22.398509,172.520940 20.000000,175.111525 20.000000,177.060376C20.000000,178.078126 25.140074,188.959500 31.422387,201.241205C37.704700,213.522911 43.629258,225.580474 44.588071,228.035790C45.546885,230.491105 47.065526,233.625000 47.962829,235.000000C49.682235,237.634765 56.241697,252.744301 57.513630,257.000000C57.924587,258.375000 59.586579,262.142893 61.206946,265.373096C62.827313,268.603298 65.719184,275.803298 67.633327,281.373096C71.204988,291.765959 79.902114,311.667752 89.757392,332.000000C101.951921,357.158316 103.373408,360.851037 109.966889,384.500000C111.193637,388.900000 113.502939,396.378409 115.098670,401.118687C116.694402,405.858965 118.000000,410.849482 118.000000,412.208725C118.000000,414.860338 121.136757,427.723830 122.887056,432.250000C124.263528,435.809476 125.530143,435.757853 139.261258,431.582646zM383.922036,418.474841C388.744107,417.653698 392.804844,417.410062 393.422036,417.904860C394.014916,418.380167 395.850000,419.051832 397.500000,419.397448C400.114579,419.945109 400.727190,419.624235 402.268379,416.899857C403.719212,414.335204 404.510234,413.864383 406.673482,414.277914C408.275654,414.584189 410.524528,414.041473 412.405103,412.894716C415.992669,410.707051 418.260778,410.521401 420.942139,412.195938C424.494589,414.414480 429.786278,410.351677 434.487128,401.796497C435.030049,400.808424 436.043116,400.000000 436.738389,400.000000C438.050321,400.000000 444.000000,388.409021 444.000000,385.853157C444.000000,385.053921 444.540000,383.860000 445.200000,383.200000C446.133333,382.266667 446.133333,381.733333 445.200000,380.800000C443.437005,379.037005 443.733292,378.000000 446.000000,378.000000C449.639057,378.000000 448.198175,375.401994 444.500995,375.297194C441.766274,375.219675 440.242678,375.957322 437.525750,378.674250C434.903783,381.296217 433.531028,381.985929 431.939680,381.480855C430.520945,381.030566 429.120706,381.461794 427.664924,382.797339C425.049732,385.196537 416.826702,389.000000 414.254864,389.000000C413.234689,389.000000 411.890248,388.490248 411.267217,387.867217C410.619521,387.219521 409.356256,387.057611 408.317217,387.489121C406.376177,388.295231 394.115209,388.177486 363.821429,387.061819C362.898214,387.027818 361.548214,386.422689 360.821429,385.717087C360.094643,385.011486 357.931080,383.330065 356.013510,381.980598C352.805703,379.723140 351.305983,378.482300 346.916112,374.453582C346.044974,373.654112 344.915720,373.000000 344.406659,373.000000C343.897598,373.000000 342.944307,372.140468 342.288235,371.089929C341.632162,370.039390 339.714427,368.876551 338.026600,368.505842C335.070551,367.856585 330.000000,362.094464 330.000000,359.384497C330.000000,358.751318 329.050256,357.984899 327.889458,357.681344C326.341224,357.276471 325.637347,357.670783 325.247560,359.161333C324.824882,360.777655 324.149476,361.079895 321.945321,360.639064C320.166652,360.283330 318.741275,360.606818 317.964775,361.542444C317.005247,362.698604 317.038907,363.003572 318.127555,363.017277C318.882400,363.026779 320.559732,364.151779 321.854960,365.517277L324.209920,368.000000L321.227405,368.000000C319.587021,368.000000 317.684689,367.325000 317.000000,366.500000C314.985083,364.072173 313.203522,364.750136 310.849354,368.840593C309.633654,370.952919 307.707717,373.090419 306.569495,373.590593C305.321990,374.138789 304.369885,375.638236 304.172414,377.365694C303.841381,380.261536 307.499452,388.853453 309.656997,390.247643C310.293345,390.658846 310.578361,391.896346 310.290365,392.997643C309.867568,394.614422 310.258065,395.000000 312.318269,395.000000C316.782068,395.000000 319.300819,396.614345 327.914591,404.996163C335.423114,412.302493 336.641191,413.121762 339.226777,412.604645C340.857698,412.278460 343.680587,412.675354 345.684310,413.512563C347.642276,414.330653 350.287734,415.000000 351.563107,415.000000C352.838479,415.000000 354.160081,415.450000 354.500000,416.000000C354.839919,416.550000 356.414919,417.000000 358.000000,417.000000C359.585081,417.000000 361.160081,417.450000 361.500000,418.000000C362.440881,419.522378 364.011218,419.192808 363.400442,417.601151C363.105208,416.831783 363.347509,415.903262 363.938889,415.537769C364.530269,415.172276 365.289306,415.590343 365.625637,416.466808C366.493466,418.728336 371.133617,421.070140 373.500000,420.440864C374.600000,420.148348 379.289916,419.263638 383.922036,418.474841zM21.000000,412.581787C21.000000,412.351771 20.726855,411.451771 20.393011,410.581787C19.535591,408.347387 18.000000,408.615754 18.000000,411.000000C18.000000,412.111111 18.666667,413.000000 19.500000,413.000000C20.325000,413.000000 21.000000,412.811804 21.000000,412.581787zM302.500000,400.000000C302.160081,399.450000 301.458524,399.000000 300.940983,399.000000C300.423442,399.000000 300.000000,399.450000 300.000000,400.000000C300.000000,400.550000 300.701558,401.000000 301.559017,401.000000C302.416476,401.000000 302.839919,400.550000 302.500000,400.000000zM300.000000,395.239782C300.000000,392.679441 294.947325,387.467196 293.981018,389.030713C293.564442,389.704748 292.723295,389.947021 292.111803,389.569098C290.519032,388.584711 290.740962,390.185159 292.556704,392.777494C293.412891,393.999872 294.762891,395.000000 295.556704,395.000000C296.350517,395.000000 297.000000,395.450000 297.000000,396.000000C297.000000,396.550000 297.675000,397.000000 298.500000,397.000000C299.325000,397.000000 300.000000,396.207902 300.000000,395.239782zM313.500000,392.000000C313.160081,391.450000 313.358524,391.000000 313.940983,391.000000C314.523442,391.000000 315.000000,391.450000 315.000000,392.000000C315.000000,392.550000 314.801558,393.000000 314.559017,393.000000C314.316476,393.000000 313.839919,392.550000 313.500000,392.000000zM9.878443,390.892530C11.625732,390.283422 15.180382,389.720922 17.777666,389.642530C21.898308,389.518160 22.541681,389.205952 22.827127,387.192184C23.173933,384.745540 20.627053,380.000000 18.967160,380.000000C18.424456,380.000000 17.209821,380.900000 16.267972,382.000000C15.087195,383.379047 13.304994,384.004577 10.527759,384.014742C5.826688,384.031948 1.500000,385.941942 1.500000,388.000000C1.500000,389.056678 4.936775,391.741845 6.600777,391.985258C6.656204,391.993366 8.131154,391.501639 9.878443,390.892530zM21.810684,373.237969C22.258613,370.206482 18.897843,368.756659 13.211922,369.528496C6.169326,370.484496 5.000000,370.964680 5.000000,372.900721C5.000000,375.653861 5.667952,375.857181 13.837002,375.590643C20.764391,375.364618 21.529824,375.138773 21.810684,373.237969zM403.201548,367.760390C405.787400,367.028806 408.224900,366.108433 408.618215,365.715118C409.011530,365.321803 410.010923,365.000000 410.839088,365.000000C411.667253,365.000000 415.079753,362.673936 418.422421,359.830969C427.434464,352.166152 427.970488,351.526520 423.500000,353.771937C413.192225,358.949282 399.301261,362.142252 389.510158,361.584826C381.737668,361.142324 372.057337,359.579936 369.000000,358.274525C366.659080,357.275006 355.879490,354.897391 352.000000,354.524896C350.075000,354.340064 345.510961,353.062888 341.857692,351.686727C337.158009,349.916389 334.903821,349.496179 334.150074,350.249926C333.396326,351.003674 332.618872,350.928581 331.491767,349.993167C330.127368,348.860816 329.817547,348.981699 329.332754,350.835549C328.997473,352.117664 327.974926,353.000000 326.824352,353.000000C325.756040,353.000000 325.160081,353.450000 325.500000,354.000000C326.288933,355.276521 334.688334,355.313304 335.473008,354.043674C336.274695,352.746517 338.787317,353.798452 343.118789,357.244659C346.806811,360.178924 350.746471,362.550096 357.000000,365.599373C364.565678,369.288466 393.085383,370.622438 403.201548,367.760390zM385.750000,355.447862C387.246225,354.986914 387.385382,351.588610 386.013036,349.024359C384.593714,346.372331 377.424952,345.305449 375.108788,347.401548C372.897329,349.402891 371.381393,349.436277 370.638374,347.500000C370.278602,346.562449 368.751812,346.000000 366.566569,346.000000C358.754054,346.000000 360.721886,354.213914 368.614885,354.549864C370.751698,354.640814 373.175000,354.977954 374.000000,355.299064C377.765965,356.764871 381.328579,356.809987 385.750000,355.447862zM400.555504,355.910193C400.949132,355.273290 402.552275,355.068627 404.413098,355.417719C406.481713,355.805794 408.280780,355.498075 409.548578,354.539329C410.621860,353.727682 412.436459,353.049295 413.581020,353.031803C416.446080,352.988018 418.586799,348.369696 418.115154,343.250000C417.953946,341.500086 415.995838,341.693792 413.805112,343.676371C412.385051,344.961509 411.678200,345.078200 410.776371,344.176371C408.939463,342.339463 406.261909,342.787985 404.560090,345.217672C403.129039,347.260784 402.879419,347.307991 401.388831,345.817403C397.671119,342.099690 386.697014,349.440897 388.591628,354.378184C389.488762,356.716076 399.282365,357.970175 400.555504,355.910193zM359.732143,349.303571C360.133784,348.098647 357.372548,345.000000 355.897187,345.000000C353.929633,345.000000 353.682031,348.294327 355.547083,349.658087C357.572602,351.139182 359.165244,351.004269 359.732143,349.303571zM11.048697,346.441324C11.879301,345.440507 13.579342,344.993125 15.798661,345.191324C19.863274,345.554319 21.617134,343.594995 20.655886,339.765078C19.739665,336.114563 17.298238,335.575152 14.645781,338.437200C13.194147,340.003540 11.048541,340.968691 8.553737,341.177565C4.439032,341.522063 2.273321,343.663923 3.309468,346.364077C4.118977,348.473625 9.318962,348.525527 11.048697,346.441324zM270.000000,332.440983C270.000000,331.583524 269.550000,331.160081 269.000000,331.500000C268.450000,331.839919 268.000000,332.541476 268.000000,333.059017C268.000000,333.576558 268.450000,334.000000 269.000000,334.000000C269.550000,334.000000 270.000000,333.298442 270.000000,332.440983zM21.197378,323.963925C20.697384,314.936411 11.559623,303.772111 9.360768,309.502236C8.398790,312.009112 9.804125,315.576325 13.493290,319.991968C15.421980,322.300461 17.000000,325.196651 17.000000,326.427947C17.000000,329.157086 17.902595,330.172630 19.951236,329.748495C21.168146,329.496555 21.435157,328.257092 21.197378,323.963925zM255.000000,302.500000C254.315311,301.675000 252.910211,301.000000 251.877555,301.000000C249.326993,301.000000 249.398534,296.325784 252.000000,293.000000L253.955528,290.500000L253.977764,295.250000C253.994862,298.902371 254.364980,300.000000 255.579455,300.000000C256.802660,300.000000 257.015008,299.344815 256.520909,297.095200C256.154926,295.428890 256.334230,293.911469 256.941454,293.536183C257.637693,293.105884 258.000000,294.784645 258.000000,298.440983C258.000000,304.110919 257.216609,305.170851 255.000000,302.500000zM20.168768,290.168959C19.523273,288.014490 17.255194,284.291067 15.128593,281.894687C11.748920,278.086272 11.056667,277.708081 9.631022,278.891261C6.807043,281.234956 7.782126,284.634365 13.117228,291.045141C17.744862,296.605808 18.383133,297.045438 19.788425,295.640146C21.094103,294.334469 21.154874,293.460288 20.168768,290.168959zM259.850000,295.000000C259.767500,293.900000 259.655000,292.652074 259.600000,292.226831C259.545000,291.801588 260.778739,289.889088 262.341643,287.976831C265.145950,284.545680 265.175262,284.536131 264.572591,287.250000C264.236709,288.762500 264.291065,290.000000 264.693383,290.000000C265.095702,290.000000 266.438092,288.762500 267.676473,287.250000L269.928074,284.500000L269.964037,287.702947C270.003084,291.180580 268.188159,296.000000 266.839485,296.000000C266.377768,296.000000 266.000000,295.550000 266.000000,295.000000C266.000000,293.422901 263.000507,293.835103 262.361626,295.500000C261.536436,297.650413 260.026233,297.349771 259.850000,295.000000zM265.187738,279.847497C265.448650,276.214928 265.870003,275.447451 267.750000,275.180449C270.369390,274.808436 270.815154,277.078593 268.500000,279.000000C267.675000,279.684689 267.000000,280.838232 267.000000,281.563428C267.000000,282.288624 266.521982,283.177397 265.937738,283.538480C265.234026,283.973398 264.980875,282.727566 265.187738,279.847497zM207.000000,281.559017C207.000000,281.316476 206.550000,280.839919 206.000000,280.500000C205.450000,280.160081 205.000000,280.358524 205.000000,280.940983C205.000000,281.523442 205.450000,282.000000 206.000000,282.000000C206.550000,282.000000 207.000000,281.801558 207.000000,281.559017zM201.500000,269.000000C201.124563,267.817103 201.042388,266.624279 201.317388,266.349279C201.592388,266.074279 202.124563,266.817103 202.500000,268.000000C202.875437,269.182897 202.957612,270.375721 202.682612,270.650721C202.407612,270.925721 201.875437,270.182897 201.500000,269.000000zM267.242424,266.303030C268.725758,264.819697 270.290530,263.958433 270.719697,264.389110C271.574327,265.246748 267.457330,269.000000 265.661943,269.000000C265.047874,269.000000 265.759091,267.786364 267.242424,266.303030zM19.026336,264.468268C20.928020,262.176878 18.771698,256.122330 14.247570,251.050389C9.966751,246.251217 7.000000,246.229355 7.000000,250.996980C7.000000,253.763270 15.054624,266.000000 16.875488,266.000000C17.359280,266.000000 18.327162,265.310720 19.026336,264.468268zM199.078947,260.416667C199.126931,259.251724 199.363888,259.014767 199.683114,259.812500C199.971985,260.534375 199.936458,261.396875 199.604167,261.729167C199.271875,262.061458 199.035526,261.470833 199.078947,260.416667zM264.000000,258.103592C264.000000,257.023712 270.715394,251.000000 271.919273,251.000000C272.386597,251.000000 271.123592,252.800000 269.112594,255.000000C265.507033,258.944427 264.000000,259.859268 264.000000,258.103592zM259.000000,249.562149C259.000000,248.771331 259.787500,248.156413 260.750000,248.195665C261.712500,248.234917 263.400000,247.905646 264.500000,247.463951C266.473013,246.671706 266.474295,246.690145 264.595012,248.830435C262.439630,251.285172 259.000000,251.735005 259.000000,249.562149zM311.070368,248.131483C310.520368,247.103799 310.354535,245.978799 310.701850,245.631483C311.682288,244.651046 320.812702,244.887928 321.444497,245.910193C322.749939,248.022444 341.510379,245.382433 343.105502,242.862009C344.478136,240.693134 343.504548,239.476676 340.645108,239.787849C339.190299,239.946166 338.000000,239.574751 338.000000,238.962483C338.000000,238.344744 336.775745,237.977684 335.249399,238.137788C333.736569,238.296474 331.843289,238.021181 331.042111,237.526026C330.240932,237.030870 322.986836,236.556801 314.921896,236.472538C300.446092,236.321294 300.266317,236.346315 300.879185,238.427023C301.718612,241.276908 303.845628,243.981177 307.826725,247.260063C311.742800,250.485397 312.428773,250.669686 311.070368,248.131483zM301.767927,243.000000C301.080966,241.900000 299.936320,241.000000 299.224269,241.000000C298.239510,241.000000 298.185830,241.478709 299.000000,243.000000C299.588702,244.100000 300.733348,245.000000 301.543658,245.000000C302.766621,245.000000 302.804727,244.660180 301.767927,243.000000zM461.572338,241.688338C467.746684,240.480037 474.320417,237.159466 470.750000,237.052452C469.684151,237.020506 469.000000,236.218114 469.000000,235.000000C469.000000,232.627719 466.621886,232.429543 463.000000,234.500000C459.508864,236.495714 457.343705,236.495714 459.000000,234.500000C460.432759,232.773631 459.120971,232.588627 452.826811,233.629383C450.257792,234.054178 449.312994,234.652075 449.683799,235.618378C450.058145,236.593906 449.374236,237.003235 447.356989,237.011006C441.819964,237.032335 437.000000,238.251562 437.000000,239.630842C437.000000,240.383879 436.325000,241.000000 435.500000,241.000000C434.675000,241.000000 434.000000,241.450000 434.000000,242.000000C434.000000,243.393132 454.017130,243.166870 461.572338,241.688338zM17.827073,232.659422C18.378086,229.798242 17.324780,226.833218 13.944370,221.729730C10.514085,216.550945 6.677626,215.289629 5.513373,218.957864C4.826865,221.120860 5.816707,223.176949 10.964999,230.281919C14.475508,235.126644 17.172008,236.060900 17.827073,232.659422zM266.812500,233.316886C267.534375,233.028015 268.396875,233.063542 268.729167,233.395833C269.061458,233.728125 268.470833,233.964474 267.416667,233.921053C266.251724,233.873069 266.014767,233.636112 266.812500,233.316886zM491.500000,230.000000C491.839919,229.450000 491.416476,229.000000 490.559017,229.000000C489.701558,229.000000 489.000000,229.450000 489.000000,230.000000C489.000000,230.550000 489.423442,231.000000 489.940983,231.000000C490.458524,231.000000 491.160081,230.550000 491.500000,230.000000zM220.666667,225.333333C219.448738,224.115404 219.977589,222.000000 221.500000,222.000000C222.333333,222.000000 223.000000,222.888889 223.000000,224.000000C223.000000,225.992243 221.934458,226.601124 220.666667,225.333333zM494.538944,223.936987C494.900282,223.352329 494.478147,222.080840 493.600865,221.111454C492.723124,220.141562 491.720213,216.616527 491.370749,213.273037C490.794252,207.757411 490.494294,207.143063 488.117846,206.610713C483.018093,205.468313 482.081581,203.945451 483.106151,198.461196C483.718245,195.184816 483.687597,193.395866 483.015534,193.171845C482.456990,192.985663 482.000000,191.970833 482.000000,190.916667C482.000000,189.862500 481.437500,188.993109 480.750000,188.984687C479.837116,188.973504 479.868607,188.735855 480.866766,188.103505C482.601688,187.004402 480.864795,181.092603 478.061632,178.555776C475.221038,175.985074 474.707712,178.376782 477.530820,181.028954C482.171796,185.388925 480.284688,186.361033 474.629664,182.523430C469.205614,178.842570 458.080057,179.033977 455.017989,182.860834C453.243785,185.078166 449.095460,186.257263 443.560954,186.117318C441.394479,186.062537 438.583966,186.697802 437.315369,187.529018C435.963567,188.414752 434.017344,188.791473 432.613510,188.439133C431.296083,188.108480 429.943648,188.282162 429.608099,188.825093C429.272549,189.368024 428.151093,189.590767 427.115975,189.320077C425.996763,189.027397 424.679884,189.579140 423.866971,190.681338C423.115137,191.700720 421.269645,193.320132 419.765877,194.280030C418.262110,195.239929 416.750826,197.144607 416.407469,198.512650C416.017654,200.065795 415.072735,201.000000 413.891592,201.000000C412.685838,201.000000 412.000000,201.703746 412.000000,202.940983C412.000000,206.001461 413.931617,206.412870 416.587272,203.918013C418.498748,202.122274 419.288886,201.888886 420.239293,202.839293C421.189701,203.789701 421.826533,203.559661 423.182736,201.776049L424.913373,199.500000L429.387081,201.852036C431.847620,203.145655 434.314454,203.923691 434.868934,203.581003C435.423414,203.238316 436.270344,203.660661 436.751002,204.519548C437.921356,206.610856 440.897221,205.400529 442.051853,202.363615C442.611486,200.891670 443.760524,200.000000 445.097694,200.000000C446.885342,200.000000 447.038077,200.249194 446.009821,201.488167C444.411549,203.413967 446.838070,204.508442 450.608125,203.562218C452.298955,203.137847 454.105161,203.494109 455.759978,204.578387C458.017487,206.057564 458.117085,206.354972 456.633056,207.185476C453.620436,208.871423 455.996648,210.000000 462.559017,210.000000C469.688864,210.000000 473.382177,212.229501 472.803752,216.184326C472.496647,218.284072 474.849020,219.190931 480.662458,219.213922C481.936777,219.218961 483.027773,219.998204 483.318838,221.111237C483.685543,222.513519 484.723154,223.000000 487.347363,223.000000C489.291395,223.000000 491.160081,223.450000 491.500000,224.000000C492.305884,225.303948 493.712137,225.274789 494.538944,223.936987zM225.785475,222.250000C224.063119,220.272877 224.470993,218.000000 226.548150,218.000000C227.937100,218.000000 230.000000,220.948819 230.000000,222.934259C230.000000,224.597041 227.472619,224.186702 225.785475,222.250000zM292.962226,219.045879C294.866450,217.370645 297.106223,216.000000 297.939499,216.000000C300.175458,216.000000 295.118900,220.634009 292.000000,221.443166C289.709516,222.037401 289.790156,221.836494 292.962226,219.045879zM226.500000,210.000000C226.839919,209.450000 227.793034,209.000000 228.618034,209.000000C229.443034,209.000000 229.839919,209.450000 229.500000,210.000000C229.160081,210.550000 228.206966,211.000000 227.381966,211.000000C226.556966,211.000000 226.160081,210.550000 226.500000,210.000000zM281.583450,208.356872C280.748271,206.180430 281.398300,205.674253 283.977289,206.492792C285.680126,207.033251 285.870517,207.451091 284.930205,208.584098C283.387156,210.443358 282.357278,210.373435 281.583450,208.356872zM197.000000,207.000000C197.000000,206.450000 197.648442,206.000000 198.440983,206.000000C199.233524,206.000000 200.160081,206.450000 200.500000,207.000000C200.839919,207.550000 200.191476,208.000000 199.059017,208.000000C197.926558,208.000000 197.000000,207.550000 197.000000,207.000000zM16.832804,200.629665C17.345373,197.968107 14.423208,191.061656 11.083163,187.040559C8.601076,184.052362 7.991039,183.762548 6.604824,184.913004C3.999352,187.075353 4.738946,190.725320 9.076986,197.113367C13.208587,203.197419 16.086981,204.502412 16.832804,200.629665zM209.235614,200.793157C209.456869,200.129394 210.777303,198.891894 212.169914,198.043157C213.562524,197.194421 215.890524,195.663022 217.343246,194.640049C220.005463,192.765378 223.694528,193.067214 222.463544,195.058987C219.897761,199.210512 208.051405,204.345784 209.235614,200.793157zM194.556704,192.777494C193.700517,191.555115 193.000000,190.162141 193.000000,189.681995C193.000000,189.024142 202.483832,189.183800 209.000000,189.951351C209.275000,189.983744 207.700000,191.118897 205.500000,192.473914C200.432456,195.595099 196.604609,195.701288 194.556704,192.777494zM472.000000,194.359440C468.972661,193.338858 465.480601,191.476742 464.765313,190.501594C463.303830,188.509164 464.051468,187.000000 466.500000,187.000000C467.875000,187.000000 469.000000,187.453644 469.000000,188.008097C469.000000,188.562550 470.818717,189.743900 473.041593,190.633319C478.230092,192.709345 477.272003,196.136746 472.000000,194.359440zM354.000000,193.024901C352.625000,192.598244 350.491693,192.465832 349.259318,192.730650C347.854201,193.032589 346.806322,192.658859 346.449289,191.728444C346.087247,190.784979 343.808161,189.996268 340.189971,189.562316C333.938487,188.812537 327.898804,186.278467 327.192271,184.108869C326.842595,183.035097 327.394056,182.882086 329.609591,183.438150C331.188280,183.834375 336.226860,184.359193 340.806435,184.604411C350.028368,185.098208 358.362256,188.453262 359.303023,192.050760C359.856444,194.167043 358.489847,194.418081 354.000000,193.024901zM392.551863,193.083916C392.240469,192.580070 392.414212,191.040740 392.937958,189.663182C393.649548,187.791559 394.409578,187.294346 395.945112,187.695898C398.417770,188.342512 398.426572,188.419336 396.384990,191.535183C394.686401,194.127558 393.494499,194.609133 392.551863,193.083916zM246.000000,189.059017C246.000000,186.872058 247.562048,185.482361 248.434146,186.893446C249.164822,188.075704 248.067373,191.000000 246.893011,191.000000C246.401855,191.000000 246.000000,190.126558 246.000000,189.059017zM192.222506,180.443296C188.528609,177.855990 189.376918,176.154610 193.944405,176.989834C199.495090,178.004848 205.937899,177.176681 208.942945,175.061901C212.398684,172.629949 216.000000,171.567710 216.000000,172.980361C216.000000,174.667661 210.945125,179.000000 208.976422,179.000000C208.024079,179.000000 206.684689,179.675000 206.000000,180.500000C204.310073,182.536238 195.156815,182.498566 192.222506,180.443296zM223.505548,178.993869C224.504086,177.890497 225.527402,177.194069 225.779583,177.446250C226.321207,177.987874 223.470638,181.000000 222.416441,181.000000C222.016912,181.000000 222.507010,180.097241 223.505548,178.993869zM495.396256,172.409758C496.147066,170.453177 495.338916,169.000000 493.500000,169.000000C491.700488,169.000000 490.676287,170.714034 491.380002,172.547887C492.123397,174.485142 494.632977,174.398831 495.396256,172.409758zM278.360768,171.497764C277.438852,169.095288 278.900275,164.747754 280.432179,165.335601C281.173819,165.620195 282.780932,164.921108 284.003541,163.782074L286.226468,161.711103L285.469348,164.105551C284.742702,166.403623 280.204364,173.000000 279.349926,173.000000C279.122944,173.000000 278.677822,172.323994 278.360768,171.497764zM14.990616,167.250000C14.978322,162.337336 9.741688,153.000000 6.998824,153.000000C3.219400,153.000000 3.450229,157.383490 7.603525,164.483439C12.115567,172.196655 15.005703,173.279048 14.990616,167.250000zM210.000000,167.000000C210.000000,166.450000 210.450000,166.000000 211.000000,166.000000C211.550000,166.000000 212.000000,166.450000 212.000000,167.000000C212.000000,167.550000 211.550000,168.000000 211.000000,168.000000C210.450000,168.000000 210.000000,167.550000 210.000000,167.000000zM472.020056,164.475834C472.715776,163.637543 473.006751,162.673417 472.666667,162.333333C471.940377,161.607044 469.000000,163.843691 469.000000,165.122445C469.000000,166.499892 470.629848,166.150932 472.020056,164.475834zM508.075791,164.141617C506.943364,162.025657 502.085885,158.580781 501.317771,159.348896C500.745947,159.920720 507.063708,165.925085 508.285184,165.970687C508.717035,165.986809 508.622808,165.163728 508.075791,164.141617zM386.536183,160.058546C386.176364,159.476346 386.527274,159.000000 387.315983,159.000000C388.104692,159.000000 390.268750,158.715493 392.125000,158.367763C394.425701,157.936774 395.181689,158.062395 394.500000,158.762410C392.956908,160.346987 387.284972,161.270112 386.536183,160.058546zM412.500000,160.000000C412.839919,159.450000 412.641476,159.000000 412.059017,159.000000C411.476558,159.000000 411.000000,159.450000 411.000000,160.000000C411.000000,160.550000 411.198442,161.000000 411.440983,161.000000C411.683524,161.000000 412.160081,160.550000 412.500000,160.000000zM218.812500,158.316886C219.534375,158.028015 220.396875,158.063542 220.729167,158.395833C221.061458,158.728125 220.470833,158.964474 219.416667,158.921053C218.251724,158.873069 218.014767,158.636112 218.812500,158.316886zM199.569098,155.888197C200.652958,154.134474 197.921781,153.078516 195.342088,154.253903C194.053940,154.840823 193.000000,155.698798 193.000000,156.160515C193.000000,157.414022 198.774018,157.174663 199.569098,155.888197zM206.000000,154.000000C206.000000,153.450000 205.576558,153.000000 205.059017,153.000000C204.541476,153.000000 203.839919,153.450000 203.500000,154.000000C203.160081,154.550000 203.583524,155.000000 204.440983,155.000000C205.298442,155.000000 206.000000,154.550000 206.000000,154.000000zM312.500000,154.000000C312.160081,153.450000 312.331966,153.000000 312.881966,153.000000C313.431966,153.000000 314.160081,153.450000 314.500000,154.000000C314.839919,154.550000 314.668034,155.000000 314.118034,155.000000C313.568034,155.000000 312.839919,154.550000 312.500000,154.000000zM381.441979,153.906120C380.443362,152.290325 381.891439,151.256591 384.464478,151.748459C385.846195,152.012591 386.763948,152.572923 386.503929,152.993643C385.740932,154.228198 382.052010,154.893171 381.441979,153.906120zM244.000000,153.116877C244.000000,152.047087 250.070562,149.737229 250.845491,150.512158C251.668288,151.334954 249.750045,152.682849 246.750000,153.389944C245.237500,153.746432 244.000000,153.623552 244.000000,153.116877zM289.000000,152.464816C289.000000,151.239510 289.403701,151.145687 291.000000,152.000000C292.100000,152.588702 293.000000,153.279535 293.000000,153.535184C293.000000,153.790833 292.100000,154.000000 291.000000,154.000000C289.868517,154.000000 289.000000,153.333333 289.000000,152.464816zM202.328519,149.564857C204.271979,150.146414 204.342489,150.052006 203.000000,148.665791C201.739717,147.364460 200.900708,147.306508 197.750000,148.303158C194.044015,149.475458 192.825271,151.413955 195.250000,152.279584C195.937500,152.525021 197.322834,151.868411 198.328519,150.820450C199.563569,149.533483 200.861820,149.125964 202.328519,149.564857zM304.000000,150.778661C304.000000,149.807989 305.164409,149.280285 307.500000,149.192481C309.425000,149.120113 311.000000,149.497200 311.000000,150.030451C311.000000,150.563703 310.437500,151.006145 309.750000,151.013655C309.062500,151.021165 307.487500,151.298649 306.250000,151.630286C304.671523,152.053301 304.000000,151.799130 304.000000,150.778661zM189.573736,146.142590C187.841170,142.792177 187.519826,137.799841 188.868375,135.184259C190.355836,132.299248 191.256958,125.723157 190.063780,126.460582C189.474669,126.824672 189.000000,126.374646 189.000000,125.452028C189.000000,124.431180 189.544678,123.995035 190.406536,124.325761C191.295400,124.666850 192.252422,123.804812 193.006808,121.983565C194.606618,118.121282 193.666089,115.640130 191.970597,119.250000C191.260202,120.762500 190.313772,122.000000 189.867420,122.000000C189.421067,122.000000 188.367284,124.368651 187.525680,127.263669C186.327188,131.386335 186.193565,134.104822 186.909252,139.804579C187.411822,143.807062 188.376962,147.749285 189.054008,148.565076C190.996676,150.905847 191.301701,149.484105 189.573736,146.142590zM442.916667,149.717032C442.687500,149.561400 441.600000,148.773900 440.500000,147.967032C438.649994,146.610023 438.602929,146.631245 439.872445,148.250000C440.627289,149.212500 441.714789,150.000000 442.289111,150.000000C442.863433,150.000000 443.145833,149.872665 442.916667,149.717032zM386.519288,148.004918C384.329897,147.584122 381.967397,147.459017 381.269288,147.726906C379.102095,148.558536 379.837172,144.157510 382.064567,142.965445C383.620315,142.132834 383.861574,141.538133 383.043491,140.552404C382.214219,139.553192 382.494154,139.100594 384.228925,138.635797C389.454994,137.235579 392.539822,138.899494 387.750000,140.535018C385.721929,141.227520 385.828598,141.344507 388.831446,141.721083C390.663741,141.950863 393.469765,141.683288 395.067054,141.126470C397.274672,140.356890 398.303053,140.445910 399.354774,141.497631C400.122973,142.265830 401.686053,142.633354 402.869166,142.323963C406.907921,141.267805 404.988169,143.827001 399.803656,146.410552C394.383303,149.111628 393.086970,149.267212 386.519288,148.004918zM254.749864,145.416531C253.796906,144.463573 251.886372,146.007130 252.596556,147.156231C253.018675,147.839234 253.578021,147.821979 254.296201,147.103799C254.884957,146.515043 255.089106,145.755772 254.749864,145.416531zM418.287656,145.307235C417.784849,143.996942 418.135520,143.793870 420.081330,144.268531L422.500000,144.858541L420.250000,143.307299C419.012500,142.454115 418.000000,141.135943 418.000000,140.378028C418.000000,139.620113 417.493750,139.000000 416.875000,139.000000C416.148333,139.000000 415.971296,140.106481 416.375000,142.125000C416.718750,143.843750 417.000000,145.895308 417.000000,146.684017C417.000000,147.472726 417.430347,147.852065 417.956326,147.526992C418.482305,147.201919 418.631404,146.203028 418.287656,145.307235zM459.000000,147.000000C459.000000,146.450000 458.576558,146.000000 458.059017,146.000000C457.541476,146.000000 456.839919,146.450000 456.500000,147.000000C456.160081,147.550000 456.583524,148.000000 457.440983,148.000000C458.298442,148.000000 459.000000,147.550000 459.000000,147.000000zM198.183333,142.783333C197.465771,142.065771 197.000000,142.006729 197.000000,142.633333C197.000000,143.201667 197.300000,143.966667 197.666667,144.333333C198.033333,144.700000 198.565833,144.767500 198.850000,144.483333C199.134167,144.199167 198.834167,143.434167 198.183333,142.783333zM363.500000,144.000000C363.126834,143.396204 364.391116,143.027847 366.690983,143.070285C369.732685,143.126412 370.097106,143.313700 368.500000,144.000000C365.751516,145.181064 364.229938,145.181064 363.500000,144.000000zM232.000000,143.000000C232.000000,142.450000 232.675000,142.000000 233.500000,142.000000C234.325000,142.000000 235.000000,142.450000 235.000000,143.000000C235.000000,143.550000 234.325000,144.000000 233.500000,144.000000C232.675000,144.000000 232.000000,143.550000 232.000000,143.000000zM487.500000,142.000000C487.839919,141.450000 487.218034,141.000000 486.118034,141.000000C485.018034,141.000000 483.839919,141.450000 483.500000,142.000000C483.160081,142.550000 483.781966,143.000000 484.881966,143.000000C485.981966,143.000000 487.160081,142.550000 487.500000,142.000000zM377.000000,141.000000C377.000000,140.450000 377.450000,140.000000 378.000000,140.000000C378.550000,140.000000 379.000000,140.450000 379.000000,141.000000C379.000000,141.550000 378.550000,142.000000 378.000000,142.000000C377.450000,142.000000 377.000000,141.550000 377.000000,141.000000zM14.689268,134.719984C13.655439,127.012214 6.437171,119.812410 4.584314,124.640877C3.716378,126.902682 4.703080,129.598522 8.682093,135.836716C11.616243,140.436802 12.301519,140.994651 13.646752,139.878206C14.764702,138.950391 15.060427,137.487183 14.689268,134.719984zM470.677667,138.533001C470.300895,137.402684 462.119227,135.547440 461.267483,136.399183C460.963617,136.703050 461.236198,137.579674 461.873218,138.347238C463.188611,139.932188 471.200409,140.101228 470.677667,138.533001zM476.755005,137.250000C477.011420,136.471404 476.214689,136.000000 474.642350,136.000000C472.023832,136.000000 470.550973,137.217639 471.736036,138.402702C472.788406,139.455072 476.293960,138.649955 476.755005,137.250000zM194.000000,135.440983C194.000000,134.648442 193.550000,134.000000 193.000000,134.000000C192.450000,134.000000 192.000000,134.926558 192.000000,136.059017C192.000000,137.191476 192.450000,137.839919 193.000000,137.500000C193.550000,137.160081 194.000000,136.233524 194.000000,135.440983zM395.665552,135.791173C392.383002,134.014917 391.310834,133.875949 388.216404,134.825656C382.445073,136.596928 382.457569,134.393426 388.233865,131.746557C393.503549,129.331833 397.000000,128.757954 397.000000,130.307755C397.000000,131.234333 397.934602,131.516444 400.000000,131.213308C402.765744,130.807383 403.000000,131.007765 403.000000,133.779512C403.000000,135.598566 402.375254,137.025760 401.418213,137.393011C400.548229,137.726855 399.760729,137.969866 399.668213,137.933036C399.575696,137.896206 397.774498,136.932368 395.665552,135.791173zM494.457938,137.068058C494.774722,136.555491 493.788780,135.992991 492.266955,135.818058C489.983193,135.555543 489.544186,135.063425 489.753026,133.000000C489.947699,131.076553 489.784063,130.844446 489.043482,131.993558C488.445392,132.921575 486.929632,133.366354 485.040456,133.168192C482.849709,132.938396 482.000000,133.273038 482.000000,134.365617C482.000000,136.180279 483.637956,137.394816 484.407035,136.150421C485.052154,135.106596 489.789902,135.851037 490.573795,137.119402C491.290950,138.279784 493.728968,138.247556 494.457938,137.068058zM460.000000,136.166667C460.000000,134.864593 458.811227,133.998634 457.844208,134.596285C456.809989,135.235467 457.701763,137.000000 459.059017,137.000000C459.576558,137.000000 460.000000,136.625000 460.000000,136.166667zM237.500000,134.000000C237.839919,133.450000 237.641476,133.000000 237.059017,133.000000C236.476558,133.000000 236.000000,133.450000 236.000000,134.000000C236.000000,134.550000 236.198442,135.000000 236.440983,135.000000C236.683524,135.000000 237.160081,134.550000 237.500000,134.000000zM371.500000,134.000000C371.839919,133.450000 372.568034,133.000000 373.118034,133.000000C373.668034,133.000000 373.839919,133.450000 373.500000,134.000000C373.160081,134.550000 372.431966,135.000000 371.881966,135.000000C371.331966,135.000000 371.160081,134.550000 371.500000,134.000000zM431.000000,134.000000C431.000000,133.450000 430.298442,133.000000 429.440983,133.000000C428.583524,133.000000 428.160081,133.450000 428.500000,134.000000C428.839919,134.550000 429.541476,135.000000 430.059017,135.000000C430.576558,135.000000 431.000000,134.550000 431.000000,134.000000zM519.027978,132.573589C517.771427,129.268609 517.706783,127.000000 518.869158,127.000000C519.784806,127.000000 521.255297,134.078036 520.497156,134.836177C520.254496,135.078837 519.593366,134.060672 519.027978,132.573589zM290.729167,132.395833C290.396875,132.063542 289.534375,132.028015 288.812500,132.316886C288.014767,132.636112 288.251724,132.873069 289.416667,132.921053C290.470833,132.964474 291.061458,132.728125 290.729167,132.395833zM479.726247,130.250000C478.855196,129.287500 478.222952,128.050000 478.321259,127.500000C478.419567,126.950000 477.262500,126.357610 475.750000,126.183578C473.824628,125.962039 473.000000,126.319866 473.000000,127.376874C473.000000,129.253387 476.788888,132.000000 479.377494,132.000000C481.154611,132.000000 481.182649,131.859306 479.726247,130.250000zM442.778591,128.778591C439.989225,125.989225 440.592649,125.497282 446.753057,125.538402C453.219235,125.581562 455.258351,126.419879 454.791714,128.843237C454.325790,131.262886 445.213853,131.213853 442.778591,128.778591zM485.500000,129.000000C485.839919,128.450000 485.753976,127.993855 485.309017,127.986345C484.864058,127.978835 483.375000,127.720436 482.000000,127.412125C479.587105,126.871091 479.567633,126.906409 481.441130,128.425780C483.695985,130.254426 484.642007,130.388262 485.500000,129.000000zM375.500000,128.000000C375.839919,127.450000 376.316476,127.000000 376.559017,127.000000C376.801558,127.000000 377.000000,127.450000 377.000000,128.000000C377.000000,128.550000 376.523442,129.000000 375.940983,129.000000C375.358524,129.000000 375.160081,128.550000 375.500000,128.000000zM317.000000,127.000000C315.831125,126.244615 316.107063,126.027245 318.250000,126.015313C319.762500,126.006891 321.000000,126.450000 321.000000,127.000000C321.000000,128.264409 318.956534,128.264409 317.000000,127.000000zM305.000000,125.059017C305.000000,123.579058 303.065133,122.761028 301.230138,123.465182C299.789340,124.018068 299.761175,124.237313 301.028025,125.038482C302.937036,126.245760 305.000000,126.256426 305.000000,125.059017zM435.500000,125.000000C435.160081,124.450000 435.331966,124.000000 435.881966,124.000000C436.431966,124.000000 437.160081,124.450000 437.500000,125.000000C437.839919,125.550000 437.668034,126.000000 437.118034,126.000000C436.568034,126.000000 435.839919,125.550000 435.500000,125.000000zM489.500000,125.000000C489.160081,124.450000 488.121024,124.006891 487.190983,124.015313C485.733708,124.028509 485.707313,124.164601 487.000000,125.000000C488.958372,126.265597 490.282182,126.265597 489.500000,125.000000zM312.522542,118.036475C312.159136,117.448470 311.373369,117.269245 310.776393,117.638197C310.128565,118.038576 309.978640,117.843578 310.404508,117.154508C311.359636,115.609079 316.286876,115.639371 315.770833,117.187500C315.223235,118.830294 313.320498,119.327594 312.522542,118.036475zM471.500000,118.000000C471.160081,117.450000 471.556966,117.000000 472.381966,117.000000C473.206966,117.000000 474.160081,117.450000 474.500000,118.000000C474.839919,118.550000 474.443034,119.000000 473.618034,119.000000C472.793034,119.000000 471.839919,118.550000 471.500000,118.000000zM248.268566,108.918996C247.989414,107.851516 246.577288,106.688758 245.130508,106.335089C243.683729,105.981421 242.274743,105.353899 241.999430,104.940597C241.361321,103.982664 231.000000,105.991825 231.000000,107.073494C231.000000,108.394055 232.434807,108.907840 237.424302,109.373951C240.022678,109.616687 242.346892,110.013559 242.589222,110.255889C242.831552,110.498218 244.322737,110.733249 245.902968,110.778178C248.271799,110.845529 248.687027,110.519192 248.268566,108.918996zM258.951711,107.809878C262.120036,107.627764 264.511694,106.987451 264.752444,106.256861C265.291850,104.619956 253.062315,105.794828 251.308769,107.548374C249.839125,109.018018 250.852966,110.366917 252.438305,109.051202C253.055583,108.538907 255.986616,107.980312 258.951711,107.809878zM14.000000,104.885328C14.000000,103.172259 12.792343,99.551793 11.316317,96.839848C9.267132,93.074820 8.144100,91.978899 6.566317,92.204519C3.135277,92.695153 3.460725,96.614262 7.428791,102.590602C11.531510,108.769743 14.000000,109.631763 14.000000,104.885328zM514.750000,106.919901C513.787500,106.359296 512.992226,105.360480 512.982723,104.700310C512.973221,104.040139 511.848221,102.440268 510.482723,101.145040C507.837682,98.636116 507.295217,97.000000 509.108408,97.000000C509.783938,97.000000 509.977775,96.047584 509.604738,94.561285C508.766049,91.219683 510.224912,90.644294 514.705982,92.549305C516.792692,93.436416 519.343508,94.335680 520.374462,94.547669C526.309076,95.767968 533.139150,102.000000 528.541939,102.000000C527.659349,102.000000 526.678209,102.675000 526.361626,103.500000C526.045044,104.325000 525.046667,105.002772 524.143011,105.006161C523.239355,105.009549 521.211062,105.684549 519.635693,106.506161C518.060324,107.327772 516.710324,107.986316 516.635693,107.969591C516.561062,107.952867 515.712500,107.480506 514.750000,106.919901zM232.035174,96.542382C230.416895,94.592476 228.595826,94.577147 227.000000,96.500000C225.961837,97.750910 226.097763,98.000000 227.818538,98.000000C228.953424,98.000000 230.184314,98.489210 230.553851,99.087132C231.020960,99.842931 231.544152,99.855848 232.270486,99.129514C232.996820,98.403180 232.925102,97.614680 232.035174,96.542382zM221.000000,97.500000C221.000000,96.675000 220.576558,96.000000 220.059017,96.000000C218.798039,96.000000 217.894922,97.561589 218.693853,98.360520C219.820037,99.486704 221.000000,99.046410 221.000000,97.500000zM515.000000,98.559017C515.000000,98.316476 514.550000,97.839919 514.000000,97.500000C513.450000,97.160081 513.000000,97.358524 513.000000,97.940983C513.000000,98.523442 513.450000,99.000000 514.000000,99.000000C514.550000,99.000000 515.000000,98.801558 515.000000,98.559017zM213.435239,97.104785C213.739540,96.612416 213.251690,95.926824 212.351128,95.581246C210.404283,94.834172 209.542191,95.450233 210.458881,96.933469C211.262558,98.233845 212.686778,98.315821 213.435239,97.104785zM273.000000,93.047053C273.000000,91.106190 270.678832,87.080459 269.853772,87.590374C268.607983,88.360314 268.810265,90.868911 270.250000,92.504169C271.704729,94.156457 273.000000,94.412160 273.000000,93.047053zM502.104816,86.915131C500.787465,86.388178 499.960181,85.706485 500.266408,85.400258C500.572635,85.094032 502.100468,85.535682 503.661592,86.381704C506.802765,88.084003 505.846265,88.411746 502.104816,86.915131zM276.000000,82.000000C276.000000,80.900000 276.622516,80.000000 277.383369,80.000000C278.144221,80.000000 279.002093,80.900000 279.289749,82.000000C279.677691,83.483493 279.320431,84.000000 277.906380,84.000000C276.666667,84.000000 276.000000,83.300594 276.000000,82.000000zM215.548056,79.907070C216.427735,78.205958 216.936243,76.602909 216.678073,76.344739C216.284966,75.951633 213.000000,81.586247 213.000000,82.653638C213.000000,83.830925 214.172528,82.567048 215.548056,79.907070zM237.481707,77.250000C237.078958,76.287500 236.412974,73.794661 236.001743,71.710359C234.818374,65.712512 233.698303,65.928722 234.501260,72.000000C235.310615,78.119654 235.645743,79.000000 237.166006,79.000000C237.776368,79.000000 237.908198,78.269239 237.481707,77.250000zM13.766017,74.422988C14.080570,70.966675 8.696600,61.000000 6.514956,61.000000C4.322081,61.000000 2.849576,64.483064 3.900376,67.184525C5.423810,71.101060 11.038997,78.153306 12.303678,77.738429C12.961655,77.522580 13.619708,76.030632 13.766017,74.422988zM241.000000,70.000000C241.000000,69.450000 240.550000,69.000000 240.000000,69.000000C239.450000,69.000000 239.000000,69.450000 239.000000,70.000000C239.000000,70.550000 239.450000,71.000000 240.000000,71.000000C240.550000,71.000000 241.000000,70.550000 241.000000,70.000000zM227.421532,66.649075C226.975791,65.491892 227.231691,64.473181 228.104283,63.931121C229.887382,62.823447 230.458508,64.360019 229.138024,66.712324C228.180156,68.418668 228.102063,68.415791 227.421532,66.649075zM220.500000,57.000000C220.839919,56.450000 220.668034,56.000000 220.118034,56.000000C219.568034,56.000000 218.839919,56.450000 218.500000,57.000000C218.160081,57.550000 218.331966,58.000000 218.881966,58.000000C219.431966,58.000000 220.160081,57.550000 220.500000,57.000000zM232.078756,56.147156C230.678001,53.529822 231.408488,52.000000 234.059017,52.000000C236.325172,52.000000 236.410615,52.630951 234.589565,55.917823L233.250000,58.335646L232.078756,56.147156zM242.510081,55.983688C242.855545,55.424717 243.557102,55.226274 244.069098,55.542705C245.456142,56.399945 245.197509,57.000000 243.440983,57.000000C242.583524,57.000000 242.164618,56.542660 242.510081,55.983688zM235.000000,49.910293C235.000000,48.539194 239.081108,45.077688 240.750000,45.033269C242.628628,44.983269 242.235852,46.243683 239.591776,48.750000C237.046519,51.162647 235.000000,51.679781 235.000000,49.910293zM12.947193,46.098670C13.651482,44.782694 13.609916,43.166400 12.812178,40.848670C11.269369,36.366224 7.017815,30.000000 5.567114,30.000000C3.867599,30.000000 2.000000,32.139292 2.000000,34.086047C2.000000,36.068045 9.758762,48.000000 11.047557,48.000000C11.532699,48.000000 12.387535,47.144402 12.947193,46.098670zM370.500000,10.268316C368.082636,9.664361 367.004388,8.152140 367.699509,6.340684C368.393179,4.533009 373.000000,4.599048 373.000000,6.416667C373.000000,7.195833 373.529673,8.009891 374.177051,8.225684C374.824429,8.441476 375.022871,9.153976 374.618034,9.809017C373.846570,11.057271 373.716086,11.071825 370.500000,10.268316zM341.500000,6.000000C341.839919,5.450000 342.991476,5.000000 344.059017,5.000000C345.126558,5.000000 346.000000,5.450000 346.000000,6.000000C346.000000,6.550000 344.848442,7.000000 343.440983,7.000000C341.989616,7.000000 341.149477,6.567158 341.500000,6.000000z"/>
</svg>
